<?xml version="1.0" encoding="UTF-8" standalone="no"?><!DOCTYPE svg PUBLIC "-//W3C//DTD SVG 1.1//EN" "http://www.w3.org/Graphics/SVG/1.1/DTD/svg11.dtd"><svg width="100%" height="100%" viewBox="0 0 2084 2084" version="1.1" xmlns="http://www.w3.org/2000/svg" xmlns:xlink="http://www.w3.org/1999/xlink" xml:space="preserve" xmlns:serif="http://www.serif.com/" style="fill-rule:evenodd;clip-rule:evenodd;stroke-linejoin:round;stroke-miterlimit:2;"><rect id="画板1" x="0" y="0" width="2083.33" height="2083.33" style="fill:none;"/><g id="画板11" serif:id="画板1"><g><path d="M2067.99,1005.22c-0,-554.401 -450.814,-1005.22 -1005.22,-1005.22l-94,3.835l-28.775,34.533l34.53,27.816l88.245,-3.835c519.875,-0 942.872,422.992 942.872,942.867c0,483.431 -368.324,889.16 -845.995,938.081l-0,-77.695l-187.999,109.345l187.999,108.386l-0,-78.653c511.242,-48.913 908.342,-482.465 908.342,-999.464Z" style="fill:#0b0b16;fill-rule:nonzero;"/><path d="M818.178,417.24l-63.306,62.349l-63.305,0l-0,-363.526l63.305,-5.759l63.306,63.307l0,243.629Zm-343.386,117.98l-79.612,180.329l0,548.649c0,135.243 102.632,247.464 234.999,263.776l0,349.139l-56.591,-23.981c-305.979,-172.652 -495.896,-497.811 -495.896,-847.916c-0,-351.057 189.917,-676.215 495.896,-847.909l56.591,-24.94l0,345.305l-155.387,57.548Zm343.386,1057.01l0,243.636l-63.306,63.308l-63.305,-5.759l-0,-363.527l63.305,0l63.306,62.342Zm-63.306,-1543.31l-94,10.545l-2.876,0.958l-115.103,43.169c-325.161,183.198 -527.547,527.544 -527.547,901.623c-0,373.12 202.386,718.425 527.547,901.63l116.061,43.162l1.918,-0l94,11.511l125.652,-125.65l0,-243.636l-125.652,-124.691l-94,0c-112.223,0 -203.345,-91.123 -203.345,-203.344l-0,-548.649l58.509,-133.325l141,-39.327l97.836,-0l125.652,-125.657l0,-243.629l-125.652,-124.69Z" style="fill:#0b0b16;fill-rule:nonzero;"/><path d="M979.32,1005.22l62.347,-62.342l61.387,62.342l-61.387,61.39l-62.347,-61.39Zm120.856,108.393l293.509,312.689l23.02,10.553l21.103,-9.594l1.918,-43.161l-293.509,-312.696l19.183,-66.184l-66.183,-109.345l128.531,-546.731l-23.98,-36.451l-37.408,23.022l-127.571,544.814l-121.816,124.691l124.694,124.698l58.509,-16.305Z" style="fill:#0b0b16;fill-rule:nonzero;"/></g></g></svg>