<?xml version="1.0" encoding="UTF-8" standalone="no"?><!DOCTYPE svg PUBLIC "-//W3C//DTD SVG 1.1//EN" "http://www.w3.org/Graphics/SVG/1.1/DTD/svg11.dtd"><svg width="100%" height="100%" viewBox="0 0 2084 2084" version="1.1" xmlns="http://www.w3.org/2000/svg" xmlns:xlink="http://www.w3.org/1999/xlink" xml:space="preserve" xmlns:serif="http://www.serif.com/" style="fill-rule:evenodd;clip-rule:evenodd;stroke-linejoin:round;stroke-miterlimit:2;"><rect id="画板1" x="0" y="0" width="2083.33" height="2083.33" style="fill:none;"/><g id="画板11" serif:id="画板1"><g><path d="M1956.66,545.061l-94.043,50.862l-31.668,-16.312l0,-337.788l125.711,68.132l-0,235.106Zm-0,408.801l-94.043,51.82l-31.668,-17.274l0,-336.829l125.711,68.136l-0,234.147Zm-0,409.756l-94.043,51.82l-31.668,-18.233l0,-336.825l125.711,68.132l-0,235.106Zm-0,409.76l-125.711,67.173l0,-371.374l125.711,69.091l-0,235.11Zm-189.046,246.622l-1388.57,0l-0,-1957.63l1388.57,0l0,1957.63Zm-1641.91,-1957.63l190.005,0l-0,1957.63l-190.005,0l0,-1957.63Zm1894.29,501.88l-0,-272.532l-16.314,-28.788l-172.732,-92.124l0,-140.104l-31.667,-30.706l-1704.29,0l-31.667,30.706l-0,2020.96l31.667,31.668l1704.29,0l31.667,-31.668l0,-139.142l172.732,-92.124l16.314,-28.791l-0,-272.529l-16.314,-27.832l-74.85,-40.304l74.85,-40.304l16.314,-28.787l-0,-272.533l-16.314,-27.828l-74.85,-40.304l74.85,-40.304l16.314,-27.828l-0,-272.533l-16.314,-27.828l-74.85,-40.308l74.85,-40.303l16.314,-27.829Z" style="fill:#0b0b16;fill-rule:nonzero;"/><path d="M1483.57,820.475l-92.124,94.042l-636.228,0l-92.124,-94.042l0,-192.884l92.124,-92.124l636.228,-0l92.124,92.124l-0,192.884Zm-92.124,-348.345l-636.228,0l-155.458,155.461l-0,192.884l155.458,157.375l636.228,0l155.459,-157.375l-0,-192.884l-155.459,-155.461Z" style="fill:#0b0b16;fill-rule:nonzero;"/><path d="M915.477,1166.9l536.427,-0l31.668,-31.669l-31.668,-32.627l-536.427,0l-31.668,32.627l31.668,31.669Z" style="fill:#0b0b16;fill-rule:nonzero;"/><path d="M726.431,1102.6l-95.002,0l-31.667,32.627l31.667,31.669l95.002,-0l30.708,-31.669l-30.708,-32.627Z" style="fill:#0b0b16;fill-rule:nonzero;"/><path d="M1515.24,1293.57l-599.762,-0l-31.668,30.705l31.668,31.669l599.762,-0l31.668,-31.669l-31.668,-30.705Z" style="fill:#0b0b16;fill-rule:nonzero;"/><path d="M726.431,1293.57l-95.002,-0l-31.667,30.705l31.667,31.669l95.002,-0l30.708,-31.669l-30.708,-30.705Z" style="fill:#0b0b16;fill-rule:nonzero;"/><path d="M1389.53,1482.61l-474.052,-0l-31.668,31.668l31.668,30.706l474.052,-0l30.708,-30.706l-30.708,-31.668Z" style="fill:#0b0b16;fill-rule:nonzero;"/><path d="M726.431,1482.61l-95.002,-0l-31.667,31.668l31.667,30.706l95.002,-0l30.708,-30.706l-30.708,-31.668Z" style="fill:#0b0b16;fill-rule:nonzero;"/></g></g></svg>