<?xml version="1.0" encoding="UTF-8" standalone="no"?><!DOCTYPE svg PUBLIC "-//W3C//DTD SVG 1.1//EN" "http://www.w3.org/Graphics/SVG/1.1/DTD/svg11.dtd"><svg width="100%" height="100%" viewBox="0 0 2084 2084" version="1.1" xmlns="http://www.w3.org/2000/svg" xmlns:xlink="http://www.w3.org/1999/xlink" xml:space="preserve" xmlns:serif="http://www.serif.com/" style="fill-rule:evenodd;clip-rule:evenodd;stroke-linejoin:round;stroke-miterlimit:2;"><rect id="画板1" x="0" y="0" width="2083.33" height="2083.33" style="fill:none;"/><g id="画板11" serif:id="画板1"><g><path d="M1651.23,824.894l-181.285,0l0,-761.586l181.285,-0l-0,761.586Zm-975.485,-65.225l-0,-283.914l731.853,-0l0,283.914l-731.853,0Zm487.263,168.818l-121.816,-13.428l-120.857,13.428l0,-106.469l242.673,0l-0,106.469Zm399.977,569.747c0,287.756 -234.039,521.792 -521.793,521.792c-286.794,-0 -520.834,-234.036 -520.834,-521.792c0,-285.832 234.04,-520.834 520.834,-520.834c287.754,0 521.793,235.002 521.793,520.834Zm-950.546,-673.34l-181.285,0l0,-761.586l181.285,-0l0,761.586Zm795.159,-696.369l0,284.881l-731.853,-0l-0,-284.881l731.853,0Zm275.285,-128.525l-244.591,0l-30.694,31.65l0,33.575l-731.853,-0l-0,-33.575l-30.694,-31.65l-244.59,0l-31.653,31.65l-0,824.894l31.653,31.651l244.59,-0l30.694,-31.651l-0,-34.526l181.285,0l-0,122.774c-232.121,77.694 -399.978,296.384 -399.978,553.442c0,322.282 262.815,585.099 584.14,585.099c322.284,0 584.14,-262.817 584.14,-585.099c-0,-257.058 -167.856,-475.748 -399.019,-553.442l0,-122.774l181.285,0l0,34.526l30.694,31.651l244.591,-0l31.652,-31.651l0,-824.894l-31.652,-31.65Z" style="fill:#0b0b16;fill-rule:nonzero;"/><path d="M1123.68,1365.87l23.021,16.311l182.244,27.816l-131.408,127.566l-8.632,28.775l30.693,181.287l-164.019,-85.364l-28.776,0l-163.06,85.364l30.694,-181.287l-8.633,-28.775l-132.366,-127.566l182.243,-27.816l23.98,-16.311l81.53,-164.976l82.489,164.976Zm-110.305,-251.306l-102.632,208.144l-229.244,33.575l-25.898,21.098l7.674,33.575l165.938,161.141l-39.327,228.283l13.429,30.692l32.612,2.876l205.264,-107.428l206.223,107.428l14.388,3.842l18.224,-6.718l12.47,-30.692l-39.326,-228.283l165.938,-161.141l8.632,-33.575l-25.898,-21.098l-229.244,-33.575l-102.632,-208.144l-28.775,-17.263l-27.816,17.263Z" style="fill:#0b0b16;fill-rule:nonzero;"/></g></g></svg>