<?xml version="1.0" encoding="UTF-8" standalone="no"?><!DOCTYPE svg PUBLIC "-//W3C//DTD SVG 1.1//EN" "http://www.w3.org/Graphics/SVG/1.1/DTD/svg11.dtd"><svg width="100%" height="100%" viewBox="0 0 2084 2084" version="1.1" xmlns="http://www.w3.org/2000/svg" xmlns:xlink="http://www.w3.org/1999/xlink" xml:space="preserve" xmlns:serif="http://www.serif.com/" style="fill-rule:evenodd;clip-rule:evenodd;stroke-linejoin:round;stroke-miterlimit:2;"><rect id="画板1" x="0" y="0" width="2083.33" height="2083.33" style="fill:none;"/><clipPath id="_clip1"><rect id="画板11" serif:id="画板1" x="0" y="0" width="2083.33" height="2083.33"/></clipPath><g clip-path="url(#_clip1)"><g><path d="M1956.72,1911.64l-1830.11,0l-63.305,-62.341l-0,-1305.44l16.306,0l31.653,-32.616l-31.653,-30.691l-16.306,-0l-0,-154.431l63.305,-62.341l134.285,-0l0,60.424l31.653,31.657l31.653,-31.657l0,-60.424l233.08,-0l0,60.424l31.653,31.657l31.653,-31.657l-0,-60.424l233.08,-0l0,60.424l31.653,31.657l31.653,-31.657l-0,-60.424l234.039,-0l-0,60.424l31.653,31.657l30.694,-31.657l-0,-60.424l234.039,-0l-0,60.424l31.653,31.657l31.653,-31.657l-0,-60.424l233.08,-0l-0,60.424l31.653,31.657l31.652,-31.657l0,-60.424l149.632,-0l63.306,62.341l-0,154.431l-15.347,-0l-31.653,30.691l31.653,32.616l15.347,0l-0,1305.44l-63.306,62.341Zm-0,-1711.17l-149.632,0l0,-61.39l-31.652,-31.65l-31.653,31.65l-0,61.39l-233.08,0l-0,-61.39l-31.653,-31.65l-31.653,31.65l-0,61.39l-234.039,0l-0,-61.39l-30.694,-31.65l-31.653,31.65l-0,61.39l-234.039,0l-0,-61.39l-31.653,-31.65l-31.653,31.65l0,61.39l-233.08,0l-0,-61.39l-31.653,-31.65l-31.653,31.65l0,61.39l-233.08,0l0,-61.39l-31.653,-31.65l-31.653,31.65l0,61.39l-134.285,0l-126.611,125.649l-0,1523.18l126.611,126.608l1830.11,-0l126.611,-126.608l0,-1523.18l-126.611,-125.649Z" style="fill:#0b0b16;fill-rule:nonzero;"/><path d="M363.528,511.24l-31.653,-30.691l-94.958,-0l-31.653,30.691l31.653,32.616l94.958,0l31.653,-32.616Z" style="fill:#0b0b16;fill-rule:nonzero;"/><path d="M994.667,543.856l94.958,0l30.694,-32.616l-30.694,-30.691l-94.958,-0l-31.653,30.691l31.653,32.616Z" style="fill:#0b0b16;fill-rule:nonzero;"/><path d="M490.14,543.856l93.999,0l31.653,-32.616l-31.653,-30.691l-93.999,-0l-32.612,30.691l32.612,32.616Z" style="fill:#0b0b16;fill-rule:nonzero;"/><path d="M1499.19,543.856l94.959,0l31.653,-32.616l-31.653,-30.691l-94.959,-0l-31.653,30.691l31.653,32.616Z" style="fill:#0b0b16;fill-rule:nonzero;"/><path d="M1341.89,480.549l-94.958,-0l-31.653,30.691l31.653,32.616l94.958,0l30.694,-32.616l-30.694,-30.691Z" style="fill:#0b0b16;fill-rule:nonzero;"/><path d="M1846.42,480.549l-94.959,-0l-30.694,30.691l30.694,32.616l94.959,0l31.652,-32.616l-31.652,-30.691Z" style="fill:#0b0b16;fill-rule:nonzero;"/><path d="M836.403,480.549l-94,-0l-31.653,30.691l31.653,32.616l94,0l31.653,-32.616l-31.653,-30.691Z" style="fill:#0b0b16;fill-rule:nonzero;"/><path d="M934.239,839.282l215.815,-0l-0,215.813l-215.815,0l-0,-215.813Zm-31.653,278.162l278.161,-0l31.653,-30.691l0,-279.121l-31.653,-30.699l-278.161,-0l-31.653,30.699l0,279.121l31.653,30.691Z" style="fill:#0b0b16;fill-rule:nonzero;"/><path d="M1686.23,1055.1l-215.815,0l0,-215.813l215.815,-0l-0,215.813Zm31.653,-278.162l-279.121,-0l-30.694,30.699l0,279.121l30.694,30.691l279.121,-0l31.653,-30.691l-0,-279.121l-31.653,-30.699Z" style="fill:#0b0b16;fill-rule:nonzero;"/><path d="M612.914,1622.93l-215.815,-0l0,-215.814l215.815,0l0,215.814Zm31.653,-278.162l-278.161,-0l-32.612,31.65l-0,278.162l32.612,31.657l278.161,0l31.653,-31.657l0,-278.162l-31.653,-31.65Z" style="fill:#0b0b16;fill-rule:nonzero;"/><path d="M1686.23,1622.93l-215.815,-0l0,-215.814l215.815,0l-0,215.814Zm31.653,-278.162l-279.121,-0l-30.694,31.65l0,278.162l30.694,31.657l279.121,0l31.653,-31.657l-0,-278.162l-31.653,-31.65Z" style="fill:#0b0b16;fill-rule:nonzero;"/><path d="M1150.05,1622.93l-215.815,-0l-0,-215.814l180.325,0l-60.428,92.075l-27.816,-39.32l-44.122,-6.717l-6.715,44.119l54.674,75.778l24.938,12.47l0.959,-0l25.898,-13.429l68.102,-103.593l-0,154.431Zm79.612,-332.835l-43.164,9.594l-29.734,45.079l-254.182,-0l-31.653,31.65l0,278.162l31.653,31.657l278.161,0l31.653,-31.657l0,-280.08l25.898,-40.285l-8.632,-44.12Z" style="fill:#0b0b16;fill-rule:nonzero;"/></g></g></svg>