<?xml version="1.0" encoding="UTF-8" standalone="no"?><!DOCTYPE svg PUBLIC "-//W3C//DTD SVG 1.1//EN" "http://www.w3.org/Graphics/SVG/1.1/DTD/svg11.dtd"><svg width="100%" height="100%" viewBox="0 0 2084 2084" version="1.1" xmlns="http://www.w3.org/2000/svg" xmlns:xlink="http://www.w3.org/1999/xlink" xml:space="preserve" xmlns:serif="http://www.serif.com/" style="fill-rule:evenodd;clip-rule:evenodd;stroke-linejoin:round;stroke-miterlimit:2;"><rect id="画板1" x="0" y="0" width="2083.33" height="2083.33" style="fill:none;"/><g id="画板11" serif:id="画板1"><g><g><path d="M1597.32,1321.18l-5.764,-0.96l-13.447,2.88l-140.233,47.061c-13.447,-314.081 -322.73,-566.694 -700.207,-566.694c-95.089,0 -185.378,16.327 -267.02,45.141l-5.764,-74.915c0,-343.862 339.059,-623.369 755.917,-623.369c417.819,0 756.877,279.507 756.877,623.369c0,88.362 -22.092,173.851 -65.315,253.573l-2.881,24.007l98.932,355.389l-411.095,-85.482Zm-859.651,596.468c-105.656,-0 -209.391,-21.127 -302.56,-62.428l-18.248,-1.92l-341.941,71.075l81.644,-294.874l-1.922,-24.014l-55.707,-213.232c-0,-289.114 286.228,-524.433 638.734,-524.433c351.543,0 637.774,235.319 637.774,524.433c-0,289.114 -286.231,525.393 -637.774,525.393Zm1345.67,-478.325l-109.497,-392.85c44.182,-87.402 67.235,-177.691 67.235,-272.78c-0,-379.403 -367.873,-687.724 -820.271,-687.724c-451.436,0 -819.31,308.321 -819.31,687.724l9.605,97.969c-222.837,98.929 -375.556,294.874 -375.556,520.593l56.67,232.439l-92.209,332.335l7.683,30.741l23.053,9.6l5.763,-0.96l383.241,-79.722c97.971,41.301 207.469,64.355 317.927,64.355c369.794,-0 672.353,-241.086 699.247,-545.567l157.522,-49.948l452.398,94.136l5.762,0l23.052,-9.607l7.685,-30.734Z" style="fill:#0b0b16;fill-rule:nonzero;"/><path d="M1675.12,548.931l-877.9,0l-31.697,31.694l31.697,31.701l877.9,0l31.698,-31.701l-31.698,-31.694Z" style="fill:#0b0b16;fill-rule:nonzero;"/><path d="M1675.12,783.29l-435.107,0l-31.698,30.741l31.698,31.694l435.107,0l31.698,-31.694l-31.698,-30.741Z" style="fill:#0b0b16;fill-rule:nonzero;"/><path d="M1675.12,1016.7l-214.192,0l-31.697,31.694l31.697,30.741l214.192,0l31.698,-30.741l-31.698,-31.694Z" style="fill:#0b0b16;fill-rule:nonzero;"/><path d="M1044.07,1161.73l-627.209,0l-30.736,31.694l30.736,31.694l627.209,0l30.735,-31.694l-30.735,-31.694Z" style="fill:#0b0b16;fill-rule:nonzero;"/><path d="M1044.07,1383.61l-627.209,0l-30.736,31.701l30.736,30.734l627.209,0l30.735,-30.734l-30.735,-31.701Z" style="fill:#0b0b16;fill-rule:nonzero;"/><path d="M885.584,1604.52l-468.725,0l-30.736,30.734l30.736,32.661l468.725,0l31.697,-32.661l-31.697,-30.734Z" style="fill:#0b0b16;fill-rule:nonzero;"/></g></g></g></svg>