<?xml version="1.0" encoding="UTF-8" standalone="no"?><!DOCTYPE svg PUBLIC "-//W3C//DTD SVG 1.1//EN" "http://www.w3.org/Graphics/SVG/1.1/DTD/svg11.dtd"><svg width="100%" height="100%" viewBox="0 0 2084 2084" version="1.1" xmlns="http://www.w3.org/2000/svg" xmlns:xlink="http://www.w3.org/1999/xlink" xml:space="preserve" xmlns:serif="http://www.serif.com/" style="fill-rule:evenodd;clip-rule:evenodd;stroke-linejoin:round;stroke-miterlimit:2;"><rect id="画板1" x="0" y="0" width="2083.33" height="2083.33" style="fill:none;"/><clipPath id="_clip1"><rect id="画板11" serif:id="画板1" x="0" y="0" width="2083.33" height="2083.33"/></clipPath><g clip-path="url(#_clip1)"><g><path d="M1852.17,1848.34l-1421.5,0l-0,-1785.03l1061.81,-0l-0,328.034l31.653,32.616l328.039,0l-0,1424.38Zm-199.51,171.694l-1421.5,0l-0,-1785.99l137.162,-0l0,1645.95l31.653,30.692l1252.69,-0l0,109.352Zm155.388,-1660.34l-252.265,0l0,-252.264l252.265,252.264Zm107.427,29.733l-2.877,-10.553l-6.715,-9.586l-359.692,-359.692l-8.632,-6.718l-2.878,-0.959l-8.632,-1.917l-1126.08,-0l-31.653,31.65l0,140.044l-168.815,-0l-31.653,30.691l-0,1849.3l31.653,31.65l1484.81,0l31.653,-31.65l0,-141.002l167.857,-0l31.652,-30.692l0,-1490.56Z" style="fill:#0b0b16;fill-rule:nonzero;"/><path d="M681.974,423.958l551.529,0l31.653,-32.616l-31.653,-31.65l-551.529,0l-31.652,31.65l31.652,32.616Z" style="fill:#0b0b16;fill-rule:nonzero;"/><path d="M650.322,612.915l31.652,31.65l930.404,0l31.653,-31.65l-31.653,-31.65l-930.404,-0l-31.652,31.65Z" style="fill:#0b0b16;fill-rule:nonzero;"/><path d="M681.974,865.18l836.405,-0l30.693,-31.651l-30.693,-31.657l-836.405,-0l-31.652,31.657l31.652,31.651Z" style="fill:#0b0b16;fill-rule:nonzero;"/><path d="M681.974,1085.79l362.57,-0l31.653,-31.651l-31.653,-30.691l-362.57,-0l-31.652,30.691l31.652,31.651Z" style="fill:#0b0b16;fill-rule:nonzero;"/><path d="M1612.38,1023.45l-394.223,-0l-31.653,30.691l31.653,31.651l394.223,-0l31.653,-31.651l-31.653,-30.691Z" style="fill:#0b0b16;fill-rule:nonzero;"/><path d="M681.974,1306.4l741.446,-0l31.653,-31.65l-31.653,-30.699l-741.446,-0l-31.652,30.699l31.652,31.65Z" style="fill:#0b0b16;fill-rule:nonzero;"/><path d="M1012.89,1464.67l-330.917,0l-31.652,31.65l31.652,31.658l330.917,-0l31.653,-31.658l-31.653,-31.65Z" style="fill:#0b0b16;fill-rule:nonzero;"/><path d="M1612.38,1464.67l-205.264,0l-30.694,31.65l30.694,31.658l205.264,-0l31.653,-31.658l-31.653,-31.65Z" style="fill:#0b0b16;fill-rule:nonzero;"/></g></g></svg>