<?xml version="1.0" encoding="UTF-8" standalone="no"?><!DOCTYPE svg PUBLIC "-//W3C//DTD SVG 1.1//EN" "http://www.w3.org/Graphics/SVG/1.1/DTD/svg11.dtd"><svg width="100%" height="100%" viewBox="0 0 2084 2084" version="1.1" xmlns="http://www.w3.org/2000/svg" xmlns:xlink="http://www.w3.org/1999/xlink" xml:space="preserve" xmlns:serif="http://www.serif.com/" style="fill-rule:evenodd;clip-rule:evenodd;stroke-linejoin:round;stroke-miterlimit:2;"><rect id="画板1" x="0" y="0" width="2083.33" height="2083.33" style="fill:none;"/><clipPath id="_clip1"><rect id="画板11" serif:id="画板1" x="0" y="0" width="2083.33" height="2083.33"/></clipPath><g clip-path="url(#_clip1)"><g><path d="M540.496,423.958l552.487,0l31.652,-32.616l-31.652,-31.65l-552.487,0l-31.654,31.65l31.654,32.616Z" style="fill:#0b0b16;fill-rule:nonzero;"/><path d="M540.496,644.565l552.487,0l31.652,-31.65l-31.652,-31.65l-552.487,-0l-31.654,31.65l31.654,31.65Z" style="fill:#0b0b16;fill-rule:nonzero;"/><path d="M540.496,865.18l362.57,-0l31.652,-31.651l-31.652,-31.657l-362.57,-0l-31.654,31.657l31.654,31.651Z" style="fill:#0b0b16;fill-rule:nonzero;"/><path d="M540.496,1085.79l236.917,-0l31.653,-31.651l-31.653,-30.691l-236.917,-0l-31.654,30.691l31.654,31.651Z" style="fill:#0b0b16;fill-rule:nonzero;"/><path d="M1392.25,1085.79l78.651,-0l32.613,-31.651l-32.613,-30.691l-78.651,-0l-30.695,30.691l30.695,31.651Z" style="fill:#0b0b16;fill-rule:nonzero;"/><path d="M1470.9,1244.05l-362.569,-0l-31.652,30.699l31.652,31.65l362.569,-0l32.613,-31.65l-32.613,-30.699Z" style="fill:#0b0b16;fill-rule:nonzero;"/><path d="M1470.9,1464.67l-930.402,0l-31.654,31.65l31.654,31.658l930.402,-0l32.613,-31.658l-32.613,-31.65Z" style="fill:#0b0b16;fill-rule:nonzero;"/><path d="M2010.92,196.633l-254.182,255.141l-107.428,-106.469l255.141,-256.099l53.715,-22.064l52.754,22.064l-0,107.427Zm-300.223,1651.71l-1420.54,0l0,-1785.03l1060.85,-0l0,328.034l32.613,32.616l97.835,0l-481.507,480.548l-123.733,276.246l-63.306,63.3l-272.407,-0l-31.654,30.699l31.654,31.65l285.835,-0l11.51,-1.917l10.55,-6.718l72.898,-72.894l22.062,1.917c89.204,-0 229.244,-102.634 253.223,-125.649l514.119,-515.082l0,1262.28Zm-199.509,171.694l-1421.5,0l0,-1785.99l137.163,-0l-0,1645.95l31.652,30.692l1252.69,-0l-0,109.352Zm-96.877,-1912.61l191.836,191.832l-61.388,60.432l-130.448,0l-0,-252.264Zm-476.712,1057.97l87.285,-191.833l103.591,102.634l-190.876,89.199Zm236.917,-131.402l-107.427,-107.427l538.1,-538.104l106.469,108.386l-537.142,537.145Zm881.486,-988.918l-195.673,-0l-210.06,209.103l-244.59,-244.588l-9.592,-6.718l-10.55,-2.876l-1127.04,-0l-31.652,31.65l-0,140.044l-167.858,-0l-31.652,30.691l0,1849.3l31.652,31.65l1483.85,0l31.652,-31.65l-0,-141.002l168.816,-0l30.693,-30.692l-0,-1357.24l281.999,-281.998l0,-195.674Z" style="fill:#0b0b16;fill-rule:nonzero;"/></g></g></svg>