<?xml version="1.0" encoding="UTF-8" standalone="no"?><!DOCTYPE svg PUBLIC "-//W3C//DTD SVG 1.1//EN" "http://www.w3.org/Graphics/SVG/1.1/DTD/svg11.dtd"><svg width="100%" height="100%" viewBox="0 0 2084 2084" version="1.1" xmlns="http://www.w3.org/2000/svg" xmlns:xlink="http://www.w3.org/1999/xlink" xml:space="preserve" xmlns:serif="http://www.serif.com/" style="fill-rule:evenodd;clip-rule:evenodd;stroke-linejoin:round;stroke-miterlimit:2;"><rect id="画板1" x="0" y="0" width="2083.33" height="2083.33" style="fill:none;"/><g id="画板11" serif:id="画板1"><g><g><path d="M1862.62,1304.6l-31.666,32.627l-0,426.071c-0,127.629 -103.641,231.27 -231.27,231.27l-1306.04,-0c-126.669,-0 -230.308,-103.641 -230.308,-231.27l-0,-1221.59l-31.667,-31.668l-31.668,31.668l-0,1221.59c-0,162.175 131.469,294.603 293.643,294.603l1306.04,-0c162.177,-0 294.605,-132.428 294.605,-294.603l-0,-426.071l-31.669,-32.627Z" style="fill:#0b0b16;fill-rule:nonzero;"/><path d="M1944.19,891.007c12.474,0.959 63.335,33.586 63.335,120.911l-103.641,120.916l-519.152,-0l-24.951,11.512l-5.759,28.791c13.435,44.141 40.306,164.093 27.83,304.197c-14.395,167.933 -92.124,292.685 -184.248,296.525l-108.436,-8.64l18.232,-326.27c-42.222,-130.506 -139.143,-250.459 -225.509,-355.058l-134.348,-213.036l-0,-736.986l44.144,-44.144l961.537,0l7.679,0.96l124.749,135.305l-17.272,68.136l-0.96,27.828l22.071,18.234l108.437,133.387l-37.426,94.042l-8.636,23.988l13.435,23.033l55.658,110.354l-76.769,102.682l-31.668,31.664l31.668,31.669Zm139.143,-166.015l-55.656,-140.104l33.586,-111.313l-122.831,-184.249l10.555,-63.336c0,-103.637 -78.689,-189.044 -180.408,-199.601l-15.355,-0.959l-961.537,-0l-107.479,108.439l0,736.986c0,70.054 66.214,150.662 148.742,252.38c82.527,100.76 175.611,215.913 213.994,335.866l-24.949,320.516l14.394,32.624c4.799,2.881 43.183,23.992 137.225,23.992l26.869,-0c125.711,-5.759 226.471,-149.699 244.704,-353.14c10.556,-119.953 -5.758,-224.553 -20.152,-287.886l478.849,0c89.245,0 166.976,-86.365 166.976,-183.289l-52.78,-146.821l65.253,-140.105Z" style="fill:#0b0b16;fill-rule:nonzero;"/><path d="M252.38,123.312l34.546,-33.587l175.611,0l33.586,33.587l0,718.755l-33.586,33.587l-175.611,0l-34.546,-33.587l0,-718.755Zm34.546,816.638l175.611,-0l96.921,-97.883l0,-718.755l-96.921,-97.882l-175.611,-0l-96.921,97.882l-0,718.755l96.921,97.883Z" style="fill:#0b0b16;fill-rule:nonzero;"/><path d="M374.251,242.305l37.427,-37.426l-37.427,-37.423l-37.425,37.423l37.425,37.426Z" style="fill:#0b0b16;fill-rule:nonzero;"/><path d="M1341.55,843.986c-130.508,-0 -236.067,-105.559 -236.067,-236.065c-0,-130.51 105.559,-237.028 236.067,-237.028c130.508,0 237.025,106.518 237.025,237.028c0,130.506 -106.517,236.065 -237.025,236.065Zm-0,-536.426c-165.056,0 -299.402,134.346 -299.402,300.361c0,165.055 134.346,299.401 299.402,299.401c166.014,0 300.36,-134.346 300.36,-299.401c0,-166.015 -134.346,-300.361 -300.36,-300.361Z" style="fill:#0b0b16;fill-rule:nonzero;"/><path d="M1458.62,490.846l-44.142,-0l-72.931,71.972l-71.973,-71.972l-45.101,-0l0,44.144l72.93,72.931l-72.93,71.972l0,45.099l23.03,9.599l22.071,-9.599l71.973,-71.968l72.931,71.968l22.07,9.599l22.072,-9.599l-0,-45.099l-71.972,-71.972l71.972,-72.931l-0,-44.144Z" style="fill:#0b0b16;fill-rule:nonzero;"/></g></g></g></svg>