<?xml version="1.0" encoding="UTF-8" standalone="no"?><!DOCTYPE svg PUBLIC "-//W3C//DTD SVG 1.1//EN" "http://www.w3.org/Graphics/SVG/1.1/DTD/svg11.dtd"><svg width="100%" height="100%" viewBox="0 0 2084 2084" version="1.1" xmlns="http://www.w3.org/2000/svg" xmlns:xlink="http://www.w3.org/1999/xlink" xml:space="preserve" xmlns:serif="http://www.serif.com/" style="fill-rule:evenodd;clip-rule:evenodd;stroke-linejoin:round;stroke-miterlimit:2;"><rect id="画板1" x="0" y="0" width="2083.33" height="2083.33" style="fill:none;"/><g id="画板11" serif:id="画板1"><g><path d="M2004.2,951.502l-1926.03,0l352.977,-887.236l1220.08,0l352.977,887.236Zm-142.917,1068.53l-583.181,0l0,-717.467l-31.653,-32.616l-410.528,0l-31.653,32.616l-0,717.467l-583.181,0l0,-1005.22l1640.2,-0l-0,1005.22Zm-993.709,0l-0,-685.817l347.222,0l0,685.817l-347.222,0Zm1213.36,-1048.38l-379.835,-950.543l-28.775,-21.105l-1262.28,0l-28.776,21.105l-378.876,950.543l2.878,28.775l25.898,14.387l126.612,-0l-0,1036.87l31.652,31.65l1703.5,0l31.653,-31.65l-0,-1036.87l126.611,-0l25.898,-14.387l3.837,-28.775Z" style="fill:#0b0b16;fill-rule:nonzero;"/><path d="M509.802,1334.22l94.959,94l-0,57.555l-188.959,0l0,-57.555l94,-94Zm-94,375.038l0,-161.141l188.959,-0l-0,161.141l-188.959,0Zm-32.612,64.266l253.224,0l31.652,-31.65l0,-313.654c0,-86.323 -70.979,-158.266 -158.264,-158.266c-87.285,0 -157.305,71.943 -157.305,158.266l-0,313.654l30.693,31.65Z" style="fill:#0b0b16;fill-rule:nonzero;"/><path d="M946.228,695.403l0,-156.341l189.918,0l-0,156.341l-189.918,0Zm94.959,-375.996l94.959,94.957l-0,61.391l-189.918,-0l0,-61.391l94.959,-94.957Zm0,-63.308c-86.326,0 -158.264,70.984 -158.264,158.265l-0,312.697l32.612,31.65l252.264,-0l31.653,-31.65l-0,-312.697c-0,-87.281 -70.98,-158.265 -158.265,-158.265Z" style="fill:#0b0b16;fill-rule:nonzero;"/><path d="M505.006,695.403l0,-156.341l188.958,0l0,156.341l-188.958,0Zm94.959,-375.996l93.999,94.957l0,61.391l-188.958,-0l0,-61.391l94.959,-94.957Zm-0,-63.308c-87.285,0 -158.265,70.984 -158.265,158.265l0,312.697l31.653,31.65l252.264,-0l31.653,-31.65l0,-312.697c0,-87.281 -70.979,-158.265 -157.305,-158.265Z" style="fill:#0b0b16;fill-rule:nonzero;"/><path d="M1388.41,695.403l-0,-156.341l189.917,0l0,156.341l-189.917,0Zm94.958,-375.996l94.959,94.957l0,61.391l-189.917,-0l-0,-61.391l94.958,-94.957Zm0,-63.308c-87.285,0 -158.264,70.984 -158.264,158.265l0,312.697l31.653,31.65l252.264,-0l32.612,-31.65l-0,-312.697c-0,-87.281 -71.939,-158.265 -158.265,-158.265Z" style="fill:#0b0b16;fill-rule:nonzero;"/><path d="M1572.57,1334.22l94,94l-0,57.555l-188.959,0l0,-57.555l94.959,-94Zm-94.959,375.038l0,-161.141l188.959,-0l-0,161.141l-188.959,0Zm-31.653,64.266l253.224,0l30.693,-31.65l0,-313.654c0,-86.323 -70.02,-158.266 -157.305,-158.266c-87.285,0 -158.264,71.943 -158.264,158.266l-0,313.654l31.652,31.65Z" style="fill:#0b0b16;fill-rule:nonzero;"/><path d="M1139.98,1709.25l-31.652,32.616l31.652,31.65l30.694,-31.65l-30.694,-32.616Z" style="fill:#0b0b16;fill-rule:nonzero;"/></g></g></svg>