<?xml version="1.0" encoding="UTF-8" standalone="no"?><!DOCTYPE svg PUBLIC "-//W3C//DTD SVG 1.1//EN" "http://www.w3.org/Graphics/SVG/1.1/DTD/svg11.dtd"><svg width="100%" height="100%" viewBox="0 0 2084 2084" version="1.1" xmlns="http://www.w3.org/2000/svg" xmlns:xlink="http://www.w3.org/1999/xlink" xml:space="preserve" xmlns:serif="http://www.serif.com/" style="fill-rule:evenodd;clip-rule:evenodd;stroke-linejoin:round;stroke-miterlimit:2;"><rect id="画板1" x="0" y="0" width="2083.33" height="2083.33" style="fill:none;"/><g id="画板11" serif:id="画板1"><g><path d="M2019.55,2020.03l-1955.77,0l0,-1640.19l1955.77,0l0,1640.19Zm-1955.77,-1955.77l1955.77,0l0,251.306l-1955.77,0l0,-251.306Zm1987.42,-64.266l-2019.07,-0l-31.654,31.65l0,2020.03l31.654,31.65l2019.07,0l31.652,-31.65l-0,-2020.03l-31.652,-31.65Z" style="fill:#0b0b16;fill-rule:nonzero;"/><path d="M1863.2,166.901l-8.632,22.056l8.632,23.022l23.02,9.594l22.062,-9.594l8.634,-23.022l-8.634,-21.098l-45.082,-0.958Z" style="fill:#0b0b16;fill-rule:nonzero;"/><path d="M1711.65,158.265l-30.694,30.692l30.694,32.616l32.612,-32.616l-32.612,-30.692Z" style="fill:#0b0b16;fill-rule:nonzero;"/><path d="M1515.98,167.859l-8.632,21.098l8.632,23.022l23.02,9.594l22.062,-9.594l8.631,-23.022l-8.631,-22.056l-45.082,0.958Z" style="fill:#0b0b16;fill-rule:nonzero;"/><path d="M517.475,731.854l89.204,89.206l-89.204,89.198l-90.162,-89.198l90.162,-89.206Zm0,241.712l151.551,-152.506l-151.551,-153.472l-152.508,153.472l152.508,152.506Z" style="fill:#0b0b16;fill-rule:nonzero;"/><path d="M427.313,1115.53l179.366,-0l0,551.525l-179.366,-0l-0,-551.525Zm-115.101,551.525l-31.654,32.616l31.654,31.65l409.57,-0l31.652,-31.65l-31.652,-32.616l-52.756,-0l0,-583.183l-30.693,-30.691l-326.121,-0l-31.654,30.691l31.654,31.658l52.755,-0l0,551.525l-52.755,-0Z" style="fill:#0b0b16;fill-rule:nonzero;"/><path d="M967.33,916.017l772.139,0l31.654,-31.657l-31.654,-31.65l-772.139,-0l-32.611,31.65l32.611,31.657Z" style="fill:#0b0b16;fill-rule:nonzero;"/><path d="M1739.47,1062.77l-330.916,-0l-31.654,31.65l31.654,31.657l330.916,0l31.654,-31.657l-31.654,-31.65Z" style="fill:#0b0b16;fill-rule:nonzero;"/><path d="M967.33,1126.08l267.612,0l31.652,-31.657l-31.652,-31.65l-267.612,-0l-32.611,31.65l32.611,31.657Z" style="fill:#0b0b16;fill-rule:nonzero;"/><path d="M967.33,1336.13l772.139,-0l31.654,-31.65l-31.654,-31.651l-772.139,0l-32.611,31.651l32.611,31.65Z" style="fill:#0b0b16;fill-rule:nonzero;"/><path d="M967.33,1546.2l570.712,-0l31.652,-30.692l-31.652,-31.657l-570.712,-0l-32.611,31.657l32.611,30.692Z" style="fill:#0b0b16;fill-rule:nonzero;"/></g></g></svg>