<?xml version="1.0" encoding="UTF-8" standalone="no"?><!DOCTYPE svg PUBLIC "-//W3C//DTD SVG 1.1//EN" "http://www.w3.org/Graphics/SVG/1.1/DTD/svg11.dtd"><svg width="100%" height="100%" viewBox="0 0 2084 2084" version="1.1" xmlns="http://www.w3.org/2000/svg" xmlns:xlink="http://www.w3.org/1999/xlink" xml:space="preserve" xmlns:serif="http://www.serif.com/" style="fill-rule:evenodd;clip-rule:evenodd;stroke-linejoin:round;stroke-miterlimit:2;"><rect id="画板1" x="0" y="0" width="2083.33" height="2083.33" style="fill:none;"/><g id="画板11" serif:id="画板1"><g><path d="M1805.05,1461.02l-773.453,-0l-89.245,-237.979c-61.415,-150.666 -123.791,-305.16 -123.791,-447.186c-0,-349.3 269.653,-634.312 601.68,-634.312c331.07,0 600.723,285.012 600.723,634.312c0,140.108 -59.496,284.045 -122.831,437.587l-93.083,247.578Zm-771.535,161.223l-0,-97.886l771.535,-0l-0,97.886l-771.535,-0Zm771.535,160.256l-771.535,-0l-0,-97.886l771.535,-0l-0,97.886Zm-99.801,73.887l-63.335,63.336l-444.303,0l-63.335,-63.336l0,-10.558l570.973,0l0,10.558Zm378.089,-1080.53c0,-383.85 -297.481,-696.682 -663.097,-696.682c-366.574,-0 -664.056,312.832 -664.056,696.682c0,154.501 65.255,314.758 128.59,471.17l81.567,213.995l-6.718,-0l-31.666,31.672l31.666,31.665l11.517,-0l-0,97.886l-11.517,-0l-31.666,30.705l31.666,31.665l11.517,-0l-0,97.886l-11.517,-0l-31.666,31.665l31.666,31.664l112.276,0l0,10.558l125.711,124.755l444.303,-0l125.711,-124.755l-0,-10.558l112.274,0l30.709,-31.664l-30.709,-31.665l-12.474,-0l0,-97.886l12.474,-0l30.709,-31.665l-30.709,-30.705l-12.474,-0l0,-97.886l12.474,-0l30.709,-31.665l-30.709,-31.672l-8.635,-0l84.446,-223.586c63.334,-152.583 127.628,-308.996 127.628,-461.579Z" style="fill:#0b0b16;fill-rule:nonzero;"/><path d="M1479.73,846.861l52.779,291.725l-226.47,0l52.779,-291.725l-11.514,-30.705l-47.023,-94.043l119.952,-118.993l118.994,118.993l-47.021,94.043l-12.476,30.705Zm-59.497,-306.119c-100.759,0 -182.326,80.608 -182.326,181.371l56.618,131.469l-55.659,310.914l5.758,25.911l23.99,11.516l301.32,-0l23.992,-11.516l6.717,-25.911l-55.658,-310.914l55.658,-131.469c0,-100.763 -80.609,-181.371 -180.41,-181.371Z" style="fill:#0b0b16;fill-rule:nonzero;"/><path d="M561.378,1692.29c0,137.223 -111.317,248.537 -249.501,248.537c-137.225,-0 -250.46,-111.314 -250.46,-248.537c-0,-111.321 74.849,-209.199 181.367,-239.905l22.072,-30.705l-0,-1262.86l17.273,-17.279l59.496,0l17.273,17.279l0,1262.86l22.072,30.705c106.518,30.706 180.408,128.584 180.408,239.905Zm162.175,-1440.39l-302.279,-0l-0,-93.083l-79.649,-79.649l-59.496,-0l-79.649,79.649l0,1240.79c-120.911,45.099 -202.48,162.174 -202.48,292.684c0,171.773 140.104,311.873 311.877,311.873c171.771,0 311.875,-140.1 311.875,-311.873c0,-130.51 -82.526,-247.585 -202.478,-292.684l-0,-625.673l130.508,0l30.707,-30.705l-30.707,-31.672l-130.508,-0l-0,-167.929l188.085,-0l30.707,-30.713l-30.707,-31.665l-188.085,0l-0,-166.977l302.279,0l31.668,-31.665l-31.668,-30.705Z" style="fill:#0b0b16;fill-rule:nonzero;"/><path d="M413.596,1692.29l-101.719,100.756l-101.72,-100.756l101.72,-101.722l101.719,101.722Zm-265.813,-0c-0,90.206 73.89,163.134 164.094,163.134c90.204,-0 164.095,-72.928 164.095,-163.134c-0,-91.165 -73.891,-164.093 -164.095,-164.093c-90.204,0 -164.094,72.928 -164.094,164.093Z" style="fill:#0b0b16;fill-rule:nonzero;"/></g></g></svg>