<?xml version="1.0" encoding="UTF-8" standalone="no"?><!DOCTYPE svg PUBLIC "-//W3C//DTD SVG 1.1//EN" "http://www.w3.org/Graphics/SVG/1.1/DTD/svg11.dtd"><svg width="100%" height="100%" viewBox="0 0 2084 2084" version="1.1" xmlns="http://www.w3.org/2000/svg" xmlns:xlink="http://www.w3.org/1999/xlink" xml:space="preserve" xmlns:serif="http://www.serif.com/" style="fill-rule:evenodd;clip-rule:evenodd;stroke-linejoin:round;stroke-miterlimit:2;"><rect id="画板1" x="0" y="0" width="2083.33" height="2083.33" style="fill:none;"/><g id="画板11" serif:id="画板1"><g><path d="M2020,2016.16l-623.752,0l-306.119,-261.978l929.871,-794.564l0,1056.54Zm-719.714,0l-1236.95,0l-0,-1056.54l1236.95,1056.54Zm-952.902,-1354.02l-0,456.777l-267.733,-228.389l267.733,-228.388Zm1326.19,-293.647l-0,805.121l-631.429,539.307l-631.43,-539.307l-0,-805.121l1262.86,-0Zm-631.429,-299.398l276.371,236.065l-553.7,-0l277.329,-236.065Zm961.538,821.433l-267.733,228.389l-0,-456.777l267.733,228.388Zm77.73,-11.516l-8.637,-12.476l-336.826,-287.885l-0,-241.823l-31.667,-31.668l-288.846,-0l-353.14,-301.32l-41.265,0l-353.14,301.32l-288.844,-0l-31.668,31.668l-0,241.823l-335.867,287.885l-3.839,3.84l-1.918,3.837l-0.961,0.959l-1.918,2.881l-0.959,1.918l-0.961,6.717l-0.959,3.84l0,1157.3l31.668,31.668l2020.96,0l30.707,-31.668l0,-1157.3l-1.918,-11.516Z" style="fill:#0b0b16;fill-rule:nonzero;"/><path d="M599.762,558.498l883.809,0l0,192.884l-883.809,0l0,-192.884Zm-31.666,257.18l947.144,-0l31.666,-32.628l0,-256.22l-31.666,-31.668l-947.144,-0l-31.669,31.668l0,256.22l31.669,32.628Z" style="fill:#0b0b16;fill-rule:nonzero;"/><path d="M1515.24,940.426l-379.051,-0l-30.707,32.627l30.707,31.668l379.051,0l31.666,-31.668l-31.666,-32.627Z" style="fill:#0b0b16;fill-rule:nonzero;"/><path d="M568.096,1004.72l379.048,0l31.668,-31.668l-31.668,-32.627l-379.048,-0l-31.669,32.627l31.669,31.668Z" style="fill:#0b0b16;fill-rule:nonzero;"/><path d="M1515.24,1131.39l-379.051,0l-30.707,30.709l30.707,31.665l379.051,0l31.666,-31.665l-31.666,-30.709Z" style="fill:#0b0b16;fill-rule:nonzero;"/><path d="M568.096,1193.77l379.048,0l31.668,-31.665l-31.668,-30.709l-379.048,0l-31.669,30.709l31.669,31.665Z" style="fill:#0b0b16;fill-rule:nonzero;"/><path d="M1294.53,1320.43l-158.339,-0l-30.707,31.668l30.707,30.71l158.339,-0l31.666,-30.71l-31.666,-31.668Z" style="fill:#0b0b16;fill-rule:nonzero;"/><path d="M978.812,1352.1l-31.668,-31.668l-157.377,-0l-32.628,31.668l32.628,30.71l157.377,-0l31.668,-30.71Z" style="fill:#0b0b16;fill-rule:nonzero;"/><path d="M1105.48,1509.48l-126.67,0l-31.668,31.665l31.668,31.668l126.67,0l30.707,-31.668l-30.707,-31.665Z" style="fill:#0b0b16;fill-rule:nonzero;"/></g></g></svg>