<?xml version="1.0" encoding="UTF-8" standalone="no"?><!DOCTYPE svg PUBLIC "-//W3C//DTD SVG 1.1//EN" "http://www.w3.org/Graphics/SVG/1.1/DTD/svg11.dtd"><svg width="100%" height="100%" viewBox="0 0 2084 2084" version="1.1" xmlns="http://www.w3.org/2000/svg" xmlns:xlink="http://www.w3.org/1999/xlink" xml:space="preserve" xmlns:serif="http://www.serif.com/" style="fill-rule:evenodd;clip-rule:evenodd;stroke-linejoin:round;stroke-miterlimit:2;"><rect id="画板1" x="0" y="0" width="2083.33" height="2083.33" style="fill:none;"/><clipPath id="_clip1"><rect id="画板11" serif:id="画板1" x="0" y="0" width="2083.33" height="2083.33"/></clipPath><g clip-path="url(#_clip1)"><g><path d="M2019.55,1894.38l-126.612,126.608l-125.653,-126.608l0,-1514.55l252.265,0l-0,1514.55Zm-1830.11,126.608l-125.652,-126.608l0,-1830.12l1640.19,-0l0,1830.12l2.878,33.568l0.96,2.876l8.632,29.74l0.959,3.835l13.428,25.898l2.878,4.793l17.265,23.981l0.959,1.917l-1562.5,0Zm1861.77,-1704.46l-283.917,0l0,-284.873l-31.653,-31.65l-1704.46,-0l-30.694,32.609l-0,1861.77c-0,103.593 84.408,188.957 188.958,188.957l1703.5,0c104.55,0 189.917,-85.364 189.917,-188.957l0,-1546.19l-31.653,-31.658Z" style="fill:#0b0b16;fill-rule:nonzero;"/><path d="M1483.37,587.976l-1198.97,-0l-0,-303.103l1198.97,0l-0,303.103Zm31.653,-365.452l-1262.28,0l-31.653,30.699l0,366.403l31.653,30.691l1262.28,0l31.652,-30.691l0,-366.403l-31.652,-30.699Z" style="fill:#0b0b16;fill-rule:nonzero;"/><path d="M1515.02,776.932l-631.14,0l-31.653,30.692l31.653,31.657l631.14,0l31.652,-31.657l-31.652,-30.692Z" style="fill:#0b0b16;fill-rule:nonzero;"/><path d="M252.742,839.281l441.223,0l31.653,-31.657l-31.653,-30.692l-441.223,0l-31.653,30.692l31.653,31.657Z" style="fill:#0b0b16;fill-rule:nonzero;"/><path d="M252.742,1029.2l915.056,-0l31.653,-32.616l-31.653,-30.692l-915.056,0l-31.653,30.692l31.653,32.616Z" style="fill:#0b0b16;fill-rule:nonzero;"/><path d="M1515.02,1154.85l-537.141,0l-30.693,32.616l30.693,31.65l537.141,0l31.652,-31.65l-31.652,-32.616Z" style="fill:#0b0b16;fill-rule:nonzero;"/><path d="M977.881,1408.07l410.529,0l31.653,-31.65l-31.653,-31.657l-410.529,-0l-30.693,31.657l30.693,31.65Z" style="fill:#0b0b16;fill-rule:nonzero;"/><path d="M788.923,1533.73l-536.181,-0l-31.653,31.65l31.653,31.65l536.181,0l31.653,-31.65l-31.653,-31.65Z" style="fill:#0b0b16;fill-rule:nonzero;"/><path d="M663.27,1723.64l-410.528,0l-31.653,30.692l31.653,32.616l410.528,-0l30.695,-32.616l-30.695,-30.692Z" style="fill:#0b0b16;fill-rule:nonzero;"/><path d="M757.27,1344.76l-472.875,-0l-0,-125.65l472.875,0l0,125.65Zm31.653,-189.916l-536.181,0l-31.653,32.616l0,188.957l31.653,31.65l536.181,0l31.653,-31.65l0,-188.957l-31.653,-32.616Z" style="fill:#0b0b16;fill-rule:nonzero;"/><path d="M1483.37,1723.64l-473.835,0l-0,-126.615l473.835,0l-0,126.615Zm31.653,-189.915l-537.141,-0l-30.693,31.65l-0,188.957l30.693,32.616l537.141,-0l31.652,-32.616l0,-188.957l-31.652,-31.65Z" style="fill:#0b0b16;fill-rule:nonzero;"/></g></g></svg>