<?xml version="1.0" encoding="UTF-8" standalone="no"?><!DOCTYPE svg PUBLIC "-//W3C//DTD SVG 1.1//EN" "http://www.w3.org/Graphics/SVG/1.1/DTD/svg11.dtd"><svg width="100%" height="100%" viewBox="0 0 2084 2084" version="1.1" xmlns="http://www.w3.org/2000/svg" xmlns:xlink="http://www.w3.org/1999/xlink" xml:space="preserve" xmlns:serif="http://www.serif.com/" style="fill-rule:evenodd;clip-rule:evenodd;stroke-linejoin:round;stroke-miterlimit:2;"><rect id="画板1" x="0" y="0" width="2083.33" height="2083.33" style="fill:none;"/><clipPath id="_clip1"><rect id="画板11" serif:id="画板1" x="0" y="0" width="2083.33" height="2083.33"/></clipPath><g clip-path="url(#_clip1)"><g><path d="M1580.01,2020l-1077.65,0l-123.791,-123.792l-0,-128.588l1326.19,-0l0,128.588l-124.75,123.792Zm124.75,-315.717l-1326.19,-0l-0,-1325.24l1326.19,-0l0,1325.24Zm-1202.4,-1641.91l1077.65,0l124.75,123.793l0,128.588l-1326.19,-0l-0,-128.588l123.791,-123.793Zm1077.65,-62.374l-1077.65,-0c-102.679,-0 -187.126,83.485 -187.126,186.167l-0,1710.04c-0,102.681 84.447,187.125 187.126,187.125l1077.65,0c103.639,0 188.085,-84.444 188.085,-187.125l0,-1710.04c0,-102.682 -84.446,-186.167 -188.085,-186.167Z" style="fill:#0b0b16;fill-rule:nonzero;"/><path d="M883.33,220.712l315.714,0l31.668,-31.668l-31.668,-31.669l-315.714,0l-31.668,31.669l31.668,31.668Z" style="fill:#0b0b16;fill-rule:nonzero;"/><path d="M725.951,1861.66l-31.667,32.627l31.667,31.669l31.668,-31.669l-31.668,-32.627Z" style="fill:#0b0b16;fill-rule:nonzero;"/><path d="M1357.38,1861.66l-31.668,32.627l31.668,31.669l31.667,-31.669l-31.667,-32.627Z" style="fill:#0b0b16;fill-rule:nonzero;"/><path d="M1041.67,1861.66l-31.668,32.627l31.668,31.669l31.667,-31.669l-31.667,-32.627Z" style="fill:#0b0b16;fill-rule:nonzero;"/><path d="M1339.15,220.712l31.667,-31.668l-31.667,-31.669l-31.668,31.669l31.668,31.668Z" style="fill:#0b0b16;fill-rule:nonzero;"/></g></g></svg>