<?xml version="1.0" encoding="UTF-8" standalone="no"?><!DOCTYPE svg PUBLIC "-//W3C//DTD SVG 1.1//EN" "http://www.w3.org/Graphics/SVG/1.1/DTD/svg11.dtd"><svg width="100%" height="100%" viewBox="0 0 2084 2084" version="1.1" xmlns="http://www.w3.org/2000/svg" xmlns:xlink="http://www.w3.org/1999/xlink" xml:space="preserve" xmlns:serif="http://www.serif.com/" style="fill-rule:evenodd;clip-rule:evenodd;stroke-linejoin:round;stroke-miterlimit:2;"><rect id="画板1" x="0" y="0" width="2083.33" height="2083.33" style="fill:none;"/><clipPath id="_clip1"><rect id="画板11" serif:id="画板1" x="0" y="0" width="2083.33" height="2083.33"/></clipPath><g clip-path="url(#_clip1)"><g><path d="M2020.03,998.502l-667.587,187.998l-31.653,-30.692l236.917,-236.918l0.958,-1.917l2.878,-2.876l3.837,-7.677l57.551,-171.693l71.938,-214.855l-6.714,-32.609l-32.612,-7.677l-213.897,71.936l-172.652,58.514l-9.591,5.752l-1.92,0.959l-237.875,237.877l-22.061,-22.057l-23.98,-185.122c-50.836,-79.611 -155.386,-108.386 -258.978,-132.367c-143.876,-31.657 -281.038,-26.856 -286.794,-25.898l-30.693,29.733c-0,5.752 -4.796,143.878 26.857,287.756c23.02,102.627 51.795,208.137 132.366,258.016l117.979,31.65l66.183,-7.669l22.061,22.056l-66.182,66.184l-633.058,-178.404l-0,-559.201l63.305,-63.307l1830.11,-0l63.306,63.307l-0,559.201Zm-1212.4,157.306l84.408,83.447l-238.834,237.877l-5.756,-6.718l-7.673,-9.587l-15.347,-23.022l-8.633,-14.387l-11.51,-22.063l-6.714,-16.305l-5.755,-13.428l215.814,-215.814Zm-52.754,475.754l-88.244,88.24c-99.755,-38.368 -172.652,-111.262 -211.019,-211.979l87.284,-87.281l0.96,0.959l2.878,4.793l19.183,36.451l7.674,11.511l18.224,26.857l8.632,10.552l63.306,64.259l10.551,6.718l26.857,19.18l12.469,7.677l34.531,18.221l5.755,3.842l0.959,0Zm-2.878,-72.901l-14.387,-7.676l-22.061,-14.388l-11.511,-8.627l-6.714,-5.76l238.836,-238.835l83.448,84.412l-215.815,214.855l-13.428,-3.835l-16.307,-7.676l-22.061,-12.47Zm314.611,-567.836l557.282,557.284l-68.102,99.758l-98.795,67.142l-558.241,-557.283l69.061,-98.793l98.795,-68.108Zm265.691,-192.791l-184.161,185.122l-83.448,-83.446l202.385,-203.351l65.224,101.675Zm146.755,109.345l-202.387,203.343l-83.448,-83.446l184.162,-184.163l101.673,64.266Zm15.347,-306.937l120.856,-40.285l-40.285,120.856l-80.571,-80.571Zm59.468,141.961l-38.367,113.179l-117.019,-77.694l-0.959,-0.959l-77.693,-117.014l114.141,-38.368l119.897,120.856Zm-718.423,184.163l99.754,-67.142l82.489,82.488l-5.755,1.917l-89.203,70.019l-69.061,89.205l-2.878,5.752l-83.448,-83.446l68.102,-98.793Zm-101.673,23.974l-29.735,79.612l-114.141,-18.222c-59.469,-37.409 -84.408,-129.491 -103.592,-219.648l-23.02,-153.472c61.387,99.751 154.427,233.084 270.488,311.73Zm-249.386,-399.018l216.774,25.898c90.163,19.188 181.284,45.086 218.693,103.593l19.183,114.145l-147.713,87.281l-19.184,20.146c-129.489,-85.371 -232.12,-257.057 -287.753,-351.063Zm1535.64,1244.06l-63.306,64.267l-1830.11,-0l-63.305,-64.267l-0,-731.852l582.221,164.017l-113.183,114.145l-0,0.959l-136.204,135.242l-7.672,31.651c45.081,134.284 142.916,233.083 276.243,276.245l10.55,1.917l22.061,-8.628l136.204,-136.209l231.162,-230.2l350.099,349.139l40.285,17.27l23.021,-2.883l206.223,-206.22l-13.428,-64.266l-267.611,-267.61l616.751,-174.569l-0,731.852Zm-382.711,214.855l-114.143,-88.247l229.244,0l-115.101,88.247Zm-1191.3,0l-114.142,-88.247l229.243,0l-115.101,88.247Zm328.038,-1722.68c0,-117.98 95.918,-214.855 213.897,-214.855l107.428,0c118.938,0 214.856,96.875 214.856,214.855l-0,24.939l-536.181,0l0,-24.939Zm1182.67,24.939l-583.18,0l0,-24.939c0,-152.513 -124.693,-277.204 -278.161,-277.204l-107.428,0c-152.509,0 -277.202,124.691 -277.202,277.204l-0,24.939l-584.14,0l-126.611,126.608l-0,1356.28l126.611,126.608l140.04,0c15.348,86.33 89.204,150.596 179.367,150.596c90.162,0 164.978,-64.266 179.366,-150.596l832.566,0c15.347,86.33 90.163,150.596 179.367,150.596c90.162,0 164.978,-64.266 179.365,-150.596l140.04,0l126.611,-126.608l0,-1356.28l-126.611,-126.608Z" style="fill:#0b0b16;fill-rule:nonzero;"/></g></g></svg>