<?xml version="1.0" encoding="UTF-8" standalone="no"?><!DOCTYPE svg PUBLIC "-//W3C//DTD SVG 1.1//EN" "http://www.w3.org/Graphics/SVG/1.1/DTD/svg11.dtd"><svg width="100%" height="100%" viewBox="0 0 2084 2084" version="1.1" xmlns="http://www.w3.org/2000/svg" xmlns:xlink="http://www.w3.org/1999/xlink" xml:space="preserve" xmlns:serif="http://www.serif.com/" style="fill-rule:evenodd;clip-rule:evenodd;stroke-linejoin:round;stroke-miterlimit:2;"><rect id="画板1" x="0" y="0" width="2083.33" height="2083.33" style="fill:none;"/><clipPath id="_clip1"><rect id="画板11" serif:id="画板1" x="0" y="0" width="2083.33" height="2083.33"/></clipPath><g clip-path="url(#_clip1)"><g><path d="M395.91,1816.67l42.282,-92.252l1206.95,0l43.243,92.252l-1292.47,-0Zm1299.2,-137.421l-29.789,-19.216l-1247.31,0l-28.829,19.216l-71.11,156.636l1.922,29.788l25.946,14.414l1391.45,-0l25.946,-14.414l2.882,-29.788l-71.11,-156.636Z" style="fill:#0b0b16;fill-rule:nonzero;"/><path d="M1916.13,755.784l-8.649,26.907l16.337,96.093l-85.524,-45.162l-1.923,-0.96l-2.882,-0.961l-5.766,-0.96l-2.882,-0.96l-0.962,-0l-4.805,0.96l-1.921,0l-8.649,2.881l-85.524,45.162l16.336,-96.093l-8.649,-26.907l-69.188,-68.226l95.134,-13.453l24.024,-18.256l43.242,-86.489l42.282,86.489l24.024,18.256l95.134,13.453l-69.189,68.226Zm-287.323,746.657l-1174.28,-0l-146.064,-579.448l12.492,4.802l420.894,221.981l42.283,-13.453l257.533,-489.125l257.535,489.125l43.241,13.453l353.629,-185.463l79.759,-41.32l-147.025,579.448Zm-1461.6,-746.657l-69.189,-68.226l95.134,-13.453l24.024,-18.256l43.243,-86.489l42.281,86.489l24.024,18.256l95.133,13.453l-68.227,68.226l-9.609,26.907l16.336,96.093l-85.524,-45.162l-7.688,-2.881l-2.883,0l-3.843,-0.96l-1.923,-0l-2.882,0.96l-5.766,0.96l-2.883,0.961l-1.922,0.96l-84.563,45.162l16.336,-96.093l-9.609,-26.907Zm781.249,-281.556l-68.227,-68.227l95.134,-13.453l24.024,-18.255l42.281,-86.489l42.282,86.489l24.024,18.255l96.094,13.453l-69.188,68.227l-9.61,27.866l17.298,95.133l-85.525,-45.161l-6.726,-2.882l-4.805,0l-1.922,-0.96l-3.844,-0l-1.921,0.96l-4.805,0l-5.766,2.882l-85.524,45.161l16.336,-95.133l-9.61,-27.866Zm1134.88,181.621l-24.984,-21.143l-143.182,-21.137l-63.422,-128.769l-56.696,-0l-63.422,128.769l-143.182,21.137l-24.984,21.143l7.688,31.709l102.82,100.903l-21.141,126.841l-312.307,164.32l-222.94,-424.733l51.892,27.867l14.413,2.881l19.22,-4.802l12.491,-31.716l-24.984,-142.215l103.783,-100.903l7.687,-31.708l-25.945,-21.144l-142.221,-21.144l-63.423,-128.762l-56.696,-0l-64.382,128.762l-142.22,21.144l-24.985,21.144l7.687,31.708l102.822,100.903l-24.025,142.215l12.493,31.716l32.673,1.921l52.851,-27.867l-223.9,424.733l-312.308,-164.32l-21.141,-126.841l102.822,-100.903l8.648,-31.709l-25.945,-21.143l-142.221,-21.137l-64.383,-128.769l-56.696,-0l-63.423,128.769l-143.181,21.137l-24.984,21.143l7.687,31.709l103.783,100.903l-24.985,141.255l13.453,32.676l32.672,1.921l106.665,-56.694l160.479,634.221l30.75,24.025l1223.29,-0l29.789,-24.025l160.478,-634.221l106.665,56.694l14.415,2.881l18.258,-4.802l13.453,-32.676l-24.024,-141.255l102.821,-100.903l7.688,-31.709Z" style="fill:#0b0b16;fill-rule:nonzero;"/></g></g></svg>