<?xml version="1.0" encoding="UTF-8" standalone="no"?><!DOCTYPE svg PUBLIC "-//W3C//DTD SVG 1.1//EN" "http://www.w3.org/Graphics/SVG/1.1/DTD/svg11.dtd"><svg width="100%" height="100%" viewBox="0 0 2084 2084" version="1.1" xmlns="http://www.w3.org/2000/svg" xmlns:xlink="http://www.w3.org/1999/xlink" xml:space="preserve" xmlns:serif="http://www.serif.com/" style="fill-rule:evenodd;clip-rule:evenodd;stroke-linejoin:round;stroke-miterlimit:2;"><rect id="画板1" x="0" y="0" width="2083.33" height="2083.33" style="fill:none;"/><clipPath id="_clip1"><rect id="画板11" serif:id="画板1" x="0" y="0" width="2083.33" height="2083.33"/></clipPath><g clip-path="url(#_clip1)"><g><path d="M2020.03,1381.22c-0,87.288 -70.979,158.265 -158.265,158.265l-220.61,-0l-0,-599.486l-31.653,-31.65l-1136.62,-0l-30.694,31.65l-0,599.486l-221.57,-0c-87.285,-0 -157.305,-70.977 -157.305,-158.265l-0,-694.444c-0,-87.281 70.02,-157.306 157.305,-157.306l1641.15,-0c87.286,-0 158.265,70.025 158.265,157.306l-0,694.444Zm-439.304,430.675l-187.039,-370.244l-27.816,-17.27l-648.404,-0l-28.776,17.27l-187.039,370.244l-131.408,0l130.449,-224.448l4.795,-17.271l0,-599.486l1072.36,0l-0,599.486l4.796,17.271l129.489,224.448l-131.408,0Zm-1087.71,157.299l243.631,-481.506l609.078,0l243.631,481.506l-1096.34,0Zm194.713,-1854.09l706.914,-0l80.571,351.063l-868.056,0l80.571,-351.063Zm1174.03,351.063l-322.283,0l-89.204,-390.39l-29.734,-23.981l-757.75,0l-30.694,23.981l-89.204,390.39l-322.283,0c-121.816,0 -220.611,98.793 -220.611,220.607l-0,694.444c-0,122.773 98.795,220.614 220.611,220.614l197.59,-0l-130.448,225.407l0,31.65l27.816,15.346l154.428,-0l-56.592,112.228l0.96,30.691l26.857,14.387l1199.93,0l26.857,-14.387l0.959,-30.691l-56.592,-112.228l154.428,-0l27.816,-15.346l0,-31.65l-130.448,-225.407l197.59,-0c121.816,-0 221.57,-97.841 221.57,-220.614l0,-694.444c0,-121.814 -99.754,-220.607 -221.57,-220.607Z" style="fill:#0b0b16;fill-rule:nonzero;"/><path d="M254.182,770.219l-47,-47.955l47,-47.003l47,47.003l-47,47.955Zm0,-158.266l-110.305,110.311l110.305,110.303l110.305,-110.303l-110.305,-110.311Z" style="fill:#0b0b16;fill-rule:nonzero;"/><path d="M456.569,701.159l-9.592,21.105l9.592,23.015l22.061,8.635l23.02,-8.635l8.632,-23.015l-8.632,-21.105l-45.081,0Z" style="fill:#0b0b16;fill-rule:nonzero;"/><path d="M594.69,701.159l-9.592,21.105l8.633,23.015l23.02,8.635l22.061,-8.635l9.592,-23.015l-9.592,-21.105l-44.122,0Z" style="fill:#0b0b16;fill-rule:nonzero;"/></g></g></svg>