<?xml version="1.0" encoding="UTF-8" standalone="no"?><!DOCTYPE svg PUBLIC "-//W3C//DTD SVG 1.1//EN" "http://www.w3.org/Graphics/SVG/1.1/DTD/svg11.dtd"><svg width="100%" height="100%" viewBox="0 0 2084 2084" version="1.1" xmlns="http://www.w3.org/2000/svg" xmlns:xlink="http://www.w3.org/1999/xlink" xml:space="preserve" xmlns:serif="http://www.serif.com/" style="fill-rule:evenodd;clip-rule:evenodd;stroke-linejoin:round;stroke-miterlimit:2;"><rect id="画板1" x="0" y="0" width="2083.33" height="2083.33" style="fill:none;"/><clipPath id="_clip1"><rect id="画板11" serif:id="画板1" x="0" y="0" width="2083.33" height="2083.33"/></clipPath><g clip-path="url(#_clip1)"><g><path d="M1449.32,491.101l265.692,-286.797l264.733,286.797l-530.425,0Zm-42.204,681.974l-58.509,-17.263l-132.367,-0l185.122,-601.411l578.383,0l-572.629,618.674Zm-28.775,420.116l23.021,55.638l-65.225,78.646l-22.061,18.229l0.96,27.816l10.55,39.326l-73.856,80.571l-647.445,-0l-17.266,-16.305l0,-494.934l85.368,-119.897c62.346,-70.026 140.039,-158.265 162.1,-255.148l-17.265,-212.937l59.469,-2.876c55.633,1.917 103.592,80.57 113.183,187.039c8.633,93.04 -10.551,170.735 -18.225,200.468l4.796,27.815l25.898,12.47l346.264,0l58.509,70.026l-25.898,66.183l-16.305,36.443l22.061,33.575l28.775,55.631l-32.612,64.266l-13.429,23.981l8.633,23.974Zm-1274.75,-1038.79l576.465,0l70.02,224.449l0,0.959l23.021,212.937l-102.632,175.536l-566.874,-613.881Zm263.774,-349.139l263.774,285.839l-527.548,0l263.774,-285.839Zm337.63,269.528l-264.733,-285.832l527.548,-0l-262.815,285.832Zm600.446,16.311l-529.466,0l264.733,-286.797l264.733,286.797Zm-263.774,664.711l10.551,-182.246c-12.47,-142.92 -82.49,-240.753 -172.652,-244.588l-77.693,4.794l-55.633,-179.371l588.935,0l-185.121,601.411l-108.387,-0Zm601.404,-966.854l-265.692,286.797l-264.733,-286.797l530.425,-0Zm437.385,320.365l-0.959,-1.917l-4.796,-5.76l-0,-0.958l-336.671,-365.444l-0.96,-0.958l-9.592,-4.794l-0.958,0l-11.511,-3.842l-1348.6,0l-27.817,18.229l-329.957,356.809l-0.958,0.958l-1.919,3.842l-2.877,3.835l-0.96,3.834l-1.918,4.801l-0,9.587l2.878,7.676l2.877,3.835l1.919,3.842l0.958,0.958l619.629,671.422l-2.877,4.793l-100.714,162.107l-0,494.934l79.612,80.571l643.608,-0l10.551,-0.959l130.448,-143.878l-4.796,-36.451l79.612,-127.566l-20.143,-73.86l35.489,-93.999l-39.325,-95.916l30.693,-95.916l-19.184,-70.026l623.466,-675.256l-0,-0.958l1.918,-1.925l3.837,-5.752l2.877,-8.635l0,-3.835l-2.877,-13.428Z" style="fill:#0b0b16;fill-rule:nonzero;"/><path d="M374.08,1831.07l-63.306,62.349l-62.347,-62.349l-0,-377.913l62.347,-63.308l63.306,63.308l-0,377.913Zm-63.306,-504.528l-125.653,126.615l0,377.913l125.653,126.615l126.611,-126.615l0,-377.913l-126.611,-126.615Z" style="fill:#0b0b16;fill-rule:nonzero;"/></g></g></svg>