<?xml version="1.0" encoding="UTF-8" standalone="no"?><!DOCTYPE svg PUBLIC "-//W3C//DTD SVG 1.1//EN" "http://www.w3.org/Graphics/SVG/1.1/DTD/svg11.dtd"><svg width="100%" height="100%" viewBox="0 0 2084 2084" version="1.1" xmlns="http://www.w3.org/2000/svg" xmlns:xlink="http://www.w3.org/1999/xlink" xml:space="preserve" xmlns:serif="http://www.serif.com/" style="fill-rule:evenodd;clip-rule:evenodd;stroke-linejoin:round;stroke-miterlimit:2;"><rect id="画板1" x="0" y="0" width="2083.33" height="2083.33" style="fill:none;"/><clipPath id="_clip1"><rect id="画板11" serif:id="画板1" x="0" y="0" width="2083.33" height="2083.33"/></clipPath><g clip-path="url(#_clip1)"><g><path d="M1959.68,1914.44l-603.466,-603.47l80.591,-80.59l23.026,-8.629l23.026,8.629l456.675,457.641l51.808,125.678l-31.66,100.741Zm-272.471,24.945l-455.716,-456.681l-0.96,-46.048l46.052,-46.055l30.7,-29.74l3.838,-3.836l603.465,602.504l-227.379,-20.144Zm-528.631,-711.881l69.077,-68.117l94.981,94.021l-69.077,69.076l-94.981,-94.98Zm-465.311,396.235c25.904,110.33 -5.756,222.584 -84.427,302.215c-73.874,72.911 -179.409,104.568 -281.105,88.26l224.5,-225.46l7.675,-29.74c-28.782,-117.049 -118.966,-207.227 -235.053,-236.015l-30.701,8.637l-224.501,223.542c-18.229,-100.74 14.391,-207.234 88.265,-281.104c78.672,-78.672 190.921,-110.337 300.294,-84.432l30.701,-7.671l893.204,-893.204l8.634,-29.74c-26.863,-110.337 4.797,-222.584 84.428,-301.256c72.915,-73.877 179.409,-105.535 280.146,-88.268l-223.541,224.502l-8.635,30.699c28.782,116.089 118.966,206.275 235.054,235.056l31.66,-8.637l224.501,-223.535c17.269,100.733 -15.351,207.227 -88.265,281.104c-79.631,78.672 -191.882,110.329 -301.253,84.425l-30.701,8.637l-893.205,892.245l-7.675,29.74Zm-245.607,-1108.11l68.118,-68.117l408.705,407.742l-69.076,69.076l-407.747,-408.701Zm-83.468,-7.679l-254.242,-178.446l219.703,-220.666l178.45,254.242l-14.392,16.315l-115.128,114.165l-14.391,14.39Zm1164.71,676.381l-137.194,0l-23.026,23.987l-94.981,-94.98l354.02,-354.023c125.682,23.987 252.323,-14.39 343.467,-104.576c104.574,-104.576 140.072,-261.912 89.224,-401.03l-23.026,-21.102l-29.741,9.588l-250.405,250.406l-165.976,-166.932l250.404,-250.406l8.634,-29.74l-21.107,-23.027c-139.113,-49.891 -295.496,-15.35 -400.071,89.219c-91.142,91.144 -129.519,218.748 -105.534,344.427l-354.02,353.064l-407.746,-407.749l11.512,-11.514l3.839,-41.254l-216.826,-307.967l-23.985,-14.391l-24.944,9.596l-275.349,274.385l-8.635,26.863l13.432,23.028l307.968,216.823l18.229,5.761l23.026,-9.596l11.513,-11.514l407.746,408.708l-354.02,353.057c-124.722,-23.98 -252.323,15.356 -343.466,104.576c-103.616,104.576 -139.113,261.919 -90.184,401.03l23.985,21.109l29.742,-8.637l250.404,-251.364l166.936,166.939l-250.404,250.406l-8.635,29.74l20.148,23.986l128.56,22.062c100.737,-0 199.556,-39.336 272.47,-112.247c90.184,-90.186 128.561,-217.782 104.575,-343.468l354.02,-354.016l94.981,94.98l-23.026,22.062l0,138.158l456.676,455.715l171.733,71.953l171.733,-71.953l70.996,-170.775l-70.996,-171.734l-456.676,-457.633Z" style="fill:#0b0b16;fill-rule:nonzero;"/></g></g></svg>