<?xml version="1.0" encoding="UTF-8" standalone="no"?><!DOCTYPE svg PUBLIC "-//W3C//DTD SVG 1.1//EN" "http://www.w3.org/Graphics/SVG/1.1/DTD/svg11.dtd"><svg width="100%" height="100%" viewBox="0 0 2084 2084" version="1.1" xmlns="http://www.w3.org/2000/svg" xmlns:xlink="http://www.w3.org/1999/xlink" xml:space="preserve" xmlns:serif="http://www.serif.com/" style="fill-rule:evenodd;clip-rule:evenodd;stroke-linejoin:round;stroke-miterlimit:2;"><rect id="画板1" x="0" y="0" width="2083.33" height="2083.33" style="fill:none;"/><clipPath id="_clip1"><rect id="画板11" serif:id="画板1" x="0" y="0" width="2083.33" height="2083.33"/></clipPath><g clip-path="url(#_clip1)"><g><path d="M1547.15,1749.54l-157.305,-156.348l-26.857,-9.594l-23.979,18.229l-74.817,118.938l-148.671,0l-30.695,-74.818l30.695,-73.86l118.937,-74.812l17.265,-23.981l-8.632,-26.856l-156.346,-156.348l125.653,-126.608l67.142,95.916l118.938,49.879l118.937,-49.879l0,-237.877l-96.877,-66.183l126.612,-126.608l156.346,156.34l27.816,9.594l22.061,-17.263l75.776,-118.938l148.671,-0l0,148.671l-118.937,74.819l-17.264,23.015l8.631,27.815l156.346,157.307l-459.446,459.45Zm-1010.97,-0l-156.346,-156.348l-27.817,-9.594l-22.06,18.229l-75.775,118.938l-148.674,0l-30.693,-74.818l30.693,-73.86l118.939,-74.812l17.265,-23.981l-8.632,-26.856l-156.346,-156.348l125.651,-126.608l67.144,95.916l237.875,0l0,-237.877l-96.876,-66.183l125.652,-126.608l139.08,139.077l18.225,17.263l27.816,9.594l23.02,-17.263l74.817,-118.938l148.671,-0l0,148.671l-118.936,74.819l-17.267,23.015l8.633,27.815l156.346,157.307l-460.405,459.45Zm201.427,-1122.24l9.592,-26.864l-17.265,-23.015l-118.939,-75.777l-31.651,-73.853l31.651,-74.819l148.674,0l74.815,119.898l23.02,17.263l27.816,-9.594l156.346,-156.341l460.407,459.443l-150.593,150.596l-5.754,6.71l-9.592,27.816l17.265,23.022l118.939,74.812l-0,149.637l-148.673,-0l-74.815,-118.939l-23.021,-18.229l-4.797,0l-23.02,9.594l-14.387,13.429l-141.959,142.919l-126.612,-125.656l96.877,-67.143l0,-237.869l-237.875,-0l-66.184,95.916l-126.611,-126.615l156.346,-156.341Zm1336.13,639.772l-147.712,-147.72l95.918,-67.143l-0,-237.869l-118.939,-49.879l-118.938,49.879l-67.143,95.916l-147.712,-147.713l-505.487,-504.528l-44.122,-0l-148.673,147.712l-66.184,-96.875l-119.897,-49.879l-118.937,49.879l-49.877,118.939l49.877,118.931l96.877,67.143l-327.081,327.082l-8.632,27.816l17.265,23.022l118.939,74.812l-0,149.637l-149.632,-0l-74.817,-118.939l-23.02,-18.229l-26.857,9.594l-179.365,178.412l-9.592,23.015l9.592,21.105l148.671,148.671l-96.876,67.142l-49.878,118.939l49.878,119.897l118.938,48.92l118.937,-48.92l67.144,-97.834l147.713,148.672l22.061,8.628l23.021,-8.628l482.465,-482.465l126.611,125.649l-96.877,67.142l-49.877,118.939l49.877,119.897l118.939,48.92l118.939,-48.92l66.183,-97.834l148.671,148.672l23.021,8.628l22.062,-8.628l504.526,-505.487l9.592,-21.105l-9.592,-23.015Z" style="fill:#0b0b16;fill-rule:nonzero;"/></g></g></svg>