<?xml version="1.0" encoding="UTF-8" standalone="no"?><!DOCTYPE svg PUBLIC "-//W3C//DTD SVG 1.1//EN" "http://www.w3.org/Graphics/SVG/1.1/DTD/svg11.dtd"><svg width="100%" height="100%" viewBox="0 0 2084 2084" version="1.1" xmlns="http://www.w3.org/2000/svg" xmlns:xlink="http://www.w3.org/1999/xlink" xml:space="preserve" xmlns:serif="http://www.serif.com/" style="fill-rule:evenodd;clip-rule:evenodd;stroke-linejoin:round;stroke-miterlimit:2;"><rect id="画板1" x="0" y="0" width="2083.33" height="2083.33" style="fill:none;"/><g id="画板11" serif:id="画板1"><g><path d="M1599.68,89.725c126.67,0 231.269,102.678 231.269,230.311l-0,427.03l31.667,31.665l31.668,-31.665l-0,-427.03c-0,-162.178 -132.428,-294.606 -294.604,-294.606l-1306.04,-0c-162.175,-0 -293.643,132.428 -293.643,294.606l0,1221.59l30.707,32.628l32.628,-32.628l-0,-1221.59c-0,-127.633 103.639,-230.311 230.308,-230.311l1306.04,0Z" style="fill:#0b0b16;fill-rule:nonzero;"/><path d="M2083.33,1359.3l-65.254,-140.104l52.78,-146.822c-0,-97.879 -77.73,-183.285 -166.974,-183.285l-478.85,-0c14.394,-63.337 30.708,-168.892 20.151,-288.845c-19.191,-202.482 -118.992,-347.385 -244.703,-352.18c-114.194,-4.8 -159.296,20.151 -164.094,23.029l-14.395,33.586l24.95,320.513c-39.343,118.993 -132.427,234.146 -213.994,334.91c-83.487,101.718 -148.742,182.326 -148.742,253.339l0,661.177l31.667,31.669l31.668,-31.669l-0,-661.177l134.347,-213.035c85.406,-105.559 182.328,-224.552 224.551,-355.062l-18.233,-326.271l109.397,-8.636c91.163,3.841 168.893,128.588 184.247,295.562c12.475,141.067 -15.354,260.057 -27.83,305.16l5.759,28.791l24.95,11.513l519.154,-0l103.639,120.911c-0,87.329 -50.86,119.953 -63.335,119.953l-31.667,31.668l31.667,31.668l75.809,103.637l-54.698,109.399l-13.435,23.992l8.638,23.988l37.424,94.042l-109.396,133.387l-22.071,18.234l0.96,27.828l18.232,67.174l-125.71,136.268l-6.718,0.959l-102.679,-0l-30.708,31.668l30.708,31.665l102.679,-0l13.435,-0.959c103.639,-9.595 181.368,-95.961 181.368,-199.601l-9.596,-62.374l122.831,-184.249l-34.546,-111.313l56.617,-140.108Z" style="fill:#0b0b16;fill-rule:nonzero;"/><path d="M462.536,1144.35l-175.61,0l-97.881,96.924l-0,638.147l31.667,30.706l31.667,-30.706l0,-638.147l34.547,-33.587l175.61,-0l33.587,33.587l0,719.714l-33.587,33.587l-88.285,-0l-31.667,31.668l31.667,31.665l88.285,-0l96.922,-96.92l0,-719.714l-96.922,-96.924Z" style="fill:#0b0b16;fill-rule:nonzero;"/><path d="M374.251,1916.84l37.426,-37.423l-37.426,-38.385l-37.425,38.385l37.425,37.423Z" style="fill:#0b0b16;fill-rule:nonzero;"/><path d="M1418.32,1994.57l-502.841,-0l-31.667,31.668l31.667,31.665l502.841,-0l31.668,-31.665l-31.668,-31.668Z" style="fill:#0b0b16;fill-rule:nonzero;"/><path d="M1508.52,1564.66c0,130.51 -105.557,236.069 -236.065,236.069c-130.509,-0 -237.027,-105.559 -237.027,-236.069c-0,-131.465 106.518,-237.024 237.027,-237.024l156.417,59.497l-131.468,225.511l-103.639,-166.977l-44.142,-9.595l-9.596,43.182l131.468,210.158l27.829,14.394l26.869,-14.394l145.862,-250.462l36.465,125.71Zm74.851,-376.169l-44.142,11.517l-76.77,132.424l-190.004,-68.132c-166.015,-0 -300.362,134.346 -300.362,300.36c0,165.056 134.347,299.402 300.362,299.402c165.054,-0 299.4,-134.346 299.4,-299.402l-64.294,-185.203l86.365,-147.785l-10.555,-43.181Z" style="fill:#0b0b16;fill-rule:nonzero;"/></g></g></svg>