<?xml version="1.0" encoding="UTF-8" standalone="no"?><!DOCTYPE svg PUBLIC "-//W3C//DTD SVG 1.1//EN" "http://www.w3.org/Graphics/SVG/1.1/DTD/svg11.dtd"><svg width="100%" height="100%" viewBox="0 0 2084 2084" version="1.1" xmlns="http://www.w3.org/2000/svg" xmlns:xlink="http://www.w3.org/1999/xlink" xml:space="preserve" xmlns:serif="http://www.serif.com/" style="fill-rule:evenodd;clip-rule:evenodd;stroke-linejoin:round;stroke-miterlimit:2;"><rect id="画板1" x="0" y="0" width="2083.33" height="2083.33" style="fill:none;"/><clipPath id="_clip1"><rect id="画板11" serif:id="画板1" x="0" y="0" width="2083.33" height="2083.33"/></clipPath><g clip-path="url(#_clip1)"><g><path d="M2020.87,1142.09l-84.565,87.443l14.416,-103.784l12.491,-86.482l39.399,30.748l18.259,72.075Zm-189.307,191.227l-64.383,16.334l-58.619,-6.723l-56.695,-35.557l-17.297,-64.385l41.32,-297.891l34.595,-57.655l27.867,-14.421l-0,246.007l32.673,31.708l30.749,-31.708l0,-246.007l31.713,4.809l73.992,99.935l-1.922,18.263l-16.337,115.309l-23.063,164.327l-34.593,57.655Zm-867.735,567.923l-16.337,-54.781l27.867,-49.003l53.815,-15.374l49.007,26.906l15.376,53.813l-26.907,49.003l-53.813,16.342l-49.008,-26.906Zm-557.35,-956.145l42.282,297.891l-17.298,64.385l-57.657,35.557l-57.656,6.723l-64.383,-16.334l-34.595,-57.655l-23.063,-162.406l-16.336,-117.23l-2.883,-18.263l74.955,-99.935l30.749,-4.809l0,246.007l31.713,31.708l31.71,-31.708l-0,-246.007l28.829,14.421l33.633,57.655Zm-306.542,267.143l-37.477,-64.385l20.18,-75.917l37.476,-30.748l3.844,26.906l23.063,162.399l-47.086,-18.255Zm1870.97,-236.395l-128.768,-159.518l-41.32,-6.723c-21.142,-400.715 -353.629,-720.711 -759.149,-720.711c-406.481,0 -738.968,319.996 -760.11,720.711l-40.36,6.723l-128.766,160.478l-79.758,56.701l-32.673,123.961l62.462,105.704l94.173,32.669l56.695,88.41l90.329,30.748l21.141,-1.921l57.658,-8.651l99.938,-58.615l28.828,-111.467l-42.281,-297.899l-58.618,-99.935l-65.346,-27.866c22.103,-365.165 325.762,-656.334 696.688,-656.334c370.925,0 674.584,291.169 695.727,656.334l-65.346,27.866l-57.656,99.935l-42.282,297.899l28.829,111.467l92.251,57.655c-23.063,154.715 -101.861,294.05 -224.862,392.071c-97.056,77.831 -212.37,123 -333.449,133.572l21.142,-59.583l-28.829,-99.935l-91.29,-50.932l-99.938,28.828l-50.932,92.251l121.081,149.906l76.876,4.81c153.751,-0 302.697,-50.932 424.738,-148.953c135.494,-108.586 221.978,-261.374 247.924,-432.424l1.922,0l21.141,1.921l91.291,-30.748l56.696,-90.331l156.632,-143.183l-112.429,-174.891Z" style="fill:#0b0b16;fill-rule:nonzero;"/><path d="M911.939,1226.65l-81.68,59.576l-45.165,-44.202l60.541,-82.64l1.921,-32.676l-11.531,-26.906l-24.025,-22.097l-100.899,-15.374l-1.921,-31.716l1.921,-31.709l100.899,-15.374l24.025,-22.104l12.491,-26.906l-2.881,-32.669l-60.541,-81.68l45.165,-45.169l82.642,59.583l31.71,2.881l27.869,-11.532l21.14,-24.986l16.336,-99.935l63.423,-0l15.374,99.935l21.142,24.986l27.867,11.532l32.672,-2.881l82.642,-59.583l44.203,45.169l-59.579,81.68l-2.883,32.669l11.533,27.866l24.983,21.144l100.899,15.374l0.963,31.709l-0.963,31.716l-100.899,15.374l-24.983,22.097l-11.533,26.906l2.883,32.676l59.579,82.64l-44.203,44.202l-82.642,-59.576l-32.672,-1.92l-27.867,10.572l-21.142,25.946l-15.374,99.934l-63.423,0l-16.336,-99.934l-21.14,-25.946l-26.908,-10.572l-33.633,1.92Zm39.399,167.209l25.946,26.906l64.383,4.802l64.384,-4.802l25.945,-26.906l16.336,-104.745l86.485,62.457l37.477,-0l90.329,-90.323l-0,-36.518l-63.423,-86.49l105.705,-17.294l26.906,-25.946l4.806,-64.385l-4.806,-64.385l-26.906,-24.978l-105.705,-17.302l63.423,-86.482l-0,-37.478l-91.29,-90.331l-36.516,-0l-86.485,62.464l-16.336,-105.705l-26.907,-25.946l-127.805,-0l-25.946,25.946l-16.337,105.705l-86.485,-62.464l-37.476,-0l-90.329,90.331l-0,37.478l62.462,86.482l-105.705,17.302l-25.946,24.978l-4.804,64.385l4.804,64.385l25.946,25.946l105.705,17.294l-62.462,86.49l-0,36.518l90.329,90.323l37.476,-0l86.485,-62.457l16.337,104.745Z" style="fill:#0b0b16;fill-rule:nonzero;"/><path d="M1041.67,967.194l62.462,63.417l-62.462,63.424l-63.423,-63.424l63.423,-63.417Zm-0,189.305l125.884,-125.888l-125.884,-125.881l-126.845,125.881l126.845,125.888Z" style="fill:#0b0b16;fill-rule:nonzero;"/></g></g></svg>