<?xml version="1.0" encoding="UTF-8" standalone="no"?><!DOCTYPE svg PUBLIC "-//W3C//DTD SVG 1.1//EN" "http://www.w3.org/Graphics/SVG/1.1/DTD/svg11.dtd"><svg width="100%" height="100%" viewBox="0 0 2084 2084" version="1.1" xmlns="http://www.w3.org/2000/svg" xmlns:xlink="http://www.w3.org/1999/xlink" xml:space="preserve" xmlns:serif="http://www.serif.com/" style="fill-rule:evenodd;clip-rule:evenodd;stroke-linejoin:round;stroke-miterlimit:2;"><rect id="画板1" x="0" y="0" width="2083.33" height="2083.33" style="fill:none;"/><g id="画板11" serif:id="画板1"><g><path d="M997.964,649.304l31.696,-31.702l-0,-271.82l-31.696,-30.734l-31.698,30.734l0,271.82l31.698,31.702Z" style="fill:#0b0b16;fill-rule:nonzero;"/><path d="M997.964,1522.4l-31.698,30.734l0,271.827l31.698,30.734l31.696,-30.734l-0,-271.827l-31.696,-30.734Z" style="fill:#0b0b16;fill-rule:nonzero;"/><path d="M1434.03,1085.37l31.696,31.701l271.824,-0l31.696,-31.701l-31.696,-31.694l-271.824,-0l-31.696,31.694Z" style="fill:#0b0b16;fill-rule:nonzero;"/><path d="M561.894,1085.37l-31.695,-31.694l-270.864,-0l-32.656,31.694l32.656,31.701l270.864,-0l31.695,-31.701Z" style="fill:#0b0b16;fill-rule:nonzero;"/><path d="M883.664,1646.3c-224.759,-46.101 -399.57,-220.912 -445.674,-444.711l-37.46,-25.934l-24.974,37.461c50.908,249.733 245.89,443.751 495.621,494.659l6.724,0.96l30.736,-24.974l-24.973,-37.461Z" style="fill:#0b0b16;fill-rule:nonzero;"/><path d="M399.57,997.006l6.724,0.96l31.696,-25.934c45.144,-225.719 219.955,-400.531 445.674,-446.639l24.973,-37.454l-37.46,-24.974c-250.691,50.908 -445.675,245.886 -495.621,496.58l24.014,37.461Z" style="fill:#0b0b16;fill-rule:nonzero;"/><path d="M1596.36,1175.66l-37.46,25.934c-46.104,223.799 -220.915,398.61 -446.635,444.711l-24.012,37.461l30.736,24.974l5.763,-0.96c250.692,-50.908 444.713,-244.926 495.622,-494.659l-24.014,-37.461Z" style="fill:#0b0b16;fill-rule:nonzero;"/><path d="M975.872,1107.46l22.092,9.607l22.092,-9.607l124.865,-124.863l33.618,102.769c-0,98.936 -80.683,179.618 -180.575,179.618c-98.933,-0 -179.615,-80.682 -179.615,-179.618c0,-98.929 80.682,-179.611 179.615,-179.611l102.774,32.654l-124.866,124.87l-0,44.181Zm956.663,-22.094c-0,515.793 -418.779,934.57 -934.571,934.57c-514.83,0 -934.571,-418.777 -934.571,-934.57c0,-514.827 419.741,-934.571 934.571,-934.571c245.89,0 470.647,97.016 637.775,252.613l-211.311,210.352c-82.604,-74.922 -184.416,-126.783 -299.678,-150.797l-36.499,24.974l24.012,37.454c102.775,20.174 193.062,68.203 267.982,133.51l-234.364,233.407l-147.917,-48.989c-133.51,0 -243.008,108.537 -243.008,242.047c-0,133.51 109.498,243.973 243.008,243.973c134.47,0 243.008,-110.463 243.008,-243.973l-49.946,-147.917l233.402,-233.399c66.275,73.954 114.3,165.204 134.47,267.98l30.736,25.934l6.724,-0.96l24.014,-37.461c-22.093,-114.304 -75.881,-218.032 -150.801,-300.642l210.35,-210.345c156.563,166.164 252.614,390.924 252.614,636.81Zm-123.905,-903.83l76.84,-75.882l-0,61.475l31.698,31.694l61.471,0l-76.84,75.882l-93.169,0l-0,-93.169Zm106.616,156.557l22.092,-8.64l140.234,-140.237l5.761,-34.574l-28.814,-19.214l-106.616,0l0,-106.616l-19.21,-28.814l-33.618,6.727l-140.233,139.27l-9.606,23.054l0,123.903l-65.315,66.275c-178.653,-168.091 -418.779,-270.86 -681.957,-270.86c-549.409,0 -997.964,446.631 -997.964,996.999c0,550.374 448.555,997.965 997.964,997.965c550.369,0 997.964,-447.591 997.964,-997.965c-0,-264.133 -102.775,-503.299 -270.862,-681.958l65.315,-65.315l124.865,0Z" style="fill:#0b0b16;fill-rule:nonzero;"/></g></g></svg>