<?xml version="1.0" encoding="UTF-8" standalone="no"?><!DOCTYPE svg PUBLIC "-//W3C//DTD SVG 1.1//EN" "http://www.w3.org/Graphics/SVG/1.1/DTD/svg11.dtd"><svg width="100%" height="100%" viewBox="0 0 2084 2084" version="1.1" xmlns="http://www.w3.org/2000/svg" xmlns:xlink="http://www.w3.org/1999/xlink" xml:space="preserve" xmlns:serif="http://www.serif.com/" style="fill-rule:evenodd;clip-rule:evenodd;stroke-linejoin:round;stroke-miterlimit:2;"><rect id="画板1" x="0" y="0" width="2083.33" height="2083.33" style="fill:none;"/><clipPath id="_clip1"><rect id="画板11" serif:id="画板1" x="0" y="0" width="2083.33" height="2083.33"/></clipPath><g clip-path="url(#_clip1)"><g><path d="M2016.18,1530.86c-0,74.218 -60.36,134.393 -134.395,134.393l-571.335,-0c-74.035,-0 -134.298,-60.175 -134.298,-134.393l0,-84.635c0,-65.198 -53.11,-118.304 -118.306,-118.304l-32.272,-0c-65.196,-0 -118.306,53.106 -118.306,118.304l-0,84.635c-0,74.218 -60.264,134.393 -134.389,134.393l-571.245,-0c-74.125,-0 -134.394,-60.175 -134.394,-134.393l0,-496.744l1948.94,-0l-0,496.744Zm66.496,-533.854l-1.3,-6.603l-2.884,-6.232l-1.397,-3.162c-67.801,-95.146 -409.035,-571.427 -468.282,-611.049c-73.012,-48.827 -172.433,10.603 -183.502,17.486c-15.81,9.859 -20.555,30.506 -10.695,46.223c9.86,15.812 30.597,20.647 46.316,10.696c15.071,-9.393 78.127,-40.178 110.495,-18.508c32.919,22.973 230.278,286.458 412.941,540.922l-1885.41,0c182.759,-254.464 380.112,-517.949 412.946,-540.922c31.624,-21.112 91.984,7.068 110.586,18.508c15.713,9.951 36.455,5.116 46.316,-10.696c9.764,-15.717 5.024,-36.364 -10.695,-46.223c-11.069,-6.883 -110.586,-66.407 -183.503,-17.486c-59.247,39.622 -400.48,515.903 -468.378,611.049l-1.397,3.162l-2.787,6.232l-1.3,6.603l-0.749,3.534l0,530.32c0,111.141 90.497,201.637 201.639,201.637l571.245,-0c111.137,-0 201.634,-90.496 201.634,-201.637l-0,-84.635c-0,-28.182 22.877,-51.06 51.061,-51.06l32.272,-0c28.179,-0 51.061,22.878 51.061,51.06l-0,84.635c-0,111.141 90.4,201.637 201.543,201.637l571.335,-0c111.143,-0 201.543,-90.496 201.543,-201.637l0,-530.32l-0.652,-3.534Z" style="fill:#0b0b16;fill-rule:nonzero;"/><path d="M433.689,1228.5l-181.641,181.732l-0,-181.732l181.641,-0Zm107.14,262.834l181.641,-181.733l-0,181.733l-181.641,0Zm167.693,-262.834l-262.742,262.834l-179.875,0l262.839,-262.834l179.778,-0Zm-456.474,330.077l470.422,-0c37.114,-0 67.154,-30.133 67.154,-67.243l0,-296.409c0,-18.602 -14.974,-33.576 -33.577,-33.576l-537.576,0c-18.506,0 -33.668,14.974 -33.668,33.576l-0,296.409c-0,37.11 30.228,67.243 67.245,67.243Z" style="fill:#0b0b16;fill-rule:nonzero;"/><path d="M1360.96,1228.5l470.422,-0l-0,262.834l-470.422,0l-0,-262.834Zm-0,330.077l470.422,-0c37.017,-0 67.149,-30.133 67.149,-67.243l-0,-296.409c-0,-18.602 -15.066,-33.576 -33.577,-33.576l-537.662,0c-18.602,0 -33.577,14.974 -33.577,33.576l-0,296.409c-0,37.11 30.131,67.243 67.245,67.243Z" style="fill:#0b0b16;fill-rule:nonzero;"/></g></g></svg>