<?xml version="1.0" encoding="UTF-8" standalone="no"?><!DOCTYPE svg PUBLIC "-//W3C//DTD SVG 1.1//EN" "http://www.w3.org/Graphics/SVG/1.1/DTD/svg11.dtd"><svg width="100%" height="100%" viewBox="0 0 2084 2084" version="1.1" xmlns="http://www.w3.org/2000/svg" xmlns:xlink="http://www.w3.org/1999/xlink" xml:space="preserve" xmlns:serif="http://www.serif.com/" style="fill-rule:evenodd;clip-rule:evenodd;stroke-linejoin:round;stroke-miterlimit:2;"><rect id="画板1" x="0" y="0" width="2083.33" height="2083.33" style="fill:none;"/><clipPath id="_clip1"><rect id="画板11" serif:id="画板1" x="0" y="0" width="2083.33" height="2083.33"/></clipPath><g clip-path="url(#_clip1)"><g><path d="M87.465,2059.48l1431.31,0c35.112,0 63.609,-28.433 63.609,-63.609l0,-1908.28c0,-35.081 -28.497,-63.609 -63.609,-63.609l-1113.26,-0c-149.069,149.036 -232.62,232.651 -381.656,381.655l0,1590.23c0,35.176 28.464,63.609 63.609,63.609Z" style="fill:#fff;fill-rule:nonzero;"/><path d="M47.71,415.527l-0,1580.34c-0,21.945 17.841,39.756 39.755,39.756l1431.31,-0c21.912,-0 39.756,-17.811 39.756,-39.756l-0,-1908.28c-0,-21.914 -17.844,-39.756 -39.756,-39.756l-1103.37,0l-367.692,367.693Zm1471.06,1667.81l-1431.31,-0c-48.248,-0 -87.462,-39.248 -87.462,-87.463l-0,-1590.23c-0,-6.329 2.512,-12.403 6.996,-16.888l381.656,-381.656c4.453,-4.452 10.527,-6.965 16.857,-6.965l1113.26,0c48.215,0 87.463,39.215 87.463,87.463l-0,1908.28c-0,48.215 -39.248,87.463 -87.463,87.463Z" style="fill-rule:nonzero;"/><path d="M1105.31,723.683l954.14,-0l-0,-190.828c-0,-35.081 -28.497,-63.609 -63.61,-63.609l-826.92,-0c-35.144,-0 -63.61,28.528 -63.61,63.609l0,190.828Z" style="fill:#fff;fill-rule:nonzero;"/><path d="M1168.92,1677.82l413.46,0l0,-477.069l-477.07,-0l0,413.46c0,35.176 28.466,63.609 63.61,63.609Z" style="fill:#fff;fill-rule:nonzero;"/><rect x="1105.31" y="723.683" width="477.07" height="477.07" style="fill:#fff;fill-rule:nonzero;"/><path d="M1582.38,1677.82l413.46,0c35.113,0 63.61,-28.433 63.61,-63.609l-0,-413.46l-477.07,-0l0,477.069Z" style="fill:#fff;fill-rule:nonzero;"/><rect x="1582.38" y="723.683" width="477.07" height="477.07" style="fill:#fff;fill-rule:nonzero;"/><path d="M1129.16,699.829l906.432,0l0,-166.974c0,-21.914 -17.843,-39.756 -39.756,-39.756l-826.92,0c-21.946,0 -39.756,17.842 -39.756,39.756l-0,166.974Zm930.286,47.707l-954.14,0c-13.167,0 -23.853,-10.686 -23.853,-23.853l-0,-190.828c-0,-48.184 39.214,-87.463 87.463,-87.463l826.92,0c48.216,0 87.463,39.279 87.463,87.463l0,190.828c0,13.167 -10.686,23.853 -23.853,23.853Z" style="fill-rule:nonzero;"/><path d="M1129.16,1224.61l-0,389.607c-0,21.945 17.81,39.756 39.756,39.756l389.607,-0l-0,-429.363l-429.363,0Zm453.216,477.07l-413.46,-0c-48.249,-0 -87.463,-39.184 -87.463,-87.463l-0,-413.46c-0,-13.168 10.686,-23.854 23.853,-23.854l477.07,0c13.167,0 23.854,10.686 23.854,23.854l-0,477.069c-0,13.168 -10.687,23.854 -23.854,23.854Z" style="fill-rule:nonzero;"/><path d="M1129.16,1176.9l429.363,0l-0,-429.363l-429.363,0l-0,429.363Zm453.216,47.707l-477.07,0c-13.167,0 -23.853,-10.686 -23.853,-23.853l-0,-477.07c-0,-13.167 10.686,-23.854 23.853,-23.854l477.07,0c13.167,0 23.854,10.687 23.854,23.854l-0,477.07c-0,13.167 -10.687,23.853 -23.854,23.853Z" style="fill-rule:nonzero;"/><path d="M1606.23,1653.97l389.606,-0c21.913,-0 39.756,-17.811 39.756,-39.756l0,-389.607l-429.362,0l-0,429.363Zm389.606,47.707l-413.46,-0c-13.167,-0 -23.853,-10.686 -23.853,-23.854l-0,-477.069c-0,-13.168 10.686,-23.854 23.853,-23.854l477.07,0c13.167,0 23.853,10.686 23.853,23.854l0,413.46c0,48.279 -39.247,87.463 -87.463,87.463Z" style="fill-rule:nonzero;"/><path d="M1606.23,1176.9l429.362,0l0,-429.363l-429.362,0l-0,429.363Zm453.216,47.707l-477.07,0c-13.167,0 -23.853,-10.686 -23.853,-23.853l-0,-477.07c-0,-13.167 10.686,-23.854 23.853,-23.854l477.07,0c13.167,0 23.853,10.687 23.853,23.854l0,477.07c0,13.167 -10.686,23.853 -23.853,23.853Z" style="fill-rule:nonzero;"/><path d="M23.856,405.636l381.656,-381.655l-0,381.655l-381.656,0Z" style="fill:#fff;fill-rule:nonzero;"/><path d="M81.454,381.783l300.204,-0l0,-300.204l-300.204,300.204Zm324.058,47.707l-381.656,-0c-9.669,-0 -18.352,-5.82 -22.04,-14.694c-3.69,-8.969 -1.654,-19.21 5.183,-26.048l381.656,-381.656c6.838,-6.774 17.078,-8.809 25.984,-5.152c8.905,3.657 14.726,12.372 14.726,22.041l0,381.655c0,13.168 -10.686,23.854 -23.853,23.854Z" style="fill-rule:nonzero;"/><path d="M1614.18,628.205c-8.27,0 -16.539,-3.467 -22.582,-9.255c-5.725,-6.011 -9.223,-14.28 -9.223,-22.549c0,-8.238 3.498,-16.507 9.223,-22.582c11.767,-11.767 33.078,-11.767 45.162,0c5.757,6.075 9.224,14.344 9.224,22.582c0,8.269 -3.467,16.538 -9.224,22.549c-6.041,6.107 -14.28,9.255 -22.58,9.255Z" style="fill-rule:nonzero;"/><path d="M1725.5,596.401c-0,-17.493 14.312,-31.805 31.805,-31.805c17.523,0 31.804,14.312 31.804,31.805c0,17.46 -14.281,31.804 -31.804,31.804c-17.493,0 -31.805,-14.344 -31.805,-31.804Z" style="fill-rule:nonzero;"/><path d="M1900.43,628.205c-8.588,0 -16.539,-3.148 -22.582,-9.255c-5.725,-6.011 -9.223,-14.28 -9.223,-22.549c-0,-8.238 3.498,-16.507 9.223,-22.295c11.767,-12.054 33.078,-12.054 45.162,-0c5.757,5.788 9.224,14.057 9.224,22.295c0,8.587 -3.467,16.538 -9.224,22.549c-6.041,6.107 -14.28,9.255 -22.58,9.255Z" style="fill-rule:nonzero;"/><path d="M1439.26,986.071l-190.828,0c-13.167,0 -23.853,-10.686 -23.853,-23.853c-0,-13.167 10.686,-23.854 23.853,-23.854l190.828,0c13.167,0 23.854,10.687 23.854,23.854c-0,13.167 -10.687,23.853 -23.854,23.853Z" style="fill-rule:nonzero;"/><path d="M1916.33,986.071l-190.828,0c-13.167,0 -23.854,-10.686 -23.854,-23.853c0,-13.167 10.687,-23.854 23.854,-23.854l190.828,0c13.167,0 23.853,10.687 23.853,23.854c0,13.167 -10.686,23.853 -23.853,23.853Z" style="fill-rule:nonzero;"/><path d="M1916.33,1526.75l-190.828,0c-13.167,0 -23.854,-10.686 -23.854,-23.853c0,-13.167 10.687,-23.854 23.854,-23.854l190.828,0c13.167,0 23.853,10.687 23.853,23.854c0,13.167 -10.686,23.853 -23.853,23.853Z" style="fill-rule:nonzero;"/><path d="M1916.33,1399.53l-190.828,-0c-13.167,-0 -23.854,-10.687 -23.854,-23.854c0,-13.167 10.687,-23.853 23.854,-23.853l190.828,-0c13.167,-0 23.853,10.686 23.853,23.853c0,13.167 -10.686,23.854 -23.853,23.854Z" style="fill-rule:nonzero;"/><path d="M1343.84,1081.49c-13.167,0 -23.853,-10.686 -23.853,-23.853l-0,-190.828c-0,-13.167 10.686,-23.854 23.853,-23.854c13.167,0 23.854,10.687 23.854,23.854l-0,190.828c-0,13.167 -10.687,23.853 -23.854,23.853Z" style="fill-rule:nonzero;"/><path d="M1423.36,1542.65c-6.107,-0 -12.214,-2.291 -16.858,-6.934l-159.023,-159.023c-9.318,-9.319 -9.318,-24.426 0,-33.745c9.32,-9.319 24.395,-9.319 33.713,-0l159.023,159.023c9.32,9.319 9.32,24.426 0,33.745c-4.643,4.643 -10.748,6.934 -16.855,6.934Z" style="fill-rule:nonzero;"/><path d="M1264.33,1542.65c-6.107,-0 -12.214,-2.291 -16.858,-6.934c-9.318,-9.319 -9.318,-24.426 0,-33.745l159.023,-159.023c9.32,-9.319 24.396,-9.319 33.713,-0c9.32,9.319 9.32,24.426 0,33.745l-159.023,159.023c-4.643,4.643 -10.748,6.934 -16.855,6.934Z" style="fill-rule:nonzero;"/><path d="M564.535,1868.65c-193.213,0 -349.851,-156.638 -349.851,-349.851c0,-193.181 156.638,-349.851 349.851,-349.851c193.214,-0 349.851,156.67 349.851,349.851c0,193.213 -156.637,349.851 -349.851,349.851Z" style="fill:#fff;fill-rule:nonzero;"/><path d="M564.535,1542.65c-3.277,-0 -6.52,-0.669 -9.638,-2.036c-8.619,-3.785 -14.215,-12.372 -14.215,-21.818l-0,-349.66c-0,-13.167 10.686,-23.854 23.853,-23.854c13.167,0 23.854,10.687 23.854,23.854l-0,295.56l218.243,-199.383c9.7,-8.905 24.84,-8.206 33.713,1.495c8.873,9.732 8.205,24.839 -1.528,33.713l-258.189,235.863c-4.484,4.103 -10.242,6.266 -16.093,6.266Z" style="fill-rule:nonzero;"/><path d="M371.861,1834.49c-4.484,-0 -9.063,-1.241 -13.103,-3.912c-10.972,-7.251 -14.025,-22.041 -6.775,-33.045l192.641,-291.903c6.585,-9.987 19.56,-13.517 30.343,-8.301l314.644,153.044c11.829,5.788 16.76,20.068 11.002,31.932c-5.724,11.799 -20.035,16.761 -31.899,11.004l-295.783,-143.948l-181.128,274.443c-4.579,6.965 -12.181,10.686 -19.942,10.686Z" style="fill-rule:nonzero;"/><path d="M564.535,1192.8c-179.761,0 -325.997,146.238 -325.997,325.998c-0,179.792 146.236,325.998 325.997,325.998c179.759,-0 325.998,-146.206 325.998,-325.998c-0,-179.76 -146.239,-325.998 -325.998,-325.998Zm0,699.703c-206.062,-0 -373.704,-167.643 -373.704,-373.705c-0,-206.031 167.642,-373.705 373.704,-373.705c206.03,0 373.705,167.674 373.705,373.705c-0,206.062 -167.675,373.705 -373.705,373.705Z" style="fill-rule:nonzero;"/><path d="M673.879,1475.07c13.358,-0 26.27,1.939 38.611,5.12c-17.143,-65.804 -76.777,-114.401 -147.955,-114.401c-84.506,-0 -153.075,68.475 -153.075,153.012c-0,71.211 48.66,130.844 114.465,147.987c-3.213,-12.372 -5.09,-25.284 -5.09,-38.643c-0,-84.536 68.507,-153.075 153.044,-153.075Z" style="fill:#fff;fill-rule:nonzero;"/><path d="M564.535,1389.64c-71.242,0 -129.222,57.917 -129.222,129.159c0,71.274 57.98,129.222 129.222,129.222c71.242,0 129.191,-57.948 129.191,-129.222c0,-71.242 -57.949,-129.159 -129.191,-129.159Zm0,306.088c-97.545,0 -176.929,-79.384 -176.929,-176.929c0,-97.577 79.384,-176.866 176.929,-176.866c97.544,0 176.898,79.289 176.898,176.866c0,97.545 -79.354,176.929 -176.898,176.929Z" style="fill-rule:nonzero;"/><path d="M978.058,588.513l-254.437,0c-13.168,0 -23.854,-10.686 -23.854,-23.853c0,-13.168 10.686,-23.854 23.854,-23.854l254.437,0c13.167,0 23.853,10.686 23.853,23.854c0,13.167 -10.686,23.853 -23.853,23.853Z" style="fill-rule:nonzero;"/><path d="M596.402,588.513l-381.687,0c-13.167,0 -23.853,-10.686 -23.853,-23.853c-0,-13.168 10.686,-23.854 23.853,-23.854l381.687,0c13.167,0 23.853,10.686 23.853,23.854c0,13.167 -10.686,23.853 -23.853,23.853Z" style="fill-rule:nonzero;"/><path d="M978.058,429.49l-413.461,-0c-13.167,-0 -23.853,-10.686 -23.853,-23.854c-0,-13.167 10.686,-23.853 23.853,-23.853l413.461,-0c13.167,-0 23.853,10.686 23.853,23.853c0,13.168 -10.686,23.854 -23.853,23.854Z" style="fill-rule:nonzero;"/><path d="M978.058,747.536l-477.101,0c-13.167,0 -23.854,-10.686 -23.854,-23.853c0,-13.167 10.687,-23.854 23.854,-23.854l477.101,0c13.167,0 23.853,10.687 23.853,23.854c0,13.167 -10.686,23.853 -23.853,23.853Z" style="fill-rule:nonzero;"/><path d="M373.738,747.536l-159.023,0c-13.167,0 -23.853,-10.686 -23.853,-23.853c-0,-13.167 10.686,-23.854 23.853,-23.854l159.023,0c13.168,0 23.854,10.687 23.854,23.854c-0,13.167 -10.686,23.853 -23.854,23.853Z" style="fill-rule:nonzero;"/><path d="M978.058,906.56l-254.437,-0c-13.168,-0 -23.854,-10.687 -23.854,-23.854c0,-13.167 10.686,-23.853 23.854,-23.853l254.437,-0c13.167,-0 23.853,10.686 23.853,23.853c0,13.167 -10.686,23.854 -23.853,23.854Z" style="fill-rule:nonzero;"/><path d="M596.402,906.56l-381.687,-0c-13.167,-0 -23.853,-10.687 -23.853,-23.854c-0,-13.167 10.686,-23.853 23.853,-23.853l381.687,-0c13.167,-0 23.853,10.686 23.853,23.853c0,13.167 -10.686,23.854 -23.853,23.854Z" style="fill-rule:nonzero;"/><path d="M787.23,1065.65l-190.859,0c-13.167,0 -23.854,-10.686 -23.854,-23.853c0,-13.167 10.687,-23.854 23.854,-23.854l190.859,0c13.167,0 23.853,10.687 23.853,23.854c0,13.167 -10.686,23.853 -23.853,23.853Z" style="fill-rule:nonzero;"/><path d="M469.152,1065.65l-254.437,0c-13.167,0 -23.853,-10.686 -23.853,-23.853c-0,-13.167 10.686,-23.854 23.853,-23.854l254.437,0c13.167,0 23.854,10.687 23.854,23.854c-0,13.167 -10.687,23.853 -23.854,23.853Z" style="fill-rule:nonzero;"/><path d="M1709.6,1836.85c-0,35.176 28.465,63.609 63.609,63.609c35.112,-0 63.609,-28.433 63.609,-63.609c0,-35.081 -28.497,-63.61 -63.609,-63.61c-35.144,0 -63.609,28.529 -63.609,63.61Z" style="fill:#fff;fill-rule:nonzero;"/><path d="M1773.21,1797.09c-21.945,-0 -39.756,17.842 -39.756,39.756c0,21.945 17.811,39.755 39.756,39.755c21.912,0 39.756,-17.81 39.756,-39.755c-0,-21.914 -17.844,-39.756 -39.756,-39.756Zm-0,127.218c-48.249,0 -87.463,-39.183 -87.463,-87.462c0,-48.184 39.214,-87.463 87.463,-87.463c48.216,-0 87.463,39.279 87.463,87.463c-0,48.279 -39.247,87.462 -87.463,87.462Z" style="fill-rule:nonzero;"/><path d="M1932.26,1995.93c0,35.113 28.466,63.61 63.61,63.61c35.112,-0 63.609,-28.497 63.609,-63.61c-0,-35.144 -28.497,-63.609 -63.609,-63.609c-35.144,0 -63.61,28.465 -63.61,63.609Z" style="fill:#fff;fill-rule:nonzero;"/><path d="M1995.87,1956.18c-21.946,-0 -39.756,17.842 -39.756,39.755c-0,21.946 17.81,39.756 39.756,39.756c21.914,0 39.755,-17.81 39.755,-39.756c0,-21.913 -17.841,-39.755 -39.755,-39.755Zm-0,127.218c-48.247,0 -87.463,-39.247 -87.463,-87.463c-0,-48.247 39.216,-87.462 87.463,-87.462c48.215,-0 87.462,39.215 87.462,87.462c0,48.216 -39.247,87.463 -87.462,87.463Z" style="fill-rule:nonzero;"/><path d="M1932.26,278.291c0,35.175 28.466,63.609 63.61,63.609c35.112,-0 63.609,-28.434 63.609,-63.609c-0,-35.145 -28.497,-63.61 -63.609,-63.61c-35.144,0 -63.61,28.465 -63.61,63.61Z" style="fill:#fff;fill-rule:nonzero;"/><path d="M1995.87,238.535c-21.946,-0 -39.756,17.842 -39.756,39.756c-0,21.944 17.81,39.755 39.756,39.755c21.914,0 39.755,-17.811 39.755,-39.755c0,-21.914 -17.841,-39.756 -39.755,-39.756Zm-0,127.218c-48.247,0 -87.463,-39.247 -87.463,-87.462c-0,-48.248 39.216,-87.463 87.463,-87.463c48.215,-0 87.462,39.215 87.462,87.463c0,48.215 -39.247,87.462 -87.462,87.462Z" style="fill-rule:nonzero;"/><path d="M1709.6,87.463c-0,35.112 28.465,63.609 63.609,63.609c35.112,0 63.609,-28.497 63.609,-63.609c0,-35.145 -28.497,-63.61 -63.609,-63.61c-35.144,0 -63.609,28.465 -63.609,63.61Z" style="fill:#fff;fill-rule:nonzero;"/><path d="M1773.21,47.707c-21.945,-0 -39.756,17.842 -39.756,39.756c0,21.945 17.811,39.756 39.756,39.756c21.912,-0 39.756,-17.811 39.756,-39.756c-0,-21.914 -17.844,-39.756 -39.756,-39.756Zm-0,127.219c-48.249,-0 -87.463,-39.248 -87.463,-87.463c0,-48.248 39.214,-87.463 87.463,-87.463c48.216,0 87.463,39.215 87.463,87.463c-0,48.215 -39.247,87.463 -87.463,87.463Z" style="fill-rule:nonzero;"/></g></g></svg>