<?xml version="1.0" encoding="UTF-8" standalone="no"?><!DOCTYPE svg PUBLIC "-//W3C//DTD SVG 1.1//EN" "http://www.w3.org/Graphics/SVG/1.1/DTD/svg11.dtd"><svg width="100%" height="100%" viewBox="0 0 2084 2084" version="1.1" xmlns="http://www.w3.org/2000/svg" xmlns:xlink="http://www.w3.org/1999/xlink" xml:space="preserve" xmlns:serif="http://www.serif.com/" style="fill-rule:evenodd;clip-rule:evenodd;stroke-linejoin:round;stroke-miterlimit:2;"><rect id="画板1" x="0" y="0" width="2083.33" height="2083.33" style="fill:none;"/><g id="画板11" serif:id="画板1"><g><path d="M2020.18,1845.24c-0,96.445 -78.497,174.851 -174.942,174.851l-1607.05,0c-96.542,0 -175.039,-78.406 -175.039,-174.851l0,-203.031l1957.03,0l-0,203.031Zm-1781.99,-1782.18l1607.05,-0c96.445,-0 174.942,78.496 174.942,174.942l-0,629.089l-375.373,0c47.434,-85.938 77.662,-176.617 77.662,-268.879c0,-209.819 -170.758,-380.487 -380.487,-380.487c-117.557,0 -228.7,55.523 -300.226,147.416c-71.61,-91.893 -182.849,-147.416 -300.407,-147.416c-209.819,0 -380.487,170.668 -380.487,380.487c0,92.262 30.228,182.941 77.753,268.879l-375.464,0l0,-629.089c0,-96.446 78.497,-174.942 175.039,-174.942Zm273.716,804.031c-53.105,-86.398 -87.891,-177.547 -87.891,-268.879c-0,-175.039 142.392,-317.335 317.334,-317.335c111.518,0 216.149,59.895 273.16,156.437c11.438,19.159 43.063,19.159 54.41,-0c56.92,-96.542 161.551,-156.437 273.063,-156.437c174.942,0 317.335,142.296 317.335,317.335c-0,91.332 -34.781,182.481 -87.892,268.879l-101.469,0l-57.476,-126.112c-5.206,-11.256 -16.371,-18.511 -28.741,-18.511l-0.465,-0c-12.46,0.187 -23.712,7.72 -28.645,19.255l-49.108,116.161l-74.494,-245.719c-4.184,-13.675 -16.275,-22.229 -31.159,-22.417c-14.135,0.375 -26.317,10.23 -29.763,23.996l-96.815,390.534l-79.989,-323.664c-3.344,-13.391 -15.066,-23.251 -29.013,-23.995c-13.488,-0.369 -26.51,7.72 -31.25,20.833l-85.104,234.564l-103.326,-441.59c-3.349,-14.232 -16.093,-24.183 -30.694,-24.279l-0.096,-0c-14.601,-0 -27.339,9.951 -30.688,24.182l-94.215,396.762l-77.009,0Zm101.935,63.062c14.691,0 27.435,-10.048 30.784,-24.182l69.011,-290.74l97.099,414.717c3.162,13.579 14.878,23.53 28.922,24.364c13.579,0.744 26.692,-7.624 31.528,-20.833l85.751,-236.886l85.661,346.729c3.53,13.947 16.087,23.807 30.597,23.807c14.509,0 27.157,-9.86 30.693,-23.807l99.983,-403.274l66.683,219.584c3.905,12.744 15.344,21.577 28.644,22.326c13.21,0.647 25.488,-6.977 30.603,-19.255l55.057,-130.114l35.996,79.053c5.205,11.347 16.366,18.511 28.735,18.511l79.24,0c-160.433,218.561 -419.639,394.622 -487.072,438.332c-67.614,-43.801 -326.911,-219.68 -487.253,-438.332l59.338,0Zm-550.69,0l414.065,0c185.172,278.177 528.273,490.512 548.078,502.694l16.462,4.558l16.372,-4.558c19.811,-12.182 362.816,-224.517 547.993,-502.694l414.059,0l-0,648.992l-1957.03,-0l0,-648.992Zm1782.09,-930.155l-1607.05,0c-131.329,0 -238.191,106.772 -238.191,238.004l-0,1607.24c-0,131.135 106.862,237.998 238.191,237.998l1607.05,-0c131.232,-0 238.094,-106.863 238.094,-237.998l0,-1607.24c0,-131.232 -106.862,-238.004 -238.094,-238.004Z" style="fill:#0b0b16;fill-rule:nonzero;"/><path d="M358.354,1783.85c26.135,-0 47.434,21.207 47.434,47.343c-0,26.038 -21.299,47.337 -47.434,47.337c-26.044,-0 -47.343,-21.299 -47.343,-47.337c0,-26.136 21.299,-47.343 47.343,-47.343Zm0,157.832c60.916,0 110.49,-49.664 110.49,-110.489c-0,-60.922 -49.574,-110.49 -110.49,-110.49c-60.825,-0 -110.49,49.568 -110.49,110.49c0,60.825 49.665,110.489 110.49,110.489Z" style="fill:#0b0b16;fill-rule:nonzero;"/><path d="M737.167,1783.85c26.135,-0 47.337,21.207 47.337,47.343c0,26.038 -21.202,47.337 -47.337,47.337c-26.045,-0 -47.343,-21.299 -47.343,-47.337c-0,-26.136 21.298,-47.343 47.343,-47.343Zm-0,157.832c60.916,0 110.49,-49.664 110.49,-110.489c-0,-60.922 -49.574,-110.49 -110.49,-110.49c-60.922,-0 -110.399,49.568 -110.399,110.49c-0,60.825 49.477,110.489 110.399,110.489Z" style="fill:#0b0b16;fill-rule:nonzero;"/><path d="M1494.88,1783.85l230.096,-0c26.135,-0 47.343,21.207 47.343,47.343c0,26.038 -21.208,47.337 -47.343,47.337l-230.096,-0c-26.135,-0 -47.434,-21.299 -47.434,-47.337c-0,-26.136 21.299,-47.343 47.434,-47.343Zm-0,157.832l230.096,0c60.825,0 110.399,-49.664 110.399,-110.489c0,-60.922 -49.574,-110.49 -110.399,-110.49l-230.096,-0c-60.916,-0 -110.49,49.568 -110.49,110.49c0,60.825 49.574,110.489 110.49,110.489Z" style="fill:#0b0b16;fill-rule:nonzero;"/><path d="M1116.07,1783.85c26.135,-0 47.343,21.207 47.343,47.343c0,26.038 -21.208,47.337 -47.343,47.337c-26.135,-0 -47.434,-21.299 -47.434,-47.337c0,-26.136 21.299,-47.343 47.434,-47.343Zm0,157.832c60.922,0 110.399,-49.664 110.399,-110.489c0,-60.922 -49.477,-110.49 -110.399,-110.49c-60.916,-0 -110.49,49.568 -110.49,110.49c0,60.825 49.574,110.489 110.49,110.489Z" style="fill:#0b0b16;fill-rule:nonzero;"/></g></g></svg>