<?xml version="1.0" encoding="UTF-8" standalone="no"?><!DOCTYPE svg PUBLIC "-//W3C//DTD SVG 1.1//EN" "http://www.w3.org/Graphics/SVG/1.1/DTD/svg11.dtd"><svg width="100%" height="100%" viewBox="0 0 2084 2084" version="1.1" xmlns="http://www.w3.org/2000/svg" xmlns:xlink="http://www.w3.org/1999/xlink" xml:space="preserve" xmlns:serif="http://www.serif.com/" style="fill-rule:evenodd;clip-rule:evenodd;stroke-linejoin:round;stroke-miterlimit:2;"><rect id="画板1" x="0" y="0" width="2083.33" height="2083.33" style="fill:none;"/><clipPath id="_clip1"><rect id="画板11" serif:id="画板1" x="0" y="0" width="2083.33" height="2083.33"/></clipPath><g clip-path="url(#_clip1)"><g><path d="M1958.52,1774.55l-184.059,183.968c-83.98,83.98 -220.793,83.98 -304.869,0l-1344.87,-1344.96c-40.735,-40.735 -63.152,-94.771 -63.152,-152.338c-0,-57.669 22.417,-111.795 63.152,-152.531l183.968,-183.968c42.036,-42.132 97.281,-63.056 152.435,-63.056c55.245,0 110.49,20.924 152.531,63.056l1344.86,1344.87c84.076,84.167 84.076,220.792 -0,304.965Zm-1344.86,183.968c-84.077,83.98 -220.889,84.077 -304.966,0l-183.968,-183.968c-40.735,-40.832 -63.152,-94.868 -63.152,-152.434c-0,-57.663 22.417,-111.796 63.152,-152.531l384.393,-384.393l488.933,488.837l-384.392,384.489Zm855.933,-1833.8c42.035,-42.132 97.189,-63.056 152.434,-63.056c55.245,0 110.49,20.924 152.435,63.056l184.059,183.968c84.076,84.077 84.076,220.889 -0,304.869l-384.393,384.489l-488.928,-488.933l384.393,-384.393Zm148.063,916.855l384.484,-384.393c52.27,-52.367 81.198,-121.934 81.198,-195.963c0,-74.131 -28.928,-143.698 -81.198,-196.15l-184.059,-183.877c-52.361,-52.452 -121.928,-81.193 -196.054,-81.193c-74.034,-0 -143.601,28.741 -195.963,81.193l-384.392,384.398l-384.49,-384.398c-108.071,-108.072 -283.944,-108.072 -392.016,-0l-184.059,183.877c-52.361,52.452 -81.102,122.019 -81.102,196.15c0,74.029 28.741,143.596 81.102,195.963l384.484,384.393l-384.484,384.483c-52.361,52.362 -81.102,121.934 -81.102,196.06c0,74.029 28.741,143.596 81.102,196.053l184.059,183.872c54.036,54.036 124.999,81.102 195.963,81.102c71.054,0 142.018,-27.066 196.053,-81.102l384.49,-384.484l384.392,384.484c52.362,52.458 121.929,81.193 195.963,81.193c74.126,-0 143.693,-28.735 196.054,-81.193l184.059,-183.872c52.27,-52.457 81.198,-122.024 81.198,-196.053c0,-74.126 -28.928,-143.698 -81.198,-196.06l-384.484,-384.483Z" style="fill:#0b0b16;fill-rule:nonzero;"/><path d="M601.189,905.973l-9.208,21.855l9.208,21.951l21.577,8.929l21.86,-9.207l9.208,-21.673l-9.208,-21.855c-11.444,-11.348 -31.999,-11.348 -43.437,-0Z" style="fill:#0b0b16;fill-rule:nonzero;"/><path d="M804.503,702.755c-12.001,11.995 -12.001,31.341 -0,43.619l21.577,9.111l21.855,-9.111c11.994,-12.278 11.994,-31.624 -0,-43.619c-12.001,-12.091 -31.437,-12.091 -43.432,0Z" style="fill:#0b0b16;fill-rule:nonzero;"/><path d="M746.278,847.747c12,-11.716 12,-31.249 -0,-43.431c-11.995,-11.995 -31.437,-11.995 -43.432,-0c-12.001,12.182 -12.001,31.715 -0,43.431l21.577,9.304l21.855,-9.304Z" style="fill:#0b0b16;fill-rule:nonzero;"/><path d="M927.731,653.737l21.861,-8.923l8.929,-21.861l-8.929,-21.855c-11.444,-11.348 -31.994,-11.348 -43.529,-0l-8.838,21.855l8.838,21.861l21.668,8.923Z" style="fill:#0b0b16;fill-rule:nonzero;"/><path d="M470.888,775.762l-9.208,21.855l9.208,21.486l21.576,9.304l21.861,-9.304l8.924,-21.486l-8.924,-21.855c-11.347,-11.438 -32.368,-11.438 -43.437,0Z" style="fill:#0b0b16;fill-rule:nonzero;"/><path d="M717.633,615.886c11.995,-11.995 11.995,-31.438 0,-43.529c-12,-11.994 -31.437,-11.994 -43.431,0c-12.001,12.091 -12.001,31.534 -0,43.529l21.576,8.838l21.855,-8.838Z" style="fill:#0b0b16;fill-rule:nonzero;"/><path d="M615.976,717.543c12.001,-12.001 12.001,-31.438 0,-43.438c-11.994,-11.995 -31.437,-11.995 -43.71,0c-11.722,12 -11.722,31.437 0,43.438l21.855,9.207l21.855,-9.207Z" style="fill:#0b0b16;fill-rule:nonzero;"/><path d="M797.43,523.533l21.86,-9.395l8.93,-21.39l-8.93,-21.951c-11.444,-11.439 -32.089,-11.439 -43.437,-0l-9.298,21.951l9.298,21.855l21.577,8.93Z" style="fill:#0b0b16;fill-rule:nonzero;"/><path d="M340.308,645.461l-8.929,21.855l8.929,21.486l21.855,9.02l21.861,-9.02l8.923,-21.486l-8.923,-21.855c-11.444,-11.439 -32.09,-11.717 -43.716,-0Z" style="fill:#0b0b16;fill-rule:nonzero;"/><path d="M587.332,485.584c12.001,-12.091 12.001,-31.528 0,-43.432c-12,-12 -31.437,-12 -43.716,0c-12.085,11.904 -12.085,31.341 0,43.432l21.861,9.208l21.855,-9.208Z" style="fill:#0b0b16;fill-rule:nonzero;"/><path d="M485.675,587.241c12.001,-12.091 12.001,-31.437 0,-43.528c-11.995,-11.995 -31.715,-11.995 -43.806,-0c-11.995,12.091 -11.995,31.437 -0,43.528l21.951,8.93l21.855,-8.93Z" style="fill:#0b0b16;fill-rule:nonzero;"/><path d="M667.129,393.135l21.86,-9.208l8.93,-21.577l-8.93,-21.855c-11.444,-11.716 -32.368,-11.347 -43.715,0l-8.93,21.855l8.93,21.577l21.855,9.208Z" style="fill:#0b0b16;fill-rule:nonzero;"/><path d="M210.007,515.16l-9.02,21.576l9.02,21.861l21.855,8.833l21.861,-8.833l9.02,-21.861l-9.02,-21.855c-11.348,-11.16 -32,-11.438 -43.716,0.279Z" style="fill:#0b0b16;fill-rule:nonzero;"/><path d="M355.374,456.94c12,-12 12,-31.437 -0,-43.528c-11.995,-12.279 -31.715,-12.279 -43.71,-0c-12.091,12.091 -12.091,31.528 -0,43.528l21.855,8.833l21.855,-8.833Z" style="fill:#0b0b16;fill-rule:nonzero;"/><path d="M457.031,355.283c12,-11.995 12,-31.437 -0,-43.432c-12.001,-12.091 -31.715,-12.091 -43.71,0c-12.001,11.995 -12.001,31.437 -0,43.432l21.855,8.929l21.855,-8.929Z" style="fill:#0b0b16;fill-rule:nonzero;"/><path d="M536.827,262.555l21.861,-8.929l8.929,-21.855l-8.929,-21.668c-11.348,-11.347 -32.368,-11.347 -43.716,0l-8.929,21.668l8.929,21.855l21.855,8.929Z" style="fill:#0b0b16;fill-rule:nonzero;"/><path d="M1524.74,1829.52l-9.02,21.855l9.02,21.764l21.764,9.02l21.577,-9.02l9.304,-21.764l-9.304,-21.855c-11.063,-11.348 -31.993,-11.348 -43.341,0Z" style="fill:#0b0b16;fill-rule:nonzero;"/><path d="M1626.3,1727.96c-12,11.904 -12,31.341 0,43.711l21.855,8.838l21.577,-8.838c11.995,-12.37 11.995,-31.807 0,-43.711c-12,-12.091 -31.34,-12.091 -43.432,0Z" style="fill:#0b0b16;fill-rule:nonzero;"/><path d="M1727.95,1626.21c-11.995,12 -11.995,31.437 -0,43.528l21.86,9.02l21.577,-9.02c11.995,-12.091 11.995,-31.528 0,-43.528c-12,-11.995 -31.437,-11.995 -43.437,-0Z" style="fill:#0b0b16;fill-rule:nonzero;"/><path d="M1829.61,1524.56l-8.93,21.855l8.93,21.855l21.951,9.025l21.481,-9.025l9.304,-21.855l-9.304,-21.855c-11.342,-11.439 -31.994,-11.439 -43.432,-0Z" style="fill:#0b0b16;fill-rule:nonzero;"/><path d="M1394.34,1699.13l-8.838,21.946l8.838,21.577l21.855,9.304l21.577,-9.304l8.929,-21.577l-8.929,-21.946c-11.348,-11.348 -32.272,-11.348 -43.432,-0Z" style="fill:#0b0b16;fill-rule:nonzero;"/><path d="M1539.43,1640.9c12,-11.904 12,-31.341 0,-43.432c-12,-11.904 -31.341,-11.904 -43.432,-0c-12,12.091 -12,31.528 0,43.432l21.577,9.395l21.855,-9.395Z" style="fill:#0b0b16;fill-rule:nonzero;"/><path d="M1641.09,1539.62c12.091,-12.278 12.091,-31.624 0,-43.71c-12,-12 -31.437,-12 -43.341,0c-12.091,12.086 -12.091,31.432 0,43.71l21.48,9.021l21.861,-9.021Z" style="fill:#0b0b16;fill-rule:nonzero;"/><path d="M1742.74,1438.06l8.93,-21.952l-8.93,-21.855c-11.341,-11.438 -31.993,-11.438 -43.71,0l-8.929,21.855l9.208,21.952l21.576,8.833l21.855,-8.833Z" style="fill:#0b0b16;fill-rule:nonzero;"/><path d="M1263.77,1568.92l-8.93,21.765l9.208,21.667l21.668,9.208l21.764,-9.208l8.929,-21.667l-8.929,-21.765c-11.626,-11.347 -31.716,-11.716 -43.71,0Z" style="fill:#0b0b16;fill-rule:nonzero;"/><path d="M1510.79,1409.04c11.994,-12 11.994,-31.437 -0,-43.432c-12.001,-12.091 -31.347,-12.091 -43.716,0c-11.995,11.995 -11.995,31.432 0,43.432l21.855,9.298l21.861,-9.298Z" style="fill:#0b0b16;fill-rule:nonzero;"/><path d="M1409.13,1510.79c12,-12.091 12,-31.528 -0,-43.529c-12.001,-11.994 -31.341,-11.994 -43.71,0c-12.001,12.001 -12.001,31.438 -0,43.529l21.855,9.02l21.855,-9.02Z" style="fill:#0b0b16;fill-rule:nonzero;"/><path d="M1590.59,1316.69l21.855,-9.395l8.929,-21.486l-8.929,-21.855c-11.342,-11.348 -32.084,-11.626 -43.71,0l-8.929,21.855l9.207,21.486l21.577,9.395Z" style="fill:#0b0b16;fill-rule:nonzero;"/><path d="M1133.46,1438.53l-8.929,21.577c0,8.464 3.349,16.088 9.208,21.855l21.576,9.02l21.952,-9.02c5.484,-5.489 8.833,-13.391 8.833,-21.855l-8.833,-21.577c-11.535,-11.722 -32.09,-11.722 -43.807,0Z" style="fill:#0b0b16;fill-rule:nonzero;"/><path d="M1380.49,1278.83c11.995,-12.091 11.995,-31.437 0,-43.522c-12,-11.91 -31.715,-11.91 -43.715,-0c-11.995,12.085 -11.995,31.431 -0,43.522l21.855,8.839l21.86,-8.839Z" style="fill:#0b0b16;fill-rule:nonzero;"/><path d="M1278.83,1380.3c12.001,-11.904 12.001,-31.25 0,-43.341c-12,-11.995 -31.715,-11.995 -43.71,0c-12,12.091 -12,31.437 0,43.341l21.855,9.02l21.855,-9.02Z" style="fill:#0b0b16;fill-rule:nonzero;"/><path d="M1460.28,1186.01l21.855,-8.929l8.929,-21.855l-8.929,-21.577c-11.342,-11.723 -32.363,-11.723 -43.71,-0l-8.93,21.577l8.93,21.855l21.855,8.929Z" style="fill:#0b0b16;fill-rule:nonzero;"/><path d="M1264.04,470.797l-9.208,21.951l9.208,21.855l21.668,8.93l21.764,-9.395l8.929,-21.39l-8.929,-21.951c-11.348,-11.439 -31.994,-11.439 -43.432,-0Z" style="fill:#0b0b16;fill-rule:nonzero;"/><path d="M1467.07,674.105c-11.995,12 -11.995,31.437 0,43.438l21.855,9.207l21.861,-9.207c11.994,-12.001 11.994,-31.438 -0,-43.438c-12.001,-11.995 -31.347,-11.995 -43.716,0Z" style="fill:#0b0b16;fill-rule:nonzero;"/><path d="M1365.42,572.357c-11.723,12.091 -11.723,31.534 -0,43.529l21.855,9.207l21.855,-9.207c12,-11.995 12,-31.438 -0,-43.529c-12.001,-11.994 -31.341,-11.994 -43.71,0Z" style="fill:#0b0b16;fill-rule:nonzero;"/><path d="M1590.59,828.407l21.855,-9.304l8.929,-21.486l-8.929,-21.855c-11.342,-11.438 -32.362,-11.438 -43.71,0l-8.929,21.855l9.207,21.486l21.577,9.304Z" style="fill:#0b0b16;fill-rule:nonzero;"/><path d="M1394.34,340.495l-9.207,21.855l9.207,21.577l21.577,9.208l21.855,-9.208l8.929,-21.577l-8.929,-21.855c-11.348,-11.347 -31.993,-11.347 -43.432,0Z" style="fill:#0b0b16;fill-rule:nonzero;"/><path d="M1496,442.152c-12,11.904 -12,31.341 0,43.432l21.577,9.208l21.855,-9.208c12,-12.091 12,-31.528 0,-43.432c-12,-12 -31.341,-12 -43.432,0Z" style="fill:#0b0b16;fill-rule:nonzero;"/><path d="M1619.23,596.171l21.861,-8.93c12.091,-12.091 12.091,-31.437 0,-43.528c-12,-11.995 -31.437,-11.995 -43.341,-0c-12.091,12.091 -12.091,31.437 0,43.528l21.48,8.93Z" style="fill:#0b0b16;fill-rule:nonzero;"/><path d="M1720.89,697.822l21.855,-9.02l8.93,-21.486l-8.93,-21.855c-11.341,-11.439 -31.993,-11.717 -43.71,-0l-8.651,21.855l8.93,21.486l21.576,9.02Z" style="fill:#0b0b16;fill-rule:nonzero;"/><path d="M1546.5,262.555l21.577,-8.929l9.304,-21.855l-9.304,-21.668c-11.347,-11.625 -32.271,-11.347 -43.341,0l-9.02,21.668l9.02,21.855l21.764,8.929Z" style="fill:#0b0b16;fill-rule:nonzero;"/><path d="M1647.88,364.212l21.855,-8.929c11.995,-11.995 11.995,-31.437 0,-43.432c-12,-12.091 -31.34,-12.091 -43.432,0c-12,11.995 -12,31.437 0,43.432l21.577,8.929Z" style="fill:#0b0b16;fill-rule:nonzero;"/><path d="M1749.53,465.773l21.86,-8.833c11.995,-12 11.995,-31.437 0,-43.528c-12,-12.279 -31.437,-12.279 -43.437,-0c-11.995,12.091 -11.995,31.528 -0,43.528l21.577,8.833Z" style="fill:#0b0b16;fill-rule:nonzero;"/><path d="M1851.56,567.43l21.481,-8.833l9.304,-21.861l-9.304,-21.576c-11.342,-11.439 -31.994,-11.717 -43.432,-0l-8.93,21.576l8.93,21.861l21.951,8.833Z" style="fill:#0b0b16;fill-rule:nonzero;"/><path d="M210.007,1524.56l-9.02,21.855l9.02,21.855l21.855,9.025l21.861,-9.025l9.02,-21.855l-9.02,-21.855c-11.348,-11.439 -32,-11.439 -43.716,-0Z" style="fill:#0b0b16;fill-rule:nonzero;"/><path d="M413.321,1727.96c-12.001,11.904 -12.001,31.341 -0,43.711l21.855,8.838l21.855,-8.838c12,-12.37 12,-31.807 -0,-43.711c-12.001,-12.091 -31.715,-12.091 -43.71,0Z" style="fill:#0b0b16;fill-rule:nonzero;"/><path d="M311.664,1626.21c-12.091,12 -12.091,31.437 -0,43.716l21.855,8.832l21.855,-8.832c12,-12.279 12,-31.716 -0,-43.716c-11.995,-11.995 -31.715,-11.995 -43.71,-0Z" style="fill:#0b0b16;fill-rule:nonzero;"/><path d="M515.25,1829.52l-9.207,21.855l8.929,21.764l21.855,9.02l21.861,-9.02l8.929,-21.764l-8.929,-21.855c-11.348,-11.348 -32.368,-11.348 -43.438,0Z" style="fill:#0b0b16;fill-rule:nonzero;"/><path d="M340.586,1394.25l-9.207,21.855l9.207,21.952l21.577,8.833l21.861,-9.111l8.923,-21.674l-8.923,-21.855c-11.444,-11.438 -32.09,-11.438 -43.438,0Z" style="fill:#0b0b16;fill-rule:nonzero;"/><path d="M442.243,1495.91c-12.369,12.086 -12.369,31.432 0,43.71l21.577,9.021l21.855,-9.021c12.001,-12.278 12.001,-31.624 0,-43.71c-11.995,-12 -31.437,-12 -43.432,0Z" style="fill:#0b0b16;fill-rule:nonzero;"/><path d="M565.477,1650.3l21.855,-9.395c12.001,-11.904 12.001,-31.341 0,-43.432c-12,-11.904 -31.437,-11.904 -43.716,-0c-12.085,12.091 -12.085,31.528 0,43.432l21.861,9.395Z" style="fill:#0b0b16;fill-rule:nonzero;"/><path d="M667.129,1751.95l21.86,-9.304l8.93,-21.577l-8.93,-21.946c-11.444,-11.348 -32.368,-11.348 -43.715,-0l-8.93,21.946l8.93,21.577l21.855,9.304Z" style="fill:#0b0b16;fill-rule:nonzero;"/><path d="M470.888,1263.95l-9.208,21.855l9.208,21.486l21.576,9.395l21.861,-9.395l8.924,-21.486l-8.924,-21.855c-11.347,-11.348 -32.09,-11.626 -43.437,0Z" style="fill:#0b0b16;fill-rule:nonzero;"/><path d="M594.121,1418.34l21.855,-9.298c12.001,-12 12.001,-31.437 0,-43.432c-11.994,-12.091 -31.437,-12.091 -43.431,0c-12.001,11.995 -12.001,31.432 -0,43.432l21.576,9.298Z" style="fill:#0b0b16;fill-rule:nonzero;"/><path d="M695.778,1519.81l21.855,-9.02c11.995,-12.091 11.995,-31.528 0,-43.529c-12,-11.994 -31.437,-11.994 -43.431,0c-12.001,12.001 -12.001,31.438 -0,43.529l21.576,9.02Z" style="fill:#0b0b16;fill-rule:nonzero;"/><path d="M797.43,1621.56l21.86,-9.208l8.93,-21.667l-8.93,-21.765c-11.444,-11.347 -32.089,-11.347 -43.437,0l-9.298,21.765l9.298,21.667l21.577,9.208Z" style="fill:#0b0b16;fill-rule:nonzero;"/><path d="M1041.67,1302.92l-261.443,-261.346l261.443,-261.346l261.346,261.346l-261.346,261.346Zm326.633,-283.11l-304.966,-304.966c-11.994,-12 -31.437,-12 -43.522,0l-304.971,304.966c-11.995,11.994 -11.995,31.528 -0,43.528l304.971,305.056l21.855,8.93l21.667,-8.93l304.966,-305.056c12.091,-12 12.091,-31.534 -0,-43.528Z" style="fill:#0b0b16;fill-rule:nonzero;"/></g></g></svg>