<?xml version="1.0" encoding="UTF-8" standalone="no"?><!DOCTYPE svg PUBLIC "-//W3C//DTD SVG 1.1//EN" "http://www.w3.org/Graphics/SVG/1.1/DTD/svg11.dtd"><svg width="100%" height="100%" viewBox="0 0 2084 2084" version="1.1" xmlns="http://www.w3.org/2000/svg" xmlns:xlink="http://www.w3.org/1999/xlink" xml:space="preserve" xmlns:serif="http://www.serif.com/" style="fill-rule:evenodd;clip-rule:evenodd;stroke-linejoin:round;stroke-miterlimit:2;"><rect id="画板1" x="0" y="0" width="2083.33" height="2083.33" style="fill:none;"/><clipPath id="_clip1"><rect id="画板11" serif:id="画板1" x="0" y="0" width="2083.33" height="2083.33"/></clipPath><g clip-path="url(#_clip1)"><g><path d="M1861.41,1850.81l-1470.03,-0l-0,-1787.74l1163,-0l0,275.306c0,17.485 14.232,31.529 31.621,31.529l275.403,0l-0,1480.91Zm-169.461,169.376l-1470.03,-0l-0,-1787.56l106.311,-0l-0,1649.72c-0,17.388 14.135,31.62 31.62,31.62l1332.09,0l-0,106.221Zm124.817,-1713.34l-199.133,-0l-0,-199.134l199.133,199.134Zm107.333,29.576l-1.674,-8.368l-1.022,-2.98l-6.046,-8.833l-0.187,-0.278l-307.024,-306.938l-8.838,-5.95l-2.975,-1.022l-8.368,-1.674l-1.958,-0.375l-1226.15,-0c-17.485,-0 -31.62,14.141 -31.62,31.529l-0,137.847l-137.841,-0c-17.49,-0 -31.535,14.039 -31.535,31.529l0,1850.81c0,17.576 14.045,31.62 31.535,31.62l1533.17,0c17.394,0 31.439,-14.044 31.439,-31.62l-0,-137.75l137.84,0c17.394,0 31.626,-14.232 31.626,-31.62l0,-1543.97l-0.375,-1.953Z" style="fill:#0b0b16;fill-rule:nonzero;"/><path d="M1157.51,336.605l244.617,0c17.394,0 31.439,-14.231 31.439,-31.529c0,-17.581 -14.045,-31.717 -31.439,-31.717l-244.617,0c-17.575,0 -31.62,14.136 -31.62,31.717c0,17.298 14.045,31.529 31.62,31.529Z" style="fill:#0b0b16;fill-rule:nonzero;"/><path d="M1125.89,503.744c0,17.394 14.045,31.53 31.62,31.53l510.443,-0c17.394,-0 31.621,-14.136 31.621,-31.53c-0,-17.581 -14.227,-31.625 -31.621,-31.625l-510.443,-0c-17.575,-0 -31.62,14.044 -31.62,31.625Z" style="fill:#0b0b16;fill-rule:nonzero;"/><path d="M1667.95,670.793l-510.443,-0c-17.575,-0 -31.62,14.044 -31.62,31.433c0,17.49 14.045,31.626 31.62,31.626l510.443,-0c17.394,-0 31.621,-14.136 31.621,-31.626c-0,-17.389 -14.227,-31.433 -31.621,-31.433Z" style="fill:#0b0b16;fill-rule:nonzero;"/><path d="M1269.22,1631.49l0,-125.936l364.877,-0l-0,125.936l-364.877,-0Zm-645.309,-125.936l149.654,-0l0,125.936l-149.654,-0l0,-125.936Zm149.654,-588.569l0,125.936l-149.654,0l0,-125.936l149.654,-0Zm860.532,125.936l-364.877,0l0,-125.936l364.877,-0l-0,125.936Zm-364.877,262.942l364.877,0l-0,136.444l-364.877,0l0,-136.444Zm-645.309,0l149.654,0l0,136.444l-149.654,0l0,-136.444Zm149.654,-63.155l-149.654,-0l0,-136.632l149.654,0l0,136.632Zm495.655,-136.632l364.877,0l-0,136.632l-364.877,-0l0,-136.632Zm-432.59,-63.155l-0,-125.936l369.338,-0l0,125.936l-369.338,0Zm369.338,63.155l0,136.632l-369.338,-0l-0,-136.632l369.338,0Zm0,399.478l0,125.936l-369.338,-0l-0,-125.936l369.338,-0Zm-369.338,-63.247l-0,-136.444l369.338,0l0,136.444l-369.338,0Zm862.944,-367.856l-2.419,-11.252l0,-177.834c0,-17.394 -14.135,-31.535 -31.342,-31.535l-1073.43,-0c-17.485,-0 -31.621,14.141 -31.621,31.535l0,777.751c0,17.388 14.136,31.529 31.621,31.529l1073.43,0c17.207,0 31.342,-14.141 31.342,-31.529l0,-177.744l2.419,-11.444l-2.419,-11.252l0,-177.091l2.419,-11.257l-2.419,-11.439l0,-177.09l2.419,-11.348Z" style="fill:#0b0b16;fill-rule:nonzero;"/><path d="M790.958,336.605c92.079,0 167.048,74.873 167.048,167.139c0,91.989 -74.969,167.049 -167.048,167.049c-92.079,-0 -167.048,-75.06 -167.048,-167.049c0,-92.266 74.969,-167.139 167.048,-167.139Zm0,397.247c126.958,-0 230.295,-103.24 230.295,-230.108c-0,-127.054 -103.337,-230.385 -230.295,-230.385c-126.867,0 -230.198,103.331 -230.198,230.385c0,126.868 103.331,230.108 230.198,230.108Z" style="fill:#0b0b16;fill-rule:nonzero;"/><path d="M699.623,535.274l59.806,-0l-0,59.715c-0,17.576 14.135,31.62 31.529,31.62c17.485,0 31.53,-14.044 31.53,-31.62l-0,-59.715l59.993,-0c17.297,-0 31.529,-14.136 31.529,-31.53c0,-17.581 -14.232,-31.625 -31.529,-31.625l-59.993,-0l-0,-59.897c-0,-17.394 -14.045,-31.53 -31.53,-31.53c-17.394,0 -31.529,14.136 -31.529,31.53l-0,59.897l-59.806,-0c-17.582,-0 -31.626,14.044 -31.626,31.625c-0,17.394 14.044,31.53 31.626,31.53Z" style="fill:#0b0b16;fill-rule:nonzero;"/></g></g></svg>