<?xml version="1.0" encoding="UTF-8" standalone="no"?><!DOCTYPE svg PUBLIC "-//W3C//DTD SVG 1.1//EN" "http://www.w3.org/Graphics/SVG/1.1/DTD/svg11.dtd"><svg width="100%" height="100%" viewBox="0 0 2084 2084" version="1.1" xmlns="http://www.w3.org/2000/svg" xmlns:xlink="http://www.w3.org/1999/xlink" xml:space="preserve" xmlns:serif="http://www.serif.com/" style="fill-rule:evenodd;clip-rule:evenodd;stroke-linejoin:round;stroke-miterlimit:2;"><rect id="画板1" x="0" y="0" width="2083.33" height="2083.33" style="fill:none;"/><g id="画板11" serif:id="画板1"><g><path d="M809.676,174.851l15.809,-4.092c15.163,-8.833 20.187,-28.179 11.439,-43.245c-8.924,-15.162 -28.179,-20.186 -43.341,-11.348c-14.788,8.833 -20.181,27.992 -11.342,43.245c6.046,10.048 16.462,15.44 27.435,15.44Z" style="fill:#0b0b16;fill-rule:nonzero;"/><path d="M1008.52,91.797l8.276,-1.3c17.019,-4.371 26.788,-21.674 22.321,-38.414c-4.371,-16.74 -21.765,-26.782 -38.783,-22.411c-16.74,4.74 -26.782,22.133 -22.133,38.873c3.809,14.141 16.462,23.252 30.319,23.252Z" style="fill:#0b0b16;fill-rule:nonzero;"/><path d="M1222.53,63.431c17.393,-0.279 31.533,-14.51 31.533,-31.903c0,-17.388 -14.14,-31.528 -31.533,-31.528c-17.666,0.375 -31.528,14.14 -31.528,31.903c-0,17.393 14.14,31.528 31.528,31.528Z" style="fill:#0b0b16;fill-rule:nonzero;"/><path d="M639.008,306.827l22.321,-9.116c12.375,-12.461 12.091,-32.641 -0.278,-44.919c-12.273,-12.279 -32.181,-12.001 -44.551,0.369c-12.182,12.278 -12.182,32.089 0,44.55l22.508,9.116Z" style="fill:#0b0b16;fill-rule:nonzero;"/><path d="M1957,1244.42c-15.162,-8.833 -34.412,-3.718 -42.966,11.347c-8.839,15.163 -3.815,34.412 11.438,43.251l15.719,4.183c10.973,0 21.48,-5.767 27.435,-15.906c8.555,-15.065 3.536,-34.321 -11.626,-42.875Z" style="fill:#0b0b16;fill-rule:nonzero;"/><path d="M1939.6,474.049l15.719,-4.371c15.162,-8.923 20.276,-28.088 11.438,-43.244c-8.555,-14.884 -28.088,-20.186 -43.245,-11.439c-14.884,8.833 -19.902,28.088 -11.069,43.245c5.671,10.138 16.371,15.809 27.157,15.809Z" style="fill:#0b0b16;fill-rule:nonzero;"/><path d="M1787.45,1420.57c-12.279,12.37 -12.279,32.09 -0,44.459l22.411,9.117l22.417,-9.117c12.369,-12.369 12.369,-32.089 -0,-44.459c-12.648,-12.273 -32.459,-12.273 -44.828,0Z" style="fill:#0b0b16;fill-rule:nonzero;"/><path d="M2022.94,672.805l8.186,-1.209c17.018,-4.371 26.788,-21.668 22.417,-38.505c-4.746,-16.74 -22.043,-26.788 -38.789,-22.411c-17.018,4.831 -26.879,22.133 -22.133,38.874c3.815,14.134 16.462,23.251 30.319,23.251Z" style="fill:#0b0b16;fill-rule:nonzero;"/><path d="M2032.05,1041.85c-17.018,-4.371 -34.32,5.671 -38.782,22.411c-4.468,16.741 5.671,34.043 22.32,38.414l8.277,1.3c13.856,-0 26.788,-9.486 30.319,-23.62c4.649,-16.741 -5.393,-34.134 -22.134,-38.505Z" style="fill:#0b0b16;fill-rule:nonzero;"/><path d="M2051.68,823.383c-17.394,0.369 -31.625,14.226 -31.625,31.897l0.375,2.237l-0.375,0.925c0,17.303 14.231,31.625 31.625,31.625c17.671,-0 31.528,-14.322 31.528,-31.625l-0,-3.531c-0,-17.302 -14.232,-31.528 -31.528,-31.528Z" style="fill:#0b0b16;fill-rule:nonzero;"/><path d="M1807.72,303.291l22.32,-9.111c11.995,-12.279 11.995,-32.556 -0.278,-44.828c-12.279,-12.37 -32.556,-12.001 -44.55,0.278c-12.279,12.369 -12.279,32.271 -0,44.55l22.508,9.111Z" style="fill:#0b0b16;fill-rule:nonzero;"/><path d="M1428.26,89.566l8.277,0.931c13.856,-0 26.509,-9.395 30.228,-23.626c4.461,-16.741 -5.302,-34.037 -22.417,-38.505c-16.644,-4.371 -34.037,5.768 -38.408,22.417c-4.468,17.019 5.671,34.037 22.32,38.783Z" style="fill:#0b0b16;fill-rule:nonzero;"/><path d="M1620.13,168.153l15.809,4.468c11.07,-0 21.487,-5.677 27.441,-16.094c8.555,-15.156 3.531,-34.315 -11.625,-42.875c-15.163,-8.924 -34.412,-3.531 -43.251,11.625c-8.464,15.163 -3.44,34.418 11.626,42.876Z" style="fill:#0b0b16;fill-rule:nonzero;"/><path d="M1743.45,1839.1c-16.831,16.747 -34.037,32.556 -51.618,47.247l-0.743,-2.975l-6.977,-23.904l-0.931,-2.231l-10.133,-22.133l-3.627,-6.698l-12.279,-20.272l-2.231,-3.536l-16.927,-23.161l-4.746,-6.136l-14.975,-17.859l-4.462,-5.302l-19.624,-21.48l-4.183,-4.468l-16.65,-17.296l-5.955,-6.046l-18.415,-18.415l-17.853,-17.671l-5.12,-5.024l-13.948,-13.391l-4.745,-4.559c-12.37,-11.716 -24.739,-22.786 -37.017,-33.111l-3.441,-2.975l-15.622,-12.46l-3.349,-2.702c-12.278,-9.298 -24.648,-17.95 -36.926,-25.108l-3.809,-2.231l-14.606,-7.816l-2.787,-1.397c12.369,-10.417 24.647,-21.577 36.739,-33.668c44.084,-44.085 96.724,-19.715 216.608,100.17c120.072,119.975 144.346,172.62 100.352,216.608Zm-1210.93,-288.128c-445.501,-445.502 -571.522,-802.828 -384.954,-1092.26l1.305,-0.652l16.179,-4.74l2.883,-0.278l17.581,0.925l3.162,0.653l19.158,6.233l3.44,1.674l21.112,11.439l3.258,2.043l23.439,16.559l3.065,2.509c8.373,6.511 16.928,13.675 25.948,21.577l2.606,2.14c9.304,8.186 18.88,17.018 28.928,26.691l1.765,1.675c10.417,9.951 21.203,20.368 32.459,31.715l23.717,23.995l7.068,7.442l16.087,17.019l8.282,9.395l13.482,15.162l8.186,10.133l11.348,14.328l7.254,10.229l9.117,13.488l5.762,10.229l6.607,12.557l3.719,10.042l3.718,11.534l1.305,9.486l0.369,9.208c-115.604,214.287 72.826,402.807 255.301,585.192c182.759,182.85 371.842,371.745 586.589,254.557l8.742,0.556l9.769,1.487l10.507,3.537l11.252,4.371l10.138,5.489l12.744,7.158l9.486,6.511l14.231,10.139l8.651,6.88l15.435,12.653l8.186,7.158l15.996,14.322l9.395,8.839l14.51,13.857l23.529,23.16c11.16,11.251 21.764,21.946 31.625,32.363l1.952,2.049c9.486,10.042 18.228,19.528 26.414,28.832l2.509,2.883c7.907,8.93 14.975,17.575 21.486,25.761l2.509,3.349l16.553,23.439l2.14,3.253l11.444,21.207l1.487,3.253l6.415,19.437l0.556,2.98l0.931,17.762l-0.278,2.606l-4.836,16.366l-0.647,1.493c-289.344,186.471 -646.67,60.45 -1092.08,-385.046Zm-288.321,-1210.94c44.272,-44.085 96.82,-19.624 216.796,100.17c119.885,119.975 144.254,172.615 100.17,216.699c-12.182,12.279 -23.626,24.648 -34.043,37.205l-1.675,-3.253l-6.971,-13.209l-2.792,-5.024l-11.161,-17.672l-2.231,-3.161l-10.791,-14.879l-4.649,-5.955l-10.229,-12.834l-4.559,-5.581l-15.344,-17.484l-2.605,-2.793l-14.231,-15.531l-5.859,-6.136l-12.369,-12.926l-5.58,-5.677l-17.581,-17.762l-18.784,-18.789l-5.398,-5.206l-18.228,-17.671l-3.44,-3.258l-21.855,-19.806l-4.745,-4.093l-18.694,-15.628l-5.302,-4.274l-23.438,-17.025l-2.975,-1.856l-21.02,-12.744l-6.137,-3.349l-23.064,-10.604l-1.306,-0.556l-24.364,-7.068l-2.605,-0.743c14.696,-17.581 30.409,-34.787 47.059,-51.527Zm1443.54,1237.82c-80.818,-80.824 -203.03,-203.036 -305.896,-100.261c-27.713,27.901 -55.989,50.034 -83.702,66.218l-0.096,0c-163.873,94.959 -311.659,-33.39 -518.322,-240.047c-206.192,-206.102 -334.262,-353.422 -240.978,-516.835c16.28,-28.366 38.782,-57.106 67.058,-85.376c102.866,-102.775 -19.346,-225.078 -100.261,-305.896c-80.818,-80.915 -203.03,-203.036 -305.896,-100.17c-38.505,38.504 -72.355,79.518 -100.352,121.746c-211.959,319.475 -84.916,704.986 388.577,1178.47c325.986,325.804 610.214,487.633 859.838,487.633c113.005,0 218.846,-33.202 318.363,-99.051c42.222,-27.997 83.236,-61.853 121.928,-100.539c102.866,-102.866 -19.346,-225.078 -100.261,-305.896Z" style="fill:#0b0b16;fill-rule:nonzero;"/><path d="M1202.9,1167.69l183.133,-0l0,-255.67c0,-17.489 14.135,-31.528 31.528,-31.528l255.67,0l-0,-183.037l-255.67,0c-17.393,0 -31.528,-14.14 -31.528,-31.624l0,-255.67l-183.133,-0l-0,255.67c-0,17.484 -14.135,31.624 -31.528,31.624l-255.67,0l0,183.037l255.67,0c17.393,0 31.528,14.039 31.528,31.528l-0,255.67Zm214.661,63.152l-246.189,0c-17.393,0 -31.619,-14.135 -31.619,-31.528l-0,-255.675l-255.585,0c-17.387,0 -31.528,-14.231 -31.528,-31.619l0,-246.189c0,-17.394 14.141,-31.438 31.528,-31.438l255.585,0l-0,-255.669c-0,-17.393 14.226,-31.528 31.619,-31.528l246.189,-0c17.394,-0 31.619,14.135 31.619,31.528l0,255.669l255.585,0c17.387,0 31.528,14.044 31.528,31.438l-0,246.189c-0,17.388 -14.141,31.619 -31.528,31.619l-255.585,0l0,255.675c0,17.393 -14.225,31.528 -31.619,31.528Z" style="fill:#0b0b16;fill-rule:nonzero;"/></g></g></svg>