<?xml version="1.0" encoding="UTF-8" standalone="no"?><!DOCTYPE svg PUBLIC "-//W3C//DTD SVG 1.1//EN" "http://www.w3.org/Graphics/SVG/1.1/DTD/svg11.dtd"><svg width="100%" height="100%" viewBox="0 0 2084 2084" version="1.1" xmlns="http://www.w3.org/2000/svg" xmlns:xlink="http://www.w3.org/1999/xlink" xml:space="preserve" xmlns:serif="http://www.serif.com/" style="fill-rule:evenodd;clip-rule:evenodd;stroke-linejoin:round;stroke-miterlimit:2;"><rect id="画板1" x="0" y="0" width="2083.33" height="2083.33" style="fill:none;"/><clipPath id="_clip1"><rect id="画板11" serif:id="画板1" x="0" y="0" width="2083.33" height="2083.33"/></clipPath><g clip-path="url(#_clip1)"><g><path d="M1912.94,1228.39l-84.455,0l0,-347.675l84.455,-0l0,347.675Zm-1149.33,307.12l291.026,-0l0,102.309l-291.026,-0l0,-102.309Zm-593.217,-298.287l-0,-664.372c42.593,-33.482 107.889,-31.433 146.77,7.443c67.708,67.617 177.738,67.617 245.361,-0c41.668,-41.76 114.4,-41.669 156.069,-0c33.76,33.857 78.222,50.785 122.677,50.785c44.371,0 88.736,-16.928 122.593,-50.785c41.759,-41.669 114.304,-41.669 156.069,-0c67.617,67.617 177.556,67.617 245.361,-0c40.181,-40.085 103.518,-42.225 146.77,-7.443l-0,664.372c-0,129.751 -105.477,235.222 -235.131,235.222l-871.414,0c-129.655,0 -235.125,-105.471 -235.125,-235.222Zm235.125,-1174.16l871.414,-0c129.654,-0 235.131,105.47 235.131,235.125l-0,201.274c-63.434,-27.345 -139.793,-15.435 -191.413,36.185c-43.065,43.059 -113.01,43.059 -156.075,-0c-67.618,-67.527 -177.647,-67.527 -245.361,-0c-42.968,43.059 -113.004,43.059 -156.069,-0c-67.527,-67.527 -177.556,-67.527 -245.174,-0c-41.764,41.855 -114.406,41.855 -156.165,-0c-51.717,-51.62 -128.076,-63.53 -191.413,-36.185l-0,-201.274c-0,-129.655 105.47,-235.125 235.125,-235.125Zm1539.04,754.589l-42.412,-0l-0,-234.109c-0,-17.389 -14.045,-31.53 -31.433,-31.53c-17.491,0 -31.626,14.141 -31.626,31.53l-0,234.109l-42.134,-0c-17.485,-0 -31.626,14.135 -31.626,31.626l0,410.728c0,17.304 14.141,31.439 31.626,31.439l42.134,-0l-0,572.946c-0,85.846 -69.945,155.791 -155.978,155.791c-85.943,-0 -155.888,-69.945 -155.888,-155.791l0,-111.432c0,-75.707 -61.571,-137.278 -137.278,-137.278c-75.804,-0 -137.285,61.571 -137.285,137.278l0,111.432c0,85.846 -70.035,155.791 -156.074,155.791c-85.937,-0 -155.882,-69.945 -155.882,-155.791l0,-163.421l145.465,0c17.49,0 31.535,-14.232 31.535,-31.529l-0,-133.935l159.231,-0c164.442,-0 298.19,-133.748 298.19,-298.287l-0,-939.031c-0,-164.533 -133.748,-298.19 -298.19,-298.19l-871.414,-0c-164.443,-0 -298.19,133.657 -298.19,298.19l-0,939.031c-0,164.539 133.747,298.287 298.19,298.287l294.937,-0l0,133.935c0,17.297 14.136,31.529 31.53,31.529l145.561,0l-0,163.421c-0,120.724 98.312,218.94 219.037,218.94c120.821,0 219.133,-98.216 219.133,-218.94l0,-111.432c0,-40.919 33.301,-74.22 74.226,-74.22c40.828,0 74.129,33.301 74.129,74.22l-0,111.432c-0,120.724 98.312,218.94 219.037,218.94c120.821,0 219.037,-98.216 219.037,-218.94l-0,-572.946l42.412,-0c17.303,-0 31.438,-14.135 31.438,-31.439l0,-410.728c0,-17.491 -14.135,-31.626 -31.438,-31.626Z" style="fill:#0b0b16;fill-rule:nonzero;"/><path d="M562.341,1292.19l-226.201,-0c-17.394,-0 -31.626,14.141 -31.626,31.529c0,17.581 14.232,31.717 31.626,31.717l226.201,-0c17.485,-0 31.621,-14.136 31.621,-31.717c-0,-17.388 -14.136,-31.529 -31.621,-31.529Z" style="fill:#0b0b16;fill-rule:nonzero;"/><path d="M562.341,1102.73l-226.201,0c-17.394,0 -31.626,14.045 -31.626,31.717c0,17.297 14.232,31.529 31.626,31.529l226.201,0c17.485,0 31.621,-14.232 31.621,-31.529c-0,-17.672 -14.136,-31.717 -31.621,-31.717Z" style="fill:#0b0b16;fill-rule:nonzero;"/><path d="M562.341,913.36l-226.201,0c-17.394,0 -31.626,14.045 -31.626,31.626c0,17.389 14.232,31.53 31.626,31.53l226.201,-0c17.485,-0 31.621,-14.141 31.621,-31.53c-0,-17.581 -14.136,-31.626 -31.621,-31.626Z" style="fill:#0b0b16;fill-rule:nonzero;"/><path d="M562.341,723.9l-226.201,-0c-17.394,-0 -31.626,14.135 -31.626,31.62c0,17.491 14.232,31.626 31.626,31.626l226.201,0c17.485,0 31.621,-14.135 31.621,-31.626c-0,-17.485 -14.136,-31.62 -31.621,-31.62Z" style="fill:#0b0b16;fill-rule:nonzero;"/><path d="M336.14,408.316l226.201,-0c17.485,-0 31.621,-14.135 31.621,-31.717c-0,-17.394 -14.136,-31.438 -31.621,-31.438l-226.201,-0c-17.394,-0 -31.626,14.044 -31.626,31.438c0,17.582 14.232,31.717 31.626,31.717Z" style="fill:#0b0b16;fill-rule:nonzero;"/></g></g></svg>