<?xml version="1.0" encoding="UTF-8" standalone="no"?><!DOCTYPE svg PUBLIC "-//W3C//DTD SVG 1.1//EN" "http://www.w3.org/Graphics/SVG/1.1/DTD/svg11.dtd"><svg width="100%" height="100%" viewBox="0 0 2084 2084" version="1.1" xmlns="http://www.w3.org/2000/svg" xmlns:xlink="http://www.w3.org/1999/xlink" xml:space="preserve" xmlns:serif="http://www.serif.com/" style="fill-rule:evenodd;clip-rule:evenodd;stroke-linejoin:round;stroke-miterlimit:2;"><rect id="画板1" x="0" y="0" width="2083.33" height="2083.33" style="fill:none;"/><g id="画板11" serif:id="画板1"><g><path d="M2020.28,1639.74l-1957.12,-0l0,-171.412l1957.12,0l0,171.412Zm-808.874,228.887l-339.377,0l0,-165.735l339.377,0l0,165.735Zm219.589,102.588c0,21.759 -17.671,39.339 -39.435,39.339l-699.781,0c-21.758,0 -39.339,-17.58 -39.339,-39.339c0,-21.861 17.581,-39.435 39.339,-39.435l699.781,-0c21.764,-0 39.435,17.574 39.435,39.435Zm589.285,-1898.62l0,756.416l-267.022,-0c-10.417,-0 -20.181,5.205 -26.039,13.947l-41.298,60.644l-240.978,-602.495c-4.837,-11.813 -16.275,-19.715 -29.11,-19.811l-0.187,-0c-12.739,-0 -24.273,7.629 -29.201,19.346l-202.292,482.7l-113.277,-272.228c-4.837,-11.717 -16.371,-19.346 -29.116,-19.346c-12.834,0 -24.273,7.629 -29.109,19.346l-232.14,555.804l-55.245,-209.729c-3.537,-13.487 -15.441,-23.064 -29.394,-23.438c-14.787,-0.647 -26.595,8.276 -31.062,21.486l-35.899,107.419l-113.561,-582.212c-2.606,-13.675 -14.135,-24.183 -28.179,-25.392c-14.322,-1.118 -27.157,6.88 -32.277,19.993l-176.242,453.313l-215.497,-0l0,-755.763l1957.12,-0Zm-1957.12,818.915l237.073,0c13.023,0 24.739,-7.907 29.388,-20.089l144.624,-371.836l115.61,592.628c2.696,14.141 14.6,24.557 28.922,25.488c14.975,1.209 27.435,-7.907 31.994,-21.486l40.457,-120.725l51.992,197.638c3.44,13.119 14.788,22.604 28.366,23.439l2.141,0.096c12.647,0 24.182,-7.629 29.109,-19.346l238.839,-572.079l113.282,272.132c4.928,11.813 16.366,19.442 29.11,19.442c12.744,0 24.183,-7.629 29.11,-19.346l201.73,-481.304l234.377,586.027c4.371,10.791 14.413,18.415 25.857,19.72c11.529,1.204 22.967,-4.002 29.575,-13.675l65.287,-96.076l250.282,-0l0,513.206l-1957.12,0l0,-513.854Zm1988.65,-881.977l-2020.18,-0c-17.484,-0 -31.624,14.14 -31.624,31.624l0,1630.21c0,17.297 14.14,31.528 31.624,31.528l777.341,0l-0,165.735l-117.189,0c-56.544,0 -102.582,46.038 -102.582,102.588c0,56.545 46.038,102.582 102.582,102.582l699.781,0c56.545,0 102.582,-46.037 102.582,-102.582c0,-56.55 -46.037,-102.588 -102.582,-102.588l-117.001,0l-0,-165.735l777.249,0c17.484,0 31.528,-14.231 31.528,-31.528l0,-1630.21c0,-17.484 -14.044,-31.624 -31.528,-31.624Z" style="fill:#0b0b16;fill-rule:nonzero;"/></g></g></svg>