<?xml version="1.0" encoding="UTF-8" standalone="no"?><!DOCTYPE svg PUBLIC "-//W3C//DTD SVG 1.1//EN" "http://www.w3.org/Graphics/SVG/1.1/DTD/svg11.dtd"><svg width="100%" height="100%" viewBox="0 0 2084 2084" version="1.1" xmlns="http://www.w3.org/2000/svg" xmlns:xlink="http://www.w3.org/1999/xlink" xml:space="preserve" xmlns:serif="http://www.serif.com/" style="fill-rule:evenodd;clip-rule:evenodd;stroke-linejoin:round;stroke-miterlimit:2;"><rect id="画板1" x="0" y="0" width="2083.33" height="2083.33" style="fill:none;"/><g id="画板11" serif:id="画板1"><g><path d="M1787.46,1390.82c-69.474,321.698 -182.845,522.771 -336.952,597.456c-130.949,63.611 -263.758,17.671 -331.185,-15.253c-49.292,-24.369 -105.931,-24.369 -155.223,-0.187c-67.521,33.111 -200.237,79.051 -331.279,15.44c-154.014,-74.685 -267.478,-275.758 -336.952,-597.456c-45.757,-212.697 10.231,-385.87 157.828,-487.899c87.051,-59.893 190.192,-85.84 283.753,-85.84c80.262,0 153.363,19.067 203.399,51.338c62.219,40.36 139.412,40.36 201.631,0c108.443,-70.218 325.513,-77.007 487.246,34.502c147.597,102.029 203.585,275.202 157.734,487.899Zm-777.044,-1177.7c91.329,-123.413 307.934,-175.682 559.137,-137.178c-60.545,110.396 -260.689,426.792 -545.187,380.846c108.256,-167.592 294.728,-231.856 305.145,-235.392c16.554,-5.393 25.482,-23.251 19.902,-39.804c-5.487,-16.461 -23.343,-25.578 -39.898,-19.901c-11.254,3.627 -207.119,71.149 -328.86,247.386c-22.321,-71.608 -12.649,-138.483 29.761,-195.957Zm655.116,638.002c-166.104,-114.761 -411.075,-130.389 -557.463,-35.62c-14.322,9.304 -29.947,15.162 -45.85,17.949c-19.531,-84.539 -62.22,-145.732 -108.35,-189.35c7.162,-47.62 20.647,-90.682 38.597,-129.186c31.249,6.886 61.568,10.139 90.864,10.139c346.438,-0 553.092,-439.071 562.579,-459.716c4.092,-8.742 3.813,-19.067 -0.558,-27.622c-4.465,-8.651 -12.649,-14.884 -22.228,-16.649c-296.682,-56.543 -551.046,2.696 -663.394,154.571c-64.545,87.145 -70.869,193.823 -19.438,301.892c-18.136,36.92 -32.737,77.564 -42.41,122.113c-55.616,-36.92 -103.141,-50.498 -104.35,-50.873c-16.833,-4.558 -33.946,5.393 -38.596,22.133c-4.557,16.836 5.301,34.132 22.135,38.878c7.812,2.043 167.871,48.642 218.279,216.047l-20.182,-10.326c-146.294,-94.769 -391.08,-79.141 -557.37,35.62c-98.491,67.988 -253.249,230.187 -183.589,553.003c73.752,341.691 198.563,557.278 371.084,641.074c57.569,27.804 114.766,38.129 168.058,38.129c90.492,0 169.452,-29.671 218.465,-53.665c31.714,-15.531 68.078,-15.531 99.699,-0c77.845,38.038 231.486,90.682 386.523,15.536c172.522,-83.796 297.332,-299.383 371.084,-641.074c69.66,-322.816 -85.098,-485.015 -183.589,-553.003Z" style="fill:#0b0b16;fill-rule:nonzero;"/><path d="M892.582,966.904c-108.163,-57.287 -270.919,-39.247 -378.431,42.318c-107.977,81.566 -148.62,213.26 -114.674,370.618c19.345,89.286 43.991,166.758 73.659,230.091c5.301,11.534 16.648,18.323 28.552,18.323l13.393,-3.071c15.717,-7.254 22.6,-26.128 15.252,-41.943c-27.622,-59.058 -50.873,-131.973 -69.101,-216.694c-36.551,-169.176 29.296,-260.318 90.957,-307.007c98.119,-74.311 235.113,-77.007 310.818,-36.926c15.438,8.186 34.597,2.418 42.689,-13.016c8.184,-15.44 2.325,-34.507 -13.114,-42.693Z" style="fill:#0b0b16;fill-rule:nonzero;"/></g></g></svg>