<?xml version="1.0" encoding="UTF-8" standalone="no"?><!DOCTYPE svg PUBLIC "-//W3C//DTD SVG 1.1//EN" "http://www.w3.org/Graphics/SVG/1.1/DTD/svg11.dtd"><svg width="100%" height="100%" viewBox="0 0 2084 2084" version="1.1" xmlns="http://www.w3.org/2000/svg" xmlns:xlink="http://www.w3.org/1999/xlink" xml:space="preserve" xmlns:serif="http://www.serif.com/" style="fill-rule:evenodd;clip-rule:evenodd;stroke-linejoin:round;stroke-miterlimit:2;"><rect id="画板1" x="0" y="0" width="2083.33" height="2083.33" style="fill:none;"/><g id="画板11" serif:id="画板1"><g><path d="M587.419,689.89c-16.091,-6.789 -34.599,1.022 -41.202,17.207c-20.37,49.572 -36.367,103.702 -50.783,154.765c-11.72,41.573 -32.925,72.918 -55.34,106.121c-32.925,48.269 -66.78,98.216 -73.289,180.713c-6.604,83.616 5.022,161.371 34.412,231.033c5.023,11.998 16.741,19.346 29.018,19.346l12.278,-2.606c15.997,-6.695 23.623,-25.204 16.834,-41.201c-25.484,-60.27 -35.343,-128.258 -29.576,-201.641c5.115,-65.757 31.715,-104.912 62.501,-150.21c24.368,-35.9 49.48,-72.918 63.988,-124.443c13.767,-49.294 29.298,-101.284 48.365,-147.882c6.603,-16.184 -1.116,-34.6 -17.206,-41.202Z" style="fill:#0b0b16;fill-rule:nonzero;"/><path d="M1771.97,1400.56c-23.625,52.363 -40.086,110.027 -57.572,170.856c-28.926,101.007 -58.875,205.269 -122.585,284.139c-81.196,100.634 -191.13,157.277 -318.087,163.973c-82.777,4.558 -170.11,-12.651 -255.028,-48.085l19.626,0.931l17.95,-0.188c157.741,-5.858 311.577,-86.218 433.323,-226.939c68.361,-78.964 85.475,-152.16 102.124,-223.034c11.718,-50.316 22.88,-97.657 52.364,-147.51c59.896,-101.563 139.046,-235.866 151.323,-358.265c52.456,112.447 43.714,234.472 -23.438,384.122Zm-1379.31,155.509c-101.658,-109.936 -150.208,-264.979 -136.722,-436.113c7.533,-95.892 47.62,-154.859 90.032,-217.547c33.669,-49.479 68.453,-100.819 88.263,-171.134c64.92,-231.03 138.025,-438.532 316.32,-438.532c178.297,-0 251.494,207.502 316.414,438.532c19.81,70.315 54.594,121.655 88.171,171.134l14.508,21.952c-43.992,22.88 -86.776,33.575 -131.605,44.176c-70.872,16.556 -144.163,33.763 -223.033,102.031c-140.628,121.934 -221.173,275.768 -226.939,433.417c-2.418,67.06 9.022,131.513 32.552,190.2c-86.683,-23.809 -166.112,-71.15 -227.961,-138.116Zm1181.85,-729.74c44.177,-0 83.148,13.207 114.677,44.645c103.984,104.074 12.277,282.463 -99.611,471.55c-34.227,58.13 -46.968,112.633 -59.339,165.367c-15.532,66.222 -30.228,128.816 -88.358,195.967c-110.12,127.236 -247.865,200.247 -387.842,205.084c-112.075,3.999 -215.685,-35.344 -291.487,-111.145c-75.802,-75.987 -115.329,-179.411 -111.329,-291.581c5.022,-140.068 77.846,-277.627 205.082,-387.841c67.244,-58.13 129.839,-72.827 196.153,-88.452c52.642,-12.37 107.144,-25.111 165.182,-59.43c126.583,-74.874 255.214,-144.164 356.872,-144.164Zm159.322,-0c-135.606,-135.606 -351.106,-25.111 -509.125,66.872c-5.768,-8.836 -11.534,-17.672 -17.3,-26.227c-32.18,-47.434 -62.595,-92.264 -79.615,-152.812c-51.526,-182.854 -128.164,-454.157 -341.339,-481.686c9.952,-48.644 41.296,-140.63 140.628,-170.672c16.742,-5.021 26.135,-22.692 21.113,-39.342c-5.023,-16.741 -22.787,-26.133 -39.343,-21.112c-139.512,42.32 -176.62,172.809 -186.294,230.567c-219.033,21.949 -297.067,297.16 -349.151,482.245c-17.02,60.548 -47.435,105.378 -79.615,152.812c-45.202,66.685 -91.892,135.513 -100.82,247.958c-14.882,188.993 39.621,360.965 153.276,484.014c82.405,89.102 192.619,147.138 311.111,167.6c17.207,27.158 37.297,52.55 60.549,75.802c152.347,152.347 348.407,240.983 530.144,240.983c9.673,0 19.439,-0.187 29.018,-0.743c145.28,-7.721 271.119,-72.362 363.941,-187.412c71.709,-88.915 103.331,-199.41 134.024,-306.182c16.834,-58.782 32.831,-114.307 54.41,-162.485c108.167,-240.796 78.684,-425.884 -95.612,-600.18Z" style="fill:#0b0b16;fill-rule:nonzero;"/><path d="M1331.39,1228.87c33.67,33.669 48.55,82.591 42.133,138.025c-6.882,58.13 -36.273,115.794 -82.777,162.298c-46.504,46.504 -104.076,75.801 -162.206,82.685c-55.153,6.695 -104.355,-8.464 -138.116,-42.04c-71.616,-71.711 -53.387,-206.293 40.645,-300.51c55.246,-55.246 124.63,-84.265 186.945,-84.265c43.62,-0 83.894,14.325 113.376,43.807Zm-344.966,-3.905c-118.585,118.49 -136.814,293.346 -40.551,389.422c40.551,40.739 95.519,62.038 157.37,62.038c10.695,0 21.577,-0.465 32.645,-1.862c72.174,-8.464 143.046,-44.27 199.502,-100.819c56.456,-56.455 92.263,-127.329 100.727,-199.316c8.928,-75.149 -12.463,-142.58 -60.082,-190.293c-96.17,-96.079 -271.025,-77.942 -389.611,40.83Z" style="fill:#0b0b16;fill-rule:nonzero;"/><path d="M1000.93,1448.28l18.51,5.858c9.765,-0 19.344,-4.371 25.576,-12.835c20.648,-28.832 45.203,-57.386 72.826,-85.01c27.809,-27.807 56.549,-52.362 85.381,-73.196c14.044,-10.323 17.3,-30.041 7.069,-44.085c-10.231,-14.044 -30.043,-17.394 -44.086,-6.977c-31.53,22.602 -62.78,49.482 -93.008,79.617c-29.949,29.947 -56.642,61.104 -79.336,92.542c-10.231,14.138 -7.068,33.762 7.068,44.086Z" style="fill:#0b0b16;fill-rule:nonzero;"/></g></g></svg>