<?xml version="1.0" encoding="UTF-8" standalone="no"?><!DOCTYPE svg PUBLIC "-//W3C//DTD SVG 1.1//EN" "http://www.w3.org/Graphics/SVG/1.1/DTD/svg11.dtd"><svg width="100%" height="100%" viewBox="0 0 2084 2084" version="1.1" xmlns="http://www.w3.org/2000/svg" xmlns:xlink="http://www.w3.org/1999/xlink" xml:space="preserve" xmlns:serif="http://www.serif.com/" style="fill-rule:evenodd;clip-rule:evenodd;stroke-linejoin:round;stroke-miterlimit:2;"><rect id="画板1" x="0" y="0" width="2083.33" height="2083.33" style="fill:none;"/><g id="画板11" serif:id="画板1"><g><path d="M1213.56,1342.48c78.411,57.669 115.896,128.453 121.942,232.907l-587.571,0c6.046,-103.71 43.159,-174.215 121.013,-231.977c35.066,-26.044 55.156,-63.901 55.156,-103.897l-0,-73.016c-0,-45.67 -24.927,-88.085 -65.016,-110.501c-218.77,-121.849 -361.825,-509.718 -367.779,-992.927l1100.82,-0c-5.953,484.232 -149.473,872.288 -368.987,993.671c-40.369,22.323 -65.389,64.552 -65.389,110.408l-0,70.97c-0,40.275 20.369,78.411 55.807,104.362Zm378.755,677.795l-1101.2,-0l-0,-381.638l1101.2,0l-0,381.638Zm-1503.76,-1784.48l348.059,0c20.556,246.302 78.319,461.816 164.263,622.173c-226.583,-54.786 -499.208,-207.05 -512.322,-622.173Zm1906.33,0c-13.208,415.216 -285.647,567.387 -512.322,622.173c85.944,-160.357 143.707,-375.778 164.356,-622.173l347.966,0Zm-741.232,876.194c68.925,-38.042 130.593,-99.897 184.076,-179.703c327.876,-59.901 620.778,-272.718 620.778,-728.022c0,-17.487 -14.139,-31.625 -31.532,-31.625l-375.871,-0c2.605,-46.229 4.372,-93.108 4.372,-141.196c-0,-17.394 -14.138,-31.439 -31.533,-31.439l-1164.44,-0c-17.393,-0 -31.532,14.045 -31.532,31.439c-0,48.088 1.768,94.967 4.373,141.196l-375.871,-0c-17.395,-0 -31.626,14.138 -31.626,31.625c0,455.304 292.902,668.121 620.778,728.022c53.204,79.434 114.408,140.824 182.679,178.866c20.092,11.255 32.65,32.462 32.65,55.344l-0,73.016c-0,19.812 -10.791,39.252 -29.672,53.204c-94.037,69.947 -139.615,158.31 -146.033,282.67l-225.746,0c-17.393,0 -31.532,14.139 -31.532,31.625l-0,444.887c-0,17.487 14.139,31.439 31.532,31.439l1164.44,0c17.395,0 31.533,-13.952 31.533,-31.439l-0,-444.887c-0,-17.486 -14.138,-31.625 -31.533,-31.625l-225.745,0c-6.79,-123.894 -53.762,-214.955 -147.335,-283.786c-19.067,-14.045 -30.043,-33.578 -30.043,-53.483l-0,-70.97c-0,-22.882 12.65,-43.903 32.833,-55.158Z" style="fill:#0b0b16;fill-rule:nonzero;"/><path d="M1056.46,616.219l-14.789,-3.72l-14.697,3.72l-81.666,42.88l15.533,-91.061c1.767,-10.231 -1.581,-20.742 -9.022,-27.997l-66.133,-64.366l91.433,-13.394c10.231,-1.395 19.16,-7.999 23.719,-17.115l40.833,-82.875l40.926,82.875c4.557,9.116 13.488,15.72 23.718,17.115l91.433,13.394l-66.133,64.366c-7.441,7.255 -10.789,17.766 -9.022,27.997l15.534,91.061l-81.667,-42.88Zm142.125,126.035c9.766,-6.976 14.603,-18.975 12.558,-30.881l-23.627,-137.568l100.178,-97.479c8.557,-8.464 11.627,-21.021 7.905,-32.462c-3.72,-11.441 -13.58,-19.719 -25.486,-21.486l-138.312,-20.184l-61.762,-125.198c-10.695,-21.579 -46.041,-21.579 -56.645,0l-61.854,125.198l-138.312,20.184c-11.814,1.767 -21.672,10.045 -25.394,21.486c-3.72,11.441 -0.651,23.998 8,32.462l100.083,97.479l-23.625,137.568c-2.047,11.906 2.79,23.905 12.464,30.881l18.603,6.139l14.696,-3.721l123.616,-64.924l123.709,64.924c10.603,5.674 23.532,4.651 33.205,-2.418Z" style="fill:#0b0b16;fill-rule:nonzero;"/></g></g></svg>