<?xml version="1.0" encoding="UTF-8" standalone="no"?><!DOCTYPE svg PUBLIC "-//W3C//DTD SVG 1.1//EN" "http://www.w3.org/Graphics/SVG/1.1/DTD/svg11.dtd"><svg width="100%" height="100%" viewBox="0 0 2084 2084" version="1.1" xmlns="http://www.w3.org/2000/svg" xmlns:xlink="http://www.w3.org/1999/xlink" xml:space="preserve" xmlns:serif="http://www.serif.com/" style="fill-rule:evenodd;clip-rule:evenodd;stroke-linejoin:round;stroke-miterlimit:2;"><rect id="画板1" x="0" y="0" width="2083.33" height="2083.33" style="fill:none;"/><clipPath id="_clip1"><rect id="画板11" serif:id="画板1" x="0" y="0" width="2083.33" height="2083.33"/></clipPath><g clip-path="url(#_clip1)"><g><path d="M2020.27,1687.58c-0,35.526 -28.924,64.359 -64.456,64.359l-188.067,0l0,-584.663l128.82,51.626c75.06,29.946 123.703,101.753 123.703,182.671l-0,286.007Zm-315.675,206.571c-0,69.479 -56.644,126.123 -126.308,126.123l-1073.25,0c-69.573,0 -126.307,-56.644 -126.307,-126.123l-0,-1044.5c-0,-18.325 1.209,-37.11 3.533,-55.991l9.489,6.602l22.322,15.719c12.835,8.93 25.671,17.581 38.691,25.858l17.022,10.508c15.904,9.674 31.81,18.978 47.992,27.72l8.93,4.837c94.313,50.314 193.46,85.937 294.934,106.958c4.653,65.483 58.784,117.382 125.377,117.382l189.37,-0c66.967,-0 121.378,-52.551 125.471,-118.494l7.814,-1.584l12.742,-2.509c22.88,-5.115 45.574,-11.07 68.27,-17.769l4.09,-1.209c20.834,-6.228 41.484,-13.017 61.946,-20.46l15.348,-5.955c16.647,-6.415 33.298,-13.017 49.758,-20.181l18.881,-8.652c14.976,-6.976 29.951,-14.135 44.74,-21.765l20.646,-11.064c13.861,-7.63 27.718,-15.441 41.391,-23.627l21.858,-13.392c12.836,-8.186 25.578,-16.65 38.132,-25.393l22.881,-15.906l10.698,-7.624c2.325,18.881 3.534,37.666 3.534,55.991l-0,1044.5Zm-1577.08,-142.212c-35.532,0 -64.364,-28.833 -64.364,-64.359l-0,-286.007c-0,-80.918 48.551,-152.725 123.705,-182.671l128.726,-51.626l-0,584.663l-188.067,0Zm1072.04,-769.008c0,34.788 -28.276,63.155 -63.155,63.155l-189.37,0c-34.879,0 -63.152,-28.367 -63.152,-63.155c-0,-34.783 28.273,-63.15 63.152,-63.15l189.37,0c34.879,0 63.155,28.367 63.155,63.15Zm-347.3,-606.797l378.83,-0c215.131,-0 399.942,142.121 456.214,347.953l-20.646,15.72c-9.117,6.88 -18.138,13.857 -27.346,20.272c-9.395,6.608 -18.788,12.744 -28.277,18.881c-9.857,6.602 -19.809,13.21 -29.948,19.256c-8.371,5.115 -16.835,9.952 -25.299,14.788c-11.626,6.603 -23.253,13.205 -35.063,19.529l-19.719,9.673c-14.138,6.886 -28.183,13.863 -42.415,20.187l-11.717,4.837c-17.207,7.346 -34.507,14.414 -51.901,20.738l-1.394,0.465c-47.158,17.116 -95.15,30.042 -143.702,40.09c-20.368,-42.321 -63.339,-71.807 -113.472,-71.807l-189.37,0c-50.13,0 -93.101,29.486 -113.563,71.898c-109.38,-22.509 -216.156,-62.78 -316.143,-121.468l-15.439,-9.026c-10.882,-6.512 -21.577,-13.767 -32.275,-20.738c-8.649,-5.864 -17.485,-11.445 -26.043,-17.581c-8.836,-6.234 -17.485,-12.836 -26.227,-19.535l-21.206,-16.179c56.178,-205.832 241.08,-347.953 456.121,-347.953Zm-347.208,-281.353c0,-17.581 14.23,-31.626 31.624,-31.626l91.988,0c17.391,0 31.529,14.045 31.529,31.626l0,253.729c-56.922,21.674 -109.285,52.829 -155.141,91.801l0,-345.53Zm466.91,105.097l139.425,-0c57.294,-0 103.89,46.692 103.89,103.989l-0,9.208l-347.207,-0l-0,-9.208c-0,-57.297 46.692,-103.989 103.892,-103.989Zm451.194,-105.097c-0,-17.581 14.229,-31.626 31.623,-31.626l91.988,0c17.392,0 31.53,14.045 31.53,31.626l-0,345.53c-45.762,-38.972 -98.125,-70.127 -155.141,-91.801l-0,-253.729Zm496.861,1065.34l-152.26,-60.828l0,-249.641c0,-39.341 -4.743,-79.709 -13.951,-120.26c-19.718,-85.76 -59.153,-162.024 -112.357,-225.645l0,-408.963c0,-52.272 -42.505,-94.781 -94.682,-94.781l-91.988,0c-52.273,0 -94.778,42.509 -94.778,94.781l-0,234.013c-26.506,-6.511 -53.851,-10.979 -81.569,-13.397l0,-11.53c0,-92.079 -74.966,-167.048 -167.045,-167.048l-139.425,-0c-92.079,-0 -167.045,74.969 -167.045,167.048l0,11.53c-27.717,2.418 -55.063,6.886 -81.571,13.397l-0,-234.013c-0,-52.272 -42.506,-94.781 -94.682,-94.781l-91.988,0c-52.273,0 -94.779,42.509 -94.779,94.781l0,409.054c-53.201,63.53 -92.545,139.794 -112.26,225.554c-9.302,40.551 -14.045,80.919 -14.045,120.26l-0,249.641l-152.166,60.828c-99.334,39.806 -163.418,134.491 -163.418,241.455l0,286.007c0,70.405 57.2,127.515 127.517,127.515l188.067,-0l-0,79.056c-0,104.358 85.102,189.37 189.46,189.37l1073.25,-0c104.449,-0 189.46,-85.012 189.46,-189.37l0,-79.056l188.067,-0c70.317,-0 127.517,-57.11 127.517,-127.515l0,-286.007c0,-106.964 -64.083,-201.649 -163.324,-241.455Z" style="fill:#0b0b16;fill-rule:nonzero;"/><path d="M1359.34,1751.94l-635.259,0c-42.414,0 -77.012,-34.504 -77.012,-77.012l-0,-220.803c114.681,66.221 254.659,99.521 394.64,99.521c139.981,0 279.868,-33.3 394.55,-99.521l-0,220.803c-0,42.508 -34.507,77.012 -76.919,77.012Zm-635.259,-441.985l635.259,-0c39.902,-0 72.547,30.791 76.269,69.854c-221.271,148.167 -566.619,148.167 -787.797,-0c3.722,-39.063 36.273,-69.854 76.269,-69.854Zm635.259,-62.963l-635.259,0c-77.293,0 -140.168,62.684 -140.168,140.072l0,287.864c0,77.29 62.875,140.168 140.168,140.168l635.259,-0c77.197,-0 140.074,-62.878 140.074,-140.168l-0,-287.864c-0,-77.388 -62.877,-140.072 -140.074,-140.072Z" style="fill:#0b0b16;fill-rule:nonzero;"/></g></g></svg>