<?xml version="1.0" encoding="UTF-8" standalone="no"?><!DOCTYPE svg PUBLIC "-//W3C//DTD SVG 1.1//EN" "http://www.w3.org/Graphics/SVG/1.1/DTD/svg11.dtd"><svg width="100%" height="100%" viewBox="0 0 2084 2084" version="1.1" xmlns="http://www.w3.org/2000/svg" xmlns:xlink="http://www.w3.org/1999/xlink" xml:space="preserve" xmlns:serif="http://www.serif.com/" style="fill-rule:evenodd;clip-rule:evenodd;stroke-linejoin:round;stroke-miterlimit:2;"><rect id="画板1" x="0" y="0" width="2083.33" height="2083.33" style="fill:none;"/><clipPath id="_clip1"><rect id="画板11" serif:id="画板1" x="0" y="0" width="2083.33" height="2083.33"/></clipPath><g clip-path="url(#_clip1)"><g><path d="M659.956,1073.41c-0,175.7 -142.367,318.067 -318.035,318.067c-175.668,-0 -318.066,-142.367 -318.066,-318.067l636.101,0Z" style="fill:#fff;fill-rule:nonzero;"/><path d="M2059.48,1073.41c0,175.7 -142.398,318.067 -318.066,318.067c-175.666,-0 -318.066,-142.367 -318.066,-318.067l636.132,0Z" style="fill:#fff;fill-rule:nonzero;"/><path d="M48.664,1097.27c12.182,151.082 139.059,270.357 293.257,270.357c154.199,-0 281.076,-119.275 293.257,-270.357l-586.514,0Zm293.257,318.066c-188.55,0 -341.921,-153.371 -341.921,-341.921c0,-13.168 10.687,-23.855 23.855,-23.855l636.101,0c13.168,0 23.855,10.687 23.855,23.855c-0,188.55 -153.341,341.921 -341.89,341.921Z" style="fill-rule:nonzero;"/><path d="M1448.16,1097.27c12.182,151.082 139.059,270.357 293.256,270.357c154.199,-0 281.076,-119.275 293.258,-270.357l-586.514,0Zm293.256,318.066c-188.549,0 -341.921,-153.371 -341.921,-341.921c-0,-13.168 10.687,-23.855 23.855,-23.855l636.132,0c13.168,0 23.855,10.687 23.855,23.855c0,188.55 -153.37,341.921 -341.921,341.921Z" style="fill-rule:nonzero;"/><path d="M121.533,1049.56l440.776,0l-220.388,-606.012l-220.388,606.012Zm474.841,47.71l-508.906,0c-7.792,0 -15.076,-3.785 -19.529,-10.178c-4.485,-6.393 -5.566,-14.536 -2.895,-21.819l254.453,-699.682c3.435,-9.447 12.405,-15.713 22.424,-15.713c10.019,-0 18.988,6.266 22.424,15.713l254.453,699.682c2.672,7.283 1.59,15.426 -2.895,21.819c-4.452,6.393 -11.736,10.178 -19.529,10.178Z" style="fill-rule:nonzero;"/><path d="M1521.03,1049.56l440.776,0l-220.389,-606.012l-220.387,606.012Zm474.84,47.71l-508.906,0c-7.792,0 -15.076,-3.785 -19.528,-10.178c-4.486,-6.393 -5.567,-14.536 -2.894,-21.819l254.453,-699.682c3.434,-9.447 12.403,-15.713 22.422,-15.713c10.019,-0 18.99,6.266 22.424,15.713l254.453,699.682c2.672,7.283 1.59,15.426 -2.894,21.819c-4.454,6.393 -11.737,10.178 -19.53,10.178Z" style="fill-rule:nonzero;"/><path d="M2059.48,2059.48l-2035.62,0l-0,-127.226c-0,-35.083 28.467,-63.613 63.613,-63.613l1908.4,-0c35.115,-0 63.613,28.53 63.613,63.613l0,127.226Z" style="fill:#fff;fill-rule:nonzero;"/><path d="M1900.44,1868.64l-1717.56,-0l0,-127.227c0,-35.146 28.467,-63.613 63.613,-63.613l1590.33,-0c35.115,-0 63.613,28.467 63.613,63.613l0,127.227Z" style="fill:#fff;fill-rule:nonzero;"/><rect x="882.602" y="278.372" width="318.097" height="1399.37" style="fill:#fff;fill-rule:nonzero;"/><path d="M1741.41,373.791l-1399.49,0c0,-105.407 85.433,-190.839 190.84,-190.839l1017.81,-0c105.377,-0 190.84,85.432 190.84,190.839Z" style="fill:#fff;fill-rule:nonzero;"/><path d="M367.461,349.873l1348.41,-0c-11.609,-80.821 -81.33,-143.13 -165.3,-143.13l-1017.81,0c-83.97,0 -153.69,62.309 -165.3,143.13Zm1373.95,47.71l-1399.49,-0c-13.168,-0 -23.855,-10.687 -23.855,-23.855c0,-118.353 96.31,-214.695 214.695,-214.695l1017.81,0c118.386,0 214.695,96.342 214.695,214.695c0,13.168 -10.687,23.855 -23.855,23.855Z" style="fill-rule:nonzero;"/><path d="M47.71,2035.62l1987.91,0l0,-103.371c0,-21.915 -17.842,-39.758 -39.758,-39.758l-1908.4,-0c-21.914,-0 -39.758,17.843 -39.758,39.758l-0,103.371Zm2011.77,47.71l-2035.62,0c-13.168,0 -23.855,-10.687 -23.855,-23.855l-0,-127.226c-0,-48.251 39.218,-87.468 87.468,-87.468l1908.4,-0c48.252,-0 87.468,39.217 87.468,87.468l0,127.226c0,13.168 -10.687,23.855 -23.855,23.855Z" style="fill-rule:nonzero;"/><path d="M206.743,1844.79l1669.85,-0l0,-103.372c0,-21.915 -17.842,-39.758 -39.758,-39.758l-1590.33,-0c-21.914,-0 -39.758,17.843 -39.758,39.758l0,103.372Zm1693.7,47.71l-1717.56,-0c-13.168,-0 -23.855,-10.687 -23.855,-23.855l0,-127.227c0,-48.251 39.218,-87.468 87.468,-87.468l1590.33,-0c48.252,-0 87.468,39.217 87.468,87.468l0,127.227c0,13.168 -10.687,23.855 -23.855,23.855Z" style="fill-rule:nonzero;"/><path d="M906.457,1653.88l270.387,0l0,-1351.72l-270.387,-0l-0,1351.72Zm294.242,47.71l-318.097,0c-13.168,0 -23.855,-10.687 -23.855,-23.855l-0,-1399.43c-0,-13.168 10.687,-23.855 23.855,-23.855l318.097,0c13.168,0 23.855,10.687 23.855,23.855l0,1399.43c0,13.168 -10.687,23.855 -23.855,23.855Z" style="fill-rule:nonzero;"/><path d="M1296.12,278.372c0,140.521 -113.93,254.453 -254.453,254.453c-140.521,-0 -254.484,-113.932 -254.484,-254.453c0,-140.586 113.963,-254.453 254.484,-254.453c140.523,-0 254.453,113.867 254.453,254.453Z" style="fill:#fff;fill-rule:nonzero;"/><path d="M1041.67,47.71c-127.162,-0 -230.629,103.435 -230.629,230.598c0,127.163 103.467,230.598 230.629,230.598c127.165,0 230.598,-103.435 230.598,-230.598c0,-127.163 -103.433,-230.598 -230.598,-230.598Zm0,508.906c-153.465,0 -278.339,-124.809 -278.339,-278.308c0,-153.435 124.874,-278.308 278.339,-278.308c153.468,0 278.308,124.873 278.308,278.308c0,153.499 -124.84,278.308 -278.308,278.308Z" style="fill-rule:nonzero;"/><path d="M1137.09,278.372c0,52.672 -42.715,95.419 -95.42,95.419c-52.703,0 -95.451,-42.747 -95.451,-95.419c0,-52.736 42.748,-95.42 95.451,-95.42c52.705,-0 95.42,42.684 95.42,95.42Z" style="fill:#fff;fill-rule:nonzero;"/><path d="M1041.67,206.743c-39.471,0 -71.596,32.125 -71.596,71.565c0,39.44 32.125,71.565 71.596,71.565c39.473,-0 71.565,-32.125 71.565,-71.565c0,-39.44 -32.092,-71.565 -71.565,-71.565Zm0,190.84c-65.807,-0 -119.306,-53.467 -119.306,-119.275c0,-65.713 53.499,-119.275 119.306,-119.275c65.776,0 119.275,53.562 119.275,119.275c0,65.808 -53.499,119.275 -119.275,119.275Z" style="fill-rule:nonzero;"/><path d="M596.374,635.21c0,35.147 28.467,63.614 63.582,63.614c35.114,-0 63.613,-28.467 63.613,-63.614c-0,-35.114 -28.499,-63.613 -63.613,-63.613c-35.115,-0 -63.582,28.499 -63.582,63.613Z" style="fill:#fff;fill-rule:nonzero;"/><path d="M659.956,595.452c-21.883,-0 -39.727,17.812 -39.727,39.758c0,21.915 17.844,39.759 39.727,39.759c21.946,-0 39.758,-17.844 39.758,-39.759c-0,-21.946 -17.812,-39.758 -39.758,-39.758Zm-0,127.226c-48.219,0 -87.437,-39.217 -87.437,-87.468c0,-48.219 39.218,-87.468 87.437,-87.468c48.282,0 87.468,39.249 87.468,87.468c-0,48.251 -39.186,87.468 -87.468,87.468Z" style="fill-rule:nonzero;"/><path d="M1313.01,849.905c-0,35.146 28.498,63.613 63.613,63.613c35.148,0 63.613,-28.467 63.613,-63.613c0,-35.114 -28.465,-63.613 -63.613,-63.613c-35.115,-0 -63.613,28.499 -63.613,63.613Z" style="fill:#fff;fill-rule:nonzero;"/><path d="M1376.62,810.147c-21.914,-0 -39.758,17.811 -39.758,39.758c-0,21.915 17.844,39.758 39.758,39.758c21.947,0 39.758,-17.843 39.758,-39.758c0,-21.947 -17.811,-39.758 -39.758,-39.758Zm-0,127.226c-48.219,0 -87.468,-39.217 -87.468,-87.468c-0,-48.219 39.249,-87.468 87.468,-87.468c48.252,-0 87.468,39.249 87.468,87.468c0,48.251 -39.216,87.468 -87.468,87.468Z" style="fill-rule:nonzero;"/><path d="M490.013,1518.7c0,35.178 28.499,63.613 63.613,63.613c35.146,0 63.614,-28.435 63.614,-63.613c-0,-35.083 -28.468,-63.613 -63.614,-63.613c-35.114,-0 -63.613,28.53 -63.613,63.613Z" style="fill:#fff;fill-rule:nonzero;"/><path d="M553.626,1478.94c-21.915,-0 -39.758,17.843 -39.758,39.758c0,21.947 17.843,39.758 39.758,39.758c21.946,0 39.759,-17.811 39.759,-39.758c-0,-21.915 -17.813,-39.758 -39.759,-39.758Zm0,127.226c-48.219,0 -87.468,-39.186 -87.468,-87.468c0,-48.187 39.249,-87.468 87.468,-87.468c48.251,-0 87.469,39.281 87.469,87.468c-0,48.282 -39.218,87.468 -87.469,87.468Z" style="fill-rule:nonzero;"/><path d="M23.855,373.728c-0,35.178 28.467,63.613 63.613,63.613c35.115,0 63.613,-28.435 63.613,-63.613c0,-35.083 -28.498,-63.613 -63.613,-63.613c-35.146,-0 -63.613,28.53 -63.613,63.613Z" style="fill:#fff;fill-rule:nonzero;"/><path d="M87.468,333.97c-21.914,-0 -39.758,17.843 -39.758,39.758c-0,21.947 17.844,39.758 39.758,39.758c21.915,0 39.759,-17.811 39.759,-39.758c-0,-21.915 -17.844,-39.758 -39.759,-39.758Zm0,127.226c-48.25,0 -87.468,-39.249 -87.468,-87.468c0,-48.251 39.218,-87.468 87.468,-87.468c48.251,-0 87.468,39.217 87.468,87.468c0,48.219 -39.217,87.468 -87.468,87.468Z" style="fill-rule:nonzero;"/><path d="M1932.22,500.954c-0,35.179 28.498,63.614 63.613,63.614c35.146,-0 63.613,-28.435 63.613,-63.614c0,-35.082 -28.467,-63.613 -63.613,-63.613c-35.115,0 -63.613,28.531 -63.613,63.613Z" style="fill:#fff;fill-rule:nonzero;"/><path d="M1995.83,461.196c-21.916,0 -39.758,17.844 -39.758,39.758c-0,21.947 17.842,39.759 39.758,39.759c21.947,-0 39.758,-17.812 39.758,-39.759c0,-21.914 -17.811,-39.758 -39.758,-39.758Zm0,127.227c-48.219,-0 -87.468,-39.186 -87.468,-87.469c-0,-48.187 39.249,-87.468 87.468,-87.468c48.252,0 87.468,39.281 87.468,87.468c0,48.283 -39.216,87.469 -87.468,87.469Z" style="fill-rule:nonzero;"/><path d="M1932.22,1471.06c-0,35.114 28.498,63.613 63.613,63.613c35.146,-0 63.613,-28.499 63.613,-63.613c0,-35.147 -28.467,-63.614 -63.613,-63.614c-35.115,0 -63.613,28.467 -63.613,63.614Z" style="fill:#fff;fill-rule:nonzero;"/><path d="M1995.83,1431.24c-21.916,-0 -39.758,17.843 -39.758,39.758c-0,21.947 17.842,39.758 39.758,39.758c21.947,0 39.758,-17.811 39.758,-39.758c0,-21.915 -17.811,-39.758 -39.758,-39.758Zm0,127.226c-48.219,0 -87.468,-39.186 -87.468,-87.468c-0,-48.187 39.249,-87.468 87.468,-87.468c48.252,-0 87.468,39.281 87.468,87.468c0,48.282 -39.216,87.468 -87.468,87.468Z" style="fill-rule:nonzero;"/></g></g></svg>