<?xml version="1.0" encoding="UTF-8" standalone="no"?><!DOCTYPE svg PUBLIC "-//W3C//DTD SVG 1.1//EN" "http://www.w3.org/Graphics/SVG/1.1/DTD/svg11.dtd"><svg width="100%" height="100%" viewBox="0 0 2084 2084" version="1.1" xmlns="http://www.w3.org/2000/svg" xmlns:xlink="http://www.w3.org/1999/xlink" xml:space="preserve" xmlns:serif="http://www.serif.com/" style="fill-rule:evenodd;clip-rule:evenodd;stroke-linejoin:round;stroke-miterlimit:2;"><rect id="画板1" x="0" y="0" width="2083.33" height="2083.33" style="fill:none;"/><g id="画板11" serif:id="画板1"><g><path d="M1463.28,698.663c230.28,-100.072 427.73,12.835 516.456,80.079c-113.931,15.066 -353.047,29.388 -516.456,-80.079Zm384.575,371.088c-94.214,-42.5 -273.899,-138.854 -368.206,-288.59c68.824,34.876 144.25,54.126 217.538,63.708c81.659,73.937 127.696,165.176 150.668,224.882Zm100.724,496.462c-114.581,-9.395 -351.279,-45.663 -487.996,-187.776c246.37,-49.198 415.545,103.331 487.996,187.776Zm-756.966,-888.105c48.92,-170.013 51.71,-417.403 8.556,-596.533c24.925,5.767 51.525,8.838 78.311,8.838c26.785,0 53.477,-3.071 78.495,-8.838c-43.34,179.039 -40.55,426.52 8.464,596.442c-51.711,17.95 -122.302,18.04 -173.826,0.091Zm-0,1328.58c48.92,-170.014 51.71,-417.5 8.556,-596.534c24.925,5.859 51.525,8.833 78.311,8.833c26.785,0 53.477,-2.974 78.495,-8.833c-43.34,179.034 -40.55,426.424 8.464,596.346c-51.711,18.137 -122.302,18.228 -173.826,0.188Zm8.556,-1260.78c24.925,5.767 51.525,8.839 78.311,8.839c26.785,-0 53.477,-3.072 78.495,-8.839c-43.34,178.942 -40.55,426.429 8.464,596.352c-51.711,17.949 -122.302,18.04 -173.826,0.181c48.92,-170.104 51.71,-417.5 8.556,-596.533Zm874.06,30.693c-2.976,-3.252 -297.988,-295.011 -651.871,-128.625c-47.99,-178.755 -44.27,-440.842 11.347,-606.393l-0,-0.557l1.023,-7.72l0.465,-4.371l-1.209,-4.183l-2.326,-7.63l-0.093,-0.465l-2.883,-3.531l-4.65,-5.677l-6.418,-3.627l-3.813,-2.134l-0.372,-0.097l-8.835,-1.112l-3.441,-0.375l-4.929,1.396l-6.883,2.044l-0.465,0.096c-58.779,31.619 -162.014,31.619 -220.7,0l-0.465,-0.096l-7.627,-2.231l-4.278,-1.209l-3.534,0.375l-8.65,1.112l-0.465,0.097l-3.813,2.134l-6.417,3.627l-4.651,5.768l-2.883,3.44l-0.186,0.465l-2.232,7.63l-1.116,4.183l0.465,4.28l0.837,7.902l0.093,0.466c59.71,177.545 59.71,466.511 0,644.153l-0.372,3.628l-1.023,3.814l0.186,2.6l0.651,5.768l0.465,3.814l0.093,0.557c59.71,177.455 59.71,466.42 0,644.154l-0.372,3.627l-1.023,3.809l0.186,2.515l0.651,5.858l0.465,3.815l0.093,0.465c59.71,177.637 59.71,466.511 0,644.148l-0.372,3.537l-0.837,6.323l0.651,5.955l1.581,5.762l2.697,5.211l3.628,4.74l4.929,4.002l2.79,2.327c38.69,20.737 89.378,31.062 140.159,31.062c50.78,0 101.561,-10.325 140.158,-31.062l2.883,-2.327l4.836,-4.002l3.534,-4.74l2.883,-5.302l1.581,-5.671l0.559,-5.955l-0.745,-6.323l-0.464,-3.537c-53.943,-160.34 -58.966,-411.267 -15.625,-589.182c197.821,202.285 560.075,207.308 594.766,207.308l2.046,0c11.533,-0.096 22.042,-6.42 27.529,-16.462c5.487,-10.047 5.023,-22.229 -1.116,-31.993c-2.325,-3.724 -231.21,-355.097 -616.157,-262.093c-43.061,-151.314 -47.526,-366.53 -13.671,-531.519c134.019,242.463 461.118,358.719 476.556,364.112l10.417,1.771l21.019,-8.095c8.556,-7.623 12.276,-19.346 9.765,-30.506c-0.558,-2.509 -34.132,-141.46 -139.321,-265.436c11.905,0.466 23.809,0.653 35.342,0.653c126.673,-0 225.072,-21.486 233.442,-23.342c11.253,-2.515 20.182,-10.979 23.345,-21.951c3.254,-11.07 0.278,-22.883 -7.813,-30.972Z" style="fill:#0b0b16;fill-rule:nonzero;"/><path d="M718.121,1089.75c48.921,-169.922 51.711,-417.404 8.463,-596.442c25.019,5.863 51.618,8.838 78.404,8.838c26.785,0 53.384,-2.975 78.403,-8.838c-43.341,179.129 -40.458,426.616 8.463,596.533c-51.618,17.949 -122.208,17.858 -173.733,-0.091Zm0,664.238c48.921,-170.008 51.711,-417.313 8.463,-596.346c25.019,5.767 51.618,8.838 78.404,8.838c26.785,0 53.384,-3.071 78.403,-8.838c-43.341,179.033 -40.458,426.429 8.463,596.533c-51.618,17.858 -122.208,17.858 -173.733,-0.187Zm-614.483,-560.351c88.727,-67.336 286.362,-180.339 516.456,-80.079c-163.503,109.563 -402.432,95.144 -516.456,80.079Zm132.718,290.543c23.623,-59.615 70.405,-150.849 152.156,-224.792c72.544,-9.485 147.134,-28.831 215.213,-63.429c-93.934,149.089 -272.876,245.443 -367.369,288.221Zm723.857,-1031.33l1.023,-7.811l0.465,-4.371l-1.209,-4.28l-2.232,-7.624l-0.186,-0.465l-2.884,-3.537l-4.649,-5.483l-6.418,-3.724l-3.813,-2.231l-0.466,-0.091l-8.556,-1.022l-3.627,-0.374l-5.022,1.299l-6.789,2.141l-0.465,0.187c-58.873,31.624 -162.015,31.437 -220.794,-0l-0.372,-0.187l-7.534,-2.322l-4.371,-1.118l-3.72,0.465l-8.463,0.931l-0.466,0.091l-3.813,2.14l-6.417,3.815l-4.557,5.483l-2.976,3.537l-0.187,0.465l-3.44,11.904l0.465,4.462l1.023,7.72l-0,0.562c55.988,166.289 59.523,430.329 10.602,609.084c-353.512,-165.637 -648.151,125.838 -651.22,128.909c-8.091,8.089 -11.068,19.993 -7.905,31.062c3.348,10.973 12.276,19.346 23.437,21.855c8.37,1.953 106.863,23.438 233.535,23.438c11.533,0 23.345,-0.278 35.249,-0.743c-105.188,124.158 -138.67,263.018 -139.321,265.527c-2.511,11.16 1.302,22.882 9.766,30.506l21.111,8.094l10.324,-1.861c15.439,-5.393 343.467,-122.024 477.022,-365.231c35.621,175.219 28.18,406.618 -22.6,557.751l-0.372,3.628l-0.837,6.227l0.557,5.864l1.582,5.761l2.883,5.211l3.534,4.837l4.929,4.093l2.697,2.321c38.69,20.555 89.471,30.972 140.252,30.972c50.78,-0 101.561,-10.417 140.158,-30.972l2.79,-2.321l4.836,-4.093l3.627,-4.837l2.883,-5.211l1.489,-5.761l0.651,-5.864l-0.837,-6.227l-0.372,-3.628c-59.802,-177.642 -59.802,-466.608 -0,-644.154l-0,-0.465l0.558,-3.815l0.651,-5.858l0.279,-2.6l-1.116,-3.815l-0.372,-3.536c-59.802,-177.637 -59.802,-466.699 -0,-644.148l-0,-0.562Z" style="fill:#0b0b16;fill-rule:nonzero;"/></g></g></svg>