<?xml version="1.0" encoding="UTF-8" standalone="no"?><!DOCTYPE svg PUBLIC "-//W3C//DTD SVG 1.1//EN" "http://www.w3.org/Graphics/SVG/1.1/DTD/svg11.dtd"><svg width="100%" height="100%" viewBox="0 0 2084 2084" version="1.1" xmlns="http://www.w3.org/2000/svg" xmlns:xlink="http://www.w3.org/1999/xlink" xml:space="preserve" xmlns:serif="http://www.serif.com/" style="fill-rule:evenodd;clip-rule:evenodd;stroke-linejoin:round;stroke-miterlimit:2;"><rect id="画板1" x="0" y="0" width="2083.33" height="2083.33" style="fill:none;"/><clipPath id="_clip1"><rect id="画板11" serif:id="画板1" x="0" y="0" width="2083.33" height="2083.33"/></clipPath><g clip-path="url(#_clip1)"><g><path d="M902.954,1892.03c-328.482,-0 -633.621,-146.664 -838.969,-402.978c0.837,-7.254 2.697,-17.483 6.231,-28.83c193.165,164.706 500.536,244.317 763.266,244.317c69.937,-0 136.806,-5.674 197.443,-16.833c267.473,-49.107 499.606,-192.421 653.616,-403.537c148.617,-203.581 209.44,-451.337 173.542,-701.697c17.484,2.325 28.83,5.671 28.924,5.671c19.344,8.185 37.014,19.626 52.731,33.76l6.231,5.861c46.315,44.826 74.309,113.09 74.309,189.631c-0,582.47 -511.696,1074.63 -1117.32,1074.63Zm-787.632,-491.609c95.327,23.81 709.511,161.451 1162.34,-117.739c227.854,-140.527 375.541,-364.197 439.154,-664.778c24.274,-20.367 51.802,-30.224 77.564,-34.504c36.084,236.691 -20.461,471.148 -160.801,663.569c-144.431,198 -362.52,332.389 -613.998,378.702c-269.798,49.572 -687.004,-21.11 -913.556,-218.739l9.3,-6.511Zm602.558,-87.515c-221.901,-139.503 -365.776,-367.915 -396.28,-627.947l7.44,-7.998c81.469,245.804 340.387,475.332 558.383,562.382c73.658,29.389 149.454,48.081 225.529,56.823c-91.607,38.131 -187.399,62.312 -281.981,76.728c-38.596,-17.112 -76.448,-36.829 -113.091,-59.988Zm513.928,-243.571l6.976,0c77.47,0 152.337,-11.997 224.599,-35.341c-60.823,77.193 -133.737,142.386 -218.554,194.745l-17.02,9.86c-106.022,2.512 -213.717,-16.74 -317.042,-57.942c-201.256,-80.258 -449.85,-300.859 -523.043,-527.877c65.939,67.892 421.391,412.743 844.084,416.555Zm600.513,-865.196c-32.458,136.528 -2.325,243.386 34.969,316.021c-34.969,-4.743 -87.05,-5.393 -138.294,16.833c5.581,-71.332 2.883,-186.282 -49.756,-303.837c49.756,-59.148 118.205,-43.061 153.081,-29.017Zm159.313,381.214l-3.07,-4.184c-1.581,-1.396 -158.289,-144.339 -88.817,-385.585c4,-13.859 -1.953,-28.739 -14.508,-35.991c-58.312,-33.947 -189.631,-66.683 -268.868,52.265c-6.231,9.301 -6.975,21.298 -2.046,31.527c84.26,171.963 43.339,348.944 42.967,350.712l-0,0.372l-0.279,0.744c-26.692,130.945 -70.124,246.176 -129.645,345.685c-93.095,43.899 -191.397,66.127 -294.722,65.381c-431.343,-3.718 -805.489,-403.44 -809.209,-407.439l-3.162,-2.325l-5.394,-3.999l-5.953,-2.046l-3.813,-1.49c-88.723,-13.578 -140.711,66.499 -142.943,69.939l-4.743,20.182c29.389,284.676 184.98,535.132 426.785,687.375c10.788,6.696 21.762,12.928 32.83,19.158c-317.694,24.088 -592.701,-48.081 -596.979,-49.103l-20.739,1.393c-97.559,42.318 -99.233,156.058 -99.326,160.985l6.789,19.626c217.438,277.516 544.06,436.642 896.165,436.642c639.853,-0 1180.38,-521.089 1180.38,-1137.78c0,-92.352 -34.225,-175.125 -91.699,-232.042Z" style="fill:#0b0b16;fill-rule:nonzero;"/></g></g></svg>