<?xml version="1.0" encoding="UTF-8" standalone="no"?><!DOCTYPE svg PUBLIC "-//W3C//DTD SVG 1.1//EN" "http://www.w3.org/Graphics/SVG/1.1/DTD/svg11.dtd"><svg width="100%" height="100%" viewBox="0 0 2084 2084" version="1.1" xmlns="http://www.w3.org/2000/svg" xmlns:xlink="http://www.w3.org/1999/xlink" xml:space="preserve" xmlns:serif="http://www.serif.com/" style="fill-rule:evenodd;clip-rule:evenodd;stroke-linejoin:round;stroke-miterlimit:2;"><rect id="画板1" x="0" y="0" width="2083.33" height="2083.33" style="fill:none;"/><clipPath id="_clip1"><rect id="画板11" serif:id="画板1" x="0" y="0" width="2083.33" height="2083.33"/></clipPath><g clip-path="url(#_clip1)"><g><path d="M2059.47,596.275l-2035.61,0l1017.81,-572.42l1017.81,572.42Z" style="fill:#fff;fill-rule:nonzero;"/><path d="M2059.47,2059.47l-2035.61,-0l-0,-127.226c-0,-35.083 28.466,-63.613 63.613,-63.613l1908.39,-0c35.145,-0 63.613,28.53 63.613,63.613l-0,127.226Z" style="fill:#fff;fill-rule:nonzero;"/><path d="M1900.44,1868.63l-1717.55,-0l0,-127.226c0,-35.146 28.467,-63.613 63.613,-63.613l1590.32,0c35.146,0 63.613,28.467 63.613,63.613l0,127.226Z" style="fill:#fff;fill-rule:nonzero;"/><path d="M1836.82,787.114l-1590.32,0c-35.146,0 -63.613,-28.467 -63.613,-63.613l0,-127.226l1717.55,0l0,127.226c0,35.146 -28.467,63.613 -63.613,63.613Z" style="fill:#fff;fill-rule:nonzero;"/><rect x="914.436" y="787.146" width="254.452" height="890.581" style="fill:#fff;fill-rule:nonzero;"/><rect x="1487.02" y="787.146" width="254.452" height="890.581" style="fill:#fff;fill-rule:nonzero;"/><rect x="341.856" y="787.146" width="254.452" height="890.581" style="fill:#fff;fill-rule:nonzero;"/><path d="M114.949,572.42l1853.46,0l-926.744,-521.148l-926.713,521.148Zm1944.52,47.71l-2035.61,0c-10.814,0 -20.325,-7.347 -23.06,-17.78c-2.767,-10.496 1.908,-21.564 11.387,-26.844l1017.81,-572.389c7.251,-4.103 16.125,-4.103 23.377,-0l1017.81,572.389c9.446,5.28 14.121,16.348 11.386,26.844c-2.736,10.433 -12.246,17.78 -23.09,17.78Z" style="fill-rule:nonzero;"/><path d="M1437.56,437.243l-791.789,0l395.895,-222.645l395.894,222.645Z" style="fill:#fff;fill-rule:nonzero;"/><path d="M736.861,413.388l609.601,0l-304.8,-171.469l-304.801,171.469Zm700.695,47.71l-791.789,-0c-10.846,-0 -20.325,-7.347 -23.06,-17.844c-2.768,-10.496 1.908,-21.501 11.355,-26.844l395.927,-222.645c7.251,-4.103 16.125,-4.103 23.377,-0l395.894,222.645c9.448,5.343 14.123,16.348 11.388,26.844c-2.767,10.497 -12.246,17.844 -23.092,17.844Z" style="fill-rule:nonzero;"/><path d="M47.71,2035.61l1987.9,-0l-0,-103.371c-0,-21.915 -17.814,-39.758 -39.758,-39.758l-1908.39,-0c-21.915,-0 -39.758,17.843 -39.758,39.758l-0,103.371Zm2011.76,47.709l-2035.61,0c-13.168,0 -23.855,-10.655 -23.855,-23.854l0,-127.226c0,-48.187 39.249,-87.468 87.468,-87.468l1908.39,0c48.249,0 87.467,39.281 87.467,87.468l0,127.226c0,13.199 -10.686,23.854 -23.854,23.854Z" style="fill-rule:nonzero;"/><path d="M206.742,1844.77l1669.84,0l-0,-103.371c-0,-21.915 -17.814,-39.758 -39.759,-39.758l-1590.32,0c-21.915,0 -39.758,17.843 -39.758,39.758l-0,103.371Zm1693.69,47.71l-1717.55,-0c-13.168,-0 -23.855,-10.656 -23.855,-23.855l0,-127.226c0,-48.25 39.25,-87.468 87.468,-87.468l1590.32,0c48.25,0 87.468,39.218 87.468,87.468l0,127.226c0,13.199 -10.687,23.855 -23.855,23.855Z" style="fill-rule:nonzero;"/><path d="M206.742,620.13l-0,103.371c-0,21.915 17.843,39.758 39.758,39.758l1590.32,0c21.945,0 39.759,-17.843 39.759,-39.758l-0,-103.371l-1669.84,0Zm1630.08,190.839l-1590.32,-0c-48.218,-0 -87.468,-39.218 -87.468,-87.468l0,-127.226c0,-13.199 10.687,-23.855 23.855,-23.855l1717.55,0c13.168,0 23.855,10.656 23.855,23.855l0,127.226c0,48.25 -39.218,87.468 -87.468,87.468Z" style="fill-rule:nonzero;"/><path d="M938.291,1653.87l206.742,-0l0,-842.871l-206.742,-0l0,842.871Zm230.597,47.71l-254.452,-0c-13.167,-0 -23.854,-10.656 -23.854,-23.855l-0,-890.581c-0,-13.168 10.687,-23.855 23.854,-23.855l254.452,0c13.168,0 23.855,10.687 23.855,23.855l-0,890.581c-0,13.199 -10.687,23.855 -23.855,23.855Z" style="fill-rule:nonzero;"/><path d="M1510.87,1653.87l206.742,-0l0,-842.871l-206.742,-0l0,842.871Zm230.597,47.71l-254.451,-0c-13.168,-0 -23.855,-10.656 -23.855,-23.855l-0,-890.581c-0,-13.168 10.687,-23.855 23.855,-23.855l254.451,0c13.168,0 23.855,10.687 23.855,23.855l0,890.581c0,13.199 -10.687,23.855 -23.855,23.855Z" style="fill-rule:nonzero;"/><path d="M365.711,1653.87l206.742,-0l0,-842.871l-206.742,-0l0,842.871Zm230.597,47.71l-254.452,-0c-13.168,-0 -23.855,-10.656 -23.855,-23.855l0,-890.581c0,-13.168 10.687,-23.855 23.855,-23.855l254.452,0c13.199,0 23.855,10.687 23.855,23.855l-0,890.581c-0,13.199 -10.656,23.855 -23.855,23.855Z" style="fill-rule:nonzero;"/><path d="M2059.47,993.952l-127.226,-0c-13.168,-0 -23.855,-10.656 -23.855,-23.855c-0,-13.168 10.687,-23.855 23.855,-23.855l127.226,-0c13.168,-0 23.854,10.687 23.854,23.855c0,13.199 -10.686,23.855 -23.854,23.855Z" style="fill-rule:nonzero;"/><path d="M1995.86,1057.56c-13.168,0 -23.855,-10.655 -23.855,-23.854l-0,-127.226c-0,-13.168 10.687,-23.855 23.855,-23.855c13.168,-0 23.855,10.687 23.855,23.855l-0,127.226c-0,13.199 -10.687,23.854 -23.855,23.854Z" style="fill-rule:nonzero;"/><path d="M1582.34,111.323l-127.226,-0c-13.168,-0 -23.855,-10.656 -23.855,-23.855c0,-13.168 10.687,-23.855 23.855,-23.855l127.226,-0c13.168,-0 23.855,10.687 23.855,23.855c-0,13.199 -10.687,23.855 -23.855,23.855Z" style="fill-rule:nonzero;"/><path d="M1518.73,174.935c-13.168,0 -23.855,-10.655 -23.855,-23.854l0,-127.226c0,-13.168 10.687,-23.855 23.855,-23.855c13.168,0 23.855,10.687 23.855,23.855l-0,127.226c-0,13.199 -10.687,23.854 -23.855,23.854Z" style="fill-rule:nonzero;"/><path d="M214.534,1153.05l-127.225,0c-13.199,0 -23.855,-10.687 -23.855,-23.854c-0,-13.168 10.656,-23.855 23.855,-23.855l127.225,-0c13.168,-0 23.855,10.687 23.855,23.855c0,13.167 -10.687,23.854 -23.855,23.854Z" style="fill-rule:nonzero;"/><path d="M150.921,1216.66c-13.199,0 -23.854,-10.687 -23.854,-23.855l-0,-127.225c-0,-13.168 10.655,-23.855 23.854,-23.855c13.168,-0 23.855,10.687 23.855,23.855l0,127.225c0,13.168 -10.687,23.855 -23.855,23.855Z" style="fill-rule:nonzero;"/><path d="M437.18,230.533l-127.226,0c-13.168,0 -23.855,-10.655 -23.855,-23.855c-0,-13.168 10.687,-23.854 23.855,-23.854l127.226,-0c13.167,-0 23.854,10.686 23.854,23.854c0,13.2 -10.687,23.855 -23.854,23.855Z" style="fill-rule:nonzero;"/><path d="M373.567,294.146c-13.168,0 -23.855,-10.655 -23.855,-23.855l-0,-127.226c-0,-13.167 10.687,-23.854 23.855,-23.854c13.168,-0 23.854,10.687 23.854,23.854l0,127.226c0,13.2 -10.686,23.855 -23.854,23.855Z" style="fill-rule:nonzero;"/><path d="M1995.86,1439.31l-127.226,0c-13.168,0 -23.855,-10.686 -23.855,-23.854c0,-13.168 10.687,-23.855 23.855,-23.855l127.226,-0c13.168,-0 23.855,10.687 23.855,23.855c-0,13.168 -10.687,23.854 -23.855,23.854Z" style="fill-rule:nonzero;"/><path d="M1932.24,1502.92c-13.168,0 -23.855,-10.687 -23.855,-23.854l-0,-127.226c-0,-13.168 10.687,-23.855 23.855,-23.855c13.168,-0 23.855,10.687 23.855,23.855l-0,127.226c-0,13.167 -10.687,23.854 -23.855,23.854Z" style="fill-rule:nonzero;"/></g></g></svg>