<?xml version="1.0" encoding="UTF-8" standalone="no"?><!DOCTYPE svg PUBLIC "-//W3C//DTD SVG 1.1//EN" "http://www.w3.org/Graphics/SVG/1.1/DTD/svg11.dtd"><svg width="100%" height="100%" viewBox="0 0 2084 2084" version="1.1" xmlns="http://www.w3.org/2000/svg" xmlns:xlink="http://www.w3.org/1999/xlink" xml:space="preserve" xmlns:serif="http://www.serif.com/" style="fill-rule:evenodd;clip-rule:evenodd;stroke-linejoin:round;stroke-miterlimit:2;"><rect id="画板1" x="0" y="0" width="2083.33" height="2083.33" style="fill:none;"/><clipPath id="_clip1"><rect id="画板11" serif:id="画板1" x="0" y="0" width="2083.33" height="2083.33"/></clipPath><g clip-path="url(#_clip1)"><g><path d="M2011.35,1418.14l-593.278,593.279c-11.811,11.811 -32.738,11.811 -44.456,-0l-86.03,-86.124c-12.183,-12.183 -12.183,-32.179 0,-44.456l593.278,-593.185l22.228,-9.207l22.228,9.207l86.03,86.029c5.86,5.953 9.115,13.766 9.115,22.229c0,8.37 -3.255,16.275 -9.115,22.228Zm-56.453,318.914l-217.911,217.817l-86.773,-86.773l217.817,-217.911l86.867,86.867Zm-842.904,230.558c-11.812,11.812 -32.738,11.812 -44.456,0l-86.03,-86.028c-12.277,-12.277 -12.277,-32.18 -0,-44.364l855.645,-855.553l22.228,-9.299l22.228,9.207l86.03,85.936c5.86,5.952 9.115,13.858 9.115,22.322c0,8.37 -3.255,16.182 -9.115,22.228l-131.23,131.136l-296.592,296.594l-427.823,427.821Zm-502.506,-1140.15l217.911,-217.911l646.478,646.477l-218.005,217.91l-646.384,-646.476Zm-363.37,274.457c-12.091,12.183 -32.087,12.183 -44.364,-0l-86.03,-86.122c-12.183,-12.184 -12.183,-32.181 0,-44.364l131.231,-131.23l724.416,-724.415c12.183,-12.277 32.087,-12.277 44.456,-0l86.03,86.03c12.183,12.277 12.183,32.179 -0,44.363l-855.739,855.738Zm-88.076,-306.172l-86.122,-85.937c-12.091,-12.276 -12.091,-32.273 -0,-44.456l593.372,-593.371l22.228,-9.115l22.228,9.115l86.03,86.122c5.858,5.952 9.113,13.764 9.113,22.134c0,8.464 -3.255,16.37 -9.113,22.322l-593.28,593.186c-12.276,12.276 -32.273,12.184 -44.456,0Zm-55.802,-475.535l217.911,-218.003l113,113.001l-217.911,218.003l-113,-113.001Zm1981.1,1075.7c0,-25.205 -9.858,-48.92 -27.622,-66.685l-85.936,-86.03c-7.906,-7.812 -16.928,-13.578 -26.321,-18.135l68.545,-68.639c17.763,-17.669 27.622,-41.48 27.622,-66.59c-0,-25.298 -9.859,-49.014 -27.622,-66.685l-86.03,-86.03c-36.737,-36.736 -96.539,-36.736 -133.276,-0l-274.458,274.365l-646.384,-646.385l274.458,-274.457c36.737,-36.737 36.737,-96.446 -0,-133.276l-86.124,-86.029c-36.736,-36.83 -96.538,-36.738 -133.276,-0l-68.636,68.636c-4.465,-9.671 -10.417,-18.6 -18.043,-26.227l-86.124,-86.122c-36.736,-36.829 -96.538,-36.829 -133.276,0l-143.227,143.227l-135.228,-135.135c-12.277,-12.371 -32.181,-12.371 -44.458,0l-262.273,262.273l-9.208,22.228l9.208,22.136l135.136,135.322l-143.228,143.227c-36.736,36.738 -36.736,96.633 -0,133.276l86.03,86.03c7.906,7.906 16.834,13.672 26.321,18.135l-68.545,68.639c-17.857,17.763 -27.622,41.388 -27.622,66.592c-0,25.297 9.765,48.92 27.622,66.684l85.936,86.03c18.415,18.414 42.504,27.622 66.684,27.622c24.089,-0 48.27,-9.208 66.686,-27.622l274.456,-274.365l646.386,646.476l-274.366,274.366c-36.83,36.736 -36.83,96.539 0,133.276l85.938,86.122c17.763,17.671 41.48,27.53 66.684,27.53c25.204,0 48.92,-9.859 66.684,-27.53l68.544,-68.73c4.559,9.487 10.325,18.6 18.137,26.413l86.03,85.936c17.763,17.857 41.48,27.53 66.684,27.53c25.204,-0 48.921,-9.673 66.684,-27.53l143.229,-143.227l108.907,109.002l22.322,9.301l22.136,-9.301l262.367,-262.367c12.275,-12.277 12.275,-32.179 -0,-44.456l-109.003,-109.002l143.228,-143.228c17.764,-17.671 27.622,-41.387 27.622,-66.591Z" style="fill:#0b0b16;fill-rule:nonzero;"/></g></g></svg>