<?xml version="1.0" encoding="UTF-8" standalone="no"?><!DOCTYPE svg PUBLIC "-//W3C//DTD SVG 1.1//EN" "http://www.w3.org/Graphics/SVG/1.1/DTD/svg11.dtd"><svg width="100%" height="100%" viewBox="0 0 2084 2084" version="1.1" xmlns="http://www.w3.org/2000/svg" xmlns:xlink="http://www.w3.org/1999/xlink" xml:space="preserve" xmlns:serif="http://www.serif.com/" style="fill-rule:evenodd;clip-rule:evenodd;stroke-linejoin:round;stroke-miterlimit:2;"><rect id="画板1" x="0" y="0" width="2083.33" height="2083.33" style="fill:none;"/><g id="画板11" serif:id="画板1"><g><path d="M1839.24,1191.22c-35.624,-28.923 -94.216,-51.896 -165.46,-70.22c0.559,-9.395 0.187,-18.603 -2.137,-27.623c-7.908,-31.619 -32.369,-58.407 -72.92,-79.984c46.503,-16.184 76.731,-39.339 90.216,-69.198c7.908,-17.484 13.672,-46.129 -3.533,-83.237c-16.463,-35.53 -39.899,-57.572 -69.661,-65.758c-30.878,-8.464 -66.034,-0.744 -104.354,22.973c9.301,-44.641 5.117,-79.893 -12.554,-104.819c-10.698,-15.253 -31.996,-34.037 -72.082,-37.483c-40.086,-3.531 -71.614,5.955 -94.306,28.276c-24.183,23.717 -35.808,60.081 -34.693,107.89c-32.365,-27.344 -64.265,-39.81 -93.843,-36.927c-27.435,2.515 -51.431,17.303 -71.242,43.994c-24.367,32.828 -32.925,65.106 -25.576,95.89c7.348,31.341 30.972,58.129 70.033,79.797c-42.133,14.787 -69.94,36.274 -84.077,63.34c-17.765,-0.375 -35.156,-0.562 -51.433,-0.562c-23.065,-0 -48.084,0.374 -74.032,0.931c-10.323,-10.973 -22.508,-21.668 -38.04,-31.341c47.525,-12.835 79.334,-33.855 94.681,-62.778c9.114,-16.928 16.834,-45.016 2.325,-83.151c-13.951,-36.643 -35.809,-60.36 -64.918,-70.499c-30.135,-10.694 -65.756,-5.392 -105.657,15.628c12.279,-43.807 10.604,-79.24 -5.393,-105.375c-9.579,-15.997 -29.39,-36.183 -69.289,-42.411c-39.529,-6.233 -71.801,1.21 -95.983,21.759c-25.764,21.952 -39.992,57.294 -42.132,105.194c-29.576,-28.741 -59.616,-43.438 -89.007,-43.438l-1.953,0.097c-27.53,0.556 -52.549,13.766 -74.126,38.873c-26.693,31.069 -37.481,62.688 -32.273,93.937c5.395,31.807 26.971,60.082 64.361,84.452c-45.574,12.647 -76.358,33.481 -91.333,61.756c-8.556,16.184 -15.717,42.598 -3.72,78.4c-73.754,18.421 -134.58,41.854 -171.039,71.617c-33.296,-93.006 -50.408,-186.944 -50.408,-280.131c-0,-467.546 380.487,-847.937 847.936,-847.937c467.542,-0 847.937,380.391 847.937,847.937c-0,93.187 -17.022,187.125 -50.315,280.131Zm-609.376,198.103c3.346,-62.591 15.531,-116.536 32.549,-161.551c-0.556,26.691 5.024,49.012 17.394,66.405c10.788,15.253 32.365,34.043 72.916,37.574l15.531,0.652c32.647,0 59.154,-9.673 78.778,-29.019c24.182,-23.62 35.808,-59.803 34.69,-107.697c32.368,27.248 63.803,39.714 93.75,36.83c27.438,-2.515 51.527,-17.393 71.244,-44.085l4.928,-7.72c105.841,26.226 161.832,55.802 161.832,76.635c0,40.179 -204.521,113.096 -583.612,131.976Zm494.605,124.256l-7.998,3.259l-13.022,4.836l-16.091,5.484l-14.135,4.649l-17.671,5.211l-15.069,4.28l-19.436,5.018l-15.906,3.906l-20.74,4.746l-17.019,3.718l-21.857,4.371l-17.95,3.349l-23.252,4.002l-18.602,3.065l-24.461,3.724l-19.343,2.787c-8.37,1.119 -16.834,2.141 -25.485,3.259l-19.996,2.418c-8.742,1.022 -17.671,1.953 -26.601,2.975l-20.461,2.043c-9.114,1.028 -18.415,1.771 -27.714,2.606l-20.926,1.765c-9.395,0.75 -19.068,1.493 -28.741,2.237l-21.018,1.391c-9.858,0.652 -19.902,1.209 -29.947,1.674l-21.021,1.209c-10.601,0.466 -21.483,0.841 -31.993,1.306l-19.996,0.744c-12.185,0.369 -24.555,0.652 -36.924,0.931l-15.903,0.369c-17.672,0.278 -35.715,0.374 -53.573,0.374c-17.95,0 -35.9,-0.096 -53.571,-0.374l-15.997,-0.369c-12.369,-0.279 -24.832,-0.562 -36.83,-0.931l-20.183,-0.84c-10.695,-0.369 -21.205,-0.744 -31.715,-1.113l-21.484,-1.306c-9.86,-0.556 -19.718,-1.022 -29.484,-1.674l-21.483,-1.391c-9.58,-0.744 -18.975,-1.487 -28.367,-2.237l-21.298,-1.765c-9.208,-0.835 -18.415,-1.578 -27.251,-2.606l-21.021,-2.134c-8.648,-0.931 -17.484,-1.862 -25.948,-2.793l-20.739,-2.696l-24.926,-3.072l-19.626,-2.883l-23.995,-3.628l-18.973,-3.065l-22.973,-4.002l-18.136,-3.44l-21.67,-4.28l-17.3,-3.718l-20.368,-4.65l-16.182,-4.093l-19.16,-4.927l-15.254,-4.28l-17.577,-5.211l-14.23,-4.649l-16.091,-5.484l-13.02,-4.836l-7.905,-3.259c-19.16,-57.01 -37.482,-110.121 -53.014,-154.297c120.628,53.014 331.103,79.893 519.533,91.054l1.209,0.556l5.858,0.465l2.512,-0.465c75.241,4.28 146.577,6.233 206.659,6.233c45.665,-0 97.936,-1.209 153.275,-3.537l1.952,0.375l3.162,-0.556c201.453,-8.93 444.291,-35.621 577.383,-94.125c-15.531,44.176 -33.856,97.377 -52.921,154.297Zm-75.241,238.936l-23.904,6.323c-9.208,2.231 -18.321,4.837 -28.088,7.068c-11.348,2.696 -23.436,5.115 -35.343,7.442c-10.229,2.134 -20.18,4.274 -30.784,6.324c-12.463,2.231 -25.576,4.371 -38.599,6.414c-10.879,1.862 -21.67,3.724 -33.015,5.399c-13.578,1.953 -27.81,3.718 -41.76,5.393c-11.532,1.487 -22.88,3.065 -34.599,4.371c-14.882,1.674 -30.319,3.065 -45.572,4.558c-11.72,1.113 -23.158,2.231 -35.065,3.253c-16.462,1.396 -33.481,2.418 -50.315,3.44c-11.348,0.743 -22.414,1.584 -33.946,2.236c-18.881,0.926 -38.133,1.578 -57.385,2.322c-9.952,0.278 -19.718,0.84 -29.857,1.118c-29.388,0.744 -59.244,1.113 -89.378,1.113c-30.041,0 -59.895,-0.369 -89.379,-1.113c-10.045,-0.278 -19.809,-0.84 -29.575,-1.118c-19.346,-0.744 -38.783,-1.396 -57.664,-2.322c-11.535,-0.652 -22.508,-1.493 -33.668,-2.236c-16.928,-1.022 -34.04,-2.044 -50.596,-3.44c-11.904,-1.022 -23.158,-2.14 -34.784,-3.253c-15.346,-1.493 -30.878,-2.884 -45.853,-4.558c-11.81,-1.306 -22.879,-2.884 -34.318,-4.371c-14.137,-1.675 -28.46,-3.44 -42.038,-5.393c-11.348,-1.675 -21.95,-3.446 -32.926,-5.302c-13.021,-2.14 -26.228,-4.28 -38.783,-6.511c-10.417,-2.05 -20.461,-4.093 -30.6,-6.324c-11.997,-2.327 -23.995,-4.746 -35.435,-7.442c-9.671,-2.231 -18.787,-4.746 -28.088,-7.068l-23.901,-6.323c-13.58,-47.344 -30.321,-101.845 -50.131,-162.761c9.951,3.162 20.276,6.227 30.878,9.111l8.091,2.231c8.743,2.327 17.485,4.746 26.693,6.977l13.3,3.161l23.53,5.49l15.533,3.252l23.809,4.837l16.369,2.98c8.185,1.578 16.648,2.975 25.112,4.462l16.648,2.696c9.115,1.584 18.415,2.793 27.716,4.281l15.531,2.321c11.813,1.584 23.905,3.168 36.087,4.655l8.651,1.209c15.253,1.766 30.691,3.531 46.131,5.115l14.229,1.3c11.16,1.118 22.229,2.231 33.483,3.162l18.415,1.396c10.23,0.835 20.462,1.584 30.785,2.231l19.902,1.306c10.139,0.743 20.277,1.3 30.6,1.856l20.274,0.931c10.51,0.466 21.021,1.022 31.531,1.3l19.902,0.749c11.532,0.369 23.346,0.647 34.971,0.835l17.019,0.465c17.487,0.188 34.971,0.369 52.549,0.369c17.671,0 35.064,-0.181 52.642,-0.369l16.834,-0.465c11.719,-0.188 23.345,-0.375 35.155,-0.835l19.718,-0.749c10.511,-0.278 21.205,-0.834 31.716,-1.3l20.183,-0.931c10.229,-0.556 20.552,-1.113 30.784,-1.856l19.718,-1.306c10.323,-0.556 20.646,-1.396 30.878,-2.231l18.134,-1.396c11.535,-1.022 22.88,-2.14 34.228,-3.253l13.484,-1.209c15.625,-1.584 31.16,-3.349 46.41,-5.115l7.72,-1.027c12.463,-1.578 24.926,-3.253 37.017,-4.927l15.066,-2.231c9.58,-1.397 18.974,-2.697 28.276,-4.281l16.368,-2.696c8.558,-1.487 17.022,-2.884 25.392,-4.462l16.181,-2.98l23.995,-4.837l15.253,-3.252l23.717,-5.49l13.207,-3.161c9.208,-2.231 18.137,-4.65 26.879,-6.977l7.905,-2.231c10.697,-2.884 20.927,-5.949 30.878,-9.111c-19.715,60.916 -36.549,115.417 -50.128,162.761Zm-40.832,169.453c-10.229,34.23 -214.006,98.308 -566.778,98.308c-352.679,0 -556.456,-64.078 -566.687,-98.121c-3.905,-25.391 -11.066,-58.503 -21.483,-99.051l2.976,0.743c16.834,4.093 34.319,7.908 52.363,11.626l10.137,2.14c18.229,3.628 36.923,6.977 56.268,10.139l9.859,1.578c20.09,3.162 40.645,6.324 61.85,9.026l5.208,0.647c21.112,2.793 42.598,5.302 64.64,7.442l6.602,0.744c22.23,2.23 44.828,4.183 67.708,5.954l11.626,0.835c22.508,1.584 45.387,3.071 68.361,4.093l12.741,0.743c23.53,1.119 47.34,2.05 71.336,2.509l9.579,0.188c25.392,0.562 51.061,0.931 76.916,0.931c25.857,-0 51.433,-0.369 76.824,-0.931l9.58,-0.188c24.089,-0.459 47.896,-1.39 71.52,-2.509l12.556,-0.743c23.158,-1.022 46.038,-2.509 68.546,-4.093l11.438,-0.744c22.974,-1.862 45.666,-3.718 67.896,-6.045l6.324,-0.744c22.136,-2.14 43.806,-4.649 65.011,-7.442l5.024,-0.647c21.205,-2.702 41.758,-5.864 61.847,-9.026l9.861,-1.578c19.343,-3.162 38.039,-6.511 56.266,-10.139l10.139,-2.14c18.043,-3.718 35.527,-7.533 52.361,-11.626l2.978,-0.743c-10.417,40.548 -17.578,73.66 -21.393,98.864Zm-392.02,-977.864c-27.435,-13.578 -44.363,-29.11 -47.897,-43.807c-2.79,-11.716 2.047,-26.504 14.881,-43.528c13.114,-17.575 23.065,-18.506 26.414,-18.784c13.672,-1.306 32.924,8.833 54.129,28.457c17.763,16.462 43.248,20.368 64.919,10.048c21.389,-10.139 34.04,-31.994 32.552,-55.62c-2.327,-34.225 3.069,-59.616 15.251,-71.617c9.023,-8.742 23.904,-12.273 44.644,-10.507c19.439,1.674 24.367,8.651 25.947,10.882c7.999,11.348 7.908,35.343 -0.09,66.218c-5.955,23.161 2.881,47.156 22.505,61.013c20.183,14.14 46.503,14.231 66.964,0.278c25.67,-17.763 47.9,-25.205 62.503,-21.112c10.879,2.981 20.646,13.579 29.016,31.528c8.651,18.699 4.652,27.719 3.256,30.694c-6.512,14.509 -29.854,28.741 -64.175,38.97c-22.973,6.88 -38.97,26.788 -40.735,50.783c-1.862,23.996 11.066,45.941 32.737,56.08c29.297,13.857 47.434,29.672 51.246,44.738c2.883,11.251 -1.953,25.391 -14.323,41.944c-13.113,17.581 -23.157,18.603 -26.507,18.881c-13.391,1.487 -32.924,-8.742 -54.129,-28.366c-17.765,-16.463 -43.248,-20.277 -65.012,-9.861c-21.299,10.139 -33.946,31.994 -32.365,55.529c2.324,34.128 -3.069,59.429 -15.253,71.333c-8.93,8.838 -23.996,12.46 -44.644,10.604c-20.087,-1.675 -25.389,-8.93 -27.064,-11.348c-7.72,-10.882 -7.998,-34.043 -0.65,-63.34c5.671,-23.064 -3.165,-46.685 -22.601,-60.36c-10.139,-7.067 -21.858,-10.785 -33.669,-10.785c-11.347,-0 -22.786,3.349 -32.737,10.138c-24.741,16.463 -46.225,23.343 -60.269,19.437c-11.347,-3.258 -21.298,-14.14 -29.762,-32.555c-9.02,-19.437 -5.021,-28.645 -3.628,-31.619c6.233,-14.044 27.532,-27.254 59.71,-37.205c22.786,-7.067 38.786,-26.879 40.739,-50.687c1.859,-23.717 -10.604,-45.85 -31.903,-56.454Zm-251.115,261.16c23.902,-27.81 34.04,-56.08 31.994,-83.986c14.694,-0.182 29.109,-0.557 44.363,-0.557c14.975,0 29.112,0.279 43.806,0.557c1.675,7.907 4.559,16.28 8.742,25.391c16.556,35.899 40.086,58.316 69.942,66.69c11.254,3.161 23.158,3.44 35.34,2.23c-17.668,49.944 -29.853,108.816 -32.922,176.243c-40.085,1.209 -81.38,2.14 -124.908,2.14c-61.569,0 -119.604,-1.3 -174.2,-3.905c4.371,-51.709 -1.952,-104.257 -14.137,-153.553c12.556,4.933 25.298,7.907 37.854,7.72c27.623,-0.653 52.455,-13.857 74.126,-38.97Zm-412.39,-273.529c-26.414,-15.441 -42.225,-32.181 -44.736,-47.156c-2.046,-11.995 3.999,-26.323 17.95,-42.32c14.137,-16.643 24.275,-16.831 27.622,-17.018c13.673,-0.653 32.181,11.16 51.991,32.272c16.555,17.58 41.668,23.251 64.082,14.509c21.949,-8.833 36.087,-29.666 36.087,-53.292c0.184,-34.316 7.439,-59.338 20.368,-70.311c9.673,-8.186 24.926,-10.695 45.2,-7.533c19.346,2.975 23.811,10.417 25.298,12.738c6.976,11.723 5.396,35.809 -4.743,66.037c-7.627,22.882 -0.372,47.246 18.137,62.312c19.159,15.532 45.294,17.581 66.777,5.024c26.973,-15.809 49.759,-21.764 63.896,-16.74c10.695,3.718 19.625,15.065 26.786,33.39c7.348,19.346 2.696,28.088 1.115,30.971c-7.626,13.948 -31.9,26.505 -66.777,34.316c-23.345,5.398 -40.645,24.182 -44.085,47.899c-3.443,23.717 7.811,46.691 28.738,58.316c28.182,15.622 45.294,32.738 48.084,47.991c1.953,11.438 -3.905,25.3 -17.299,41.11c-14.229,16.553 -24.367,16.74 -27.623,16.831l-0.65,0c-13.672,0 -32.087,-11.251 -51.433,-32.084c-16.556,-17.581 -41.945,-23.252 -64.175,-14.419c-21.948,8.742 -36.086,29.672 -36.273,53.292c-0,34.134 -7.068,59.06 -20.087,70.13c-9.58,8.185 -24.648,10.785 -45.294,7.442c-20.09,-3.162 -24.554,-10.701 -26.135,-13.21c-6.977,-11.347 -5.581,-34.321 3.721,-63.334c7.161,-22.417 -0,-46.787 -18.325,-61.575c-10.788,-8.832 -23.809,-13.3 -36.83,-13.3c-10.137,-0 -20.181,2.702 -29.483,7.908c-25.762,14.884 -47.712,20.089 -61.476,15.253c-10.975,-3.906 -20.182,-15.532 -27.437,-34.503c-7.534,-19.908 -2.884,-28.832 -1.303,-31.812c7.255,-13.669 29.297,-25.391 62.036,-33.015c23.252,-5.302 40.643,-24.183 44.271,-47.712c3.534,-23.439 -7.441,-46.503 -27.995,-58.407Zm-283.111,325.612c0,-22.043 62.036,-53.945 180.061,-81.38c9.579,9.116 20.181,16.274 32.273,20.555c29.761,10.694 64.546,6.045 103.329,-13.954c-11.44,42.507 -9.3,77.01 6.511,102.68c9.765,15.905 29.855,36.182 70.22,42.506c9.02,1.488 17.671,2.231 26.041,2.231c27.901,0 51.34,-7.998 69.849,-23.904c15.625,-13.482 26.413,-32.272 33.574,-55.149c11.067,44.267 16.741,90.588 12.835,135.507c-347.565,-22.411 -534.693,-90.678 -534.693,-129.092Zm771.858,-1257.35c-502.327,0 -910.995,408.667 -910.995,911.09c-0,119.232 25.484,239.395 75.708,357.049l-0,0.091c0.464,1.209 47.99,131.233 97.191,279.296l0.092,0c31.158,93.659 56.269,174.296 74.591,239.401c17.764,62.869 29.298,111.512 34.226,144.715c18.137,119.698 404.02,151.691 629.187,151.691c225.166,0 611.05,-31.993 629.187,-151.691c5.021,-33.203 16.553,-81.846 34.225,-144.715c18.415,-65.105 43.528,-145.742 74.684,-239.401c49.2,-148.063 96.728,-278.087 97.284,-279.296l-0,-0.091c50.224,-117.745 75.706,-237.914 75.706,-357.049c0,-502.423 -408.76,-911.09 -911.086,-911.09Z" style="fill:#0b0b16;fill-rule:nonzero;"/><path d="M706.892,967.078l10.882,-1.487c16.928,0 32.646,11.16 37.573,28.179c2.978,10.042 1.769,20.646 -3.346,29.853c-5.024,9.117 -13.3,15.81 -23.345,18.694c-10.139,2.883 -20.555,1.674 -29.763,-3.344c-9.114,-5.024 -15.809,-13.397 -18.693,-23.348c-6.046,-20.737 5.952,-42.501 26.692,-48.547Zm-38.411,127.231c15.253,8.373 32.087,12.648 49.199,12.648c9.489,-0 19.068,-1.21 28.554,-3.997c26.229,-7.629 47.899,-24.926 61.106,-48.83c13.113,-23.995 16.275,-51.618 8.648,-77.844c-15.718,-54.133 -72.266,-85.473 -126.674,-69.851c-54.036,15.718 -85.38,72.451 -69.755,126.674c7.627,26.323 24.926,47.996 48.922,61.2Z" style="fill:#0b0b16;fill-rule:nonzero;"/><path d="M1372.54,968.935l13.391,-2.509c15.906,-0 30.878,9.86 36.739,25.669c7.346,20.368 -2.977,42.785 -23.252,50.222c-20.277,7.442 -42.784,-2.975 -50.224,-23.252c-7.442,-20.368 3.069,-42.779 23.346,-50.13Zm13.484,138.862c11.626,-0 23.53,-1.953 35.065,-6.142c52.921,-19.341 80.262,-78.219 60.825,-131.137l0,-0.09c-19.346,-52.924 -78.218,-80.359 -131.139,-60.831c-52.92,19.346 -80.265,78.218 -60.825,131.142c15.16,41.388 54.408,67.058 96.074,67.058Z" style="fill:#0b0b16;fill-rule:nonzero;"/><path d="M1306.97,367.001c-7.44,14.14 -31.622,26.691 -66.406,34.786c-23.439,5.393 -40.735,24.183 -44.084,48.081c-3.35,23.717 8.092,46.503 29.016,58.038c28.275,15.719 45.481,32.647 48.271,47.9c2.14,11.529 -3.627,25.295 -17.019,41.104c-14.231,16.746 -24.369,17.025 -27.625,17.115c-12.741,-0.187 -32.365,-11.069 -52.268,-31.902c-16.74,-17.575 -41.854,-23.155 -64.268,-14.226c-21.855,8.833 -35.899,29.757 -35.899,53.383c0.185,34.225 -6.883,59.151 -19.811,70.22c-9.486,8.186 -24.833,10.882 -45.201,7.72c-20.089,-3.161 -24.738,-10.694 -26.319,-13.113c-7.071,-11.347 -5.768,-34.411 3.44,-63.34c7.254,-22.598 -0,-46.781 -18.509,-61.659c-10.788,-8.561 -23.811,-13.023 -36.736,-13.023c-10.139,0 -20.368,2.697 -29.669,7.999c-25.576,14.878 -47.341,20.458 -61.385,15.44c-10.975,-3.911 -20.368,-15.44 -27.529,-34.321c-7.72,-19.998 -3.071,-28.831 -1.49,-31.715c7.071,-13.675 29.113,-25.579 61.944,-33.299c23.251,-5.484 40.551,-24.364 43.991,-47.991c3.349,-23.433 -7.533,-46.406 -28.273,-58.31c-26.322,-15.35 -42.225,-31.999 -44.922,-46.878c-2.046,-12 4,-26.322 17.672,-42.501c14.228,-16.649 24.367,-16.928 27.622,-17.024c15.253,0.096 32.366,10.979 52.083,31.994c16.741,17.489 41.761,23.16 64.175,14.231c22.042,-8.742 36.086,-29.763 36.086,-53.383c-0.093,-34.321 7.068,-59.338 19.996,-70.498c9.486,-8.186 24.461,-10.701 45.201,-7.63c19.252,2.975 23.717,10.326 25.204,12.744c7.161,11.626 5.58,35.712 -4.371,65.94c-7.533,22.786 -0.372,47.247 18.415,62.313c19.065,15.44 45.387,17.205 66.777,4.558c26.788,-15.81 49.574,-21.855 63.803,-16.928c10.697,3.815 19.811,14.884 26.788,33.299c7.533,19.346 2.881,28.088 1.3,30.876Zm-7.44,-123.882c-30.321,-10.416 -65.849,-5.024 -105.747,16.275c12.37,-43.994 10.323,-79.427 -5.674,-105.563c-9.766,-15.809 -29.669,-35.899 -69.661,-41.944c-39.529,-6.137 -71.616,1.3 -95.889,22.042c-25.577,22.23 -39.621,57.573 -41.667,105.376c-30.413,-29.298 -61.384,-43.807 -91.053,-42.967c-27.717,0.744 -52.455,14.044 -74.126,39.339c-26.413,31.159 -37.017,62.875 -31.622,94.028c5.487,31.715 27.251,59.991 64.731,84.173c-45.666,12.835 -76.172,33.668 -91.238,62.125c-8.929,17.019 -16.462,45.294 -1.581,83.986c14.322,36.921 36.271,60.826 65.384,71.151c29.853,10.417 64.546,5.671 103.423,-14.418c-11.254,42.506 -8.93,77.009 6.789,102.679c9.951,15.809 30.225,36.086 70.404,42.132c8.93,1.396 17.394,2.14 25.577,2.14c28.088,-0 51.711,-8.186 70.407,-24.273c25.67,-22.043 39.714,-57.386 41.666,-105.285c29.669,28.553 59.429,42.876 88.636,42.876l2.509,-0c27.622,-0.744 52.455,-13.954 74.034,-39.339c26.226,-30.881 36.643,-62.319 30.969,-93.29c-5.764,-31.897 -28.46,-60.36 -67.52,-84.543c47.431,-13.016 79.146,-34.315 94.493,-63.056c8.929,-17.018 16.556,-45.203 1.859,-83.424c-14.135,-36.461 -35.899,-59.99 -65.103,-70.22Z" style="fill:#0b0b16;fill-rule:nonzero;"/><path d="M1090.73,456.936c-4.93,9.213 -13.207,15.906 -23.251,18.789c-10.045,2.975 -20.555,1.862 -29.857,-3.162c-9.113,-5.023 -15.809,-13.3 -18.786,-23.251c-5.952,-20.833 5.767,-42.598 26.507,-48.547l10.975,-1.674c17.019,-0 32.644,11.063 37.668,28.178c2.79,9.952 1.765,20.459 -3.256,29.667Zm-63.152,-116.814c-54.036,15.906 -85.193,72.825 -69.29,126.952c7.721,26.323 25.205,47.9 49.109,60.922c15.344,8.367 31.994,12.557 48.921,12.557c9.58,-0 19.344,-1.397 29.017,-4.19c26.135,-7.714 47.805,-25.204 60.734,-49.199c13.113,-23.995 16.181,-51.521 8.464,-77.753c-15.906,-54.127 -73.01,-85.19 -126.955,-69.289Z" style="fill:#0b0b16;fill-rule:nonzero;"/></g></g></svg>