<?xml version="1.0" encoding="UTF-8" standalone="no"?><!DOCTYPE svg PUBLIC "-//W3C//DTD SVG 1.1//EN" "http://www.w3.org/Graphics/SVG/1.1/DTD/svg11.dtd"><svg width="100%" height="100%" viewBox="0 0 1000 1000" version="1.1" xmlns="http://www.w3.org/2000/svg" xmlns:xlink="http://www.w3.org/1999/xlink" xml:space="preserve" xmlns:serif="http://www.serif.com/" style="fill-rule:evenodd;clip-rule:evenodd;stroke-linejoin:round;stroke-miterlimit:2;"><rect id="画板1" x="0" y="0" width="1000" height="1000" style="fill:none;"/><g id="画板11" serif:id="画板1"><g><path d="M930.624,605l-213.169,0c-14.374,-22.188 -60.268,-34.107 -106.429,-40.447l-32.946,-44.017l144.822,-0c8.347,-0 15.178,-6.741 15.178,-15.134l0,-288.527c0,-8.438 -6.831,-15.178 -15.178,-15.178l-445.848,-0c-8.304,-0 -15.09,6.74 -15.09,15.178l-0,288.527c-0,8.393 6.786,15.134 15.09,15.134l144.911,-0l-33.081,44.017c-46.117,6.34 -92.009,18.259 -106.34,40.447l-213.169,0l-0,-574.687l861.249,-0l0,574.687Zm-390.446,-84.464l29.688,39.598c-33.884,-2.724 -62.143,-2.857 -69.866,-2.857c-7.769,-0 -36.027,0.133 -69.955,2.857l29.731,-39.598l80.402,-0Zm167.546,-30.268l-415.492,-0l0,-258.304l415.492,0l-0,258.304Zm-207.724,162.5c-112.723,-0 -181.295,-20.268 -191.25,-32.59c9.955,-12.365 78.572,-32.634 191.25,-32.634c112.678,0 181.294,20.269 191.205,32.634c-9.911,12.322 -78.527,32.59 -191.205,32.59Zm171.518,89.285l-1.563,0.67l-2.813,0.982l-7.678,2.456l-3.303,0.981l-9.509,2.5l-2.412,0.626c-4.285,0.982 -8.749,2.009 -13.481,2.902l-1.295,0.267c-4.197,0.804 -8.571,1.563 -13.036,2.322l-3.929,0.58c-3.883,0.625 -7.812,1.161 -11.874,1.741l-4.197,0.492c-4.776,0.624 -9.643,1.205 -14.598,1.696l-1.831,0.178l-1.204,0.089l4.642,-81.562c35.358,-3.393 74.285,-9.643 101.92,-20.982l-13.839,84.062Zm-19.376,117.634l-0.445,0.179c-4.777,1.205 -9.912,2.455 -15.224,3.571l-3.929,0.759c-4.732,0.938 -9.643,1.83 -14.776,2.679l-2.724,0.491c-5.759,0.937 -11.83,1.786 -17.99,2.545l-5.447,0.625c-5.268,0.669 -10.58,1.205 -16.071,1.696l-3.125,0.357l4.643,-81.428l3.035,-0.313c6.651,-0.67 13.126,-1.339 19.465,-2.143l3.304,-0.357c7.276,-0.937 14.241,-2.009 20.98,-3.125l5.894,-1.027c4.777,-0.893 9.42,-1.83 13.884,-2.768l5.982,-1.339c4.642,-1.116 9.107,-2.187 13.348,-3.393l2.992,-0.759l-13.796,83.75Zm-103.794,-96.964l-5.67,0.357c-13.526,0.67 -27.321,1.072 -41.206,1.116l-2.945,0c-13.884,-0.044 -27.678,-0.446 -41.206,-1.116l-5.713,-0.357l-4.644,-81.384c26.161,1.608 46.607,1.741 53.036,1.741c6.384,0 26.874,-0.133 52.991,-1.741l-4.643,81.384Zm-6.294,110.402l-0.09,1.428l-4.553,0.224c-24.956,1.071 -49.911,1.071 -74.866,-0l-4.51,-0.224l-0.088,-1.428l-4.6,-79.777l5.18,0.134c13.704,0.625 27.455,1.071 41.473,1.071c14.017,0 27.813,-0.446 41.384,-1.071l5.223,-0.134l-4.553,79.777Zm-117.589,-0.893c-5.492,-0.491 -10.849,-1.027 -16.073,-1.652l-5.49,-0.714c-6.161,-0.714 -12.143,-1.563 -17.902,-2.5l-2.992,-0.491c-4.955,-0.849 -9.731,-1.697 -14.374,-2.634l-4.375,-0.893c-5.09,-1.072 -10.045,-2.232 -14.688,-3.437l-0.759,-0.224l-13.794,-83.75l3.036,0.759c4.286,1.206 8.705,2.322 13.303,3.393l5.983,1.339c4.419,0.938 9.151,1.875 13.972,2.768l5.804,1.027c6.786,1.116 13.706,2.188 21.027,3.125l3.259,0.357c6.294,0.804 12.812,1.473 19.463,2.143l3.037,0.313l4.643,81.428l-3.08,-0.357Zm-94.465,-129.509l-1.562,-0.67l-13.839,-84.062c27.633,11.339 66.562,17.589 101.919,20.982l4.643,81.562l-1.116,-0.089l-1.831,-0.178c-5,-0.491 -9.91,-1.072 -14.732,-1.696l-4.062,-0.492c-4.108,-0.58 -8.081,-1.116 -11.965,-1.741l-3.839,-0.58c-4.553,-0.759 -8.973,-1.518 -13.259,-2.367l-1.161,-0.222c-4.688,-0.893 -9.196,-1.92 -13.527,-2.902l-2.276,-0.581l-9.598,-2.545l-3.259,-0.937l-7.724,-2.5l-2.812,-0.982Zm615.759,-742.723l-891.563,0c-8.348,0 -15.134,6.741 -15.134,15.178l0,605c0,8.349 6.786,15.135 15.134,15.135l225.938,-0l19.822,120.044l19.463,118.75l16.519,100.045c1.249,7.41 7.678,12.723 14.955,12.723l2.455,-0.223c8.259,-1.384 13.884,-9.152 12.5,-17.411l-12.634,-77.054c5.626,1.295 11.608,2.456 17.769,3.617l4.329,0.669c6.116,1.071 12.412,2.054 18.929,2.946l0.536,0.045c6.607,0.848 13.437,1.652 20.446,2.322l5.581,0.58l8.482,0.759l4.732,82.589c0.447,8.348 7.768,14.643 15.937,14.241c8.394,-0.402 14.776,-7.589 14.286,-15.937l-4.465,-78.929l4.286,0.09c12.009,0.49 24.018,0.803 35.938,0.803c11.919,0 23.884,-0.313 35.893,-0.803l4.33,-0.09l-4.51,78.929c-0.49,8.348 5.939,15.535 14.286,15.937l0.849,0.045c7.991,0 14.643,-6.205 15.134,-14.286l4.688,-82.589l1.026,-0.089c6.562,-0.536 13.036,-1.161 19.286,-1.831l2.813,-0.357c5.133,-0.58 10.178,-1.25 15.088,-1.919l5.402,-0.804c4.153,-0.581 8.171,-1.25 12.098,-1.964l4.912,-0.804c5.312,-1.027 10.49,-2.009 15.445,-3.17l0.045,0l-12.678,77.054c-1.34,8.259 4.241,16.027 12.5,17.411c8.17,1.428 16.072,-4.241 17.411,-12.5l16.473,-100.045l19.553,-118.75l19.778,-120.044l225.937,-0c8.393,-0 15.179,-6.786 15.179,-15.135l-0,-605c-0,-8.437 -6.786,-15.178 -15.179,-15.178Z" style="fill:#0b0b16;fill-rule:nonzero;"/></g></g></svg>