<?xml version="1.0" encoding="UTF-8" standalone="no"?><!DOCTYPE svg PUBLIC "-//W3C//DTD SVG 1.1//EN" "http://www.w3.org/Graphics/SVG/1.1/DTD/svg11.dtd"><svg width="100%" height="100%" viewBox="0 0 2084 2084" version="1.1" xmlns="http://www.w3.org/2000/svg" xmlns:xlink="http://www.w3.org/1999/xlink" xml:space="preserve" xmlns:serif="http://www.serif.com/" style="fill-rule:evenodd;clip-rule:evenodd;stroke-linejoin:round;stroke-miterlimit:2;"><rect id="画板1" x="0" y="0" width="2083.33" height="2083.33" style="fill:none;"/><g id="画板11" serif:id="画板1"><g><path d="M1899,1541.95l-1714.75,-0c-66.778,-0 -121.094,-54.317 -121.094,-121.188l0,-13.859c32.367,28.369 74.777,45.759 121.094,45.759l1714.75,-0c46.41,-0 88.728,-17.39 121.187,-45.759l0,13.859c0,66.871 -54.315,121.188 -121.187,121.188Zm-213.635,318.728l-1287.48,0c-147.507,0 -267.578,-118.301 -271.111,-264.88c18.137,5.952 37.387,9.301 57.477,9.301l1714.75,0c20.089,0 39.342,-3.349 57.478,-9.301c-3.535,146.579 -123.605,264.88 -271.113,264.88Zm-74.776,131.048c-0,13.02 -10.603,23.623 -23.716,23.623l-28.925,0c-13.021,0 -23.624,-10.603 -23.624,-23.623l0,-67.989l76.265,0l-0,67.989Zm-1061.66,0c-0,13.02 -10.603,23.623 -23.624,23.623l-28.925,0c-13.021,0 -23.623,-10.603 -23.623,-23.623l-0,-67.989l76.172,0l-0,67.989Zm-485.771,-834.172c0,-66.871 54.316,-121.185 121.094,-121.185l1714.75,0c66.872,0 121.187,54.314 121.187,121.185l0,110.864c0,66.687 -54.315,121.094 -121.187,121.094l-1714.75,0c-66.778,0 -121.094,-54.407 -121.094,-121.094l0,-110.864Zm1644.62,-602.027c-6.324,16.463 -88.634,56.826 -250.371,56.826c-162.575,0 -244.978,-40.829 -250.186,-56.267c-0,-105.284 112.258,-190.942 250.186,-190.942c137.834,0 249.999,85.38 250.371,190.383Zm46.876,-550.593c-171.039,-0 -311.85,131.323 -327.196,298.27c-158.854,12.276 -283.388,120.906 -283.388,252.882c-0,82.031 162.48,119.42 313.337,119.42c151.041,-0 313.429,-37.389 313.429,-119.42c0,-130.954 -122.86,-239.025 -279.947,-252.604c14.974,-132.348 127.418,-235.492 263.765,-235.492c146.39,-0 265.531,119.141 265.531,265.533l0,685.547c-32.459,-28.46 -74.777,-45.76 -121.187,-45.76l-1714.75,0c-101.562,0 -184.245,82.59 -184.245,184.244l-0,263.208c-0,55.339 24.647,104.91 63.337,138.672l0,29.762c0,184.522 150.113,334.541 334.542,334.541l11.72,0l-0,67.989c-0,47.897 38.97,86.679 86.774,86.679l28.925,0c47.805,0 86.681,-38.782 86.681,-86.679l0,-67.989l859.282,0l-0,67.989c-0,47.897 38.97,86.679 86.682,86.679l28.925,0c47.898,0 86.774,-38.782 86.774,-86.679l0,-67.989l11.718,0c184.525,0 334.543,-150.019 334.543,-334.541l-0,-29.762c38.784,-33.762 63.43,-83.333 63.43,-138.672l0,-1087.24c0,-181.176 -147.415,-328.589 -328.682,-328.589Z" style="fill:#0b0b16;fill-rule:nonzero;"/><path d="M1489.03,872.862l-0,-56.363c-0,-17.39 -14.138,-31.622 -31.622,-31.622c-17.393,0 -31.529,14.232 -31.529,31.622l-0,56.363c-0,17.39 14.136,31.434 31.529,31.434c17.484,0 31.622,-14.044 31.622,-31.434Z" style="fill:#0b0b16;fill-rule:nonzero;"/><path d="M1640.53,840.681l0,-56.454c0,-17.299 -14.044,-31.437 -31.529,-31.437c-17.392,0 -31.622,14.138 -31.622,31.437l-0,56.454c-0,17.391 14.23,31.528 31.622,31.528c17.485,0 31.529,-14.137 31.529,-31.528Z" style="fill:#0b0b16;fill-rule:nonzero;"/><path d="M1792.04,776.32l0,-56.361c0,-17.393 -14.044,-31.621 -31.529,-31.621c-17.484,-0 -31.622,14.228 -31.622,31.621l0,56.361c0,17.393 14.138,31.531 31.622,31.531c17.485,-0 31.529,-14.138 31.529,-31.531Z" style="fill:#0b0b16;fill-rule:nonzero;"/><path d="M1337.61,840.681l0,-56.454c0,-17.299 -14.229,-31.437 -31.621,-31.437c-17.486,0 -31.53,14.138 -31.53,31.437l0,56.454c0,17.391 14.044,31.528 31.53,31.528c17.392,0 31.621,-14.137 31.621,-31.528Z" style="fill:#0b0b16;fill-rule:nonzero;"/><path d="M1154.48,807.851c17.486,-0 31.53,-14.138 31.53,-31.531l-0,-56.361c-0,-17.393 -14.044,-31.621 -31.53,-31.621c-17.485,-0 -31.529,14.228 -31.529,31.621l-0,56.361c-0,17.393 14.044,31.531 31.529,31.531Z" style="fill:#0b0b16;fill-rule:nonzero;"/></g></g></svg>