<?xml version="1.0" encoding="UTF-8" standalone="no"?><!DOCTYPE svg PUBLIC "-//W3C//DTD SVG 1.1//EN" "http://www.w3.org/Graphics/SVG/1.1/DTD/svg11.dtd"><svg width="100%" height="100%" viewBox="0 0 2084 2084" version="1.1" xmlns="http://www.w3.org/2000/svg" xmlns:xlink="http://www.w3.org/1999/xlink" xml:space="preserve" xmlns:serif="http://www.serif.com/" style="fill-rule:evenodd;clip-rule:evenodd;stroke-linejoin:round;stroke-miterlimit:2;"><rect id="画板1" x="0" y="0" width="2083.33" height="2083.33" style="fill:none;"/><clipPath id="_clip1"><rect id="画板11" serif:id="画板1" x="0" y="0" width="2083.33" height="2083.33"/></clipPath><g clip-path="url(#_clip1)"><g><path d="M1866.17,1562.22c-0,100.075 -81.381,181.455 -181.641,181.455l-112.261,0c-50.5,-264.696 -50.5,-570.405 -0,-835.287l112.261,0c100.26,0 181.641,81.38 181.641,181.455l-0,472.377Zm-1516.46,457.869c127.321,-340.216 144.249,-832.683 51.986,-1214.75c68.83,-11.811 128.627,-57.291 157.834,-121.094c49.386,8.372 96.446,-4.742 135.138,-32.365c44.737,67.243 120.441,108.723 202.752,108.723c60.269,0 117.001,-21.67 161.46,-61.29c50.312,5.859 100.074,-6.51 141.184,-33.575c50.687,38.318 121.838,45.572 179.126,17.578c40.458,45.294 98.399,71.429 159.973,71.429l4.371,-0.187c-106.959,388.3 -94.493,909.878 38.505,1265.53l-1232.33,-0Zm-132.442,-1423.74c0,-75.149 56.176,-138.766 130.671,-147.88c17.024,-2.14 29.206,-17.485 27.531,-34.413l-0.652,-5.58l-0.369,-3.999c-0,-42.69 29.019,-81.009 70.498,-92.912c15.622,-4.465 25.204,-20.184 22.32,-36.18c-1.862,-8.836 -2.605,-16.834 -2.605,-24.367c-0,-71.895 58.503,-130.302 130.488,-130.302c52.271,0 99.33,31.156 119.885,79.24c3.44,8.185 10.326,14.51 18.881,17.486l25.579,-2.419c38.686,-21.576 81.562,-22.693 121.372,-2.696c8.742,4.557 19.249,4.557 28.366,0c8.833,-4.372 15.253,-12.928 16.831,-22.694c12.932,-73.382 76.544,-126.674 150.953,-126.674c77.1,0 142.484,57.663 152.06,133.929c1.306,9.486 6.699,17.95 14.884,22.972c8.186,5.022 18.228,5.952 27.067,2.698c16.553,-5.86 33.293,-8.836 50.13,-8.836c81.096,0 147.042,65.941 147.133,146.95c-0,9.485 4.371,18.601 11.813,24.553c7.533,5.952 17.296,8.184 26.6,6.231c97.003,-21.299 184.338,53.944 184.338,148.159c-0,83.798 -68.08,151.878 -151.879,151.878c-50.692,0 -97.751,-25.018 -126.027,-66.964l-20.736,-13.486l-23.995,5.487c-44.085,31.902 -106.585,25.67 -143.699,-13.3c-11.807,-12.09 -30.688,-13.021 -43.341,-2.045c-34.69,29.669 -80.727,42.596 -126.856,33.575c-10.325,-2.047 -21.02,1.395 -28.462,8.835c-34.412,34.877 -79.984,53.944 -128.627,53.944c-71.617,-0 -136.625,-42.504 -165.366,-108.259c-4.275,-10.045 -13.391,-17.02 -24.086,-18.695c-10.604,-1.673 -21.486,2.326 -28.554,10.51c-23.626,26.879 -57.01,42.411 -92.075,42.411c-11.438,-0 -23.807,-2.233 -37.761,-6.696l-24.551,2.045l-15.44,19.066c-18.512,63.431 -77.384,107.516 -143.137,107.516c-82.311,-0 -149.182,-66.871 -149.182,-149.088Zm1467.26,248.977l-99.427,-0c8.186,-35.715 17.49,-70.22 27.441,-103.888c82.493,-30.135 141.74,-108.911 141.74,-201.823c0,-122.024 -103.61,-220.703 -226.004,-214.658c-17.115,-98.959 -103.519,-174.386 -207.123,-174.386c-12.279,-0 -24.648,1.115 -36.83,3.254c-27.254,-89.75 -110.774,-153.831 -207.311,-153.831c-92.262,0 -172.53,57.943 -203.218,142.019c-38.323,-10.974 -78.502,-9.393 -115.888,4.465c-35.246,-54.967 -96.077,-88.913 -162.761,-88.913c-106.862,0 -193.635,86.774 -193.635,193.453l0.369,9.671c-50.5,24.554 -85.195,74.405 -90.122,130.581c-91.519,24.275 -157.646,107.887 -157.646,205.079c-0,106.956 79.705,195.497 182.85,210.007c97.751,387.649 77.287,899.181 -62.965,1233.07c-3.997,9.766 -2.975,21.019 2.883,29.762c5.768,8.836 15.81,14.136 26.323,14.136l1325.34,0c10.695,0 20.555,-5.3 26.317,-14.136c5.864,-8.743 6.976,-19.996 2.793,-29.762c-29.485,-70.313 -53.667,-149.089 -72.548,-232.608l99.427,0c134.95,0 244.697,-109.654 244.697,-244.606l-0,-472.377c-0,-134.952 -109.747,-244.512 -244.697,-244.512Z" style="fill:#0b0b16;fill-rule:nonzero;"/><path d="M1275.21,821.243c-16.837,-2.046 -32.833,10.509 -34.877,27.808c-34.134,298.642 -34.134,655.413 0,953.963c1.862,16.183 15.44,27.994 31.25,27.994l3.627,-0.186c17.297,-1.952 29.854,-17.577 27.81,-34.877c-33.577,-294.271 -33.577,-645.554 0,-939.825c2.044,-17.299 -10.513,-32.924 -27.81,-34.877Z" style="fill:#0b0b16;fill-rule:nonzero;"/><path d="M656.533,820.685c-17.49,1.953 -29.763,17.578 -27.81,34.97c33.571,294.364 33.571,645.833 -0,940.29c-1.953,17.3 10.507,32.925 27.81,34.877l3.621,0.186c15.815,0 29.394,-11.811 31.256,-27.994c34.128,-298.828 34.128,-655.692 -0,-954.52c-2.049,-17.3 -17.768,-29.669 -34.877,-27.809Z" style="fill:#0b0b16;fill-rule:nonzero;"/><path d="M965.869,821.057c-17.393,0 -31.624,14.044 -31.624,31.622l-0,946.894c-0,17.391 14.231,31.435 31.624,31.435c17.484,0 31.619,-14.044 31.619,-31.435l0,-946.894c0,-17.578 -14.135,-31.622 -31.619,-31.622Z" style="fill:#0b0b16;fill-rule:nonzero;"/></g></g></svg>