<?xml version="1.0" encoding="UTF-8" standalone="no"?><!DOCTYPE svg PUBLIC "-//W3C//DTD SVG 1.1//EN" "http://www.w3.org/Graphics/SVG/1.1/DTD/svg11.dtd"><svg width="100%" height="100%" viewBox="0 0 2084 2084" version="1.1" xmlns="http://www.w3.org/2000/svg" xmlns:xlink="http://www.w3.org/1999/xlink" xml:space="preserve" xmlns:serif="http://www.serif.com/" style="fill-rule:evenodd;clip-rule:evenodd;stroke-linejoin:round;stroke-miterlimit:2;"><rect id="画板1" x="0" y="0" width="2083.33" height="2083.33" style="fill:none;"/><g id="画板11" serif:id="画板1"><g><path d="M1215.15,1133.76c-13.486,-10.973 -33.389,-9.02 -44.456,4.465c-11.068,13.393 -9.022,33.483 4.464,44.271c144.807,118.858 306.728,200.424 455.999,229.72l6.045,0.466c14.788,-0 27.995,-10.417 30.878,-25.391c3.441,-17.206 -7.72,-33.855 -24.832,-37.108c-139.135,-27.25 -291.196,-104.073 -428.098,-216.423Z" style="fill:#0b0b16;fill-rule:nonzero;"/><path d="M499.205,835.032c-7.44,-15.812 -26.32,-22.507 -42.038,-15.068c-15.811,7.533 -22.507,26.322 -15.067,42.131c83.239,175.87 199.494,340.489 345.511,489.203l22.507,9.391l22.135,-8.926c12.462,-12.185 12.648,-32.274 0.372,-44.643c-139.042,-141.646 -254.367,-304.96 -333.42,-472.088Z" style="fill:#0b0b16;fill-rule:nonzero;"/><path d="M1745.65,1785.81c-175.312,-17.671 -361.507,-81.285 -539.982,-185.824c-15.066,-8.926 -34.411,-3.812 -43.247,11.163c-8.835,14.972 -3.72,34.411 11.254,43.153c170.848,100.258 349.23,164.803 519.893,189.076c-32.644,32.368 -68.265,61.661 -106.583,86.215c-172.987,110.769 -373.411,119.976 -564.07,25.857c-190.379,-94.12 -349.695,-125.185 -476.832,-125.185c-113.186,0 -200.982,24.648 -263.016,51.339c56.733,-131.88 103.793,-380.015 -73.938,-739.941c-94.12,-190.751 -84.913,-391.084 25.948,-563.976c114.767,-179.129 329.421,-305.613 512.267,-300.592l13.672,0.653c-39.992,125.184 -19.81,288.313 58.499,456.463c5.395,11.532 16.834,18.321 28.646,18.321l13.299,-2.974c15.811,-7.349 22.693,-26.135 15.253,-41.853c-75.147,-161.455 -92.26,-314.727 -49.757,-425.958c179.591,15.809 340.488,74.868 557.466,256.97c-18.694,3.534 -35.527,11.345 -48.734,24.367c-49.106,49.198 -29.203,146.111 45.293,220.513c33.481,33.48 73.101,57.478 111.698,67.335c13.021,3.349 25.669,5.021 37.76,5.021c28.366,-0 53.198,-9.298 70.962,-27.063c12.835,-12.741 21.205,-29.39 24.925,-48.27c208.329,248.322 255.296,423.076 261.156,636.707c3.348,121.279 -51.804,257.158 -141.832,368.483Zm-197.541,-1083.96c6.232,11.531 11.347,23.063 14.23,34.132c5.58,21.671 3.534,39.248 -5.58,48.362c-9.021,9.113 -26.692,10.975 -48.269,5.486c-18.601,-4.743 -38.318,-15.066 -57.012,-28.922c18.973,-14.881 51.618,-37.388 96.631,-59.058Zm-105.094,-94.214c-14.602,46.037 -30.599,79.982 -42.317,101.374c-29.668,-42.315 -36.737,-84.818 -20.368,-101.189c5.859,-5.858 14.974,-8.742 26.227,-8.742c10.417,-0 23.158,3.443 36.458,8.557Zm521.567,-218.744c-139.599,26.878 -258.831,86.399 -352.579,148.713c81.937,-130.299 168.524,-304.403 204.889,-500.178c3.161,-17.299 -8.092,-33.574 -25.204,-36.923c-17.206,-3.068 -33.668,8.185 -36.83,25.297c-39.806,213.818 -145.273,404.384 -233.348,533.659c21.391,-98.956 30.32,-231.208 -1.581,-396.755c-3.348,-17.206 -19.996,-28.459 -37.016,-25.019c-17.112,3.255 -28.365,19.811 -25.11,36.923c27.715,143.133 22.413,259.575 5.859,349.043c-258.645,-227.393 -441.956,-292.403 -654.377,-306.725l-3.627,-0.187c-18.694,-1.303 -37.481,-2.231 -56.64,-2.79c-205.167,-4.649 -439.166,129.927 -567.046,329.513c-123.324,192.519 -133.74,414.798 -29.39,626.197c251.112,508.733 27.065,769.609 17.485,780.303c-11.253,12.557 -10.788,31.437 1.023,43.528c11.812,11.719 30.971,12.369 43.433,1.209c10.882,-9.673 271.758,-233.719 780.491,17.484c96.352,47.526 195.123,71.149 292.312,71.149c115.697,0 229.162,-33.576 333.792,-100.63c57.941,-37.201 110.303,-83.425 155.503,-134.951l16.089,-18.88c101.096,-123.135 161.735,-274.361 157.922,-413.308c-6.697,-246.928 -63.894,-443.725 -333.421,-741.617c79.984,-27.157 184.614,-45.012 312.867,-28.738c17.298,2.047 33.109,-10.138 35.248,-27.434c2.232,-17.206 -10.044,-33.018 -27.343,-35.249c-123.975,-15.718 -227.581,-2.327 -310.82,21.667c90.958,-63.426 210.003,-126.577 349.324,-153.268c17.112,-3.35 28.366,-19.905 25.018,-36.923c-3.256,-17.112 -19.81,-28.181 -36.923,-25.11Z" style="fill:#0b0b16;fill-rule:nonzero;"/></g></g></svg>