<?xml version="1.0" encoding="UTF-8" standalone="no"?><!DOCTYPE svg PUBLIC "-//W3C//DTD SVG 1.1//EN" "http://www.w3.org/Graphics/SVG/1.1/DTD/svg11.dtd"><svg width="100%" height="100%" viewBox="0 0 2084 2084" version="1.1" xmlns="http://www.w3.org/2000/svg" xmlns:xlink="http://www.w3.org/1999/xlink" xml:space="preserve" xmlns:serif="http://www.serif.com/" style="fill-rule:evenodd;clip-rule:evenodd;stroke-linejoin:round;stroke-miterlimit:2;"><rect id="画板1" x="0" y="0" width="2083.33" height="2083.33" style="fill:none;"/><clipPath id="_clip1"><rect id="画板11" serif:id="画板1" x="0" y="0" width="2083.33" height="2083.33"/></clipPath><g clip-path="url(#_clip1)"><g><path d="M1207.1,1979.27c-391.283,-246.285 -856.694,-711.692 -1103.07,-1102.88c119.886,26.692 350.731,22.321 632.917,-259.773c493.499,-493.592 835.487,-180.339 872.784,-143.043c37.389,37.387 350.639,379.377 -142.953,872.873c-282.092,282.19 -286.464,513.035 -259.677,632.825Zm-771.499,-331.476c-42.598,-42.694 -66.036,-99.331 -66.036,-159.601c0,-43.717 12.371,-85.287 35.344,-121.193c97.936,107.983 203.407,213.36 311.389,311.301c-87.334,55.524 -204.524,45.476 -280.697,-30.507Zm1185.1,-1300.15c-0,-30.785 11.998,-59.714 33.669,-81.382c22.507,-22.508 51.991,-33.765 81.381,-33.765c29.577,-0 59.06,11.257 81.475,33.765c44.923,44.733 44.923,117.838 -0,162.763c-44.83,44.83 -117.934,44.83 -162.763,0.091l-0.186,-0.187c-21.578,-21.765 -33.576,-50.597 -33.576,-81.285Zm104.261,177.086l10.789,1.021c45.76,0 91.427,-17.297 126.118,-52.175c69.57,-69.477 69.57,-182.575 0,-252.052c-69.476,-69.478 -182.574,-69.478 -252.143,-0c-33.669,33.668 -52.177,78.498 -52.177,126.12l1.116,10.786c-151.789,-88.172 -470.34,-182.479 -866.367,213.547c-370.729,370.731 -632.917,224.612 -644.543,217.822c-12.277,-7.346 -28.089,-5.484 -38.32,4.468c-10.23,10.138 -12.369,25.852 -5.301,38.227c87.335,153.368 212.802,321.525 357.615,486.15c-35.715,49.013 -55.34,107.699 -55.34,169.553c0,77.101 30.042,149.65 84.544,204.243c56.363,56.268 130.304,84.453 204.338,84.453c59.525,0 118.957,-18.79 169.274,-55.343c164.716,144.905 332.875,270.281 486.337,357.709l15.626,4.184l22.6,-9.486c10.045,-10.321 11.812,-26.04 4.464,-38.409c-1.674,-2.606 -155.787,-270.843 217.825,-644.452c396.119,-396.123 301.717,-714.673 213.545,-866.366Z" style="fill:#0b0b16;fill-rule:nonzero;"/><path d="M611.382,437.02l22.322,9.298l22.322,-9.298c12.277,-12.279 12.277,-32.278 0,-44.648l-237.17,-237.168c-12.369,-12.37 -32.366,-12.37 -44.643,-0c-12.37,12.37 -12.37,32.272 -0,44.648l237.169,237.168Z" style="fill:#0b0b16;fill-rule:nonzero;"/><path d="M249.768,561.556l204.432,5.302l0.743,0c17.114,0 31.158,-13.578 31.53,-30.785c0.465,-17.393 -13.207,-31.903 -30.692,-32.278l-204.338,-5.296c-17.951,-1.584 -31.995,13.204 -32.367,30.688c-0.465,17.485 13.3,31.904 30.692,32.369Z" style="fill:#0b0b16;fill-rule:nonzero;"/><path d="M754.242,267.558l0.838,-0c17.485,-0.466 31.157,-14.975 30.784,-32.272l-5.394,-204.431c-0.372,-17.393 -15.253,-31.994 -32.274,-30.785c-17.485,0.466 -31.25,14.975 -30.785,32.46l5.302,204.334c0.465,17.206 14.509,30.694 31.529,30.694Z" style="fill:#0b0b16;fill-rule:nonzero;"/><path d="M1691.02,1427.46c-12.369,-12.369 -32.366,-12.369 -44.643,0c-12.37,12.279 -12.37,32.369 0,44.551l237.262,237.26l22.322,9.207l22.229,-9.207c12.37,-12.461 12.37,-32.273 0,-44.642l-237.17,-237.169Z" style="fill:#0b0b16;fill-rule:nonzero;"/><path d="M1548.06,1596.92l-0.743,0c-17.486,0.466 -31.251,14.879 -30.786,32.273l5.301,204.43c0.466,17.116 14.416,30.785 31.53,30.785l0.837,0c17.393,-0.465 31.157,-14.975 30.693,-32.368l-5.209,-204.431c-0.465,-17.11 -14.509,-30.689 -31.623,-30.689Z" style="fill:#0b0b16;fill-rule:nonzero;"/><path d="M2052.63,1302.92l-204.43,-5.393c-17.393,-1.674 -31.902,13.392 -32.367,30.785c-0.466,17.388 13.3,31.898 30.786,32.363l204.337,5.302l0.837,0c17.021,0 31.064,-13.578 31.53,-30.694c0.465,-17.484 -13.3,-31.897 -30.693,-32.363Z" style="fill:#0b0b16;fill-rule:nonzero;"/></g></g></svg>