<?xml version="1.0" encoding="UTF-8" standalone="no"?><!DOCTYPE svg PUBLIC "-//W3C//DTD SVG 1.1//EN" "http://www.w3.org/Graphics/SVG/1.1/DTD/svg11.dtd"><svg width="100%" height="100%" viewBox="0 0 2084 2084" version="1.1" xmlns="http://www.w3.org/2000/svg" xmlns:xlink="http://www.w3.org/1999/xlink" xml:space="preserve" xmlns:serif="http://www.serif.com/" style="fill-rule:evenodd;clip-rule:evenodd;stroke-linejoin:round;stroke-miterlimit:2;"><rect id="画板1" x="0" y="0" width="2083.33" height="2083.33" style="fill:none;"/><clipPath id="_clip1"><rect id="画板11" serif:id="画板1" x="0" y="0" width="2083.33" height="2083.33"/></clipPath><g clip-path="url(#_clip1)"><g><path d="M2007.25,142.486l-361.048,361.141c-8.372,8.278 -19.438,12.928 -31.251,12.928l-419.549,-0c-24.368,-0 -44.178,-19.81 -44.178,-44.177c-0,-24.369 19.81,-44.085 44.178,-44.085l356.771,-0c28.738,-0 55.616,-11.254 75.892,-31.437l316.779,-316.778c16.648,-16.648 45.665,-16.741 62.406,0c8.371,8.278 13.02,19.345 13.02,31.157c0,11.811 -4.649,22.879 -13.02,31.251Zm-236.792,917.782c-31.25,136.253 -105.098,242.745 -175.689,318.452c-20.182,-14.23 -42.224,-26.135 -65.848,-35.063c63.987,-65.662 133.649,-161.459 162.946,-288.411c34.506,-150.206 2.883,-309.99 -91.146,-475.54l14.23,-0c26.6,-0 51.619,-10.045 71.243,-27.623c91.704,178.2 120.722,348.772 84.264,508.185Zm-346.448,795.479l-964.565,-0c-218.563,-0 -396.298,-177.828 -396.298,-396.298c0,-218.378 177.735,-396.205 396.298,-396.205c48.364,-0 96.262,9.021 142.393,26.879l6.046,1.581l891.461,308.035l3.721,1.581c92.726,33.39 155.04,121.837 155.04,220.331c-0,128.999 -105.097,234.096 -234.096,234.096Zm77.287,96.261c0,34.878 -28.272,63.151 -63.149,63.151l-70.964,0c-34.785,0 -63.151,-28.273 -63.151,-63.151l-0,-33.11l119.977,0c26.785,0 52.641,-3.905 77.287,-10.509l0,43.619Zm-972.469,0c0,34.878 -28.366,63.151 -63.243,63.151l-70.964,0c-34.785,0 -63.059,-28.273 -63.059,-63.151l0,-51.619c40.644,11.813 83.427,18.509 127.883,18.509l69.383,0l0,33.11Zm-225.168,-1207.59l106.213,0l78.963,257.068c-9.766,-0.652 -19.625,-1.395 -29.391,-1.395c-25.762,-0 -50.688,2.604 -75.24,6.697l-80.545,-262.37Zm-215.215,-63.151c14.044,-53.851 63.057,-93.657 121.186,-93.657l313.523,-0c58.129,-0 107.144,39.806 121.188,93.657l-555.897,0Zm1994.88,-570.034c0,-28.552 -11.161,-55.525 -31.435,-75.799c-40.459,-40.551 -111.235,-40.551 -151.694,0l-316.777,316.685c-8.278,8.37 -19.346,12.927 -31.25,12.927l-356.771,0c-59.152,0 -107.329,48.178 -107.329,107.33c-0,59.152 48.177,107.328 107.329,107.328l332.496,-0c100.073,162.574 135.324,317.522 102.492,460.752c-29.018,126.674 -105.376,220.423 -168.247,279.575l-838.542,-289.714l-4.092,-1.115c-20.275,-7.534 -40.83,-13.114 -61.57,-17.765l-81.938,-267.019l203.962,0c17.391,0 31.529,-14.137 31.529,-31.623c0,-103.794 -84.542,-188.244 -188.338,-188.244l-313.523,-0c-103.886,-0 -188.336,84.45 -188.336,188.244c-0,17.486 14.044,31.623 31.529,31.623l184.803,0l84.821,276.506c-186.57,58.501 -322.452,232.98 -322.452,438.523c0,185.174 110.305,344.68 268.415,417.225l0,75.334c0,69.569 56.548,126.303 126.21,126.303l70.964,-0c69.66,-0 126.3,-56.734 126.3,-126.303l0,-33.11l648.997,0l-0,33.11c-0,69.569 56.64,126.303 126.302,126.303l70.964,-0c69.754,-0 126.3,-56.734 126.3,-126.303l0,-68.545c93.286,-50.224 156.809,-148.81 156.809,-261.812c-0,-75.892 -29.204,-146.856 -78.404,-200.613c75.8,-81.752 154.669,-196.987 188.895,-345.797c41.481,-180.338 8.184,-371.558 -98.028,-569.847l318.174,-318.266c20.274,-20.183 31.435,-47.154 31.435,-75.893Z" style="fill:#0b0b16;fill-rule:nonzero;"/><path d="M565.57,1530.51l-82.683,-92.077c-11.626,-13.02 -31.622,-14.044 -44.549,-2.418c-13.022,11.626 -14.044,31.53 -2.418,44.55l82.31,91.704c-17.672,9.301 -37.482,14.974 -58.781,14.974c-70.498,0 -127.883,-57.291 -127.883,-127.79c0,-70.405 57.385,-127.884 127.883,-127.884c70.406,0 127.884,57.479 127.884,127.884c-0,26.321 -8.091,50.781 -21.763,71.057Zm438.894,143.136l-310.453,0l-85.473,-95.238c26.135,-32.645 41.853,-73.94 41.853,-118.955c0,-105.19 -85.752,-190.941 -190.942,-190.941c-105.375,0 -191.034,85.751 -191.034,190.941c0,105.283 85.659,191.034 191.034,191.034c37.575,-0 72.545,-11.068 102.122,-29.947l94.865,105.747c5.953,6.697 14.509,10.51 23.531,10.51l324.497,0c17.486,0 31.622,-14.044 31.622,-31.623c-0,-17.392 -14.136,-31.528 -31.622,-31.528Z" style="fill:#0b0b16;fill-rule:nonzero;"/></g></g></svg>