<?xml version="1.0" encoding="UTF-8" standalone="no"?><!DOCTYPE svg PUBLIC "-//W3C//DTD SVG 1.1//EN" "http://www.w3.org/Graphics/SVG/1.1/DTD/svg11.dtd"><svg width="100%" height="100%" viewBox="0 0 2084 2084" version="1.1" xmlns="http://www.w3.org/2000/svg" xmlns:xlink="http://www.w3.org/1999/xlink" xml:space="preserve" xmlns:serif="http://www.serif.com/" style="fill-rule:evenodd;clip-rule:evenodd;stroke-linejoin:round;stroke-miterlimit:2;"><rect id="画板1" x="0" y="0" width="2083.33" height="2083.33" style="fill:none;"/><g id="画板11" serif:id="画板1"><g><path d="M911.106,1618.97c-0,88.729 -34.506,172.157 -97.286,234.938c-62.781,62.78 -146.209,97.472 -234.938,97.472c-88.823,-0 -172.251,-34.692 -235.031,-97.472c-62.688,-62.781 -97.287,-146.209 -97.287,-234.938c0,-88.823 34.599,-172.251 97.287,-234.938c33.947,-34.041 73.569,-58.781 115.701,-74.965l88.916,318.459c2.976,10.696 11.533,19.16 22.322,22.043l8.092,1.023l22.321,-9.301l233.822,-233.914c49.295,59.525 76.081,133.466 76.081,211.593Zm-120.725,-256.144l-195.688,195.596l-74.221,-266.282c19.253,-3.441 38.785,-5.301 58.41,-5.301c75.243,-0 150.301,25.391 211.499,75.987Zm-337.246,-312.135l435.277,121.748c-2.697,26.135 2.697,52.642 16.369,75.894l-69.756,69.756c-93.938,-80.08 -216.708,-109.284 -331.666,-87.148l-50.224,-180.25Zm489.873,-536.097l38.505,549.025c-21.02,5.488 -41.11,15.905 -57.572,32.367l-13.858,16.928l-441.881,-123.422l474.806,-474.898Zm114.213,714.579c-24.461,24.462 -64.175,24.462 -88.636,0c-24.461,-24.367 -24.461,-64.082 -0,-88.636c12.184,-12.277 28.274,-18.23 44.365,-18.23c15.997,0 32.087,5.953 44.271,18.23c24.461,24.554 24.461,64.269 0,88.636Zm193.643,-752.061c64.733,-64.827 149.835,-97.194 235.031,-97.194c85.009,0 170.111,32.367 234.938,97.194c129.56,129.466 129.56,340.316 -0,469.782c-62.781,62.874 -146.209,97.473 -234.938,97.473c-88.823,-0 -172.344,-34.599 -235.031,-97.473c-85.474,-85.288 -114.121,-206.012 -86.963,-315.389c157.649,85.381 305.252,109.842 317.064,111.702l4.93,0.372c15.253,0 28.646,-11.068 31.064,-26.6c2.697,-17.206 -9.021,-33.39 -26.228,-36.087c-2.79,-0.465 -150.208,-25.205 -304.694,-111.331c15.811,-33.483 37.204,-64.919 64.827,-92.449Zm-301.439,815.958c19.625,11.44 41.482,17.579 63.525,17.579c32.18,-0 64.361,-12.184 88.915,-36.739l14.695,-18.043l67.989,24.461l10.696,1.86l22.322,-9.208l81.847,-81.94c12.37,-12.37 12.37,-32.18 -0,-44.551c-12.277,-12.37 -32.274,-12.37 -44.551,0l-67.71,67.617l-49.573,-17.764c3.255,-35.901 -8.278,-72.918 -35.715,-100.356c-16.276,-16.276 -36.18,-26.693 -57.014,-32.181l-37.854,-540.189c32.367,28.088 66.222,52.828 100.263,74.406c-40.273,134.954 -7.348,287.301 98.96,393.609c74.685,74.686 173.925,115.888 279.675,115.888c105.564,0 204.896,-41.202 279.582,-115.888c154.114,-154.114 154.114,-405.049 -0,-559.256c-154.208,-154.207 -405.143,-154.207 -559.257,-0c-31.251,31.25 -55.805,66.686 -74.499,104.262c-115.702,-75.895 -226.103,-189.271 -273.537,-355.662l56.642,-56.549c28.646,-28.647 78.592,-28.647 107.238,-0c29.484,29.576 29.484,77.568 0,107.145c-12.37,12.37 -12.37,32.274 0,44.644c12.277,12.277 32.274,12.277 44.551,-0c54.224,-54.224 54.224,-142.302 0,-196.433c-26.228,-26.229 -61.106,-40.645 -98.123,-40.645c-37.11,0 -71.988,14.416 -98.217,40.645l-210.104,210.105c-12.37,12.277 -12.37,32.18 -0,44.643l22.321,9.208l22.322,-9.208l102.96,-102.959c27.996,82.219 69.57,151.789 118.678,210.477l-528.099,527.912l-160.531,-44.736c27.158,-24.74 55.246,-53.759 83.149,-88.451c10.882,-13.672 8.742,-33.576 -4.93,-44.458c-13.579,-10.789 -33.39,-8.649 -44.271,4.93c-120.074,149.649 -247.96,189.457 -249.169,189.922c-16.741,4.929 -26.228,22.415 -21.299,39.156c4,13.673 16.556,22.601 30.228,22.601l8.929,-1.302c3.813,-1.023 61.757,-18.788 137.465,-73.662l204.06,57.014l60.641,217.266c-52.27,19.16 -101.472,49.201 -143.418,91.148c-74.686,74.685 -115.795,173.925 -115.795,279.582c-0,105.75 41.109,204.896 115.795,279.675c74.685,74.592 174.018,115.794 279.675,115.794c105.656,0 204.896,-41.202 279.581,-115.794c74.686,-74.779 115.795,-173.925 115.795,-279.675c0,-95.054 -33.483,-184.714 -94.589,-256.237l69.756,-69.663Z" style="fill:#0b0b16;fill-rule:nonzero;"/><path d="M2059.57,600.995c-16.927,-4.371 -34.04,5.86 -38.412,22.694l-113.004,443.741l-433.975,172.715c-9.673,3.907 -16.835,12.091 -19.16,22.229l-53.851,235.961l-256.051,22.881c-12.742,1.302 -23.624,10.044 -27.345,22.414l-138.116,459.924c-5.116,16.649 4.371,34.32 21.02,39.343l9.114,1.302c13.579,-0 26.135,-8.836 30.228,-22.415l132.071,-439.555l257.632,-22.974c13.579,-1.115 24.833,-10.974 27.902,-24.367l55.34,-242.193l433.51,-172.437c9.394,-3.72 16.369,-11.719 18.88,-21.578l117.005,-459.366c4.278,-16.927 -5.86,-34.134 -22.788,-38.319Z" style="fill:#0b0b16;fill-rule:nonzero;"/></g></g></svg>