<?xml version="1.0" encoding="UTF-8" standalone="no"?><!DOCTYPE svg PUBLIC "-//W3C//DTD SVG 1.1//EN" "http://www.w3.org/Graphics/SVG/1.1/DTD/svg11.dtd"><svg width="100%" height="100%" viewBox="0 0 2084 2084" version="1.1" xmlns="http://www.w3.org/2000/svg" xmlns:xlink="http://www.w3.org/1999/xlink" xml:space="preserve" xmlns:serif="http://www.serif.com/" style="fill-rule:evenodd;clip-rule:evenodd;stroke-linejoin:round;stroke-miterlimit:2;"><rect id="画板1" x="0" y="0" width="2083.33" height="2083.33" style="fill:none;"/><g id="画板11" serif:id="画板1"><g><path d="M1914.15,1163.37c-81.286,-66.224 -183.781,-102.588 -288.503,-102.588c-104.726,-0 -207.22,36.364 -288.507,102.588c-42.875,34.968 -78.218,76.913 -106.025,124.625l0,-407.923c0,-119.141 53.199,-230.653 145.833,-306.084c70.126,-57.011 158.483,-88.448 248.699,-88.448c90.307,0 178.57,31.437 248.696,88.448c92.728,75.431 145.833,186.943 145.833,306.084l-0,407.27c-27.251,-46.594 -62.778,-88.726 -106.026,-123.972Zm-288.503,749.531c-217.543,0 -394.532,-176.895 -394.532,-394.435l0.556,-11.722l0.56,-7.998c2.79,-58.129 17.671,-112.909 44.084,-163.317c25.111,-47.803 58.966,-89.191 100.633,-123.138c70.126,-56.919 158.483,-88.453 248.699,-88.453c91.609,-0 177.548,30.603 248.696,88.453c92.728,75.426 145.833,187.034 145.833,306.175c-0,217.54 -176.989,394.435 -394.529,394.435Zm-710.289,-471.722l-0,-433.411c75.894,-48.178 176.62,-48.178 252.605,-0l-0,433.411c-78.684,-36.836 -173.921,-36.836 -252.605,-0Zm-457.682,471.722c-217.539,0 -394.531,-176.895 -394.531,-394.435l0.559,-12l0.465,-7.72c2.79,-58.129 17.763,-112.999 44.27,-163.317c25.019,-47.803 58.872,-89.191 100.538,-123.138c71.058,-57.85 157.09,-88.453 248.699,-88.453c90.216,-0 178.573,31.534 248.7,88.453c92.634,75.426 145.832,187.034 145.832,306.175c0,217.54 -176.992,394.435 -394.532,394.435Zm-248.699,-1338.91c70.127,-57.011 158.39,-88.448 248.699,-88.448c90.216,0 178.573,31.437 248.7,88.448c92.634,75.431 145.832,186.943 145.832,306.084l0,407.27c-27.438,-46.594 -62.78,-88.726 -106.028,-123.972c-81.286,-66.224 -183.684,-102.588 -288.504,-102.588c-104.725,-0 -207.217,36.364 -288.503,102.588c-42.969,34.968 -78.218,77.004 -106.028,124.625l-0,-407.923c-0,-119.141 53.198,-230.653 145.832,-306.084Zm221.171,-239.861c-0,-90.309 73.381,-163.782 163.688,-163.782c90.216,0 163.598,73.473 163.598,163.782l0,201.078l-11.254,-10.229c-81.286,-66.127 -183.684,-102.588 -288.504,-102.588c-9.207,-0 -18.415,0.652 -27.528,1.209l-0,-89.47Zm1059.43,-163.782c90.216,0 163.691,73.473 163.691,163.782l0,89.47c-9.116,-0.557 -18.415,-1.209 -27.622,-1.209c-104.726,-0 -207.22,36.461 -288.507,102.588l-11.254,10.229l0,-201.078c0,-90.309 73.382,-163.782 163.692,-163.782Zm424.572,354.631c-57.478,-46.878 -125.743,-78.406 -197.731,-93.006l0,-97.843c0,-125.096 -101.842,-226.844 -226.841,-226.844c-125.093,0 -226.841,101.748 -226.841,226.844l-0,267.58c-60.919,79.053 -94.774,176.242 -94.774,278.365l-0,56.079c-39.342,-18.505 -82.124,-28.269 -126.303,-28.269c-44.178,-0 -86.96,9.764 -126.302,28.269l-0,-56.079c-0,-102.123 -33.853,-199.312 -94.771,-278.365l-0,-267.58c-0,-125.096 -101.658,-226.844 -226.751,-226.844c-125.093,0 -226.841,101.748 -226.841,226.844l0,97.843c-72.079,14.6 -140.346,46.128 -197.822,93.006c-107.516,87.426 -169.178,216.887 -169.178,355.096l0,638.394c0,252.417 205.355,457.588 457.681,457.588c252.327,0 457.682,-205.171 457.682,-457.588l-0,-4.558c76.359,-48.178 176.248,-48.178 252.605,-0l-0,4.558c-0,252.417 205.357,457.588 457.684,457.588c252.417,0 457.681,-205.171 457.681,-457.588l0,-638.394c0,-138.209 -61.662,-267.67 -169.178,-355.096Z" style="fill:#0b0b16;fill-rule:nonzero;"/><path d="M457.681,1707.82c-104.444,-0 -189.361,-85.008 -189.361,-189.356l0.188,-5.211l0.278,-4.28c1.396,-27.804 8.557,-54.218 21.205,-78.4c11.997,-22.883 28.369,-42.785 48.271,-59.06c34.227,-27.81 75.428,-42.506 119.419,-42.506c43.901,-0 85.193,14.696 119.326,42.506c44.457,36.177 70.126,89.748 70.126,146.951c0,104.348 -85.007,189.356 -189.452,189.356Zm159.227,-385.228c-44.922,-36.552 -101.47,-56.642 -159.227,-56.642c-57.756,0 -114.304,20.09 -159.226,56.642c-26.598,21.668 -48.362,48.081 -64.359,78.684c-16.928,32.271 -26.507,67.427 -28.369,104.632l-0.185,3.065l-0.371,9.491c-0,139.225 113.28,252.508 252.51,252.508c139.231,0 252.511,-113.283 252.511,-252.508c0,-76.265 -34.04,-147.791 -93.284,-195.872Z" style="fill:#0b0b16;fill-rule:nonzero;"/><path d="M1625.65,1707.82c-104.354,-0 -189.361,-85.008 -189.361,-189.356l0.184,-5.211l0.375,-4.28c1.393,-27.901 8.461,-54.218 21.205,-78.4c11.997,-22.883 28.272,-42.785 48.268,-59.06c34.134,-27.81 75.429,-42.506 119.329,-42.506c43.991,-0 85.192,14.696 119.419,42.506c44.457,36.177 70.033,89.748 70.033,146.951c-0,104.348 -85.008,189.356 -189.452,189.356Zm159.224,-385.228l-0,-0.091c-44.922,-36.461 -101.47,-56.551 -159.224,-56.551c-57.757,0 -114.305,20.09 -159.227,56.642c-26.601,21.668 -48.271,48.081 -64.268,78.684c-17.018,32.271 -26.601,67.427 -28.366,104.632l-0.278,3.065l-0.375,9.491c0,139.225 113.283,252.508 252.514,252.508c139.228,0 252.602,-113.283 252.602,-252.508c-0,-76.265 -34.04,-147.694 -93.378,-195.872Z" style="fill:#0b0b16;fill-rule:nonzero;"/></g></g></svg>