<?xml version="1.0" encoding="UTF-8" standalone="no"?><!DOCTYPE svg PUBLIC "-//W3C//DTD SVG 1.1//EN" "http://www.w3.org/Graphics/SVG/1.1/DTD/svg11.dtd"><svg width="100%" height="100%" viewBox="0 0 2084 2084" version="1.1" xmlns="http://www.w3.org/2000/svg" xmlns:xlink="http://www.w3.org/1999/xlink" xml:space="preserve" xmlns:serif="http://www.serif.com/" style="fill-rule:evenodd;clip-rule:evenodd;stroke-linejoin:round;stroke-miterlimit:2;"><rect id="画板1" x="0" y="0" width="2083.33" height="2083.33" style="fill:none;"/><clipPath id="_clip1"><rect id="画板11" serif:id="画板1" x="0" y="0" width="2083.33" height="2083.33"/></clipPath><g clip-path="url(#_clip1)"><g><path d="M1829.53,1830.09c0,8.929 -3.44,17.393 -9.485,23.813l-0.091,-0l-150.293,155.777c-6.415,6.789 -15.253,10.507 -24.551,10.507l-0.096,-0c-9.486,-0 -18.227,-3.718 -24.738,-10.507l-117.927,-122.389c15.346,-2.049 27.159,-14.696 27.159,-30.601l-0,-290.534c-0,-17.58 -14.043,-31.623 -31.436,-31.623l-37.572,-0l0,-351.084l37.572,-0c17.393,-0 31.436,-14.135 31.436,-31.618l-0,-290.63c-0,-17.393 -14.043,-31.436 -31.436,-31.436l-37.572,-0l0,-94.302c0,-29.858 -8.835,-58.779 -25.668,-83.426l-159.498,-234.922c-27.621,-40.734 -73.566,-65.097 -122.763,-65.097l-221.623,-0c-49.197,-0 -95.142,24.363 -122.763,65.097l-159.498,234.922c-16.927,24.647 -25.762,53.477 -25.762,83.426l-0,94.302l-37.388,-0c-17.483,-0 -31.62,14.043 -31.62,31.436l0,290.63c0,17.483 14.137,31.618 31.62,31.618l37.388,-0l-0,351.084l-37.388,-0c-17.483,-0 -31.62,14.043 -31.62,31.623l0,290.534c0,15.905 11.906,28.552 27.159,30.601l-117.833,122.389c-13.116,13.578 -36.46,13.578 -49.572,-0l-150.104,-155.777c-6.232,-6.42 -9.578,-14.884 -9.578,-23.813l-0,-1182.51l6.601,-20.367l108.72,-148.341l-13.859,146.388c-0.837,8.742 1.956,17.205 7.72,23.898l59.894,67.333l-71.704,758.71c-1.768,17.393 11.066,32.833 28.365,34.507l2.974,0.091c16.09,-0 29.855,-12.182 31.436,-28.643l71.704,-758.62l71.426,-55.055c6.976,-5.392 11.347,-13.391 12.091,-21.95l37.759,-398.233l-7.163,-23.153l-21.295,-11.257l-13.766,-1.209l98.304,-134.479c6.417,-8.742 16.833,-13.952 27.806,-13.952l701.512,-0c10.882,-0 21.204,5.21 27.809,13.952l98.303,134.479l-13.765,1.209c-8.37,0.744 -16.09,4.837 -21.391,11.257l-7.067,23.153l37.665,398.233c0.744,8.559 5.208,16.558 12.091,21.95l71.332,55.055l71.704,758.62c1.675,16.461 15.44,28.643 31.436,28.643l3.162,-0.091c17.205,-1.674 30.039,-17.114 28.364,-34.507l-71.704,-758.71l59.801,-67.333c5.767,-6.693 8.651,-15.156 7.811,-23.898l-13.856,-146.388l108.719,148.341l6.602,20.367l0,1182.51Zm-1143.45,-646.641l711.369,-0l0,351.084l-711.369,-0l-0,-351.084Zm-0,-353.684l-0,-94.302c-0,-17.205 5.114,-33.763 14.787,-47.897l159.497,-234.923c15.903,-23.438 42.224,-37.384 70.589,-37.384l221.623,-0c28.18,-0 54.686,13.946 70.588,37.384l159.498,234.923c9.673,14.134 14.787,30.783 14.787,47.897l0,94.302l-711.369,-0Zm780.377,63.149l-0,227.391l-849.385,-0l-0,-227.391l849.385,0Zm-0,932.158l-849.385,0l-0,-227.39l849.385,0l-0,227.39Zm-1013.53,-1560.57l88.353,8.372l-33.388,353.031l-47.988,36.925l-40.362,-45.292l33.385,-353.036Zm1211.07,353.036l-40.365,45.292l-47.988,-36.925l-33.482,-353.031l88.259,-8.372l33.576,353.036Zm209.81,-27.53l-171.216,-233.992l-12.182,-128.899c-1.675,-17.392 -17.392,-30.227 -34.319,-28.461l-64.359,6.045l-120.53,-164.706c-18.32,-25.016 -47.803,-39.99 -78.68,-39.99l-701.512,-0c-31.061,-0 -60.545,14.974 -78.678,39.99l-120.623,164.706l-64.265,-6.045c-17.111,-1.675 -32.736,11.069 -34.319,28.461l-12.182,128.899l-171.31,233.901c-12.275,16.927 -18.786,36.732 -18.786,57.661l-0,1182.51c-0,25.391 9.672,49.481 27.343,67.617l150.103,155.777c37.016,38.503 103.234,38.407 140.34,0l149.176,-154.755c6.417,-6.698 15.439,-10.513 24.737,-10.513l718.44,0c9.3,0 18.229,3.815 24.74,10.513l149.173,154.755c18.507,19.158 43.432,29.852 70.123,29.852l0.096,0c26.691,0 51.428,-10.694 70.12,-29.852l150.107,-155.777c17.579,-18.136 27.155,-42.226 27.155,-67.617l0,-1182.51c0,-20.929 -6.323,-40.734 -18.692,-57.57Z" style="fill:#0b0b16;fill-rule:nonzero;"/></g></g></svg>