<?xml version="1.0" encoding="UTF-8" standalone="no"?><!DOCTYPE svg PUBLIC "-//W3C//DTD SVG 1.1//EN" "http://www.w3.org/Graphics/SVG/1.1/DTD/svg11.dtd"><svg width="100%" height="100%" viewBox="0 0 2084 2084" version="1.1" xmlns="http://www.w3.org/2000/svg" xmlns:xlink="http://www.w3.org/1999/xlink" xml:space="preserve" xmlns:serif="http://www.serif.com/" style="fill-rule:evenodd;clip-rule:evenodd;stroke-linejoin:round;stroke-miterlimit:2;"><rect id="画板1" x="0" y="0" width="2083.33" height="2083.33" style="fill:none;"/><clipPath id="_clip1"><rect id="画板11" serif:id="画板1" x="0" y="0" width="2083.33" height="2083.33"/></clipPath><g clip-path="url(#_clip1)"><g><path d="M1860.9,458.801l-27.623,-27.532l-179.875,-179.966l-30.506,-30.506l144.81,-144.902l237.908,237.908l-144.714,144.998Zm-153.553,53.758c-35.718,35.711 -57.76,83.145 -61.756,133.554l-12.188,149.182c-51.708,-76.357 -134.951,-133.742 -224.329,-146.486c-96.446,-13.857 -186.381,-95.611 -215.031,-189.917l244.515,-19.812c50.5,-4.093 97.843,-26.038 133.464,-61.756l59.059,-58.963l135.325,135.229l-59.059,58.969Zm-154.393,567.521l-3.066,2.14c-12.556,8.18 -29.206,6.505 -39.997,-4.002l-7.624,-5.115l-10.326,-13.022l-51.617,-50.874c-12.46,-12.182 -32.272,-12.091 -44.641,0.375c-12.182,12.46 -12.001,32.271 0.369,44.641l51.339,50.595c6.789,6.79 10.048,15.997 8.93,25.579c-0.744,9.39 -5.768,17.763 -13.766,23.065l-73.007,48.643c-27.623,18.318 -55.058,37.942 -83.612,59.985c-12.369,9.582 -30.137,8.463 -41.201,-2.697l-8.185,-8.089l-37.761,-37.761c-12.37,-12.369 -32.368,-12.369 -44.738,-0c-12.369,12.369 -12.369,32.362 0,44.641l37.761,37.67c6.233,6.137 9.486,14.413 9.117,23.155c-0.187,8.56 -3.815,16.462 -10.139,22.139c-46.315,41.757 -90.122,86.773 -129.932,133.645c-5.58,6.511 -13.391,10.513 -22.32,10.882l-23.434,-9.298l-61.943,-61.944c-12.369,-12.273 -32.368,-12.273 -44.647,0c-12.369,12.37 -12.369,32.368 0,44.738l61.944,61.943l10.513,10.508c11.064,11.069 12.926,28.74 4.184,41.013c-35.996,50.693 -69.568,105.472 -100.074,162.482c-4.745,9.026 -13.487,15.066 -23.439,16.463c-10.047,1.583 -19.436,-1.578 -26.6,-8.646l-67.524,-67.62c-12.369,-12.369 -32.362,-12.369 -44.732,0c-12.278,12.37 -12.278,32.368 0,44.738l67.615,67.427l-0,0.096l17.109,17.019c12.279,12.278 12.279,32.368 0,44.737l-127.043,127.043c-58.503,58.504 -153.831,58.594 -212.334,0l-359.836,-359.745c-58.504,-58.594 -58.504,-153.831 -0,-212.334l126.765,-126.765c12.182,-12.279 32.368,-12.279 44.55,-0l172.524,172.342c12.369,12.273 32.555,12.37 44.737,0c12.37,-12.375 12.37,-32.277 0,-44.646l-155.505,-155.228c-7.068,-7.158 -10.326,-16.831 -8.742,-26.691c1.487,-10.139 7.436,-18.693 16.553,-23.343c56.829,-30.506 111.517,-64.174 162.391,-100.073c12.551,-8.748 30.132,-6.976 41.201,4.087l143.318,143.324l22.417,9.304l22.321,-9.304c12.369,-12.273 12.369,-32.272 -0,-44.641l-132.623,-132.629l-0.188,-0.182c-6.324,-6.233 -9.582,-14.696 -9.304,-23.626c0.375,-8.651 4.371,-16.553 10.979,-22.229c46.684,-39.714 91.7,-83.237 133.65,-129.927c5.671,-6.324 13.482,-9.86 21.946,-10.139l22.974,9.021l175.782,175.504c12.37,12.273 32.363,12.273 44.732,-0c12.279,-12.369 12.279,-32.368 -0,-44.738l-175.499,-175.129l-0.556,-0.466l-7.629,-7.72c-11.252,-11.16 -12.37,-29.019 -2.697,-41.388c22.133,-28.735 41.945,-56.176 60.269,-83.89l48.359,-72.45c5.211,-7.999 13.579,-13.113 23.07,-14.044c9.02,-1.119 18.693,2.418 25.386,9.111l163.51,162.76c12.369,12.375 32.362,12.279 44.641,-0.091c12.369,-12.278 12.182,-32.368 -0,-44.641l-163.601,-162.76l-12.738,-10.326l-5.115,-7.624c-10.513,-10.513 -12.188,-27.253 -4.002,-39.713l2.606,-3.724c25.579,-38.505 66.592,-62.778 112.817,-66.496l12.273,-1.022c31.25,123.415 144.629,229.165 270.372,247.206c106.772,15.253 205.914,114.026 222.098,220.701l-2.883,35.162c-3.628,46.037 -27.998,87.238 -66.502,112.908Zm519.718,-788.41l-282.645,-282.742c-11.995,-11.904 -32.834,-11.904 -44.641,-0l-189.548,189.548c-12.279,12.37 -12.279,32.272 -0,44.641l30.597,30.597l-58.873,58.969c-25.295,25.114 -58.685,40.548 -94.118,43.432l-320.963,26.044c-65.57,5.302 -124.074,39.714 -160.438,94.403l-2.322,3.718c-13.675,20.646 -17.955,45.016 -14.14,68.08c-23.252,5.58 -43.807,19.068 -57.289,39.248l-48.274,72.638c-17.484,26.414 -36.365,52.64 -57.567,80.08c-14.044,18.132 -20.555,39.992 -19.624,61.382c-21.861,3.162 -41.666,13.578 -56.551,30.228c-39.901,44.363 -82.958,86.029 -127.508,123.881c-16.65,14.322 -27.997,33.946 -31.812,55.529c-21.202,-1.675 -43.154,3.718 -61.756,16.922c-48.825,34.417 -101.186,66.689 -155.784,95.89c-24.551,13.113 -41.666,35.439 -47.803,62.13c-28.74,-4.371 -59.059,4.462 -81.192,26.504l-126.771,126.862c-83.055,83.145 -83.055,218.471 0,301.616l359.842,359.751c41.575,41.57 96.077,62.312 150.76,62.312c54.688,0 109.19,-20.742 150.953,-62.312l126.952,-127.049c22.133,-22.133 31.062,-52.639 26.691,-81.283c26.504,-6.233 48.734,-23.252 61.756,-47.809c29.485,-54.689 61.756,-107.05 96.077,-155.875c13.113,-18.511 18.784,-40.275 16.928,-61.756c21.48,-3.723 41.201,-14.884 55.614,-31.811c37.761,-44.454 79.518,-87.426 123.887,-127.322c16.553,-15.071 27.06,-34.695 30.131,-56.459c21.39,0.652 43.251,-5.671 61.387,-19.624c27.248,-21.112 53.383,-39.805 79.797,-57.38l73.194,-48.552c19.999,-13.391 33.578,-33.946 39.061,-57.107l15.815,1.487c18.137,0 36.274,-5.114 52.271,-15.713l3.252,-2.14c54.689,-36.461 89.192,-94.868 94.494,-160.342l25.947,-321.15c2.884,-35.439 18.512,-68.823 43.62,-93.846l58.872,-59.059l27.622,27.531l22.327,9.304l22.32,-9.304l189.452,-189.451c6.046,-5.955 9.298,-14.044 9.298,-22.508l-9.298,-22.133Z" style="fill:#0b0b16;fill-rule:nonzero;"/></g></g></svg>