<?xml version="1.0" encoding="UTF-8" standalone="no"?><!DOCTYPE svg PUBLIC "-//W3C//DTD SVG 1.1//EN" "http://www.w3.org/Graphics/SVG/1.1/DTD/svg11.dtd"><svg width="100%" height="100%" viewBox="0 0 2084 2084" version="1.1" xmlns="http://www.w3.org/2000/svg" xmlns:xlink="http://www.w3.org/1999/xlink" xml:space="preserve" xmlns:serif="http://www.serif.com/" style="fill-rule:evenodd;clip-rule:evenodd;stroke-linejoin:round;stroke-miterlimit:2;"><rect id="画板1" x="0" y="0" width="2083.33" height="2083.33" style="fill:none;"/><g id="画板11" serif:id="画板1"><path d="M2017.19,1134.28c-6.511,13.482 -34.784,29.762 -94.398,35.62c-132.344,12.926 -330.348,-51.434 -457.762,-121.743c-47.246,-26.038 -147.876,-100.814 -190.657,-133.181c4.185,-9.486 7.812,-19.346 10.323,-29.575l24.182,-96.534c15.53,-62.219 15.53,-128.066 -0,-190.286l-24.182,-96.54l-6.695,-19.714c60.079,6.601 163.127,17.483 216.51,20.645c10.23,0.653 20.74,0.931 31.622,0.931c131.041,-0 299.657,-44.458 427.442,-111.696c-168.242,379.546 -71.239,522.303 22.694,660.696c11.439,16.74 22.879,33.57 33.946,50.872c8.184,12.925 10.509,23.154 6.975,30.505Zm-189.448,395.355c-54.965,31.902 -151.874,75.145 -256.13,61.289c-9.487,-1.209 -19.16,1.953 -26.041,8.56c-6.975,6.693 -10.417,16.275 -9.487,25.851c8.092,84.261 -13.114,178.848 -28.739,233.717c-327.929,-317.048 -412.097,-724.028 -429.954,-838.42l34.041,-0c49.291,-0 94.398,-20.373 127.134,-53.665c24.274,18.414 64.452,48.363 104.443,76.632c12.648,40.922 110.208,319.562 484.733,486.036Zm-1251.64,329.417c-15.531,-54.869 -36.921,-149.456 -28.737,-233.717c0.929,-9.576 -2.604,-19.158 -9.487,-25.851c-6.975,-6.607 -16.462,-9.769 -26.041,-8.56c-103.977,13.856 -201.166,-29.387 -256.131,-61.289c374.897,-166.661 472.363,-445.671 484.734,-486.127c39.99,-28.274 80.169,-58.127 104.349,-76.541c32.644,33.292 77.844,53.665 127.136,53.665l34.131,-0c-17.857,114.392 -102.117,521.372 -429.954,838.42Zm-415.538,-689.152c-59.709,-5.858 -87.795,-22.138 -94.398,-35.62c-3.535,-7.351 -1.209,-17.58 6.975,-30.505c11.068,-17.302 22.506,-34.132 33.853,-50.872c94.027,-138.483 190.935,-281.15 22.785,-660.696c127.602,67.238 296.402,111.696 427.536,111.696c10.789,-0 21.299,-0.278 31.529,-0.931c53.384,-3.162 156.338,-14.044 216.604,-20.645l-6.881,19.714l-24.088,96.54c-15.533,62.22 -15.533,128.067 -0,190.286l24.088,96.534c2.696,10.229 6.137,20.089 10.416,29.575c-42.874,32.367 -143.412,107.143 -190.657,133.181c-127.508,70.309 -325.605,134.669 -457.762,121.743Zm-96.91,-925.474c3.907,-17.489 35.434,-37.573 96.91,-43.715c12.835,-1.209 26.133,-1.765 40.177,-1.765c126.206,0 297.146,49.385 416.282,122.669c32.366,19.998 97.189,66.034 146.668,101.745c-59.151,6.329 -136.251,14.14 -178.568,16.649c-134.297,7.81 -327.37,-42.875 -457.948,-120.994c-52.175,-31.346 -66.868,-59.802 -63.521,-74.589Zm908.271,185.444l139.505,0c53.104,0 99.141,36.086 112.069,87.52l24.086,96.534c13.021,52.178 13.021,107.422 0,159.594l-24.086,96.443c-12.928,51.526 -58.965,87.611 -112.069,87.611l-139.505,0c-53.105,0 -99.235,-36.085 -112.069,-87.611l-24.088,-96.443c-13.115,-52.172 -13.115,-107.416 -0,-159.594l24.088,-96.534c12.834,-51.434 58.964,-87.52 112.069,-87.52Zm494.405,-108.255c132.344,-81.469 328.487,-133.551 456.46,-120.904c61.475,6.142 93.003,26.226 96.909,43.715c3.255,14.787 -11.346,43.243 -63.521,74.589c-130.576,78.119 -322.908,128.804 -457.948,120.994c-42.317,-2.509 -119.324,-10.32 -178.66,-16.649c49.571,-35.711 114.395,-81.747 146.76,-101.745Zm562.204,695.668c-101.467,-149.274 -189.076,-278.266 39.155,-716.126c17.671,-29.109 17.299,-54.409 13.578,-70.684c-11.346,-50.407 -66.869,-84.165 -152.339,-92.628c-161.175,-15.719 -371.362,53.568 -495.614,130.013c-49.851,30.693 -166.477,115.511 -204.607,143.507c-31.715,-27.712 -72.636,-44.549 -117.277,-44.549l-139.505,0c-44.643,0 -85.657,16.837 -117.278,44.549c-38.225,-27.996 -154.757,-112.814 -204.514,-143.507c-124.346,-76.445 -334.253,-145.919 -495.708,-130.013c-85.469,8.463 -141.086,42.221 -152.431,92.628c-3.628,16.275 -3.999,41.478 13.671,70.684c228.136,437.86 140.527,566.852 39.062,716.126c-11.719,17.296 -23.437,34.689 -34.877,52.638c-25.855,40.643 -19.996,72.545 -10.416,92.072c13.206,26.975 49.012,61.289 144.991,70.683c13.672,1.397 27.808,2.044 42.317,2.044c144.993,-0 327.65,-63.707 447.717,-128.992c-55.801,103.607 -186.842,279.844 -466.875,388.009c-10.602,3.996 -18.136,13.391 -19.903,24.551c-1.675,11.16 2.604,22.32 11.439,29.484c6.138,4.927 144.062,114.023 313.329,108.812c-2.047,131.325 46.687,264.5 49.012,270.642c3.535,9.764 11.811,17.206 22.041,19.811l7.534,0.744l21.019,-8.095c290.635,-260.686 410.981,-583.966 459.714,-776.949c48.548,192.983 168.987,516.263 459.53,776.949l21.111,8.095l7.627,-0.744c10.138,-2.605 18.414,-10.047 21.949,-19.811c2.325,-6.142 50.965,-139.317 48.92,-270.642c170.009,5.676 307.283,-103.789 313.42,-108.812c8.836,-7.164 13.114,-18.324 11.44,-29.484c-1.767,-11.16 -9.301,-20.555 -19.81,-24.551c-278.731,-107.699 -410.238,-283.846 -466.505,-387.64c119.975,65.103 302.355,128.623 447.16,128.623c14.509,-0 28.645,-0.647 42.317,-2.044c95.887,-9.394 131.786,-43.708 144.899,-70.683c9.579,-19.527 15.532,-51.429 -10.417,-92.072c-11.346,-17.949 -23.157,-35.342 -34.876,-52.638Z" style="fill:#0b0b16;fill-rule:nonzero;"/></g></svg>