<?xml version="1.0" encoding="UTF-8" standalone="no"?><!DOCTYPE svg PUBLIC "-//W3C//DTD SVG 1.1//EN" "http://www.w3.org/Graphics/SVG/1.1/DTD/svg11.dtd"><svg width="100%" height="100%" viewBox="0 0 1000 1000" version="1.1" xmlns="http://www.w3.org/2000/svg" xmlns:xlink="http://www.w3.org/1999/xlink" xml:space="preserve" xmlns:serif="http://www.serif.com/" style="fill-rule:evenodd;clip-rule:evenodd;stroke-linejoin:round;stroke-miterlimit:2;"><rect id="画板1" x="0" y="0" width="1000" height="1000" style="fill:none;"/><clipPath id="_clip1"><rect id="画板11" serif:id="画板1" x="0" y="0" width="1000" height="1000"/></clipPath><g clip-path="url(#_clip1)"><g><path d="M896.973,848.178c-54.911,67.992 -132.992,110.493 -219.823,119.689c-86.832,9.197 -172.145,-15.938 -240.092,-70.849c-67.903,-54.956 -110.403,-132.992 -119.6,-219.868c-19.018,-179.332 111.386,-340.673 290.673,-359.692c11.652,-1.25 23.304,-1.874 34.733,-1.874c164.957,-0 307.146,124.956 325.003,292.592c9.152,86.831 -15.983,172.144 -70.894,240.002Zm-677.284,121.475c-116.831,-0 -189.421,-107.367 -189.421,-280.271c-0,-91.028 37.188,-209.868 86.43,-276.521c2.723,-3.705 5.357,-7.634 7.857,-11.919l1.964,0.981c6.161,3.661 12.545,7.01 19.107,9.867l1.518,0.67c6.83,2.901 13.884,5.312 20.982,7.276l3.974,1.117c6.964,1.83 14.063,3.259 21.206,4.285l3.883,0.402c7.411,0.893 14.867,1.518 22.322,1.518l0.268,-0c7.455,-0 14.91,-0.625 22.321,-1.518l3.974,-0.402c7.143,-1.026 14.152,-2.455 21.116,-4.241l4.107,-1.205c7.098,-1.965 14.063,-4.286 20.804,-7.187l1.696,-0.76c6.563,-2.857 12.858,-6.161 19.018,-9.822l1.965,-0.981c2.545,4.285 5.089,8.214 7.857,11.919c7.456,10.134 14.509,21.697 21.34,33.974c-43.795,66.652 -65.715,148.216 -56.653,233.484c7.679,72.412 36.608,139.109 82.814,193.351c-32.59,61.295 -84.332,95.983 -150.449,95.983Zm81.965,-596.301l-0.312,0.223c-5.446,3.482 -11.16,6.518 -17.054,9.241l-2.812,1.34c-5.714,2.455 -11.563,4.553 -17.545,6.339l-3.348,0.938c-6.072,1.651 -12.232,2.99 -18.438,3.883l-2.634,0.224c-13.17,1.696 -26.563,1.696 -39.733,-0l-2.544,-0.224c-6.25,-0.937 -12.5,-2.232 -18.571,-3.883l-3.17,-0.938c-6.027,-1.741 -11.965,-3.884 -17.724,-6.384l-2.634,-1.25c-5.892,-2.723 -11.696,-5.804 -17.187,-9.33l-0.224,-0.179c5.536,-14.688 8.974,-30.045 10.224,-45.625l2.366,0.981c4.062,1.876 8.125,3.572 12.277,5.09l3.794,1.384c5.134,1.741 10.402,3.259 15.76,4.464l2.633,0.492c4.598,0.981 9.242,1.696 13.885,2.321l4.464,0.491c5.446,0.536 10.938,0.893 16.429,0.893l0.223,-0c5.491,-0 10.938,-0.357 16.384,-0.848l4.554,-0.536c4.598,-0.625 9.152,-1.295 13.616,-2.277l2.946,-0.536c5.313,-1.205 10.492,-2.723 15.625,-4.419l3.884,-1.429c4.152,-1.562 8.215,-3.214 12.188,-5.09l2.456,-0.981c1.205,15.58 4.642,30.937 10.222,45.625Zm-185.046,-191.565c0,-87.724 43.349,-151.474 103.081,-151.474c59.644,-0 102.993,63.75 102.993,151.474c-0,15.134 -5.446,43.215 -12.277,55.358c-9.197,16.474 -15.223,34.778 -17.947,54.51l-7.366,4.732l-7.188,4.107l-11.25,4.598l-7.276,2.813c-4.287,1.294 -8.75,2.143 -13.17,3.036l-6.429,1.384c-13.304,1.964 -26.964,1.964 -40.268,-0l-6.295,-1.339c-4.464,-0.894 -8.884,-1.787 -13.259,-3.081l-7.277,-2.768l-11.25,-4.643l-7.232,-4.152l-7.322,-4.687c-2.723,-19.732 -8.75,-38.036 -17.991,-54.51c-6.741,-12.143 -12.277,-40.224 -12.277,-55.358Zm881.348,423.219c-20.803,-195.94 -197.01,-338.485 -392.995,-317.637c-98.795,10.447 -183.93,60.491 -241.475,132.591c-5.313,-8.84 -10.759,-17.366 -16.474,-25.09c-4.554,-6.161 -8.661,-13.304 -12.946,-22.5c-10.313,-22.099 -14.554,-46.429 -12.277,-70.447l-0.045,-0.089c1.786,-18.304 6.831,-35.091 15.134,-49.867c10.491,-18.795 16.117,-52.813 16.117,-70.18c-0,-105.313 -56.072,-181.787 -133.306,-181.787c-77.277,-0 -133.349,76.474 -133.349,181.787c-0,17.367 5.625,51.385 16.161,70.18c8.303,14.821 13.348,31.652 15.045,49.956c2.276,24.018 -1.965,48.304 -12.188,70.402l-0.045,0c-4.33,9.241 -8.437,16.384 -12.946,22.545c-53.572,72.367 -92.367,196.208 -92.367,294.512c-0,228.976 113.483,310.583 219.689,310.583c63.617,0 129.645,-29.642 172.458,-102.456c8.214,8.036 16.83,15.715 25.893,23.036c64.197,51.876 142.502,79.465 223.93,79.465c12.68,0 25.492,-0.67 38.305,-2.009c94.956,-10.044 180.27,-56.518 240.27,-130.76c60,-74.197 87.501,-167.368 77.411,-262.235Z" style="fill:#0b0b16;fill-rule:nonzero;"/><path d="M526.121,492.907c-6.116,-4.911 -9.91,-11.92 -10.714,-19.688c-0.848,-7.812 1.384,-15.446 6.339,-21.562c4.911,-6.028 11.876,-9.867 19.688,-10.671l3.169,-0.178c6.652,-0 13.081,2.232 18.349,6.518c6.072,4.911 9.911,11.875 10.714,19.688c0.849,7.767 -1.383,15.446 -6.339,21.518c-4.911,6.071 -11.92,9.91 -19.732,10.759c-7.679,0.803 -15.402,-1.473 -21.474,-6.384Zm24.688,36.474c15.848,-1.697 30.045,-9.42 40.09,-21.787c10,-12.41 14.599,-27.946 12.902,-43.75c-1.652,-15.848 -9.42,-30.089 -21.786,-40.134c-12.411,-9.955 -27.858,-14.554 -43.751,-12.902c-15.848,1.652 -30.089,9.419 -40.089,21.83c-10.045,12.367 -14.599,27.902 -12.947,43.751c1.697,15.803 9.464,30.09 21.831,40.09c10.714,8.66 23.75,13.214 37.366,13.214l6.384,-0.312Z" style="fill:#0b0b16;fill-rule:nonzero;"/><path d="M593.711,656.302c-7.723,0.759 -15.402,-1.385 -21.473,-6.295c-6.116,-4.955 -9.911,-11.92 -10.759,-19.733c-1.696,-16.071 10,-30.491 26.072,-32.232l3.169,-0.179c6.652,0 13.081,2.233 18.348,6.518c6.072,4.956 9.867,11.965 10.715,19.732c1.696,16.028 -10,30.492 -26.072,32.189Zm34.42,-75.448c-12.411,-10.045 -27.857,-14.554 -43.75,-12.947c-32.724,3.438 -56.474,32.858 -52.992,65.582c1.652,15.803 9.375,30.044 21.786,40.045c10.715,8.66 23.75,13.259 37.322,13.259l6.429,-0.358c32.679,-3.437 56.429,-32.857 52.991,-65.535c-1.652,-15.849 -9.419,-30.091 -21.786,-40.046Z" style="fill:#0b0b16;fill-rule:nonzero;"/><path d="M427.37,615.051c-7.678,0.938 -15.402,-1.384 -21.517,-6.34c-6.072,-4.91 -9.911,-11.919 -10.715,-19.687c-1.696,-16.072 10,-30.536 26.072,-32.232l3.08,-0.179c14.822,0 27.545,11.205 29.152,26.25c1.696,16.027 -10,30.492 -26.072,32.188Zm-9.375,-88.394c-32.679,3.437 -56.474,32.858 -52.991,65.581c1.696,15.804 9.464,30.045 21.83,40.045c10.67,8.661 23.75,13.259 37.367,13.259l6.383,-0.357c32.68,-3.437 56.43,-32.857 52.992,-65.581c-3.482,-32.679 -32.991,-56.295 -65.581,-52.947Z" style="fill:#0b0b16;fill-rule:nonzero;"/></g></g></svg>