<?xml version="1.0" encoding="UTF-8" standalone="no"?><!DOCTYPE svg PUBLIC "-//W3C//DTD SVG 1.1//EN" "http://www.w3.org/Graphics/SVG/1.1/DTD/svg11.dtd"><svg width="100%" height="100%" viewBox="0 0 2084 2084" version="1.1" xmlns="http://www.w3.org/2000/svg" xmlns:xlink="http://www.w3.org/1999/xlink" xml:space="preserve" xmlns:serif="http://www.serif.com/" style="fill-rule:evenodd;clip-rule:evenodd;stroke-linejoin:round;stroke-miterlimit:2;"><rect id="画板1" x="0" y="0" width="2083.33" height="2083.33" style="fill:none;"/><g id="画板11" serif:id="画板1"><g><path d="M1652.95,1330.08c-176.339,0 -325.613,-131.698 -347.192,-306.362c-2.138,-17.206 -17.857,-29.947 -35.155,-27.345c-17.299,2.047 -29.669,17.859 -27.437,35.156c4,32.368 12.09,63.246 23.066,92.728c-65.477,38.039 -139.417,58.128 -215.868,58.128c-158.016,0 -303.199,-86.401 -378.813,-225.538c-8.371,-15.347 -27.529,-21.021 -42.782,-12.65c-15.347,8.37 -21.019,27.438 -12.743,42.875c27.996,51.433 64.36,96.449 106.678,133.929c-27.157,153.181 -161.086,266.742 -318.36,266.742c-178.477,0 -323.846,-145.276 -323.846,-323.755c0,-102.026 46.969,-195.22 126.86,-256.229c25.392,51.617 62.779,96.168 110.026,130.486l18.509,5.952c9.673,-0 19.344,-4.556 25.576,-13.113c10.138,-14.044 7.069,-33.762 -7.068,-43.992c-47.619,-34.505 -83.24,-81.845 -103.144,-136.718l-0.372,-1.675l-1.674,-3.906c-10.231,-30.04 -15.44,-61.662 -15.44,-93.749c0,-160.623 130.674,-291.203 291.203,-291.203c29.11,0 57.943,4.371 85.472,12.648l4.744,0.559l3.348,0.743l1.209,0.094l1.302,-0.278l7.44,-1.397l4.279,-1.302l5.952,-3.906l3.627,-2.977l3.814,-5.393l2.697,-5.024l1.116,-1.953l0.372,-4.371l0.931,-3.812c5.672,-157.086 133.555,-280.32 291.015,-280.32c133.742,-0 249.907,90.494 282.366,220.145l0.279,0.372l3.162,6.789l2.604,4.65l0.372,0.746l3.348,2.696l5.953,4.556l3.906,1.49l7.812,2.137l3.628,-0.184l7.255,-0.278l1.301,-0.56l2.326,-1.209l8.742,-4.836l0.279,-0.185c52.455,-44.459 119.326,-69.01 188.245,-69.01c160.62,-0 291.201,130.579 291.201,291.2c0,29.949 -4.557,58.966 -13.021,86.31l-0.093,0.094c-36.924,118.488 -147.6,204.798 -278.087,204.798c-127.698,0 -239.12,-82.495 -277.345,-202.752c25.484,-24.276 47.898,-52.083 65.477,-83.708c8.463,-15.159 3.068,-34.318 -12.277,-42.875c-15.161,-8.37 -34.413,-2.975 -42.876,12.278c-51.433,92.353 -148.996,149.739 -254.557,149.739c-34.227,-0 -67.616,-5.859 -99.423,-17.391c-16.37,-5.861 -34.414,2.509 -40.365,18.881c-6.046,16.368 2.511,34.502 18.786,40.457c38.785,14.044 79.336,21.111 121.002,21.111c69.383,0 135.602,-20.926 192.058,-57.385c52.547,134.207 182.105,224.795 329.52,224.795c146.856,0 273.158,-89.844 326.73,-217.353c128.069,54.593 212.239,180.245 212.239,321.613c0,192.895 -156.902,349.797 -349.889,349.797Zm-300.223,-66.314c-96.633,120.444 -161.272,249.72 -199.033,341.983c-6.975,-101.748 -1.86,-249.908 57.478,-387.462c28.181,-9.488 55.524,-21.58 81.566,-36.18c16.742,29.669 36.831,57.198 59.989,81.659Zm-363.096,-22.227c-35.341,82.124 -54.501,161.551 -64.359,230.281c-33.576,-76.728 -86.217,-164.991 -168.342,-248.79c8.558,-19.068 15.533,-38.97 21.021,-59.71c62.963,41.761 135.23,68.918 211.68,78.219Zm281.158,778.831l-416.388,0c1.395,-99.423 -12.277,-394.81 -196.801,-664.155c25.391,-22.042 47.805,-47.156 66.779,-75.244c150.391,160.995 186.384,334.263 194.196,390.161c1.116,11.72 2.139,18.881 2.325,20.368c2.418,16.74 17.857,28.553 34.599,26.694c16.834,-1.768 29.297,-16.556 28.088,-33.39c-0.094,-2.046 -0.559,-8.37 -1.954,-18.696c-4.743,-53.755 -11.626,-233.443 75.707,-420.942c26.32,-0.281 52.455,-2.884 78.217,-7.348c-87.146,245.628 -29.017,497.582 -26.227,509.114c3.349,13.857 15.811,23.808 30.134,24.183c15.532,0.65 27.251,-9.395 30.971,-23.252c1.023,-3.536 67.244,-236.795 229.446,-441.5c24.461,18.881 50.874,34.877 79.148,48.178c-196.336,296.78 -210.472,570.405 -208.24,665.829Zm538.876,-1422.25c5.394,-24.648 8.557,-50.13 8.557,-76.452c0,-195.404 -158.947,-354.353 -354.352,-354.353c-68.546,-0 -135.232,20.277 -192.244,57.107c-52.642,-134.023 -182.106,-224.423 -329.334,-224.423c-178.759,-0 -325.893,130.392 -350.633,303.198c-21.856,-4.184 -44.085,-6.418 -66.685,-6.418c-195.406,0 -354.354,158.949 -354.354,354.262c0,32.459 4.465,64.637 13.023,95.515c-104.632,72.454 -166.296,189.267 -166.296,317.429c-0,213.356 173.643,386.814 386.997,386.814c73.476,0 142.579,-20.555 201.637,-56.641c206.288,305.525 184.525,651.042 184.153,655.319c-0.651,8.742 2.325,17.393 8.37,23.904c5.952,6.324 14.324,9.951 23.066,9.951l482.608,0c8.929,0 17.485,-3.814 23.437,-10.325c5.953,-6.79 8.929,-15.532 7.906,-24.552c-0.372,-4.093 -29.017,-322.637 205.171,-670.76c35.808,10.045 73.475,15.625 112.258,15.625c227.772,0 413.04,-185.268 413.04,-413.04c0,-169.084 -101.841,-318.916 -256.325,-382.16Z" style="fill:#0b0b16;fill-rule:nonzero;"/></g></g></svg>