<?xml version="1.0" encoding="UTF-8" standalone="no"?><!DOCTYPE svg PUBLIC "-//W3C//DTD SVG 1.1//EN" "http://www.w3.org/Graphics/SVG/1.1/DTD/svg11.dtd"><svg width="100%" height="100%" viewBox="0 0 2084 2084" version="1.1" xmlns="http://www.w3.org/2000/svg" xmlns:xlink="http://www.w3.org/1999/xlink" xml:space="preserve" xmlns:serif="http://www.serif.com/" style="fill-rule:evenodd;clip-rule:evenodd;stroke-linejoin:round;stroke-miterlimit:2;"><rect id="画板1" x="0" y="0" width="2083.33" height="2083.33" style="fill:none;"/><clipPath id="_clip1"><rect id="画板11" serif:id="画板1" x="0" y="0" width="2083.33" height="2083.33"/></clipPath><g clip-path="url(#_clip1)"><g><path d="M1965.75,896.803l-352.121,0l18.321,-229.631l381.138,0l-47.338,229.631Zm-197.637,874.534l-238.376,0c11.532,-31.899 19.346,-65.755 22.136,-101.189l-0,-0.093l56.732,-710.102l276.415,0l-116.907,811.384Zm-629.931,192.711c-146.486,-11.72 -262.928,-119.235 -292.596,-255.954c13.3,8.092 28.925,16.09 47.524,23.995c68.361,29.019 160.53,49.387 258.929,57.292c28.46,2.233 57.013,3.349 85.007,3.349c88.451,-0 171.875,-11.532 230.75,-35.621c-50.874,130.673 -182.85,218.658 -329.614,206.939Zm-437.036,-192.711l-57.385,-811.384l366.26,0l-0,529.114c-126.862,11.066 -228.144,49.384 -233.724,119.138l-0.188,6.883c-3.44,54.782 4.837,107.515 22.508,156.249l-97.471,0Zm-385.974,0l-116.909,-811.384l382.255,0l57.385,811.384l-322.731,0Zm-244.886,-1104.16l1347.85,0l-18.418,229.631l-1282.09,0l-47.341,-229.631Zm42.969,-297.527l425.596,0l16.463,234.374l-408.297,0l-33.762,-234.374Zm896.766,0l-0,234.374l-391.464,0l-16.462,-234.374l407.926,0Zm431.824,0l-18.693,234.374l-349.888,0l0,-234.374l368.581,0Zm-47.059,590.308l-44.55,557.758c-52.643,-13.95 -112.074,-23.995 -174.202,-28.832c-34.412,-2.79 -69.008,-3.721 -102.77,-3.255l0,-525.671l321.522,0Zm-237.63,766.465c-201.546,-16.184 -320.406,-82.498 -317.988,-113.189c2.047,-26.601 97.005,-64.734 251.396,-64.734c25.298,0 52.267,1.025 80.449,3.256c91.981,7.348 176.989,26.041 239.491,52.455c59.057,25.204 79.334,50.13 78.403,60.828c-2.418,30.784 -130.301,77.565 -331.751,61.384Zm367.279,-1598.68l6.139,-8.555l10.416,1.393l42.97,33.762c15.066,11.813 23.158,30.319 21.67,49.481l-109.746,1374.81c-15.812,-10.882 -35.715,-21.855 -60.734,-32.459l-23.158,-9.114l112.443,-1409.32Zm445.686,241.909l-33.761,234.374l-299.386,0l18.693,-234.374l314.454,0Zm106.119,246c-6.045,-7.345 -14.974,-11.626 -24.46,-11.626l-51.618,0l37.668,-261.44c1.299,-8.926 -1.397,-18.134 -7.349,-25.11c-6.045,-6.883 -14.788,-10.789 -23.901,-10.789l-345.798,0l7.814,-97.842c3.161,-40.27 -13.86,-79.241 -45.666,-104.26l-43.063,-33.668c-21.299,-16.741 -49.759,-20.368 -74.685,-9.58c-24.645,10.882 -41.479,34.412 -43.619,61.385l-14.694,183.965l-1370.07,0c-9.115,0 -17.857,3.906 -23.903,10.789c-5.952,6.976 -8.649,16.184 -7.347,25.11l37.668,261.44l-51.712,0c-9.393,0 -18.415,4.281 -24.368,11.626c-6.044,7.349 -8.37,17.115 -6.51,26.323l60.361,292.874c3.069,14.694 15.904,25.111 30.971,25.111l42.597,0l122.024,847.471c2.324,15.44 15.625,27.066 31.343,27.066l540.087,-0c62.128,106.4 173.177,181.919 305.059,192.429c10.508,0.931 20.924,1.21 31.25,1.21c141.462,-0 267.764,-77.103 335.751,-193.639l295.386,-0c15.719,-0 29.019,-11.626 31.25,-27.066l122.119,-847.471l42.688,0c14.975,0 27.81,-10.417 30.878,-25.111l60.269,-292.874c1.953,-9.208 -0.372,-18.974 -6.418,-26.323Z" style="fill:#0b0b16;fill-rule:nonzero;"/></g></g></svg>