<?xml version="1.0" encoding="UTF-8" standalone="no"?><!DOCTYPE svg PUBLIC "-//W3C//DTD SVG 1.1//EN" "http://www.w3.org/Graphics/SVG/1.1/DTD/svg11.dtd"><svg width="100%" height="100%" viewBox="0 0 2084 2084" version="1.1" xmlns="http://www.w3.org/2000/svg" xmlns:xlink="http://www.w3.org/1999/xlink" xml:space="preserve" xmlns:serif="http://www.serif.com/" style="fill-rule:evenodd;clip-rule:evenodd;stroke-linejoin:round;stroke-miterlimit:2;"><rect id="画板1" x="0" y="0" width="2083.33" height="2083.33" style="fill:none;"/><g id="画板11" serif:id="画板1"><g><path d="M1868.14,1029.95c0,25.39 -20.645,45.944 -45.85,45.944l-1561.11,-0c-25.392,-0 -45.947,-20.554 -45.947,-45.944l0,-3.814c0,-25.298 20.555,-45.945 45.947,-45.945l639.507,0l108.543,53.758l13.947,3.254c9.395,-0 18.415,-4.185 24.648,-11.812l36.177,-45.2l738.286,0c25.205,0 45.85,20.647 45.85,45.945l0,3.814Zm-126.952,251.58l-13.209,1.023c-54.127,-0 -105.841,-31.808 -145.646,-89.657c-14.14,-20.647 -29.853,-38.412 -46.412,-53.758l205.267,0l0,142.392Zm32.181,255.208l-1463.45,0c-52.174,0 -94.681,-42.503 -94.681,-96.353c0,-52.177 42.507,-94.773 94.681,-94.773l1463.45,-0c52.265,-0 94.771,42.596 94.771,96.539c0,52.084 -42.506,94.587 -94.771,94.587Zm-258.837,197.36l97.467,-134.115l129.189,0l0,134.115l-226.656,-0Zm353.608,128.161c0,87.054 -70.872,157.832 -157.736,157.832l-1337.34,-0c-87.051,-0 -157.833,-70.778 -157.833,-159.599c0,-34.877 28.275,-63.243 63.153,-63.243l997.117,-0l113.931,62.406l15.162,3.907c9.764,0 19.437,-4.744 25.482,-13.114l38.692,-53.199l336.216,-0c34.877,-0 63.152,28.366 63.152,65.01Zm-472.841,-71.335l-349.237,-190.941l487.815,0l-138.578,190.941Zm-1052.83,-190.941l571.984,0l245.627,134.115l-817.611,-0l0,-134.115Zm501.395,-371.28c14.322,20.647 29.944,38.504 46.593,53.85l-384.393,-0c16.74,-15.346 32.459,-33.203 46.6,-53.85c39.804,-57.757 91.609,-89.565 145.645,-89.565c54.127,0 105.841,31.808 145.555,89.565Zm343.283,-35.807c-39.805,57.849 -91.61,89.657 -145.742,89.657c-54.036,-0 -105.654,-31.808 -145.458,-89.657c-14.232,-20.647 -29.763,-38.412 -46.503,-53.758l384.206,0c-16.741,15.346 -32.363,33.111 -46.503,53.758Zm343.192,35.807c14.14,20.647 29.853,38.504 46.503,53.85l-384.206,-0c16.65,-15.346 32.272,-33.203 46.503,-53.85c39.805,-57.757 91.519,-89.565 145.645,-89.565c54.036,0 105.654,31.808 145.555,89.565Zm-1187.87,-89.565l204.705,0c-16.553,15.346 -32.271,33.111 -46.503,53.758c-39.804,57.849 -91.518,89.657 -145.554,89.657l-12.648,-0.93l0,-142.485Zm0,-340.588l191.314,0l239.395,118.582l-430.709,0l0,-118.582Zm-115.048,-91.797c-12.279,-17.391 -15.531,-38.504 -8.651,-58.222c121.372,-350.168 452.195,-585.565 822.822,-585.565c370.911,0 701.547,235.397 823.01,585.565c6.789,19.718 3.724,40.831 -8.742,58.222c-12.738,17.95 -33.294,28.646 -55.336,28.646l-1517.77,0c-21.855,0 -42.501,-10.696 -55.336,-28.646Zm1002.23,91.797l511.533,0l0,118.582l-606.588,0l95.055,-118.582Zm-553.574,0l472.66,0l-134.304,167.503l-338.356,-167.503Zm1146.21,118.582l-18.046,0l0,-118.768c40.923,-1.209 79.337,-21.484 103.145,-55.059c24.364,-34.133 30.506,-76.172 16.831,-115.421c-130.205,-375.558 -484.836,-627.883 -882.626,-627.883c-397.506,0 -752.233,252.325 -882.438,627.883c-13.675,39.156 -7.442,81.288 16.831,115.421c23.813,33.575 62.318,53.944 103.332,55.059l-0,118.768l-18.137,0c-60.269,0 -109.094,48.829 -109.094,109.004l0,3.814c0,60.081 48.825,109.188 109.094,109.188l18.137,0l-0,121.466c-25.579,-15.253 -49.2,-37.947 -69.846,-67.708c-9.86,-14.324 -29.484,-17.951 -43.994,-8.092c-14.231,9.859 -17.762,29.483 -7.998,43.899c21.764,31.436 46.594,56.64 73.66,75.706c-46.968,27.437 -79.053,78.312 -79.053,137.742c0,76.452 54.871,140.347 127.231,154.762l-0,137.185l-0.931,-0c-69.658,-0 -126.3,56.64 -126.3,128.161c0,121.931 99.052,221.075 220.98,221.075l1337.34,0c121.741,0 220.889,-99.144 220.889,-222.842c-0,-69.754 -56.641,-126.394 -126.305,-126.394l-0.744,-0l0,-137.277c72.36,-14.509 127.049,-78.404 127.049,-156.436c-0,-58.315 -32.181,-108.725 -79.246,-136.068c26.976,-19.16 51.902,-44.178 73.479,-75.614c9.951,-14.416 6.323,-34.04 -8.095,-43.899c-14.413,-9.859 -34.037,-6.232 -43.898,8.092c-20.368,29.575 -43.897,52.269 -69.289,67.522l0,-121.28l18.046,0c59.985,0 109.003,-49.107 109.003,-109.188l-0,-3.814c-0,-60.175 -49.018,-109.004 -109.003,-109.004Z" style="fill:#0b0b16;fill-rule:nonzero;"/><path d="M882.837,356.585l63.612,-0c17.302,-0 31.437,-14.138 31.437,-31.53c0,-17.391 -14.135,-31.528 -31.437,-31.528l-63.612,0c-17.484,0 -31.625,14.137 -31.625,31.528c0,17.392 14.141,31.53 31.625,31.53Z" style="fill:#0b0b16;fill-rule:nonzero;"/><path d="M660.364,292.968l63.521,0c17.49,0 31.625,-13.95 31.625,-31.436c-0,-17.391 -14.135,-31.621 -31.625,-31.621l-63.521,-0c-17.484,-0 -31.619,14.23 -31.619,31.621c-0,17.486 14.135,31.436 31.619,31.436Z" style="fill:#0b0b16;fill-rule:nonzero;"/><path d="M596.751,515.532l63.613,0c17.393,0 31.528,-14.138 31.528,-31.529c-0,-17.486 -14.135,-31.528 -31.528,-31.528l-63.613,-0c-17.393,-0 -31.533,14.042 -31.533,31.528c-0,17.391 14.14,31.529 31.533,31.529Z" style="fill:#0b0b16;fill-rule:nonzero;"/><path d="M692.266,579.241c0,17.485 14.232,31.622 31.619,31.622l63.618,-0c17.393,-0 31.625,-14.137 31.625,-31.622c-0,-17.3 -14.232,-31.53 -31.625,-31.53l-63.618,0c-17.387,0 -31.619,14.23 -31.619,31.53Z" style="fill:#0b0b16;fill-rule:nonzero;"/><path d="M1105.4,483.724l63.335,0c17.58,0 31.624,-14.044 31.624,-31.529c0,-17.392 -14.044,-31.529 -31.624,-31.529l-63.335,-0c-17.58,-0 -31.715,14.137 -31.715,31.529c0,17.485 14.135,31.529 31.715,31.529Z" style="fill:#0b0b16;fill-rule:nonzero;"/><path d="M1264.16,324.777l63.521,0c17.581,0 31.625,-13.951 31.625,-31.529c-0,-17.3 -14.044,-31.53 -31.625,-31.53l-63.521,0c-17.393,0 -31.528,14.23 -31.528,31.53c-0,17.578 14.135,31.529 31.528,31.529Z" style="fill:#0b0b16;fill-rule:nonzero;"/><path d="M1454.92,420.108l63.521,-0c17.484,-0 31.625,-13.95 31.625,-31.53c-0,-17.298 -14.141,-31.435 -31.625,-31.435l-63.521,-0c-17.485,-0 -31.625,14.137 -31.625,31.435c-0,17.58 14.14,31.53 31.625,31.53Z" style="fill:#0b0b16;fill-rule:nonzero;"/><path d="M1327.87,611.049c-0,17.485 14.231,31.623 31.624,31.623l63.613,-0c17.393,-0 31.624,-14.138 31.624,-31.623c0,-17.299 -14.231,-31.528 -31.624,-31.528l-63.613,-0c-17.393,-0 -31.624,14.229 -31.624,31.528Z" style="fill:#0b0b16;fill-rule:nonzero;"/><path d="M1613.86,579.055l63.522,0c17.484,0 31.528,-14.136 31.528,-31.622c-0,-17.299 -14.044,-31.435 -31.528,-31.435l-63.522,-0c-17.58,-0 -31.624,14.136 -31.624,31.435c-0,17.486 14.044,31.622 31.624,31.622Z" style="fill:#0b0b16;fill-rule:nonzero;"/><path d="M978.261,197.824l63.521,-0c17.394,-0 31.438,-14.23 31.438,-31.622c-0,-17.486 -14.044,-31.622 -31.438,-31.622l-63.521,0c-17.581,0 -31.625,14.136 -31.625,31.622c0,17.392 14.044,31.622 31.625,31.622Z" style="fill:#0b0b16;fill-rule:nonzero;"/><path d="M405.994,642.672l63.618,-0c17.387,-0 31.619,-14.138 31.619,-31.623c-0,-17.299 -14.232,-31.528 -31.619,-31.528l-63.618,-0c-17.297,-0 -31.528,14.229 -31.528,31.528c-0,17.485 14.231,31.623 31.528,31.623Z" style="fill:#0b0b16;fill-rule:nonzero;"/><path d="M1009.98,611.328l-63.527,0c-17.575,0 -31.619,14.044 -31.619,31.53c0,17.391 14.044,31.621 31.619,31.621l63.527,0c17.388,0 31.432,-14.23 31.432,-31.621c-0,-17.486 -14.044,-31.53 -31.432,-31.53Z" style="fill:#0b0b16;fill-rule:nonzero;"/></g></g></svg>