<?xml version="1.0" encoding="UTF-8" standalone="no"?><!DOCTYPE svg PUBLIC "-//W3C//DTD SVG 1.1//EN" "http://www.w3.org/Graphics/SVG/1.1/DTD/svg11.dtd"><svg width="100%" height="100%" viewBox="0 0 2084 2084" version="1.1" xmlns="http://www.w3.org/2000/svg" xmlns:xlink="http://www.w3.org/1999/xlink" xml:space="preserve" xmlns:serif="http://www.serif.com/" style="fill-rule:evenodd;clip-rule:evenodd;stroke-linejoin:round;stroke-miterlimit:2;"><rect id="画板1" x="0" y="0" width="2083.33" height="2083.33" style="fill:none;"/><g id="画板11" serif:id="画板1"><g><path d="M63.243,1888.13l0,-110.491c101.748,42.876 233.724,34.599 322.915,-25.948c82.868,-56.362 218.193,-56.362 301.247,0c52.083,35.435 118.954,53.106 185.921,53.106c67.058,0 133.929,-17.671 186.194,-53.106c83.054,-56.362 218.192,-56.362 301.06,0c104.449,70.87 267.857,70.87 372.307,0c77.378,-52.548 204.795,-54.501 287.385,-7.626l-0,144.065l-1957.03,0Zm711.31,-1417.5c10.604,131.511 115.139,206.566 291.012,206.566c177.088,-0 281.902,-76.264 291.018,-209.635l327.848,290.457l-1513.12,0l603.238,-287.388Zm291.012,-251.209c126.027,0 228.888,102.771 228.888,228.887c-0,136.999 -124.625,165.737 -228.888,165.737c-104.444,-0 -228.887,-28.738 -228.887,-165.737c0,-126.116 102.588,-228.887 228.887,-228.887Zm274.647,-18.135l628.351,556.732l-188.804,0l-431.918,-382.532c-14.044,-53.852 -42.688,-101.749 -81.936,-138.765l74.307,-35.435Zm680.06,1276.5l-1957.03,0l0,-458.146c50.874,119.327 139.509,241.071 289.344,241.071c112.63,-0 142.761,-81.101 167.131,-146.113c25.391,-68.265 45.572,-122.209 140.621,-122.209c97.564,0 131.698,70.498 176.157,186.384c34.878,91.331 74.682,194.939 186.756,194.939c138.946,0 170.384,-89.75 195.775,-161.923c25.392,-71.986 43.619,-112.815 122.581,-112.815c99.426,-0 127.418,26.227 159.877,56.547c35.808,33.203 76.174,70.964 192.523,70.964c148.438,-0 261.624,-163.132 326.264,-287.668l-0,538.969Zm-1957.03,62.965l1957.03,0l-0,132.812c-101.657,-42.968 -233.724,-34.598 -322.915,25.949c-83.055,56.362 -218.193,56.362 -301.247,0c-104.257,-70.777 -267.761,-70.777 -372.211,0c-81.562,55.431 -219.493,55.431 -301.06,0c-104.444,-70.777 -267.761,-70.777 -372.205,0c-78.684,53.478 -203.683,55.619 -287.391,7.627l0,-166.388Zm1942.52,-719.492c-51.617,123.884 -171.502,342.168 -311.754,342.168c-91.519,0 -118.398,-25.205 -149.46,-54.129c-36.83,-34.413 -78.684,-73.29 -202.94,-73.29c-127.508,0 -157.827,85.845 -182.009,154.948c-24.648,69.383 -42.32,119.699 -136.347,119.699c-65.48,-0 -91.241,-58.686 -127.883,-154.576c-38.692,-101.004 -86.961,-226.749 -235.03,-226.749c-138.947,0 -174.198,94.309 -199.868,163.134c-25.573,69.009 -42.132,105.189 -107.884,105.189c-191.127,0 -263.583,-276.321 -283.389,-376.394l1936.56,-0Zm77.384,-32.832l-0.562,-4.929l-0.744,-2.976l-0.834,-2.884l-0.744,-1.115l-0.556,-1.209l-1.675,-2.698l-0.374,-1.116l-2.697,-2.976l-1.396,-1.581l-0.931,-0.931l-706.286,-625.743c-9.486,-8.556 -23.064,-10.416 -34.315,-4.928l-123.512,58.778c-42.319,-23.901 -91.241,-37.667 -142.955,-37.667c-144.436,-0 -264.133,105.097 -287.572,242.839l-760.044,361.793l-8.089,5.859l-0.562,0.744l-0.743,0.744l-0.744,0.465l-1.113,2.232l-3.814,5.581l-0.653,2.418l-0.931,3.627l-0.931,5.301l-0.369,1.581l0,1130.02c0,17.391 14.135,31.435 31.624,31.435l2020.27,0c17.484,0 31.437,-14.044 31.437,-31.435l0,-1130.02l-0.187,-1.209Z" style="fill:#0b0b16;fill-rule:nonzero;"/></g></g></svg>