<?xml version="1.0" encoding="UTF-8" standalone="no"?><!DOCTYPE svg PUBLIC "-//W3C//DTD SVG 1.1//EN" "http://www.w3.org/Graphics/SVG/1.1/DTD/svg11.dtd"><svg width="100%" height="100%" viewBox="0 0 2084 2084" version="1.1" xmlns="http://www.w3.org/2000/svg" xmlns:xlink="http://www.w3.org/1999/xlink" xml:space="preserve" xmlns:serif="http://www.serif.com/" style="fill-rule:evenodd;clip-rule:evenodd;stroke-linejoin:round;stroke-miterlimit:2;"><rect id="画板1" x="0" y="0" width="2083.33" height="2083.33" style="fill:none;"/><g id="画板11" serif:id="画板1"><g><path d="M2020.18,1320.45c-49.48,-17.019 -106.679,-5.762 -146.113,33.668c-29.669,29.575 -81.194,29.575 -110.77,-0c-27.53,-27.623 -63.802,-41.388 -100.074,-41.388c-36.18,-0 -72.452,13.765 -99.982,41.388c-30.599,30.506 -80.171,30.506 -110.77,-0c-26.693,-26.782 -62.221,-41.479 -100.074,-41.479c-37.668,-0 -73.196,14.697 -99.889,41.479c-30.599,30.415 -80.357,30.506 -110.863,-0c-26.693,-26.782 -62.221,-41.479 -99.981,-41.479c-37.761,-0 -73.289,14.697 -100.075,41.479c-30.506,30.415 -80.171,30.506 -110.677,-0c-26.785,-26.782 -62.314,-41.479 -100.074,-41.479c-37.761,-0 -73.289,14.697 -99.982,41.479c-30.599,30.415 -80.264,30.506 -110.77,-0c-26.693,-26.782 -62.314,-41.479 -99.981,-41.479c-37.854,-0 -73.382,14.697 -100.074,41.479c-30.599,30.415 -80.265,30.506 -110.771,-0c-37.946,-38.039 -96.819,-50.778 -146.112,-33.759l-0,-26.135c-0,-52.174 42.411,-94.681 94.68,-94.681l1767.67,0c52.27,0 94.681,42.507 94.681,94.681l-0,26.226Zm-1878.16,485.397l-0,-157.827l1799.2,-0l0,157.827l-1799.2,0Zm1799.2,-220.98l-1799.2,0l-0,-201.265l22.6,15.066c55.153,55.245 144.997,55.154 200.056,0c29.669,-29.575 81.102,-29.575 110.77,0c55.153,55.245 144.904,55.154 200.056,0c29.576,-29.575 81.101,-29.575 110.77,0c55.153,55.245 144.81,55.154 199.963,0c29.669,-29.575 81.194,-29.575 110.77,0c55.153,55.245 144.904,55.154 200.056,0c29.669,-29.575 81.101,-29.575 110.77,0c26.693,26.788 62.221,41.485 99.981,41.485c37.854,-0 73.289,-14.697 100.075,-41.485c29.576,-29.575 81.194,-29.575 110.677,0c55.246,55.154 144.996,55.154 200.149,0l22.507,-15.066l0,201.265Zm-1467.73,-606.304l1136.35,0l0,157.828l-1136.35,-0l0,-157.828Zm-94.68,-353.796c0,-52.27 42.504,-94.771 94.68,-94.771l1136.35,-0c52.269,-0 94.773,42.501 94.773,94.771l0,40.457c-48.642,-14.975 -103.422,-3.071 -141.369,34.968c-29.669,29.581 -81.194,29.581 -110.77,0c-27.623,-27.526 -63.802,-41.382 -100.074,-41.382c-36.18,-0 -72.359,13.856 -99.889,41.382c-30.599,30.507 -80.357,30.507 -110.863,0c-55.059,-55.245 -144.81,-55.245 -200.056,0c-30.506,30.507 -80.171,30.507 -110.677,0c-55.245,-55.245 -144.903,-55.245 -200.056,0c-29.576,29.581 -81.101,29.672 -110.77,0c-38.039,-38.039 -92.82,-49.846 -141.276,-34.968l0,-40.457Zm212.984,-228.888c-0,-39.157 31.808,-71.054 70.963,-71.054c39.156,0 71.057,31.897 71.057,71.054c-0,39.158 -31.901,71.055 -71.057,71.055c-39.155,-0 -70.963,-31.897 -70.963,-71.055Zm355.19,-23.626c-0,-52.264 42.41,-94.771 94.68,-94.771c52.176,-0 94.68,42.507 94.68,94.771c-0,52.18 -42.504,94.681 -94.68,94.681c-52.27,-0 -94.68,-42.501 -94.68,-94.681Zm402.436,23.626c0,-39.157 31.901,-71.054 71.057,-71.054c39.156,0 71.056,31.897 71.056,71.054c0,39.158 -31.9,71.055 -71.056,71.055c-39.156,-0 -71.057,-31.897 -71.057,-71.055Zm-875.93,347.189l1.953,1.771c55.153,55.058 144.904,55.058 200.056,0c29.576,-29.672 81.101,-29.672 110.77,0c55.153,55.058 144.81,55.058 199.963,0c30.599,-30.603 80.264,-30.603 110.77,0c55.153,55.058 144.904,55.058 200.056,0c29.669,-29.672 81.101,-29.672 110.77,0c26.693,26.692 62.221,41.389 99.981,41.389c37.854,-0 73.289,-14.697 100.075,-41.389l1.953,-1.771l0,172.343l-1136.35,-0l0,-172.343Zm1452.01,393.323l-252.511,-0l0,-413.407c15.067,1.953 29.855,8.18 42.132,19.062c9.208,8.373 22.6,10.326 33.854,5.211c11.44,-5.023 18.694,-16.274 18.694,-28.74l0,-93.75c0,-87.051 -70.777,-157.833 -157.831,-157.833l-75.986,-0c12.928,-20.646 20.741,-44.919 20.741,-71.055c-0,-73.938 -60.175,-134.116 -134.115,-134.116c-73.94,0 -134.208,60.178 -134.208,134.116c0,26.136 7.813,50.409 20.927,71.055l-140.067,-0c19.996,-26.413 32.366,-59.054 32.366,-94.681c-0,-87.051 -70.778,-157.924 -157.831,-157.924c-87.054,0 -157.924,70.873 -157.924,157.924c-0,35.627 12.462,68.268 32.459,94.681l-139.974,-0c12.928,-20.646 20.74,-44.919 20.74,-71.055c0,-73.938 -60.175,-134.116 -134.208,-134.116c-73.939,0 -134.114,60.178 -134.114,134.116c-0,26.136 7.812,50.409 20.833,71.055l-75.986,-0c-87.053,-0 -157.831,70.782 -157.831,157.833l0,93.75c0,12.466 7.348,23.717 18.694,28.74c11.254,5.115 24.554,3.066 33.855,-5.211c12.276,-10.882 26.971,-17.109 42.131,-19.062l0,413.407l-252.511,-0c-87.053,-0 -157.831,70.782 -157.831,157.833l-0,82.124c-0,12.834 7.626,24.369 19.438,29.297c11.812,4.745 25.391,2.049 34.505,-6.977c7.162,-7.158 15.718,-12.557 24.926,-16.275l0,454.988c0,17.484 14.137,31.619 31.622,31.619l1862.35,-0c17.392,-0 31.529,-14.135 31.529,-31.619l0,-454.988c9.208,3.718 17.858,9.117 25.112,16.275c8.929,9.026 22.508,11.722 34.319,6.977c11.812,-4.928 19.531,-16.463 19.531,-29.297l0,-82.124c0,-87.051 -70.777,-157.833 -157.831,-157.833Z" style="fill:#0b0b16;fill-rule:nonzero;"/></g></g></svg>