<?xml version="1.0" encoding="UTF-8" standalone="no"?><!DOCTYPE svg PUBLIC "-//W3C//DTD SVG 1.1//EN" "http://www.w3.org/Graphics/SVG/1.1/DTD/svg11.dtd"><svg width="100%" height="100%" viewBox="0 0 2084 2084" version="1.1" xmlns="http://www.w3.org/2000/svg" xmlns:xlink="http://www.w3.org/1999/xlink" xml:space="preserve" xmlns:serif="http://www.serif.com/" style="fill-rule:evenodd;clip-rule:evenodd;stroke-linejoin:round;stroke-miterlimit:2;"><rect id="画板1" x="0" y="0" width="2083.33" height="2083.33" style="fill:none;"/><g id="画板11" serif:id="画板1"><g><path d="M1858.35,1993.44l-1633.46,-0c-89.193,-0 -161.739,-72.548 -161.739,-161.835l0,-1337.52l1957.03,0l0,1337.52c0,89.287 -72.638,161.835 -161.831,161.835Zm-1633.46,-1780.79l18.415,0c14.601,70.033 76.821,122.86 151.134,122.86c17.484,-0 31.622,-14.135 31.622,-31.619c-0,-17.393 -14.138,-31.528 -31.622,-31.528c-39.156,-0 -72.358,-24.926 -85.287,-59.713l207.868,0l0.372,0.097l0.372,-0.097l135.975,0c14.602,70.033 76.823,122.86 151.135,122.86c17.485,-0 31.529,-14.135 31.529,-31.619c0,-17.393 -14.044,-31.528 -31.529,-31.528c-39.248,-0 -72.452,-24.926 -85.38,-59.713l207.869,0l0.465,0.097l0.372,-0.097l167.411,0c14.694,70.033 76.822,122.86 151.227,122.86c17.485,-0 31.622,-14.135 31.622,-31.619c-0,-17.393 -14.137,-31.528 -31.622,-31.528c-39.248,-0 -72.451,-24.926 -85.38,-59.713l207.962,0l0.372,0.097l0.372,-0.097l167.503,0c14.51,70.033 76.73,122.86 151.135,122.86c17.485,-0 31.622,-14.135 31.622,-31.619c-0,-17.393 -14.137,-31.528 -31.622,-31.528c-39.248,-0 -72.451,-24.926 -85.38,-59.713l207.869,0l0.465,0.097l0.278,-0.097l46.317,0c89.193,0 161.831,72.548 161.831,161.739l0,56.454l-1957.03,-0l0,-56.454c0,-89.191 72.546,-161.739 161.739,-161.739Zm169.549,-122.859c39.248,-0 72.545,24.926 85.38,59.707l-170.667,-0c12.929,-34.781 46.131,-59.707 85.287,-59.707Zm410.435,-0c39.156,-0 72.452,24.926 85.379,59.707l-170.759,-0c12.928,-34.781 46.132,-59.707 85.38,-59.707Zm441.964,-0c39.248,-0 72.452,24.926 85.287,59.707l-170.667,-0c12.929,-34.781 46.132,-59.707 85.38,-59.707Zm441.964,-0c39.156,-0 72.452,24.926 85.379,59.707l-170.665,-0c12.927,-34.781 46.131,-59.707 85.286,-59.707Zm169.549,59.707l-18.415,-0c-14.695,-70.124 -76.729,-122.763 -151.134,-122.763c-74.312,-0 -136.533,52.639 -151.135,122.763l-139.695,-0c-14.601,-70.124 -76.823,-122.763 -151.134,-122.763c-74.312,-0 -136.533,52.639 -151.227,122.763l-139.603,-0c-14.601,-70.124 -76.823,-122.763 -151.134,-122.763c-74.312,-0 -136.439,52.639 -151.135,122.763l-108.073,-0c-14.694,-70.124 -76.823,-122.763 -151.227,-122.763c-74.313,-0 -136.44,52.639 -151.134,122.763l-18.415,-0c-124.07,-0 -224.89,100.822 -224.89,224.891l0,1457.21c0,124.074 100.82,224.981 224.89,224.981l1633.46,0c124.07,0 224.982,-100.907 224.982,-224.981l0,-1457.21c0,-124.069 -100.912,-224.891 -224.982,-224.891Z" style="fill:#0b0b16;fill-rule:nonzero;"/><path d="M553.479,973.541c-0,34.878 -28.367,63.147 -63.152,63.147l-99.143,0c-34.785,0 -63.059,-28.269 -63.059,-63.147l-0,-99.051c-0,-34.877 28.274,-63.153 63.059,-63.153l99.143,0c34.785,0 63.152,28.276 63.152,63.153l-0,99.051Zm-63.152,-225.356l-99.143,-0c-69.569,-0 -126.209,56.732 -126.209,126.305l0,99.051c0,69.658 56.64,126.396 126.209,126.396l99.143,0c69.663,0 126.303,-56.738 126.303,-126.396l-0,-99.051c-0,-69.573 -56.64,-126.305 -126.303,-126.305Z" style="fill:#0b0b16;fill-rule:nonzero;"/><path d="M1529.86,874.49c-0,-34.877 28.274,-63.153 63.059,-63.153l99.143,0c34.784,0 63.151,28.276 63.151,63.153l0,99.051c0,34.878 -28.367,63.147 -63.151,63.147l-99.143,0c-34.785,0 -63.059,-28.269 -63.059,-63.147l-0,-99.051Zm63.059,225.447l99.143,0c69.661,0 126.303,-56.738 126.303,-126.396l-0,-99.051c-0,-69.573 -56.642,-126.305 -126.303,-126.305l-99.143,-0c-69.569,-0 -126.21,56.732 -126.21,126.305l-0,99.051c-0,69.658 56.641,126.396 126.21,126.396Z" style="fill:#0b0b16;fill-rule:nonzero;"/><path d="M1154.3,973.541c0,34.878 -28.273,63.147 -63.151,63.147l-99.051,0c-34.877,0 -63.151,-28.269 -63.151,-63.147l-0,-99.051c-0,-34.877 28.274,-63.153 63.151,-63.153l99.051,0c34.878,0 63.151,28.276 63.151,63.153l0,99.051Zm-63.151,-225.356l-99.051,-0c-69.661,-0 -126.209,56.732 -126.209,126.305l0,99.051c0,69.658 56.548,126.396 126.209,126.396l99.051,0c69.661,0 126.302,-56.738 126.302,-126.396l0,-99.051c0,-69.573 -56.641,-126.305 -126.302,-126.305Z" style="fill:#0b0b16;fill-rule:nonzero;"/><path d="M553.479,1592.03c-0,34.69 -28.367,62.966 -63.152,62.966l-99.143,-0c-34.785,-0 -63.059,-28.276 -63.059,-62.966l-0,-99.233c-0,-34.877 28.274,-63.152 63.059,-63.152l99.143,-0c34.785,-0 63.152,28.275 63.152,63.152l-0,99.233Zm-63.152,-225.538l-99.143,0c-69.569,0 -126.209,56.642 -126.209,126.305l0,99.233c0,69.567 56.64,126.118 126.209,126.118l99.143,0c69.663,0 126.303,-56.551 126.303,-126.118l-0,-99.233c-0,-69.663 -56.64,-126.305 -126.303,-126.305Z" style="fill:#0b0b16;fill-rule:nonzero;"/><path d="M1154.3,1592.03c0,34.69 -28.273,62.966 -63.151,62.966l-99.051,-0c-34.877,-0 -63.151,-28.276 -63.151,-62.966l-0,-99.233c-0,-34.877 28.274,-63.152 63.151,-63.152l99.051,-0c34.878,-0 63.151,28.275 63.151,63.152l0,99.233Zm-63.151,-225.538l-99.051,0c-69.661,0 -126.209,56.642 -126.209,126.305l0,99.233c0,69.567 56.548,126.118 126.209,126.118l99.051,0c69.661,0 126.302,-56.551 126.302,-126.118l0,-99.233c0,-69.663 -56.641,-126.305 -126.302,-126.305Z" style="fill:#0b0b16;fill-rule:nonzero;"/><path d="M1746.75,1554.55c-7.441,7.254 -10.789,17.671 -9.022,27.997l18.973,110.768l-99.516,-52.361l-14.695,-3.628l-14.602,3.628l-99.423,52.361l18.88,-110.768c1.767,-10.326 -1.581,-20.743 -9.021,-27.997l-80.451,-78.4l111.143,-16.184c10.323,-1.488 19.158,-7.999 23.715,-17.297l49.759,-100.635l49.758,100.635c4.651,9.298 13.487,15.809 23.81,17.297l111.142,16.184l-80.45,78.4Zm152.809,-131.693l-158.018,-23.064l-70.684,-143.136c-5.302,-10.791 -16.276,-17.581 -28.367,-17.581c-11.998,0 -22.972,6.79 -28.274,17.581l-70.684,143.136l-158.018,23.064c-11.903,1.766 -21.762,10.042 -25.483,21.481c-3.72,11.444 -0.65,24.001 7.906,32.277l114.397,111.608l-26.971,157.459c-2.047,11.807 2.882,23.807 12.555,30.784c9.765,7.067 22.6,8.089 33.204,2.418l141.368,-74.222l141.369,74.222l14.696,3.719l18.6,-6.137c9.766,-6.977 14.602,-18.977 12.556,-30.784l-26.971,-157.459l114.304,-111.608c8.649,-8.276 11.718,-20.833 7.999,-32.277c-3.721,-11.439 -13.487,-19.715 -25.484,-21.481Z" style="fill:#0b0b16;fill-rule:nonzero;"/></g></g></svg>