<?xml version="1.0" encoding="UTF-8" standalone="no"?><!DOCTYPE svg PUBLIC "-//W3C//DTD SVG 1.1//EN" "http://www.w3.org/Graphics/SVG/1.1/DTD/svg11.dtd"><svg width="100%" height="100%" viewBox="0 0 2084 2084" version="1.1" xmlns="http://www.w3.org/2000/svg" xmlns:xlink="http://www.w3.org/1999/xlink" xml:space="preserve" xmlns:serif="http://www.serif.com/" style="fill-rule:evenodd;clip-rule:evenodd;stroke-linejoin:round;stroke-miterlimit:2;"><rect id="画板1" x="0" y="0" width="2083.33" height="2083.33" style="fill:none;"/><clipPath id="_clip1"><rect id="画板11" serif:id="画板1" x="0" y="0" width="2083.33" height="2083.33"/></clipPath><g clip-path="url(#_clip1)"><g><path d="M2020.09,1831.7c-0,89.193 -72.545,161.737 -161.738,161.737l-1633.46,0c-89.192,0 -161.829,-72.544 -161.829,-161.737l-0,-1337.7l1957.03,-0l-0,1337.7Zm-1957.03,-1457.31c-0,-89.192 72.637,-161.737 161.829,-161.737l18.415,0c14.602,70.127 76.73,122.861 151.135,122.861c17.485,0 31.623,-14.138 31.623,-31.529c-0,-17.392 -14.138,-31.53 -31.623,-31.53c-39.248,0 -72.451,-25.018 -85.38,-59.802l207.869,0l0.465,0.093l0.278,-0.093l135.976,0c14.601,70.127 76.915,122.861 151.228,122.861c17.392,0 31.528,-14.138 31.528,-31.529c-0,-17.392 -14.136,-31.53 -31.528,-31.53c-39.25,0 -72.452,-25.018 -85.38,-59.802l207.869,0l0.372,0.093l0.464,-0.093l167.411,0c14.695,70.127 76.823,122.861 151.228,122.861c17.392,0 31.528,-14.138 31.528,-31.529c-0,-17.392 -14.136,-31.53 -31.528,-31.53c-39.342,0 -72.452,-25.018 -85.38,-59.802l207.869,0l0.372,0.093l0.371,-0.093l167.504,0c14.695,70.127 76.823,122.861 151.228,122.861c17.392,0 31.529,-14.138 31.529,-31.529c0,-17.392 -14.137,-31.53 -31.529,-31.53c-39.248,0 -72.452,-25.018 -85.38,-59.802l207.869,0l0.372,0.093l0.371,-0.093l46.317,0c89.193,0 161.738,72.545 161.738,161.737l-0,56.64l-1957.03,0l-0,-56.64Zm331.379,-284.505c39.248,-0 72.452,24.832 85.379,59.617l-170.759,0c12.929,-34.785 46.132,-59.617 85.38,-59.617Zm410.436,-0c39.154,-0 72.451,24.832 85.379,59.617l-170.759,0c13.021,-34.785 46.224,-59.617 85.38,-59.617Zm441.964,-0c39.154,-0 72.451,24.832 85.379,59.617l-170.759,0c12.928,-34.785 46.132,-59.617 85.38,-59.617Zm441.964,-0c39.154,-0 72.358,24.832 85.286,59.617l-170.666,0c12.928,-34.785 46.132,-59.617 85.38,-59.617Zm169.549,59.617l-18.415,0c-14.601,-70.034 -76.823,-122.768 -151.134,-122.768c-74.312,-0 -136.533,52.734 -151.135,122.768l-139.695,0c-14.695,-70.034 -76.823,-122.768 -151.134,-122.768c-74.405,-0 -136.533,52.734 -151.228,122.768l-139.602,0c-14.601,-70.034 -76.823,-122.768 -151.134,-122.768c-74.313,-0 -136.533,52.734 -151.135,122.768l-108.167,0c-14.601,-70.034 -76.821,-122.768 -151.134,-122.768c-74.312,-0 -136.439,52.734 -151.135,122.768l-18.415,0c-124.07,0 -224.888,100.911 -224.888,224.888l-0,1457.31c-0,124.07 100.818,224.889 224.888,224.889l1633.46,-0c124.07,-0 224.982,-100.819 224.982,-224.889l0,-1457.31c0,-123.977 -100.912,-224.888 -224.982,-224.888Z" style="fill:#0b0b16;fill-rule:nonzero;"/><path d="M342.727,1007.02l233.538,-0l-0,205.17l-233.538,0l-0,-205.17Zm530.227,205.17l-233.538,0l-0,-205.17l233.538,-0l-0,205.17Zm296.781,0l-233.538,0l0,-205.17l233.538,-0l-0,205.17Zm63.059,-473.493l233.63,-0l0,205.172l-233.63,-0l-0,-205.172Zm530.413,205.172l-233.632,-0l0,-205.172l233.632,-0l-0,205.172Zm-0,536.737l-233.632,-0l0,-205.265l233.632,0l-0,205.265Zm-530.413,-205.265l233.63,0l0,205.265l-233.63,-0l-0,-205.265Zm-63.059,473.586l-233.538,0l0,-205.264l233.538,0l-0,205.264Zm-530.319,-205.264l233.538,0l-0,205.264l-233.538,0l-0,-205.264Zm-296.689,0l233.538,0l-0,205.264l-233.538,0l-0,-205.264Zm233.538,-63.057l-233.538,-0l-0,-205.265l233.538,0l-0,205.265Zm296.689,-0l-233.538,-0l-0,-205.265l233.538,0l-0,205.265Zm296.781,-0l-233.538,-0l0,-205.265l233.538,0l-0,205.265Zm593.472,-268.416l-233.632,0l0,-205.17l233.632,-0l-0,205.17Zm-296.783,-205.17l0,205.17l-233.63,0l-0,-205.17l233.63,-0Zm-1155.32,804.966l890.253,-0c17.392,-0 31.436,-14.138 31.436,-31.623l-0,-236.7l561.941,0c17.485,0 31.529,-14.136 31.529,-31.528l0,-804.967c0,-17.392 -14.044,-31.529 -31.529,-31.529l-593.377,0c-17.485,0 -31.623,14.137 -31.623,31.529l-0,236.701l-858.63,-0c-17.392,-0 -31.53,14.23 -31.53,31.621l0,804.873c0,17.485 14.138,31.623 31.53,31.623Z" style="fill:#0b0b16;fill-rule:nonzero;"/></g></g></svg>