<?xml version="1.0" encoding="UTF-8" standalone="no"?><!DOCTYPE svg PUBLIC "-//W3C//DTD SVG 1.1//EN" "http://www.w3.org/Graphics/SVG/1.1/DTD/svg11.dtd"><svg width="100%" height="100%" viewBox="0 0 2084 2084" version="1.1" xmlns="http://www.w3.org/2000/svg" xmlns:xlink="http://www.w3.org/1999/xlink" xml:space="preserve" xmlns:serif="http://www.serif.com/" style="fill-rule:evenodd;clip-rule:evenodd;stroke-linejoin:round;stroke-miterlimit:2;"><rect id="画板1" x="0" y="0" width="2083.33" height="2083.33" style="fill:none;"/><clipPath id="_clip1"><rect id="画板11" serif:id="画板1" x="0" y="0" width="2083.33" height="2083.33"/></clipPath><g clip-path="url(#_clip1)"><g><path d="M2020.27,694.413l-276.706,0c-113.378,-172.441 -308.328,-286.563 -529.693,-286.563c-221.361,-0 -416.311,114.122 -529.69,286.563l-621.121,0l-0,-375.015c-0,-141.28 115.053,-256.243 256.521,-256.243l1444.26,0c141.374,0 256.428,114.963 256.428,256.243l-0,375.015Zm-0,631.445l-240.524,0c43.156,-85.658 68.083,-181.927 68.083,-284.144c-0,-102.218 -24.927,-198.578 -68.083,-284.236l240.524,-0l-0,568.38Zm-0,437.989c-0,141.371 -115.054,256.425 -256.428,256.425l-1444.26,-0c-141.468,-0 -256.521,-115.054 -256.521,-256.425l-0,-374.924l621.121,-0c113.379,172.441 308.329,286.654 529.69,286.654c221.365,0 416.315,-114.213 529.693,-286.654l276.706,-0l-0,374.924Zm-235.594,-722.133c0,314.749 -256.058,570.708 -570.805,570.708c-314.743,-0 -570.801,-255.959 -570.801,-570.708c-0,-314.744 256.058,-570.896 570.801,-570.896c314.747,-0 570.805,256.152 570.805,570.896Zm-1721.62,-284.236l584.94,-0c-43.156,85.658 -67.989,182.018 -67.989,284.236c-0,102.217 24.833,198.486 67.989,284.144l-584.94,0l-0,-568.38Zm1700.78,-757.478l-1444.26,0c-176.253,0 -319.583,143.33 -319.583,319.398l0,1444.45c0,176.159 143.33,319.489 319.583,319.489l1444.26,0c176.159,0 319.489,-143.33 319.489,-319.489l0,-1444.45c0,-176.068 -143.33,-319.398 -319.489,-319.398Z" style="fill:#0b0b16;fill-rule:nonzero;"/><path d="M694.413,407.85l-394.549,-0l0,-131.795l394.549,0l0,131.795Zm31.623,-194.95l-457.795,0c-17.391,0 -31.529,14.045 -31.529,31.535l-0,194.944c-0,17.394 14.138,31.439 31.529,31.439l457.795,-0c17.394,-0 31.533,-14.045 31.533,-31.439l-0,-194.944c-0,-17.49 -14.139,-31.535 -31.533,-31.535Z" style="fill:#0b0b16;fill-rule:nonzero;"/><path d="M1748.31,407.85c-36.272,-0 -65.849,-29.667 -65.849,-65.943c0,-36.366 29.577,-65.852 65.849,-65.852c36.276,0 65.852,29.486 65.852,65.852c0,36.276 -29.576,65.943 -65.852,65.943Zm0,-194.95c-71.151,0 -129.004,57.762 -129.004,129.007c0,71.154 57.853,128.911 129.004,128.911c71.154,-0 129.007,-57.757 129.007,-128.911c0,-71.245 -57.853,-129.007 -129.007,-129.007Z" style="fill:#0b0b16;fill-rule:nonzero;"/><path d="M1213.87,1383.9c-188.716,-0 -342.276,-153.469 -342.276,-342.185c0,-188.808 153.56,-342.368 342.276,-342.368c188.811,0 342.28,153.56 342.28,342.368c-0,188.716 -153.469,342.185 -342.28,342.185Zm0,-747.708c-223.595,0 -405.428,181.927 -405.428,405.523c-0,223.504 181.833,405.431 405.428,405.431c223.599,0 405.432,-181.927 405.432,-405.431c0,-223.596 -181.833,-405.523 -405.432,-405.523Z" style="fill:#0b0b16;fill-rule:nonzero;"/></g></g></svg>