<?xml version="1.0" encoding="UTF-8" standalone="no"?><!DOCTYPE svg PUBLIC "-//W3C//DTD SVG 1.1//EN" "http://www.w3.org/Graphics/SVG/1.1/DTD/svg11.dtd"><svg width="100%" height="100%" viewBox="0 0 2084 2084" version="1.1" xmlns="http://www.w3.org/2000/svg" xmlns:xlink="http://www.w3.org/1999/xlink" xml:space="preserve" xmlns:serif="http://www.serif.com/" style="fill-rule:evenodd;clip-rule:evenodd;stroke-linejoin:round;stroke-miterlimit:2;"><rect id="画板1" x="0" y="0" width="2083.33" height="2083.33" style="fill:none;"/><g id="画板11" serif:id="画板1"><g><path d="M2020.27,1407.48l-333.999,-199.135l-0,-311.303l333.999,-199.136l0,709.574Zm-605.684,-496.859l208.62,-0l0,284.053l-208.62,-0l0,-284.053Zm-63.155,473.235c-0,43.715 -35.526,79.245 -79.244,79.245l-1129.89,0c-43.712,0 -79.244,-35.53 -79.244,-79.245l-0,-662.325c-0,-43.715 35.532,-79.246 79.244,-79.246l1129.89,0c43.718,0 79.244,35.531 79.244,79.246l-0,662.325Zm-1288.38,-1059.11c-0,-140.166 114.122,-254.29 254.387,-254.29c140.162,0 254.381,114.124 254.381,254.29c0,140.352 -114.219,254.476 -254.381,254.476c-140.265,0 -254.387,-114.124 -254.387,-254.476Zm844.812,-254.29c-77.666,57.946 -128.258,150.212 -128.258,254.29c-0,104.172 50.592,196.531 128.258,254.476l-401.243,0c77.66,-57.945 128.258,-150.304 128.258,-254.476c0,-104.078 -50.598,-196.344 -128.258,-254.29l401.243,0Zm443.564,254.29c-0,140.352 -114.123,254.476 -254.382,254.476c-140.162,0 -254.29,-114.124 -254.29,-254.476c-0,-140.166 114.128,-254.29 254.29,-254.29c140.259,0 254.382,114.124 254.382,254.29Zm715.992,290.006c-9.855,-5.488 -21.947,-5.394 -31.808,0.372l-389.616,232.34l-231.413,-0l0,-125.936c0,-74.223 -57.388,-134.679 -129.933,-141.097c78.591,-57.851 129.933,-150.769 129.933,-255.685c0,-175.044 -142.49,-317.444 -317.537,-317.444l-779.607,0c-175.047,0 -317.446,142.4 -317.446,317.444c-0,104.916 51.245,197.834 129.933,255.685c-72.642,6.418 -129.933,66.874 -129.933,141.097l-0,662.325c-0,78.5 63.803,142.306 142.303,142.306l533.321,-0l-0,135.795l-615.449,355.112c-15.157,8.65 -20.369,27.996 -11.626,43.25c8.651,15.067 27.907,20.09 43.065,11.534l584.01,-337.07l-0,309.724c-0,17.393 14.232,31.531 31.626,31.531c17.484,-0 31.529,-14.138 31.529,-31.531l0,-309.724l584.107,337.07l15.713,4.185c10.979,-0 21.584,-5.674 27.442,-15.719c8.646,-15.254 3.531,-34.6 -11.626,-43.25l-615.636,-355.112l0,-135.795l533.412,-0c78.596,-0 142.399,-63.806 142.399,-142.306l0,-125.936l231.413,0l389.616,232.247l16.185,4.464l15.623,-4c9.86,-5.672 15.906,-16.183 15.906,-27.438l0,-821c0,-11.254 -6.046,-21.765 -15.906,-27.438Z" style="fill:#0b0b16;fill-rule:nonzero;"/><path d="M707.25,1305.16c-139.237,-0 -252.525,-113.193 -252.525,-252.429c-0,-139.329 113.288,-252.616 252.525,-252.616c139.237,0 252.519,113.287 252.519,252.616c0,139.236 -113.282,252.429 -252.519,252.429Zm-0,-568.105c-174.025,-0 -315.584,141.56 -315.584,315.676c-0,174.115 141.559,315.583 315.584,315.583c174.115,-0 315.674,-141.468 315.674,-315.583c0,-174.116 -141.559,-315.676 -315.674,-315.676Z" style="fill:#0b0b16;fill-rule:nonzero;"/><path d="M681.948,1133.28l-0,-161.187l117.659,80.64l-117.659,80.547Zm191.419,-106.683l-205.18,-140.539c-9.583,-6.603 -22.231,-7.255 -32.461,-1.767c-10.417,5.581 -16.928,16.277 -16.928,27.996l-0,280.799c-0,11.718 6.511,22.415 16.928,27.995l14.601,3.534l17.86,-5.394l205.18,-140.445c8.555,-6.046 13.766,-15.626 13.766,-26.043c0,-10.511 -5.211,-20.184 -13.766,-26.136Z" style="fill:#0b0b16;fill-rule:nonzero;"/><path d="M428.775,324l0,2.512c0,17.393 14.142,30.694 31.53,30.694c17.49,-0 31.717,-14.882 31.717,-32.462c-0,-34.6 -10.23,-68.083 -29.39,-96.823c-9.673,-14.51 -29.298,-18.323 -43.808,-8.65c-14.51,9.672 -18.416,29.299 -8.652,43.715c12.189,18.416 18.603,39.714 18.603,61.014Z" style="fill:#0b0b16;fill-rule:nonzero;"/><path d="M316.14,436.263c-17.394,0 -30.973,14.139 -30.973,31.437c0,17.58 14.788,31.531 32.279,31.531c34.039,0 67.055,-9.673 95.519,-28.275c14.601,-9.58 18.604,-29.205 9.208,-43.715c-9.673,-14.602 -29.207,-18.695 -43.808,-9.208c-18.041,11.906 -39.159,18.23 -60.919,18.23l-1.306,0Z" style="fill:#0b0b16;fill-rule:nonzero;"/><path d="M238.475,237.129l17.49,-5.208c18.229,-12.092 39.432,-18.51 61.481,-18.51l0.46,0c17.394,0 31.251,-14.044 31.251,-31.531c0,-17.392 -14.323,-31.623 -31.711,-31.623c-34.419,0 -67.805,10.046 -96.36,29.113c-14.606,9.58 -18.512,29.205 -8.929,43.715c6.046,9.114 16.088,14.044 26.318,14.044Z" style="fill:#0b0b16;fill-rule:nonzero;"/><path d="M198.016,434.962l17.394,-5.209c14.51,-9.581 18.512,-29.112 8.929,-43.622c-11.995,-18.322 -18.325,-39.436 -18.416,-59.527l0.091,-2.604c0,-17.486 -14.135,-31.158 -31.529,-31.158c-17.485,0 -31.53,14.603 -31.53,31.902c0,34.321 9.861,67.526 28.646,96.08c6.142,9.207 16.185,14.138 26.415,14.138Z" style="fill:#0b0b16;fill-rule:nonzero;"/><path d="M1101.7,436.171c-21.578,0.836 -42.969,-4.465 -61.663,-15.719l-1.022,-0.558c-14.975,-8.93 -33.857,-3.721 -42.786,11.254c-8.93,14.975 -3.441,34.693 11.535,43.622c29.202,17.392 62.684,25.95 96.638,24.461c17.388,-0.743 30.967,-15.439 30.224,-32.832c-0.835,-17.486 -15.532,-30.973 -32.926,-30.228Z" style="fill:#0b0b16;fill-rule:nonzero;"/><path d="M1001.9,267.078c8.93,-14.974 3.815,-34.042 -11.252,-42.97c-14.885,-8.836 -34.51,-3.628 -43.434,11.347c-17.581,29.484 -26.045,63.06 -24.558,97.195c0.557,10.883 6.699,20.369 15.441,25.671l17.582,4.465c17.484,-0.837 30.967,-15.534 30.133,-33.02c-1.022,-21.764 4.462,-43.249 14.697,-60.456l1.391,-2.232Z" style="fill:#0b0b16;fill-rule:nonzero;"/><path d="M1191.92,383.248c-8.929,14.974 -3.627,33.67 11.439,42.598c14.976,8.93 34.692,3.256 43.718,-11.626c17.672,-29.763 26.131,-63.712 24.365,-98.219c-0.931,-17.486 -15.719,-30.786 -33.113,-29.948c-17.485,0.929 -30.877,15.811 -29.946,33.204c1.113,21.95 -4.28,43.621 -15.163,61.945l-1.3,2.046Z" style="fill:#0b0b16;fill-rule:nonzero;"/><path d="M1058.83,183.555c0.562,10.975 6.608,20.369 15.35,25.577l17.673,4.372c21.856,-1.022 43.433,4.372 62.315,15.625l0.374,0.28c14.97,8.93 34.13,3.907 43.156,-11.069c8.833,-14.974 3.809,-34.413 -11.257,-43.341c-29.486,-17.673 -63.337,-26.137 -97.569,-24.556c-17.485,0.838 -30.876,15.626 -30.042,33.112Z" style="fill:#0b0b16;fill-rule:nonzero;"/><path d="M317.446,289.121c-19.812,0 -35.81,15.905 -35.81,35.716c0,19.719 15.998,35.716 35.81,35.716c19.716,0 35.713,-15.997 35.713,-35.716c0,-19.811 -15.997,-35.716 -35.713,-35.716Z" style="fill:#0b0b16;fill-rule:nonzero;"/><path d="M1132.86,324.837c0,-19.811 -15.997,-35.716 -35.81,-35.716c-19.625,0 -35.622,15.905 -35.622,35.716c-0,19.719 15.997,35.716 35.622,35.716c19.813,0 35.81,-15.997 35.81,-35.716Z" style="fill:#0b0b16;fill-rule:nonzero;"/></g></g></svg>