<?xml version="1.0" encoding="UTF-8" standalone="no"?><!DOCTYPE svg PUBLIC "-//W3C//DTD SVG 1.1//EN" "http://www.w3.org/Graphics/SVG/1.1/DTD/svg11.dtd"><svg width="100%" height="100%" viewBox="0 0 2084 2084" version="1.1" xmlns="http://www.w3.org/2000/svg" xmlns:xlink="http://www.w3.org/1999/xlink" xml:space="preserve" xmlns:serif="http://www.serif.com/" style="fill-rule:evenodd;clip-rule:evenodd;stroke-linejoin:round;stroke-miterlimit:2;"><rect id="画板1" x="0" y="0" width="2083.33" height="2083.33" style="fill:none;"/><g id="画板11" serif:id="画板1"><g><path d="M1835.19,1823.24l-1586.96,-0c-102.12,-0 -185.081,-82.959 -185.081,-185.081l0,-130.58l765.067,0c90.96,133.185 243.955,220.98 417.224,220.98c173.179,0 326.266,-87.795 417.226,-220.98l357.514,0l0,130.58c0,102.122 -82.961,185.081 -184.989,185.081Zm-1031.62,-599.793c-0,-243.585 198.195,-441.875 441.87,-441.875c243.677,-0 441.966,198.29 441.966,441.875c-0,243.766 -198.289,441.96 -441.966,441.96c-243.675,-0 -441.87,-198.194 -441.87,-441.96Zm-740.421,-220.89l728.795,0c-32.645,66.871 -51.526,141.644 -51.526,220.89c0,79.427 18.881,154.109 51.526,220.98l-728.795,-0l0,-441.87Zm1957.03,441.87l-321.242,-0c32.645,-66.871 51.525,-141.553 51.525,-220.98c0,-79.246 -18.88,-154.019 -51.525,-220.89l321.242,0l0,441.87Zm-1957.03,-946.897l433.966,-0c17.392,-0 31.622,-14.135 31.622,-31.619l-0,-205.823l1491.44,-0l0,679.22l-357.514,0c-90.96,-133.179 -244.047,-220.889 -417.226,-220.889c-173.269,0 -326.264,87.71 -417.224,220.889l-765.067,0l0,-441.778Zm138.02,-237.442l78.962,-0l0,174.295l-78.962,-0l0,-174.295Zm1850.63,-63.153l-1554.69,0c-17.485,0 -31.529,14.044 -31.529,31.625l-0,205.823l-122.303,-0l-0,-205.823c-0,-17.581 -14.137,-31.625 -31.528,-31.625l-142.114,0c-17.485,0 -31.623,14.044 -31.623,31.625l0,205.823l-106.491,-0c-17.485,-0 -31.529,14.135 -31.529,31.528l-0,1172.25c-0,136.903 111.327,248.233 248.232,248.233l1586.96,0c136.719,0 248.14,-111.33 248.14,-248.233l0,-1409.6c0,-17.581 -14.136,-31.625 -31.528,-31.625Z" style="fill:#0b0b16;fill-rule:nonzero;"/><path d="M1245.44,961.172c144.625,-0 262.278,117.648 262.278,262.278c-0,144.714 -117.653,262.368 -262.278,262.368c-144.623,-0 -262.37,-117.654 -262.37,-262.368c0,-144.63 117.747,-262.278 262.37,-262.278Zm0,587.798c179.409,0 325.429,-146.02 325.429,-325.52c-0,-179.411 -146.02,-325.34 -325.429,-325.34c-179.501,0 -325.427,145.929 -325.427,325.34c-0,179.5 145.926,325.52 325.427,325.52Z" style="fill:#0b0b16;fill-rule:nonzero;"/><path d="M339.285,665.783l325.987,-0l-0,94.68l-325.987,0l0,-94.68Zm-31.528,157.833l389.136,-0c17.486,-0 31.53,-14.044 31.53,-31.528l-0,-157.833c-0,-17.394 -14.044,-31.625 -31.53,-31.625l-389.136,0c-17.393,0 -31.529,14.231 -31.529,31.625l-0,157.833c-0,17.484 14.136,31.528 31.529,31.528Z" style="fill:#0b0b16;fill-rule:nonzero;"/><path d="M1773.07,760.463c-26.134,0 -47.247,-21.202 -47.247,-47.246c-0,-26.226 21.113,-47.434 47.247,-47.434c26.135,-0 47.34,21.208 47.34,47.434c-0,26.044 -21.205,47.246 -47.34,47.246Zm-0,-157.833c-60.826,0 -110.398,49.574 -110.398,110.587c-0,60.825 49.572,110.399 110.398,110.399c60.918,-0 110.491,-49.574 110.491,-110.399c-0,-61.013 -49.573,-110.587 -110.491,-110.587Z" style="fill:#0b0b16;fill-rule:nonzero;"/><path d="M696.893,497.533l1155.13,-0c17.485,-0 31.529,-14.135 31.529,-31.619c-0,-17.393 -14.044,-31.528 -31.529,-31.528l-1155.13,-0c-17.485,-0 -31.621,14.135 -31.621,31.528c-0,17.484 14.136,31.619 31.621,31.619Z" style="fill:#0b0b16;fill-rule:nonzero;"/></g></g></svg>