<?xml version="1.0" encoding="UTF-8" standalone="no"?><!DOCTYPE svg PUBLIC "-//W3C//DTD SVG 1.1//EN" "http://www.w3.org/Graphics/SVG/1.1/DTD/svg11.dtd"><svg width="100%" height="100%" viewBox="0 0 2084 2084" version="1.1" xmlns="http://www.w3.org/2000/svg" xmlns:xlink="http://www.w3.org/1999/xlink" xml:space="preserve" xmlns:serif="http://www.serif.com/" style="fill-rule:evenodd;clip-rule:evenodd;stroke-linejoin:round;stroke-miterlimit:2;"><rect id="画板1" x="0" y="0" width="2083.33" height="2083.33" style="fill:none;"/><g id="画板11" serif:id="画板1"><g><path d="M2004.54,1915.92l0,0.091c-13.393,36.37 -36.273,67.897 -62.777,86.494c-13.488,9.673 -39.994,24.091 -66.22,14.328c-43.807,-15.997 -58.5,-89.662 -32.365,-160.625c22.785,-61.29 70.032,-104.166 110.673,-104.166l18.509,3.35c26.229,9.582 36.83,37.851 40.829,53.853c8.092,31.432 4.836,70.311 -8.649,106.675Zm-231.116,63.243l-1662.38,-615.138c-26.135,-9.673 -36.924,-37.943 -40.923,-53.939c-7.904,-31.437 -4.743,-70.22 8.651,-106.681c22.693,-61.29 70.032,-104.165 110.677,-104.165l18.415,3.258l205.447,75.981c152.808,256.605 439.172,381.416 453.123,387.462l1.115,0.187c48.737,21.855 107.887,33.668 175.129,33.668c55.897,0 103.981,-7.907 144.344,-23.348c52.826,-19.34 99.051,-39.338 139.417,-60.081l543.801,201.082c-36.086,25.204 -67.242,65.661 -86.216,116.904c-18.974,51.152 -21.577,102.213 -10.601,144.81Zm-1463.63,-0l0.188,-0.835c11.16,-44.084 7.439,-95.241 -10.604,-143.975c-18.971,-51.152 -50.221,-91.7 -86.122,-116.904l335.563,-124.073l401.877,148.624l-640.902,237.163Zm-61.009,-16.275c-3.999,15.997 -14.696,44.363 -40.922,53.945c-26.135,9.763 -52.642,-4.655 -66.221,-14.328c-26.506,-18.597 -49.386,-50.124 -62.871,-86.585c-13.394,-36.364 -16.555,-75.243 -8.651,-106.675c3.999,-16.002 14.788,-44.271 40.923,-53.853l18.508,-3.35c40.551,0 87.891,42.876 110.583,104.166c13.488,36.461 16.65,75.334 8.651,106.68Zm214.283,-1434.61c29.391,81.846 90.775,210.006 204.797,285.618c10.326,6.699 23.533,6.977 34.04,0.557c10.417,-6.511 16.184,-18.415 14.788,-30.597c-0.557,-4.928 -50.687,-470.885 330.264,-688.333c-37.389,129.092 -66.22,396.107 208.609,646.854c9.767,8.929 23.81,10.882 35.621,4.927c11.625,-5.955 18.508,-18.602 17.021,-31.624c-1.487,-13.579 -30.6,-312.497 279.388,-401.596c-130.673,242.929 -101.376,457.681 -77.381,632.996c28.647,209.45 50.408,369.694 -194.287,503.531c15.997,-43.153 19.902,-94.027 10.695,-150.764c-33.855,-210.562 -287.015,-413.41 -297.803,-421.868c-8.929,-7.073 -20.833,-8.747 -31.343,-4.558c-10.51,4.093 -17.95,13.669 -19.53,24.829c-23.158,163.6 -55.711,222.841 -158.111,287.758c-75.984,48.178 -111.513,142.579 -87.516,230.47c-114.675,-78.871 -259.579,-208.893 -320.31,-390.158c-51.62,-154.108 -34.414,-321.335 51.058,-498.042Zm330.543,873.781c-18.044,-62.033 6.601,-128.904 59.987,-162.662c114.304,-72.547 154.389,-150.765 177.734,-275.764c71.241,65.014 210.749,207.866 232.976,346.261c7.626,47.615 8.279,114.208 -32.459,162.107c-36.549,42.972 -100.257,64.639 -189.172,64.639c-131.51,0 -224.606,-50.317 -249.066,-134.581Zm1081.93,-299.565c26.226,-9.769 52.732,4.74 66.22,14.322c26.504,18.597 49.384,50.221 62.777,86.585c13.485,36.461 16.741,75.244 8.649,106.681c-3.999,15.996 -14.6,44.266 -40.829,53.939l-437.776,162.015l-137.184,-50.777c121.465,-79.523 171.411,-168.436 187.129,-265.159l291.014,-107.606Zm118.675,593.556l-368.582,-136.437l368.582,-136.255c39.526,-14.691 67.985,-49.386 80.264,-97.745c11.066,-44.181 7.345,-95.333 -10.698,-144.067c-18.043,-48.733 -48.455,-90.121 -85.657,-116.347c-40.829,-28.837 -85.007,-36.648 -124.533,-21.861l-263.206,97.377c1.115,-64.543 -8.092,-132.066 -17.672,-202.189c-25.947,-189.456 -55.338,-404.298 105.469,-653.83c6.789,-10.417 6.789,-23.904 -0,-34.412c-6.883,-10.325 -19.159,-15.809 -31.528,-13.765c-322.263,51.895 -388.112,284.596 -399.925,408.294c-272.133,-295.012 -121.184,-585.376 -114.21,-598.21c6.511,-11.813 4.558,-26.414 -4.371,-36.365c-9.114,-9.951 -23.436,-12.931 -35.899,-7.72c-392.948,169.639 -439.357,556.357 -440.847,716.886c-111.698,-109.468 -148.715,-278.829 -149.087,-280.782c-2.696,-12.834 -13.019,-22.604 -25.948,-24.647c-12.928,-2.14 -25.856,4.092 -32.365,15.44c-125.092,218.004 -155.97,425.495 -91.796,616.904c5.58,16.922 12.091,33.202 18.881,49.199l-141.277,-52.18c-78.496,-29.018 -170.851,31.716 -210.193,138.208c-18.133,48.734 -21.854,99.886 -10.694,144.067c12.275,48.359 40.735,83.054 80.264,97.745l368.578,136.255l-368.578,136.437c-39.529,14.6 -67.989,49.386 -80.264,97.751c-11.16,44.175 -7.439,95.236 10.694,144.066c17.953,48.734 48.456,90.122 85.66,116.348c27.251,19.249 56.267,29.109 84.17,29.109c13.763,0 27.341,-2.321 40.363,-7.254l811.844,-300.315l811.937,300.315c13.019,4.933 26.504,7.254 40.364,7.254c27.994,0 56.825,-9.86 84.169,-29.109c37.202,-26.226 67.614,-67.614 85.657,-116.348c18.043,-48.83 21.764,-99.891 10.698,-144.066c-12.279,-48.365 -40.738,-83.151 -80.264,-97.751Z" style="fill:#0b0b16;fill-rule:nonzero;"/></g></g></svg>