<?xml version="1.0" encoding="UTF-8" standalone="no"?><!DOCTYPE svg PUBLIC "-//W3C//DTD SVG 1.1//EN" "http://www.w3.org/Graphics/SVG/1.1/DTD/svg11.dtd"><svg width="100%" height="100%" viewBox="0 0 2084 2084" version="1.1" xmlns="http://www.w3.org/2000/svg" xmlns:xlink="http://www.w3.org/1999/xlink" xml:space="preserve" xmlns:serif="http://www.serif.com/" style="fill-rule:evenodd;clip-rule:evenodd;stroke-linejoin:round;stroke-miterlimit:2;"><rect id="画板1" x="0" y="0" width="2083.33" height="2083.33" style="fill:none;"/><clipPath id="_clip1"><rect id="画板11" serif:id="画板1" x="0" y="0" width="2083.33" height="2083.33"/></clipPath><g clip-path="url(#_clip1)"><g><path d="M151.077,278.299l1017.75,0c70.258,0 127.223,56.964 127.223,127.223l-0,1272.23c-0,70.259 -56.965,127.223 -127.223,127.223l-826.979,-0l-317.993,254.509l0,-1653.96c0,-70.259 56.965,-127.223 127.223,-127.223Z" style="fill:#fff;fill-rule:nonzero;"/><path d="M151.077,302.154c-56.996,-0 -103.369,46.34 -103.369,103.368l0,1604.28l279.255,-223.466c4.197,-3.403 9.477,-5.216 14.884,-5.216l826.979,-0c56.996,-0 103.368,-46.405 103.368,-103.369l0,-1272.23c0,-57.028 -46.372,-103.368 -103.368,-103.368l-1017.75,-0Zm-127.223,1781.12c-3.498,0 -7.029,-0.731 -10.337,-2.353c-8.27,-3.976 -13.517,-12.309 -13.517,-21.501l0,-1653.89c0,-83.299 67.777,-151.077 151.077,-151.077l1017.75,0c83.298,0 151.077,67.778 151.077,151.077l-0,1272.23c-0,83.299 -67.779,151.077 -151.077,151.077l-818.615,0l-311.44,249.229c-4.325,3.467 -9.605,5.216 -14.917,5.216Z" style="fill-rule:nonzero;"/><path d="M405.553,23.854l1208.58,0c70.258,0 127.223,56.964 127.223,127.223l-0,1653.89l-317.993,-254.445l-1017.81,-0c-70.289,-0 -127.223,-56.964 -127.223,-127.223l0,-1272.23c0,-70.259 56.934,-127.223 127.223,-127.223Z" style="fill:#fff;fill-rule:nonzero;"/><path d="M405.553,47.708c-56.996,0 -103.368,46.341 -103.368,103.369l-0,1272.23c-0,56.964 46.372,103.369 103.368,103.369l1017.81,-0c5.407,-0 10.687,1.813 14.917,5.216l279.221,223.466l0,-1604.28c0,-57.028 -46.372,-103.369 -103.368,-103.369l-1208.58,0Zm1335.81,1781.12c-5.312,0 -10.592,-1.781 -14.917,-5.216l-311.441,-249.229l-1009.45,0c-83.298,0 -151.077,-67.778 -151.077,-151.077l0,-1272.23c0,-83.299 67.779,-151.077 151.077,-151.077l1208.58,0c83.3,0 151.077,67.778 151.077,151.077l-0,1653.89c-0,9.128 -5.247,17.525 -13.517,21.501c-3.277,1.558 -6.806,2.353 -10.337,2.353Z" style="fill-rule:nonzero;"/><path d="M1095.42,1701.6l-343.023,-0c-13.167,-0 -23.854,-10.687 -23.854,-23.855c0,-13.167 10.687,-23.854 23.854,-23.854l343.023,0c13.168,0 23.855,10.687 23.855,23.854c-0,13.168 -10.687,23.855 -23.855,23.855Z" style="fill-rule:nonzero;"/><path d="M625.172,1701.6l-70.418,-0c-13.167,-0 -23.854,-10.687 -23.854,-23.855c0,-13.167 10.687,-23.854 23.854,-23.854l70.418,0c13.167,0 23.854,10.687 23.854,23.854c0,13.168 -10.687,23.855 -23.854,23.855Z" style="fill-rule:nonzero;"/><path d="M151.077,111.32l-127.223,-0c-13.167,-0 -23.854,-10.687 -23.854,-23.854c0,-13.168 10.687,-23.855 23.854,-23.855l127.223,0c13.167,0 23.854,10.687 23.854,23.855c0,13.167 -10.687,23.854 -23.854,23.854Z" style="fill-rule:nonzero;"/><path d="M87.466,174.931c-13.168,0 -23.855,-10.687 -23.855,-23.854l0,-127.223c0,-13.167 10.687,-23.854 23.855,-23.854c13.167,0 23.854,10.687 23.854,23.854l-0,127.223c-0,13.167 -10.687,23.854 -23.854,23.854Z" style="fill-rule:nonzero;"/><path d="M1232.44,2019.66l-127.222,-0c-13.168,-0 -23.854,-10.687 -23.854,-23.854c-0,-13.168 10.686,-23.854 23.854,-23.854l127.222,-0c13.168,-0 23.855,10.686 23.855,23.854c-0,13.167 -10.687,23.854 -23.855,23.854Z" style="fill-rule:nonzero;"/><path d="M1168.83,2083.27c-13.167,0 -23.854,-10.686 -23.854,-23.854l-0,-127.223c-0,-13.167 10.687,-23.854 23.854,-23.854c13.168,0 23.854,10.687 23.854,23.854l0,127.223c0,13.168 -10.686,23.854 -23.854,23.854Z" style="fill-rule:nonzero;"/><path d="M1550.53,1860.63l-127.223,-0c-13.167,-0 -23.854,-10.687 -23.854,-23.854c0,-13.168 10.687,-23.855 23.854,-23.855l127.223,0c13.167,0 23.854,10.687 23.854,23.855c0,13.167 -10.687,23.854 -23.854,23.854Z" style="fill-rule:nonzero;"/><path d="M1486.91,1924.24c-13.168,0 -23.855,-10.687 -23.855,-23.854l0,-127.223c0,-13.167 10.687,-23.854 23.855,-23.854c13.167,0 23.854,10.687 23.854,23.854l-0,127.223c-0,13.167 -10.687,23.854 -23.854,23.854Z" style="fill-rule:nonzero;"/><path d="M2028.31,1606.18l-127.222,-0c-13.168,-0 -23.855,-10.687 -23.855,-23.855c0,-13.167 10.687,-23.854 23.855,-23.854l127.222,0c13.168,0 23.854,10.687 23.854,23.854c0,13.168 -10.686,23.855 -23.854,23.855Z" style="fill-rule:nonzero;"/><path d="M1964.7,1669.8c-13.168,-0 -23.854,-10.687 -23.854,-23.854l-0,-127.223c-0,-13.167 10.686,-23.854 23.854,-23.854c13.168,-0 23.854,10.687 23.854,23.854l0,127.223c0,13.167 -10.686,23.854 -23.854,23.854Z" style="fill-rule:nonzero;"/><path d="M1041.67,564.55l826.979,-222.639l0,890.557l-826.979,-222.703l-0,-445.215Z" style="fill:#fff;fill-rule:nonzero;"/><path d="M1868.64,341.911l190.834,-159.029l0,1208.62l-190.834,-159.029l0,-890.557Z" style="fill:#fff;fill-rule:nonzero;"/><path d="M1065.52,991.509l779.271,209.854l0,-828.315l-779.271,209.759l-0,408.702Zm803.125,264.814c-2.067,-0 -4.166,-0.318 -6.202,-0.795l-826.978,-222.704c-10.401,-2.798 -17.654,-12.245 -17.654,-23.059l0,-445.215c0,-10.814 7.253,-20.26 17.654,-23.027l826.978,-222.64c7.124,-1.813 14.853,-0.445 20.705,4.071c5.915,4.549 9.352,11.514 9.352,18.957l-0,890.557c-0,7.411 -3.437,14.409 -9.352,18.957c-4.199,3.148 -9.32,4.898 -14.503,4.898Z" style="fill-rule:nonzero;"/><path d="M1892.5,1221.31l143.125,119.271l-0,-1106.81l-143.125,119.335l-0,868.199Zm166.979,194.046c-5.47,-0 -10.91,-1.908 -15.266,-5.534l-190.834,-159.028c-5.439,-4.517 -8.588,-11.228 -8.588,-18.321l0,-890.557c0,-7.093 3.149,-13.772 8.588,-18.32l190.834,-159.092c7.124,-5.916 17.079,-7.157 25.411,-3.276c8.365,3.975 13.709,12.34 13.709,21.596l0,1208.68c0,9.255 -5.344,17.652 -13.709,21.564c-3.244,1.559 -6.678,2.29 -10.145,2.29Z" style="fill-rule:nonzero;"/><path d="M628.192,564.55l413.474,0l-0,445.279l-413.474,-0c-52.701,-0 -95.417,-42.747 -95.417,-95.417l0,-254.445c0,-52.67 42.716,-95.417 95.417,-95.417Z" style="fill:#fff;fill-rule:nonzero;"/><path d="M850.832,1009.83l190.834,-0l-0,381.668l-63.612,-0c-70.258,-0 -127.222,-56.901 -127.222,-127.223l-0,-254.445Z" style="fill:#fff;fill-rule:nonzero;"/><path d="M628.192,588.404c-39.438,0 -71.562,32.124 -71.562,71.563l-0,254.445c-0,39.439 32.124,71.563 71.562,71.563l389.619,-0l0,-397.571l-389.619,0Zm413.474,445.279l-413.474,0c-65.74,0 -119.271,-53.529 -119.271,-119.271l0,-254.445c0,-65.774 53.531,-119.271 119.271,-119.271l413.474,-0c13.167,-0 23.854,10.686 23.854,23.854l-0,445.279c-0,13.168 -10.687,23.854 -23.854,23.854Z" style="fill-rule:nonzero;"/><path d="M874.686,1033.68l0,230.591c0,57.028 46.373,103.368 103.368,103.368l39.757,0l0,-333.959l-143.125,0Zm166.98,381.668l-63.612,-0c-83.297,-0 -151.076,-67.778 -151.076,-151.077l-0,-254.445c-0,-13.168 10.688,-23.854 23.854,-23.854l190.834,-0c13.167,-0 23.854,10.686 23.854,23.854l-0,381.668c-0,13.167 -10.687,23.854 -23.854,23.854Z" style="fill-rule:nonzero;"/><path d="M1392.67,270.348c-13.168,-0 -23.854,-10.687 -23.854,-23.854l-0,-127.223c-0,-13.167 10.686,-23.854 23.854,-23.854c13.168,-0 23.854,10.687 23.854,23.854l0,127.223c0,13.167 -10.686,23.854 -23.854,23.854Z" style="fill-rule:nonzero;"/><path d="M1456.28,206.737l-127.222,-0c-13.168,-0 -23.854,-10.687 -23.854,-23.855c-0,-13.167 10.686,-23.854 23.854,-23.854l127.222,0c13.168,0 23.855,10.687 23.855,23.854c-0,13.168 -10.687,23.855 -23.855,23.855Z" style="fill-rule:nonzero;"/><path d="M1201.84,159.028c13.168,0 23.854,10.687 23.854,23.854c0,13.168 -10.686,23.855 -23.854,23.855c-13.167,-0 -23.854,-10.687 -23.854,-23.855c0,-13.167 10.687,-23.854 23.854,-23.854Z" style="fill-rule:nonzero;"/><path d="M1106.39,159.028c13.168,0 23.854,10.687 23.854,23.854c0,13.168 -10.686,23.855 -23.854,23.855c-13.167,-0 -23.854,-10.687 -23.854,-23.855c0,-13.167 10.687,-23.854 23.854,-23.854Z" style="fill-rule:nonzero;"/><path d="M947.363,159.028c13.168,0 23.854,10.687 23.854,23.854c0,13.168 -10.686,23.855 -23.854,23.855c-13.168,-0 -23.854,-10.687 -23.854,-23.855c-0,-13.167 10.686,-23.854 23.854,-23.854Z" style="fill-rule:nonzero;"/><path d="M756.498,159.028c13.168,0 23.854,10.687 23.854,23.854c0,13.168 -10.686,23.855 -23.854,23.855c-13.167,-0 -23.854,-10.687 -23.854,-23.855c-0,-13.167 10.687,-23.854 23.854,-23.854Z" style="fill-rule:nonzero;"/><path d="M787.221,906.461c-13.166,-0 -23.855,-10.687 -23.855,-23.855l0,-190.833c0,-13.168 10.689,-23.855 23.855,-23.855c13.167,0 23.854,10.687 23.854,23.855l-0,190.833c-0,13.168 -10.687,23.855 -23.854,23.855Z" style="fill-rule:nonzero;"/><path d="M914.443,906.461c-13.165,-0 -23.854,-10.687 -23.854,-23.855l-0,-190.833c-0,-13.168 10.689,-23.855 23.854,-23.855c13.168,0 23.854,10.687 23.854,23.855l0,190.833c0,13.168 -10.686,23.855 -23.854,23.855Z" style="fill-rule:nonzero;"/><path d="M659.967,906.461c-13.168,-0 -23.854,-10.687 -23.854,-23.855l-0,-190.833c-0,-13.168 10.686,-23.855 23.854,-23.855c13.168,0 23.854,10.687 23.854,23.855l0,190.833c0,13.168 -10.686,23.855 -23.854,23.855Z" style="fill-rule:nonzero;"/></g></g></svg>