<?xml version="1.0" encoding="UTF-8" standalone="no"?><!DOCTYPE svg PUBLIC "-//W3C//DTD SVG 1.1//EN" "http://www.w3.org/Graphics/SVG/1.1/DTD/svg11.dtd"><svg width="100%" height="100%" viewBox="0 0 2084 2084" version="1.1" xmlns="http://www.w3.org/2000/svg" xmlns:xlink="http://www.w3.org/1999/xlink" xml:space="preserve" xmlns:serif="http://www.serif.com/" style="fill-rule:evenodd;clip-rule:evenodd;stroke-linejoin:round;stroke-miterlimit:2;"><rect id="画板1" x="0" y="0" width="2083.33" height="2083.33" style="fill:none;"/><clipPath id="_clip1"><rect id="画板11" serif:id="画板1" x="0" y="0" width="2083.33" height="2083.33"/></clipPath><g clip-path="url(#_clip1)"><g><path d="M1579.61,1798.41l0,-204.801c0,-17.484 -14.231,-31.528 -31.621,-31.528c-17.394,-0 -31.528,14.044 -31.528,31.528l-0,97.842l-676.434,-1406.62l433.78,0l727.77,1513.58l-421.967,0Zm-821.335,-1406.71l0,477.49l-0.094,8.838c-0.93,80.637 -22.136,621.836 -416.758,920.387l-259.675,0l676.527,-1406.71Zm380.579,1406.71l-698.195,0c214.194,-191.683 308.221,-447.636 349.144,-643.134c40.923,195.498 134.86,451.451 349.051,643.134Zm99.239,0c-393.788,-297.898 -415.737,-839.194 -416.668,-920.296l-0.094,-9.485l0,-476.934l676.434,1406.71l-259.672,0Zm845.236,-204.801c0,-17.484 -14.134,-31.528 -31.528,-31.528c-17.484,-0 -31.528,14.044 -31.528,31.528l0,97.842l-698.197,-1451.82c-5.3,-10.973 -16.369,-17.859 -28.46,-17.859l-503.813,0l-10.973,2.141l-2.234,0.931l-8.835,5.858l-0.931,1.118l-0.278,0.466l-0.372,0.465l-3.162,3.718l-0.837,1.862l-0.838,1.3l-698.194,1451.82l-0,-97.842c-0,-17.484 -14.138,-31.528 -31.531,-31.528c-17.484,-0 -31.622,14.044 -31.622,31.528l0,236.329l0.187,0.653l2.138,10.695l1.024,2.231l1.487,3.258l3.815,4.553l0.928,1.118l8.745,5.955l2.325,0.931l10.973,2.231l2020.18,-0l10.882,-2.231l2.325,-0.931l8.836,-5.955l0.837,-1.118l3.815,-4.553l1.581,-3.258l1.021,-2.231l2.141,-10.695l0.09,-0.653l0,-236.329Z" style="fill:#0b0b16;fill-rule:nonzero;"/></g></g></svg>