<?xml version="1.0" encoding="UTF-8" standalone="no"?><!DOCTYPE svg PUBLIC "-//W3C//DTD SVG 1.1//EN" "http://www.w3.org/Graphics/SVG/1.1/DTD/svg11.dtd"><svg width="100%" height="100%" viewBox="0 0 2084 2084" version="1.1" xmlns="http://www.w3.org/2000/svg" xmlns:xlink="http://www.w3.org/1999/xlink" xml:space="preserve" xmlns:serif="http://www.serif.com/" style="fill-rule:evenodd;clip-rule:evenodd;stroke-linejoin:round;stroke-miterlimit:2;"><rect id="画板1" x="0" y="0" width="2083.33" height="2083.33" style="fill:none;"/><clipPath id="_clip1"><rect id="画板11" serif:id="画板1" x="0" y="0" width="2083.33" height="2083.33"/></clipPath><g clip-path="url(#_clip1)"><g><path d="M854.633,1770.83l-600.451,0l-61.664,-92.632l723.685,0l-61.57,92.632Zm-518.048,-898.255c0,-17.484 14.23,-31.624 31.53,-31.624l372.492,-0c17.392,-0 31.529,14.14 31.529,31.624l0,740.892l-435.551,0l0,-740.892Zm1.303,-376.21c-16.555,-56.926 6.045,-118.217 55.06,-149.28c106.027,-67.149 143.881,-139.601 165.923,-254.559c66.872,61.569 193.176,192.337 213.544,318.921c7.069,43.711 7.627,105.286 -29.762,149.274c-9.394,10.979 -21.02,20.368 -34.227,28.276c4.744,-19.437 5.581,-41.298 1.768,-64.919c-16.462,-101.845 -106.493,-199.779 -110.399,-203.872c-8.185,-9.02 -20.834,-12.369 -32.553,-8.651c-11.532,3.627 -19.996,13.675 -21.763,25.766c-6.418,45.198 -28.925,63.619 -62.873,91.611c-12.091,9.951 -25.856,21.389 -39.527,34.69c-31.995,31.437 -46.783,74.966 -40.924,114.867c-31.808,-20.742 -54.316,-48.178 -64.267,-82.124Zm298.552,99.699c-11.72,13.766 -31.251,19.812 -50.504,22.321l0,-58.407c0,-17.297 -14.137,-31.529 -31.529,-31.529c-17.485,0 -31.622,14.232 -31.622,31.529l0,56.829c-28.646,-5.58 -48.085,-17.859 -55.525,-36.183c-8.835,-21.668 -0.465,-51.987 20.09,-71.986c11.625,-11.439 23.716,-21.39 35.342,-30.972c24.089,-19.715 48.643,-39.992 65.663,-70.777c23.717,33.203 51.991,80.915 59.524,127.231c2.884,18.699 3.441,44.46 -11.439,61.944Zm338.73,1018.98l-139.883,0l0,-742.47c0,-52.27 -42.41,-94.681 -94.68,-94.681l-154.671,0l0,-95.056c92.356,-3.253 161.367,-30.319 204.709,-81.193c42.038,-49.388 57.291,-118.581 44.085,-200.336c-31.716,-196.987 -268.232,-386.537 -278.369,-394.439c-8.836,-6.976 -20.741,-8.838 -31.251,-4.654c-10.603,4.28 -18.043,13.766 -19.624,24.926c-21.484,151.698 -51.526,206.478 -146.393,266.651c-72.452,45.947 -106.12,136.535 -81.846,220.147c27.716,95.238 118.119,155.881 245.538,167.32l0,96.634l-154.67,0c-52.084,0 -94.68,42.411 -94.68,94.681l-0,742.47l-139.79,0c-11.626,0 -22.322,6.421 -27.902,16.65c-5.394,10.326 -4.836,22.786 1.674,32.368l103.517,155.786c5.859,8.832 15.718,14.135 26.321,14.135l634.306,-0c10.602,-0 20.461,-5.303 26.227,-14.135l103.61,-155.786c6.417,-9.582 7.069,-22.042 1.488,-32.368c-5.395,-10.229 -16.09,-16.65 -27.716,-16.65Z" style="fill:#0b0b16;fill-rule:nonzero;"/><path d="M1829.16,2020.18l-600.452,0l-61.664,-92.637l723.779,-0l-61.663,92.637Zm-520.28,-569.11c-0,-17.393 14.23,-31.619 31.622,-31.619l372.399,0c17.392,0 31.529,14.226 31.529,31.619l0,411.741l-435.55,0l-0,-411.741Zm1.302,-376.21c-16.462,-56.829 6.139,-118.211 54.967,-149.183c106.121,-67.246 143.974,-139.698 165.924,-254.56c66.965,61.57 193.175,192.247 213.636,318.825c7.069,43.807 7.72,105.286 -29.762,149.28c-9.394,11.064 -20.926,20.459 -34.226,28.27c4.743,-19.437 5.487,-41.201 1.674,-64.919c-16.369,-101.839 -106.4,-199.682 -110.213,-203.866c-8.277,-8.93 -20.926,-12.279 -32.552,-8.651c-11.626,3.718 -20.09,13.766 -21.857,25.67c-6.417,45.294 -28.832,63.8 -62.966,91.797c-12.09,9.951 -25.762,21.299 -39.434,34.69c-32.088,31.438 -46.69,74.87 -40.923,114.771c-31.809,-20.646 -54.409,-48.178 -64.268,-82.124Zm298.644,99.705c-11.811,13.857 -31.436,19.903 -50.595,22.412l-0,-58.408c-0,-17.393 -14.137,-31.528 -31.622,-31.528c-17.3,-0 -31.53,14.135 -31.53,31.528l0,56.733c-28.739,-5.58 -48.084,-17.853 -55.525,-36.087c-8.836,-21.668 -0.372,-51.987 20.09,-72.076c11.626,-11.348 23.623,-21.299 35.342,-30.882c23.996,-19.811 48.736,-39.992 65.663,-70.867c23.624,33.293 51.991,81.006 59.431,127.231c2.976,18.693 3.535,44.551 -11.254,61.944Zm368.679,706.474c-5.488,-10.229 -16.183,-16.644 -27.809,-16.644l-142.114,0l-0,-413.325c-0,-52.174 -42.411,-94.681 -94.681,-94.681l-154.67,0l-0,-95.141c92.356,-3.168 161.367,-30.138 204.801,-81.103c41.946,-49.296 57.199,-118.495 43.992,-200.245c-31.716,-197.083 -268.232,-386.536 -278.369,-394.534c-8.836,-6.977 -20.834,-8.743 -31.251,-4.559c-10.509,4.184 -17.95,13.675 -19.624,24.836c-21.485,151.692 -51.619,206.568 -146.392,266.65c-72.453,46.038 -106.121,136.439 -81.846,220.238c27.623,95.051 118.025,155.695 245.537,167.321l0,96.537l-154.577,0c-52.27,0 -94.681,42.507 -94.681,94.681l0,413.325l-137.649,0c-11.626,0 -22.323,6.415 -27.903,16.644c-5.487,10.326 -4.836,22.696 1.581,32.369l103.61,155.881c5.859,8.742 15.718,14.044 26.321,14.044l634.306,0c10.602,0 20.461,-5.302 26.32,-14.044l103.61,-155.881c6.418,-9.673 6.976,-22.043 1.488,-32.369Z" style="fill:#0b0b16;fill-rule:nonzero;"/></g></g></svg>