<?xml version="1.0" encoding="UTF-8" standalone="no"?><!DOCTYPE svg PUBLIC "-//W3C//DTD SVG 1.1//EN" "http://www.w3.org/Graphics/SVG/1.1/DTD/svg11.dtd"><svg width="100%" height="100%" viewBox="0 0 2084 2084" version="1.1" xmlns="http://www.w3.org/2000/svg" xmlns:xlink="http://www.w3.org/1999/xlink" xml:space="preserve" xmlns:serif="http://www.serif.com/" style="fill-rule:evenodd;clip-rule:evenodd;stroke-linejoin:round;stroke-miterlimit:2;"><rect id="画板1" x="0" y="0" width="2083.33" height="2083.33" style="fill:none;"/><clipPath id="_clip1"><rect id="画板11" serif:id="画板1" x="0" y="0" width="2083.33" height="2083.33"/></clipPath><g clip-path="url(#_clip1)"><g><path d="M1957.03,1887.74c0,73.013 -59.434,132.442 -132.538,132.442l-1565.66,-0c-73.103,-0 -132.532,-59.525 -132.532,-132.532l-0,-1691.96c-0,-73.007 59.429,-132.629 132.532,-132.629l1565.66,-0c73.104,-0 132.538,59.622 132.538,132.629l0,1692.05Zm-132.538,-1887.74l-1565.66,-0c-107.884,-0 -195.685,87.8 -195.685,195.685l0,1691.96c0,107.884 87.801,195.684 195.685,195.684l1565.66,0c107.89,0 195.685,-87.8 195.685,-195.594l-0,-1692.05c-0,-107.885 -87.795,-195.685 -195.685,-195.685Z" style="fill:#0b0b16;fill-rule:nonzero;"/><path d="M1041.67,252.604c-17.484,0 -31.528,14.135 -31.528,31.437l-0,1515.16c-0,17.575 14.044,31.528 31.528,31.528c17.393,0 31.528,-13.953 31.528,-31.528l-0,-1515.16c-0,-17.302 -14.135,-31.437 -31.528,-31.437Z" style="fill:#0b0b16;fill-rule:nonzero;"/><path d="M698.293,441.965l-101.566,0l-0,-126.396l101.566,0c34.877,0 63.147,28.366 63.147,63.244c-0,34.69 -28.27,63.152 -63.147,63.152Zm-329.431,-63.152c-0,-34.878 28.275,-63.244 63.152,-63.244l101.566,0l0,126.396l-101.566,0c-34.877,0 -63.152,-28.462 -63.152,-63.152Zm329.431,-126.3l-266.279,0c-69.658,0 -126.299,56.642 -126.299,126.3c-0,69.567 56.641,126.117 126.299,126.117l266.279,0c69.658,0 126.299,-56.55 126.299,-126.117c0,-69.658 -56.641,-126.3 -126.299,-126.3Z" style="fill:#0b0b16;fill-rule:nonzero;"/><path d="M698.293,883.834l-101.566,-0l-0,-126.3l101.566,0c34.877,0 63.147,28.367 63.147,63.153c-0,34.781 -28.27,63.147 -63.147,63.147Zm-329.431,-63.147c-0,-34.786 28.275,-63.153 63.152,-63.153l101.566,0l0,126.3l-101.566,-0c-34.877,-0 -63.152,-28.366 -63.152,-63.147Zm329.431,-126.214l-266.279,-0c-69.658,-0 -126.299,56.55 -126.299,126.214c-0,69.567 56.641,126.299 126.299,126.299l266.279,0c69.658,0 126.299,-56.732 126.299,-126.299c0,-69.664 -56.641,-126.214 -126.299,-126.214Z" style="fill:#0b0b16;fill-rule:nonzero;"/><path d="M698.293,1325.8l-101.566,-0l-0,-126.299l101.566,-0c34.877,-0 63.147,28.366 63.147,63.146c-0,34.787 -28.27,63.153 -63.147,63.153Zm-329.431,-63.153c-0,-34.78 28.275,-63.146 63.152,-63.146l101.566,-0l0,126.299l-101.566,-0c-34.877,-0 -63.152,-28.366 -63.152,-63.153Zm329.431,-126.208l-266.279,-0c-69.658,-0 -126.299,56.641 -126.299,126.208c-0,69.664 56.641,126.305 126.299,126.305l266.279,0c69.658,0 126.299,-56.641 126.299,-126.305c0,-69.567 -56.641,-126.208 -126.299,-126.208Z" style="fill:#0b0b16;fill-rule:nonzero;"/><path d="M698.293,1767.76l-101.566,-0l-0,-126.305l101.566,0c34.877,0 63.147,28.366 63.147,63.153c-0,34.786 -28.27,63.152 -63.147,63.152Zm-329.431,-63.152c-0,-34.787 28.275,-63.153 63.152,-63.153l101.566,0l0,126.305l-101.566,-0c-34.877,-0 -63.152,-28.366 -63.152,-63.152Zm329.431,-126.3l-266.279,0c-69.658,0 -126.299,56.636 -126.299,126.3c-0,69.663 56.641,126.304 126.299,126.304l266.279,0c69.658,0 126.299,-56.641 126.299,-126.304c0,-69.664 -56.641,-126.3 -126.299,-126.3Z" style="fill:#0b0b16;fill-rule:nonzero;"/><path d="M1651.32,441.965l-101.651,0l-0,-126.396l101.651,0c34.787,0 63.153,28.366 63.153,63.244c-0,34.69 -28.366,63.152 -63.153,63.152Zm-329.516,-63.152c-0,-34.878 28.366,-63.244 63.152,-63.244l101.651,0l0,126.396l-101.651,0c-34.786,0 -63.152,-28.462 -63.152,-63.152Zm329.516,-126.3l-266.364,0c-69.573,0 -126.208,56.642 -126.208,126.3c-0,69.567 56.635,126.117 126.208,126.117l266.364,0c69.573,0 126.305,-56.55 126.305,-126.117c0,-69.658 -56.732,-126.3 -126.305,-126.3Z" style="fill:#0b0b16;fill-rule:nonzero;"/><path d="M1651.32,883.834l-101.651,-0l-0,-126.3l101.651,0c34.787,0 63.153,28.367 63.153,63.153c-0,34.781 -28.366,63.147 -63.153,63.147Zm-329.516,-63.147c-0,-34.786 28.366,-63.153 63.152,-63.153l101.651,0l0,126.3l-101.651,-0c-34.786,-0 -63.152,-28.366 -63.152,-63.147Zm329.516,-126.214l-266.364,-0c-69.573,-0 -126.208,56.55 -126.208,126.214c-0,69.567 56.635,126.299 126.208,126.299l266.364,0c69.573,0 126.305,-56.732 126.305,-126.299c0,-69.664 -56.732,-126.214 -126.305,-126.214Z" style="fill:#0b0b16;fill-rule:nonzero;"/><path d="M1651.32,1325.8l-101.651,-0l-0,-126.299l101.651,-0c34.787,-0 63.153,28.366 63.153,63.146c-0,34.787 -28.366,63.153 -63.153,63.153Zm-329.516,-63.153c-0,-34.78 28.366,-63.146 63.152,-63.146l101.651,-0l0,126.299l-101.651,-0c-34.786,-0 -63.152,-28.366 -63.152,-63.153Zm329.516,-126.208l-266.364,-0c-69.573,-0 -126.208,56.641 -126.208,126.208c-0,69.664 56.635,126.305 126.208,126.305l266.364,0c69.573,0 126.305,-56.641 126.305,-126.305c0,-69.567 -56.732,-126.208 -126.305,-126.208Z" style="fill:#0b0b16;fill-rule:nonzero;"/><path d="M1651.32,1767.76l-101.651,-0l-0,-126.305l101.651,0c34.787,0 63.153,28.366 63.153,63.153c-0,34.786 -28.366,63.152 -63.153,63.152Zm-329.516,-63.152c-0,-34.787 28.366,-63.153 63.152,-63.153l101.651,0l0,126.305l-101.651,-0c-34.786,-0 -63.152,-28.366 -63.152,-63.152Zm329.516,-126.3l-266.364,0c-69.573,0 -126.208,56.636 -126.208,126.3c-0,69.663 56.635,126.304 126.208,126.304l266.364,0c69.573,0 126.305,-56.641 126.305,-126.304c0,-69.664 -56.732,-126.3 -126.305,-126.3Z" style="fill:#0b0b16;fill-rule:nonzero;"/></g></g></svg>