<?xml version="1.0" encoding="UTF-8" standalone="no"?><!DOCTYPE svg PUBLIC "-//W3C//DTD SVG 1.1//EN" "http://www.w3.org/Graphics/SVG/1.1/DTD/svg11.dtd"><svg width="100%" height="100%" viewBox="0 0 2084 2084" version="1.1" xmlns="http://www.w3.org/2000/svg" xmlns:xlink="http://www.w3.org/1999/xlink" xml:space="preserve" xmlns:serif="http://www.serif.com/" style="fill-rule:evenodd;clip-rule:evenodd;stroke-linejoin:round;stroke-miterlimit:2;"><rect id="画板1" x="0" y="0" width="2083.33" height="2083.33" style="fill:none;"/><g id="画板11" serif:id="画板1"><g><path d="M1409.5,1787.9c-10.881,37.666 -45.664,63.891 -84.632,63.891l-0.465,0l-322.628,-1.765l-42.13,-154.386c-4.65,-16.927 -22.042,-26.971 -38.783,-22.135c-16.833,4.558 -26.785,22.042 -22.134,38.782l37.48,137.551l-401.68,-1.952l-32.83,-119.881c-4.558,-16.928 -21.949,-26.878 -38.782,-22.229c-16.741,4.558 -26.692,22.041 -22.042,38.69l27.993,103.048l-355.643,-1.859c-28.18,-0.187 -43.34,-19.252 -48.175,-37.016c-4.93,-17.858 -1.395,-41.853 22.692,-56.362l532.349,-317.325l37.574,137.83c3.813,13.859 16.554,23.251 30.412,23.251l8.37,-1.209c16.833,-4.649 26.692,-21.948 22.135,-38.782l-42.13,-154.479l339.647,-202.559l54.128,198.375c3.813,13.95 16.554,23.251 30.411,23.251l8.371,-1.115c16.741,-4.652 26.692,-21.857 22.135,-38.875l-58.779,-215.212l55.803,-33.295c33.667,-19.996 77.006,-15.253 105.744,11.625c84.168,79.519 143.969,182.754 175.032,294.356l0.744,2.14c31.249,113.37 32.737,234.832 -0.187,347.646Zm-860.65,-643.024l105.838,95.606l21.205,8.092c8.556,-0 17.112,-3.44 23.344,-10.323c11.718,-12.928 10.695,-32.83 -2.233,-44.455l-118.765,-107.606l177.078,-353.504l152.432,137.83l21.112,8.186c8.649,-0 17.206,-3.537 23.437,-10.417c11.718,-12.834 10.695,-32.923 -2.232,-44.549l-165.546,-149.642l29.11,-58.127l0.093,-0c15.067,-30.134 46.13,-48.642 79.052,-48.642l16.183,1.581c114.115,21.392 220.418,76.451 306.724,153.829l0.558,0.928l0.931,0.56l2.324,1.952c86.121,78.31 151.782,178.939 184.611,290.541c11.068,37.76 -4.371,78.588 -37.387,99.608l-45.013,28.365c-14.136,-16.184 -28.831,-32.086 -44.642,-46.873c-49.012,-46.036 -123.601,-54.222 -181.169,-19.902l-731.935,436.276l184.89,-369.314Zm1501.44,-91.515c-54.965,2.324 -107.232,11.809 -156.432,25.668c-0.836,-28.737 4.837,-72.357 39.155,-109.093c11.904,-12.647 11.16,-32.645 -1.581,-44.455c-12.741,-11.997 -32.83,-11.253 -44.641,1.394c-56.825,60.917 -58.779,133.553 -54.686,172.522c-62.499,23.716 -119.323,54.221 -169.359,87.145c-14.229,-23.067 -31.249,-62.314 -19.624,-106.491c4.465,-16.924 -5.58,-34.223 -22.32,-38.688c-16.927,-4.371 -34.225,5.58 -38.69,22.507c-17.949,68.078 8.184,126.205 29.111,159.129c-71.427,53.568 -125.368,108.627 -158.478,145.828c-22.413,-61.942 -53.197,-120.812 -91.608,-174.381l39.34,-24.832c56.732,-35.9 83.145,-106.115 64.172,-170.659c-32.829,-111.418 -95.514,-212.794 -177.542,-294.915c26.041,-17.949 71.426,-43.618 134.296,-59.892c4.092,48.638 31.621,109.464 116.998,141.829l11.253,2.046c12.649,0 24.739,-7.814 29.483,-20.276c6.138,-16.368 -2.047,-34.689 -18.322,-40.828c-65.381,-24.738 -76.542,-68.356 -76.821,-94.397c60.731,-6.976 132.809,-3.908 215.674,20.274c16.741,4.93 34.226,-4.743 39.154,-21.483c4.744,-16.833 -4.835,-34.226 -21.576,-39.156c-216.232,-62.87 -369.408,-0.372 -445.485,46.317c5.208,-54.315 23.251,-139.505 78.774,-229.44c19.809,9.301 47.989,18.88 81.749,18.88c27.436,0 58.22,-6.323 90.771,-24.181c15.253,-8.277 20.926,-27.528 12.556,-42.875c-8.463,-15.252 -27.622,-20.832 -42.967,-12.462c-42.41,23.438 -80.634,17.021 -105.094,7.907c34.876,-44.643 79.982,-89.098 138.482,-130.391c14.229,-10.045 17.67,-29.762 7.626,-43.99c-10.044,-14.324 -29.761,-17.577 -43.897,-7.532c-115.882,81.749 -184.704,174.565 -225.44,259.292c-22.692,-33.761 -46.13,-81.287 -43.526,-127.789c1.023,-17.39 -12.276,-32.27 -29.668,-33.292c-17.019,-0.653 -32.272,12.369 -33.294,29.852c-5.023,88.073 51.709,166.942 78.773,199.306c-17.67,52.269 -25.297,98.677 -28.366,134.019c-84.819,-63.801 -183.216,-109.374 -287.658,-128.998c-66.218,-12.553 -133.274,20.833 -163.313,81.006l-493.94,986.299l-207.862,123.973c-44.269,26.507 -64.916,77.47 -51.338,127.321c13.486,49.663 57.29,83.145 108.814,83.517l1211.18,5.858l0.744,0c66.869,0 126.577,-44.827 145.27,-109.186c32.273,-110.952 34.226,-229.343 9.859,-342.251c43.805,-0.556 122.95,2.418 213.256,25.204c-1.86,32.739 4.278,87.145 45.758,155.688c5.859,9.951 16.275,15.252 26.97,15.252l16.276,-4.558c14.974,-9.02 19.717,-28.365 10.695,-43.34c-27.157,-45.105 -34.876,-80.353 -36.364,-103.697c65.01,22.507 132.437,55.802 193.911,106.303l19.996,6.976c9.115,0 18.229,-3.814 24.46,-11.534c11.067,-13.485 9.022,-33.202 -4.464,-44.362c-30.505,-24.925 -62.126,-46.036 -94.212,-64.172c19.717,-17.205 45.943,-35.248 71.334,-39.619c17.112,-2.79 28.737,-19.252 25.761,-36.179c-2.976,-17.39 -19.065,-28.831 -36.457,-25.947c-52.454,9.02 -97.467,47.804 -120.904,71.705c-126.391,-56.359 -250.364,-69.287 -325.976,-70.868c46.594,-50.407 128.065,-127.879 235.298,-189.261c22.878,22.413 65.753,56.452 125.833,68.915l6.417,0.837c14.602,0 27.808,-10.323 30.877,-25.11c3.534,-17.208 -7.347,-33.948 -24.459,-37.388c-33.389,-6.976 -60.174,-23.529 -78.681,-38.409c73.658,-34.32 156.989,-59.246 247.853,-63.336c17.391,-0.93 30.877,-15.624 30.133,-33.11c-0.837,-17.39 -15.996,-31.249 -33.016,-29.946Z" style="fill:#0b0b16;fill-rule:nonzero;"/></g></g></svg>