<?xml version="1.0" encoding="UTF-8" standalone="no"?><!DOCTYPE svg PUBLIC "-//W3C//DTD SVG 1.1//EN" "http://www.w3.org/Graphics/SVG/1.1/DTD/svg11.dtd"><svg width="100%" height="100%" viewBox="0 0 2084 2084" version="1.1" xmlns="http://www.w3.org/2000/svg" xmlns:xlink="http://www.w3.org/1999/xlink" xml:space="preserve" xmlns:serif="http://www.serif.com/" style="fill-rule:evenodd;clip-rule:evenodd;stroke-linejoin:round;stroke-miterlimit:2;"><rect id="画板1" x="0" y="0" width="2083.33" height="2083.33" style="fill:none;"/><clipPath id="_clip1"><rect id="画板11" serif:id="画板1" x="0" y="0" width="2083.33" height="2083.33"/></clipPath><g clip-path="url(#_clip1)"><g><g><path d="M1524.67,1233.83c-7.351,7.161 -10.791,17.67 -9.02,27.809l108.441,632.072l-567.616,-298.364l-14.788,-3.628l-14.697,3.628l-567.713,298.364l108.447,-632.072c1.766,-10.139 -1.584,-20.648 -9.117,-27.809l-459.175,-447.735l634.585,-92.262c10.326,-1.488 19.255,-7.906 23.813,-17.299l283.857,-574.968l283.857,574.968c4.552,9.393 13.482,15.811 23.808,17.299l634.584,92.262l-459.266,447.735Zm557.109,-479.543c-3.718,-11.44 -13.578,-19.81 -25.392,-21.485l-681.553,-99.052l-304.877,-617.564c-10.508,-21.577 -46.038,-21.577 -56.636,-0l-304.69,617.564l-681.65,99.052c-11.904,1.675 -21.668,10.045 -25.483,21.485c-3.627,11.44 -0.556,23.996 7.999,32.366l493.212,480.752l-116.349,678.763c-2.044,11.904 2.696,23.903 12.46,30.971c9.77,6.975 22.696,7.906 33.3,2.326l609.567,-320.501l609.562,320.501l14.697,3.533l18.602,-5.859c9.673,-7.068 14.6,-19.067 12.557,-30.971l-116.446,-678.763l493.122,-480.752c8.651,-8.37 11.716,-20.926 7.998,-32.366Z" style="fill:#0b0b16;fill-rule:nonzero;"/><path d="M1041.69,1424.95c-78.315,0 -142.025,-63.709 -142.025,-142.02c0,-78.405 63.71,-142.022 142.025,-142.022c78.31,-0 142.019,63.617 142.019,142.022c0,78.311 -63.709,142.02 -142.019,142.02Zm0,-347.286c-113.096,-0 -205.081,92.076 -205.081,205.266c-0,113.095 91.985,205.172 205.081,205.172c113.187,-0 205.172,-92.077 205.172,-205.172c0,-113.19 -91.985,-205.266 -205.172,-205.266Z" style="fill:#0b0b16;fill-rule:nonzero;"/><path d="M1183.71,969.315c17.484,0 31.625,-14.044 31.625,-31.529c-0,-17.392 -14.141,-31.622 -31.625,-31.622l-284.044,-0c-17.393,-0 -31.619,14.23 -31.619,31.622c0,17.485 14.226,31.529 31.619,31.529l284.044,0Z" style="fill:#0b0b16;fill-rule:nonzero;"/><path d="M1246.86,738.845l-410.253,0c-17.484,0 -31.625,14.23 -31.625,31.622c-0,17.486 14.141,31.53 31.625,31.53l410.253,-0c17.394,-0 31.528,-14.044 31.528,-31.53c0,-17.392 -14.134,-31.622 -31.528,-31.622Z" style="fill:#0b0b16;fill-rule:nonzero;"/></g></g></g></svg>