<?xml version="1.0" encoding="UTF-8" standalone="no"?><!DOCTYPE svg PUBLIC "-//W3C//DTD SVG 1.1//EN" "http://www.w3.org/Graphics/SVG/1.1/DTD/svg11.dtd"><svg width="100%" height="100%" viewBox="0 0 2084 2084" version="1.1" xmlns="http://www.w3.org/2000/svg" xmlns:xlink="http://www.w3.org/1999/xlink" xml:space="preserve" xmlns:serif="http://www.serif.com/" style="fill-rule:evenodd;clip-rule:evenodd;stroke-linejoin:round;stroke-miterlimit:2;"><rect id="画板1" x="0" y="0" width="2083.33" height="2083.33" style="fill:none;"/><g id="画板11" serif:id="画板1"><g><path d="M1675.85,1080.77c-385.96,109.09 -882.405,109.09 -1268.36,0l0,-433.76l1268.36,-0l-0,433.76Zm186.56,93.094c-458.033,195.956 -1183.45,195.956 -1641.39,0l0,-89.467c464.544,187.957 1176.75,187.957 1641.39,0l-0,89.467Zm-820.833,425.019l-392.374,-244.967c127.037,19.158 259.569,29.296 392.374,29.296c132.992,-0 265.427,-10.138 392.561,-29.296l-392.561,244.967Zm-820.555,-1441.16l1641.39,-0l-0,426.134l-1641.39,0l0,-426.134Zm1672.82,489.283c17.483,-0 31.623,-14.044 31.623,-31.528l-0,-489.189c-0,-17.485 -14.14,-31.528 -31.623,-31.528l-154.756,-0l0,-63.242c0,-17.391 -14.134,-31.527 -31.623,-31.527c-17.386,0 -31.617,14.136 -31.617,31.527l-0,63.242l-1268.36,-0l0,-63.242c0,-17.391 -14.23,-31.527 -31.623,-31.527c-17.483,0 -31.617,14.136 -31.617,31.527l-0,63.242l-154.755,-0c-17.484,-0 -31.623,14.043 -31.623,31.528l-0,489.189c-0,17.484 14.139,31.528 31.623,31.528l154.755,-0l-0,414.229c-49.385,-15.996 -97.373,-33.387 -141.921,-53.383c-9.86,-4.371 -21.11,-3.44 -30.136,2.325c-8.832,5.86 -14.321,15.811 -14.321,26.599l-0,157.824c-0,12.463 7.351,23.808 18.601,28.831c91.424,40.735 193.724,73.564 302.721,98.767l502.769,313.789l-622.835,388.933c-14.787,9.207 -19.249,28.644 -10.042,43.339c6.045,9.672 16.274,15.066 26.781,15.066l16.649,-4.836l649.06,-405.21l649.151,405.21l16.739,4.836c10.513,0 20.742,-5.394 26.696,-15.066c9.298,-14.695 4.74,-34.132 -9.95,-43.339l-622.926,-388.933l502.762,-313.789c109.095,-25.203 211.491,-58.032 302.722,-98.767c11.443,-5.023 18.698,-16.368 18.698,-28.831l-0,-157.824c-0,-10.788 -5.489,-20.739 -14.327,-26.599c-8.924,-5.765 -20.367,-6.696 -30.222,-2.325c-44.457,19.996 -92.445,37.387 -141.83,53.383l0,-414.229l154.756,-0Z" style="fill:#0b0b16;fill-rule:nonzero;"/></g></g></svg>