<?xml version="1.0" encoding="UTF-8" standalone="no"?><!DOCTYPE svg PUBLIC "-//W3C//DTD SVG 1.1//EN" "http://www.w3.org/Graphics/SVG/1.1/DTD/svg11.dtd"><svg width="100%" height="100%" viewBox="0 0 2084 2084" version="1.1" xmlns="http://www.w3.org/2000/svg" xmlns:xlink="http://www.w3.org/1999/xlink" xml:space="preserve" xmlns:serif="http://www.serif.com/" style="fill-rule:evenodd;clip-rule:evenodd;stroke-linejoin:round;stroke-miterlimit:2;"><rect id="画板1" x="0" y="0" width="2083.33" height="2083.33" style="fill:none;"/><clipPath id="_clip1"><rect id="画板11" serif:id="画板1" x="0" y="0" width="2083.33" height="2083.33"/></clipPath><g clip-path="url(#_clip1)"><g><path d="M1569.01,678.832c-14.882,14.788 -33.389,25.67 -54.968,32.181c-72.823,22.043 -159.227,111.144 -236.981,244.422l-7.72,14.044c-64.361,-20.368 -135.139,-91.054 -155.414,-155.508l14.043,-7.623c133.187,-77.754 222.287,-164.068 244.331,-237.076c6.416,-21.208 17.578,-40.18 32.273,-54.877l96.633,-96.725l164.437,164.528l-96.634,96.634Zm-392.49,539.161l-5.115,18.046c-152.717,-34.043 -290.089,-171.413 -324.037,-323.946l18.044,-5.205c62.501,-17.394 126.489,-35.531 191.408,-64.363c28.833,78.31 105.842,155.229 183.969,183.965c-28.926,65.106 -46.877,129.003 -64.269,191.503Zm-140.906,291.022l-100.819,100.818l-69.383,-69.29c-18.044,-18.137 -23.438,-44.829 -13.765,-68.177c28.832,-69.103 13.3,-148.065 -39.621,-200.984c-53.014,-52.923 -131.883,-68.546 -201.175,-39.714c-23.251,9.764 -49.945,4.275 -67.894,-13.675l-69.384,-69.38l100.82,-100.824c61.943,-61.939 134.582,-93.376 212.149,-117.928c40.55,172.152 194.85,326.359 366.912,367.004c-24.461,77.657 -55.897,150.115 -117.84,212.15Zm-364.029,363.933l-461.222,-461.13l218.567,-218.564l69.384,69.29c36.179,36.274 89.937,46.969 136.906,27.345c45.48,-18.972 97.284,-8.652 132.07,26.226c34.784,34.787 45.015,86.592 26.134,132.074c-19.624,46.963 -8.834,100.721 27.345,136.905l69.289,69.38l-218.473,218.474Zm-134.674,134.673c-16.834,16.838 -44.271,16.928 -61.012,0l-400.116,-400.207c-16.928,-16.74 -16.928,-44.085 0,-61.013l89.938,-90.032l461.221,461.226l-90.031,90.026Zm986.618,-1656.82c-12.277,-12.369 -32.365,-12.369 -44.643,0l-118.956,118.956c-22.043,21.946 -38.691,50.131 -47.991,81.193c-13.394,44.086 -77.104,119.887 -215.777,200.802c-82.404,48.178 -166.482,71.617 -247.771,94.404c-115.421,32.368 -224.425,62.778 -318.641,156.903l-498.703,498.795c-41.389,41.388 -41.389,108.913 -0,150.301l400.208,400.117c20.648,20.737 47.899,31.153 75.15,31.153c27.158,0 54.409,-10.416 75.149,-31.153l112.26,-112.263l263.209,-263.211l123.234,-123.23c94.217,-94.125 124.723,-203.22 156.997,-318.457c22.787,-81.381 46.225,-165.555 94.309,-247.867c81.01,-138.761 156.809,-202.476 200.896,-215.771c31.064,-9.395 59.151,-26.045 81.193,-47.996l118.957,-118.956l9.208,-22.32l-9.208,-22.321l-209.08,-209.079Z" style="fill:#0b0b16;fill-rule:nonzero;"/><path d="M1610.86,328.569l22.323,9.207l22.322,-9.207c42.69,-42.689 66.22,-99.331 66.22,-159.601c-0,-60.36 -23.53,-117.002 -66.22,-159.691c-12.278,-12.369 -32.274,-12.369 -44.645,0c-12.275,12.273 -12.275,32.272 0,44.642c30.787,30.694 47.713,71.617 47.713,115.049c-0,43.342 -16.926,84.174 -47.713,114.959c-12.275,12.37 -12.275,32.363 0,44.642Z" style="fill:#0b0b16;fill-rule:nonzero;"/><path d="M2074.12,427.809c-87.984,-87.893 -231.308,-87.989 -319.292,-0c-12.37,12.369 -12.37,32.272 -0,44.55c12.277,12.461 32.273,12.461 44.643,0c63.431,-63.244 166.669,-63.244 230.006,0l22.323,9.389l22.32,-9.389c12.278,-12.278 12.278,-32.181 0,-44.55Z" style="fill:#0b0b16;fill-rule:nonzero;"/><path d="M1809.8,305.129l22.229,-9.207l163.785,-163.784c12.277,-12.279 12.277,-32.369 -0,-44.551c-12.37,-12.369 -32.273,-12.369 -44.643,0l-163.693,163.693c-12.37,12.279 -12.37,32.272 -0,44.642l22.322,9.207Z" style="fill:#0b0b16;fill-rule:nonzero;"/></g></g></svg>