<?xml version="1.0" encoding="UTF-8" standalone="no"?><!DOCTYPE svg PUBLIC "-//W3C//DTD SVG 1.1//EN" "http://www.w3.org/Graphics/SVG/1.1/DTD/svg11.dtd"><svg width="100%" height="100%" viewBox="0 0 2084 2084" version="1.1" xmlns="http://www.w3.org/2000/svg" xmlns:xlink="http://www.w3.org/1999/xlink" xml:space="preserve" xmlns:serif="http://www.serif.com/" style="fill-rule:evenodd;clip-rule:evenodd;stroke-linejoin:round;stroke-miterlimit:2;"><rect id="画板1" x="0" y="0" width="2083.33" height="2083.33" style="fill:none;"/><g id="画板11" serif:id="画板1"><g><path d="M2020.18,1954.43l-610.305,0l0,-454.427l610.305,0l0,454.427Zm-1283.58,0l0,-1237.16l610.211,-0l0,1237.16l-610.211,0Zm-673.55,-845.796l610.305,0l0,845.796l-610.305,0l0,-845.796Zm1988.75,328.218l-641.927,0l0,-751.116c0,-17.578 -14.137,-31.715 -31.529,-31.715l-673.364,-0c-17.484,-0 -31.622,14.137 -31.622,31.715l0,359.747l-641.834,-0c-17.392,-0 -31.528,14.137 -31.528,31.529l0,908.947c0,17.579 14.136,31.622 31.528,31.622l2020.28,0c17.393,0 31.529,-14.043 31.529,-31.622l0,-517.578c0,-17.485 -14.136,-31.529 -31.529,-31.529Z" style="fill:#0b0b16;fill-rule:nonzero;"/><path d="M1041.67,796.131c-17.486,-0 -31.622,14.137 -31.622,31.529l-0,157.831c-0,17.485 14.136,31.622 31.622,31.622c17.485,0 31.621,-14.137 31.621,-31.622l0,-157.831c0,-17.392 -14.136,-31.529 -31.621,-31.529Z" style="fill:#0b0b16;fill-rule:nonzero;"/><path d="M289.341,1187.5c-17.486,0 -31.53,14.137 -31.53,31.529l0,157.831c0,17.578 14.044,31.529 31.53,31.529c17.392,0 31.529,-13.951 31.529,-31.529l0,-157.831c0,-17.392 -14.137,-31.529 -31.529,-31.529Z" style="fill:#0b0b16;fill-rule:nonzero;"/><path d="M447.173,1187.5c-17.394,0 -31.53,14.137 -31.53,31.529l0,157.831c0,17.578 14.136,31.529 31.53,31.529c17.391,0 31.621,-13.951 31.621,-31.529l0,-157.831c0,-17.392 -14.23,-31.529 -31.621,-31.529Z" style="fill:#0b0b16;fill-rule:nonzero;"/><path d="M1557.2,1799.85c17.485,0 31.621,-14.137 31.621,-31.622l0,-157.831c0,-17.392 -14.136,-31.529 -31.621,-31.529c-17.486,0 -31.622,14.137 -31.622,31.529l0,157.831c0,17.485 14.136,31.622 31.622,31.622Z" style="fill:#0b0b16;fill-rule:nonzero;"/><path d="M1715.03,1799.85c17.485,0 31.623,-14.137 31.623,-31.622l0,-157.831c0,-17.392 -14.138,-31.529 -31.623,-31.529c-17.392,0 -31.528,14.137 -31.528,31.529l0,157.831c0,17.485 14.136,31.622 31.528,31.622Z" style="fill:#0b0b16;fill-rule:nonzero;"/><path d="M1872.86,1799.85c17.485,0 31.621,-14.137 31.621,-31.622l0,-157.831c0,-17.392 -14.136,-31.529 -31.621,-31.529c-17.392,0 -31.53,14.137 -31.53,31.529l0,157.831c0,17.485 14.138,31.622 31.53,31.622Z" style="fill:#0b0b16;fill-rule:nonzero;"/><path d="M974.423,273.996c10.23,-1.489 19.16,-7.906 23.717,-17.3l43.527,-88.077l43.527,88.077c4.557,9.394 13.485,15.811 23.715,17.3l97.285,14.136l-70.406,68.732c-7.441,7.161 -10.881,17.578 -9.114,27.716l16.741,96.912l-87.054,-45.666c-9.208,-4.93 -20.182,-4.93 -29.296,-0l-87.054,45.666l16.554,-96.912c1.769,-10.138 -1.581,-20.555 -9.021,-27.716l-70.405,-68.732l97.284,-14.136Zm-82.776,116.35l-24.738,143.601c-1.955,11.812 2.882,23.81 12.649,30.878l18.507,5.952l14.695,-3.627l128.907,-67.708l128.906,67.708c10.603,5.673 23.53,4.651 33.296,-2.325c9.672,-7.068 14.508,-19.066 12.462,-30.878l-24.646,-143.601l104.353,-101.656c8.556,-8.37 11.626,-20.833 7.998,-32.366c-3.721,-11.44 -13.672,-19.624 -25.483,-21.484l-144.066,-20.926l-64.546,-130.488c-5.302,-10.788 -16.185,-17.671 -28.274,-17.671c-11.998,-0 -22.974,6.883 -28.274,17.671l-64.454,130.488l-144.158,20.926c-11.906,1.86 -21.765,10.044 -25.484,21.484c-3.721,11.533 -0.652,23.996 7.998,32.366l104.352,101.656Z" style="fill:#0b0b16;fill-rule:nonzero;"/></g></g></svg>