<?xml version="1.0" encoding="UTF-8" standalone="no"?><!DOCTYPE svg PUBLIC "-//W3C//DTD SVG 1.1//EN" "http://www.w3.org/Graphics/SVG/1.1/DTD/svg11.dtd"><svg width="100%" height="100%" viewBox="0 0 2084 2084" version="1.1" xmlns="http://www.w3.org/2000/svg" xmlns:xlink="http://www.w3.org/1999/xlink" xml:space="preserve" xmlns:serif="http://www.serif.com/" style="fill-rule:evenodd;clip-rule:evenodd;stroke-linejoin:round;stroke-miterlimit:2;"><rect id="画板1" x="0" y="0" width="2083.33" height="2083.33" style="fill:none;"/><clipPath id="_clip1"><rect id="画板11" serif:id="画板1" x="0" y="0" width="2083.33" height="2083.33"/></clipPath><g clip-path="url(#_clip1)"><g><path d="M1409.7,1836.96c-73.381,-0 -142.764,-30.319 -198.102,-79.146c5.953,-27.81 9.301,-56.363 9.301,-85.379c-0,-106.678 -45.48,-194.196 -123.232,-252.137c28.088,-113.373 125.092,-170.758 228.235,-190.01c11.346,44.362 23.623,80.264 33.761,106.677c-33.854,-5.861 -65.29,-17.299 -92.076,-34.97c-14.601,-9.395 -34.226,-5.209 -43.712,9.301c-9.579,14.506 -5.487,34.133 9.115,43.619c49.943,32.643 111.048,49.942 176.71,49.942c65.754,0 126.766,-17.299 176.617,-49.758c14.695,-9.67 18.694,-29.203 9.207,-43.803c-9.579,-14.51 -29.11,-18.696 -43.712,-9.117c-34.598,22.695 -76.729,35.249 -122.395,38.32c-9.208,-21.764 -24.739,-62.034 -39.248,-117.281l19.531,-0.557c147.971,0 320.775,69.754 320.775,266.46c0,185.267 -149.925,347.839 -320.775,347.839Zm-572.727,183.314c-170.851,-0 -320.683,-162.572 -320.683,-347.839c0,-178.106 141.462,-251.953 278.087,-264.416c0.744,48.643 3.813,87.797 6.603,114.769c-39.434,-4.93 -75.613,-17.483 -106.119,-37.388c-14.602,-9.486 -34.226,-5.393 -43.713,9.207c-9.579,14.509 -5.487,34.133 9.115,43.713c49.944,32.552 111.048,49.852 176.617,49.852l0.093,-0c65.662,-0 126.766,-17.3 176.71,-49.852c14.509,-9.58 18.694,-29.204 9.114,-43.713c-9.486,-14.6 -29.017,-18.693 -43.619,-9.207c-32.831,21.392 -72.358,33.948 -115.14,37.854c-3.07,-25.204 -6.976,-65.568 -8.371,-116.722c143.414,5.58 302.081,77.38 302.081,265.903c0,185.267 -149.831,347.839 -320.775,347.839Zm170.2,-1251.76c118.582,-25.392 234.466,-73.569 331.657,-156.901c-65.29,223.771 -54.129,418.336 -26.972,556.822c-136.16,25.392 -233.629,104.725 -269.994,218.098c-52.92,-25.857 -115.885,-40.923 -186.476,-43.063c2.976,-154.761 32.831,-372.765 151.785,-574.956Zm-646.015,-89.006c139.973,-431.081 444.286,-601.28 666.29,-615.233c176.803,-11.066 327.565,66.127 414.711,208.891c-129.836,-20.181 -426.337,-32.925 -730.557,185.267c-14.137,10.232 -17.299,29.946 -7.162,44.178c6.139,8.557 15.811,13.019 25.67,13.019l18.415,-5.765c305.429,-219.306 608.906,-188.244 709.166,-169.642c-226.469,531.713 -940.191,380.02 -1096.53,339.285Zm1048.54,479.907c-11.533,0 -22.787,0.463 -33.947,1.116c-31.715,-159.876 -42.225,-402.715 75.706,-676.613c30.599,-45.575 57.757,-96.633 79.334,-155.508l0.279,-1.115l0.372,-0.838l0.279,-4.09l0.651,-7.163l-1.21,-5.671l-1.115,-4.746c-90.216,-204.332 -279.016,-317.983 -506.601,-303.567c-247.487,15.715 -587.793,206.006 -732.323,691.029c-4.93,16.555 4.278,33.946 20.74,39.154c4.464,1.303 205.077,62.408 446.518,62.408c55.897,0 114.118,-3.442 172.525,-11.534c-103.887,200.613 -132.16,410.432 -136.16,562.031c-206.099,15.346 -341.608,143.322 -341.608,328.124c-0,218.841 179.407,410.897 383.833,410.897c155.598,0 296.315,-111.048 354.908,-260.601c62.779,48.268 138.392,77.474 217.819,77.474c204.518,0 383.833,-192.149 383.833,-411.084c-0,-197.265 -154.203,-329.703 -383.833,-329.703Z" style="fill:#0b0b16;fill-rule:nonzero;"/></g></g></svg>