<?xml version="1.0" encoding="UTF-8" standalone="no"?><!DOCTYPE svg PUBLIC "-//W3C//DTD SVG 1.1//EN" "http://www.w3.org/Graphics/SVG/1.1/DTD/svg11.dtd"><svg width="100%" height="100%" viewBox="0 0 2084 2084" version="1.1" xmlns="http://www.w3.org/2000/svg" xmlns:xlink="http://www.w3.org/1999/xlink" xml:space="preserve" xmlns:serif="http://www.serif.com/" style="fill-rule:evenodd;clip-rule:evenodd;stroke-linejoin:round;stroke-miterlimit:2;"><rect id="画板1" x="0" y="0" width="2083.33" height="2083.33" style="fill:none;"/><clipPath id="_clip1"><rect id="画板11" serif:id="画板1" x="0" y="0" width="2083.33" height="2083.33"/></clipPath><g clip-path="url(#_clip1)"><g><path d="M1848.61,990.85l-155.504,-155.597l158.2,-158.48l155.691,155.69l-158.387,158.387Zm-203.119,202.937l-155.413,-155.504l158.387,-158.388l155.504,155.504l-158.478,158.388Zm-163.224,163.409l-100.821,-210.376l63.895,-63.895l155.691,155.504l-118.765,118.767Zm-488.65,642.199l-909.862,-909.681l97.376,-52.92l865.312,865.224l-52.826,97.377Zm-99.981,-1663.86l34.042,826.905c0.369,10.789 6.324,20.647 15.622,26.042l510.039,295.196l-368.017,368.02l-853.88,-853.877l662.194,-662.286Zm154.113,-56.362l155.504,155.597l-110.307,110.304l-100.816,-210.284l55.619,-55.617Zm202.84,-203.122l155.692,155.69l-158.201,158.387l-155.691,-155.597l158.2,-158.48Zm356.023,355.929l-158.387,158.388l-155.595,-155.598l158.388,-158.387l155.594,155.597Zm-316.962,406.06l158.575,-158.388l155.503,155.597l-158.387,158.387l-155.691,-155.596Zm-26.129,63.149l137.18,137.09l-48.177,48.176l-89.003,-185.266Zm-82.129,-171.5l-59.519,-124.255l126.207,-126.114l155.504,155.69l-158.387,158.387l-63.805,-63.708Zm250.745,668.797l-441.96,-255.949l-30.04,-728.414l472,984.363Zm374.716,-766.359l-158.388,158.573l-155.691,-155.69l158.388,-158.387l155.691,155.504Zm267.201,178.011l-200.331,-200.147l-400.385,-400.571l-0.188,-0.093l-199.962,-200.054c-12.369,-12.369 -32.55,-12.369 -44.919,0l-264.97,265.157l-12.557,-25.855l-8.367,-10.231l-3.071,-2.232l-9.486,-4.092l-2.14,-0.837l-1.487,-0.186l-1.771,-0.093l-8.555,0.558l-1.112,0.093l-0.562,0.186l-9.02,3.999l-1.3,1.209l-3.815,2.976l-732.413,732.227l-151.133,82.216c-8.838,4.744 -14.696,13.393 -16.184,23.159c-1.396,9.858 1.675,19.902 8.93,26.878l969.483,969.575l22.32,9.301l4.558,-0.28c9.764,-1.488 18.506,-7.533 23.252,-16.182l82.026,-151.319l416.2,-416.197l2.884,-3.999l2.599,-3.441l1.959,-5.301l1.112,-4l0.188,-5.58l0.187,-4.092l-2.98,-9.579l-21.758,-45.759l562.768,-562.772c12.37,-12.276 12.37,-32.272 0,-44.642Z" style="fill:#0b0b16;fill-rule:nonzero;"/></g></g></svg>