<?xml version="1.0" encoding="UTF-8" standalone="no"?><!DOCTYPE svg PUBLIC "-//W3C//DTD SVG 1.1//EN" "http://www.w3.org/Graphics/SVG/1.1/DTD/svg11.dtd"><svg width="100%" height="100%" viewBox="0 0 2084 2084" version="1.1" xmlns="http://www.w3.org/2000/svg" xmlns:xlink="http://www.w3.org/1999/xlink" xml:space="preserve" xmlns:serif="http://www.serif.com/" style="fill-rule:evenodd;clip-rule:evenodd;stroke-linejoin:round;stroke-miterlimit:2;"><rect id="画板1" x="0" y="0" width="2083.33" height="2083.33" style="fill:none;"/><g id="画板11" serif:id="画板1"><g><path d="M1798.5,1902.8c-0,64.616 -52.605,117.314 -117.218,117.314l-1227.04,0c-64.612,0 -117.126,-52.698 -117.126,-117.314l-0,-871.933l1461.38,-0l-0,871.933Zm-1567.43,-1248.27l61.914,-24.859l159.582,68.432l-185.649,74.113l-41.711,-104.185l5.864,-13.501Zm1504.77,-470.184l-247.38,99.065l-4.472,-1.955l-155.116,-66.385l361.347,-144.779l45.621,114.054Zm-489.924,63.965l4.472,1.861l155.116,66.385l-393.466,157.441l-159.582,-68.339l393.46,-157.348Zm-476.422,190.587l159.491,68.432l-393.369,157.441l-159.582,-68.246l393.46,-157.627Zm-415.526,528.839l-66.852,0l-10.428,-10.428l0,-112.284l199.992,-0l-122.712,122.712Zm212.09,-122.712l423.817,-0l-122.803,122.712l-423.727,0l122.713,-122.712Zm513.11,-0l423.817,-0l-122.622,122.712l-423.913,0l122.718,-122.712Zm513.195,-0l266.565,-0l-0,122.712l-389.187,0l122.622,-122.712Zm298.127,-63.219l-1477.22,-0l133.606,-53.443l476.519,-190.774l476.325,-190.773l288.91,-115.544c16.201,-6.518 24.112,-24.952 17.593,-41.06l-69.084,-172.618l-16.946,-17.411l-24.112,-0.186l-461.522,184.722l-952.844,381.547l-74.114,29.514c-37.711,15.176 -56.146,58.099 -41.058,95.807l47.576,118.803l-0.654,2.979l0,143.94c0,36.033 26.072,66.106 60.424,72.25l0,873.238c0,99.438 80.911,180.533 180.347,180.533l1227.04,0c99.437,0 180.438,-81.095 180.438,-180.533l0,-871.933l28.772,-0c17.503,-0 31.562,-14.059 31.562,-31.564l-0,-185.931c-0,-17.504 -14.059,-31.563 -31.562,-31.563Z" style="fill:#0b0b16;fill-rule:nonzero;"/><path d="M1225.72,1762.49l-315.999,0l-0,-205.392l315.999,0l-0,205.392Zm-695.127,-537.128c-17.412,0 -31.562,14.059 -31.562,31.564c-0,17.41 14.15,31.563 31.562,31.563l505.563,-0l-0,205.39l-505.563,0c-17.412,0 -31.562,14.153 -31.562,31.564c-0,17.504 14.15,31.655 31.562,31.655l315.999,0l-0,205.392l-315.999,0c-17.412,0 -31.562,14.152 -31.562,31.562c-0,17.504 14.15,31.657 31.562,31.657l1074.44,0c17.412,0 31.568,-14.153 31.568,-31.657c-0,-17.41 -14.156,-31.562 -31.568,-31.562l-315.999,0l0,-205.392l315.999,0c17.412,0 31.568,-14.151 31.568,-31.655c-0,-17.411 -14.156,-31.564 -31.568,-31.564l-505.654,0l0,-205.39l505.654,-0c17.412,-0 31.568,-14.153 31.568,-31.563c-0,-17.505 -14.156,-31.564 -31.568,-31.564l-1074.44,0Z" style="fill:#0b0b16;fill-rule:nonzero;"/></g></g></svg>