<?xml version="1.0" encoding="UTF-8" standalone="no"?><!DOCTYPE svg PUBLIC "-//W3C//DTD SVG 1.1//EN" "http://www.w3.org/Graphics/SVG/1.1/DTD/svg11.dtd"><svg width="100%" height="100%" viewBox="0 0 2084 2084" version="1.1" xmlns="http://www.w3.org/2000/svg" xmlns:xlink="http://www.w3.org/1999/xlink" xml:space="preserve" xmlns:serif="http://www.serif.com/" style="fill-rule:evenodd;clip-rule:evenodd;stroke-linejoin:round;stroke-miterlimit:2;"><rect id="画板1" x="0" y="0" width="2083.33" height="2083.33" style="fill:none;"/><g id="画板11" serif:id="画板1"><g><path d="M1176.99,1834.43l-270.831,-0c15.628,-54.411 70.498,-94.777 135.506,-94.777c65.015,-0 119.885,40.366 135.325,94.777Zm-551.148,171.592l250.929,-108.44l329.704,-0l250.838,108.44l-831.471,0Zm282.27,-1010.97l-0,-41.201l266.926,0l-0,41.201c-0,60.922 -49.665,110.49 -110.49,110.49l-45.947,-0c-60.825,-0 -110.489,-49.568 -110.489,-110.49Zm497.396,-788.221l-127.701,182.288c-30.5,-12.926 -65.009,-15.435 -99.698,-7.068c-37.483,9.117 -71.06,30.881 -97.19,60.825l-699.035,0l-267.017,-236.045l1290.64,0Zm562.774,0l-267.016,236.045l-358.819,0l-12.835,-17.484l153.087,-218.561l485.583,0Zm-698.842,249.346c45.481,31.715 51.804,101.566 14.231,155.414c-18.79,26.788 -45.294,45.385 -74.687,52.548c-27.81,6.699 -54.87,2.141 -76.266,-12.744c-21.48,-15.065 -34.877,-39.06 -38.22,-67.517c-3.259,-30.047 5.296,-61.296 23.995,-87.988c18.693,-26.691 45.294,-45.384 74.494,-52.452c8.56,-2.14 16.928,-3.071 25.113,-3.071c18.693,0 36.456,5.302 51.34,15.81Zm-380.862,434.431l-435.078,-384.579l589.84,-0c-10.042,27.344 -14.6,56.175 -11.438,84.729c4.002,35.621 18.136,67.058 40.644,91.331l-56.828,81.005c-10.042,14.419 -6.602,34.043 7.816,43.994l17.95,5.767c10.042,0 19.811,-4.649 25.948,-13.391l57.106,-81.38c18.506,7.811 38.505,12.273 59.151,12.273c13.3,0 26.691,-1.578 40.366,-4.927c44.363,-10.791 83.702,-38.414 111.137,-77.662c30.881,-43.988 40.923,-95.327 32.743,-141.739l261.902,-0l-435.175,384.579l-306.084,0Zm349.612,104.444l-0,-58.594l834.355,-737.534c9.763,-8.742 13.482,-22.508 8.742,-34.877c-4.746,-12.279 -16.559,-20.368 -29.672,-20.368l-524.735,-0l55.898,-79.705c10.041,-14.419 6.601,-33.947 -7.817,-44.085c-14.135,-10.048 -33.759,-6.511 -43.897,7.72l-81.193,116.07l-1418.34,-0c-13.113,-0 -24.926,8.089 -29.484,20.368c-4.649,12.369 -1.209,26.135 8.555,34.877l834.542,737.534l-0,58.594c-0,92.915 73.194,168.715 164.9,173.177l-0,510.787c-89.566,13.301 -159.876,80.915 -170.015,165.553l-379.09,164.06c-13.857,5.858 -21.486,20.742 -18.324,35.343c2.884,14.696 15.809,25.204 30.881,25.204l1136.34,-0c14.975,-0 27.81,-10.508 30.881,-25.204c2.974,-14.601 -4.649,-29.485 -18.324,-35.343l-379.278,-164.06c-10.138,-84.638 -80.449,-152.252 -170.014,-165.553l-0,-510.787c91.705,-4.462 165.087,-80.262 165.087,-173.177Z" style="fill:#0b0b16;fill-rule:nonzero;"/></g></g></svg>