<?xml version="1.0" encoding="UTF-8" standalone="no"?><!DOCTYPE svg PUBLIC "-//W3C//DTD SVG 1.1//EN" "http://www.w3.org/Graphics/SVG/1.1/DTD/svg11.dtd"><svg width="100%" height="100%" viewBox="0 0 2084 2084" version="1.1" xmlns="http://www.w3.org/2000/svg" xmlns:xlink="http://www.w3.org/1999/xlink" xml:space="preserve" xmlns:serif="http://www.serif.com/" style="fill-rule:evenodd;clip-rule:evenodd;stroke-linejoin:round;stroke-miterlimit:2;"><rect id="画板1" x="0" y="0" width="2083.33" height="2083.33" style="fill:none;"/><clipPath id="_clip1"><rect id="画板11" serif:id="画板1" x="0" y="0" width="2083.33" height="2083.33"/></clipPath><g clip-path="url(#_clip1)"><g><path d="M1971.16,1165.33c-64.918,149.274 -191.684,270.461 -357.047,341.144c-75.056,32.087 -149.739,49.945 -222.563,56.456c6.232,-17.858 12.463,-35.808 17.578,-54.501c23.809,-86.032 34.411,-194.94 30.04,-306.732l-1.209,-4.743c-7.719,-111.236 -134.114,-234.375 -328.773,-327.009l108.071,-161.829l209.542,233.908c11.626,13.115 31.715,14.231 44.642,2.605c12.929,-11.626 14.044,-31.621 2.418,-44.643l-236.79,-264.414c-6.511,-7.254 -15.625,-11.16 -25.856,-10.416c-9.581,0.65 -18.508,5.952 -23.903,13.95l-136.626,204.798c-54.035,-22.508 -112.07,-42.782 -173.64,-59.803c-62.035,-17.113 -124.163,-30.226 -184.801,-38.967c16.088,-255.022 129.555,-498.233 344.305,-590.029c60.175,-25.67 123.418,-37.48 187.686,-37.48c296.78,-0 613.743,251.207 736.974,539.618c74.963,175.129 78.404,350.816 9.952,508.087Zm-931.822,729.815c-143.879,76.356 -318.45,91.981 -491.812,44.084c-370.627,-102.213 -559.056,-429.034 -458.146,-794.823c13.58,-49.015 34.506,-99.889 60.919,-151.693c14.323,35.249 39.807,71.707 76.265,108.165c5.208,5.208 15.811,28.647 22.88,43.99c15.903,34.693 30.97,67.524 52.734,83.427c27.9,20.555 56.733,14.044 77.844,9.301c16.648,-3.812 26.507,-5.58 35.808,-0.65c49.385,26.972 103.236,51.895 157.086,72.266c4.651,3.624 14.51,20.646 20.461,30.878c15.253,26.319 29.761,51.151 53.292,58.962c30.321,9.954 52.827,-13.206 67.616,-28.644l11.16,-10.882c36.458,9.208 72.638,12.091 107.701,14.881c21.111,1.581 41.015,3.256 59.987,6.046c15.905,2.512 35.25,25.763 52.363,46.315c24.554,29.578 52.268,62.965 91.982,63.524l1.023,0c35.621,0 67.058,-27.994 97.376,-55.06c13.858,-12.369 36.924,-33.015 45.016,-34.224c81.38,3.627 147.599,-23.16 192.614,-62.593c-4.279,55.801 -12.742,108.165 -25.112,153.365c-50.688,183.408 -157.551,323.007 -309.057,403.365Zm-40.457,-859.835c128.998,57.476 189.917,117.65 183.221,141.645c-2.14,7.814 -19.904,22.974 -72.452,30.135c-15.903,1.952 -31.807,9.116 -48.641,16.368c-18.043,7.814 -38.691,16.65 -52.549,16.184l-15.345,-10.601c-12.742,-10.138 -28.645,-22.879 -50.875,-25.763c-16.554,-2.14 -33.295,-4.743 -50.222,-7.627l106.863,-160.341Zm-173.641,146.669c-19.067,-4.371 -38.039,-9.023 -57.385,-14.322l-21.483,-2.884c-14.789,0 -28.554,3.628 -40.459,6.696c-10.323,2.512 -22.134,5.674 -27.343,3.815l-22.135,-22.324c-12.649,-15.253 -25.762,-30.877 -43.991,-38.317c-166.015,-68.638 -224.516,-134.949 -218.935,-155.133c3.161,-11.625 39.713,-30.321 124.348,-31.621c84.822,-1.49 195.776,14.881 303.755,44.641c43.247,11.997 82.311,24.926 117.652,38.413l-114.024,171.036Zm-412.014,-381.879c127.231,-14.79 290.177,1.581 446.984,44.919c55.711,15.253 107.142,33.112 154.854,52.27l-40.086,59.988c-43.526,-17.112 -89.657,-32.644 -136.532,-45.572c-115.233,-31.809 -229.258,-48.734 -321.612,-47.059c-108.444,1.672 -170.386,27.994 -184.244,77.937c-27.808,100.91 169.549,194.753 255.671,230.373l19.718,20.462c13.393,15.996 28.646,34.227 50.036,41.666c23.16,7.998 45.667,2.14 63.803,-2.603c11.16,-2.884 22.786,-5.767 29.297,-4.093c26.599,7.442 53.012,13.766 79.147,19.346l0.466,0.094c35.155,7.533 69.754,13.763 103.422,18.134l19.624,12.463c12.927,10.232 29.017,23.16 51.431,24.182l4.465,-0c27.53,-0 53.571,-11.254 76.543,-21.205c12.183,-5.302 24.646,-10.788 31.807,-11.813c71.709,-9.67 113.747,-35.155 124.907,-75.8c19.903,-71.891 -74.777,-149.831 -208.703,-211.399l39.805,-59.709c209.449,96.911 322.172,223.025 299.013,306.916c-15.439,55.989 -87.146,113.189 -189.267,108.259c-31.714,-1.394 -60.267,23.623 -90.028,50.224c-16.37,14.6 -43.713,39.154 -55.152,39.154l-0.186,-0c-10.603,-0.185 -30.134,-23.623 -44.364,-40.829c-24.275,-29.297 -51.805,-62.315 -91.425,-68.358c-21.205,-3.255 -43.247,-4.93 -64.546,-6.698c-34.225,-2.603 -69.66,-5.486 -102.492,-14.509l-12.741,-1.672c-23.623,-0 -41.574,18.506 -54.036,31.434l-5.859,6.046l-14.974,-24.367c-14.417,-24.926 -28.088,-48.362 -49.48,-56.548c-54.129,-20.833 -105.467,-44.456 -152.435,-70.219c-30.786,-16.741 -59.338,-10.23 -80.079,-5.487c-16.554,3.812 -22.32,4.556 -26.413,1.488c-8.556,-6.418 -24.181,-40.551 -32.644,-58.872c-12.092,-26.507 -22.508,-49.293 -35.621,-62.315c-55.618,-55.801 -79.985,-108.815 -68.731,-149.738c14.88,-53.851 91.703,-92.821 210.657,-106.49Zm1606.11,-167.596c-164.806,-385.603 -630.577,-696.425 -1007.62,-535.34c-240.326,102.678 -366.442,364.208 -383.927,640.156c-78.868,-7.627 -154.016,-7.811 -221.817,-0c-126.022,14.694 -212.146,56.363 -249.07,118.303l-1.301,1.396c-60.267,92.353 -103.05,183.499 -127.045,270.644c-109.096,395.182 102.119,762.086 502.228,872.485c71.335,19.624 143.044,29.481 213.076,29.481c115.513,0 226.654,-26.504 325.053,-78.68c132.162,-70.126 232.794,-180.803 296.782,-323.01c89.47,-3.812 181.732,-24.273 273.342,-63.337c180.151,-77.1 318.73,-210.006 390.065,-374.065c75.52,-173.642 72.08,-366.536 -9.765,-558.033Z" style="fill:#0b0b16;fill-rule:nonzero;"/><path d="M1178.1,231.744c-17.485,-0 -31.715,14.044 -31.715,31.53c-0,17.391 14.23,31.528 31.715,31.528c17.392,0 31.528,-14.137 31.528,-31.528c-0,-17.486 -14.136,-31.53 -31.528,-31.53Z" style="fill:#0b0b16;fill-rule:nonzero;"/><path d="M1020.18,326.424c-17.486,-0 -31.623,14.231 -31.623,31.528c-0,17.58 14.137,31.624 31.623,31.624c17.392,-0 31.528,-14.044 31.528,-31.624c-0,-17.297 -14.136,-31.528 -31.528,-31.528Z" style="fill:#0b0b16;fill-rule:nonzero;"/><path d="M1178.1,389.576c-17.485,-0 -31.715,14.044 -31.715,31.528c-0,17.393 14.23,31.621 31.715,31.621c17.392,0 31.528,-14.228 31.528,-31.621c-0,-17.484 -14.136,-31.528 -31.528,-31.528Z" style="fill:#0b0b16;fill-rule:nonzero;"/></g></g></svg>