<?xml version="1.0" encoding="UTF-8" standalone="no"?><!DOCTYPE svg PUBLIC "-//W3C//DTD SVG 1.1//EN" "http://www.w3.org/Graphics/SVG/1.1/DTD/svg11.dtd"><svg width="100%" height="100%" viewBox="0 0 2084 2084" version="1.1" xmlns="http://www.w3.org/2000/svg" xmlns:xlink="http://www.w3.org/1999/xlink" xml:space="preserve" xmlns:serif="http://www.serif.com/" style="fill-rule:evenodd;clip-rule:evenodd;stroke-linejoin:round;stroke-miterlimit:2;"><rect id="画板1" x="0" y="0" width="2083.33" height="2083.33" style="fill:none;"/><clipPath id="_clip1"><rect id="画板11" serif:id="画板1" x="0" y="0" width="2083.33" height="2083.33"/></clipPath><g clip-path="url(#_clip1)"><path d="M1297.54,1840.78l-859.754,0c-48.825,-53.758 -84.077,-117.007 -100.817,-186.666l-179.877,-753.912l1420.86,0l-179.786,753.912c-16.553,69.659 -51.799,132.908 -100.63,186.666Zm186.847,179.502l-1233.73,-0c-70.595,-0 -130.024,-49.949 -144.346,-116.355l1522.7,0c-14.509,66.406 -73.944,116.355 -144.63,116.355Zm-1188.43,-1211.69c-0,-71.804 35.246,-148.064 85.752,-185.456c22.508,-16.741 46.503,-25.108 71.707,-25.108c11.995,-0 24.364,1.856 36.734,5.671c345.612,105.285 537.767,55.336 707.318,11.251c14.135,-3.627 28.088,-7.346 42.132,-10.786c47.713,-11.904 86.586,8.09 110.956,26.97c50.687,39.714 84.821,110.956 84.821,177.549c-0,15.628 -12.744,28.463 -28.366,28.463l-1082.78,-0c-15.622,-0 -28.27,-12.835 -28.27,-28.554Zm318.171,-469.869c23.627,-15.344 51.062,-15.809 83.521,-1.396c178.758,78.872 266.372,34.974 330.268,2.793l6.88,-3.446c24.558,-12.273 47.435,-11.438 69.943,2.515c50.13,31.063 89.566,120.816 89.566,204.337l-1.027,7.437l-11.626,2.883c-156.432,40.645 -333.521,86.127 -642.86,-1.862l-1.856,-8.554c-0,-76.732 26.504,-171.691 77.191,-204.707Zm277.067,-262.466c41.201,23.717 108.725,81.199 123.144,200.71l-7.63,3.162l-7.254,3.627c-54.127,27.254 -115.049,57.755 -244.511,8.742c83.333,-62.869 120.907,-161.364 136.251,-216.241Zm821.901,974.712l12.37,0.369c71.242,3.162 137.182,33.946 185.269,86.592l0,0.09c48.178,52.64 72.917,120.908 69.568,192.246c-3.259,71.333 -33.947,137.092 -86.592,185.173c-67.615,61.666 -270.09,96.634 -424.757,113.562l18.416,-76.732c66.127,-4.371 266.462,-22.224 332.215,-82.402c39.436,-35.899 62.318,-85.008 64.827,-138.301c2.419,-53.292 -16.184,-104.257 -52.083,-143.602c-35.808,-39.34 -85.008,-62.313 -138.301,-64.822c-39.713,-1.675 -77.753,8.089 -110.956,27.901l17.763,-74.501c34.877,-16.366 72.916,-25.573 112.261,-25.573Zm63.988,372.304c-38.318,35.065 -174.387,56.545 -272.883,64.453c1.487,-8.555 3.349,-17.672 4.933,-26.788l29.11,-121.277c15.622,-53.48 34.503,-99.336 54.78,-117.842c25.295,-23.16 57.85,-35.712 91.797,-35.712l6.324,0.182c36.552,1.675 69.942,17.393 94.681,44.272c24.461,26.879 37.205,61.757 35.621,98.122c-1.862,36.461 -17.484,70.033 -44.363,94.59Zm159.321,138.766c65.009,-59.526 102.958,-140.815 106.954,-228.985c4.002,-88.074 -26.504,-172.526 -86.121,-237.631c-59.338,-65.197 -140.718,-103.236 -228.798,-107.142c-37.852,-1.674 -74.682,3.35 -109.934,14.135l30.319,-126.396c2.14,-9.299 0,-19.25 -5.949,-26.879c-6.046,-7.533 -15.253,-11.995 -24.926,-11.995l-124.444,-0c2.884,-9.02 5.115,-18.512 5.115,-28.554c-0,-86.217 -42.876,-175.409 -109.191,-227.123c-40.548,-31.528 -86.495,-46.129 -132.255,-43.341c-1.578,-90.679 -42.314,-204.985 -119.323,-252.606c-19.625,-12.182 -40.18,-18.784 -61.013,-20.181c-26.601,-208.43 -191.128,-261.722 -198.383,-263.953c-8.929,-2.697 -18.324,-1.397 -25.953,3.44c-7.811,4.836 -13.113,12.744 -14.601,21.764c-0.187,1.862 -29.944,178.015 -160.53,239.027c-43.058,-6.88 -75.982,6.046 -97.747,20.181c-71.151,46.503 -103.888,157.925 -105.472,250.562c-45.941,-5.302 -90.304,6.602 -130.115,35.996c-66.684,49.381 -111.325,144.25 -111.325,236.325c0,9.951 1.953,19.443 4.928,28.463l-120.442,-0c-9.673,-0 -18.881,4.462 -24.745,11.995c-6.136,7.629 -8.18,17.58 -5.949,26.879l189.266,792.791c14.884,62.5 43.063,120.346 81.38,171.969l-285.899,0c-17.484,0 -31.625,14.135 -31.625,31.528c0,116.44 94.778,211.03 211.036,211.03l1233.73,0c116.446,0 211.127,-94.59 211.127,-211.03c-0,-17.393 -14.135,-31.528 -31.619,-31.528l-285.718,0c32.828,-44.459 58.316,-93.472 74.313,-146.208c151.97,-14.884 394.347,-50.783 483.913,-132.533Z" style="fill:#0b0b16;fill-rule:nonzero;"/></g></svg>