<?xml version="1.0" encoding="UTF-8" standalone="no"?><!DOCTYPE svg PUBLIC "-//W3C//DTD SVG 1.1//EN" "http://www.w3.org/Graphics/SVG/1.1/DTD/svg11.dtd"><svg width="100%" height="100%" viewBox="0 0 2084 2084" version="1.1" xmlns="http://www.w3.org/2000/svg" xmlns:xlink="http://www.w3.org/1999/xlink" xml:space="preserve" xmlns:serif="http://www.serif.com/" style="fill-rule:evenodd;clip-rule:evenodd;stroke-linejoin:round;stroke-miterlimit:2;"><rect id="画板1" x="0" y="0" width="2083.33" height="2083.33" style="fill:none;"/><clipPath id="_clip1"><rect id="画板11" serif:id="画板1" x="0" y="0" width="2083.33" height="2083.33"/></clipPath><g clip-path="url(#_clip1)"><g><path d="M1709.73,671.131l-1336.12,-0l-42.972,-310.171l1422.15,-0l-43.063,310.171Zm-75.987,889.788l-132.72,0l71.713,-826.636l165.826,0l-104.819,826.636Zm-91.888,417.317c-3.071,23.995 -24.926,42.041 -50.686,42.041l-898.996,0c-25.761,0 -47.622,-18.046 -50.687,-42.041l-45.39,-354.074l1091.14,0l-45.385,354.074Zm-781.433,-1243.95l35.712,826.636l-150.391,0l-71.894,-826.636l186.573,0Zm249.721,826.636l-150.766,0l-35.808,-826.636l186.574,0l-0,826.636Zm499.344,-826.636l-71.889,826.636l-150.578,0l35.899,-826.636l186.568,0Zm-249.72,0l-35.803,826.636l-150.765,0l-0,-826.636l186.568,0Zm-914.987,0l165.825,0l71.804,826.636l-132.816,0l-104.813,-826.636Zm-73.201,-490.699c0,-17.393 14.141,-31.528 31.625,-31.528l1476.93,0c17.484,0 31.619,14.135 31.619,31.528l0,54.223l-1540.18,0l0,-54.223Zm158.208,-149.551c5.296,-18.137 22.133,-30.881 41.014,-30.881l1141.74,0c18.88,0 35.808,12.744 41.013,30.881l0,0.091l15.815,54.78l-1255.4,-0l15.815,-54.871Zm1350.35,54.871l-45.015,-0l-20.834,-72.264c-13.113,-45.106 -54.875,-76.64 -101.747,-76.64l-1141.74,0c-46.878,0 -88.635,31.534 -101.657,76.64l-20.924,72.264l-45.016,-0c-52.361,-0 -94.868,42.506 -94.868,94.68l0,85.751c0,17.484 14.141,31.625 31.625,31.625l26.879,-0l43.062,310.171l-0.931,-0c-9.116,-0 -17.58,3.905 -23.626,10.791c-5.949,6.698 -8.833,15.809 -7.623,24.829l112.817,889.789c2.043,15.718 15.253,27.622 31.25,27.622l10.694,0l46.316,362.169c7.067,55.245 55.989,97.002 113.374,97.002l898.996,0c57.385,0 106.306,-41.757 113.186,-97.002l46.503,-362.169l10.695,0c15.815,0 29.297,-11.904 31.249,-27.622l112.818,-889.789c1.3,-9.02 -1.675,-18.131 -7.624,-24.829c-6.046,-6.886 -14.509,-10.791 -23.626,-10.791l-1.118,-0l43.25,-310.171l26.879,-0c17.484,-0 31.624,-14.141 31.624,-31.625l0,-85.751c0,-52.174 -42.506,-94.68 -94.868,-94.68Z" style="fill:#0b0b16;fill-rule:nonzero;"/></g></g></svg>