<?xml version="1.0" encoding="UTF-8" standalone="no"?><!DOCTYPE svg PUBLIC "-//W3C//DTD SVG 1.1//EN" "http://www.w3.org/Graphics/SVG/1.1/DTD/svg11.dtd"><svg width="100%" height="100%" viewBox="0 0 2084 2084" version="1.1" xmlns="http://www.w3.org/2000/svg" xmlns:xlink="http://www.w3.org/1999/xlink" xml:space="preserve" xmlns:serif="http://www.serif.com/" style="fill-rule:evenodd;clip-rule:evenodd;stroke-linejoin:round;stroke-miterlimit:2;"><rect id="画板1" x="0" y="0" width="2083.33" height="2083.33" style="fill:none;"/><g id="画板11" serif:id="画板1"><g><path d="M1830.43,1735.86c-94.679,130.862 -217.822,224.611 -346.447,263.95c-101.095,30.88 -198.005,25.669 -279.663,-12.835c180.987,-89.191 318.729,-298.827 317.333,-497.672c-1.21,-189.728 140.529,-390.526 319.097,-456.653c177.831,142.761 174.947,447.355 -10.32,703.21Zm-801.988,39.157c44.738,-26.135 84.638,-60.268 117.375,-103.422c99.516,-130.856 105.84,-301.892 33.39,-465.491c90.212,-111.142 201.076,-191.5 317.145,-226.933c44.272,-13.578 87.987,-20.277 129.835,-20.277c53.757,0 104.353,11.166 150.299,32.925c-181.265,89.008 -319.195,298.826 -317.895,497.95c1.209,189.637 -140.62,390.435 -319.097,456.562c-54.592,-43.71 -91.053,-103.047 -111.052,-171.314Zm-646.381,-156.339c-128.535,-97.66 -219.309,-222.936 -255.764,-352.584c-28.366,-101.656 -20.93,-198.476 19.527,-279.203c84.916,182.94 291.203,325.609 490.139,328.958c189.547,3.162 387.087,149.737 448.939,329.799c-146.95,174.384 -451.17,164.337 -702.841,-26.97Zm99.142,-821.05l1.396,0c134.575,0.369 279.481,54.501 408.107,152.246c235.113,178.665 329.792,444.102 236.322,631.691c-85.001,-182.849 -291.198,-325.518 -490.043,-328.862c-189.728,-3.167 -387.177,-149.743 -448.933,-329.798c67.802,-80.636 170.939,-125.277 293.151,-125.277Zm269.251,-129.556c-10.978,-161.181 23.433,-311.94 97.189,-424.666c57.754,-88.35 135.506,-146.478 223.028,-169.083c-81.942,184.245 -53.389,433.499 74.868,585.376c85.376,101.1 119.884,250.462 101.191,387.739c-34.695,28.831 -67.432,61.664 -98.307,97.467c-50.596,-88.447 -124.255,-172.892 -219.491,-245.251c-50.414,-38.414 -103.422,-70.311 -157.366,-95.702c-10.513,-43.25 -17.768,-88.543 -21.112,-135.88Zm396.385,-604.721l5.767,-0.188c225.259,0 414.896,235.119 436.195,547.524c7.164,104.069 -5.302,203.403 -34.502,291.197c-25.301,3.815 -50.692,9.021 -76.453,16.928c-56.641,17.297 -111.698,44.55 -164.433,79.427c5.023,-137.743 -35.343,-279.39 -119.606,-379.276c-122.58,-144.997 -142.113,-390.435 -46.968,-555.612Zm718.559,907.822c-70.31,-50.874 -153.92,-75.8 -243.395,-74.959c26.135,-89.1 36.83,-187.595 29.853,-289.898c-25.016,-363.835 -250.644,-624.067 -525.941,-605.374c-131.697,9.026 -249.35,82.867 -331.098,207.962c-81.192,124.067 -119.14,288.688 -107.236,463.539c2.327,35.433 7.532,69.288 13.765,102.49c-73.012,-26.135 -146.949,-40.179 -218.656,-40.366c-150.668,-0.187 -275.576,57.294 -355.649,162.39c-79.893,105.187 -101.748,242.368 -61.478,386.246c40.082,142.676 138.952,279.765 278.272,385.787c146.019,110.863 305.429,166.386 449.217,166.386c62.311,0 121.461,-11.064 175.406,-31.897c26.504,81.749 74.959,152.525 146.388,204.329l0.187,0.187c69.01,49.852 150.855,75.334 238.649,75.334c48.087,0 98.029,-7.623 148.625,-23.064c141.926,-43.437 276.597,-145.462 379.275,-287.388c213.911,-295.569 206.934,-640.154 -16.184,-801.704Z" style="fill:#0b0b16;fill-rule:nonzero;"/></g></g></svg>