<?xml version="1.0" encoding="UTF-8" standalone="no"?><!DOCTYPE svg PUBLIC "-//W3C//DTD SVG 1.1//EN" "http://www.w3.org/Graphics/SVG/1.1/DTD/svg11.dtd"><svg width="100%" height="100%" viewBox="0 0 2084 2084" version="1.1" xmlns="http://www.w3.org/2000/svg" xmlns:xlink="http://www.w3.org/1999/xlink" xml:space="preserve" xmlns:serif="http://www.serif.com/" style="fill-rule:evenodd;clip-rule:evenodd;stroke-linejoin:round;stroke-miterlimit:2;"><rect id="画板1" x="0" y="0" width="2083.33" height="2083.33" style="fill:none;"/><clipPath id="_clip1"><rect id="画板11" serif:id="画板1" x="0" y="0" width="2083.33" height="2083.33"/></clipPath><g clip-path="url(#_clip1)"><g><path d="M455.384,309.074c52.177,-0 94.68,42.508 94.68,94.775c-0,52.183 -42.503,94.686 -94.68,94.686c-52.273,-0 -94.594,-42.503 -94.594,-94.686c0,-52.267 42.321,-94.775 94.594,-94.775Zm0,252.616c87.056,0 157.835,-70.779 157.835,-157.841c0,-87.055 -70.779,-157.835 -157.835,-157.835c-86.97,0 -157.84,70.78 -157.84,157.835c-0,87.062 70.87,157.841 157.84,157.841Z" style="fill:#0b0b16;fill-rule:nonzero;"/><path d="M455.384,782.686c52.177,0 94.68,42.503 94.68,94.68c-0,52.273 -42.503,94.685 -94.68,94.685c-52.273,0 -94.594,-42.412 -94.594,-94.685c0,-52.177 42.321,-94.68 94.594,-94.68Zm0,252.521c87.056,-0 157.835,-70.877 157.835,-157.841c0,-87.055 -70.779,-157.932 -157.835,-157.932c-86.97,0 -157.84,70.877 -157.84,157.932c-0,86.964 70.87,157.841 157.84,157.841Z" style="fill:#0b0b16;fill-rule:nonzero;"/><path d="M629.03,1221.51l-347.296,-0c-17.491,-0 -31.627,14.141 -31.627,31.438c0,17.485 14.136,31.626 31.627,31.626l347.296,0c17.49,0 31.626,-14.141 31.626,-31.626c-0,-17.297 -14.136,-31.438 -31.626,-31.438Z" style="fill:#0b0b16;fill-rule:nonzero;"/><path d="M629.03,1410.88l-347.296,-0c-17.491,-0 -31.627,14.135 -31.627,31.53c0,17.484 14.136,31.626 31.627,31.626l347.296,-0c17.49,-0 31.626,-14.142 31.626,-31.626c-0,-17.395 -14.136,-31.53 -31.626,-31.53Z" style="fill:#0b0b16;fill-rule:nonzero;"/><path d="M629.03,1600.34l-347.296,0c-17.491,0 -31.627,14.141 -31.627,31.626c0,17.394 14.136,31.439 31.627,31.439l347.296,-0c17.49,-0 31.626,-14.045 31.626,-31.439c-0,-17.485 -14.136,-31.626 -31.626,-31.626Z" style="fill:#0b0b16;fill-rule:nonzero;"/><path d="M629.03,1789.71l-347.296,0c-17.491,0 -31.627,14.136 -31.627,31.717c0,17.298 14.136,31.439 31.627,31.439l347.296,-0c17.49,-0 31.626,-14.141 31.626,-31.439c-0,-17.581 -14.136,-31.717 -31.626,-31.717Z" style="fill:#0b0b16;fill-rule:nonzero;"/><path d="M1283.92,668.745l-0,-136.631l363.021,-0l-0,136.631c-0,34.879 -28.368,63.247 -63.059,63.247l-236.716,-0c-34.879,-0 -63.246,-28.368 -63.246,-63.247Zm-373.064,-605.686l1077.71,0c17.49,0 31.626,14.232 31.626,31.626l-0,342.834c-0,17.394 -14.136,31.626 -31.626,31.626l-1077.71,0l0,-406.086Zm0,1789.8l973.26,-0c75.06,-0 136.076,61.015 136.076,136.075c-0,17.298 -13.954,31.252 -31.252,31.252l-1078.08,-0l0,-167.327Zm250.477,-330.839l-0,-267.592l608.382,-0l0,267.592c0,147.605 -120.265,267.683 -267.961,267.683l-72.642,0c-147.702,0 -267.779,-120.078 -267.779,-267.683Zm733.575,-222.387c22.509,-0 45.387,6.046 65.943,18.881l0.187,0c28.459,17.673 48.271,45.484 55.901,78.126c7.624,32.557 2.044,66.227 -15.816,94.685c-20.46,33.204 -101.566,74.782 -177.46,106.402c5.858,-24.274 9.111,-49.758 9.111,-75.707l0,-205.089c19.069,-10.883 40.091,-17.298 62.134,-17.298Zm-1831.75,499.556l-0,-1515.14c-0,-121.752 99.056,-220.996 220.899,-220.996l563.74,0l-0,1957.13l-563.74,-0c-121.843,-0 -220.899,-99.057 -220.899,-220.997Zm1646.94,-1130.45l0,-136.631l278.47,-0c52.182,-0 94.685,-42.413 94.685,-94.595l-0,-342.834c-0,-52.273 -42.503,-94.685 -94.685,-94.685l-1704.51,-0c-156.722,-0 -284.055,127.424 -284.055,284.055l-0,1515.14c-0,156.723 127.333,284.147 284.055,284.147l1704.88,-0c51.995,-0 94.311,-42.316 94.311,-94.402c-0,-109.757 -89.383,-199.231 -199.135,-199.231l-188.717,0c40.925,-29.576 74.685,-67.895 98.5,-112.544c70.592,-25.949 220.525,-87.43 260.984,-152.442c26.602,-42.878 34.879,-93.38 23.44,-142.491c-11.439,-49.02 -41.39,-90.779 -84.08,-117.285c-42.878,-26.698 -93.567,-35.066 -142.4,-23.627l-19.069,6.602l0,-25.109c0,-17.394 -14.232,-31.626 -31.62,-31.626l-671.26,0c-17.576,0 -31.621,14.232 -31.621,31.626l0,299.213c0,110.03 54.317,207.412 137.376,267.683l-324.793,0l0,-1257.59l310.095,-0l0,136.631c0,69.667 56.645,126.215 126.215,126.215l236.716,-0c69.57,-0 126.214,-56.548 126.214,-126.215Z" style="fill:#0b0b16;fill-rule:nonzero;"/><path d="M1566.76,839.887c-11.814,-11.626 -32.835,-11.626 -44.831,0c-5.677,5.58 -9.117,13.761 -9.117,22.322l9.117,22.134l22.509,9.486l22.322,-9.486l9.117,-22.134c-0,-8.561 -3.259,-16.373 -9.117,-22.322Z" style="fill:#0b0b16;fill-rule:nonzero;"/><path d="M1544.44,930.104c-17.394,0 -31.626,14.232 -31.626,31.626c0,17.298 14.232,31.433 31.626,31.433c17.298,0 31.439,-14.135 31.439,-31.433c-0,-17.394 -14.141,-31.626 -31.439,-31.626Z" style="fill:#0b0b16;fill-rule:nonzero;"/><path d="M1521.93,1038.65c-5.677,6.046 -9.117,13.954 -9.117,22.509l9.117,21.952l22.509,9.674l22.322,-9.674l9.117,-21.952c-0,-8.555 -3.259,-16.463 -9.117,-22.509c-11.814,-11.626 -33.204,-11.626 -44.831,-0Z" style="fill:#0b0b16;fill-rule:nonzero;"/><path d="M1408.92,839.887c-11.995,-11.626 -32.829,-11.626 -44.456,0c-6.046,5.58 -9.486,13.761 -9.486,22.322l9.486,22.134l22.135,9.486l22.321,-9.486l9.117,-22.134c0,-8.561 -3.162,-16.373 -9.117,-22.322Z" style="fill:#0b0b16;fill-rule:nonzero;"/><path d="M1386.6,930.104c-17.485,0 -31.621,13.858 -31.621,31.626c0,17.298 14.136,31.433 31.621,31.433c17.206,0 31.438,-14.135 31.438,-31.433c0,-17.768 -14.232,-31.626 -31.438,-31.626Z" style="fill:#0b0b16;fill-rule:nonzero;"/><path d="M1364.47,1038.65c-6.046,5.768 -9.486,13.954 -9.486,22.509l9.112,21.952l22.509,9.674l22.321,-9.674l9.117,-21.952c0,-8.555 -3.162,-16.463 -9.117,-22.509c-11.808,-11.626 -32.829,-11.626 -44.456,-0Z" style="fill:#0b0b16;fill-rule:nonzero;"/></g></g></svg>