<?xml version="1.0" encoding="UTF-8" standalone="no"?><!DOCTYPE svg PUBLIC "-//W3C//DTD SVG 1.1//EN" "http://www.w3.org/Graphics/SVG/1.1/DTD/svg11.dtd"><svg width="100%" height="100%" viewBox="0 0 2084 2084" version="1.1" xmlns="http://www.w3.org/2000/svg" xmlns:xlink="http://www.w3.org/1999/xlink" xml:space="preserve" xmlns:serif="http://www.serif.com/" style="fill-rule:evenodd;clip-rule:evenodd;stroke-linejoin:round;stroke-miterlimit:2;"><rect id="画板1" x="0" y="0" width="2083.33" height="2083.33" style="fill:none;"/><clipPath id="_clip1"><rect id="画板11" serif:id="画板1" x="0" y="0" width="2083.33" height="2083.33"/></clipPath><g clip-path="url(#_clip1)"><g><path d="M1216.2,1192.2c-11.998,2.696 -21.391,12.001 -24.09,24.092l-150.398,687.903l-150.489,-687.903c-2.605,-12.091 -12.091,-21.396 -24.089,-24.092l-454.634,-99.335c-1.303,-16.928 -2.14,-33.857 -2.14,-51.154c-0,-17.116 0.837,-34.135 2.14,-51.064l454.634,-99.425c11.998,-2.515 21.484,-12.001 24.089,-24.002l150.489,-687.902l150.398,687.902c2.699,12.001 12.092,21.487 24.09,24.002l687.903,150.489l-687.903,150.489Zm333.906,221.921l-129.376,-202.018l240.989,-52.642c-17.859,94.032 -56.922,180.349 -111.613,254.66Zm-323.674,-59.057l23.066,-105.38l105.38,-23.071l229.457,357.814l-357.903,-229.363Zm-66.967,306.001l52.642,-240.246l202.018,129.377c-74.407,54.6 -160.722,93.106 -254.66,110.869Zm-489.794,-110.96l201.646,-129.286l52.461,239.781c-93.663,-17.86 -179.884,-56.27 -254.107,-110.495Zm58.785,-323.492l105.473,23.071l23.066,105.38l-357.996,229.363l229.457,-357.814Zm-306.655,-67.152l240.896,52.642l-129.191,201.552c-54.692,-74.22 -93.754,-160.253 -111.705,-254.194Zm-242.479,-117.75l169.466,-37.019c-0.559,12.37 -1.581,24.649 -1.581,37.019c0,12.557 1.116,24.831 1.675,37.201l-169.56,-37.201Zm353.905,-372.228l129.47,201.927l-240.896,52.738c17.857,-93.941 56.735,-180.349 111.426,-254.665Zm323.768,58.971l-23.066,105.562l-105.473,22.975l-229.457,-357.9l357.996,229.363Zm67.061,-306.472l-52.739,240.802l-202.389,-129.654c74.316,-54.691 161.002,-93.289 255.128,-111.148Zm490.069,111.244l-202.018,129.558l-52.736,-240.984c94.032,17.854 180.347,56.922 254.754,111.426Zm-59.247,323.765l-105.38,-22.975l-23.066,-105.562l357.903,-229.363l-229.457,357.9Zm306.376,67.061l-240.618,-52.642l129.47,-201.836c54.597,74.225 93.382,160.633 111.148,254.478Zm397.339,86.873l-331.115,-72.454c-18.416,-121.565 -68.177,-232.9 -141.19,-325.354l129.098,-201.456c7.998,-12.466 6.324,-28.929 -4.278,-39.346c-10.511,-10.417 -26.88,-12.274 -39.343,-4.275l-201.275,129.002c-92.638,-73.011 -203.786,-123.24 -325.629,-141.559l-72.36,-330.56c-3.072,-14.51 -15.998,-24.927 -30.789,-24.927c-14.879,0 -27.714,10.417 -30.879,24.927l-72.361,330.372c-121.843,18.325 -233.363,68.458 -326.001,141.559l-200.902,-128.814c-12.464,-7.999 -28.833,-6.142 -39.344,4.275c-10.417,10.417 -12.276,26.88 -4.277,39.346l128.82,200.9c-73.201,92.641 -122.962,204.067 -141.378,326.001l-330.556,72.363c-14.511,3.162 -24.834,16.088 -24.834,30.786c0,14.788 10.323,27.714 24.834,30.877l330.744,72.459c18.415,121.656 68.548,232.804 141.655,325.161l-129.285,201.643c-7.999,12.558 -6.14,28.839 4.277,39.438l22.325,9.208l17.019,-5.115l202.018,-129.377c92.36,72.733 203.227,122.684 324.791,141.003l72.455,331.678c3.165,14.414 16,24.831 30.879,24.831c14.791,-0 27.717,-10.417 30.789,-24.831l72.454,-331.212c121.656,-18.416 232.803,-68.174 325.442,-141.094l201.368,129.002c12.463,7.998 28.832,6.324 39.343,-4.093c10.602,-10.599 12.276,-26.971 4.278,-39.438l-129.192,-201.455c73.107,-92.642 123.424,-203.789 141.749,-325.349l330.65,-72.459c14.511,-3.163 24.74,-16.089 24.74,-30.877c0,-14.698 -10.229,-27.624 -24.74,-30.786Z" style="fill:#0b0b16;fill-rule:nonzero;"/></g></g></svg>