<?xml version="1.0" encoding="UTF-8" standalone="no"?><!DOCTYPE svg PUBLIC "-//W3C//DTD SVG 1.1//EN" "http://www.w3.org/Graphics/SVG/1.1/DTD/svg11.dtd"><svg width="100%" height="100%" viewBox="0 0 2084 2084" version="1.1" xmlns="http://www.w3.org/2000/svg" xmlns:xlink="http://www.w3.org/1999/xlink" xml:space="preserve" xmlns:serif="http://www.serif.com/" style="fill-rule:evenodd;clip-rule:evenodd;stroke-linejoin:round;stroke-miterlimit:2;"><rect id="画板1" x="0" y="0" width="2083.33" height="2083.33" style="fill:none;"/><clipPath id="_clip1"><rect id="画板11" serif:id="画板1" x="0" y="0" width="2083.33" height="2083.33"/></clipPath><g clip-path="url(#_clip1)"><g><path d="M1041.67,2020.18c-539.527,-0 -978.515,-438.986 -978.515,-978.516c-0,-539.621 438.988,-978.515 978.515,-978.515c539.621,-0 978.516,438.894 978.516,978.515c-0,539.53 -438.895,978.516 -978.516,978.516Zm0,-2020.18c-574.404,0 -1041.67,467.17 -1041.67,1041.67c0,574.311 467.264,1041.58 1041.67,1041.58c574.405,0 1041.66,-467.266 1041.66,-1041.58c0,-574.498 -467.26,-1041.67 -1041.66,-1041.67Z" style="fill:#0b0b16;fill-rule:nonzero;"/><path d="M1162.48,1853.43l-90.679,-287.295c-4.186,-13.209 -16.371,-22.139 -30.134,-22.139c-13.766,0 -25.951,8.93 -30.041,22.139l-90.775,287.295c-356.027,-52.827 -638.207,-334.916 -690.94,-690.943l287.388,-90.775c13.113,-4.093 22.043,-16.275 22.043,-30.041c-0,-13.857 -8.93,-25.948 -22.043,-30.131l-287.388,-90.685c52.733,-356.027 334.913,-638.207 690.94,-690.937l90.775,287.295c4.09,13.113 16.275,22.042 30.041,22.042c13.763,-0 25.948,-8.929 30.134,-22.042l90.679,-287.295c356.027,52.73 638.207,334.91 690.943,690.937l-287.295,90.685c-13.209,4.183 -22.136,16.274 -22.136,30.131c0,13.766 8.927,25.948 22.136,30.041l287.295,90.775c-52.736,356.027 -334.916,638.116 -690.943,690.943Zm-177.548,6.693l56.735,-179.779l56.732,179.779c-18.693,1.305 -37.667,2.236 -56.732,2.236c-19.068,0 -37.948,-0.931 -56.735,-2.236Zm-763.95,-818.452c-0,-19.159 0.931,-38.039 2.14,-56.732l179.873,56.732l-179.873,56.732c-1.209,-18.88 -2.14,-37.664 -2.14,-56.732Zm877.417,-818.639l-56.732,179.876l-56.735,-179.876c18.787,-1.209 37.667,-2.14 56.735,-2.14c19.065,0 38.039,0.931 56.732,2.14Zm763.953,818.639c0,19.068 -0.837,37.852 -2.14,56.732l-179.782,-56.732l179.782,-56.732c1.303,18.693 2.14,37.573 2.14,56.732Zm-820.685,-883.926c-487.353,0 -883.838,396.485 -883.838,883.926c0,487.26 396.485,883.744 883.838,883.744c487.351,0 883.835,-396.484 883.835,-883.744c0,-487.441 -396.484,-883.926 -883.835,-883.926Z" style="fill:#0b0b16;fill-rule:nonzero;"/><path d="M1178.39,1133.65l-228.797,-228.7l466.239,-237.539l-237.442,466.239Zm-510.883,282.18l237.539,-466.239l228.7,228.7l-466.239,237.539Zm806.269,-848.679l-591.519,301.338l-1.859,1.487l-5.58,4.746l-6.324,7.442l-301.341,591.517c-6.23,12.182 -3.906,27.066 5.767,36.642l22.321,9.208l14.325,-3.44l591.516,-301.339l1.953,-1.583l5.489,-4.74l4.743,-5.49l1.675,-1.862l301.338,-591.516c6.14,-12.182 3.812,-26.97 -5.861,-36.643c-9.579,-9.764 -24.458,-12.182 -36.643,-5.767Z" style="fill:#0b0b16;fill-rule:nonzero;"/></g></g></svg>