<?xml version="1.0" encoding="UTF-8" standalone="no"?><!DOCTYPE svg PUBLIC "-//W3C//DTD SVG 1.1//EN" "http://www.w3.org/Graphics/SVG/1.1/DTD/svg11.dtd"><svg width="100%" height="100%" viewBox="0 0 2084 2084" version="1.1" xmlns="http://www.w3.org/2000/svg" xmlns:xlink="http://www.w3.org/1999/xlink" xml:space="preserve" xmlns:serif="http://www.serif.com/" style="fill-rule:evenodd;clip-rule:evenodd;stroke-linejoin:round;stroke-miterlimit:2;"><rect id="画板1" x="0" y="0" width="2083.33" height="2083.33" style="fill:none;"/><clipPath id="_clip1"><rect id="画板11" serif:id="画板1" x="0" y="0" width="2083.33" height="2083.33"/></clipPath><g clip-path="url(#_clip1)"><g><path d="M585.555,873.433c7.067,-15.904 -0.097,-34.69 -15.997,-41.758c-15.996,-7.068 -34.597,0.186 -41.761,16.089c-7.067,15.903 0.097,34.597 16.093,41.665c15.899,7.068 34.501,-0.186 41.665,-15.996Z" style="fill:#0b0b16;fill-rule:nonzero;"/><path d="M492.643,1004.85c-15.905,-7.161 -34.689,0.093 -41.756,15.904c-7.067,15.996 0.091,34.596 16.087,41.758c15.906,7.161 34.598,-0.093 41.665,-16.09c7.067,-15.81 -0.187,-34.504 -15.996,-41.572Z" style="fill:#0b0b16;fill-rule:nonzero;"/><path d="M758.629,950.346c7.072,-15.997 -0.091,-34.597 -15.997,-41.758c-15.996,-7.069 -34.688,0.093 -41.665,16.089c-7.067,15.904 0.097,34.504 16.093,41.572c15.809,7.161 34.501,0 41.569,-15.903Z" style="fill:#0b0b16;fill-rule:nonzero;"/><path d="M665.723,1081.76c-15.906,-7.161 -34.598,0.093 -41.665,16.09c-7.164,15.81 -0,34.503 15.899,41.572c15.997,7.068 34.695,-0.186 41.762,-15.997c7.067,-15.996 -0.097,-34.597 -15.996,-41.665Z" style="fill:#0b0b16;fill-rule:nonzero;"/><path d="M415.637,1177.92c-15.9,-7.069 -34.502,-0 -41.665,15.996c-6.976,15.997 0.096,34.597 16.092,41.665c15.9,7.161 34.502,-0.093 41.665,-16.089c6.971,-15.904 -0.096,-34.504 -16.092,-41.572Z" style="fill:#0b0b16;fill-rule:nonzero;"/><path d="M588.807,1254.74c-15.996,-6.976 -34.501,0.186 -41.756,16.182c-7.067,15.81 0.091,34.504 16.087,41.572c15.906,7.068 34.507,-0.186 41.762,-16.089c6.97,-15.904 -0.188,-34.597 -16.093,-41.665Z" style="fill:#0b0b16;fill-rule:nonzero;"/><path d="M915.621,985.501c-15.905,-7.069 -34.598,0.093 -41.665,15.996c-7.073,15.997 0.182,34.69 15.996,41.851c15.997,6.882 34.593,-0.186 41.756,-16.182c6.976,-15.811 -0.091,-34.504 -16.087,-41.665Z" style="fill:#0b0b16;fill-rule:nonzero;"/><path d="M662.374,700.355c7.158,-15.996 -0,-34.69 -15.997,-41.758c-15.808,-7.068 -34.597,0.186 -41.574,16.09c-7.158,15.903 0.097,34.596 15.906,41.665c15.996,7.068 34.688,-0.093 41.665,-15.997Z" style="fill:#0b0b16;fill-rule:nonzero;"/><path d="M412.384,796.427c7.067,-15.904 -0.096,-34.504 -15.996,-41.572c-15.996,-7.068 -34.598,0.093 -41.574,15.996c-7.164,15.996 -0,34.504 15.996,41.572c15.905,7.068 34.507,0 41.574,-15.996Z" style="fill:#0b0b16;fill-rule:nonzero;"/><path d="M319.473,927.932c-15.906,-7.068 -34.598,0 -41.665,15.997c-7.067,15.996 0.187,34.503 16.092,41.572c15.996,7.161 34.502,-0 41.665,-15.904c7.067,-15.996 -0.187,-34.504 -16.092,-41.665Z" style="fill:#0b0b16;fill-rule:nonzero;"/><path d="M242.563,1101.1c-15.906,-7.162 -34.507,-0 -41.574,15.996c-7.067,15.717 -0,34.504 15.996,41.572c15.905,7.068 34.501,-0.093 41.665,-15.996c6.976,-15.997 -0.091,-34.69 -16.087,-41.572Z" style="fill:#0b0b16;fill-rule:nonzero;"/><path d="M489.39,623.349c7.068,-15.903 -0.187,-34.504 -16.092,-41.572c-15.809,-7.068 -34.598,0.093 -41.665,15.997c-7.067,15.903 0.096,34.689 15.996,41.665c15.996,6.975 34.598,-0.093 41.761,-16.09Z" style="fill:#0b0b16;fill-rule:nonzero;"/><path d="M835.453,777.175c7.158,-15.903 0,-34.597 -15.996,-41.572c-16.002,-7.068 -34.598,0 -41.574,15.997c-7.164,15.903 -0,34.596 15.996,41.572c15.996,7.068 34.598,-0 41.574,-15.997Z" style="fill:#0b0b16;fill-rule:nonzero;"/><path d="M838.797,1158.67c-15.997,-7.068 -34.593,0.093 -41.665,15.997c-7.067,15.996 -0,34.503 15.996,41.664c15.996,6.976 34.598,-0.092 41.665,-16.089c6.976,-15.996 -0.091,-34.504 -15.996,-41.572Z" style="fill:#0b0b16;fill-rule:nonzero;"/><path d="M761.79,1331.75c-15.899,-7.069 -34.592,-0 -41.568,15.996c-7.164,15.997 0.091,34.504 16.087,41.665c15.905,6.975 34.507,-0.093 41.574,-16.089c7.067,-15.904 -0.097,-34.504 -16.093,-41.572Z" style="fill:#0b0b16;fill-rule:nonzero;"/><path d="M1468.89,1361.05c-16.927,-4.372 -34.223,5.579 -38.503,22.506c-4.558,16.833 5.489,34.132 22.416,38.503c16.831,4.557 34.127,-5.673 38.594,-22.414c4.371,-16.833 -5.676,-34.132 -22.507,-38.595Z" style="fill:#0b0b16;fill-rule:nonzero;"/><path d="M1285.67,1312.68c-16.83,-4.371 -34.035,5.766 -38.497,22.507c-4.467,16.926 5.58,34.132 22.411,38.689c16.927,4.371 34.132,-5.58 38.593,-22.507c4.468,-16.926 -5.67,-34.132 -22.507,-38.689Z" style="fill:#0b0b16;fill-rule:nonzero;"/><path d="M1420.53,1544.26c-16.927,-4.557 -34.036,5.58 -38.503,22.414c-4.462,16.833 5.58,34.132 22.416,38.689c16.927,4.278 34.132,-5.673 38.594,-22.6c4.467,-16.833 -5.58,-34.132 -22.507,-38.503Z" style="fill:#0b0b16;fill-rule:nonzero;"/><path d="M1237.41,1495.99c-16.831,-4.557 -34.132,5.58 -38.503,22.413c-4.558,16.834 5.58,34.039 22.416,38.597c16.927,4.371 34.132,-5.674 38.594,-22.507c4.371,-16.926 -5.58,-34.132 -22.507,-38.503Z" style="fill:#0b0b16;fill-rule:nonzero;"/><path d="M1054.29,1447.63c-16.831,-4.557 -34.223,5.673 -38.594,22.506c-4.371,16.741 5.58,34.039 22.507,38.503c16.83,4.371 34.132,-5.58 38.503,-22.506c4.552,-16.741 -5.58,-34.132 -22.416,-38.503Z" style="fill:#0b0b16;fill-rule:nonzero;"/><path d="M1372.26,1727.38c-16.74,-4.557 -34.133,5.673 -38.594,22.413c-4.371,16.834 5.67,34.039 22.597,38.596c16.831,4.372 34.036,-5.579 38.504,-22.506c4.461,-16.927 -5.671,-34.132 -22.507,-38.503Z" style="fill:#0b0b16;fill-rule:nonzero;"/><path d="M1635.83,1470.32c16.927,4.557 34.229,-5.58 38.69,-22.413c4.371,-16.834 -5.67,-34.039 -22.597,-38.596c-16.837,-4.371 -34.042,5.673 -38.504,22.506c-4.467,16.927 5.671,34.132 22.411,38.503Z" style="fill:#0b0b16;fill-rule:nonzero;"/><path d="M1684.19,1287.29c16.927,4.372 34.132,-5.672 38.594,-22.599c4.371,-16.834 -5.671,-34.132 -22.507,-38.503c-16.927,-4.371 -34.132,5.673 -38.503,22.6c-4.462,16.74 5.489,34.038 22.416,38.502Z" style="fill:#0b0b16;fill-rule:nonzero;"/><path d="M1587.65,1653.44c16.927,4.557 34.132,-5.58 38.503,-22.32c4.468,-16.927 -5.67,-34.132 -22.41,-38.69c-16.836,-4.371 -34.132,5.58 -38.6,22.507c-4.461,16.926 5.58,34.132 22.507,38.503Z" style="fill:#0b0b16;fill-rule:nonzero;"/><path d="M1555.38,1775.74c-16.74,-4.557 -34.036,5.58 -38.594,22.321c-4.371,16.833 5.671,34.132 22.507,38.689c16.927,4.371 34.223,-5.674 38.503,-22.507c4.552,-16.926 -5.489,-34.225 -22.416,-38.503Z" style="fill:#0b0b16;fill-rule:nonzero;"/><path d="M1189.14,1679.11c-16.927,-4.557 -34.132,5.58 -38.503,22.506c-4.467,16.648 5.489,34.132 22.411,38.503c16.836,4.371 34.132,-5.673 38.599,-22.506c4.462,-16.834 -5.676,-34.225 -22.507,-38.503Z" style="fill:#0b0b16;fill-rule:nonzero;"/><path d="M1005.92,1630.75c-16.831,-4.371 -34.036,5.674 -38.407,22.507c-4.558,16.926 5.58,34.132 22.41,38.503c16.837,4.557 34.042,-5.58 38.6,-22.414c4.371,-16.926 -5.676,-34.039 -22.603,-38.596Z" style="fill:#0b0b16;fill-rule:nonzero;"/><path d="M1554.83,1159.79c-295.656,42.13 -570.292,-164.242 -612.513,-459.804c-20.367,-143.131 16.274,-285.796 103.14,-401.398c86.77,-115.695 213.53,-190.655 356.757,-211.115l14.878,-1.768c-24.738,75.983 0,163.126 66.965,213.441l6.045,4.278c-28.739,78.122 -3.627,168.241 64.819,219.672c68.64,51.523 162.198,50.5 229.157,1.116l5.955,4.464c66.493,49.942 156.43,49.663 222.459,5.301l2.14,13.299c20.367,143.224 -16.184,285.797 -103.044,401.492c-86.867,115.602 -213.536,190.655 -356.758,211.022Zm326.343,222.834c42.131,295.748 -164.054,570.384 -459.71,612.514c-289.702,41.2 -558.571,-156.058 -609.074,-441.948c182.94,-67.054 320.207,-218.462 372.85,-401.584c87.701,48.826 187.861,76.634 292.863,76.634c28.275,0 56.918,-1.86 85.748,-6.045c79.516,-11.254 154.291,-37.759 221.534,-77.378c49.01,68.543 83.142,148.99 95.789,237.807Zm-1200.01,139.039c-295.838,42.13 -570.474,-164.15 -612.417,-459.711c-42.131,-295.655 164.054,-570.477 459.71,-612.421c25.669,-3.813 51.428,-5.58 76.631,-5.58c100.257,-0 195.4,28.551 277.43,77.843c-10.326,61.009 -11.626,124.065 -2.515,187.121c24.182,170.938 118.211,314.999 248.968,407.629c-51.894,207.21 -223.577,373.126 -447.807,405.119Zm1280.83,-535.043c96.999,-129.088 137.92,-288.308 115.231,-448.272c-3.349,-22.321 -8.276,-46.129 -15.439,-72.449c-3.162,-11.625 -12.46,-20.367 -24.182,-22.785c-11.716,-2.512 -23.716,2.046 -31.061,11.439c-43.062,54.685 -123.139,65.473 -178.66,23.623l-19.158,-17.578c-5.858,-6.51 -14.043,-10.416 -22.876,-10.602c-8.741,-0.093 -17.301,3.162 -23.347,9.486c-45.105,46.222 -118.018,51.988 -169.543,13.206c-51.707,-38.782 -66.59,-110.394 -34.689,-166.474l2.606,-25.111l-16.649,-19.065l-22.32,-13.392c-55.986,-42.038 -67.89,-122.299 -26.509,-178.937c6.977,-9.765 7.998,-22.507 2.515,-33.202c-5.489,-10.602 -16.558,-17.298 -28.643,-16.927c-29.018,0.466 -53.2,2.14 -75.985,5.395c-159.87,22.785 -301.327,106.488 -398.331,235.668c-45.105,60.08 -77.472,126.762 -97.56,196.793c-111.23,-61.847 -242.361,-89.84 -377.868,-70.496c-329.97,47.059 -560.336,353.781 -513.466,683.847c43.061,301.328 302.349,519.418 598.283,519.418c28.274,0 56.917,-1.953 85.748,-5.952c20.929,-3.069 41.387,-7.44 61.572,-12.555c54.403,286.912 306.163,492.076 593.072,492.076c28.183,-0 56.827,-1.953 85.657,-6.139c329.97,-47.059 560.342,-353.874 513.375,-683.939c-14.043,-98.397 -51.712,-187.586 -105.837,-263.755c46.502,-34.318 88.445,-75.704 124.064,-123.321Z" style="fill:#0b0b16;fill-rule:nonzero;"/><path d="M1407.41,535.09c-1.488,-17.484 -16.74,-30.319 -34.133,-28.738c-17.392,1.488 -30.227,16.741 -28.734,34.132c1.487,17.392 16.831,30.226 34.127,28.738c17.302,-1.488 30.227,-16.927 28.74,-34.132Z" style="fill:#0b0b16;fill-rule:nonzero;"/><path d="M1612.49,707.424c-1.583,-17.392 -16.836,-30.319 -34.223,-28.738c-17.301,1.488 -30.227,16.74 -28.648,34.132c1.487,17.298 16.739,30.226 34.132,28.737c17.302,-1.581 30.227,-16.833 28.739,-34.131Z" style="fill:#0b0b16;fill-rule:nonzero;"/><path d="M1423.79,723.792c-1.487,-17.392 -16.739,-30.319 -34.132,-28.831c-17.392,1.581 -30.318,16.833 -28.83,34.318c1.578,17.205 16.83,30.133 34.223,28.552c17.392,-1.395 30.227,-16.741 28.739,-34.039Z" style="fill:#0b0b16;fill-rule:nonzero;"/><path d="M1218.71,551.365c-1.487,-17.391 -16.83,-30.318 -34.132,-28.737c-17.483,1.581 -30.13,16.833 -28.74,34.224c1.493,17.299 16.837,30.133 34.229,28.738c17.296,-1.488 30.227,-16.833 28.643,-34.225Z" style="fill:#0b0b16;fill-rule:nonzero;"/><path d="M1235.08,739.974c-1.583,-17.298 -16.836,-30.133 -34.132,-28.738c-17.489,1.582 -30.227,16.927 -28.74,34.319c1.487,17.298 16.74,30.225 34.133,28.737c17.392,-1.581 30.317,-16.926 28.739,-34.318Z" style="fill:#0b0b16;fill-rule:nonzero;"/><path d="M1594.63,867.295c-17.296,1.674 -30.226,16.926 -28.643,34.132c1.397,17.484 16.74,30.318 34.133,28.83c17.296,-1.581 30.13,-16.833 28.734,-34.132c-1.488,-17.391 -16.831,-30.318 -34.224,-28.83Z" style="fill:#0b0b16;fill-rule:nonzero;"/><path d="M1391.14,346.295c-1.487,-17.298 -16.836,-30.226 -34.319,-28.645c-17.206,1.395 -30.131,16.741 -28.553,34.132c1.397,17.485 16.837,30.133 34.133,28.738c17.392,-1.488 30.136,-16.834 28.739,-34.225Z" style="fill:#0b0b16;fill-rule:nonzero;"/><path d="M1202.44,362.664c-1.487,-17.392 -16.836,-30.319 -34.223,-28.738c-17.302,1.488 -30.136,16.74 -28.649,34.225c1.397,17.298 16.74,30.133 34.132,28.645c17.302,-1.396 30.137,-16.741 28.74,-34.132Z" style="fill:#0b0b16;fill-rule:nonzero;"/><path d="M1801.19,691.055c-1.584,-17.391 -16.831,-30.226 -34.133,-28.645c-17.392,1.395 -30.317,16.741 -28.83,34.132c1.584,17.298 16.836,30.133 34.132,28.738c17.483,-1.581 30.318,-16.926 28.831,-34.225Z" style="fill:#0b0b16;fill-rule:nonzero;"/><path d="M1783.33,851.112c-17.296,1.488 -30.227,16.741 -28.734,34.039c1.39,17.392 16.83,30.319 34.223,28.831c17.392,-1.581 30.13,-16.927 28.739,-34.132c-1.583,-17.485 -16.836,-30.319 -34.228,-28.738Z" style="fill:#0b0b16;fill-rule:nonzero;"/><path d="M1406.02,883.663c-17.483,1.488 -30.318,16.833 -28.83,34.225c1.487,17.298 16.836,30.226 34.228,28.831c17.387,-1.675 30.222,-16.927 28.734,-34.318c-1.578,-17.299 -16.927,-30.226 -34.132,-28.738Z" style="fill:#0b0b16;fill-rule:nonzero;"/><path d="M1217.23,900.032c-17.301,1.395 -30.227,16.74 -28.643,34.224c1.487,17.299 16.74,30.226 34.132,28.645c17.387,-1.488 30.131,-16.74 28.734,-34.225c-1.487,-17.205 -16.927,-30.133 -34.223,-28.644Z" style="fill:#0b0b16;fill-rule:nonzero;"/></g></g></svg>