<?xml version="1.0" encoding="UTF-8" standalone="no"?><!DOCTYPE svg PUBLIC "-//W3C//DTD SVG 1.1//EN" "http://www.w3.org/Graphics/SVG/1.1/DTD/svg11.dtd"><svg width="100%" height="100%" viewBox="0 0 2084 2084" version="1.1" xmlns="http://www.w3.org/2000/svg" xmlns:xlink="http://www.w3.org/1999/xlink" xml:space="preserve" xmlns:serif="http://www.serif.com/" style="fill-rule:evenodd;clip-rule:evenodd;stroke-linejoin:round;stroke-miterlimit:2;"><rect id="画板1" x="0" y="0" width="2083.33" height="2083.33" style="fill:none;"/><clipPath id="_clip1"><rect id="画板11" serif:id="画板1" x="0" y="0" width="2083.33" height="2083.33"/></clipPath><g clip-path="url(#_clip1)"><g><path d="M1066.88,1197.28l-174.201,-174.2l65.197,-65.197l65.197,-65.203l174.297,174.207l-130.49,130.393Zm-437.322,-0.374c-12.369,12.188 -32.363,12.188 -44.551,-0l-195.221,-195.222c-12.37,-12.369 -12.37,-32.363 -0,-44.732l567.25,-567.25c5.954,-5.859 13.862,-9.208 22.326,-9.208c8.458,0 16.366,3.162 22.321,9.208l195.222,195.222c5.949,6.045 9.207,13.947 9.207,22.411c0,8.373 -3.258,16.275 -9.207,22.321l-196.153,195.971l-87.427,87.608l-283.767,283.671Zm-426.712,317.435c-12.375,12.182 -32.368,12.279 -44.647,0l-85.843,-85.843c-12.279,-12.279 -12.279,-32.368 -0,-44.647l305.06,-305.157l130.4,130.4l-304.97,305.247Zm1180.91,-1441.89l22.417,-9.299l22.321,9.208l85.752,85.843c5.95,5.955 9.208,13.857 9.208,22.321c0,8.464 -3.258,16.184 -9.208,22.23l-305.156,305.156l-130.394,-130.399l305.06,-305.06Zm690.298,1957.05l-54.127,-54.223c-16.463,-16.463 -24.558,-40.924 -23.07,-68.825c2.793,-44.272 -11.995,-81.194 -41.014,-103.514c-34.413,-26.511 -85.565,-30.507 -144.069,-11.257c-40.549,13.3 -73.008,11.813 -89.284,-4.371c-15.996,-16.088 -17.58,-48.547 -4.28,-89.193c21.39,-65.015 14.323,-119.608 -19.715,-153.651c-33.952,-34.037 -88.636,-41.105 -153.555,-19.624c-40.645,13.3 -73.201,11.813 -89.288,-4.371c-16.088,-16.179 -17.763,-48.735 -4.281,-89.283c21.299,-65.016 14.232,-119.608 -19.715,-153.555c-34.043,-34.134 -88.545,-41.111 -153.555,-19.624c-40.736,13.204 -73.195,11.625 -89.288,-4.372c-15.254,-15.253 -17.019,-45.481 -5.95,-82.965l81.472,-81.472c12.279,-12.369 12.279,-32.272 0,-44.647l-196.618,-196.612l173.832,-173.645c17.859,-17.95 27.714,-41.763 27.714,-66.968c-0,-19.437 -5.949,-38.039 -16.644,-53.662l306.269,-306.275c17.95,-17.762 27.719,-41.57 27.719,-66.871c0,-25.392 -9.769,-49.2 -27.719,-66.963l-85.752,-85.939c-37.018,-36.831 -97.1,-36.831 -133.931,-0l-306.456,306.456c-36.462,-24.182 -88.727,-20.555 -120.352,10.974l-567.341,567.346c-32.743,32.738 -36.274,83.521 -11.069,120.443l-306.275,306.365c-17.854,17.763 -27.714,41.577 -27.714,66.781c-0,25.483 9.86,49.291 27.714,67.059l85.848,85.843c18.416,18.415 42.598,27.714 66.963,27.714c24.279,-0 48.456,-9.299 66.968,-27.714l306.366,-306.366c15.997,11.07 34.69,16.741 53.383,16.741c24.274,-0 48.457,-9.299 67.059,-27.714l173.736,-173.741l196.43,196.527c5.955,5.859 13.954,9.299 22.418,9.299l22.23,-9.299l25.573,-25.392c4.093,23.44 13.675,43.529 29.394,59.248c34.038,34.038 88.54,41.202 153.646,19.715c40.645,-13.391 73.195,-11.813 89.289,4.371c15.996,15.997 17.671,48.644 4.274,89.193c-21.299,65.015 -14.322,119.517 19.624,153.651c34.134,34.037 88.824,41.014 153.652,19.624c40.639,-13.397 73.286,-11.813 89.283,4.371c16.184,16.088 17.671,48.735 4.467,89.193c-21.395,65.009 -14.509,119.608 19.625,153.742c34.037,33.946 88.636,41.014 153.645,19.624c37.387,-12.279 68.643,-11.813 85.662,1.209c15.531,11.995 17.484,33.669 16.553,49.853c-2.696,46.129 12.001,87.796 41.48,117.093l54.223,54.315l22.23,9.208l22.321,-9.208c12.37,-12.37 12.37,-32.363 0,-44.642Z" style="fill:#0b0b16;fill-rule:nonzero;"/></g></g></svg>