<?xml version="1.0" encoding="UTF-8" standalone="no"?><!DOCTYPE svg PUBLIC "-//W3C//DTD SVG 1.1//EN" "http://www.w3.org/Graphics/SVG/1.1/DTD/svg11.dtd"><svg width="100%" height="100%" viewBox="0 0 2084 2084" version="1.1" xmlns="http://www.w3.org/2000/svg" xmlns:xlink="http://www.w3.org/1999/xlink" xml:space="preserve" xmlns:serif="http://www.serif.com/" style="fill-rule:evenodd;clip-rule:evenodd;stroke-linejoin:round;stroke-miterlimit:2;"><rect id="画板1" x="0" y="0" width="2083.33" height="2083.33" style="fill:none;"/><clipPath id="_clip1"><rect id="画板11" serif:id="画板1" x="0" y="0" width="2083.33" height="2083.33"/></clipPath><g clip-path="url(#_clip1)"><g><path d="M795.658,1891.64c78.495,-215.303 109.834,-413.306 109.647,-592.524c447.998,-54.314 809.686,162.198 958.029,270.454c-184.332,1.767 -605.918,41.2 -1067.68,322.07Zm-417.589,79.704l-5.296,-2.139l-17.302,-8.557c-45.014,-23.623 -83.518,-56.174 -117.832,-90.398c-8.929,-8.929 -18.324,-18.043 -27.996,-27.344c-122.391,-117.555 -274.826,-264.129 41.943,-814.987c202.934,-353.505 208.701,-601.266 183.867,-738.446c196.332,209.071 625.353,796.295 271.386,1656.85c-134.112,57.755 -246.552,57.941 -328.77,25.018Zm414.984,-1307.16c84.909,6.324 157.732,78.866 164.243,163.686c-33.202,31.806 -66.682,63.986 -100.071,96.63c-22.694,-87.329 -52.178,-168.056 -85.379,-241.529l21.207,-18.787Zm211.488,-175.962c79.334,5.395 147.878,72.635 154.758,152.06c-48.546,43.806 -97.743,89.004 -147.691,136.157c-22.689,-75.983 -83.887,-139.04 -159.128,-164.15c50.872,-43.434 101.563,-85.005 152.061,-124.067Zm225.628,-160.988c69.753,4.278 129.089,62.312 136.06,131.506c-49.289,41.851 -100.162,85.749 -152.618,132.437c-21.111,-69.381 -75.798,-126.95 -143.501,-152.432c54.125,-40.084 107.512,-77.287 160.059,-111.511Zm206.465,-121.37c13.487,-6.975 26.691,-13.207 39.99,-19.624c52.826,3.349 98.306,46.409 105.747,98.491c-9.116,6.789 -17.67,13.114 -27.065,20.367c-42.318,32.831 -87.423,69.195 -133.738,107.513c-18.505,-57.942 -62.872,-106.582 -118.019,-131.507c45.196,-27.436 89.932,-53.011 133.085,-75.24Zm386.8,-119.788c21.951,0 41.574,2.698 60.267,6.697c-55.8,23.065 -134.203,69.007 -246.086,150.757c-13.669,-39.619 -41.291,-73.193 -76.542,-94.956c101.558,-41.294 190.565,-62.498 262.361,-62.498Zm147.599,50.129l0.182,0.186c15.44,26.32 -33.014,124.438 -145.266,279.847c-23.626,-60.825 -73.38,-110.768 -134.391,-134.205c136.9,-98.955 229.159,-148.618 267.197,-148.618l12.278,2.79Zm-12.278,409.399c-21.854,-34.69 -55.056,-61.752 -94.121,-75.238c82.308,-112.721 128.254,-191.773 151.317,-247.575c17.393,80.54 -3.44,191.772 -57.196,322.813Zm-132.25,257.528c-25.482,-54.594 -73.754,-98.398 -131.138,-116.628c38.322,-46.222 74.589,-91.328 107.512,-133.831c7.255,-9.393 13.397,-17.949 20.555,-26.97c51.151,7.161 93.469,51.338 98.027,103.14c-26.691,55.523 -58.683,113.836 -94.956,174.289Zm-157.732,233.809c-25.578,-67.334 -82.962,-121.554 -151.97,-142.667c46.688,-52.361 90.585,-103.233 132.437,-152.619c68.453,6.883 126.018,65.29 131.507,134.019c-34.224,52.639 -71.427,106.395 -111.974,161.267Zm-173.269,218.093c-25.203,-74.961 -88.07,-135.972 -164.055,-158.663c47.245,-49.943 92.538,-99.143 136.246,-147.691c78.869,6.883 145.925,74.497 152.062,153.271c-39.06,50.5 -80.635,101.745 -124.253,153.083Zm-215.393,-104.349c75.701,5.858 140.901,64.264 158.941,136.993c-74.867,-23.065 -155.689,-41.294 -241.437,-51.431c27.621,-28.738 55.43,-57.197 82.496,-85.562Zm-44.924,-44.363c-37.941,39.99 -77.75,81.006 -118.575,122.857c-68.453,-3.813 -139.505,-2.418 -212.698,6.137c-3.445,-84.167 -14.231,-163.871 -29.761,-239.017c43.339,-42.503 86.027,-84.168 127.504,-123.509c122.209,6.511 227.025,111.512 233.53,233.532Zm187.125,-201.445c-41.574,46.315 -85.749,94.118 -132.25,143.597c-27.997,-111.046 -119.507,-202.562 -230.465,-230.555c49.573,-46.502 97.374,-90.585 143.694,-132.436c114.392,6.323 212.885,104.906 219.021,219.394Zm50.873,-453.019c54.499,-44.827 105.003,-84.82 151.686,-120.254c78.96,5.116 146.391,72.543 151.505,151.596c-35.251,46.594 -75.423,97.281 -120.256,151.595c-26.503,-85.935 -96.999,-156.431 -182.935,-182.937Zm130.575,245.808c-39.247,46.687 -81.934,95.699 -127.504,147.131c-27.622,-101.747 -111.327,-185.449 -213.072,-213.071c51.616,-45.572 100.445,-88.074 147.134,-127.507c100.814,5.952 187.493,92.631 193.442,193.447Zm-77.938,619.587c121.556,-140.435 225.816,-278.266 309.89,-408.749l6.976,-10.696c52.826,-82.773 97.653,-162.384 133.647,-237.716l8.367,-17.857c115.698,-248.69 134.016,-447.811 31.437,-550.393c-110.305,-110.209 -320.585,-90.306 -608.336,57.755c-200.237,103.048 -423.442,262.176 -646.277,458.227l-3.537,3.162l-14.509,12.742c-150.568,-299.936 -352.576,-464.924 -356.76,-468.271c-11.994,-9.487 -29.018,-9.115 -40.456,1.023c-11.438,10.044 -14.231,26.97 -6.233,39.991c1.493,2.697 158.294,275.01 -143.501,800.014c-341.139,593.733 -161.637,766.161 -30.693,892.086c9.486,8.836 18.415,17.671 27.253,26.413c32.549,32.552 70.309,64.824 113.927,90.865l-0.556,0.372c55.799,33.946 118.763,55.43 193.448,55.43c100.814,0 223.113,-39.619 376.196,-140.156c39.06,-25.575 80.073,-48.454 121.925,-69.009c516.916,-254.922 951.609,-217.348 956.723,-216.976c13.209,1.209 26.322,-6.139 31.715,-18.508c5.489,-12.369 2.793,-26.878 -7.436,-36.177c-3.446,-3.256 -177.64,-159.874 -453.21,-263.572Z" style="fill:#0b0b16;fill-rule:nonzero;"/></g></g></svg>