<?xml version="1.0" encoding="UTF-8" standalone="no"?><!DOCTYPE svg PUBLIC "-//W3C//DTD SVG 1.1//EN" "http://www.w3.org/Graphics/SVG/1.1/DTD/svg11.dtd"><svg width="100%" height="100%" viewBox="0 0 2084 2084" version="1.1" xmlns="http://www.w3.org/2000/svg" xmlns:xlink="http://www.w3.org/1999/xlink" xml:space="preserve" xmlns:serif="http://www.serif.com/" style="fill-rule:evenodd;clip-rule:evenodd;stroke-linejoin:round;stroke-miterlimit:2;"><rect id="画板1" x="0" y="0" width="2083.33" height="2083.33" style="fill:none;"/><clipPath id="_clip1"><rect id="画板11" serif:id="画板1" x="0" y="0" width="2083.33" height="2083.33"/></clipPath><g clip-path="url(#_clip1)"><g><path d="M2007.63,589.853c-13.953,17.949 -35.995,26.599 -59.059,22.694c-153.087,-24.926 -291.573,3.161 -353.141,19.344l-108.446,-456.284c93.749,-10.602 372.953,-8.464 528.27,355.746c8.555,20.181 5.768,41.48 -7.624,58.5Zm-562.591,188.335c-61.012,23.345 -111.517,55.618 -141.835,77.567l-361.697,-676.708c54.502,-30.412 191.96,-98.771 351.836,-115.234c57.016,-5.858 109.564,30.972 122.677,85.659l110.955,467.074c16.372,67.987 -18.88,137.555 -81.936,161.642Zm-211.033,268.694c-73.472,47.618 -139.69,113.931 -187.311,187.126c-26.879,41.574 -83.798,55.061 -129.37,30.692l-735.302,-393.041l-14.322,-7.626c-41.388,-22.322 -60.456,-70.87 -45.572,-115.885c93.75,-280.69 345.331,-532.27 625.925,-625.927c10.417,-3.533 20.924,-5.116 31.063,-5.116c34.695,0 67.523,18.695 84.638,50.69l7.624,14.322l383.647,717.444l9.673,17.95l0,0.093c24.273,45.386 10.695,102.213 -30.693,129.278Zm-455.911,398.343c-24.182,62.871 -93.562,98.12 -161.738,81.937l-235.953,-56.082l-231.027,-54.966c-54.688,-13.021 -91.518,-65.755 -85.563,-122.488c16.371,-159.878 84.632,-297.525 115.138,-352.027l676.617,361.699c-21.764,30.227 -54.035,80.729 -77.474,141.927Zm-165.547,503.53c3.628,22.88 -4.655,44.922 -22.882,58.874c-16.831,13.485 -38.317,16.368 -58.316,7.812c-364.392,-155.412 -366.533,-434.429 -355.838,-528.178l213.265,50.688l213.071,50.688l0.187,-0l29.575,7.068c-15.9,61.384 -44.084,199.776 -19.062,353.048Zm1460.84,-1442.05c-174.386,-409.131 -503.345,-404.016 -602.861,-392.111c-27.623,-73.847 -102.492,-122.023 -183.502,-113.653c-173.267,17.857 -317.89,90.03 -376.575,123.14c-39.81,-58.594 -113.47,-84.821 -182.293,-61.756c-298.64,99.609 -566.218,367.186 -666.013,666.012c-23.064,68.639 3.349,142.392 61.756,182.105c-33.015,58.687 -105.097,203.403 -122.955,376.579c-8.368,81.1 39.81,155.877 113.56,183.593c-11.807,99.515 -16.928,428.476 392.208,602.861c15.622,6.697 31.806,9.952 47.893,9.952c26.232,0 52.18,-8.929 74.126,-25.949c35.808,-28.18 53.388,-73.567 46.133,-118.861c-27.809,-170.014 16.553,-324.216 25.114,-351.095c61.193,-15.625 113.651,-58.501 137.09,-119.698c23.62,-61.756 57.753,-111.7 76.634,-136.626c16.927,5.674 34.133,8.743 51.43,8.743c53.014,0 104.631,-25.577 134.581,-71.614c42.131,-64.826 103.7,-126.208 168.618,-168.526c61.012,-39.62 85.563,-117.188 62.777,-186.011c24.926,-18.787 74.875,-53.106 136.625,-76.637c61.012,-23.437 103.887,-75.8 119.515,-137.182c26.226,-8.186 180.987,-52.828 351.189,-25.112c45.384,7.441 90.774,-10.324 118.953,-46.131c27.622,-35.249 33.577,-80.822 15.997,-122.023Z" style="fill:#0b0b16;fill-rule:nonzero;"/></g></g></svg>