<?xml version="1.0" encoding="UTF-8" standalone="no"?><!DOCTYPE svg PUBLIC "-//W3C//DTD SVG 1.1//EN" "http://www.w3.org/Graphics/SVG/1.1/DTD/svg11.dtd"><svg width="100%" height="100%" viewBox="0 0 2084 2084" version="1.1" xmlns="http://www.w3.org/2000/svg" xmlns:xlink="http://www.w3.org/1999/xlink" xml:space="preserve" xmlns:serif="http://www.serif.com/" style="fill-rule:evenodd;clip-rule:evenodd;stroke-linejoin:round;stroke-miterlimit:2;"><rect id="画板1" x="0" y="0" width="2083.33" height="2083.33" style="fill:none;"/><clipPath id="_clip1"><rect id="画板11" serif:id="画板1" x="0" y="0" width="2083.33" height="2083.33"/></clipPath><g clip-path="url(#_clip1)"><g><path d="M1667.12,1763.47l-1250.89,-0l-233.921,-848.343c21.114,-6.511 40.273,-17.394 55.9,-32.37l363.855,210.295l24.741,2.98l19.16,-15.815l361.066,-701.108c10.976,2.884 22.602,4.837 34.6,4.837c12.092,0 23.625,-1.953 34.785,-4.837l361.065,701.108l19.162,15.815l24.74,-2.98l363.761,-210.295c15.628,14.976 34.788,25.859 55.9,32.279l-233.919,848.434Zm70.78,109.195c-0,25.302 -20.65,46.04 -46.134,46.04l-1300.19,-0c-25.484,-0 -46.132,-20.738 -46.132,-46.04c0,-25.393 20.648,-46.04 46.132,-46.04l1300.19,0c25.484,0 46.134,20.647 46.134,46.04Zm-1674.74,-1091.94c-0,-43.065 34.971,-78.131 78.035,-78.131c43.064,-0 78.035,35.066 78.035,78.131c0,43.064 -34.971,78.034 -78.035,78.034c-43.064,0 -78.035,-34.97 -78.035,-78.034Zm438.449,-142.768l1.209,0.09c23.718,0 45.855,-6.511 65.572,-16.928l148.539,183.414l-111.891,217.369l-181.371,-104.824l77.942,-279.121Zm-76.919,-141.1c-0,-43.155 35.065,-78.131 78.128,-78.131c42.971,0 78.036,34.976 78.036,78.131c-0,42.969 -35.065,78.035 -78.036,78.035c-43.063,-0 -78.128,-35.066 -78.128,-78.035Zm616.937,-332.234c42.971,0 78.128,35.066 78.128,78.131c0,42.969 -35.157,78.035 -78.128,78.035c-42.971,-0 -78.128,-35.066 -78.128,-78.035c0,-43.065 35.157,-78.131 78.128,-78.131Zm473.606,456.587c19.625,10.417 41.668,16.837 65.387,16.837l1.302,-0.187l77.944,279.127l-181.465,104.915l-111.891,-217.181l148.723,-183.511Zm65.387,-202.484c43.064,0 78.037,34.976 78.037,78.131c-0,42.969 -34.973,78.035 -78.037,78.035c-43.063,-0 -78.129,-35.066 -78.129,-78.035c0,-43.155 35.066,-78.131 78.129,-78.131Zm361.623,283.868c42.971,-0 78.037,35.066 78.037,78.131c0,43.064 -35.066,78.034 -78.037,78.034c-43.156,0 -78.128,-34.97 -78.128,-78.034c-0,-43.065 34.972,-78.131 78.128,-78.131Zm141.096,78.131c0,-77.848 -63.246,-141.281 -141.096,-141.281c-77.941,-0 -141.19,63.433 -141.19,141.281c0,17.297 3.537,33.857 9.302,49.298l-94.032,54.316l-73.107,-261.636c46.411,-23.162 78.593,-70.689 78.593,-125.846c0,-77.943 -63.339,-141.28 -141.189,-141.28c-77.85,-0 -141.281,63.337 -141.281,141.28c-0,31.252 10.601,59.897 27.902,83.337l-132.26,163.143l-202.668,-393.341c30.692,-25.858 50.504,-64.177 50.504,-107.242c0,-77.847 -63.34,-141.281 -141.19,-141.281c-77.756,0 -141.19,63.434 -141.19,141.281c0,43.065 19.813,81.384 50.505,107.242l-202.39,393.057l-132.261,-163.046c17.208,-23.344 27.717,-52.086 27.717,-83.15c-0,-77.943 -63.432,-141.28 -141.19,-141.28c-77.849,-0 -141.282,63.337 -141.282,141.28c-0,55.248 32.368,102.775 78.873,125.937l-73.107,261.636l-94.218,-54.407c5.767,-15.441 9.3,-32.001 9.3,-49.298c0,-77.848 -63.246,-141.281 -141.189,-141.281c-77.849,-0 -141.189,63.433 -141.189,141.281c-0,69.945 51.156,127.701 118.03,138.862l234.757,851.323c-41.11,15.629 -70.501,55.248 -70.501,101.753c0,60.181 49.016,109.195 109.286,109.195l1300.19,-0c60.272,-0 109.286,-49.014 109.286,-109.195c0,-46.505 -29.389,-86.124 -70.501,-101.843l234.853,-851.233c66.78,-11.161 117.934,-68.917 117.934,-138.862Z" style="fill:#0b0b16;fill-rule:nonzero;"/><path d="M1217.22,1407.71l-107.798,107.798l-135.61,0l-107.704,-107.798l-0,-135.61l107.704,-107.707l135.61,-0l107.798,107.707l0,135.61Zm-72.363,-297.265l-22.321,-9.208l-161.837,0l-22.231,9.208l-126.214,126.311c-6.046,5.858 -9.302,13.948 -9.302,22.321l0,161.837l9.302,22.322l126.214,126.214l22.231,9.208l161.837,-0l22.321,-9.208l126.308,-126.214l9.208,-22.322l0,-161.837c0,-8.373 -3.256,-16.463 -9.208,-22.321l-126.308,-126.311Z" style="fill:#0b0b16;fill-rule:nonzero;"/></g></g></svg>