<?xml version="1.0" encoding="UTF-8" standalone="no"?><!DOCTYPE svg PUBLIC "-//W3C//DTD SVG 1.1//EN" "http://www.w3.org/Graphics/SVG/1.1/DTD/svg11.dtd"><svg width="100%" height="100%" viewBox="0 0 2084 2084" version="1.1" xmlns="http://www.w3.org/2000/svg" xmlns:xlink="http://www.w3.org/1999/xlink" xml:space="preserve" xmlns:serif="http://www.serif.com/" style="fill-rule:evenodd;clip-rule:evenodd;stroke-linejoin:round;stroke-miterlimit:2;"><rect id="画板1" x="0" y="0" width="2083.33" height="2083.33" style="fill:none;"/><clipPath id="_clip1"><rect id="画板11" serif:id="画板1" x="0" y="0" width="2083.33" height="2083.33"/></clipPath><g clip-path="url(#_clip1)"><g><path d="M1726.05,1037.91c-6.138,-139.505 -53.663,-267.942 -129.088,-375.454c36.271,-34.318 68.822,-71.706 94.026,-111.418c104.536,136.064 169.638,304.028 176.241,486.872l-141.179,0Zm-680.597,884.833l-0,-141.272c368.014,-16.09 664.415,-312.398 680.597,-680.412l141.179,-0c-16.275,445.858 -375.919,805.501 -821.776,821.684Zm-53.942,-830.984l22.414,9.3l22.228,-9.3l168.707,-168.708c31.25,40.735 50.036,91.329 50.036,146.387c0,132.902 -108.163,240.971 -240.971,240.971c-132.902,0 -240.972,-108.069 -240.972,-240.971c0,-132.809 108.07,-240.879 240.972,-240.879c55.058,0 105.651,18.694 146.294,49.943l-168.708,168.616c-12.276,12.369 -12.276,32.365 -0,44.641Zm22.414,423.072c-245.622,-0 -445.392,-199.864 -445.392,-445.393c-0,-245.528 199.77,-445.299 445.392,-445.299c92.445,-0 178.194,28.644 249.435,77.285c-30.227,51.059 -53.012,96.165 -66.963,125.369c-50.873,-38.411 -114.022,-61.382 -182.472,-61.382c-167.778,-0 -304.121,136.342 -304.121,304.027c0,167.685 136.343,304.12 304.121,304.12c167.591,0 304.12,-136.435 304.12,-304.12c0,-68.543 -23.065,-131.507 -61.475,-182.379c29.296,-14.044 74.31,-36.923 125.648,-67.055c48.454,71.24 77.006,157.082 77.006,249.434c-0,245.529 -199.77,445.393 -445.299,445.393Zm-31.621,202.747c-332.952,-15.997 -600.522,-283.475 -616.518,-616.519l141.271,-0c15.718,255.201 220.139,459.529 475.247,475.339l-0,141.18Zm-0,205.165c-445.858,-16.183 -805.408,-375.826 -821.777,-821.684l141.272,-0c16.183,368.014 312.491,664.322 680.505,680.412l-0,141.272Zm-0,-1706.61l-0,141.18c-368.014,16.182 -664.322,312.584 -680.505,680.597l-141.272,0c16.369,-445.858 375.919,-805.408 821.777,-821.777Zm-0,346.438c-255.108,15.717 -459.529,220.231 -475.247,475.339l-141.271,0c15.996,-333.044 283.566,-600.429 616.518,-616.611l-0,141.272Zm550.207,-170.196c-39.62,25.296 -76.821,57.754 -111.139,93.84c-107.512,-75.426 -236.228,-122.672 -375.919,-128.902l-0,-141.18c182.937,6.697 350.901,71.799 487.058,176.242Zm-236.229,255.573c-72.542,-48.827 -158.291,-79.611 -250.829,-85.377l-0,-141.272c123.508,5.952 237.809,46.967 333.695,112.626c-30.597,37.202 -58.406,76.263 -82.866,114.023Zm365.782,453.111c-16.089,333.044 -283.566,600.522 -616.611,616.519l-0,-141.18c255.2,-15.81 459.529,-220.138 475.339,-475.339l141.272,-0Zm-141.272,-63.149c-5.766,-92.538 -36.643,-178.101 -85.47,-250.644c37.574,-24.273 76.542,-51.896 113.65,-82.4c65.661,95.793 107.14,209.629 113.092,333.044l-141.272,0Zm159.873,-635.212c-14.974,177.171 -268.966,332.672 -402.704,402.704c70.031,-133.739 225.439,-387.638 402.704,-402.704Zm147.875,-301.61c32.458,-32.458 53.849,-40.27 62.126,-37.201c14.602,5.395 26.041,45.386 27.901,71.613c1.023,15.81 13.578,28.273 29.389,29.389c26.134,1.767 66.032,13.113 71.52,27.808c3.161,8.463 -4.651,29.668 -37.109,62.219c-64.823,64.73 -134.39,86.586 -200.794,91.515l123.601,-123.601c12.37,-12.277 12.37,-32.272 0,-44.549c-12.276,-12.369 -32.271,-12.369 -44.548,0l-123.509,123.416c5.209,-66.126 26.786,-135.971 91.423,-200.609Zm167.685,936.822l-65.754,0c-7.161,-207.862 -84.353,-397.589 -207.676,-548.161c10.416,-25.576 17.485,-51.71 20.089,-78.681l1.674,0c86.679,0 189.634,-18.693 282.451,-111.603c48.268,-48.176 65.66,-91.609 51.617,-128.996c-16.276,-43.06 -67.427,-59.243 -100.444,-65.195c-5.952,-33.016 -22.042,-84.261 -65.195,-100.537c-37.387,-14.136 -80.82,3.441 -129.181,51.617c-93.376,93.468 -111.698,197.074 -111.419,284.218c-26.878,2.697 -53.104,9.765 -78.494,20.088c-150.665,-123.507 -340.578,-200.607 -548.44,-207.676l-0,-65.846c-0,-17.392 -14.137,-31.528 -31.528,-31.528c-17.485,-0 -31.621,14.136 -31.621,31.528l-0,65.846c-480.734,16.369 -868.557,404.192 -884.833,884.926l-65.939,0c-17.391,0 -31.528,14.136 -31.528,31.528c0,17.484 14.137,31.621 31.528,31.621l65.939,-0c16.276,480.641 404.099,868.464 884.833,884.832l-0,65.847c-0,17.485 14.136,31.621 31.621,31.621c17.391,0 31.528,-14.136 31.528,-31.621l-0,-65.847c480.733,-16.368 868.557,-404.191 885.018,-884.832l65.754,-0c17.485,-0 31.62,-14.137 31.62,-31.621c0,-17.392 -14.135,-31.528 -31.62,-31.528Z" style="fill:#0b0b16;fill-rule:nonzero;"/></g></g></svg>