<?xml version="1.0" encoding="UTF-8" standalone="no"?><!DOCTYPE svg PUBLIC "-//W3C//DTD SVG 1.1//EN" "http://www.w3.org/Graphics/SVG/1.1/DTD/svg11.dtd"><svg width="100%" height="100%" viewBox="0 0 2084 2084" version="1.1" xmlns="http://www.w3.org/2000/svg" xmlns:xlink="http://www.w3.org/1999/xlink" xml:space="preserve" xmlns:serif="http://www.serif.com/" style="fill-rule:evenodd;clip-rule:evenodd;stroke-linejoin:round;stroke-miterlimit:2;"><rect id="画板1" x="0" y="0" width="2083.33" height="2083.33" style="fill:none;"/><clipPath id="_clip1"><rect id="画板11" serif:id="画板1" x="0" y="0" width="2083.33" height="2083.33"/></clipPath><g clip-path="url(#_clip1)"><g><path d="M2059.48,278.308l-1940.2,-0c-52.704,-0 -95.42,42.748 -95.42,95.42l-0,1590.33c-0,52.671 42.716,95.419 95.42,95.419l1685.75,0c140.554,0 254.453,-113.931 254.453,-254.453l0,-1526.72Z" style="fill:#fff;fill-rule:nonzero;"/><path d="M119.275,302.163c-39.472,-0 -71.565,32.124 -71.565,71.565l-0,1590.33c-0,39.439 32.093,71.564 71.565,71.564l1685.75,0c127.163,0 230.598,-103.435 230.598,-230.598l0,-1502.86l-1916.35,-0Zm1685.75,1781.17l-1685.75,0c-65.776,0 -119.275,-53.562 -119.275,-119.274l0,-1590.33c0,-65.808 53.499,-119.275 119.275,-119.275l1940.2,-0c13.168,-0 23.855,10.687 23.855,23.855l0,1526.72c0,153.435 -124.84,278.308 -278.308,278.308Z" style="fill-rule:nonzero;"/><path d="M2059.48,1805.03c0,-140.521 -113.899,-254.452 -254.453,-254.452l0,-1526.72c140.554,-0 254.453,113.931 254.453,254.453l0,1526.72Z" style="fill:#fff;fill-rule:nonzero;"/><path d="M2059.48,1805.03l0,-7.633c-0.127,-0.064 -0.286,-0.191 -0.413,-0.318c0.095,2.672 0.413,5.28 0.413,7.951Z" style="fill:#fff;fill-rule:nonzero;"/><path d="M1828.88,1527.7c85.942,7.348 160.878,53.849 206.743,121.629l0,-1371.02c0,-119.084 -90.744,-217.431 -206.743,-229.422l0,1478.82Zm230.598,301.177c-13.168,0 -23.855,-10.687 -23.855,-23.855c0,-127.162 -103.435,-230.597 -230.598,-230.597c-13.168,-0 -23.855,-10.688 -23.855,-23.855l0,-1526.72c0,-13.168 10.687,-23.855 23.855,-23.855c153.468,0 278.308,124.809 278.308,278.308l0,1526.72c0,13.168 -10.687,23.855 -23.855,23.855Z" style="fill-rule:nonzero;"/><path d="M1296.09,174.936c-13.168,0 -23.855,-10.687 -23.855,-23.855l-0,-127.226c-0,-13.168 10.687,-23.855 23.855,-23.855c13.168,-0 23.855,10.687 23.855,23.855l-0,127.226c-0,13.168 -10.687,23.855 -23.855,23.855Z" style="fill-rule:nonzero;"/><path d="M1359.7,111.323l-127.226,0c-13.168,0 -23.855,-10.687 -23.855,-23.855c-0,-13.168 10.687,-23.855 23.855,-23.855l127.226,0c13.168,0 23.855,10.687 23.855,23.855c-0,13.168 -10.687,23.855 -23.855,23.855Z" style="fill-rule:nonzero;"/><path d="M1105.22,63.613c13.168,0 23.855,10.687 23.855,23.855c0,13.168 -10.687,23.855 -23.855,23.855c-13.168,0 -23.855,-10.687 -23.855,-23.855c0,-13.168 10.687,-23.855 23.855,-23.855Z" style="fill-rule:nonzero;"/><path d="M1009.8,63.613c13.168,0 23.855,10.687 23.855,23.855c0,13.168 -10.687,23.855 -23.855,23.855c-13.167,0 -23.855,-10.687 -23.855,-23.855c0,-13.168 10.688,-23.855 23.855,-23.855Z" style="fill-rule:nonzero;"/><path d="M882.57,63.613c13.168,0 23.855,10.687 23.855,23.855c-0,13.168 -10.687,23.855 -23.855,23.855c-13.2,0 -23.855,-10.687 -23.855,-23.855c0,-13.168 10.655,-23.855 23.855,-23.855Z" style="fill-rule:nonzero;"/><path d="M691.698,63.613c13.168,0 23.855,10.687 23.855,23.855c0,13.168 -10.687,23.855 -23.855,23.855c-13.168,0 -23.854,-10.687 -23.854,-23.855c-0,-13.168 10.686,-23.855 23.854,-23.855Z" style="fill-rule:nonzero;"/><path d="M462.277,1956.04l-279.389,-0c-13.168,-0 -23.855,-10.687 -23.855,-23.855c0,-13.168 10.687,-23.855 23.855,-23.855l279.389,-0c13.168,-0 23.855,10.687 23.855,23.855c0,13.168 -10.687,23.855 -23.855,23.855Z" style="fill-rule:nonzero;"/><path d="M659.955,1956.04l-70.419,-0c-13.168,-0 -23.855,-10.687 -23.855,-23.855c-0,-13.168 10.687,-23.855 23.855,-23.855l70.419,-0c13.168,-0 23.855,10.687 23.855,23.855c0,13.168 -10.687,23.855 -23.855,23.855Z" style="fill-rule:nonzero;"/><path d="M1900.44,1892.43l-127.226,-0c-13.168,-0 -23.855,-10.687 -23.855,-23.855c-0,-13.168 10.687,-23.855 23.855,-23.855l127.226,-0c13.168,-0 23.855,10.687 23.855,23.855c0,13.168 -10.687,23.855 -23.855,23.855Z" style="fill-rule:nonzero;"/><path d="M1836.83,1956.04c-13.168,-0 -23.855,-10.687 -23.855,-23.855l0,-127.227c0,-13.167 10.687,-23.855 23.855,-23.855c13.168,0 23.855,10.688 23.855,23.855l0,127.227c0,13.168 -10.687,23.855 -23.855,23.855Z" style="fill-rule:nonzero;"/><path d="M1614.15,1765.2l-127.227,0c-13.168,0 -23.854,-10.687 -23.854,-23.855c-0,-13.167 10.686,-23.855 23.854,-23.855l127.227,0c13.168,0 23.855,10.688 23.855,23.855c-0,13.168 -10.687,23.855 -23.855,23.855Z" style="fill-rule:nonzero;"/><path d="M1550.54,1828.82c-13.168,0 -23.855,-10.687 -23.855,-23.855l-0,-127.226c-0,-13.168 10.687,-23.855 23.855,-23.855c13.168,0 23.855,10.687 23.855,23.855l-0,127.226c-0,13.168 -10.687,23.855 -23.855,23.855Z" style="fill-rule:nonzero;"/><path d="M405.407,492.811l-127.226,0c-13.168,0 -23.855,-10.687 -23.855,-23.855c-0,-13.168 10.687,-23.855 23.855,-23.855l127.226,0c13.168,0 23.855,10.687 23.855,23.855c0,13.168 -10.687,23.855 -23.855,23.855Z" style="fill-rule:nonzero;"/><path d="M341.794,556.425c-13.168,-0 -23.855,-10.687 -23.855,-23.855l-0,-127.227c-0,-13.168 10.687,-23.855 23.855,-23.855c13.168,0 23.855,10.687 23.855,23.855l-0,127.227c-0,13.168 -10.687,23.855 -23.855,23.855Z" style="fill-rule:nonzero;"/><path d="M1579.2,1081.42l-94.053,-0c-6.456,-42.43 -17.652,-83.238 -32.792,-122.138l81.52,-47.041c16.73,-9.67 22.487,-31.044 12.818,-47.806l-52.481,-90.903c-9.669,-16.699 -31.075,-22.488 -47.805,-12.786l-81.616,47.073c-26.431,-32.92 -56.393,-62.85 -89.345,-89.313l47.138,-81.647c9.637,-16.699 3.912,-38.073 -12.818,-47.774l-90.904,-52.481c-16.73,-9.637 -38.104,-3.912 -47.805,12.787l-47.074,81.584c-38.836,-15.172 -79.643,-26.336 -122.074,-32.825l0,-94.052c0,-19.307 -15.648,-34.955 -34.955,-34.955l-104.994,-0c-19.306,-0 -34.987,15.648 -34.987,34.955l0,94.052c-42.398,6.489 -83.238,17.653 -122.074,32.825l-47.074,-81.584c-9.669,-16.699 -31.075,-22.424 -47.805,-12.787l-90.903,52.481c-16.73,9.701 -22.456,31.075 -12.786,47.774l47.137,81.647c-32.952,26.463 -62.914,56.393 -89.377,89.313l-81.584,-47.073c-16.762,-9.702 -38.168,-3.913 -47.805,12.786l-52.481,90.903c-9.669,16.762 -3.944,38.136 12.818,47.806l81.521,47.041c-15.172,38.9 -26.368,79.708 -32.793,122.138l-94.084,-0c-19.307,-0 -34.987,15.648 -34.987,34.955l-0,104.93c-0,19.339 15.68,35.051 34.987,35.051l94.084,0c6.425,42.367 17.621,83.238 32.793,122.074l-81.521,47.074c-16.762,9.669 -22.487,31.075 -12.818,47.773l52.481,90.904c9.637,16.761 31.043,22.487 47.805,12.786l81.584,-47.106c26.463,32.952 56.425,62.882 89.377,89.345l-47.137,81.616c-9.67,16.73 -3.944,38.168 12.786,47.773l90.903,52.513c16.73,9.637 38.136,3.912 47.805,-12.818l47.074,-81.552c38.836,15.172 79.676,26.336 122.074,32.792l0,94.053c0,19.338 15.681,35.051 34.987,35.051l104.994,-0c19.307,-0 34.955,-15.713 34.955,-35.051l0,-94.053c42.431,-6.456 83.238,-17.62 122.074,-32.792l47.074,81.552c9.701,16.73 31.075,22.455 47.805,12.818l90.904,-52.513c16.73,-9.605 22.455,-31.043 12.818,-47.773l-47.138,-81.616c32.952,-26.463 62.914,-56.393 89.345,-89.345l81.616,47.106c16.73,9.701 38.136,3.975 47.805,-12.786l52.481,-90.904c9.669,-16.698 3.912,-38.104 -12.818,-47.773l-81.52,-47.074c15.14,-38.836 26.336,-79.707 32.792,-122.074l94.053,0c19.338,0 34.987,-15.712 34.987,-35.051l-0,-104.93c-0,-19.307 -15.649,-34.955 -34.987,-34.955Z" style="fill:#fff;fill-rule:nonzero;"/><path d="M704.898,1682.89c2.895,-0 5.821,0.572 8.652,1.622c38.136,14.854 77.512,25.477 117.016,31.488c11.673,1.75 20.261,11.801 20.261,23.537l0,94.053c0,6.17 4.994,11.132 11.132,11.132l104.994,-0c6.107,-0 11.101,-4.962 11.101,-11.132l-0,-94.053c-0,-11.736 8.619,-21.787 20.26,-23.537c39.536,-6.011 78.913,-16.634 117.049,-31.488c10.973,-4.23 23.441,0.127 29.294,10.305l47.073,81.553c3.086,5.343 9.956,7.092 15.204,4.039l90.903,-52.481c3.499,-1.972 4.739,-5.089 5.185,-6.775c0.477,-1.622 0.922,-4.961 -1.082,-8.397l-47.137,-81.616c-5.884,-10.177 -3.467,-23.155 5.725,-30.566c31.489,-25.286 60.305,-54.103 85.655,-85.655c7.348,-9.128 20.325,-11.609 30.535,-5.725l81.615,47.138c5.28,2.989 12.119,1.208 15.204,-4.072l52.513,-90.903c3.053,-5.344 1.208,-12.182 -4.103,-15.204l-81.521,-47.105c-10.21,-5.821 -14.599,-18.289 -10.305,-29.326c14.854,-38.073 25.413,-77.385 31.425,-116.953c1.781,-11.705 11.8,-20.325 23.6,-20.325l94.084,0c6.107,0 11.101,-4.961 11.101,-11.132l-0,-104.93c-0,-6.139 -4.994,-11.164 -11.101,-11.164l-94.084,-0c-11.8,-0 -21.819,-8.588 -23.6,-20.261c-6.012,-39.567 -16.571,-78.88 -31.425,-116.984c-4.294,-10.974 0.095,-23.41 10.305,-29.294l81.521,-47.106c3.498,-2.036 4.739,-5.089 5.184,-6.775c0.445,-1.685 0.922,-4.962 -1.081,-8.428l-52.513,-90.904c-3.053,-5.343 -9.86,-7.092 -15.204,-4.103l-81.615,47.169c-10.21,5.885 -23.156,3.404 -30.503,-5.725c-25.382,-31.615 -54.198,-60.432 -85.687,-85.655c-9.192,-7.411 -11.609,-20.388 -5.725,-30.566l47.137,-81.648c3.054,-5.28 1.209,-12.118 -4.103,-15.203l-90.903,-52.449c-5.28,-2.958 -12.087,-1.304 -15.204,4.039l-47.073,81.584c-5.885,10.178 -18.417,14.536 -29.294,10.242c-38.009,-14.79 -77.386,-25.35 -117.049,-31.425c-11.641,-1.75 -20.26,-11.8 -20.26,-23.569l-0,-94.052c-0,-6.139 -4.994,-11.165 -11.101,-11.165l-104.994,0c-6.138,0 -11.132,5.026 -11.132,11.165l0,94.052c0,11.769 -8.588,21.819 -20.261,23.569c-39.631,6.075 -79.007,16.635 -117.016,31.425c-10.942,4.294 -23.442,-0.064 -29.326,-10.242l-47.074,-81.584c-2.004,-3.467 -5.089,-4.707 -6.743,-5.153c-1.654,-0.445 -4.962,-0.858 -8.46,1.114l-90.904,52.449c-5.311,3.085 -7.124,9.923 -4.071,15.203l47.137,81.648c5.885,10.178 3.467,23.155 -5.725,30.566c-31.488,25.223 -60.305,54.04 -85.687,85.655c-7.379,9.129 -20.292,11.61 -30.534,5.725l-81.584,-47.169c-5.344,-3.022 -12.15,-1.24 -15.235,4.103l-52.481,90.904c-2.004,3.466 -1.559,6.743 -1.114,8.428c0.446,1.686 1.718,4.739 5.217,6.775l81.52,47.106c10.21,5.884 14.567,18.32 10.305,29.294c-14.853,38.104 -25.445,77.417 -31.456,116.984c-1.782,11.673 -11.801,20.261 -23.569,20.261l-94.084,-0c-6.139,-0 -11.132,5.025 -11.132,11.164l-0,104.93c-0,6.171 4.993,11.132 11.132,11.132l94.084,0c11.768,0 21.819,8.62 23.569,20.325c6.011,39.568 16.603,78.88 31.456,116.953c4.262,11.037 -0.095,23.505 -10.305,29.326l-81.52,47.105c-3.499,1.972 -4.771,5.089 -5.217,6.775c-0.445,1.59 -0.89,4.994 1.114,8.429l52.481,90.903c3.085,5.344 9.923,7.061 15.235,4.072l81.584,-47.138c10.242,-5.884 23.155,-3.403 30.534,5.725c25.382,31.616 54.199,60.433 85.687,85.655c9.192,7.411 11.61,20.389 5.725,30.566l-47.137,81.616c-2.004,3.436 -1.559,6.775 -1.113,8.397c0.445,1.686 1.717,4.803 5.184,6.775l90.904,52.481c5.343,3.053 12.15,1.241 15.203,-4.039l47.074,-81.553c4.389,-7.569 12.373,-11.927 20.674,-11.927Zm262.055,209.542l-104.994,-0c-32.442,-0 -58.842,-26.399 -58.842,-58.842l0,-73.919c-29.516,-5.534 -58.842,-13.422 -87.627,-23.537l-37.023,64.091c-16.221,28.085 -52.258,37.786 -80.375,21.501l-90.904,-52.481c-13.581,-7.824 -23.314,-20.515 -27.385,-35.719c-4.103,-15.172 -2.004,-31.011 5.852,-44.624l37.087,-64.218c-22.901,-19.688 -44.371,-41.19 -64.122,-64.122l-64.186,37.086c-28.117,16.285 -64.186,6.521 -80.407,-21.533l-52.481,-90.903c-16.222,-28.117 -6.552,-64.154 21.565,-80.344l64.09,-37.023c-10.114,-28.785 -18.003,-58.11 -23.6,-87.691l-73.919,0c-32.443,0 -58.842,-26.399 -58.842,-58.842l-0,-104.93c-0,-32.475 26.399,-58.874 58.842,-58.874l73.95,-0c5.566,-29.516 13.455,-58.906 23.569,-87.595l-64.09,-37.023c-13.614,-7.888 -23.378,-20.579 -27.449,-35.719c-4.072,-15.235 -1.972,-31.075 5.884,-44.656l52.481,-90.904c16.221,-28.085 52.226,-37.754 80.407,-21.565l64.186,37.087c19.751,-22.901 41.221,-44.402 64.122,-64.09l-37.087,-64.25c-16.221,-28.085 -6.552,-64.154 21.533,-80.375l90.904,-52.449c13.613,-7.888 29.453,-9.924 44.656,-5.885c15.172,4.04 27.863,13.805 35.719,27.386l37.023,64.122c28.721,-10.082 58.047,-17.97 87.627,-23.537l0,-73.95c0,-32.475 26.4,-58.874 58.842,-58.874l104.994,-0c32.443,-0 58.81,26.399 58.81,58.874l0,73.95c29.612,5.567 58.938,13.455 87.659,23.537l37.023,-64.122c16.158,-28.117 52.227,-37.691 80.344,-21.501l90.903,52.449c28.117,16.221 37.755,52.29 21.565,80.375l-37.086,64.25c22.9,19.688 44.37,41.189 64.122,64.09l64.185,-37.087c28.117,-16.189 64.186,-6.52 80.376,21.565l52.481,90.904c7.888,13.581 9.955,29.421 5.884,44.656c-4.071,15.14 -13.804,27.831 -27.418,35.719l-64.09,37.023c10.115,28.689 18.003,58.079 23.569,87.595l73.95,-0c32.443,-0 58.811,26.399 58.811,58.874l-0,104.93c-0,32.443 -26.368,58.842 -58.811,58.842l-73.95,0c-5.566,29.581 -13.454,58.906 -23.569,87.691l64.09,37.023c28.118,16.19 37.755,52.227 21.534,80.344l-52.481,90.903c-16.222,28.117 -52.29,37.754 -80.376,21.533l-64.217,-37.086c-19.72,22.932 -41.19,44.434 -64.09,64.122l37.086,64.218c7.856,13.613 9.956,29.452 5.852,44.624c-4.071,15.204 -13.804,27.895 -27.417,35.719l-90.903,52.481c-28.022,16.285 -64.122,6.647 -80.344,-21.501l-37.023,-64.091c-28.785,10.115 -58.142,18.003 -87.659,23.537l0,73.919c0,32.443 -26.367,58.842 -58.81,58.842Z" style="fill-rule:nonzero;"/><path d="M914.44,1550.57c-210.782,-0 -381.679,-170.897 -381.679,-381.68c-0,-210.846 170.897,-381.679 381.679,-381.679c210.814,-0 381.68,170.833 381.68,381.679c-0,210.783 -170.866,381.68 -381.68,381.68Z" style="fill:#fff;fill-rule:nonzero;"/><path d="M914.44,811.005c-197.296,-0 -357.824,160.528 -357.824,357.824c-0,197.297 160.528,357.825 357.824,357.825c197.297,-0 357.825,-160.528 357.825,-357.825c-0,-197.296 -160.528,-357.824 -357.825,-357.824Zm0,763.358c-223.6,0 -405.534,-181.901 -405.534,-405.534c-0,-223.568 181.934,-405.534 405.534,-405.534c223.601,-0 405.535,181.966 405.535,405.534c-0,223.633 -181.934,405.534 -405.535,405.534Z" style="fill-rule:nonzero;"/><path d="M1184.83,1168.89c0,17.589 -14.249,31.807 -31.806,31.807c-17.558,-0 -31.807,-14.218 -31.807,-31.807c0,-17.589 14.249,-31.806 31.807,-31.806c17.557,-0 31.806,14.217 31.806,31.806Z" style="fill-rule:nonzero;"/><path d="M707.697,1168.89c0,17.589 -14.249,31.807 -31.806,31.807c-17.589,-0 -31.807,-14.218 -31.807,-31.807c0,-17.589 14.218,-31.806 31.807,-31.806c17.557,-0 31.806,14.217 31.806,31.806Z" style="fill-rule:nonzero;"/><path d="M914.631,1394.62c-56.107,-0 -105.471,-31.171 -125.827,-79.517c-5.089,-12.086 0.604,-26.081 12.754,-31.234c12.214,-5.089 26.146,0.636 31.235,12.723c12.659,30.152 45.547,50.318 81.838,50.318c48.123,-0 87.277,-34.511 87.277,-77.068c0,-35.178 -15.203,-77.099 -87.659,-77.099c-99.523,0 -134.987,-64.504 -134.987,-124.873c0,-68.83 60.56,-124.809 134.987,-124.809c56.139,-0 105.535,31.202 125.827,79.517c5.121,12.181 -0.604,26.145 -12.754,31.265c-12.118,5.153 -26.113,-0.636 -31.234,-12.754c-12.627,-30.121 -45.547,-50.318 -81.839,-50.318c-48.123,-0 -87.277,34.605 -87.277,77.099c0,35.21 15.14,77.163 87.277,77.163c99.81,0 135.369,64.472 135.369,124.809c0,68.83 -60.559,124.778 -134.987,124.778Z" style="fill-rule:nonzero;"/><path d="M914.249,990.776c-13.168,-0 -23.855,-10.687 -23.855,-23.855l0,-55.534c0,-13.168 10.687,-23.855 23.855,-23.855c13.168,-0 23.855,10.687 23.855,23.855l0,55.534c0,13.168 -10.687,23.855 -23.855,23.855Z" style="fill-rule:nonzero;"/><path d="M914.249,1450.19c-13.168,-0 -23.855,-10.687 -23.855,-23.855l0,-55.566c0,-13.168 10.687,-23.855 23.855,-23.855c13.168,-0 23.855,10.687 23.855,23.855l0,55.566c0,13.168 -10.687,23.855 -23.855,23.855Z" style="fill-rule:nonzero;"/></g></g></svg>