<?xml version="1.0" encoding="UTF-8" standalone="no"?><!DOCTYPE svg PUBLIC "-//W3C//DTD SVG 1.1//EN" "http://www.w3.org/Graphics/SVG/1.1/DTD/svg11.dtd"><svg width="100%" height="100%" viewBox="0 0 2084 2084" version="1.1" xmlns="http://www.w3.org/2000/svg" xmlns:xlink="http://www.w3.org/1999/xlink" xml:space="preserve" xmlns:serif="http://www.serif.com/" style="fill-rule:evenodd;clip-rule:evenodd;stroke-linejoin:round;stroke-miterlimit:2;"><rect id="画板1" x="0" y="0" width="2083.33" height="2083.33" style="fill:none;"/><g id="画板11" serif:id="画板1"><g><path d="M442.963,416.202l550.129,0c17.485,0 31.622,-14.23 31.622,-31.529c0,-17.486 -14.137,-31.622 -31.622,-31.622l-550.129,-0c-17.393,-0 -31.53,14.136 -31.53,31.622c0,17.299 14.137,31.529 31.53,31.529Z" style="fill:#0b0b16;fill-rule:nonzero;"/><path d="M629.067,639.23c0,17.485 14.044,31.623 31.529,31.623l672.154,-0c17.392,-0 31.529,-14.138 31.529,-31.623c-0,-17.392 -14.137,-31.622 -31.529,-31.622l-672.154,0c-17.485,0 -31.529,14.23 -31.529,31.622Z" style="fill:#0b0b16;fill-rule:nonzero;"/><path d="M1235.28,862.351l-574.684,0c-17.485,0 -31.529,14.138 -31.529,31.53c0,17.391 14.044,31.529 31.529,31.529l574.684,-0c17.392,-0 31.622,-14.138 31.622,-31.529c-0,-17.392 -14.23,-31.53 -31.622,-31.53Z" style="fill:#0b0b16;fill-rule:nonzero;"/><path d="M1132.23,1116.91l-471.633,0c-17.485,0 -31.529,14.138 -31.529,31.622c0,17.299 14.044,31.529 31.529,31.529l471.633,0c17.392,0 31.529,-14.23 31.529,-31.529c0,-17.484 -14.137,-31.622 -31.529,-31.622Z" style="fill:#0b0b16;fill-rule:nonzero;"/><path d="M816.567,1372.67l-155.971,-0c-17.485,-0 -31.529,14.044 -31.529,31.529c0,17.392 14.044,31.622 31.529,31.622l155.971,-0c17.392,-0 31.529,-14.23 31.529,-31.622c0,-17.485 -14.137,-31.529 -31.529,-31.529Z" style="fill:#0b0b16;fill-rule:nonzero;"/><path d="M809.592,1636.35l-148.996,-0c-17.485,-0 -31.529,14.136 -31.529,31.622c0,17.391 14.044,31.529 31.529,31.529l148.996,0c17.392,0 31.529,-14.138 31.529,-31.529c-0,-17.486 -14.137,-31.622 -31.529,-31.622Z" style="fill:#0b0b16;fill-rule:nonzero;"/><path d="M479.328,607.608l-36.365,0c-17.393,0 -31.53,14.23 -31.53,31.622c0,17.485 14.137,31.623 31.53,31.623l36.365,-0c17.485,-0 31.622,-14.138 31.622,-31.623c-0,-17.392 -14.137,-31.622 -31.622,-31.622Z" style="fill:#0b0b16;fill-rule:nonzero;"/><path d="M479.328,862.351l-36.365,0c-17.393,0 -31.53,14.138 -31.53,31.53c0,17.391 14.137,31.529 31.53,31.529l36.365,-0c17.485,-0 31.622,-14.138 31.622,-31.529c-0,-17.392 -14.137,-31.53 -31.622,-31.53Z" style="fill:#0b0b16;fill-rule:nonzero;"/><path d="M479.328,1116.91l-36.365,0c-17.393,0 -31.53,14.138 -31.53,31.622c0,17.299 14.137,31.529 31.53,31.529l36.365,0c17.485,0 31.622,-14.23 31.622,-31.529c-0,-17.484 -14.137,-31.622 -31.622,-31.622Z" style="fill:#0b0b16;fill-rule:nonzero;"/><path d="M479.328,1372.67l-36.365,-0c-17.393,-0 -31.53,14.044 -31.53,31.529c0,17.392 14.137,31.622 31.53,31.622l36.365,-0c17.485,-0 31.622,-14.23 31.622,-31.622c-0,-17.485 -14.137,-31.529 -31.622,-31.529Z" style="fill:#0b0b16;fill-rule:nonzero;"/><path d="M479.328,1636.35l-36.365,-0c-17.393,-0 -31.53,14.136 -31.53,31.622c0,17.391 14.137,31.529 31.53,31.529l36.365,0c17.485,0 31.622,-14.138 31.622,-31.529c-0,-17.486 -14.137,-31.622 -31.622,-31.622Z" style="fill:#0b0b16;fill-rule:nonzero;"/><path d="M1717.89,2005.95c-118.861,44.271 -250.557,-29.483 -251.859,-30.226l-15.626,-4.187l-14.23,3.349c-1.86,0.93 -186.941,91.983 -320.777,8.928c-98.307,-60.918 -147.6,-201.265 -146.67,-414.899c7.905,-109.932 45.573,-187.035 111.793,-228.98c136.905,-86.588 356.212,-3.349 358.445,-2.418l11.16,2.045l0.186,0.094l1.489,-0.094l3.348,-0.743l5.859,-1.024c2.883,-1.023 260.138,-90.959 384.672,26.973c-34.505,1.953 -64.825,13.299 -90.494,33.76c-72.266,57.571 -83.147,169.364 -83.147,230.748c-0,74.869 29.017,142.579 79.52,185.826c31.064,26.507 68.731,41.946 108.631,45.2c-34.692,74.499 -82.404,123.42 -142.3,145.648Zm-1515.07,-104.817l-0,-1837.98l1017.02,0l-0,321.522c-0,17.299 14.137,31.529 31.529,31.529l321.614,0l0,300.688c-68.452,20.648 -126.116,56.083 -162.481,103.981c-42.69,56.361 -50.316,122.86 -22.787,189.453c-18.508,21.019 -32.366,46.037 -40.55,72.638c-21.205,-12.557 -41.481,-20.835 -57.943,-25.298c-16.834,-4.65 -33.947,5.394 -38.597,22.042c-4.651,16.835 5.301,34.226 22.042,38.783c5.022,1.489 110.491,32.459 139.137,143.974c-81.008,-22.508 -243.769,-52.455 -364.955,24.089c-84.171,53.106 -131.604,146.669 -141.09,280.04c-0.744,139.23 19.252,250.837 59.245,334.543l-762.184,-0Zm1325.52,-1548.08l-245.349,-0l-0,-245.35l245.349,245.35Zm255.767,410.714c-42.411,80.357 -160.342,264.508 -336.868,226.283c-20.833,-47.526 -16.369,-91.517 13.486,-131.045c57.292,-75.334 188.895,-113.002 323.382,-95.238Zm-211.124,483.073c-38.597,5.488 -71.986,13.392 -95.796,19.996c-11.254,-61.011 -40.178,-107.328 -74.126,-140.81c2.79,-27.531 14.509,-53.758 33.297,-74.405c19.81,4.092 39.248,6.697 58.035,6.697c27.437,-0 53.479,-4.559 78.59,-11.999l0,200.521Zm335.008,548.362l-7.906,0.652c-40.736,6.417 -78.032,-3.534 -107.422,-28.74c-35.993,-30.784 -57.478,-82.309 -57.478,-137.834c0,-85.193 21.671,-151.32 59.245,-181.361c25.67,-20.462 59.617,-25.392 103.609,-15.347l12.742,1.209c10.974,0.186 21.856,-5.022 27.994,-14.322c6.046,-9.487 6.604,-21.485 1.582,-31.436c-63.895,-126.024 -193.081,-151.879 -304.223,-146.949l0,-221.541c111.235,-61.848 189.546,-184.709 223.679,-267.671c3.628,-8.649 3.163,-18.415 -1.209,-26.692c-4.371,-8.278 -12.183,-14.23 -21.298,-16.184c-68.824,-14.88 -137.928,-16.276 -201.172,-6.324l0,-317.987l-0.465,-2.139l-1.581,-7.998l-1.023,-2.976l-6.231,-9.208l-353.051,-353.051l-9.301,-6.231l-2.976,-1.024l-8.091,-1.673l-2.046,-0.373l-1080.17,0c-17.392,0 -31.622,14.044 -31.622,31.529l0,1901.23c0,17.392 14.23,31.53 31.622,31.53l831.752,-0c22.414,29.855 48.828,54.408 79.148,73.102c140.439,87.24 315.29,23.345 367.373,0.93c30.227,14.695 102.4,45.015 185.547,45.015c33.668,0 69.196,-4.93 104.353,-17.951c89.471,-33.016 156.25,-109.84 198.196,-227.956c3.627,-9.859 1.953,-20.647 -4,-29.111c-5.952,-8.185 -15.532,-13.115 -25.576,-13.115Z" style="fill:#0b0b16;fill-rule:nonzero;"/><path d="M1214.45,1405.13c-49.665,6.789 -134.393,37.853 -143.973,172.061c-0.279,59.616 7.162,109.84 22.136,149.46c4.743,12.557 16.834,20.276 29.483,20.276l11.253,-1.953c16.276,-6.232 24.554,-24.461 18.322,-40.737c-12.276,-32.273 -18.322,-74.963 -18.136,-124.628c4.929,-68.731 33.389,-104.26 89.472,-111.98c17.206,-2.324 29.297,-18.229 26.972,-35.435c-2.419,-17.392 -18.322,-29.483 -35.529,-27.064Z" style="fill:#0b0b16;fill-rule:nonzero;"/></g></g></svg>