<?xml version="1.0" encoding="UTF-8" standalone="no"?><!DOCTYPE svg PUBLIC "-//W3C//DTD SVG 1.1//EN" "http://www.w3.org/Graphics/SVG/1.1/DTD/svg11.dtd"><svg width="100%" height="100%" viewBox="0 0 2084 2084" version="1.1" xmlns="http://www.w3.org/2000/svg" xmlns:xlink="http://www.w3.org/1999/xlink" xml:space="preserve" xmlns:serif="http://www.serif.com/" style="fill-rule:evenodd;clip-rule:evenodd;stroke-linejoin:round;stroke-miterlimit:2;"><rect id="画板1" x="0" y="0" width="2083.33" height="2083.33" style="fill:none;"/><clipPath id="_clip1"><rect id="画板11" serif:id="画板1" x="0" y="0" width="2083.33" height="2083.33"/></clipPath><g clip-path="url(#_clip1)"><g><path d="M1909.75,799.679l-749.735,0l-0,-272.603l749.735,-0l102.494,136.253l-102.494,136.35Zm-284.139,232.429l102.59,136.254l-102.59,136.447l-465.596,-0l-0,-272.701l465.596,0Zm-639.243,840.791l0,-1502.45c17.485,5.393 36.087,8.277 55.246,8.277c19.25,-0 37.762,-2.884 55.247,-8.277l-0,1502.45l-110.493,-0Zm533.956,105.19l0,42.133l-962.721,-0l-0,-42.133c-0,-23.155 18.881,-42.036 42.036,-42.036l878.649,-0c23.252,-0 42.036,18.881 42.036,42.036Zm-1346.75,-515.45l-102.585,-136.253l102.585,-136.447l749.644,0l0,272.7l-749.644,0Zm189.365,-662.96l-102.494,-136.35l102.494,-136.253l560.279,-0l0,272.603l-560.279,0Zm678.679,-736.531c69.666,0 126.303,56.643 126.303,126.212c-0,69.665 -56.637,126.307 -126.303,126.307c-69.568,0 -126.211,-56.642 -126.211,-126.307c0,-69.569 56.643,-126.212 126.211,-126.212Zm1035.37,581.209l-126.308,-167.975c-5.949,-7.811 -15.344,-12.551 -25.204,-12.551l-765.454,-0l-0,-126.773c43.245,-34.878 71.056,-87.985 71.056,-147.698c-0,-104.447 -85.01,-189.36 -189.457,-189.36c-104.355,-0 -189.365,84.913 -189.365,189.36c0,59.713 27.72,112.82 70.965,147.698l0,126.773l-575.998,-0c-9.951,-0 -19.25,4.74 -25.204,12.551l-126.308,167.975c-8.459,11.252 -8.459,26.693 -0,37.95l126.308,167.969c5.954,7.811 15.253,12.557 25.204,12.557l575.998,0l0,263.958l-765.454,0c-9.86,0 -19.255,4.74 -25.205,12.648l-126.211,167.879c-8.464,11.257 -8.464,26.692 0,37.949l126.211,167.879c5.95,7.998 15.345,12.557 25.205,12.557l765.454,-0l0,347.196l-323.575,-0c-58.033,-0 -105.19,47.247 -105.19,105.19l-0,73.667c-0,17.485 14.135,31.62 31.528,31.62l1025.97,-0c17.394,-0 31.438,-14.135 31.438,-31.62l0,-73.667c0,-57.943 -47.066,-105.19 -105.099,-105.19l-318.273,-0l-0,-505.033l481.315,-0c9.86,-0 19.346,-4.649 25.205,-12.557l126.308,-167.879c8.458,-11.251 8.458,-26.783 -0,-38.04l-126.308,-167.788c-5.859,-7.998 -15.345,-12.557 -25.205,-12.557l-481.315,0l-0,-106.212l765.454,0c9.86,0 19.255,-4.746 25.204,-12.557l126.308,-167.969c8.464,-11.257 8.464,-26.698 0,-37.95Z" style="fill:#0b0b16;fill-rule:nonzero;"/></g></g></svg>