<?xml version="1.0" encoding="UTF-8" standalone="no"?><!DOCTYPE svg PUBLIC "-//W3C//DTD SVG 1.1//EN" "http://www.w3.org/Graphics/SVG/1.1/DTD/svg11.dtd"><svg width="100%" height="100%" viewBox="0 0 2084 2084" version="1.1" xmlns="http://www.w3.org/2000/svg" xmlns:xlink="http://www.w3.org/1999/xlink" xml:space="preserve" xmlns:serif="http://www.serif.com/" style="fill-rule:evenodd;clip-rule:evenodd;stroke-linejoin:round;stroke-miterlimit:2;"><rect id="画板1" x="0" y="0" width="2083.33" height="2083.33" style="fill:none;"/><g id="画板11" serif:id="画板1"><g><path d="M1420.48,586.358c-172.154,-196.241 -472.005,-215.774 -668.155,-43.432c-13.207,11.439 -14.416,31.432 -2.976,44.454c11.533,13.113 31.529,14.322 44.55,2.884c170.108,-149.273 429.873,-132.255 579.148,37.851c6.231,7.068 14.881,10.695 23.716,10.695l20.741,-7.811c13.113,-11.529 14.508,-31.528 2.976,-44.641Z" style="fill:#0b0b16;fill-rule:nonzero;"/><path d="M856.399,661.415c-13.114,11.529 -14.416,31.528 -2.883,44.641c11.439,13.022 31.342,14.418 44.457,2.883c104.724,-91.796 264.601,-81.471 356.398,23.252c6.232,7.067 15.067,10.695 23.81,10.695l20.74,-7.811c13.114,-11.535 14.416,-31.438 2.883,-44.551c-114.769,-130.857 -314.639,-143.789 -445.405,-29.109Z" style="fill:#0b0b16;fill-rule:nonzero;"/><path d="M1064.55,977.541c-43.434,-0 -78.869,-35.252 -78.869,-78.775c-0,-43.528 35.435,-78.962 78.869,-78.962c43.527,-0 78.962,35.434 78.962,78.962c0,43.523 -35.435,78.775 -78.962,78.775Zm-0,-220.89c-78.311,0 -142.02,63.709 -142.02,142.115c0,78.309 63.709,142.018 142.02,142.018c78.311,-0 142.113,-63.709 142.113,-142.018c0,-78.406 -63.802,-142.115 -142.113,-142.115Z" style="fill:#0b0b16;fill-rule:nonzero;"/><path d="M1064.55,867.141c-17.392,0 -31.529,14.135 -31.529,31.625c0,17.387 14.137,31.528 31.529,31.528c17.485,-0 31.622,-14.141 31.622,-31.528c-0,-17.49 -14.137,-31.625 -31.622,-31.625Z" style="fill:#0b0b16;fill-rule:nonzero;"/><path d="M2020.18,1666.62c0,151.51 -123.326,274.835 -274.832,274.835l-148.531,-0c-193.731,-0 -351.47,-157.743 -351.47,-351.566l0,-175.964c0,-33.946 20.555,-64.083 47.713,-69.942l12.09,-1.3c12.556,0 24.647,4.184 34.785,12.551c15.718,12.557 25.111,33.112 25.111,54.876l0,165.088c0,30.223 11.068,58.685 30.971,80.353l36.552,39.526c6.231,6.795 14.695,10.235 23.251,10.235l21.391,-8.373c12.835,-11.904 13.579,-31.806 1.768,-44.737l-36.645,-39.527c-8.928,-9.763 -14.044,-23.433 -14.044,-37.477l-0.092,-164.9l0.092,-0.188l0,-387.555c0,-25.579 17.206,-48.086 39.993,-52.645c15.439,-2.878 30.506,0.84 42.225,10.604c11.16,9.208 17.671,22.417 18.322,36.648l-0,299.199c-0,17.484 14.137,31.528 31.622,31.528c17.392,-0 31.529,-14.044 31.529,-31.528l-0,-419.645c-0,-13.857 5.58,-26.879 15.718,-36.456c10.137,-9.582 23.158,-14.509 37.388,-13.862c26.135,1.396 47.526,26.044 47.526,54.876l0,440.569c0,17.393 14.137,31.528 31.529,31.528c17.485,0 31.622,-14.044 31.622,-31.528l0,-401.786c0,-13.857 5.581,-26.879 15.625,-36.456c10.138,-9.673 23.438,-14.696 37.389,-13.765c26.321,1.3 47.619,25.857 47.619,54.688l-0,422.898c-0,17.388 14.044,31.528 31.529,31.528c17.485,0 31.622,-14.14 31.622,-31.528l-0,-304.222c-0,-13.953 5.58,-26.975 15.718,-36.461c10.044,-9.673 23.065,-14.788 37.388,-13.857c26.228,1.397 47.526,25.948 47.526,54.78l0,598.958Zm-1809.9,-1217.54l0,-157.833l94.68,0l0,157.833l-94.68,0Zm451.823,530.691c0,-17.484 14.137,-31.618 31.529,-31.618l63.151,-0c17.3,-0 31.529,14.134 31.529,31.618c0,17.394 -14.229,31.529 -31.529,31.529l-63.151,-0c-17.392,-0 -31.529,-14.135 -31.529,-31.529Zm702.939,316.223c-25.576,-15.066 -55.896,-19.999 -85.472,-13.675c-56.362,12.279 -97.284,67.614 -97.284,131.607l-0,39.805c-38.04,8.276 -77.288,13.209 -117.746,13.209c-291.388,0 -532.087,-220.798 -564.174,-503.818c31.157,15.071 64.639,26.697 100.446,34.599c8.371,43.619 46.782,76.731 92.82,76.731l63.151,0c52.177,0 94.681,-42.501 94.681,-94.681c-0,-52.27 -42.504,-94.771 -94.681,-94.771l-63.151,0c-36.179,0 -67.243,20.646 -83.147,50.409c-41.76,-9.673 -79.334,-25.579 -113.56,-46.594c5.301,-308.69 257.719,-558.32 567.615,-558.32c274.647,0 503.069,196.151 555.525,455.363c-20.741,4.274 -40.086,13.669 -55.804,28.735c-22.508,21.299 -35.342,51.248 -35.435,82.124l-0,20.929c-22.136,-10.882 -47.433,-14.322 -72.545,-9.673c-52.827,10.321 -91.239,58.407 -91.239,114.583l0,273.438Zm-1207.22,359.467c-52.269,0 -94.773,-42.507 -94.773,-94.771l-0,-1323.94c-0,-52.265 42.504,-94.772 94.773,-94.772l1576.27,0c52.176,0 94.68,42.507 94.68,94.772l0,592.634l-16.741,-2.696c-25.205,-1.118 -49.107,5.489 -69.383,19.255c-12.462,-24.46 -33.017,-43.528 -57.942,-54.041c-50.874,-297.149 -308.594,-524.459 -620.164,-524.459c-328.683,0 -599.33,252.696 -628.348,574.129l-14.881,-13.862c-82.682,-89.47 -117.746,-213.822 -132.255,-315.473l47.526,-0c17.393,-0 31.529,-14.232 31.529,-31.625l0,-220.98c0,-17.484 -14.136,-31.528 -31.529,-31.528l-157.831,0c-17.485,0 -31.529,14.044 -31.529,31.528l0,220.98c0,17.393 14.044,31.625 31.529,31.625l46.131,-0c14.974,112.442 53.386,253.626 149.926,358.07c18.415,19.999 38.504,37.483 59.803,53.105c13.114,336.687 290.271,606.588 629.929,606.588c40.365,0 79.613,-4.184 117.746,-11.716l-0,71.61c-0,22.417 2.232,44.182 5.673,65.571l-1030.13,0Zm1818.08,-705.543c-19.811,-1.118 -39.156,2.975 -56.362,11.626l-0,-17.019c-0,-29.206 -10.51,-55.994 -27.716,-76.64l-0,-631.139c-0,-87.052 -70.777,-157.924 -157.738,-157.924l-1576.27,-0c-87.053,-0 -157.831,70.872 -157.831,157.924l0,1323.94c0,87.051 70.778,157.827 157.831,157.827l1045.11,0c54.222,165.832 210.193,285.995 393.88,285.995l148.531,-0c186.384,-0 337.983,-151.504 337.983,-337.891l0,-598.958c0,-62.965 -47.154,-114.674 -107.421,-117.745Z" style="fill:#0b0b16;fill-rule:nonzero;"/><path d="M315.662,1497.63l-94.68,0l0,-94.771l94.68,-0l0,94.771Zm0,-157.827l-94.68,-0c-34.877,-0 -63.151,28.366 -63.151,63.056l-0,94.771c-0,34.69 28.274,63.062 63.151,63.062l94.68,-0c34.784,-0 63.058,-28.372 63.058,-63.062l0,-94.771c0,-34.69 -28.274,-63.056 -63.058,-63.056Z" style="fill:#0b0b16;fill-rule:nonzero;"/><path d="M315.662,1181.88l-94.68,-0l0,-94.681l94.68,0l0,94.681Zm0,-157.833l-94.68,-0c-34.877,-0 -63.151,28.366 -63.151,63.152l-0,94.681c-0,34.78 28.274,63.147 63.151,63.147l94.68,-0c34.784,-0 63.058,-28.367 63.058,-63.147l0,-94.681c0,-34.786 -28.274,-63.152 -63.058,-63.152Z" style="fill:#0b0b16;fill-rule:nonzero;"/></g></g></svg>