<?xml version="1.0" encoding="UTF-8" standalone="no"?><!DOCTYPE svg PUBLIC "-//W3C//DTD SVG 1.1//EN" "http://www.w3.org/Graphics/SVG/1.1/DTD/svg11.dtd"><svg width="100%" height="100%" viewBox="0 0 2084 2084" version="1.1" xmlns="http://www.w3.org/2000/svg" xmlns:xlink="http://www.w3.org/1999/xlink" xml:space="preserve" xmlns:serif="http://www.serif.com/" style="fill-rule:evenodd;clip-rule:evenodd;stroke-linejoin:round;stroke-miterlimit:2;"><rect id="画板1" x="0" y="0" width="2083.33" height="2083.33" style="fill:none;"/><clipPath id="_clip1"><rect id="画板11" serif:id="画板1" x="0" y="0" width="2083.33" height="2083.33"/></clipPath><g clip-path="url(#_clip1)"><g><path d="M1872.58,1814.45c-49.574,36.456 -270.554,179.592 -709.732,202.474c-18.506,1.113 -37.477,1.766 -59.894,2.509c-9.673,0.188 -19.811,0.188 -29.762,0.278l-0,-425.224c61.199,-51.334 241.909,-209.445 282.088,-316.313c29.388,5.489 58.685,11.444 87.517,18.977c26.879,6.88 55.057,15.156 88.725,25.947c62.409,20.181 120.725,43.342 173.087,68.637c111.42,54.035 167.971,101.288 167.971,209.263l-0,213.452Zm-895.278,204.796c-19.346,-0.556 -38.226,-1.209 -56.919,-2.322c-437.22,-22.695 -659.693,-166.206 -709.636,-202.57l0,-213.447c0,-107.884 56.551,-155.137 168.063,-209.172c52.083,-25.108 110.121,-48.269 172.433,-68.358c33.39,-10.786 61.478,-19.068 90.031,-26.414c28.644,-7.345 57.663,-13.391 86.773,-18.789c39.992,106.771 220.889,264.882 282.089,316.313l-0,425.224c-9.951,-0.09 -19.999,-0.09 -29.672,-0.278l-3.162,-0.187Zm-119.323,-899.456c57.476,31.897 119.976,48.921 183.407,48.921c63.334,0 125.93,-17.024 183.406,-49.017c12.46,43.341 34.69,89.191 74.034,131.885c-16.371,62.125 -150.578,196.428 -257.162,286.828c-106.681,-90.587 -241.257,-225.26 -257.254,-287.294c38.874,-42.228 61.194,-88.078 73.569,-131.323Zm-191.41,-370.633c-2.322,-9.207 -8.554,-16.831 -17.206,-20.833l-13.391,-2.974l-13.578,3.071l-3.35,1.022l-12.46,-5.49c-13.209,-10.785 -29.95,-38.97 -33.855,-82.776c-5.115,-57.476 16.831,-95.237 30.319,-96.634l4.093,0.841c9.576,2.883 19.993,1.118 27.991,-4.837c8.095,-5.955 12.931,-15.253 12.931,-25.391c0,-9.486 0.188,-18.694 0.466,-27.714c0.834,-35.064 3.627,-67.711 7.998,-98.217c95.981,46.316 217.165,71.617 341.143,76.64c29.672,53.105 86.495,89.192 151.6,89.192c78.774,-0 145.367,-52.736 166.484,-124.812c39.248,-10.979 76.26,-24.461 110.115,-40.645c3.627,25.295 6.324,51.521 7.629,79.796c0.648,14.884 1.113,29.95 1.113,45.76c0,10.138 4.837,19.436 12.931,25.391c7.999,6.046 18.506,7.624 28.088,4.837l3.997,-0.841c13.578,1.493 35.433,39.254 30.319,96.634c-3.906,43.806 -20.646,71.991 -33.85,82.776l-12.369,5.49l-3.446,-1.022c-8.646,-4.093 -18.506,-4.093 -27.061,-0.097c-8.56,4.002 -14.793,11.626 -17.206,20.833c-31.624,124.722 -97.382,228.519 -185.086,292.228c-115.695,84.076 -263.855,83.889 -379.46,-0.188c-87.613,-63.709 -153.274,-167.506 -184.899,-292.04Zm593.191,-367.652c-0,60.922 -49.569,110.496 -110.49,110.496c-60.916,-0 -110.49,-49.574 -110.49,-110.496c-0,-60.916 49.574,-110.49 110.49,-110.49c60.921,0 110.49,49.574 110.49,110.49Zm-218.374,-318.357c206.47,0 327.473,84.73 372.579,263.952l-7.72,2.044c-25.948,13.113 -54.689,23.717 -84.445,33.39c-9.492,-86.96 -83.243,-154.671 -172.53,-154.671c-95.702,-0 -173.546,77.94 -173.546,173.642l1.391,20.93c-109.746,-6.789 -215.956,-30.972 -300.033,-73.291l-8.095,-2.231c45.294,-178.848 166.11,-263.765 372.399,-263.765Zm690.754,1271.85c-54.967,-26.6 -115.979,-50.783 -181.272,-71.894c-34.78,-11.348 -64.174,-19.812 -92.353,-27.157c-35.711,-9.208 -72.172,-16.275 -108.815,-22.695c-40.645,-42.127 -60.359,-88.726 -69.385,-130.761c86.778,-67.62 153.274,-169.09 189.27,-290.087c16.366,-1.022 32.271,-7.721 46.781,-19.624c30.506,-25.392 51.617,-72.36 56.454,-126.022c7.346,-82.22 -24.648,-149.465 -75.522,-163.044l-0.744,-17.109c-13.856,-309.62 -167.04,-466.613 -455.168,-466.613c-293.527,-0 -446.893,162.76 -455.919,483.722c-50.965,13.579 -82.958,80.824 -75.612,163.044c4.745,53.662 25.947,100.63 56.55,126.022c14.322,11.903 30.222,18.602 46.594,19.624c36.086,120.997 102.491,222.376 189.264,290.087c-8.923,42.222 -28.644,88.816 -69.101,130.67c-36.734,6.511 -73.382,13.857 -109.372,22.973c-28.088,7.346 -57.385,15.997 -91.984,27.157c-65.105,21.112 -125.839,45.203 -180.619,71.707c-102.957,49.943 -203.586,111.518 -203.586,265.905l-0,228.887c-0,9.117 3.996,17.95 10.973,23.904c9.394,8.09 235.585,199.029 758.556,226.373c19.158,0.931 38.595,1.675 58.407,2.237l3.162,0.181c20.645,0.562 41.575,0.84 62.965,0.84c21.486,0 42.41,-0.278 62.965,-0.84l3.162,-0.181c19.811,-0.562 39.248,-1.306 58.407,-2.237c523.067,-27.344 749.257,-218.283 758.556,-226.373c6.976,-5.954 10.973,-14.787 10.973,-23.904l-0,-228.796c-0,-154.478 -100.63,-216.053 -203.587,-265.996Z" style="fill:#0b0b16;fill-rule:nonzero;"/><path d="M1611.79,1654.76c-78.775,25.67 -164.713,45.482 -255.675,58.969c-17.206,2.509 -29.11,18.602 -26.504,35.899c2.321,15.719 15.809,26.97 31.153,26.97l4.746,-0.369c94.305,-14.141 183.684,-34.787 265.717,-61.291c16.649,-5.489 25.669,-23.251 20.277,-39.81c-5.302,-16.644 -23.161,-25.67 -39.714,-20.368Z" style="fill:#0b0b16;fill-rule:nonzero;"/><path d="M1117.75,381.509c-0,17.393 14.044,31.625 31.528,31.625c17.393,-0 31.624,-14.232 31.624,-31.625c0,-17.387 -14.231,-31.528 -31.624,-31.528c-17.484,0 -31.528,14.141 -31.528,31.528Z" style="fill:#0b0b16;fill-rule:nonzero;"/><path d="M718.19,1621.74l-63.244,0l0,-63.152c0,-17.394 -14.043,-31.528 -31.528,-31.528c-17.393,-0 -31.527,14.134 -31.527,31.528l-0,63.152l-63.153,0c-17.484,0 -31.528,14.135 -31.528,31.528c0,17.484 14.044,31.715 31.528,31.715l63.153,0l-0,63.056c-0,17.394 14.134,31.534 31.527,31.534c17.485,0 31.528,-14.14 31.528,-31.534l0,-63.056l63.244,0c17.393,0 31.533,-14.231 31.533,-31.715c0,-17.393 -14.14,-31.528 -31.533,-31.528Z" style="fill:#0b0b16;fill-rule:nonzero;"/></g></g></svg>