<?xml version="1.0" encoding="UTF-8" standalone="no"?><!DOCTYPE svg PUBLIC "-//W3C//DTD SVG 1.1//EN" "http://www.w3.org/Graphics/SVG/1.1/DTD/svg11.dtd"><svg width="100%" height="100%" viewBox="0 0 2084 2084" version="1.1" xmlns="http://www.w3.org/2000/svg" xmlns:xlink="http://www.w3.org/1999/xlink" xml:space="preserve" xmlns:serif="http://www.serif.com/" style="fill-rule:evenodd;clip-rule:evenodd;stroke-linejoin:round;stroke-miterlimit:2;"><rect id="画板1" x="0" y="0" width="2083.33" height="2083.33" style="fill:none;"/><g id="画板11" serif:id="画板1"><g><path d="M1972.99,872.608c-75.145,218.001 -231.022,452.557 -439.163,660.7c-424.194,424.19 -932.457,606.292 -1132.79,405.775l-57.946,-57.941c13.21,2.418 26.879,4.185 41.019,4.372l6.88,0.186c99.793,0 124.809,-54.873 143.042,-95.144c14.322,-31.621 21.946,-45.85 50.964,-50.407c64.36,-10.139 85.38,11.811 111.975,39.713c31.345,33.016 70.593,73.752 167.78,45.85c137.366,-39.341 156.99,-120.254 172.617,-185.264c11.626,-48.641 20.646,-86.959 71.331,-115.883c61.108,-34.597 111.515,-25.669 160.435,-16.926c59.706,10.602 127.506,22.693 185.264,-62.034c57.566,-84.727 38.692,-139.227 23.62,-183.032c-13.481,-39.526 -23.251,-68.079 18.137,-126.392c50.316,-70.776 95.978,-77.007 148.622,-84.262c59.802,-8.276 127.693,-17.577 184.333,-125.648c47.621,-90.306 14.044,-165.825 -10.507,-220.884c-27.809,-62.313 -39.253,-88.354 24.364,-125.741c38.316,-22.507 62.498,-63.057 68.078,-114.302c3.815,-32.366 0,-67.242 -9.951,-103.328l38.504,38.412c94.122,94.119 105.929,261.712 33.389,472.18Zm-1862.77,337.139c75.236,-217.815 231.204,-452.557 439.254,-660.7c208.333,-208.05 442.796,-364.11 660.984,-439.35c210.184,-72.45 377.873,-60.452 471.899,33.667l32.736,32.458c107.888,113.745 140.437,218.932 133.273,282.547c-2.321,21.948 -10.881,51.337 -37.385,66.963c-112.253,65.94 -77.751,143.411 -49.942,205.631c23.438,52.826 45.571,102.676 12.369,166.011c-41.665,79.24 -81.753,84.82 -137.366,92.447c-55.527,7.626 -125.184,17.299 -191.218,110.209c-60.359,84.728 -41.479,139.414 -26.413,183.497c13.674,39.62 23.625,68.358 -16.275,126.95c-34.598,50.966 -65.66,45.48 -121.926,35.435c-54.5,-9.766 -122.022,-21.67 -202.566,24.181c-74.402,42.317 -89.002,102.862 -101.655,156.06c-14.787,61.476 -26.594,110.117 -128.436,139.32c-60.915,17.579 -77.377,0.186 -104.817,-28.738c-29.665,-31.063 -70.122,-73.659 -167.684,-58.407c-63.798,10.045 -83.887,54.315 -98.493,86.587c-16.831,37.109 -26.504,59.43 -90.767,57.942c-70.684,-1.675 -132.439,-38.876 -175.501,-74.032l-66.5,-66.497c-94.026,-94.12 -105.839,-261.807 -33.571,-472.181Zm1874.03,-853.869l-225.068,-224.977c-10.138,-10.602 -20.458,-21.204 -31.527,-31.713l-0.744,-0.559l0,-0.186l-0.556,-0.464l-0.187,-0.094c-112.072,-111.326 -302.45,-128.346 -536.447,-47.711c-226.839,78.123 -470.044,239.579 -684.786,454.232c-214.844,214.838 -376.018,457.95 -454.143,684.88c-80.448,232.882 -63.708,422.703 46.133,534.959c4.371,5.394 30.227,37.76 72.358,72.45l187.03,187.123c67.613,67.335 161.735,99.515 272.875,99.515c265.524,0 627.215,-183.589 949.288,-505.477c214.748,-214.653 376.018,-457.857 454.138,-684.695c80.822,-234.369 63.52,-425.213 -48.364,-537.283Z" style="fill:#0b0b16;fill-rule:nonzero;"/><path d="M673.356,1079.63c33.576,0 72.449,-10.974 104.629,-46.594c27.622,-30.691 29.762,-61.662 31.527,-86.68c1.862,-27.064 3.719,-50.501 36.364,-83.145c30.506,-30.599 63.804,-38.318 98.862,-46.688c27.253,-6.417 55.528,-13.114 82.031,-30.32c31.806,-20.74 65.473,-61.383 58.503,-139.134c35.62,-5.673 63.242,-1.115 78.863,14.509c18.511,18.507 21.951,53.757 10.882,98.398c-80.073,28.738 -169.637,88.633 -247.762,166.756c-78.121,78.123 -137.832,167.314 -166.754,247.577c-44.645,11.346 -79.891,7.812 -98.402,-10.696c-16.552,-16.462 -21.111,-47.339 -13.481,-86.215c7.81,1.209 15.996,2.232 24.738,2.232Zm340.392,-66.405c-54.313,54.222 -112.997,98.306 -169.637,127.881c29.574,-56.36 73.749,-115.51 127.693,-169.732c54.313,-54.221 113.649,-98.398 170.199,-127.973c-27.997,53.198 -70.497,112.07 -128.255,169.824Zm-299.748,230.743c24.181,0 51.06,-4.557 79.607,-13.486l1.771,-0.557l22.507,-7.627c79.051,-29.946 164.432,-88.353 240.321,-164.43c168.802,-168.524 233.441,-358.158 150.388,-441.025c-25.204,-25.389 -74.402,-50.129 -164.71,-25.483l-0.187,-0l-0.188,0.094l-1.952,0.371l-4.558,2.325l-5.671,2.884l-4.184,4.277l-4.002,4.464l-2.14,5.674l-2.043,5.58l0.187,6.417l-0,5.023c10.416,51.244 1.3,86.493 -26.878,104.815c-17.206,11.254 -37.948,16.182 -62.13,21.856c-38.129,8.928 -85.749,20.089 -128.902,63.429c-49.295,49.384 -52.36,92.073 -54.687,123.322c-1.488,23.251 -2.975,34.971 -15.622,49.014c-37.295,41.386 -86.124,21.391 -91.795,18.88l-1.771,-0.465l-1.856,-0.931l-4.189,-0.464l-6.324,-0.652l-5.58,0.838l-6.227,1.86l-4.746,2.882l-4.836,3.814l-3.44,4.93l-2.606,3.44l-0.556,2.14l-1.027,1.673c-24.551,77.287 -16.922,140.994 21.394,179.312c23.62,23.809 56.641,35.806 96.632,35.806Z" style="fill:#0b0b16;fill-rule:nonzero;"/><path d="M286.553,1184.91l17.296,-5.208l117.93,-77.193c14.509,-9.487 18.511,-29.111 9.02,-43.712c-9.389,-14.509 -29.013,-18.694 -43.71,-9.022l-117.742,77.194c-14.696,9.487 -18.692,29.017 -9.303,43.618c6.232,9.207 16.183,14.323 26.509,14.323Z" style="fill:#0b0b16;fill-rule:nonzero;"/><path d="M256.047,1450.16c5.858,10.51 16.371,16.276 27.622,16.276l15.253,-3.999c15.253,-8.556 20.742,-27.807 12.182,-43.06l-63.242,-113.279c-8.464,-15.159 -27.531,-20.647 -42.875,-12.183c-15.253,8.463 -20.645,27.715 -12.091,42.874l63.151,113.371Z" style="fill:#0b0b16;fill-rule:nonzero;"/><path d="M536.921,1321.35l-107.235,-68.358c-14.697,-9.208 -34.133,-4.929 -43.34,9.765c-9.486,14.695 -5.115,34.132 9.576,43.433l107.235,68.358l16.837,4.929c10.507,-0 20.736,-5.208 26.69,-14.695c9.486,-14.694 5.115,-34.132 -9.763,-43.432Z" style="fill:#0b0b16;fill-rule:nonzero;"/><path d="M444.661,903.114l15.434,3.999c10.882,-0 21.764,-5.766 27.44,-16.09l83.888,-150.852c8.373,-15.253 3.071,-34.505 -12.182,-42.969c-15.253,-8.37 -34.508,-2.975 -43.062,12.184l-83.888,150.945c-8.372,15.253 -2.883,34.505 12.37,42.783Z" style="fill:#0b0b16;fill-rule:nonzero;"/><path d="M738.925,771.42l1.578,0.092c16.74,0 30.506,-12.927 31.437,-29.854l6.88,-129.461c0.931,-17.485 -12.273,-32.273 -29.757,-33.296c-17.767,-1.115 -32.18,12.557 -33.207,29.854l-6.789,129.648c-1.022,17.392 12.369,32.272 29.858,33.017Z" style="fill:#0b0b16;fill-rule:nonzero;"/><path d="M903.073,531.19l13.487,3.07c11.813,-0 23.251,-6.789 28.553,-18.229l53.944,-115.325c7.436,-15.811 0.465,-34.505 -15.162,-41.944c-15.718,-7.255 -34.689,-0.559 -42.131,15.251l-53.944,115.233c-7.249,15.903 -0.369,34.597 15.253,41.944Z" style="fill:#0b0b16;fill-rule:nonzero;"/><path d="M1173.9,475.203l104.629,37.573l10.785,1.86c12.835,0 25.017,-7.998 29.575,-20.926c5.955,-16.369 -2.509,-34.319 -19.062,-40.271l-104.448,-37.666c-16.552,-5.86 -34.501,2.697 -40.547,18.972c-5.767,16.462 2.787,34.505 19.068,40.458Z" style="fill:#0b0b16;fill-rule:nonzero;"/><path d="M1332.85,301.936l8.929,-1.301l125.74,-36.552c16.462,-4.742 26.135,-22.321 21.389,-38.969c-4.927,-16.74 -22.32,-26.413 -39.247,-21.484l-125.462,36.365c-16.928,4.837 -26.413,22.322 -21.667,39.155c4.183,13.672 16.74,22.786 30.318,22.786Z" style="fill:#0b0b16;fill-rule:nonzero;"/><path d="M1465.84,400.706c-0.375,17.392 13.487,31.808 30.88,32.18l131.133,2.604l0.743,-0c17.115,-0 31.25,-13.672 31.624,-30.971c0.369,-17.298 -13.487,-31.807 -30.88,-32.179l-131.32,-2.604c-17.859,0.278 -31.806,13.578 -32.18,30.97Z" style="fill:#0b0b16;fill-rule:nonzero;"/><path d="M1513.64,569.88c-8.555,-15.345 -27.804,-20.553 -42.875,-11.997c-15.253,8.463 -20.549,27.715 -11.995,42.968l72.45,128.252c5.858,10.323 16.552,16.09 27.622,16.09l15.44,-4.093c15.252,-8.463 20.554,-27.807 11.994,-43.06l-72.636,-128.16Z" style="fill:#0b0b16;fill-rule:nonzero;"/><path d="M1479.33,852.984l-89.564,-53.756c-14.884,-8.836 -34.32,-3.999 -43.249,10.882c-8.929,14.973 -3.996,34.411 10.882,43.246l89.564,53.757l15.996,4.464c10.882,0 21.207,-5.302 27.253,-15.346c8.923,-14.881 3.996,-34.319 -10.882,-43.247Z" style="fill:#0b0b16;fill-rule:nonzero;"/><path d="M1374.88,1004.86c-14.787,-9.299 -34.411,-4.928 -43.431,9.765l-86.493,136.624c-9.207,14.787 -4.927,34.225 9.86,43.618l16.644,4.744c10.604,0 20.742,-5.116 26.697,-14.603l86.493,-136.622c9.298,-14.787 4.927,-34.225 -9.77,-43.526Z" style="fill:#0b0b16;fill-rule:nonzero;"/><path d="M1100.06,1148.55c-16.928,-3.813 -34.042,6.883 -37.669,23.902l-33.571,150.48c-3.815,17.114 7.067,33.947 23.994,37.667l6.88,0.837c14.509,0 27.622,-10.044 30.88,-24.646l33.384,-150.759c3.815,-16.926 -7.067,-33.854 -23.898,-37.481Z" style="fill:#0b0b16;fill-rule:nonzero;"/><path d="M839.365,1464.58c12.188,0 23.813,-7.068 28.831,-18.88c7.164,-15.904 -0.181,-34.598 -16.087,-41.573l-139.506,-61.383c-15.996,-7.067 -34.598,0.186 -41.478,16.184c-7.067,15.996 0.187,34.504 15.996,41.572l139.506,61.383l12.738,2.697Z" style="fill:#0b0b16;fill-rule:nonzero;"/><path d="M860.942,1589.48l-126.019,-47.989c-16.365,-6.139 -34.502,1.953 -40.734,18.321c-6.137,16.276 2.043,34.505 18.227,40.736l126.206,47.897l11.069,2.14c12.744,0 24.738,-7.812 29.574,-20.369c6.046,-16.276 -1.952,-34.504 -18.323,-40.736Z" style="fill:#0b0b16;fill-rule:nonzero;"/><path d="M478.606,1510.24l-80.822,119.696c-9.673,14.508 -6.046,34.132 8.554,43.804l17.581,5.395c10.138,-0 19.998,-4.837 26.134,-13.765l80.822,-119.882c9.855,-14.509 6.046,-33.947 -8.282,-43.805c-14.6,-9.765 -34.223,-5.952 -43.987,8.557Z" style="fill:#0b0b16;fill-rule:nonzero;"/><path d="M255.86,1623.24l16.184,4.465c10.507,0 21.111,-5.58 27.065,-15.532c8.742,-14.974 3.809,-34.411 -11.069,-43.247l-110.119,-65.382c-15.065,-8.928 -34.314,-3.999 -43.152,10.974c-8.93,14.975 -3.997,34.319 11.069,43.248l110.022,65.474Z" style="fill:#0b0b16;fill-rule:nonzero;"/></g></g></svg>