<?xml version="1.0" encoding="UTF-8" standalone="no"?><!DOCTYPE svg PUBLIC "-//W3C//DTD SVG 1.1//EN" "http://www.w3.org/Graphics/SVG/1.1/DTD/svg11.dtd"><svg width="100%" height="100%" viewBox="0 0 2084 2084" version="1.1" xmlns="http://www.w3.org/2000/svg" xmlns:xlink="http://www.w3.org/1999/xlink" xml:space="preserve" xmlns:serif="http://www.serif.com/" style="fill-rule:evenodd;clip-rule:evenodd;stroke-linejoin:round;stroke-miterlimit:2;"><rect id="画板1" x="0" y="0" width="2083.33" height="2083.33" style="fill:none;"/><clipPath id="_clip1"><rect id="画板11" serif:id="画板1" x="0" y="0" width="2083.33" height="2083.33"/></clipPath><g clip-path="url(#_clip1)"><g><path d="M950.261,797.056c-275.766,50.689 -507.076,202.106 -621.293,316.413c-142.021,141.93 -178.108,367.382 -83.891,524.1c5.768,9.952 16.184,15.439 27.067,15.439l16.088,-4.557c15.066,-8.836 19.812,-28.274 10.882,-43.249c-79.707,-132.722 -47.622,-324.97 74.405,-447.089c107.984,-107.797 326.647,-250.936 588.09,-298.928c17.206,-3.069 28.554,-19.625 25.301,-36.645c-3.071,-17.207 -19.437,-28.554 -36.649,-25.484Z" style="fill:#0b0b16;fill-rule:nonzero;"/><path d="M1971.58,574.859c-64.176,64.362 -169.367,64.734 -234.286,1.117c-12.37,-12.184 -32.091,-11.999 -44.46,0.186l-247.677,247.773c-107.705,-6.325 -194.293,-92.915 -200.623,-200.711l240.706,-240.705c6.512,-6.511 9.861,-15.532 9.117,-24.74c-0.653,-9.208 -5.302,-17.579 -12.835,-23.066l-17.303,-13.951c-55.524,-55.433 -55.524,-145.651 0,-201.084c55.53,-55.432 145.655,-55.432 201.179,0c45.017,45.109 54.133,115.516 21.952,171.321c-7.164,12.37 -5.024,27.996 4.927,38.133l5.302,5.302c11.995,11.905 31.251,12.184 43.621,0.744c66.037,-60.734 167.135,-58.874 230.38,4.278c64.919,64.827 64.919,170.577 -0,235.403Zm-601.669,680.354c-81.382,224.521 -221.637,464.947 -341.247,584.462c-106.955,106.867 -248.886,165.555 -399.933,165.555c-151.047,-0 -293.256,-58.688 -400.03,-165.555c-106.865,-106.773 -165.551,-248.796 -165.551,-399.934c-0,-151.138 58.686,-293.068 165.551,-399.934c184.904,-184.807 641.201,-416.397 937.335,-416.397l15.719,0.93c6.977,141.093 119.888,254.47 260.796,262.282c3.253,99.891 -20.555,224.894 -72.64,368.591Zm646.311,-960.4c-67.054,-67.059 -164.995,-84.173 -248.052,-50.318c7.351,-61.199 -12.926,-124.072 -58.13,-169.554c-38.784,-38.691 -90.402,-60.083 -145.274,-60.083c-54.786,0 -106.496,21.392 -145.189,60.083c-78.963,79.057 -79.985,206.943 -3.253,287.209l-200.713,200.712c-329.342,-29.577 -842.465,243.308 -1031.46,432.301c-118.769,118.678 -184.154,276.698 -184.154,444.578c-0,168.065 65.385,325.9 184.154,444.578c118.775,118.771 276.606,184.156 444.581,184.156c167.879,0 325.806,-65.385 444.485,-184.156c125.467,-125.375 271.956,-375.287 356.034,-607.714c39.902,-109.749 86.31,-276.606 74.406,-421.977l213.27,-213.268c89.846,66.687 218.101,59.339 299.296,-21.764c89.477,-89.566 89.477,-235.217 -0,-324.783Z" style="fill:#0b0b16;fill-rule:nonzero;"/></g></g></svg>