<?xml version="1.0" encoding="UTF-8" standalone="no"?><!DOCTYPE svg PUBLIC "-//W3C//DTD SVG 1.1//EN" "http://www.w3.org/Graphics/SVG/1.1/DTD/svg11.dtd"><svg width="100%" height="100%" viewBox="0 0 2084 2084" version="1.1" xmlns="http://www.w3.org/2000/svg" xmlns:xlink="http://www.w3.org/1999/xlink" xml:space="preserve" xmlns:serif="http://www.serif.com/" style="fill-rule:evenodd;clip-rule:evenodd;stroke-linejoin:round;stroke-miterlimit:2;"><rect id="画板1" x="0" y="0" width="2083.33" height="2083.33" style="fill:none;"/><clipPath id="_clip1"><rect id="画板11" serif:id="画板1" x="0" y="0" width="2083.33" height="2083.33"/></clipPath><g clip-path="url(#_clip1)"><g><path d="M1594.68,1810.69c-0,17.299 -14.137,31.435 -31.529,31.435l-115.049,0l0,-571.894l115.049,0c17.392,0 31.529,14.138 31.529,31.53l-0,508.929Zm-356.399,-0l0,-49.294c0,-69.568 -56.64,-126.208 -126.209,-126.208l-566.313,-0c-69.568,-0 -126.302,56.64 -126.302,126.208l-0,49.294c-0,17.299 -14.044,31.435 -31.529,31.435l-115.049,0l0,-571.894l115.049,0c17.485,0 31.529,14.138 31.529,31.53l-0,49.107c-0,69.662 56.734,126.396 126.302,126.396l566.313,-0c69.569,-0 126.209,-56.734 126.209,-126.396l0,-49.107c0,-17.392 14.137,-31.53 31.529,-31.53l115.142,0l-0,571.894l-115.142,0c-17.392,0 -31.529,-14.136 -31.529,-31.435Zm-1028.55,31.435l-115.048,0c-17.392,0 -31.622,-14.136 -31.622,-31.435l-0,-508.929c-0,-17.392 14.23,-31.53 31.622,-31.53l115.048,0l0,571.894Zm1353.42,-635.045l-293.341,0c-52.176,0 -94.68,42.412 -94.68,94.681l0,49.107c0,34.877 -28.274,63.245 -63.058,63.245l-566.313,-0c-34.785,-0 -63.058,-28.368 -63.058,-63.245l-0,-49.107c-0,-52.269 -42.504,-94.681 -94.773,-94.681l-293.248,0c-52.176,0 -94.68,42.412 -94.68,94.681l0,508.929c0,52.083 42.504,94.586 94.68,94.586l293.248,0c52.269,0 94.773,-42.503 94.773,-94.586l-0,-49.294c-0,-34.783 28.273,-63.057 63.058,-63.057l566.313,0c34.784,0 63.058,28.274 63.058,63.057l0,49.294c0,52.083 42.504,94.586 94.68,94.586l293.341,0c52.176,0 94.68,-42.503 94.68,-94.586l0,-508.929c0,-52.269 -42.504,-94.681 -94.68,-94.681Z" style="fill:#0b0b16;fill-rule:nonzero;"/><path d="M2020.18,781.483c0,17.486 -14.137,31.622 -31.622,31.622l-115.048,-0l-0,-571.894l115.048,0c17.485,0 31.622,14.138 31.622,31.529l0,508.743Zm-356.492,0l0,-49.107c0,-69.569 -56.547,-126.302 -126.209,-126.302l-566.22,-0c-69.661,-0 -126.209,56.733 -126.209,126.302l0,49.107c0,17.486 -14.23,31.622 -31.622,31.622l-115.048,-0l-0,-571.894l115.048,0c17.392,0 31.622,14.138 31.622,31.529l0,49.108c0,69.66 56.548,126.302 126.209,126.302l566.22,-0c69.662,-0 126.209,-56.642 126.209,-126.302l0,-49.108c0,-17.391 14.23,-31.529 31.715,-31.529l114.956,0l-0,571.894l-114.956,-0c-17.485,-0 -31.715,-14.136 -31.715,-31.622Zm-1175.13,0l0,-508.743c0,-17.391 14.23,-31.529 31.622,-31.529l115.049,0l-0,571.894l-115.049,-0c-17.392,-0 -31.622,-14.136 -31.622,-31.622Zm1500,-603.423l-293.155,-0c-52.269,-0 -94.772,42.411 -94.772,94.68l-0,49.108c-0,34.877 -28.367,63.151 -63.152,63.151l-566.22,-0c-34.784,-0 -63.151,-28.274 -63.151,-63.151l-0,-49.108c-0,-52.269 -42.411,-94.68 -94.68,-94.68l-293.248,-0c-52.269,-0 -94.68,42.411 -94.68,94.68l0,508.743c0,52.269 42.411,94.773 94.68,94.773l293.248,-0c52.269,-0 94.68,-42.504 94.68,-94.773l-0,-49.107c-0,-34.785 28.367,-63.151 63.151,-63.151l566.22,-0c34.785,-0 63.152,28.366 63.152,63.151l-0,49.107c-0,52.269 42.503,94.773 94.772,94.773l293.155,-0c52.27,-0 94.773,-42.504 94.773,-94.773l0,-508.743c0,-52.269 -42.503,-94.68 -94.773,-94.68Z" style="fill:#0b0b16;fill-rule:nonzero;"/></g></g></svg>