<?xml version="1.0" encoding="UTF-8" standalone="no"?><!DOCTYPE svg PUBLIC "-//W3C//DTD SVG 1.1//EN" "http://www.w3.org/Graphics/SVG/1.1/DTD/svg11.dtd"><svg width="100%" height="100%" viewBox="0 0 2084 2084" version="1.1" xmlns="http://www.w3.org/2000/svg" xmlns:xlink="http://www.w3.org/1999/xlink" xml:space="preserve" xmlns:serif="http://www.serif.com/" style="fill-rule:evenodd;clip-rule:evenodd;stroke-linejoin:round;stroke-miterlimit:2;"><rect id="画板1" x="0" y="0" width="2083.33" height="2083.33" style="fill:none;"/><g id="画板11" serif:id="画板1"><g><path d="M1723.91,1456.48c-10.604,6.045 -16.74,17.762 -15.628,30.131c6.142,72.082 10.513,144.255 12.835,214.287c0.744,25.67 -8.645,50.131 -26.691,68.824c-18.137,18.693 -42.501,28.928 -68.455,28.928l-1350.35,-0c-26.039,-0 -50.409,-10.235 -68.545,-28.928c-17.95,-18.693 -27.435,-43.154 -26.505,-68.824c11.064,-346.353 66.684,-675.314 160.899,-951.079c47.434,-138.578 35.621,-262.833 -34.877,-370.439l1094.49,-0l4.927,0.465l8.186,-0.465c333.15,-0 604.169,260.137 604.169,579.89c0,205.261 -110.121,391.091 -294.458,497.21Zm112.63,484.557c-0,43.625 -35.621,79.058 -79.24,79.058l-1613.09,0c-43.528,0 -79.149,-35.433 -79.149,-79.058c-0,-43.523 35.621,-79.053 81.749,-79.053l1610.49,-0c43.619,-0 79.24,35.53 79.24,79.053Zm-885.787,-1877.69c138.947,-0 274.829,87.238 395.088,252.882l-790.181,0c120.26,-165.644 256.141,-252.882 395.093,-252.882Zm1130.76,895.925c-0,-351.656 -294.549,-638.206 -658.665,-642.577c-138.396,-207.033 -301.338,-316.688 -472.097,-316.688c-170.576,-0 -333.518,109.468 -471.915,316.222l-236.329,0c-12.369,0 -23.62,7.255 -28.735,18.693c-5.024,11.257 -3.071,24.648 5.115,33.856c89.004,100.538 110.121,221.91 62.874,360.488c-96.264,281.714 -153.184,617.004 -164.435,969.591c-1.209,36.642 10.786,71.145 32.55,99.795l-5.671,-0c-78.406,-0 -142.392,63.987 -142.392,142.387c-0,78.502 63.986,142.301 142.392,142.301l1613.09,0c78.496,0 142.392,-63.799 142.392,-142.301c0,-78.4 -63.896,-142.387 -142.392,-142.387l-5.58,-0c21.764,-28.65 33.759,-63.153 32.459,-99.795c-1.953,-64.737 -5.768,-131.233 -11.257,-197.922c193.641,-119.044 308.593,-320.031 308.593,-541.663Z" style="fill:#0b0b16;fill-rule:nonzero;"/><path d="M1745.11,1259.49c-40.082,-270.27 -108.44,-516.182 -199.59,-718.281c191.036,54.41 324.408,221.723 324.408,418.061c-0,112.817 -45.016,219.589 -124.818,300.22Zm-250.833,-793.99c-11.813,-1.766 -23.251,3.071 -30.137,12.744c-7.067,9.485 -8.18,21.951 -2.884,32.646c108.725,220.049 188.152,502.137 229.353,815.657c1.493,11.257 8.929,20.93 19.255,25.301l11.995,2.322l19.624,-6.693c121.746,-95.702 191.688,-237.073 191.688,-388.207c0,-247.955 -184.615,-455.635 -438.894,-493.77Z" style="fill:#0b0b16;fill-rule:nonzero;"/><path d="M1061.43,1492.93c-0,61.012 -49.574,110.774 -110.678,110.774c-61.012,-0 -110.586,-49.762 -110.586,-110.587l110.586,0c17.485,0 31.619,-14.134 31.619,-31.618c0,-17.581 -14.134,-31.716 -31.619,-31.716l-110.586,0l0,-118.584l110.586,-0c17.485,-0 31.619,-14.135 31.619,-31.625c0,-17.484 -14.134,-31.715 -31.619,-31.715l-110.586,-0l0,-118.579l110.586,-0c17.485,-0 31.619,-14.135 31.619,-31.625c0,-17.387 -14.134,-31.619 -31.619,-31.619l-110.586,0l0,-118.584l110.586,-0c17.485,-0 31.619,-14.135 31.619,-31.619c0,-17.49 -14.134,-31.625 -31.619,-31.625l-110.586,0l0,-118.584l110.586,-0c17.485,-0 31.619,-14.226 31.619,-31.619c0,-17.581 -14.134,-31.625 -31.619,-31.625l-110.586,0c0,-61.012 49.574,-110.58 110.586,-110.58c61.104,-0 110.678,49.568 110.678,110.58l-0,790.55Zm-110.678,-964.47c-95.889,-0 -174.016,78.031 -174.016,173.92l-0,790.55c-0,95.89 78.127,174.017 174.016,174.017c95.981,0 174.012,-78.127 174.012,-174.017l-0,-790.55c-0,-95.889 -78.031,-173.92 -174.012,-173.92Z" style="fill:#0b0b16;fill-rule:nonzero;"/></g></g></svg>