<?xml version="1.0" encoding="UTF-8" standalone="no"?><!DOCTYPE svg PUBLIC "-//W3C//DTD SVG 1.1//EN" "http://www.w3.org/Graphics/SVG/1.1/DTD/svg11.dtd"><svg width="100%" height="100%" viewBox="0 0 2084 2084" version="1.1" xmlns="http://www.w3.org/2000/svg" xmlns:xlink="http://www.w3.org/1999/xlink" xml:space="preserve" xmlns:serif="http://www.serif.com/" style="fill-rule:evenodd;clip-rule:evenodd;stroke-linejoin:round;stroke-miterlimit:2;"><rect id="画板1" x="0" y="0" width="2083.33" height="2083.33" style="fill:none;"/><clipPath id="_clip1"><rect id="画板11" serif:id="画板1" x="0" y="0" width="2083.33" height="2083.33"/></clipPath><g clip-path="url(#_clip1)"><g><path d="M1809.53,1732.79c-300.303,134.204 -834.226,93.467 -1232.27,-246.547c-171.588,-146.57 -280.214,-274.726 -347.733,-384.47c43.525,-26.04 84.166,-61.1 108.904,-108.998c40.177,62.497 118.578,135.504 264.404,128.624c11.253,-0.559 21.391,-7.163 26.6,-17.299c5.02,-10.138 4.464,-22.135 -1.953,-31.62c-0.744,-1.209 -75.797,-117.183 -55.708,-224.694c37.665,11.626 102.115,25.297 172.797,13.485c193.164,233.435 503.884,236.503 736.388,238.271c61.844,0.466 120.342,0.931 168.146,5.858c122.856,12.556 378.702,38.69 370.797,380.752c-2.23,99.419 -76.912,187.025 -210.369,246.638Zm-1668.64,-836.828c-28.179,-153.081 14.509,-278.355 117.181,-343.736c28.367,-18.133 65.289,-33.385 108.906,-33.385c44.734,-0 96.629,15.996 153.732,61.194c115.23,104.998 231.667,161.172 298.816,187.49c-117.555,71.054 -249.525,13.116 -255.755,10.138l-25.112,-0.465l-17.484,18.136c-36.643,96.813 -1.954,201.069 26.134,261.147c-150.663,-19.436 -183.679,-155.777 -185.167,-162.194c-3.348,-15.252 -17.671,-25.946 -33.201,-24.644c-15.718,1.209 -28.087,13.763 -29.11,29.481c-6.975,110.022 -117.182,163.868 -195.304,188.328c26.227,-47.895 50.221,-116.065 36.364,-191.49Zm1514.44,146.57c-50.687,-5.115 -110.488,-5.674 -173.915,-6.046c-223.388,-1.765 -494.955,-3.905 -670.355,-194.001c32.642,-13.484 65.193,-33.573 95.883,-62.963c8.372,-7.998 11.534,-19.623 8.744,-30.689c-2.79,-11.066 -11.441,-19.81 -22.413,-22.691c-1.768,-0.375 -168.798,-45.851 -331.739,-194.189c-15.902,-12.556 -31.433,-22.879 -46.687,-32.086c-9.113,-5.395 -18.042,-10.229 -26.969,-14.602l-3.814,-1.953c-8.557,-3.999 -16.741,-7.439 -25.017,-10.416l-4.464,-1.859c-9.115,-3.162 -18.228,-5.767 -27.064,-7.998l-2.232,-0.466l-13.578,-2.602l-8.463,-1.584l-15.531,-1.581l-8.743,-0.65l-14.601,-0.184l-9.021,0.184l-14.136,1.116l-8.929,1.115l-13.671,2.14l-9.021,2.234l-20.739,5.58l-11.161,3.999l-9.579,3.627l-18.786,8.554l-3.907,2.14c-27.156,-28.458 -80.631,-103.14 -60.265,-233.529c2.698,-17.111 -9.113,-33.292 -26.319,-35.991c-17.484,-2.509 -33.388,9.116 -36.085,26.322c-22.599,145.547 32.645,235.944 69.659,278.446l-6.417,5.767l-13.02,12.181c-61.288,58.87 -99.233,140.156 -105.651,231.296c-2.604,37.946 -0.093,82.307 10.882,132.248l0.65,3.999c20.182,109.835 -69.286,207.023 -70.215,207.954c-9.207,9.67 -11.254,24.087 -5.208,35.991c5.486,10.694 16.367,17.205 28.178,17.205l3.999,-0.187c5.766,-0.744 68.543,-9.579 137.736,-38.688c71.054,117.183 184.609,252.312 362.892,404.558c273.798,233.992 610.185,332.295 898.957,332.295c151.871,0 290.63,-27.155 400.184,-76.168c156.802,-70.123 244.783,-177.634 247.757,-302.721c9.116,-400.466 -308.207,-432.923 -427.806,-445.107Z" style="fill:#0b0b16;fill-rule:nonzero;"/><path d="M1856.87,1286.11c-11.903,-12.928 -31.807,-13.578 -44.548,-1.675c-12.834,11.81 -13.578,31.808 -1.768,44.549c19.345,20.925 29.018,31.432 35.528,83.329c7.905,62.868 -38.596,108.626 -79.052,135.875c-161.731,108.998 -515.88,126.668 -806.045,-35.063c-15.159,-8.463 -34.41,-3.068 -42.967,12.091c-8.464,15.159 -2.884,34.504 12.181,42.967c160.616,89.562 336.853,127.878 495.051,127.878c152.428,-0 288.212,-35.62 377.028,-95.514c77.936,-52.637 115.786,-122.204 106.486,-196.139c-8.461,-67.242 -25.203,-89.561 -51.894,-118.298Z" style="fill:#0b0b16;fill-rule:nonzero;"/></g></g></svg>