<?xml version="1.0" encoding="UTF-8" standalone="no"?><!DOCTYPE svg PUBLIC "-//W3C//DTD SVG 1.1//EN" "http://www.w3.org/Graphics/SVG/1.1/DTD/svg11.dtd"><svg width="100%" height="100%" viewBox="0 0 2084 2084" version="1.1" xmlns="http://www.w3.org/2000/svg" xmlns:xlink="http://www.w3.org/1999/xlink" xml:space="preserve" xmlns:serif="http://www.serif.com/" style="fill-rule:evenodd;clip-rule:evenodd;stroke-linejoin:round;stroke-miterlimit:2;"><rect id="画板1" x="0" y="0" width="2083.33" height="2083.33" style="fill:none;"/><clipPath id="_clip1"><rect id="画板11" serif:id="画板1" x="0" y="0" width="2083.33" height="2083.33"/></clipPath><g clip-path="url(#_clip1)"><g><path d="M564.675,850.749l0,1208.54l477.056,-254.429l-0,-954.112l-477.056,0Z" style="fill:#fff;fill-rule:nonzero;"/><path d="M1041.73,850.749l-0,954.112l477.055,254.429l0,-1208.54l-477.055,0Z" style="fill:#fff;fill-rule:nonzero;"/><path d="M588.528,874.602l-0,1144.93l429.35,-229.019l-0,-915.915l-429.35,0Zm-23.853,1208.54c-4.261,0 -8.491,-1.113 -12.276,-3.34c-7.157,-4.357 -11.577,-12.117 -11.577,-20.513l0,-1208.54c0,-13.167 10.686,-23.853 23.853,-23.853l477.056,0c13.167,0 23.853,10.686 23.853,23.853l-0,954.112c-0,8.841 -4.834,16.919 -12.626,21.085l-477.055,254.43c-3.531,1.845 -7.379,2.767 -11.228,2.767Z" style="fill-rule:nonzero;"/><path d="M1065.58,1790.52l429.35,229.019l-0,-1144.93l-429.35,0l-0,915.915Zm453.202,292.626c-3.847,0 -7.696,-0.922 -11.194,-2.767l-477.056,-254.43c-7.792,-4.166 -12.658,-12.244 -12.658,-21.085l-0,-954.112c-0,-13.167 10.686,-23.853 23.853,-23.853l477.055,0c13.167,0 23.853,10.686 23.853,23.853l0,1208.54c0,8.396 -4.389,16.156 -11.577,20.513c-3.752,2.227 -8.013,3.34 -12.276,3.34Z" style="fill-rule:nonzero;"/><path d="M1119.24,63.448c29.418,40.55 85.074,51.618 127.723,25.38c55.53,-34.094 128.201,-4.008 143.307,59.409c11.641,48.691 58.838,80.241 108.293,72.353c64.37,-10.304 119.962,45.353 109.723,109.691c-7.92,49.455 23.629,96.652 72.321,108.292c63.384,15.138 93.503,87.746 59.345,143.276c-26.206,42.68 -15.106,98.337 25.411,127.723c52.796,38.26 52.796,116.911 0,155.171c-40.517,29.386 -51.617,85.043 -25.411,127.723c34.158,55.53 4.039,128.201 -59.345,143.276c-48.692,11.704 -80.241,58.837 -72.321,108.292c10.239,64.402 -45.353,119.995 -109.723,109.691c-49.455,-7.856 -96.652,23.662 -108.293,72.353c-15.106,63.449 -87.777,93.503 -143.307,59.41c-42.649,-26.238 -98.305,-15.139 -127.723,25.411c-38.229,52.73 -116.879,52.73 -155.138,-0c-29.387,-40.55 -85.044,-51.649 -127.724,-25.411c-55.53,34.093 -128.17,4.039 -143.34,-59.41c-11.608,-48.691 -58.774,-80.209 -108.259,-72.353c-64.34,10.304 -119.965,-45.289 -109.693,-109.691c7.92,-49.455 -23.629,-96.588 -72.352,-108.292c-63.386,-15.075 -93.472,-87.746 -59.377,-143.276c26.238,-42.68 15.17,-98.337 -25.412,-127.723c-52.762,-38.26 -52.762,-116.911 -0,-155.171c40.582,-29.386 51.65,-85.043 25.412,-127.723c-34.095,-55.53 -4.009,-128.138 59.377,-143.276c48.723,-11.64 80.272,-58.837 72.352,-108.292c-10.272,-64.338 45.353,-119.995 109.693,-109.691c49.485,7.888 96.651,-23.662 108.259,-72.353c15.17,-63.417 87.81,-93.503 143.34,-59.409c42.68,26.238 98.337,15.17 127.724,-25.38c38.259,-52.762 116.909,-52.762 155.138,0Z" style="fill:#fff;fill-rule:nonzero;"/><path d="M469.264,787.142c-0,316.192 256.307,572.467 572.467,572.467c316.193,-0 572.467,-256.275 572.467,-572.467c-0,-316.161 -256.274,-572.467 -572.467,-572.467c-316.16,0 -572.467,256.306 -572.467,572.467Z" style="fill:#fff;fill-rule:nonzero;"/><path d="M1041.73,238.528c-302.485,-0 -548.614,246.129 -548.614,548.614c-0,302.517 246.129,548.614 548.614,548.614c302.517,-0 548.614,-246.097 548.614,-548.614c-0,-302.485 -246.097,-548.614 -548.614,-548.614Zm-0,1144.93c-328.819,0 -596.32,-267.532 -596.32,-596.319c0,-328.819 267.501,-596.32 596.32,-596.32c328.818,0 596.319,267.501 596.319,596.32c0,328.787 -267.501,596.319 -596.319,596.319Z" style="fill-rule:nonzero;"/><path d="M1360.28,952.521l-147.313,-38.705l-171.232,-0l-0,445.793c162.708,-0 309.228,-68.188 413.448,-177.147l-0,-106.892c-0,-57.851 -38.959,-108.387 -94.903,-123.049Z" style="fill:#fff;fill-rule:nonzero;"/><path d="M870.563,913.816l-147.347,38.705c-55.942,14.662 -94.934,65.198 -94.934,123.049l0,106.892c104.254,108.959 250.742,177.147 413.449,177.147l-0,-445.793l-171.168,-0Z" style="fill:#fff;fill-rule:nonzero;"/><path d="M1455.18,1182.4l0.318,0l-0.318,0Zm-389.595,-244.73l-0,397.642c138.601,-5.947 267.342,-63.034 365.742,-162.58l0,-97.16c0,-46.975 -31.708,-88.097 -77.123,-100.023l-144.326,-37.879l-144.293,0Zm-23.853,445.793c-13.167,0 -23.853,-10.654 -23.853,-23.852l-0,-445.793c-0,-13.167 10.686,-23.853 23.853,-23.853l171.232,-0c2.034,-0 4.071,0.255 6.043,0.732l147.313,38.705c66.376,17.46 112.713,77.537 112.713,146.17l-0,106.828c-0,6.17 -2.353,12.054 -6.616,16.538c-113.824,119.009 -266.769,184.525 -430.685,184.525Z" style="fill-rule:nonzero;"/><path d="M652.135,1172.73c98.401,99.546 227.174,156.633 365.743,162.58l-0,-397.642l-144.229,0l-144.39,37.879c-45.415,11.926 -77.124,53.048 -77.124,100.023l0,97.16Zm389.596,210.731c-163.885,0 -316.861,-65.516 -430.686,-184.525c-4.261,-4.484 -6.615,-10.368 -6.615,-16.538l-0,-106.828c-0,-68.633 46.339,-128.71 112.712,-146.17l147.378,-38.705c1.972,-0.477 4.008,-0.732 6.043,-0.732l171.168,-0c13.167,-0 23.853,10.686 23.853,23.853l-0,445.793c-0,13.198 -10.686,23.852 -23.853,23.852Z" style="fill-rule:nonzero;"/><path d="M1646,1741.44c70.318,-0 127.215,56.897 127.215,127.215c0,-70.318 56.897,-127.215 127.215,-127.215c-70.318,-0 -127.215,-56.897 -127.215,-127.215c0,70.318 -56.897,127.215 -127.215,127.215Z" style="fill:#fff;fill-rule:nonzero;"/><path d="M1727.39,1741.44c18.382,11.736 34.03,27.478 45.828,45.797c11.8,-18.319 27.479,-34.061 45.862,-45.797c-18.383,-11.799 -34.062,-27.447 -45.862,-45.83c-11.798,18.383 -27.446,34.031 -45.828,45.83Zm45.828,151.068c-13.167,-0 -23.853,-10.686 -23.853,-23.853c0,-57.024 -46.37,-103.362 -103.362,-103.362c-13.167,-0 -23.853,-10.686 -23.853,-23.853c0,-13.167 10.686,-23.853 23.853,-23.853c56.992,-0.063 103.362,-46.401 103.362,-103.362c0,-13.167 10.686,-23.853 23.853,-23.853c13.167,0 23.853,10.686 23.853,23.853c-0,56.961 46.37,103.299 103.362,103.299c13.167,-0 23.853,10.686 23.853,23.852c-0,13.167 -10.686,23.853 -23.853,23.853c-56.992,0.064 -103.362,46.402 -103.362,103.426c-0,13.167 -10.686,23.853 -23.853,23.853Z" style="fill-rule:nonzero;"/><path d="M1805.05,1200.72c70.32,0 127.215,56.897 127.215,127.215c-0,-70.318 56.897,-127.215 127.215,-127.215c-70.318,0 -127.215,-56.897 -127.215,-127.215c-0,70.318 -56.895,127.215 -127.215,127.215Z" style="fill:#fff;fill-rule:nonzero;"/><path d="M1886.47,1200.72c18.35,11.799 33.997,27.479 45.796,45.798c11.8,-18.319 27.447,-33.999 45.83,-45.798c-18.383,-11.799 -34.03,-27.447 -45.83,-45.829c-11.799,18.382 -27.446,34.03 -45.796,45.829Zm45.796,151.068c-13.165,-0 -23.853,-10.686 -23.853,-23.853c-0,-57.024 -46.368,-103.362 -103.362,-103.362c-13.165,0 -23.853,-10.686 -23.853,-23.853c0,-13.167 10.688,-23.853 23.853,-23.853c56.994,0 103.362,-46.401 103.362,-103.362c-0,-13.166 10.688,-23.852 23.853,-23.852c13.166,-0 23.852,10.686 23.852,23.852c0,56.961 46.371,103.362 103.363,103.362c13.166,0 23.852,10.686 23.852,23.853c0,13.167 -10.686,23.853 -23.852,23.853c-56.992,0 -103.363,46.338 -103.363,103.362c0,13.167 -10.686,23.853 -23.852,23.853Z" style="fill-rule:nonzero;"/><path d="M1646,151.068c70.318,-0 127.215,56.928 127.215,127.214c0,-70.286 56.897,-127.214 127.215,-127.214c-70.318,-0 -127.215,-56.897 -127.215,-127.215c0,70.318 -56.897,127.215 -127.215,127.215Z" style="fill:#fff;fill-rule:nonzero;"/><path d="M1727.39,151.068c18.382,11.83 34.03,27.478 45.828,45.86c11.8,-18.382 27.479,-34.03 45.862,-45.86c-18.383,-11.8 -34.062,-27.447 -45.862,-45.83c-11.798,18.383 -27.446,34.03 -45.828,45.83Zm45.828,151.067c-13.167,0 -23.853,-10.654 -23.853,-23.853c0,-56.992 -46.37,-103.362 -103.362,-103.362c-13.167,0 -23.853,-10.654 -23.853,-23.852c0,-13.167 10.686,-23.853 23.853,-23.853c56.992,-0 103.362,-46.37 103.362,-103.362c0,-13.167 10.686,-23.853 23.853,-23.853c13.167,0 23.853,10.686 23.853,23.853c-0,56.992 46.37,103.362 103.362,103.362c13.167,-0 23.853,10.686 23.853,23.853c-0,13.198 -10.686,23.852 -23.853,23.852c-56.992,0 -103.362,46.402 -103.362,103.362c-0,13.199 -10.686,23.853 -23.853,23.853Z" style="fill-rule:nonzero;"/><path d="M23.853,1200.72c70.318,0 127.215,56.897 127.215,127.215c-0,-70.318 56.897,-127.215 127.214,-127.215c-70.317,0 -127.214,-56.897 -127.214,-127.215c-0,70.318 -56.897,127.215 -127.215,127.215Z" style="fill:#fff;fill-rule:nonzero;"/><path d="M105.27,1200.72c18.352,11.799 33.999,27.479 45.798,45.798c11.8,-18.319 27.478,-33.999 45.83,-45.798c-18.352,-11.799 -34.03,-27.447 -45.83,-45.829c-11.799,18.382 -27.446,34.03 -45.798,45.829Zm45.798,151.068c-13.167,-0 -23.853,-10.686 -23.853,-23.853c-0,-57.024 -46.37,-103.362 -103.362,-103.362c-13.167,0 -23.853,-10.686 -23.853,-23.853c0,-13.167 10.686,-23.853 23.853,-23.853c56.992,0 103.362,-46.401 103.362,-103.362c-0,-13.166 10.686,-23.852 23.853,-23.852c13.166,-0 23.852,10.686 23.852,23.852c0,56.961 46.37,103.362 103.362,103.362c13.167,0 23.853,10.686 23.853,23.853c0,13.167 -10.686,23.853 -23.853,23.853c-56.992,0 -103.362,46.338 -103.362,103.362c0,13.167 -10.686,23.853 -23.852,23.853Z" style="fill-rule:nonzero;"/><path d="M87.46,310.086c70.318,0 127.215,56.929 127.215,127.215c0,-70.286 56.897,-127.215 127.215,-127.215c-70.318,0 -127.215,-56.897 -127.215,-127.215c0,70.318 -56.897,127.215 -127.215,127.215Z" style="fill:#fff;fill-rule:nonzero;"/><path d="M168.878,310.086c18.351,11.831 33.999,27.479 45.797,45.861c11.8,-18.382 27.479,-34.03 45.83,-45.861c-18.351,-11.799 -34.03,-27.447 -45.83,-45.766c-11.798,18.319 -27.446,33.967 -45.797,45.766Zm45.797,151.068c-13.167,-0 -23.853,-10.655 -23.853,-23.853c0,-56.96 -46.37,-103.362 -103.362,-103.362c-13.167,-0 -23.853,-10.654 -23.853,-23.853c0,-13.167 10.686,-23.853 23.853,-23.853c56.992,0 103.362,-46.338 103.362,-103.362c0,-13.166 10.686,-23.852 23.853,-23.852c13.167,-0 23.853,10.686 23.853,23.852c-0,57.024 46.37,103.362 103.362,103.362c13.167,0 23.853,10.686 23.853,23.853c-0,13.199 -10.686,23.853 -23.853,23.853c-56.992,-0 -103.362,46.402 -103.362,103.362c-0,13.198 -10.686,23.853 -23.853,23.853Z" style="fill-rule:nonzero;"/><path d="M183.062,1932.27c70.319,0 127.214,56.897 127.214,127.215c0,-70.318 56.897,-127.215 127.215,-127.215c-70.318,0 -127.215,-56.897 -127.215,-127.215c0,70.318 -56.895,127.215 -127.214,127.215Z" style="fill:#fff;fill-rule:nonzero;"/><path d="M264.481,1932.27c18.35,11.799 33.997,27.479 45.795,45.798c11.801,-18.319 27.448,-33.999 45.831,-45.798c-18.383,-11.799 -34.03,-27.447 -45.831,-45.829c-11.798,18.382 -27.445,34.03 -45.795,45.829Zm45.795,151.068c-13.164,-0 -23.852,-10.686 -23.852,-23.853c-0,-57.024 -46.368,-103.362 -103.362,-103.362c-13.165,-0 -23.853,-10.686 -23.853,-23.853c-0,-13.167 10.688,-23.853 23.853,-23.853c56.994,0 103.362,-46.401 103.362,-103.362c-0,-13.166 10.688,-23.852 23.852,-23.852c13.167,-0 23.853,10.686 23.853,23.852c0,56.961 46.37,103.362 103.362,103.362c13.167,0 23.853,10.686 23.853,23.853c0,13.167 -10.686,23.853 -23.853,23.853c-56.992,-0 -103.362,46.338 -103.362,103.362c0,13.167 -10.686,23.853 -23.853,23.853Z" style="fill-rule:nonzero;"/><path d="M1041.73,1074.81c-0,0 170.118,-91.785 171.232,-160.99c-36.067,-18.446 -63.099,-52.19 -70.731,-92.676c-1.115,-5.916 -1.973,-43.539 -2.64,-49.264l-195.943,0.127c-0.732,6.52 -1.749,45.162 -3.118,52.19c-7.759,39.755 -34.38,72.099 -69.968,89.623c1.527,68.95 171.168,160.99 171.168,160.99Z" style="fill:#fff;fill-rule:nonzero;"/><path d="M897.564,925.87c15.84,36.256 88.32,89.559 144.198,121.617c56.198,-32.058 129.028,-85.457 144.421,-121.809c-35.078,-23.343 -59.791,-59.695 -67.391,-100.117c-0.765,-4.167 -1.209,-11.386 -1.941,-29.832l-150.559,0.127c-0.827,18.382 -1.4,27.828 -2.353,32.853c-7.824,40.137 -31.613,74.739 -66.375,97.161Zm144.167,172.789c-3.912,0 -7.823,-0.986 -11.354,-2.894c-30.373,-16.475 -181.916,-102.694 -183.667,-181.44c-0.159,-9.255 5.025,-17.842 13.326,-21.945c30.183,-14.789 50.949,-41.376 57.056,-72.799c0.701,-4.357 1.176,-18.064 1.718,-29.704c0.413,-9.478 0.827,-17.746 1.145,-20.546c1.367,-12.053 11.544,-21.181 23.661,-21.181l195.943,-0.127l0.033,-0c12.116,-0 22.358,9.064 23.724,21.118c0.255,2.544 0.668,11.004 1.05,20.513c0.414,10.845 0.827,23.407 1.4,27.574c5.915,31.422 27.669,59.759 58.073,75.343c8.11,4.166 13.134,12.531 12.977,21.627c-1.274,79.127 -153.294,165.156 -183.732,181.63c-3.562,1.845 -7.473,2.831 -11.353,2.831Z" style="fill-rule:nonzero;"/><path d="M1240.5,603.666c-0,-131.763 -88.986,-206.724 -198.773,-206.724c-109.786,-0 -198.773,74.961 -198.773,206.724c-0,131.763 88.987,238.528 198.773,238.528c109.787,-0 198.773,-106.765 198.773,-238.528Z" style="fill:#fff;fill-rule:nonzero;"/><path d="M1041.76,554.72c-78.968,-36.034 -139.65,-41.377 -184.652,-34.475c-9.063,24.521 -14.152,52.349 -14.152,83.421c-0,131.763 88.987,238.528 198.773,238.528c109.787,-0 198.773,-106.765 198.773,-238.528c-0,-16.22 -1.367,-31.549 -3.944,-46.02c-53.017,20.355 -121.681,30.436 -194.798,-2.926Z" style="fill:#fff;fill-rule:nonzero;"/><path d="M875.016,542.158c-5.438,19.082 -8.206,39.691 -8.206,61.508c0,118.342 78.492,214.675 174.921,214.675c96.428,-0 174.92,-96.333 174.92,-214.675c0,-4.771 -0.126,-9.509 -0.382,-14.153c-63.765,18.065 -125.687,13.644 -184.397,-13.103c-57.947,-26.428 -110.517,-38.101 -156.856,-34.252Zm166.715,323.888c-122.731,0 -222.626,-117.705 -222.626,-262.38c-0,-32.726 5.247,-63.608 15.583,-91.69c3.023,-8.142 10.211,-14.025 18.796,-15.329c58.838,-9.065 125.594,3.212 198.201,36.319c55.435,25.348 114.749,26.111 176.32,2.386c6.679,-2.513 14.122,-2.004 20.26,1.463c6.233,3.562 10.526,9.636 11.767,16.601c2.861,16.093 4.325,32.98 4.325,50.25c-0,144.675 -99.864,262.38 -222.626,262.38Z" style="fill-rule:nonzero;"/><path d="M1041.73,420.795c-104.634,-0 -174.921,73.498 -174.921,182.871c0,118.342 78.492,214.675 174.921,214.675c96.428,-0 174.92,-96.333 174.92,-214.675c0,-109.373 -70.287,-182.871 -174.92,-182.871Zm-0,445.251c-122.731,0 -222.626,-117.705 -222.626,-262.38c-0,-135.802 91.564,-230.577 222.626,-230.577c131.064,-0 222.626,94.775 222.626,230.577c-0,144.675 -99.864,262.38 -222.626,262.38Z" style="fill-rule:nonzero;"/><path d="M886.179,1447.58c37.305,0 74.07,17.27 97.224,49.264c13.707,18.892 34.952,29.737 58.264,29.737c23.344,0 44.59,-10.845 58.232,-29.737c36.511,-50.345 106.511,-64.211 159.56,-31.676c19.846,12.181 43.635,14.025 65.197,5.184c21.532,-8.937 37.02,-27.128 42.426,-49.773c14.44,-60.522 73.754,-100.531 135.263,-90.354c22.929,3.721 45.669,-3.689 62.175,-20.164c16.507,-16.538 23.886,-39.214 20.195,-62.239c-9.828,-61.445 29.865,-120.823 90.355,-135.23c22.676,-5.407 40.836,-20.863 49.742,-42.426c8.937,-21.563 7.029,-45.352 -5.154,-65.23c-32.567,-52.985 -18.604,-123.048 31.709,-159.495c18.891,-13.74 29.736,-34.92 29.736,-58.296c-0,-23.344 -10.845,-44.526 -29.703,-58.265c-50.346,-36.447 -64.309,-106.51 -31.742,-159.495c12.183,-19.877 14.091,-43.667 5.154,-65.23c-8.906,-21.563 -27.066,-37.019 -49.742,-42.426c-60.49,-14.471 -100.183,-73.848 -90.355,-135.229c3.691,-23.026 -3.688,-45.702 -20.195,-62.24c-16.506,-16.443 -39.054,-23.789 -62.175,-20.132c-61.191,9.7 -120.823,-29.927 -135.263,-90.386c-5.406,-22.644 -20.894,-40.804 -42.426,-49.741c-21.595,-8.937 -45.288,-7.029 -65.197,5.152c-52.952,32.567 -123.08,18.637 -159.56,-31.676c-13.642,-18.892 -34.888,-29.768 -58.232,-29.768c-23.312,-0 -44.557,10.876 -58.264,29.768c-36.416,50.313 -106.415,64.307 -159.496,31.676c-19.877,-12.181 -43.666,-14.089 -65.197,-5.152c-21.562,8.937 -37.02,27.097 -42.459,49.741c-14.407,60.459 -73.847,100.341 -135.23,90.386c-23.088,-3.657 -45.733,3.689 -62.207,20.195c-16.506,16.475 -23.853,39.151 -20.194,62.177c9.826,61.381 -29.865,120.758 -90.324,135.229c-22.707,5.407 -40.835,20.863 -49.741,42.426c-8.937,21.563 -7.091,45.353 5.12,65.23c32.567,52.985 18.637,123.048 -31.708,159.495c-18.891,13.739 -29.737,34.921 -29.737,58.265c0,23.376 10.846,44.556 29.737,58.296c50.345,36.447 64.275,106.51 31.708,159.495c-12.211,19.878 -14.057,43.667 -5.12,65.23c8.906,21.563 27.034,37.019 49.71,42.426c60.49,14.407 100.181,73.785 90.355,135.23c-3.659,23.025 3.688,45.701 20.194,62.175c16.474,16.539 39.119,23.949 62.207,20.228c61.065,-10.177 120.823,29.832 135.23,90.354c5.439,22.645 20.897,40.836 42.459,49.773c21.595,8.841 45.32,6.997 65.197,-5.184c19.305,-11.831 40.9,-17.588 62.272,-17.588Zm155.488,126.707c-38.769,-0 -74.102,-18.001 -96.906,-49.423c-21.881,-30.309 -64.021,-38.61 -95.887,-19.083c-33.044,20.323 -72.608,23.472 -108.388,8.651c-35.874,-14.853 -61.604,-45.034 -70.636,-82.753c-8.683,-36.384 -44.174,-60.173 -81.322,-54.417c-38.355,6.202 -76.012,-6.042 -103.457,-33.552c-27.446,-27.383 -39.66,-65.134 -33.522,-103.394c5.853,-36.988 -18,-72.703 -54.321,-81.323c-37.749,-9 -67.901,-34.729 -82.753,-70.572c-14.885,-35.843 -11.736,-75.407 8.588,-108.451c19.559,-31.867 11.163,-73.975 -19.115,-95.919c-31.39,-22.772 -49.423,-58.074 -49.423,-96.906c-0,-38.801 18.033,-74.103 49.423,-96.874c30.278,-21.945 38.674,-64.053 19.115,-95.921c-20.324,-33.044 -23.473,-72.607 -8.588,-108.45c14.852,-35.843 45.004,-61.572 82.753,-70.573c36.321,-8.682 60.174,-44.397 54.321,-81.321c-6.138,-38.324 6.076,-76.011 33.522,-103.426c27.445,-27.447 65.102,-39.787 103.457,-33.521c36.734,5.756 72.608,-18.033 81.322,-54.353c9.032,-37.783 34.762,-67.965 70.636,-82.817c35.844,-14.788 75.344,-11.608 108.388,8.651c31.866,19.559 73.942,11.227 95.887,-19.082c22.804,-31.423 58.137,-49.455 96.906,-49.455l0.033,0c38.799,0 74.07,18.032 96.841,49.455c21.976,30.309 64.085,38.641 95.953,19.082c33.106,-20.323 72.607,-23.439 108.419,-8.651c35.841,14.916 61.571,45.034 70.572,82.817c8.683,36.32 44.334,60.109 81.322,54.353c38.387,-6.266 76.01,6.074 103.425,33.489c27.478,27.447 39.692,65.134 33.585,103.458c-5.916,36.924 17.936,72.639 54.352,81.321c37.688,9.001 67.871,34.73 82.722,70.573c14.852,35.906 11.736,75.406 -8.618,108.45c-19.528,31.868 -11.195,73.976 19.114,95.921c31.421,22.771 49.422,58.073 49.422,96.874c-0,38.832 -18.001,74.134 -49.455,96.906c-30.276,21.944 -38.609,64.052 -19.081,95.919c20.354,33.044 23.47,72.545 8.618,108.451c-14.851,35.843 -45.034,61.572 -82.753,70.572c-36.385,8.62 -60.237,44.335 -54.321,81.323c6.107,38.323 -6.107,76.011 -33.585,103.489c-27.446,27.415 -65.102,39.659 -103.425,33.457c-36.988,-5.756 -72.639,18.033 -81.322,54.417c-9.001,37.719 -34.731,67.869 -70.572,82.689c-35.843,14.885 -75.313,11.736 -108.419,-8.587c-31.868,-19.527 -73.977,-11.226 -95.953,19.083c-22.771,31.422 -58.042,49.423 -96.841,49.423l-0.033,-0Z" style="fill-rule:nonzero;"/></g></g></svg>