<?xml version="1.0" encoding="UTF-8" standalone="no"?><!DOCTYPE svg PUBLIC "-//W3C//DTD SVG 1.1//EN" "http://www.w3.org/Graphics/SVG/1.1/DTD/svg11.dtd"><svg width="100%" height="100%" viewBox="0 0 2084 2084" version="1.1" xmlns="http://www.w3.org/2000/svg" xmlns:xlink="http://www.w3.org/1999/xlink" xml:space="preserve" xmlns:serif="http://www.serif.com/" style="fill-rule:evenodd;clip-rule:evenodd;stroke-linejoin:round;stroke-miterlimit:2;"><rect id="画板1" x="0" y="0" width="2083.33" height="2083.33" style="fill:none;"/><clipPath id="_clip1"><rect id="画板11" serif:id="画板1" x="0" y="0" width="2083.33" height="2083.33"/></clipPath><g clip-path="url(#_clip1)"><g><path d="M1552.06,1888.54c-75.895,57.197 -181.824,57.197 -257.622,0c-145.273,-109.745 -245.622,-237.067 -315.749,-367.086c329.884,-312.213 400.755,-712.037 406.709,-971.888c210.184,-4.465 424.744,28.923 570.391,101.559c30.688,15.253 51.43,44.55 55.426,78.309c20.742,174.941 49.016,775.279 -459.155,1159.11Zm-722.64,-323.188c-80.26,60.731 -192.519,60.823 -273.057,-0c-535.236,-404.287 -505.571,-1036.81 -483.717,-1221.05c4.281,-35.9 26.413,-67.243 59.246,-83.611c144.251,-71.891 352.578,-107.885 561.093,-107.885c208.327,0 416.842,35.994 560.997,107.885c32.833,16.462 54.965,47.711 59.245,83.611c21.946,184.24 51.52,816.85 -483.807,1221.05Zm1244.48,-843.358c-6.511,-54.872 -40.178,-102.49 -89.932,-127.321c-155.69,-77.751 -378.895,-113.559 -598.479,-108.814c-0.931,-62.406 -5.302,-113.651 -9.485,-148.901c-6.789,-57.196 -41.853,-106.767 -93.935,-132.715c-308.217,-153.922 -869.866,-154.014 -1178.36,0c-51.9,25.855 -86.958,75.519 -93.844,132.715c-22.785,192.612 -53.756,854.24 508.455,1278.8c51.429,38.783 113.087,58.221 174.564,58.221c61.663,0 123.231,-19.438 174.66,-58.221c21.951,-16.554 42.693,-33.667 62.963,-50.873c73.477,132.345 177.362,261.9 325.888,373.969c49.011,37.108 107.978,55.709 166.849,55.709c58.871,0 117.651,-18.601 166.94,-55.709c534.959,-404.009 505.475,-1033.46 483.711,-1216.86Z" style="fill:#0b0b16;fill-rule:nonzero;"/><path d="M1741.88,832.483c-91.051,-24.088 -184.798,30.32 -208.883,121.277c-4.371,16.928 5.58,34.225 22.507,38.598c16.831,4.556 34.133,-5.488 38.691,-22.416c15.066,-57.382 74.215,-91.7 131.507,-76.448c57.384,15.159 91.699,74.218 76.446,131.508c-4.371,16.833 5.676,34.225 22.507,38.596l7.998,1.209c14.044,-0 26.878,-9.486 30.506,-23.623c24.182,-91.051 -30.318,-184.705 -121.279,-208.701Z" style="fill:#0b0b16;fill-rule:nonzero;"/><path d="M1639.95,1452.45c-119.513,119.51 -313.887,119.51 -433.4,-0c-12.278,-12.369 -32.367,-12.369 -44.737,-0c-12.272,12.277 -12.272,32.272 0,44.643c72.171,71.983 166.759,108.069 261.437,108.069c94.582,-0 189.26,-36.086 261.34,-108.069c12.369,-12.371 12.369,-32.366 0,-44.643c-12.278,-12.369 -32.271,-12.369 -44.64,-0Z" style="fill:#0b0b16;fill-rule:nonzero;"/><path d="M1393.21,1362.14c53.944,0 80.26,-25.855 92.907,-47.619c39.622,-68.264 -3.718,-181.077 -35.432,-236.972c-8.651,-15.161 -27.991,-20.369 -43.062,-11.719c-15.156,8.556 -20.555,27.808 -11.807,42.968c32.458,57.196 55.425,139.97 35.71,173.916c-2.605,4.557 -9.581,16.369 -38.316,16.369c-17.483,-0 -31.527,14.043 -31.527,31.528c-0,17.485 14.044,31.529 31.527,31.529Z" style="fill:#0b0b16;fill-rule:nonzero;"/><path d="M945.299,700.698c14.509,3.905 29.296,5.766 43.992,5.766c29.762,-0 59.15,-7.813 85.562,-23.158c39.435,-22.879 67.522,-59.987 79.148,-103.979c4.558,-16.833 -5.484,-34.039 -22.411,-38.596c-16.837,-4.371 -34.042,5.58 -38.6,22.414c-15.157,57.384 -74.215,91.701 -131.508,76.542c-57.383,-15.253 -91.698,-74.31 -76.542,-131.6c4.468,-16.741 -5.67,-34.133 -22.507,-38.597c-16.831,-4.371 -34.133,5.674 -38.685,22.414c-23.904,91.051 30.596,184.706 121.551,208.794Z" style="fill:#0b0b16;fill-rule:nonzero;"/><path d="M561.011,621.552c22.973,-39.527 29.2,-85.471 17.484,-129.648c-4.462,-16.834 -21.764,-26.785 -38.595,-22.414c-16.927,4.464 -26.878,21.856 -22.416,38.597c7.345,27.808 3.44,56.825 -11.069,81.657c-14.413,24.925 -37.664,42.502 -65.564,49.943c-27.622,7.347 -56.64,3.441 -81.565,-10.974c-24.835,-14.509 -42.597,-37.667 -49.942,-65.568c-4.468,-16.834 -21.673,-26.785 -38.6,-22.414c-16.831,4.465 -26.969,21.763 -22.411,38.596c11.625,43.992 39.804,81.1 79.238,103.979c26.504,15.345 55.709,23.158 85.471,23.158c14.787,-0 29.484,-1.861 43.987,-5.766c44.18,-11.626 81.1,-39.713 103.982,-79.146Z" style="fill:#0b0b16;fill-rule:nonzero;"/><path d="M692.888,1076.06c-98.488,0 -191.31,38.41 -261.244,108.257c-12.369,12.369 -12.369,32.272 -0,44.641l22.32,9.301l22.32,-9.301c57.94,-57.941 134.856,-89.842 216.604,-89.842c81.843,0 158.76,31.901 216.609,89.842c12.46,12.371 32.458,12.371 44.731,0c12.465,-12.369 12.465,-32.272 -0,-44.641c-69.753,-69.847 -162.569,-108.257 -261.34,-108.257Z" style="fill:#0b0b16;fill-rule:nonzero;"/><path d="M722.928,973.849c17.489,0 31.623,-14.043 31.623,-31.528c0,-17.392 -14.134,-31.621 -31.623,-31.621c-28.831,-0 -35.711,-11.812 -38.317,-16.183c-19.811,-34.039 3.259,-116.72 35.808,-174.01c8.554,-15.159 3.252,-34.411 -11.813,-43.06c-15.253,-8.557 -34.502,-3.349 -43.062,11.811c-31.896,55.895 -75.145,168.802 -35.524,236.974c12.648,21.762 39.06,47.617 92.908,47.617Z" style="fill:#0b0b16;fill-rule:nonzero;"/></g></g></svg>