<?xml version="1.0" encoding="UTF-8" standalone="no"?><!DOCTYPE svg PUBLIC "-//W3C//DTD SVG 1.1//EN" "http://www.w3.org/Graphics/SVG/1.1/DTD/svg11.dtd"><svg width="100%" height="100%" viewBox="0 0 2084 2084" version="1.1" xmlns="http://www.w3.org/2000/svg" xmlns:xlink="http://www.w3.org/1999/xlink" xml:space="preserve" xmlns:serif="http://www.serif.com/" style="fill-rule:evenodd;clip-rule:evenodd;stroke-linejoin:round;stroke-miterlimit:2;"><rect id="画板1" x="0" y="0" width="2083.33" height="2083.33" style="fill:none;"/><clipPath id="_clip1"><rect id="画板11" serif:id="画板1" x="0" y="0" width="2083.33" height="2083.33"/></clipPath><g clip-path="url(#_clip1)"><g><path d="M1994.7,1906.04c-33.856,33.855 -89.01,33.855 -122.769,0l-383.74,-383.649l122.859,-122.954l383.741,383.836c33.855,33.762 33.855,88.821 -0.091,122.767Zm-738.19,-241.163c-37.948,37.945 -87.982,57.477 -142.018,55.151c-53.667,-2.324 -102.122,-26.227 -136.534,-67.428l-264.508,-315.476l15.905,-13.301c23.808,-23.809 36.83,-55.338 36.83,-89.192c0,-33.761 -13.022,-65.384 -36.83,-89.099l-146.394,-146.486c-24.552,-24.553 -24.552,-64.452 -0,-89.007c24.46,-24.553 64.452,-24.553 88.913,0l253.348,253.442c23.717,23.717 55.529,36.738 89.197,36.738c33.759,-0 65.287,-13.021 89.095,-36.738c23.717,-23.809 36.83,-55.431 36.83,-89.099c-0,-33.855 -13.113,-65.477 -36.83,-89.1l-204.427,-204.613c-11.808,-11.812 -18.319,-27.53 -18.319,-44.457c0,-16.927 6.511,-32.738 18.319,-44.55c24.46,-24.461 64.361,-24.461 89.009,0l1.3,-1.209c15.066,17.671 51.436,54.129 139.697,142.299c23.717,23.717 55.245,36.738 89.1,36.738c33.668,-0 65.384,-13.021 89.191,-36.738c49.018,-49.107 49.018,-129.092 0,-178.292l-207.123,-206.939c-11.813,-11.811 -18.228,-27.622 -18.228,-44.456c0,-16.928 6.415,-32.739 18.228,-44.55l3.906,-3.256l637.275,533.855c41.111,34.412 65.015,82.867 67.337,136.533c2.418,53.664 -17.11,103.98 -55.058,142.019l-164.901,164.807l-0.09,0.094l-167.506,167.503l-164.714,164.807Zm-1137.65,-1305.81l172.524,-172.433c24.739,56.548 81.38,96.355 146.764,96.355l1.396,0c21.39,64.081 82.124,109.561 151.879,109.561c69.754,-0 130.488,-45.48 151.878,-109.561l1.487,0c67.898,0 126.209,-42.597 149.279,-103.794l161.364,135.044c-23.627,23.717 -36.552,55.245 -36.552,88.821c-0,33.76 13.022,65.383 36.739,89.099l207.027,206.939c24.557,24.553 24.557,64.546 -0,89.006c-23.712,23.624 -65.378,23.624 -89.004,0l-140.906,-140.997c-49.29,-49.107 -129.183,-49.107 -178.2,-0c-49.291,49.107 -49.291,129.092 -0,178.293l204.426,204.427c11.814,11.718 18.234,27.622 18.234,44.55c-0,16.74 -6.42,32.551 -18.234,44.457c-23.711,23.529 -65.474,23.529 -89.003,-0l-253.439,-253.349c-49.109,-49.2 -129.002,-49.2 -178.298,0c-49.012,49.108 -49.012,128.999 0,178.292l146.486,146.392c11.813,11.812 18.415,27.623 18.415,44.457c-0,16.927 -6.602,32.738 -18.415,44.55l-11.995,9.021l-565.012,-674.107c-63.34,-75.52 -58.595,-185.268 11.16,-255.023Zm1920.67,1379.46l-383.74,-383.65l142.574,-142.578c49.665,-49.943 76.64,-118.954 73.478,-189.452c-3.071,-70.5 -35.904,-136.813 -89.94,-182.199l-652.251,-546.504l-1.856,-1.581l-234.377,-196.336c-9.486,-7.998 -22.786,-9.579 -33.856,-4.371c-11.251,5.488 -18.227,16.742 -17.949,29.111l0.278,3.256c-0.834,52.827 -44.176,95.702 -97.099,95.702l-19.624,-1.953c-8.555,-1.86 -17.484,0.186 -24.642,5.209c-7.164,5.116 -11.813,12.928 -12.835,21.67c-6.33,48.084 -47.621,84.542 -96.264,84.542c-48.547,0 -89.935,-36.458 -96.259,-84.542c-1.028,-8.742 -5.677,-16.554 -12.835,-21.67c-7.164,-5.023 -16.093,-6.975 -24.648,-5.209l-19.533,1.953c-53.014,0 -96.634,-43.247 -97.003,-96.446c-0.187,-12.742 -7.811,-24.182 -19.624,-28.925c-11.813,-4.837 -25.204,-2.14 -34.23,6.881l-212.981,212.985c-93.006,93.192 -99.517,239.398 -14.975,340.216l870.165,1038.51c45.294,54.129 111.699,86.866 182.197,89.936l10.979,0.372c66.587,-0 131.136,-26.693 178.292,-73.94l142.671,-142.578l383.74,383.743c29.206,29.296 67.433,43.805 105.75,43.805c38.505,0 77.009,-14.694 106.397,-43.899c58.407,-58.5 58.407,-153.553 0,-212.053Z" style="fill:#0b0b16;fill-rule:nonzero;"/></g></g></svg>