<?xml version="1.0" encoding="UTF-8" standalone="no"?><!DOCTYPE svg PUBLIC "-//W3C//DTD SVG 1.1//EN" "http://www.w3.org/Graphics/SVG/1.1/DTD/svg11.dtd"><svg width="100%" height="100%" viewBox="0 0 2084 2084" version="1.1" xmlns="http://www.w3.org/2000/svg" xmlns:xlink="http://www.w3.org/1999/xlink" xml:space="preserve" xmlns:serif="http://www.serif.com/" style="fill-rule:evenodd;clip-rule:evenodd;stroke-linejoin:round;stroke-miterlimit:2;"><rect id="画板1" x="0" y="0" width="2083.33" height="2083.33" style="fill:none;"/><clipPath id="_clip1"><rect id="画板11" serif:id="画板1" x="0" y="0" width="2083.33" height="2083.33"/></clipPath><g clip-path="url(#_clip1)"><g><path d="M1978.63,1236.14c-45.945,66.868 -125.739,93.649 -218.372,124.62c-59.336,19.901 -122.577,41.665 -182.747,76.075c60.17,-130.943 94.859,-272.406 94.859,-405.302l-0,-99.701c62.128,-50.129 140.622,-80.821 227.766,-38.594c55.056,26.781 94.859,76.91 111.696,140.894c18.414,69.383 6.045,144.903 -33.202,202.008Zm-776.013,558.384l-555.598,0c-236.321,-154.382 -406.699,-481.196 -406.699,-762.991l0,-278.73l1368.81,-0l-0,278.73c-0,281.795 -170.378,608.513 -406.512,762.991Zm178.194,201.258l-912.361,0c-99.139,0 -330.624,-69.377 -390.703,-138.295l1693.95,0c-60.079,68.918 -291.468,138.295 -390.885,138.295Zm692.122,-977.737c-21.48,-80.911 -74.311,-147.036 -145.362,-181.543c-84.818,-41.29 -172.337,-33.849 -255.201,17.302l-0,-132.437c-0,-17.484 -14.135,-31.618 -31.618,-31.618l-1432.06,0c-17.393,0 -31.436,14.134 -31.436,31.618l-0,310.166c-0,273.428 145.18,582.941 362.337,762.991l-507.978,0c-17.483,0 -31.623,14.135 -31.623,31.436c0,148.059 368.202,232.785 468.453,232.785l912.361,0c100.439,0 468.453,-84.726 468.453,-232.785c0,-17.301 -13.952,-31.436 -31.436,-31.436l-507.331,0c65.756,-54.686 124.626,-121.367 175.124,-195.121c79.237,-105.928 188.52,-143.131 294.822,-178.751c98.952,-33.105 192.329,-64.541 250.081,-148.802c49.663,-71.983 65.472,-166.847 42.409,-253.805Z" style="fill:#0b0b16;fill-rule:nonzero;"/><path d="M905.476,281.744c23.438,20.924 36.454,48.454 36.454,77.376c-0,29.018 -13.016,56.452 -36.454,77.381c-13.113,11.625 -14.231,31.618 -2.606,44.639c6.233,6.977 14.975,10.604 23.438,10.604l21.111,-7.998c37.203,-33.111 57.57,-77.381 57.57,-124.626c0,-47.245 -20.367,-91.51 -57.57,-124.621c-23.62,-20.832 -36.551,-48.266 -36.551,-77.381c0,-28.83 12.931,-56.452 36.551,-77.375c13.112,-11.625 14.134,-31.527 2.696,-44.458c-11.813,-13.112 -31.618,-14.321 -44.639,-2.787c-37.294,33.105 -57.758,77.375 -57.758,124.62c0,47.342 20.464,91.516 57.758,124.626Z" style="fill:#0b0b16;fill-rule:nonzero;"/><path d="M1305.85,281.744c23.342,20.924 36.46,48.454 36.46,77.376c-0,29.018 -13.118,56.452 -36.46,77.381c-13.112,11.625 -14.418,31.618 -2.793,44.639c6.233,6.977 14.884,10.604 23.626,10.604l20.923,-7.998c37.391,-33.111 57.758,-77.285 57.758,-124.626c-0,-47.245 -20.367,-91.51 -57.758,-124.621c-23.432,-20.832 -36.363,-48.266 -36.363,-77.381c-0,-28.83 12.931,-56.452 36.363,-77.375c13.022,-11.625 14.327,-31.623 2.702,-44.458c-11.625,-13.112 -31.623,-14.321 -44.458,-2.787c-37.481,33.105 -57.848,77.375 -57.848,124.62c-0,47.342 20.367,91.516 57.848,124.626Z" style="fill:#0b0b16;fill-rule:nonzero;"/><path d="M505.378,281.744c23.342,20.924 36.273,48.454 36.273,77.376c-0,29.018 -12.931,56.452 -36.273,77.381c-13.112,11.625 -14.418,31.618 -2.793,44.639c6.233,6.977 14.884,10.604 23.626,10.604l20.832,-7.998c37.294,-33.111 57.752,-77.381 57.752,-124.626c0,-47.245 -20.458,-91.51 -57.752,-124.621c-23.529,-20.832 -36.46,-48.266 -36.46,-77.381c0,-28.83 12.931,-56.452 36.46,-77.375c13.113,-11.625 14.231,-31.527 2.787,-44.458c-11.625,-13.112 -31.617,-14.321 -44.452,-2.787c-37.481,33.105 -57.939,77.375 -57.939,124.62c-0,47.342 20.458,91.516 57.939,124.626Z" style="fill:#0b0b16;fill-rule:nonzero;"/></g></g></svg>