<?xml version="1.0" encoding="UTF-8" standalone="no"?><!DOCTYPE svg PUBLIC "-//W3C//DTD SVG 1.1//EN" "http://www.w3.org/Graphics/SVG/1.1/DTD/svg11.dtd"><svg width="100%" height="100%" viewBox="0 0 2084 2084" version="1.1" xmlns="http://www.w3.org/2000/svg" xmlns:xlink="http://www.w3.org/1999/xlink" xml:space="preserve" xmlns:serif="http://www.serif.com/" style="fill-rule:evenodd;clip-rule:evenodd;stroke-linejoin:round;stroke-miterlimit:2;"><rect id="画板1" x="0" y="0" width="2083.33" height="2083.33" style="fill:none;"/><clipPath id="_clip1"><rect id="画板11" serif:id="画板1" x="0" y="0" width="2083.33" height="2083.33"/></clipPath><g clip-path="url(#_clip1)"><g><path d="M1948.18,1913.88c-37.386,66.592 -105.375,106.306 -181.732,106.306l-1449.5,-0c-76.453,-0 -144.436,-39.714 -181.828,-106.306c-37.295,-66.593 -35.899,-145.277 3.815,-210.563l354.539,-581.384l16.553,13.488l10.139,8.373l21.207,11.342l9.111,4.746l24.648,7.533l8.09,2.418c11.256,2.231 22.882,3.349 34.695,3.349c47.15,0 91.513,-18.324 124.903,-51.805c44.181,-44.175 116.257,-44.175 160.529,0c8.464,8.555 17.672,16.088 27.532,22.599l3.815,2.049c27.804,17.484 59.894,27.157 93.465,27.157c33.577,0 65.571,-9.673 93.29,-27.066l4.184,-2.14c9.763,-6.511 18.971,-14.044 27.531,-22.599c44.267,-44.175 116.258,-44.175 160.524,0c33.39,33.481 77.753,51.805 124.908,51.805c47.06,0 91.519,-18.324 124.909,-51.805l17.484,-13.953l363.372,595.893c39.81,65.286 41.11,143.97 3.815,210.563Zm-1224.33,-1169.45l4.558,-16.371l-0,-506.883l626.484,0l-0,506.883l4.655,16.371l188.43,309.059l-0.097,-0c-10.417,6.692 -20.18,14.509 -29.019,23.433c-42.875,42.875 -117.557,42.875 -160.523,-0c-59.338,-59.52 -150.669,-67.427 -218.846,-24.364c-10.973,6.789 -21.389,14.691 -30.971,24.364c-43.063,42.875 -117.558,42.875 -160.53,-0c-69.005,-69.005 -180.988,-69.005 -249.811,-0c-42.966,42.875 -117.654,42.875 -160.529,-0l-10.695,-9.855l196.894,-322.637Zm-111.143,-610.214l-0,-49.852c-0,-11.439 9.673,-21.299 21.208,-21.299l815.476,-0c11.529,-0 21.202,9.86 21.202,21.299l-0,49.852c-0,11.438 -9.673,21.299 -21.202,21.299l-815.476,-0c-11.535,-0 -21.208,-9.861 -21.208,-21.299Zm1385.51,1536.37l-378.534,-620.818l-201.64,-330.635l0,-500.56l31.347,0c46.503,0 84.354,-37.851 84.354,-84.354l0,-49.852c0,-46.503 -37.851,-84.355 -84.354,-84.355l-815.476,-0c-46.503,-0 -84.361,37.852 -84.361,84.355l0,49.852c0,46.503 37.858,84.354 84.361,84.354l31.34,0l0,500.56l-207.775,340.773l-372.393,610.68c-51.805,84.911 -53.667,187.312 -4.933,274.182c48.74,86.772 137.187,138.577 236.795,138.577l1449.5,0c99.517,0 188.056,-51.805 236.699,-138.577c48.733,-86.87 46.968,-189.271 -4.928,-274.182Z" style="fill:#0b0b16;fill-rule:nonzero;"/><path d="M615.312,1593.93c-34.878,0 -63.153,-28.178 -63.153,-63.056c0,-34.786 28.275,-63.152 63.153,-63.152c34.78,-0 63.055,28.366 63.055,63.152c0,34.878 -28.275,63.056 -63.055,63.056Zm-0,-189.361c-69.664,0 -126.305,56.642 -126.305,126.305c-0,69.755 56.641,126.209 126.305,126.209c69.567,-0 126.208,-56.454 126.208,-126.209c-0,-69.663 -56.641,-126.305 -126.208,-126.305Z" style="fill:#0b0b16;fill-rule:nonzero;"/><path d="M930.972,1846.54c-34.781,-0 -63.153,-28.276 -63.153,-63.056c0,-34.878 28.372,-63.153 63.153,-63.153c34.786,0 63.152,28.275 63.152,63.153c0,34.78 -28.366,63.056 -63.152,63.056Zm-0,-189.361c-69.658,-0 -126.3,56.641 -126.3,126.305c0,69.657 56.642,126.299 126.3,126.299c69.663,-0 126.208,-56.642 126.208,-126.299c0,-69.664 -56.545,-126.305 -126.208,-126.305Z" style="fill:#0b0b16;fill-rule:nonzero;"/><path d="M1183.49,1436.2c-34.786,-0 -63.062,-28.463 -63.062,-63.243c0,-34.696 28.276,-63.062 63.062,-63.062c34.781,-0 63.147,28.366 63.147,63.062c-0,34.78 -28.366,63.243 -63.147,63.243Zm0,-189.361c-69.663,-0 -126.208,56.545 -126.208,126.118c-0,69.657 56.545,126.395 126.208,126.395c69.658,0 126.209,-56.738 126.209,-126.395c-0,-69.573 -56.551,-126.118 -126.209,-126.118Z" style="fill:#0b0b16;fill-rule:nonzero;"/><path d="M1625.44,1657.18c-34.781,-0 -63.056,-28.457 -63.056,-63.153c-0,-34.781 28.275,-63.147 63.056,-63.147c34.786,0 63.152,28.366 63.152,63.147c-0,34.696 -28.366,63.153 -63.152,63.153Zm-0,-189.361c-69.658,-0 -126.3,56.641 -126.3,126.208c0,69.573 56.642,126.305 126.3,126.305c69.663,0 126.304,-56.732 126.304,-126.305c0,-69.567 -56.641,-126.208 -126.304,-126.208Z" style="fill:#0b0b16;fill-rule:nonzero;"/></g></g></svg>