<?xml version="1.0" encoding="UTF-8" standalone="no"?><!DOCTYPE svg PUBLIC "-//W3C//DTD SVG 1.1//EN" "http://www.w3.org/Graphics/SVG/1.1/DTD/svg11.dtd"><svg width="100%" height="100%" viewBox="0 0 2084 2084" version="1.1" xmlns="http://www.w3.org/2000/svg" xmlns:xlink="http://www.w3.org/1999/xlink" xml:space="preserve" xmlns:serif="http://www.serif.com/" style="fill-rule:evenodd;clip-rule:evenodd;stroke-linejoin:round;stroke-miterlimit:2;"><rect id="画板1" x="0" y="0" width="2083.33" height="2083.33" style="fill:none;"/><clipPath id="_clip1"><rect id="画板11" serif:id="画板1" x="0" y="0" width="2083.33" height="2083.33"/></clipPath><g clip-path="url(#_clip1)"><g><path d="M2020.28,605.004l-1957.12,-0l0,-107.981l1957.12,-0l0,107.981Zm-457.683,223.585l-305.431,-0l-0,-160.433l305.431,-0l-0,160.433Zm-305.431,63.243l305.431,0l-0,415.274c-0,84.354 -68.546,152.809 -152.719,152.809c-84.167,-0 -152.712,-68.455 -152.712,-152.809l-0,-415.274Zm-430.805,244.606l-305.522,-0l0,-468.282l305.522,-0l-0,468.282Zm-305.522,63.062l305.522,-0l-0,107.606c-0,84.354 -68.545,152.809 -152.809,152.809c-84.168,-0 -152.713,-68.455 -152.713,-152.809l0,-107.606Zm1404.66,462.98l-1767.67,-0l-0,-994.324l299.942,-0l-0,638.95c-0,119.141 96.82,215.956 215.774,215.956c118.953,-0 215.774,-96.815 215.774,-215.956l0,-638.95l304.687,-0l0,638.95c0,119.141 96.821,215.956 215.865,215.956c118.96,-0 215.775,-96.815 215.775,-215.956l-0,-638.95l299.85,-0l0,994.324Zm-1767.67,171.036l-0,-107.98l1767.67,-0l0,107.98l-1767.67,0Zm363.003,-1615.14l305.522,-0l-0,215.678l-305.522,-0l0,-215.678Zm-68.176,-147.326l441.874,0l0,84.173l-441.874,0l-0,-84.173Zm804.503,147.326l305.431,-0l-0,215.678l-305.431,-0l-0,-215.678Zm-68.267,-147.326l441.868,0l0,84.173l-441.868,0l-0,-84.173Zm863,363.004l-426.246,-0l-0,-215.678l36.739,-0c17.393,-0 31.528,-14.141 31.528,-31.528l-0,-147.326c-0,-17.484 -14.135,-31.618 -31.528,-31.618l-505.118,-0c-17.387,-0 -31.619,14.134 -31.619,31.618l0,147.326c0,17.387 14.232,31.528 31.619,31.528l36.739,-0l0,215.678l-304.687,-0l0,-215.678l36.739,-0c17.393,-0 31.619,-14.141 31.619,-31.528l-0,-147.326c-0,-17.484 -14.226,-31.618 -31.619,-31.618l-505.021,-0c-17.393,-0 -31.624,14.134 -31.624,31.618l-0,147.326c-0,17.387 14.231,31.528 31.624,31.528l36.734,-0l-0,215.678l-426.151,-0c-17.484,-0 -31.624,14.044 -31.624,31.528l0,170.945c0,17.485 14.14,31.625 31.624,31.625l63.056,-0l0,1375.64c0,17.581 14.232,31.625 31.625,31.625c17.484,-0 31.528,-14.044 31.528,-31.625l-0,-147.223l1767.67,-0l0,147.223c0,17.581 14.141,31.625 31.625,31.625c17.393,-0 31.619,-14.044 31.619,-31.625l-0,-1375.64l63.152,-0c17.484,-0 31.437,-14.14 31.437,-31.625l0,-170.945c0,-17.484 -13.953,-31.528 -31.437,-31.528Z" style="fill:#0b0b16;fill-rule:nonzero;"/></g></g></svg>