<?xml version="1.0" encoding="UTF-8" standalone="no"?><!DOCTYPE svg PUBLIC "-//W3C//DTD SVG 1.1//EN" "http://www.w3.org/Graphics/SVG/1.1/DTD/svg11.dtd"><svg width="100%" height="100%" viewBox="0 0 2084 2084" version="1.1" xmlns="http://www.w3.org/2000/svg" xmlns:xlink="http://www.w3.org/1999/xlink" xml:space="preserve" xmlns:serif="http://www.serif.com/" style="fill-rule:evenodd;clip-rule:evenodd;stroke-linejoin:round;stroke-miterlimit:2;"><rect id="画板1" x="0" y="0" width="2083.33" height="2083.33" style="fill:none;"/><clipPath id="_clip1"><rect id="画板11" serif:id="画板1" x="0" y="0" width="2083.33" height="2083.33"/></clipPath><g clip-path="url(#_clip1)"><g><path d="M895.369,978.516c34.878,-0 63.153,28.273 63.153,63.151c-0,34.877 -28.275,63.151 -63.153,63.151c-34.786,-0 -63.152,-28.274 -63.152,-63.151c-0,-34.878 28.366,-63.151 63.152,-63.151Zm0,189.453c69.664,-0 126.3,-56.734 126.3,-126.302c-0,-69.661 -56.636,-126.303 -126.3,-126.303c-69.567,0 -126.208,56.642 -126.208,126.303c-0,69.568 56.641,126.302 126.208,126.302Z" style="fill:#0b0b16;fill-rule:nonzero;"/><path d="M63.062,1041.67c-0,-458.892 373.414,-832.311 832.307,-832.311c458.984,0 832.308,373.419 832.308,832.311c0,458.891 -373.324,832.402 -832.308,832.402c-458.893,0 -832.307,-373.511 -832.307,-832.402Zm2002.79,678.106c-186.755,-93.378 -397.137,-70.684 -556.548,-27.158c173.08,-163.319 281.527,-394.624 281.527,-650.948c-0,-493.769 -401.787,-895.462 -895.461,-895.462c-493.674,-0 -895.369,401.693 -895.369,895.462c-0,493.769 401.695,895.461 895.369,895.461c139.697,0 271.951,-32.18 389.883,-89.472l2.696,-1.023c4.184,-2.418 426.151,-232.143 749.628,-70.312c15.622,7.812 34.599,1.395 42.41,-14.23c7.811,-15.625 1.487,-34.506 -14.135,-42.318Z" style="fill:#0b0b16;fill-rule:nonzero;"/><path d="M591.426,1242.19c-24.086,39.62 -62.126,67.522 -107.238,78.496c-93.006,22.694 -187.124,-34.505 -209.819,-127.511c-22.599,-93.006 34.508,-187.035 127.514,-209.821c13.76,-3.348 27.713,-4.929 41.479,-4.929c31.437,0 62.312,8.463 89.935,25.205c39.526,24.088 67.433,62.22 78.405,107.235c10.973,45.108 3.815,91.797 -20.276,131.325Zm-25.483,-292.504c-54.036,-32.739 -117.654,-42.69 -179.035,-27.716c-126.771,30.971 -204.802,159.412 -173.83,286.179c26.323,108.073 123.325,180.711 229.909,180.711c18.603,-0 37.392,-2.232 56.176,-6.789c61.478,-15.067 113.374,-53.014 146.208,-107.144c32.828,-53.943 42.688,-117.559 27.622,-179.037c-14.975,-61.476 -52.923,-113.373 -107.05,-146.204Z" style="fill:#0b0b16;fill-rule:nonzero;"/><path d="M1496.09,1021.49c-24.086,39.62 -62.125,67.522 -107.231,78.496c-45.016,10.882 -91.706,3.814 -131.329,-20.275c-39.617,-24.089 -67.427,-62.128 -78.497,-107.236c-10.973,-45.014 -3.718,-91.703 20.368,-131.325c23.995,-39.62 62.131,-67.428 107.237,-78.496c13.675,-3.442 27.532,-5.023 41.389,-5.023c31.437,0 62.312,8.557 89.844,25.391c39.617,23.996 67.523,62.128 78.405,107.143c11.064,45.108 3.809,91.703 -20.186,131.325Zm53.945,32.737c32.834,-53.944 42.689,-117.559 27.714,-179.035c-15.066,-61.478 -53.009,-113.375 -107.05,-146.206c-54.127,-32.831 -117.648,-42.598 -179.126,-27.716c-61.478,14.975 -113.283,53.014 -146.111,107.05c-32.834,54.129 -42.694,117.652 -27.719,179.036c14.975,61.477 53.014,113.374 107.05,146.298c37.483,22.786 79.705,34.506 122.49,34.506c18.881,-0 37.761,-2.325 56.545,-6.883c61.478,-14.974 113.374,-52.921 146.207,-107.05Z" style="fill:#0b0b16;fill-rule:nonzero;"/><path d="M1154.11,1584.17c-24.086,39.621 -62.125,67.523 -107.231,78.497c-45.016,10.975 -91.615,3.72 -131.329,-20.275c-39.527,-24.089 -67.427,-62.222 -78.497,-107.236c-10.973,-45.014 -3.718,-91.611 20.277,-131.324c24.086,-39.621 62.222,-67.523 107.238,-78.497c13.765,-3.349 27.713,-5.022 41.479,-5.022c31.437,-0 62.312,8.556 89.844,25.298c39.713,24.181 67.523,62.22 78.496,107.328c10.973,45.015 3.815,91.611 -20.277,131.231Zm-25.482,-292.503c-53.945,-32.831 -117.557,-42.598 -179.035,-27.623c-61.478,14.974 -113.374,53.013 -146.208,106.957c-32.737,54.129 -42.597,117.746 -27.622,179.129c26.322,108.073 123.421,180.711 230.006,180.711c18.415,-0 37.386,-2.232 56.079,-6.883c61.478,-14.973 113.374,-53.013 146.207,-106.956c32.834,-54.13 42.598,-117.746 27.714,-179.131c-14.97,-61.382 -53.009,-113.373 -107.141,-146.204Z" style="fill:#0b0b16;fill-rule:nonzero;"/><path d="M743.957,420.666c44.919,-10.974 91.7,-3.72 131.232,20.275c39.617,24.181 67.518,62.128 78.496,107.236c22.69,93.006 -34.599,187.128 -127.605,209.821c-92.818,22.6 -187.033,-34.505 -209.728,-127.511c-22.696,-93.098 34.502,-187.127 127.605,-209.821Zm41.11,405.414c18.506,-0 37.295,-2.141 56.079,-6.697c126.771,-30.972 204.802,-159.319 173.83,-286.087c-14.884,-61.477 -53.014,-113.374 -107.05,-146.298c-54.036,-32.831 -117.466,-42.69 -179.035,-27.716c-126.862,30.971 -204.802,159.32 -173.921,286.272c26.414,107.98 123.512,180.526 230.097,180.526Z" style="fill:#0b0b16;fill-rule:nonzero;"/></g></g></svg>