<?xml version="1.0" encoding="UTF-8" standalone="no"?><!DOCTYPE svg PUBLIC "-//W3C//DTD SVG 1.1//EN" "http://www.w3.org/Graphics/SVG/1.1/DTD/svg11.dtd"><svg width="100%" height="100%" viewBox="0 0 2084 2084" version="1.1" xmlns="http://www.w3.org/2000/svg" xmlns:xlink="http://www.w3.org/1999/xlink" xml:space="preserve" xmlns:serif="http://www.serif.com/" style="fill-rule:evenodd;clip-rule:evenodd;stroke-linejoin:round;stroke-miterlimit:2;"><rect id="画板1" x="0" y="0" width="2083.33" height="2083.33" style="fill:none;"/><clipPath id="_clip1"><rect id="画板11" serif:id="画板1" x="0" y="0" width="2083.33" height="2083.33"/></clipPath><g clip-path="url(#_clip1)"><g><path d="M2020.28,2020.27l-189.457,0l-0,-225.539l189.457,-0l0,225.539Zm-189.457,-1957.12l189.457,0l0,225.54l-189.457,-0l-0,-225.54Zm-0,1442.99l189.457,-0l0,225.446l-189.457,-0l-0,-225.446Zm189.457,-63.151l-189.457,-0l-0,-225.446l189.457,-0l0,225.446Zm0,-288.597l-189.457,-0l-0,-225.54l189.457,0l0,225.54Zm0,-288.598l-189.457,-0l-0,-225.353l189.457,0l0,225.353Zm0,-288.597l-189.457,-0l-0,-225.446l189.457,-0l0,225.446Zm31.528,-577.194l-252.513,0c-17.484,0 -31.619,14.136 -31.619,31.528l0,2020.27c0,17.393 14.135,31.623 31.619,31.623l252.513,0c17.484,0 31.528,-14.23 31.528,-31.623l0,-2020.27c0,-17.392 -14.044,-31.528 -31.528,-31.528Z" style="fill:#0b0b16;fill-rule:nonzero;"/><path d="M252.513,2020.27l-189.361,0l0,-225.539l189.361,-0l0,225.539Zm-189.361,-1957.12l189.361,0l0,225.54l-189.361,-0l0,-225.54Zm0,1442.99l189.361,-0l0,225.446l-189.361,-0l0,-225.446Zm189.361,-63.151l-189.361,-0l0,-225.446l189.361,-0l0,225.446Zm0,-288.597l-189.361,-0l0,-225.54l189.361,0l0,225.54Zm0,-288.598l-189.361,-0l0,-225.353l189.361,0l0,225.353Zm0,-288.597l-189.361,-0l0,-225.446l189.361,-0l0,225.446Zm31.716,-577.194l-252.605,0c-17.393,0 -31.624,14.136 -31.624,31.528l0,2020.27c0,17.393 14.231,31.623 31.624,31.623l252.605,0c17.393,0 31.437,-14.23 31.437,-31.623l-0,-2020.27c-0,-17.392 -14.044,-31.528 -31.437,-31.528Z" style="fill:#0b0b16;fill-rule:nonzero;"/><path d="M1562.5,822.823c-0,46.131 -37.483,83.519 -83.52,83.519l-874.536,-0c-46.037,-0 -83.52,-37.388 -83.52,-83.519l-0,-590.402c-0,-46.131 37.483,-83.519 83.52,-83.519l874.536,0c46.037,0 83.52,37.388 83.52,83.519l-0,590.402Zm-83.52,-737.072l-874.536,0c-80.914,0 -146.672,65.755 -146.672,146.67l-0,590.402c-0,80.822 65.758,146.763 146.672,146.763l874.536,0c80.914,0 146.667,-65.941 146.667,-146.763l-0,-590.402c-0,-80.915 -65.753,-146.67 -146.667,-146.67Z" style="fill:#0b0b16;fill-rule:nonzero;"/><path d="M1562.5,1851c-0,46.039 -37.483,83.52 -83.52,83.52l-874.536,-0c-46.037,-0 -83.52,-37.481 -83.52,-83.52l-0,-590.401c-0,-46.131 37.483,-83.612 83.52,-83.612l874.536,-0c46.037,-0 83.52,37.481 83.52,83.612l-0,590.401Zm-83.52,-737.164l-874.536,-0c-80.914,-0 -146.672,65.755 -146.672,146.763l-0,590.401c-0,80.822 65.758,146.671 146.672,146.671l874.536,0c80.914,0 146.667,-65.849 146.667,-146.671l-0,-590.401c-0,-81.008 -65.753,-146.763 -146.667,-146.763Z" style="fill:#0b0b16;fill-rule:nonzero;"/></g></g></svg>