<?xml version="1.0" encoding="UTF-8" standalone="no"?><!DOCTYPE svg PUBLIC "-//W3C//DTD SVG 1.1//EN" "http://www.w3.org/Graphics/SVG/1.1/DTD/svg11.dtd"><svg width="100%" height="100%" viewBox="0 0 2084 2084" version="1.1" xmlns="http://www.w3.org/2000/svg" xmlns:xlink="http://www.w3.org/1999/xlink" xml:space="preserve" xmlns:serif="http://www.serif.com/" style="fill-rule:evenodd;clip-rule:evenodd;stroke-linejoin:round;stroke-miterlimit:2;"><rect id="画板1" x="0" y="0" width="2083.33" height="2083.33" style="fill:none;"/><clipPath id="_clip1"><rect id="画板11" serif:id="画板1" x="0" y="0" width="2083.33" height="2083.33"/></clipPath><g clip-path="url(#_clip1)"><g><path d="M1060.49,1224.85c185.548,-97.003 382.816,-7.998 392.303,-3.627c15.903,7.351 34.598,0.466 41.945,-15.253c7.441,-15.81 0.559,-34.503 -15.16,-41.945c-10.882,-5.115 -236.423,-107.886 -450.152,5.677c65.848,-132.443 208.986,-355.383 443.829,-409.885c17.112,-3.997 27.622,-20.925 23.623,-37.943c-3.907,-16.928 -20.927,-27.532 -37.853,-23.627c-270.093,62.875 -425.322,314.176 -492.658,455.083c-41.667,-163.693 -158.297,-478.334 -457.686,-612.077c-15.997,-7.067 -34.599,0.091 -41.667,15.997c-7.162,15.906 0.093,34.599 15.904,41.667c255.676,114.209 368.213,383 413.787,541.669c-86.683,-85.008 -236.424,-188.71 -437.69,-166.946c-17.392,1.953 -29.948,17.484 -28.087,34.787c1.859,17.388 17.206,29.763 34.784,27.992c186.571,-19.903 325.709,86.779 400.766,164.533c-87.52,-16.281 -219.682,-18.978 -353.426,61.472c-14.973,8.93 -19.81,28.367 -10.788,43.342c5.858,9.86 16.276,15.253 27.065,15.253l16.183,-4.371c195.035,-117.371 393.976,-29.854 397.231,-28.366l1.303,0.374l1.301,0.557l0.466,0.278l1.115,0.187l2.698,0.744l2.604,0.187l1.675,0.278l1.395,0.091l0.372,0.097l0.186,0.09l0.092,0l3.999,-0.278l1.395,-0.465l1.675,-0c160.157,-37.205 260.884,108.169 265.162,114.305c6.046,9.117 15.997,13.857 26.135,13.857l17.578,-5.302c14.416,-9.764 18.323,-29.388 8.556,-43.807c-4.091,-6.136 -84.077,-122.395 -219.96,-144.625Z" style="fill:#0b0b16;fill-rule:nonzero;"/><path d="M949.529,915.326c0.186,17.302 14.23,31.068 31.53,31.068l0.372,0c17.486,-0.284 31.436,-14.606 31.158,-31.999c-0,-1.953 -1.489,-191.776 116.072,-323.287c11.533,-13.023 10.417,-32.925 -2.512,-44.551c-13.02,-11.626 -32.924,-10.513 -44.642,2.509c-133.651,149.649 -132.163,357.518 -131.978,366.26Z" style="fill:#0b0b16;fill-rule:nonzero;"/><path d="M272.162,756.004c-17.393,1.118 -30.6,16.093 -29.483,33.487c1.023,17.393 16.369,30.972 33.389,29.575c189.269,-11.904 343.195,86.03 344.87,87.052l17.02,5.024c10.323,0 20.554,-5.024 26.599,-14.419c9.394,-14.6 5.302,-34.037 -9.301,-43.619c-6.975,-4.462 -172.062,-110.117 -383.094,-97.1Z" style="fill:#0b0b16;fill-rule:nonzero;"/><path d="M1226.6,998.756c-15.067,8.742 -20.276,27.992 -11.44,43.063c5.766,10.133 16.369,15.713 27.345,15.713l15.717,-4.183c1.395,-0.835 135.976,-77.476 294.367,-48.547c17.112,2.974 33.575,-8.283 36.737,-25.392c3.069,-17.206 -8.277,-33.669 -25.391,-36.831c-180.711,-32.924 -331.01,52.55 -337.335,56.177Z" style="fill:#0b0b16;fill-rule:nonzero;"/><path d="M646.234,1594.65c81.381,-149.093 242.19,-175.972 244.702,-176.341c17.206,-2.605 29.11,-18.693 26.506,-35.808c-2.604,-17.297 -18.507,-29.02 -35.899,-26.601c-7.907,1.118 -193.64,30.881 -290.74,208.521c-8.37,15.253 -2.698,34.509 12.555,42.876l15.161,3.815c11.161,-0 21.949,-6.046 27.715,-16.462Z" style="fill:#0b0b16;fill-rule:nonzero;"/><path d="M1071.37,1421.75c-13.114,-11.348 -33.11,-9.951 -44.55,3.259c-11.348,13.204 -9.953,33.106 3.255,44.454c0.558,0.465 51.339,46.781 55.99,140.906c0.931,16.928 14.881,29.95 31.529,29.95l1.581,0c17.392,-0.931 30.879,-15.718 29.949,-33.112c-6.139,-122.213 -74.871,-182.942 -77.754,-185.457Z" style="fill:#0b0b16;fill-rule:nonzero;"/><path d="M778.583,249.025c10.325,-1.391 19.16,-7.902 23.717,-17.206l36.365,-73.382l36.087,73.382c4.651,9.304 13.58,15.815 23.903,17.206l81.009,11.813l-58.687,57.108c-7.441,7.442 -10.788,17.762 -9.022,27.992l13.765,80.733l-72.451,-38.136c-9.208,-4.836 -20.184,-4.836 -29.391,0l-72.452,38.136l13.765,-80.733c1.766,-10.23 -1.581,-20.55 -9.022,-27.992l-58.687,-57.108l81.101,-11.813Zm-78.405,102.68l-21.763,127.419c-2.046,11.813 2.79,23.717 12.556,30.784l18.509,6.046l14.695,-3.627l114.49,-60.082l114.306,60.082c10.603,5.58 23.531,4.655 33.297,-2.419c9.673,-7.067 14.509,-18.971 12.463,-30.784l-21.765,-127.419l92.543,-90.31c8.556,-8.368 11.718,-20.925 7.998,-32.363c-3.721,-11.348 -13.578,-19.721 -25.484,-21.395l-127.884,-18.597l-57.292,-115.981c-10.602,-21.486 -45.945,-21.486 -56.548,0l-57.2,115.981l-127.976,18.597c-11.906,1.674 -21.765,10.047 -25.484,21.395c-3.721,11.438 -0.558,23.995 7.998,32.363l92.541,90.31Z" style="fill:#0b0b16;fill-rule:nonzero;"/><path d="M1423.86,388.814c10.323,-1.391 19.159,-7.902 23.81,-17.207l23.531,-48.081l23.81,48.081c4.557,9.305 13.486,15.816 23.717,17.207l53.013,7.72l-38.319,37.392c-7.533,7.158 -10.881,17.672 -9.114,27.901l9.022,52.736l-47.341,-24.926l-14.788,-3.627l-14.602,3.627l-47.34,24.926l9.021,-52.736c1.767,-10.229 -1.581,-20.743 -9.115,-27.901l-38.319,-37.392l53.014,-7.72Zm-70.592,78.684l-17.02,99.427c-2.046,11.813 2.884,23.808 12.555,30.785c9.767,7.067 22.602,8.089 33.205,2.509l89.193,-46.969l89.379,46.969l14.696,3.627l18.507,-6.136c9.673,-6.977 14.696,-18.972 12.649,-30.785l-17.113,-99.427l72.267,-70.402c8.556,-8.464 11.626,-20.93 7.906,-32.369c-3.721,-11.438 -13.58,-19.811 -25.484,-21.486l-99.704,-14.413l-44.736,-90.498c-10.603,-21.577 -45.946,-21.577 -56.549,0l-44.643,90.498l-99.796,14.413c-11.905,1.675 -21.763,10.048 -25.484,21.486c-3.719,11.439 -0.743,23.905 7.999,32.369l72.173,70.402Z" style="fill:#0b0b16;fill-rule:nonzero;"/><path d="M1945.54,901.191c-7.347,7.255 -10.695,17.671 -9.022,27.992l9.022,52.736l-47.34,-24.926c-9.115,-4.837 -20.089,-4.837 -29.297,-0l-47.434,24.926l9.115,-52.736c1.675,-10.321 -1.675,-20.737 -9.115,-27.901l-38.318,-37.296l52.92,-7.811c10.324,-1.488 19.16,-7.908 23.81,-17.297l23.624,-47.996l23.717,47.996c4.649,9.389 13.485,15.809 23.81,17.297l52.92,7.811l-38.412,37.205Zm136.256,-69.012c-3.721,-11.438 -13.58,-19.811 -25.484,-21.673l-99.796,-14.413l-44.645,-90.498c-10.602,-21.481 -45.944,-21.481 -56.64,0l-44.643,90.498l-99.796,14.413c-11.906,1.862 -21.764,10.235 -25.484,21.673c-3.721,11.252 -0.559,23.905 7.998,32.181l72.266,70.499l-17.112,99.518c-2.047,11.717 2.79,23.621 12.555,30.785l18.601,6.045l14.602,-3.627l89.287,-46.969l89.379,46.969c10.511,5.58 23.532,4.649 33.203,-2.418c9.673,-7.164 14.602,-19.068 12.557,-30.881l-17.114,-99.422l72.267,-70.408c8.556,-8.367 11.718,-21.02 7.999,-32.272Z" style="fill:#0b0b16;fill-rule:nonzero;"/><path d="M1696.47,1438.12c-7.44,7.255 -10.788,17.671 -9.021,27.991l8.928,52.737l-47.247,-24.926c-9.3,-4.928 -20.182,-4.928 -29.39,-0l-47.434,24.926l9.115,-52.737c1.767,-10.32 -1.675,-20.736 -9.115,-27.991l-38.318,-37.393l53.013,-7.623c10.231,-1.488 19.16,-7.999 23.717,-17.303l23.716,-47.991l23.625,47.991c4.649,9.304 13.579,15.815 23.809,17.303l52.921,7.623l-38.319,37.393Zm110.678,-90.589l-99.796,-14.509l-44.644,-90.402c-5.3,-10.882 -16.275,-17.768 -28.274,-17.768c-11.998,0 -23.064,6.886 -28.273,17.672l-44.736,90.498l-99.796,14.509c-11.906,1.675 -21.671,9.951 -25.484,21.39c-3.721,11.438 -0.559,23.995 7.998,32.368l72.266,70.499l-17.113,99.331c-1.954,11.813 2.883,23.808 12.556,30.875c9.673,7.073 22.694,7.999 33.203,2.418l89.379,-46.872l89.193,46.872l14.79,3.628l18.507,-6.046c9.673,-7.067 14.603,-19.062 12.649,-30.875l-17.206,-99.331l72.267,-70.499c8.648,-8.373 11.718,-20.93 7.999,-32.368c-3.722,-11.439 -13.487,-19.715 -25.485,-21.39Z" style="fill:#0b0b16;fill-rule:nonzero;"/><path d="M900.701,1856.28c-7.44,7.352 -10.882,17.859 -9.115,27.998l9.115,52.827l-47.432,-24.926c-9.208,-4.837 -20.184,-4.837 -29.298,-0l-47.434,24.926l9.021,-52.827c1.769,-10.139 -1.58,-20.646 -9.113,-27.998l-38.226,-37.199l52.921,-7.817c10.229,-1.487 19.159,-7.902 23.716,-17.206l23.809,-47.894l23.625,47.894c4.557,9.304 13.485,15.719 23.716,17.206l52.921,7.817l-38.226,37.199Zm110.679,-90.492l-99.89,-14.509l-44.643,-90.498c-10.602,-21.577 -45.945,-21.577 -56.548,0l-44.643,90.498l-99.89,14.509c-11.905,1.669 -21.67,10.043 -25.39,21.39c-3.813,11.439 -0.651,23.996 7.905,32.459l72.267,70.312l-17.02,99.518c-2.047,11.813 2.882,23.808 12.461,30.784l18.603,6.143l14.694,-3.724l89.379,-46.873l89.194,46.873c10.604,5.58 23.531,4.745 33.296,-2.419c9.767,-6.976 14.51,-18.971 12.463,-30.784l-17.02,-99.518l72.267,-70.312c8.557,-8.463 11.718,-21.02 7.999,-32.459c-3.721,-11.347 -13.58,-19.721 -25.484,-21.39Z" style="fill:#0b0b16;fill-rule:nonzero;"/><path d="M316.154,1225.69c-7.441,7.254 -10.789,17.762 -9.022,27.991l9.022,52.737l-47.247,-24.927c-9.302,-4.836 -20.182,-4.836 -29.39,0l-47.434,24.927l9.021,-52.737c1.861,-10.229 -1.581,-20.737 -9.021,-27.901l-38.319,-37.386l52.921,-7.63c10.324,-1.578 19.16,-7.998 23.717,-17.296l23.717,-47.991l23.716,47.894c4.558,9.395 13.486,15.815 23.717,17.393l53.014,7.63l-38.412,37.296Zm110.678,-90.589l-99.796,-14.509l-44.643,-90.402c-5.208,-10.882 -16.276,-17.671 -28.274,-17.671c-11.998,-0 -22.974,6.789 -28.274,17.671l-44.644,90.402l-99.797,14.509c-11.904,1.675 -21.763,10.042 -25.484,21.481c-3.719,11.444 -0.557,23.995 8,32.368l72.172,70.499l-17.02,99.33c-2.045,11.814 2.79,23.808 12.557,30.882c9.765,7.067 22.694,7.998 33.203,2.321l89.287,-46.872l89.286,46.872l14.695,3.628l18.509,-5.949c9.765,-7.074 14.602,-19.068 12.555,-30.882l-17.02,-99.33l72.266,-70.499c8.557,-8.373 11.719,-20.924 7.998,-32.368c-3.719,-11.439 -13.578,-19.806 -25.576,-21.481Z" style="fill:#0b0b16;fill-rule:nonzero;"/><path d="M152.276,461.083c10.417,-1.487 19.159,-7.998 23.903,-17.302l23.624,-48.082l23.624,48.082c4.65,9.304 13.486,15.815 23.809,17.302l52.921,7.624l-38.226,37.392c-7.534,7.159 -10.882,17.575 -9.115,27.901l9.022,52.737l-47.433,-24.836l-14.602,-3.718l-14.696,3.718l-47.34,24.836l9.021,-52.737c1.675,-10.326 -1.674,-20.742 -9.021,-27.901l-38.411,-37.392l52.92,-7.624Zm-87.612,178.015c-2.047,11.814 2.882,23.718 12.555,30.876c9.766,7.067 22.694,7.998 33.205,2.418l89.379,-46.969l89.286,46.969l14.602,3.537l18.602,-5.955c9.672,-7.158 14.602,-19.062 12.555,-30.876l-17.02,-99.427l72.174,-70.498c8.649,-8.277 11.718,-20.834 7.998,-32.272c-3.813,-11.439 -13.579,-19.812 -25.484,-21.577l-99.796,-14.419l-44.643,-90.492c-10.604,-21.486 -46.039,-21.486 -56.642,-0l-44.643,90.492l-99.796,14.419c-11.811,1.765 -21.764,10.138 -25.484,21.577c-3.627,11.438 -0.651,23.995 8.092,32.272l72.172,70.498l-17.112,99.427Z" style="fill:#0b0b16;fill-rule:nonzero;"/></g></g></svg>