<?xml version="1.0" encoding="UTF-8" standalone="no"?><!DOCTYPE svg PUBLIC "-//W3C//DTD SVG 1.1//EN" "http://www.w3.org/Graphics/SVG/1.1/DTD/svg11.dtd"><svg width="100%" height="100%" viewBox="0 0 2084 2084" version="1.1" xmlns="http://www.w3.org/2000/svg" xmlns:xlink="http://www.w3.org/1999/xlink" xml:space="preserve" xmlns:serif="http://www.serif.com/" style="fill-rule:evenodd;clip-rule:evenodd;stroke-linejoin:round;stroke-miterlimit:2;"><rect id="画板1" x="0" y="0" width="2083.33" height="2083.33" style="fill:none;"/><clipPath id="_clip1"><rect id="画板11" serif:id="画板1" x="0" y="0" width="2083.33" height="2083.33"/></clipPath><g clip-path="url(#_clip1)"><g><path d="M1266.26,284.682c76.544,22.792 149.274,57.107 216.239,102.123c105.004,70.777 189.177,162.392 249.912,272.508c5.671,10.326 16.553,16.372 27.623,16.372l15.253,-4.002c15.253,-8.368 20.833,-27.623 12.369,-42.876c-65.571,-119.045 -156.437,-217.91 -269.908,-294.273c-72.264,-48.734 -150.855,-85.751 -233.538,-110.303c-16.834,-4.927 -34.318,4.558 -39.249,21.39c-5.023,16.558 4.559,34.23 21.299,39.061Z" style="fill:#0b0b16;fill-rule:nonzero;"/><path d="M228.961,1178.38l4.187,-0.182c17.206,-2.418 29.482,-18.233 27.251,-35.53c-17.3,-132.351 -0.65,-267.581 48.178,-390.997c20.833,-52.646 47.618,-103.424 79.612,-150.858c81.381,-121.004 194.011,-216.706 325.988,-276.976c15.903,-7.254 22.88,-25.857 15.625,-41.854c-7.255,-15.809 -26.041,-22.877 -41.854,-15.531c-142.578,64.918 -264.322,168.438 -352.308,299.018c-34.412,51.244 -63.244,106.12 -85.752,162.949c-52.827,133.368 -70.776,279.479 -52.177,422.435c2.047,15.997 15.625,27.526 31.25,27.526Z" style="fill:#0b0b16;fill-rule:nonzero;"/><path d="M1696.23,1481.31c-120.351,178.849 -303.758,298.365 -516.185,336.03c-202.382,35.905 -407.556,-7.533 -578.035,-122.304c-33.856,-22.689 -66.037,-48.172 -95.89,-75.613c-12.742,-11.904 -32.647,-11.16 -44.551,1.771c-11.904,12.648 -11.066,32.641 1.675,44.545c32.272,29.672 66.965,57.204 103.423,81.755c142.022,95.516 306.364,145.278 474.24,145.278c49.943,-0 100.168,-4.281 150.111,-13.21c229.542,-40.827 427.646,-169.732 557.761,-363c9.673,-14.606 5.767,-34.23 -8.555,-43.903c-14.509,-9.673 -34.321,-5.859 -43.994,8.651Z" style="fill:#0b0b16;fill-rule:nonzero;"/><path d="M1687.77,222.647c-13.579,-10.786 -33.481,-8.367 -44.363,5.211c-10.695,13.766 -8.464,33.572 5.302,44.454c399.927,314.828 490.237,892.588 205.637,1315.39c-9.673,14.418 -5.767,34.043 8.742,43.903l17.581,5.296c10.042,0 20.18,-4.836 26.226,-13.947c302.924,-450.058 206.756,-1065.11 -219.125,-1400.31Z" style="fill:#0b0b16;fill-rule:nonzero;"/><path d="M347.453,338.258l21.762,-8.651c164.345,-155.881 380.118,-250.097 607.332,-265.628c17.487,-1.113 30.6,-16.088 29.391,-33.572c-1.115,-17.393 -16.369,-30.694 -33.575,-29.394c-242.002,16.372 -471.637,116.724 -646.674,282.743c-12.648,12.092 -13.207,31.994 -1.209,44.551c6.23,6.602 14.603,9.951 22.973,9.951Z" style="fill:#0b0b16;fill-rule:nonzero;"/><path d="M415.999,1793.72c-258.558,-214.567 -390.257,-555.252 -343.566,-888.955c2.418,-17.302 -9.673,-33.299 -26.879,-35.621c-17.393,-2.606 -33.297,9.576 -35.715,26.879c-49.571,355.28 90.588,717.82 365.793,946.34c26.973,22.411 55.339,43.619 84.636,63.244l17.578,5.483c10.232,0 20.184,-4.927 26.229,-14.044c9.673,-14.413 5.859,-34.037 -8.557,-43.71c-27.529,-18.603 -54.221,-38.596 -79.519,-59.616Z" style="fill:#0b0b16;fill-rule:nonzero;"/><path d="M1533.47,1888.21c-136.255,78.775 -291.574,124.257 -449.314,131.046c-17.394,0.84 -30.878,15.531 -30.135,32.925c0.744,16.928 14.697,30.228 31.438,30.228l1.487,0c167.876,-7.351 333.243,-55.62 478.145,-139.51c15.069,-8.651 20.184,-27.997 11.442,-43.154c-8.742,-15.071 -27.904,-20.277 -43.063,-11.535Z" style="fill:#0b0b16;fill-rule:nonzero;"/><path d="M1760.87,1148.34l-285.809,0l50.781,-52.083c12.185,-12.461 11.907,-32.55 -0.65,-44.642c-12.369,-12.091 -32.366,-11.904 -44.551,0.557l-93.656,96.168l-268.884,0l43.994,-54.127c10.973,-13.675 9.021,-33.481 -4.558,-44.46c-13.485,-11.063 -33.481,-9.02 -44.457,4.559l-76.45,94.028l-283.578,0l-200.707,-368.864l151.042,-0l182.944,183.038l22.134,9.208l697.92,-0c14.697,68.268 75.432,119.885 148.07,119.885l88.539,0c-12.647,33.112 -44.55,56.733 -82.124,56.733Zm-719.685,354.729l-212.148,0l237.54,-291.667l258.836,0l-284.228,291.667Zm-126.487,-863.194l212.054,0l261.814,268.694l-255.118,0l-218.75,-268.694Zm928.296,388.489l-88.539,-0c-37.483,-0 -69.476,-23.53 -82.22,-56.642l88.635,-0c37.574,-0 69.477,23.626 82.124,56.642Zm69.386,31.619c0,-83.515 -67.989,-151.414 -151.51,-151.414l-284.134,0l-313.991,-322.173c-5.952,-6.137 -14.044,-9.577 -22.601,-9.577l-291.946,-0c-12.184,-0 -23.251,6.971 -28.553,17.95c-5.208,11.063 -3.628,23.995 4.093,33.571l228.236,280.229l-130.209,0l-183.035,-182.942l-22.324,-9.298l-217.169,-0c-11.067,-0 -21.393,5.858 -27.157,15.435c-5.674,9.582 -5.862,21.486 -0.56,31.159l234.935,432.108c5.58,10.138 16.184,16.371 27.81,16.371l250.744,0l-246.839,303.293c-7.72,9.486 -9.301,22.508 -4.092,33.481c5.208,11.069 16.368,18.137 28.553,18.137l291.948,-0c8.464,-0 16.647,-3.44 22.508,-9.673l336.496,-345.238l347.287,0c83.521,0 151.51,-67.802 151.51,-151.419Z" style="fill:#0b0b16;fill-rule:nonzero;"/></g></g></svg>