<?xml version="1.0" encoding="UTF-8" standalone="no"?><!DOCTYPE svg PUBLIC "-//W3C//DTD SVG 1.1//EN" "http://www.w3.org/Graphics/SVG/1.1/DTD/svg11.dtd"><svg width="100%" height="100%" viewBox="0 0 2084 2084" version="1.1" xmlns="http://www.w3.org/2000/svg" xmlns:xlink="http://www.w3.org/1999/xlink" xml:space="preserve" xmlns:serif="http://www.serif.com/" style="fill-rule:evenodd;clip-rule:evenodd;stroke-linejoin:round;stroke-miterlimit:2;"><rect id="画板1" x="0" y="0" width="2083.33" height="2083.33" style="fill:none;"/><clipPath id="_clip1"><rect id="画板11" serif:id="画板1" x="0" y="0" width="2083.33" height="2083.33"/></clipPath><g clip-path="url(#_clip1)"><g><path d="M1697.56,1265.86c-101.747,231.953 -270.55,424.286 -410.709,467.72c-46.316,14.416 -86.308,11.254 -118.673,-8.835c-29.204,-18.137 -45.759,-38.226 -50.688,-61.477c-11.905,-56.266 42.875,-137.089 95.888,-215.397c64.173,-94.589 130.486,-192.521 120.906,-290.734c-9.115,-93.842 -38.225,-168.247 -63.894,-233.814c-34.97,-89.19 -62.5,-159.597 -33.11,-250.739c30.785,-95.798 80.728,-155.879 148.435,-178.758c20.462,-6.88 42.782,-10.229 66.22,-10.229c66.405,-0 142.576,26.878 214.747,77.38c160.434,112.35 172.338,382.248 30.878,704.883Zm5.395,-756.594c-54.873,-38.319 -197.356,-122.301 -337.422,-75.24c-87.703,29.482 -151.133,103.234 -188.427,219.212c-36.179,112.441 -1.767,200.238 34.504,293.058c25.391,64.823 51.618,131.787 59.896,217.071c7.254,75.334 -52.548,163.69 -110.397,249.068c-63.243,93.376 -122.952,181.36 -105.374,263.855c8.556,40.456 35.156,74.59 79.054,102.024c29.017,18.137 62.127,27.16 97.934,27.16c23.251,-0 47.618,-3.908 72.822,-11.719c158.759,-49.108 339.561,-251.114 449.864,-502.506c156.527,-357.138 136.903,-649.452 -52.454,-781.983Z" style="fill:#0b0b16;fill-rule:nonzero;"/><path d="M1340.14,71.026l0.93,-0c39.062,-0 73.102,54.407 74.497,119.417c0.744,34.04 -7.627,67.058 -23.065,90.587c-7.627,11.813 -23.809,31.53 -46.968,31.993c-23.809,0.559 -40.27,-18.506 -48.362,-29.759c-16.462,-22.973 -26.32,-55.619 -27.065,-89.565c-1.488,-65.567 30.599,-121.836 70.033,-122.673Zm4.464,305.242l2.325,-0.093c38.039,-0.838 73.939,-22.88 98.492,-60.734c22.508,-34.505 34.319,-79.333 33.296,-126.391c-2.325,-103.143 -64.173,-182.01 -140.065,-181.173c-76.078,1.672 -133.927,83.888 -131.601,187.218c1.022,46.965 14.787,91.424 38.783,124.811c25.762,35.901 61.568,56.362 98.77,56.362Z" style="fill:#0b0b16;fill-rule:nonzero;"/><path d="M1586.32,234.062c17.857,-40.735 48.828,-63.242 71.242,-63.242l11.068,2.233c22.042,9.579 31.901,53.754 10.788,101.841c-10.137,23.435 -26.32,43.246 -44.084,54.313c-8.277,5.208 -24.275,12.928 -38.132,6.789c-22.042,-9.579 -31.901,-53.942 -10.882,-101.934Zm-14.508,159.784c11.439,4.93 23.716,7.439 36.272,7.439c20.089,-0 41.015,-6.23 60.732,-18.599c28.738,-17.765 53.105,-47.246 68.544,-82.498c34.226,-78.03 15.253,-159.315 -43.34,-184.985c-58.593,-25.669 -131.23,15.347 -165.455,93.471c-34.319,78.217 -15.253,159.502 43.247,185.172Z" style="fill:#0b0b16;fill-rule:nonzero;"/><path d="M1831.2,367.617c20.926,-23.995 46.874,-35.992 65.568,-35.992l18.136,5.767c15.346,13.298 10.603,53.383 -18.601,86.96c-29.296,33.574 -68.359,43.618 -83.704,30.318c-15.346,-13.485 -10.696,-53.663 18.601,-87.053Zm-60.174,134.58c16.648,14.506 37.573,21.389 59.802,21.389c38.039,0 80.263,-20.18 113.001,-57.662c51.989,-59.615 57.477,-136.902 12.648,-176.059c-44.921,-39.247 -120.813,-23.344 -172.803,36.18c-51.989,59.431 -57.569,136.811 -12.648,176.152Z" style="fill:#0b0b16;fill-rule:nonzero;"/><path d="M1983.08,632.494l-0.093,-0c-13.764,5.489 -28.366,7.07 -39.899,4.374l-13.578,-8.186l4.464,-15.347c6.604,-9.763 18.415,-18.508 32.272,-23.807c10.231,-4.093 19.811,-5.674 27.902,-5.674c13.951,0 23.716,4.743 25.577,9.486c2.975,7.626 -8.743,28.181 -36.645,39.154Zm95.423,-62.034c-17.577,-45.105 -76.914,-62.592 -135.228,-39.804c-25.855,10.042 -47.619,26.785 -61.477,47.153c-16.089,23.623 -20.182,50.501 -11.067,73.752c9.021,23.345 30.319,40.27 58.221,46.781c8.277,1.953 17.02,2.884 26.041,2.884c16.741,-0 34.226,-3.35 50.967,-9.951c58.313,-22.695 90.121,-75.799 72.543,-120.815Z" style="fill:#0b0b16;fill-rule:nonzero;"/><path d="M900.878,1940.05c-6.324,22.786 -23.995,41.759 -54.222,58.221c-33.574,18.322 -73.566,18.878 -118.953,1.86c-137.275,-51.711 -294.452,-253.811 -382.156,-491.159c-122.022,-330.353 -94.214,-599.322 72.637,-701.812c69.288,-42.691 140.902,-65.105 203.68,-65.105c29.203,0 56.36,4.837 80.728,14.697c66.219,26.785 112.535,89.749 137.647,187.218c23.809,92.63 -7.905,161.456 -47.99,248.228c-29.576,64.173 -63.058,136.532 -77.753,229.815c-15.346,97.376 45.108,199.031 103.514,297.244c48.27,81.286 98.12,165.361 82.868,220.793Zm-123.975,-508.364c13.299,-84.447 43.526,-149.83 72.636,-213.075c41.759,-90.4 81.287,-175.965 51.804,-290.359c-30.319,-118.024 -89.285,-195.31 -175.128,-230.003c-137.089,-55.335 -284.223,20.09 -341.141,55.06c-196.984,121.092 -233.907,411.732 -98.771,777.427c95.05,257.438 263.575,469.954 419.172,528.453c29.018,10.973 57.291,16.275 84.263,16.275c31.063,0 60.452,-7.255 87.052,-21.576c45.479,-24.833 74.124,-57.385 85.006,-97.098c22.414,-81.379 -31.994,-172.709 -89.47,-269.619c-52.734,-88.821 -107.235,-180.43 -95.423,-255.485Z" style="fill:#0b0b16;fill-rule:nonzero;"/><path d="M690.873,452.067c2.697,-33.855 14.509,-65.848 32.273,-87.705c8.371,-10.323 25.205,-27.157 46.688,-27.157l3.349,0.187c22.972,1.859 38.038,22.599 45.014,34.69c13.95,24.647 20.367,58.034 17.67,91.795c-2.79,33.946 -14.601,65.942 -32.365,87.891c-8.836,10.882 -27.158,28.643 -50.13,26.972c-22.971,-1.956 -38.038,-22.695 -45.014,-34.693c-13.95,-24.554 -20.368,-58.127 -17.485,-91.98Zm57.384,189.543l8.371,0.279c35.062,-0 69.66,-18.043 95.887,-50.408c25.949,-31.993 42.411,-75.427 46.224,-122.302c3.813,-46.967 -5.301,-92.539 -25.67,-128.347c-22.321,-39.063 -56.825,-63.242 -94.771,-66.404c-37.946,-2.79 -75.892,15.159 -104.259,50.13c-25.855,31.993 -42.317,75.518 -46.13,122.392c-3.906,46.874 5.208,92.448 25.669,128.253c22.228,39.063 56.733,63.246 94.679,66.407Z" style="fill:#0b0b16;fill-rule:nonzero;"/><path d="M439.202,419.609l9.487,-1.584c11.16,0 21.949,6.233 28.18,10.604c17.114,12.185 31.994,32.924 40.83,56.919c18.228,49.198 5.766,92.82 -16.834,101.096c-22.694,8.37 -60.361,-16.74 -78.496,-65.848c-18.229,-49.292 -5.766,-92.817 16.833,-101.187Zm52.176,231.859c10.603,-0 21.112,-1.859 31.343,-5.674c59.988,-22.042 83.797,-102.118 54.222,-182.195c-13.3,-36.086 -35.9,-66.779 -63.522,-86.309c-30.785,-21.855 -65.848,-28.088 -96.075,-16.834c-59.987,22.042 -83.703,102.212 -54.221,182.198c24.553,66.311 76.822,108.814 128.253,108.814Z" style="fill:#0b0b16;fill-rule:nonzero;"/><path d="M183.625,569.158l15.905,-4.834l16.461,2.975c17.671,5.58 35.621,19.067 49.386,36.923c27.25,35.248 29.576,75.427 13.485,87.984c-16.089,12.46 -54.5,0.09 -81.751,-35.158c-13.857,-17.856 -22.414,-38.689 -23.53,-57.104c-0.465,-8.279 0.186,-23.251 10.044,-30.786Zm79.148,191.033c19.996,-0 38.876,-5.858 54.686,-18.137c47.153,-36.364 46.224,-113.931 -2.139,-176.43c-21.669,-28.088 -50.036,-48.827 -79.891,-58.5c-33.481,-10.882 -66.498,-6.417 -90.4,12.091c-23.902,18.415 -36.458,49.293 -34.412,84.448c1.86,31.249 14.788,63.989 36.551,91.983c32.179,41.665 75.985,64.545 115.605,64.545Z" style="fill:#0b0b16;fill-rule:nonzero;"/><path d="M98.061,859.707c-27.157,-12.651 -37.667,-33.855 -34.225,-41.295c3.348,-7.348 26.413,-13.3 53.57,-0.652c27.344,12.556 37.76,33.855 34.412,41.203c-3.441,7.345 -26.413,13.297 -53.757,0.744Zm45.852,-99.332c-56.826,-26.225 -117.186,-12.182 -137.461,31.715c-20.182,43.806 8.463,98.772 65.289,124.907c19.345,8.929 39.155,13.207 57.663,13.207c35.621,-0 66.405,-15.903 79.705,-44.828c20.275,-43.9 -8.37,-98.772 -65.196,-125.001Z" style="fill:#0b0b16;fill-rule:nonzero;"/></g></g></svg>