<?xml version="1.0" encoding="UTF-8" standalone="no"?><!DOCTYPE svg PUBLIC "-//W3C//DTD SVG 1.1//EN" "http://www.w3.org/Graphics/SVG/1.1/DTD/svg11.dtd"><svg width="100%" height="100%" viewBox="0 0 2084 2084" version="1.1" xmlns="http://www.w3.org/2000/svg" xmlns:xlink="http://www.w3.org/1999/xlink" xml:space="preserve" xmlns:serif="http://www.serif.com/" style="fill-rule:evenodd;clip-rule:evenodd;stroke-linejoin:round;stroke-miterlimit:2;"><rect id="画板1" x="0" y="0" width="2083.33" height="2083.33" style="fill:none;"/><g id="画板11" serif:id="画板1"><g><path d="M524.368,1699.4l122.675,0c61.849,43.438 143.042,73.479 243.116,89.844l-0,174.67l-365.791,0l-0,-264.514Zm-434.896,-63.056l181.176,-314.36l234.374,-0c-6.602,51.714 -7.161,102.213 0.65,149.834c10.416,63.987 34.786,118.767 72.547,164.526l-488.747,0Zm68.73,-377.604l158.205,-274.55l297.989,-0c-42.688,88.913 -78.868,183.031 -98.586,274.55l-357.608,0Zm68.733,-337.703l265.902,-461.402l209.079,362.816c-18.787,31.437 -37.483,64.453 -55.526,98.586l-419.455,0Zm451.636,-414.065c9.488,-1.396 17.765,-6.789 22.695,-14.975c4.927,-8.18 5.952,-18.04 2.696,-27.157c-4.743,-12.926 -7.07,-25.76 -7.07,-38.504c0,-64.731 52.549,-117.371 117.282,-117.371l18.321,1.953c11.533,1.766 23.346,-3.071 30.229,-12.466c6.973,-9.673 8.092,-22.133 2.883,-32.828c-7.254,-14.509 -10.882,-29.484 -10.882,-44.459c0,-56.08 45.479,-101.561 101.561,-101.561c55.898,0 101.47,45.481 101.47,101.561c-0,17.393 -4.743,34.412 -14.135,50.596c-5.208,8.929 -5.674,20.089 -1.118,29.484c4.558,9.486 13.487,15.997 23.81,17.672c43.619,6.323 80.915,30.971 105.004,65.287c-42.039,75.056 -91.519,175.129 -131.324,281.81c-39.157,-55.523 -71.988,-96.82 -89.937,-117.188l-0.188,-0.375l-4.927,-7.067l-8.464,-6.324l-0.465,-0.369l-13.951,-3.258l-0.187,-0l-14.135,3.258l-0.465,0.369l-8.28,6.324l-5.114,7.067l-0.094,0.375c-27.251,30.694 -88.076,109.094 -154.203,212.516l-123.14,-213.538c13.394,-21.486 35.436,-37.205 62.128,-40.832Zm595.053,-171.412c36.643,57.948 100.632,170.668 154.018,298.83c-8.745,20.089 -13.672,42.041 -13.672,65.293c0,8.742 0.65,17.393 2.137,25.947c-89.935,10.23 -160.061,86.683 -160.061,179.314c0,8.929 0.744,17.949 2.231,26.879c-15.625,6.142 -29.669,14.884 -42.226,25.391c-42.129,-83.798 -89.191,-162.016 -132.716,-227.769c57.01,-165.553 144.808,-321.803 190.289,-393.885Zm305.059,262.653c55.895,-0 101.377,45.572 101.377,101.47c-0,17.393 -4.65,34.411 -14.044,50.686c-5.302,9.117 -5.671,20.09 -1.21,29.575c4.65,9.395 13.488,15.997 23.905,17.484c76.543,11.166 134.019,78.037 134.019,155.137c0,24.926 -5.767,48.921 -17.296,71.52c-5.211,9.951 -4.559,21.855 1.3,31.437c5.858,9.021 15.996,14.51 26.691,14.51l4.093,-0.278c61.478,0.834 111.518,51.339 111.518,113.095c-0,22.508 -6.699,44.272 -19.256,62.869c-8.832,13.3 -6.511,30.972 5.581,41.576c45.015,39.061 70.872,95.049 70.872,154.018c0,112.908 -91.706,204.518 -204.614,204.518c-34.321,-0 -68.545,-8.742 -98.586,-25.392l-15.253,-3.905l-12.279,2.515c-21.389,9.02 -43.71,15.343 -66.405,19.714l-0,-78.871l293.527,-166.666c15.253,-8.554 20.555,-27.804 11.904,-43.057c-8.554,-15.162 -27.81,-20.464 -42.966,-11.813l-262.465,148.995l-0,-148.53l220.889,-125.283c15.162,-8.645 20.368,-27.901 11.813,-43.057c-8.651,-15.072 -27.81,-20.555 -43.063,-11.904l-189.639,107.794l-0,-148.535l126.861,-71.895c15.066,-8.645 20.368,-27.804 11.813,-43.057c-8.56,-15.162 -27.719,-20.464 -42.972,-11.904l-95.702,54.314l-0,-212.522c-0,-17.297 -14.044,-31.528 -31.528,-31.528c-17.393,0 -31.531,14.231 -31.531,31.528l0,86.313l-94.306,-53.479c-15.253,-8.742 -34.414,-3.44 -43.063,11.716c-8.557,15.254 -3.255,34.509 11.904,42.973l125.465,71.332l0,148.438l-167.41,-95.146c-15.253,-8.645 -34.505,-3.349 -43.063,11.813c-8.648,15.163 -3.346,34.412 11.814,43.063l198.659,112.909l0,148.341l-235.677,-133.923c-15.253,-8.56 -34.505,-3.349 -43.06,11.808c-8.651,15.162 -3.349,34.508 11.717,43.063l267.02,151.691l0,211.216c-60.36,0.375 -121,-14.322 -174.105,-45.107c-12.557,-7.254 -28.554,-4.927 -38.598,5.393c-25.298,26.323 -58.966,40.645 -95.053,40.645c-72.916,-0 -132.348,-59.241 -132.348,-132.345c0,-51.249 29.019,-96.912 75.8,-119.141c8.371,-4.093 14.694,-11.626 16.928,-20.743c2.325,-9.02 0.556,-18.693 -4.93,-26.226c-16.09,-22.32 -24.645,-48.268 -24.645,-75.147c-0,-43.341 21.577,-83.52 57.757,-107.612l10.507,-11.626l2.14,-3.809c5.115,-9.86 4.743,-21.673 -1.115,-31.25c-8.93,-14.322 -13.394,-29.762 -13.394,-45.946c-0,-43.342 32.646,-80.45 75.987,-86.404c9.392,-1.3 17.762,-6.79 22.693,-15.066c4.93,-7.999 5.858,-18.041 2.605,-27.066c-4.652,-12.835 -6.976,-25.852 -6.976,-38.505c-0,-64.731 52.642,-117.37 117.279,-117.37l18.137,1.953c11.625,2.043 23.439,-2.975 30.321,-12.557c7.068,-9.395 8.183,-22.042 2.975,-32.646c-7.255,-14.51 -10.882,-29.576 -10.882,-44.641c-0,-55.898 45.575,-101.47 101.563,-101.47Zm-625.372,1191.13c97.377,-15.906 176.617,-44.829 237.817,-86.404c15.066,3.905 30.878,6.136 47.153,6.136c45.107,0 87.798,-15.253 122.488,-43.432c57.666,29.11 121.653,42.967 185.268,42.507l0,255.766l-592.726,0l0,-174.573Zm-371.93,-274.556c-100.448,-285.433 240.513,-777.529 340.587,-903.272c51.152,64.453 165.366,224.886 251.302,404.574c-7.068,17.393 -11.348,36.183 -11.348,55.898c-0,18.693 3.536,37.295 10.51,54.876c-41.944,36.364 -66.499,89.094 -66.499,145.367c0,28.735 6.418,56.823 18.974,82.589c-50.783,36.365 -82.123,95.612 -82.123,158.668c-0,63.896 30.968,120.537 78.496,156.249c-46.318,24.739 -101.935,43.432 -167.969,55.154l0,-790.369c0,-17.575 -14.137,-31.619 -31.531,-31.619c-17.484,0 -31.621,14.044 -31.621,31.619l-0,790.273c-165.551,-29.479 -269.995,-99.608 -308.778,-210.007Zm1470.24,449.129l-442.522,0l-0,-260.699c26.413,-4.275 52.083,-10.973 77.009,-20.459c35.996,17.206 75.613,26.317 115.514,26.317c147.785,0 267.858,-120.066 267.858,-267.761c-0,-68.545 -26.692,-134.207 -73.848,-183.872c10.695,-23.16 16.463,-48.552 16.463,-74.591c-0,-82.776 -57.386,-152.344 -134.395,-171.133c5.58,-19.159 8.277,-38.97 8.277,-59.151c-0,-94.59 -61.847,-178.104 -149.182,-208.054c4.28,-14.51 6.511,-29.575 6.511,-44.828c-0,-90.685 -73.847,-164.623 -164.62,-164.623c-41.388,0 -78.777,15.906 -107.7,41.019c-63.246,-145.838 -136.347,-267.21 -168.527,-309.155l-0.094,-0.187l-6.974,-9.951l-6.327,-4.649l-0.649,-0.369l-14.694,-3.628l-0.094,0l-14.697,3.718l-0.744,0.279l-6.323,4.745l-6.974,9.855l-0.187,0.187c-9.673,12.926 -23.53,33.299 -39.527,59.525c-24.46,-27.157 -55.248,-48.455 -90.681,-60.643c4.277,-14.504 6.417,-29.479 6.417,-44.641c0,-90.866 -73.847,-164.804 -164.622,-164.804c-90.866,-0 -164.713,73.938 -164.713,164.804c-0,8.651 0.652,17.206 2.14,25.857c-89.938,10.229 -159.971,86.682 -159.971,179.314c0,8.929 0.744,17.858 2.14,26.878c-20.37,7.999 -38.413,20.465 -53.201,35.899l-62.5,-108.44c-11.254,-19.624 -43.432,-19.624 -54.779,-0l-320.5,556.174c-5.671,9.86 -5.671,21.855 -0,31.528c5.674,9.86 16.09,15.815 27.438,15.815l71.242,-0l-167.41,290.36c-5.58,9.86 -5.58,21.86 -0,31.624c5.674,9.764 16.09,15.81 27.435,15.81l94.215,-0l-190.289,330.17c-5.58,9.673 -5.58,21.764 -0,31.437c5.674,9.86 16.09,15.809 27.438,15.809l426.338,0l-0,264.514l-429.781,0c-17.484,0 -31.528,14.135 -31.528,31.528c-0,17.484 14.044,31.528 31.528,31.528l2020.09,0c17.581,0 31.715,-14.044 31.715,-31.528c0,-17.393 -14.134,-31.528 -31.715,-31.528Z" style="fill:#0b0b16;fill-rule:nonzero;"/></g></g></svg>