<?xml version="1.0" encoding="UTF-8" standalone="no"?><!DOCTYPE svg PUBLIC "-//W3C//DTD SVG 1.1//EN" "http://www.w3.org/Graphics/SVG/1.1/DTD/svg11.dtd"><svg width="100%" height="100%" viewBox="0 0 2084 2084" version="1.1" xmlns="http://www.w3.org/2000/svg" xmlns:xlink="http://www.w3.org/1999/xlink" xml:space="preserve" xmlns:serif="http://www.serif.com/" style="fill-rule:evenodd;clip-rule:evenodd;stroke-linejoin:round;stroke-miterlimit:2;"><rect id="画板1" x="0" y="0" width="2083.33" height="2083.33" style="fill:none;"/><clipPath id="_clip1"><rect id="画板11" serif:id="画板1" x="0" y="0" width="2083.33" height="2083.33"/></clipPath><g clip-path="url(#_clip1)"><g><path d="M1736,877.975l-63.243,0l-0.375,-0.096l-1261.71,-0l-0.187,0.096l-63.335,0l0,-94.771l79.15,0l0.369,0.091l1229.91,0l0.187,-0.091l79.24,0l0,94.771Zm-156.624,398.806c-23.251,20.464 -52.639,32.09 -84.076,32.09c-34.315,0 -66.683,-13.391 -91.053,-37.761c-74.96,-74.778 -196.707,-74.778 -271.485,0c-50.312,50.131 -132.067,50.131 -182.197,0c-75.056,-74.869 -196.797,-74.778 -271.575,0c-48.178,48.087 -124.812,49.574 -175.317,5.671l-55.523,-335.75l1187.03,0l-55.807,335.75Zm-122.95,743.4l-829.61,-0l-109.656,-661.832c69.011,27.253 150.669,13.022 206.471,-42.598c50.317,-50.221 132.072,-50.221 182.202,0c74.869,74.869 196.519,74.869 271.576,0c50.13,-50.221 131.879,-50.221 182.197,0c37.386,37.392 86.495,56.085 135.694,56.085c24.182,0 48.177,-4.649 70.685,-13.487l-109.559,661.832Zm-748.979,-1746.74l302.456,0l-0,446.706l-550.871,-0c9.576,-178.848 100.817,-343.47 248.415,-446.706Zm668.343,0c147.507,103.236 238.838,267.858 248.324,446.706l-550.968,-0l0,-446.706l302.644,0Zm391.835,446.706l-80.359,-0c-9.951,-203.031 -114.395,-389.883 -284.041,-504.369l-17.671,-5.489l-312.408,-0l0,-147.133l499.35,0c17.484,0 31.625,-14.14 31.625,-31.624c-0,-17.393 -14.141,-31.528 -31.625,-31.528l-530.969,-0c-17.393,-0 -31.624,14.135 -31.624,31.528l-0,178.757l-312.22,-0l-17.672,5.489c-169.549,114.486 -273.993,301.338 -284.041,504.369l-80.449,-0c-17.484,-0 -31.437,14.044 -31.437,31.437l-0,157.923c-0,17.484 13.953,31.528 31.437,31.528l68.454,0l184.894,1115.88c2.515,15.35 15.815,26.419 31.25,26.419l882.999,0c15.44,0 28.741,-11.069 31.062,-26.419l184.899,-1115.88l68.546,0c17.387,0 31.619,-14.044 31.619,-31.528l-0,-157.923c-0,-17.393 -14.232,-31.437 -31.619,-31.437Z" style="fill:#0b0b16;fill-rule:nonzero;"/></g></g></svg>