<?xml version="1.0" encoding="UTF-8" standalone="no"?><!DOCTYPE svg PUBLIC "-//W3C//DTD SVG 1.1//EN" "http://www.w3.org/Graphics/SVG/1.1/DTD/svg11.dtd"><svg width="100%" height="100%" viewBox="0 0 2084 2084" version="1.1" xmlns="http://www.w3.org/2000/svg" xmlns:xlink="http://www.w3.org/1999/xlink" xml:space="preserve" xmlns:serif="http://www.serif.com/" style="fill-rule:evenodd;clip-rule:evenodd;stroke-linejoin:round;stroke-miterlimit:2;"><rect id="画板1" x="0" y="0" width="2083.33" height="2083.33" style="fill:none;"/><clipPath id="_clip1"><rect id="画板11" serif:id="画板1" x="0" y="0" width="2083.33" height="2083.33"/></clipPath><g clip-path="url(#_clip1)"><g><path d="M1578.57,1526.67c-33.857,0 -66.317,-4.371 -97.756,-11.529l0,-114.219c30.883,9.582 63.53,15.253 97.756,15.253c182.581,0 331.304,-148.632 331.304,-331.394c0,-182.768 -148.723,-331.395 -331.304,-331.395c-34.226,0 -66.873,5.206 -97.756,14.789l0,-114.31c31.439,-7.068 64.087,-10.883 97.756,-10.883c243.596,0 441.799,198.203 441.799,441.799c0,243.59 -198.203,441.889 -441.799,441.889Zm-318.837,493.238l-723.157,-0c-87.055,-0 -157.931,-70.786 -157.931,-157.841l0,-517.324c72.545,36.463 158.209,54.969 243.965,54.969c85.942,0 171.51,-18.506 243.964,-54.969l0,295.403l-358.552,-0c-17.485,-0 -31.439,14.226 -31.439,31.62c-0,17.394 13.954,31.53 31.439,31.53l780.448,-0c17.394,-0 31.348,-14.136 31.348,-31.53c-0,-17.394 -13.954,-31.62 -31.348,-31.62l-358.649,-0l-0,-332.7c138.215,-86.408 349.537,-86.499 487.747,-0l0,554.621c0,87.055 -70.689,157.841 -157.835,157.841Zm-1181.14,-1514.59l787.981,0l0,767.153c-138.209,86.402 -349.435,86.402 -487.929,0l0,-416.128c0,-12.466 -7.255,-23.718 -18.512,-28.833c-153.464,-68.832 -245.821,-242.017 -281.54,-322.192Zm819.607,-256.613c280.706,0 478.165,94.964 513.788,193.463l-1027.48,0c35.622,-98.499 232.9,-193.463 513.696,-193.463Zm-69.945,-185.555l140.072,0l-24.74,123.518c-14.879,-0.465 -29.946,-1.021 -45.387,-1.021c-15.441,-0 -30.32,0.556 -45.574,1.021l-24.371,-123.518Zm652.559,771.894c30.321,-11.905 63.247,-18.513 97.756,-18.513c147.702,0 268.058,120.356 268.058,268.245c-0,147.883 -120.356,268.239 -268.058,268.239c-34.509,-0 -67.435,-6.511 -97.756,-18.416l0,-499.555Zm-550.993,-329.726l487.747,0l0,729.856c-144.721,-72.92 -342.743,-72.92 -487.747,-0l-0,-729.856Zm648.749,74.504c-33.669,-0 -66.13,3.627 -97.756,10.048l0,-116.172c0,-143.052 -200.899,-258.475 -473.419,-283.033l30.321,-152.998c1.862,-9.208 -0.744,-18.791 -6.699,-26.046c-5.859,-7.346 -14.879,-11.626 -24.365,-11.626l-216.903,0c-9.395,0 -18.507,4.28 -24.462,11.626c-5.858,7.255 -8.368,16.838 -6.602,26.046l30.32,152.998c-252.151,22.787 -442.82,123.24 -469.888,251.503l-287.586,0c-10.229,0 -19.812,4.928 -25.858,13.301c-5.768,8.181 -7.255,18.973 -3.906,28.555c3.906,11.905 100.078,283.584 313.91,392.223l-0,985.815c-0,121.843 99.147,221.087 220.899,221.087l723.157,-0c121.844,-0 221.081,-99.244 221.081,-221.087l0,-282.38c31.626,6.421 64.087,10.048 97.756,10.048c278.475,0 504.767,-226.485 504.767,-504.954c0,-278.384 -226.292,-504.954 -504.767,-504.954Z" style="fill:#0b0b16;fill-rule:nonzero;"/></g></g></svg>