<?xml version="1.0" encoding="UTF-8" standalone="no"?><!DOCTYPE svg PUBLIC "-//W3C//DTD SVG 1.1//EN" "http://www.w3.org/Graphics/SVG/1.1/DTD/svg11.dtd"><svg width="100%" height="100%" viewBox="0 0 2084 2084" version="1.1" xmlns="http://www.w3.org/2000/svg" xmlns:xlink="http://www.w3.org/1999/xlink" xml:space="preserve" xmlns:serif="http://www.serif.com/" style="fill-rule:evenodd;clip-rule:evenodd;stroke-linejoin:round;stroke-miterlimit:2;"><rect id="画板1" x="0" y="0" width="2083.33" height="2083.33" style="fill:none;"/><clipPath id="_clip1"><rect id="画板11" serif:id="画板1" x="0" y="0" width="2083.33" height="2083.33"/></clipPath><g clip-path="url(#_clip1)"><g><path d="M1662.69,1915.36c-346.921,140.722 -895.21,140.722 -1242.13,-0l-187.505,-1055.84c66.129,22.322 147.511,41.389 243.217,56.643c15.81,227.871 263.307,409.332 565.398,409.332c301.909,-0 549.498,-181.553 565.307,-409.332c95.706,-15.254 177.088,-34.321 243.217,-56.643l-187.504,1055.84Zm-1411.22,-1400.25l99.798,-11.44l38.132,332.227c-37.853,-7.999 -72.544,-16.835 -103.982,-26.135l-33.948,-294.652Zm306.462,-219.408l13.858,119.982l-5.581,0.278l-21.855,9.953l-8.465,22.693l20.369,540.103c-11.161,-30.322 -17.672,-61.944 -17.672,-94.684l0.278,-4.651c0.187,-15.811 -11.251,-29.296 -26.97,-31.528c-19.812,-3.07 -38.881,-6.14 -57.575,-9.394l-61.195,-533.871l164.808,-18.881Zm34.135,-230.755l165.553,10.045l-20.181,334.46l-102.404,3.814l-17.95,-156.162c-1.953,-17.206 -17.576,-29.763 -34.969,-27.717l-0.091,0l10.042,-164.44Zm377.428,345.715c-14.135,1.952 -25.67,12.555 -27.345,27.251l-21.765,202.758l-84.635,3.162l-7.721,-206.106c-0.556,-14.696 -11.07,-26.136 -24.739,-29.206l13.766,-228.149l165.74,9.952l-13.301,220.338Zm418.17,-117.378l-43.342,403.193l-134.489,-14.416l22.877,-212.897l-6.789,-23.252l-20.278,-11.255l17.116,-159.045l164.905,17.672Zm193.92,-180.437l165.558,12.463l-16.372,218.757l-80.077,-9.394c-17.206,-2.14 -33.021,10.417 -35.065,27.624l-19.903,170.02l-45.204,-3.442l31.063,-416.028Zm-377.893,632.087l164.905,17.672l-46.879,436.955c-51.619,25.577 -110.028,43.994 -172.717,54.131l54.691,-508.758Zm-202.106,-268.888l164.996,17.765l-78.964,734.305l-21.021,-561.309c-0.653,-17.486 -15.532,-30.879 -32.648,-30.321l-49.848,1.767l17.485,-162.207Zm-142.862,760.626l-19.812,-529.778l165.836,-6.139l21.021,560.936c-58.783,-1.209 -114.961,-9.951 -167.045,-25.019Zm-235.315,-138.49l-23.252,-620.368l165.927,-6.232l27.72,742.581c-68.27,-28.552 -126.775,-68.361 -170.395,-115.981Zm921.163,-205.27c0,104.635 -59.714,198.945 -155.05,266.191l45.295,-421.144l-6.789,-23.252l-15.436,-9.58l9.112,-122.586l165.558,12.463l-1.953,25.485l-28.651,244.148c-7.436,5.952 -12.37,14.696 -12.37,24.739l0.284,3.536Zm249.076,-81.848c-46.97,13.764 -101.008,26.136 -162.022,36.831l16.554,-221.36l26.51,-225.547l164.809,19.439l-45.851,390.637Zm117.004,-25.485c-9.02,-7.255 -21.299,-8.928 -31.994,-4.371l-18.881,7.441l46.13,-392.218l-6.693,-23.16l-20.931,-11.812l-84.732,-10.045l18.978,-252.89c1.209,-17.486 -11.814,-32.554 -29.207,-33.949l-228.52,-17.02l-22.974,7.627l-10.792,21.485l-33.482,447.558l-60.639,-4.557l26.97,-250.938l-6.789,-23.252l-21.299,-11.626l-227.686,-24.462c-17.484,-1.86 -32.925,10.696 -34.878,28.089l-20.459,190.203l-110.403,-11.72l15.345,-253.262l-7.902,-22.88c-5.677,-6.326 -13.398,-10.139 -21.765,-10.603l-199.693,-12.092l4.189,-69.756l-7.907,-22.881c-5.49,-6.323 -13.21,-10.137 -21.674,-10.602l-228.708,-13.765c-17.206,-1.581 -32.363,12.184 -33.481,29.576l-12.37,206.945l-163.884,18.881l-21.112,11.626l-6.602,23.252l17.297,150.488l-131.236,14.974l-21.016,11.812l-6.607,23.252l34.043,296.047l-14.6,-5.766c-10.701,-4.557 -23.071,-2.884 -32.091,4.371c-9.112,7.163 -13.392,18.695 -11.348,30.135l200.249,1127.55c1.862,10.603 8.839,19.439 18.603,23.624c182.481,77.663 421.889,116.447 661.569,116.447c239.589,0 479.088,-38.784 661.478,-116.447c9.77,-4.185 16.838,-13.021 18.694,-23.624l200.249,-1127.55c2.049,-11.44 -2.418,-22.972 -11.439,-30.135Z" style="fill:#0b0b16;fill-rule:nonzero;"/></g></g></svg>