<?xml version="1.0" encoding="UTF-8" standalone="no"?><!DOCTYPE svg PUBLIC "-//W3C//DTD SVG 1.1//EN" "http://www.w3.org/Graphics/SVG/1.1/DTD/svg11.dtd"><svg width="100%" height="100%" viewBox="0 0 2084 2084" version="1.1" xmlns="http://www.w3.org/2000/svg" xmlns:xlink="http://www.w3.org/1999/xlink" xml:space="preserve" xmlns:serif="http://www.serif.com/" style="fill-rule:evenodd;clip-rule:evenodd;stroke-linejoin:round;stroke-miterlimit:2;"><rect id="画板1" x="0" y="0" width="2083.33" height="2083.33" style="fill:none;"/><g id="画板11" serif:id="画板1"><g><path d="M1696.21,1954.32c-365.918,184.726 -656.865,-57.39 -793.318,-210.772c104.547,45.485 261.929,98.129 430.935,98.129c107.524,0 219.605,-21.391 325.362,-79.897c105.2,-58.227 167.612,-221.746 136.268,-340.898c46.692,36.368 83.991,85.015 104.826,136.825c61.855,152.635 -14.417,301.087 -204.073,396.613Zm-235.976,-555.295l18.601,-6.977l23.253,-8.277l13.955,-5.024c11.627,-4.094 22.6,-7.721 32.274,-10.696c42.786,-13.302 85.294,-13.952 125.664,-5.209c22.507,8.836 41.67,25.578 53.853,54.134c38.602,90.409 -13.392,242.022 -99.339,289.554c-283.507,157.007 -632.867,14.23 -765.414,-51.903c10.233,-4.65 21.488,-9.674 33.859,-15.254l9.114,-4.185c8.837,-4.002 17.951,-7.908 27.625,-12.279l13.395,-6.046c8.837,-4.094 17.858,-7.999 27.16,-12.183l18.51,-8.187c8.277,-3.628 16.464,-7.44 24.928,-11.161l22.788,-10.14l24.835,-10.883l24.276,-10.695l24.65,-10.79c8.836,-3.999 17.857,-7.814 26.881,-11.72l23.625,-10.23c9.115,-4 18.23,-7.909 27.438,-11.814l24.372,-10.418c9.021,-3.906 18.135,-7.721 27.159,-11.533l24.741,-10.511c8.743,-3.628 17.395,-7.44 26.138,-10.883l24.647,-10.418c8.558,-3.44 16.929,-6.974 25.209,-10.324l23.998,-9.858l23.81,-9.583l23.534,-9.299l21.392,-8.371l23.069,-8.837Zm-819.643,289.367c-5.859,-10.883 -10.695,-20.185 -15.16,-27.253c-43.158,-66.599 -150.033,-383.218 110.78,-710.908c270.207,-339.783 254.58,-707.375 233.373,-857.592l189.191,109.106c13.764,82.875 95.523,456.329 480.138,711.652c154.404,102.595 237.466,227.883 246.581,372.335c2.696,42.414 -1.303,83.994 -9.396,123.989c-49.76,-51.25 -113.103,-90.874 -183.238,-107.247c-38.693,-14.136 -91.339,-17.207 -163.238,5.118c-8.745,2.697 -18.325,5.953 -28.371,9.393c-10.602,-97.292 -46.598,-197.377 -120.917,-290.763c-75.992,-95.617 -167.984,-219.884 -204.352,-334.105c-5.302,-16.558 -23.253,-25.672 -39.811,-20.37c-16.557,5.3 -25.672,23.066 -20.463,39.624c39.624,123.895 135.8,254.299 215.235,354.29c69.854,87.712 101.666,182.216 109.012,273.556c-232.72,87.711 -641.332,275.415 -661.052,284.345l-9.58,7.346l-1.859,1.675l-5.396,10.23l-0.372,0.653l-0.187,1.303l-1.022,5.765l0.559,6.977l4,10.883l0.371,1.022c1.675,2.418 67.155,102.222 180.448,203.236c-210.119,-5.859 -271.415,-119.708 -305.274,-184.26Zm-269.648,83.34l-11.719,-10.324c-32.648,-28.278 -207.795,-234.21 -195.888,-464.605c7.533,-146.871 89.572,-275.974 243.79,-383.778c306.016,-214.025 444.422,-430.097 505.905,-595.477c-10.976,167.611 -62.599,387.683 -226.304,593.337c-327.597,411.59 -116.734,781.041 -114.5,784.668c3.812,5.581 7.812,13.396 12.464,22.232c24.369,46.32 69.48,132.357 181.192,181.748c-246.86,3.721 -342.945,-81.294 -394.94,-127.801Zm1587.94,-237.744c-8.649,-21.301 -20.091,-41.949 -33.021,-61.762c17.207,-59.808 26.881,-123.988 22.604,-190.587c-10.418,-165.193 -102.873,-306.668 -274.672,-420.795c-400.241,-265.741 -454.188,-678.353 -454.653,-682.446c-1.209,-9.858 -6.977,-18.601 -15.533,-23.625l-261.741,-150.961l-10.046,-3.537l-2.884,-0.278l-8.743,0.372l-1.953,0.094l-0.837,0.371l-9.024,4.187l-0.744,0.557l-2.046,2.046l-5.394,5.953l-1.768,2.884l-3.068,8.558l-0.466,1.672l0.094,9.211c0.556,4.184 56.087,419.68 -524.136,825.314c-170.96,119.523 -262.022,265.091 -270.672,432.515c-13.302,258.673 179.331,482.001 217.747,515.394l10.883,9.673c68.271,61.109 227.326,203.98 693.7,116.081c109.941,80.644 250.487,148.451 412.609,148.451c90.411,0 187.425,-21.022 289.554,-72.366c261.557,-132.079 292.529,-332.99 234.21,-476.976Z" style="fill:#0b0b16;fill-rule:nonzero;"/></g></g></svg>