<?xml version="1.0" encoding="UTF-8" standalone="no"?><!DOCTYPE svg PUBLIC "-//W3C//DTD SVG 1.1//EN" "http://www.w3.org/Graphics/SVG/1.1/DTD/svg11.dtd"><svg width="100%" height="100%" viewBox="0 0 2084 2084" version="1.1" xmlns="http://www.w3.org/2000/svg" xmlns:xlink="http://www.w3.org/1999/xlink" xml:space="preserve" xmlns:serif="http://www.serif.com/" style="fill-rule:evenodd;clip-rule:evenodd;stroke-linejoin:round;stroke-miterlimit:2;"><rect id="画板1" x="0" y="0" width="2083.33" height="2083.33" style="fill:none;"/><clipPath id="_clip1"><rect id="画板11" serif:id="画板1" x="0" y="0" width="2083.33" height="2083.33"/></clipPath><g clip-path="url(#_clip1)"><g><path d="M1716.98,887.521l-127.697,-438.99l9.394,0.097c33.389,0.834 66.964,1.396 101.005,1.396l24.367,-0.284l12.091,-0.181c43.899,-0.375 88.262,-1.306 133.277,-3.35l-152.437,441.312Zm-514.508,65.009l-132.719,-200.237c-4.743,-7.164 -12.183,-12.091 -20.647,-13.584l-5.58,-0.557l-18.509,5.955l-195.125,140.156l93.935,-511.435c123.326,24.926 248.977,44.084 374.627,56.919l-95.982,522.783Zm-919.641,-263.39l56.176,-484.096c86.031,32.737 175.501,62.687 267.02,89.469l-323.196,394.627Zm-267.112,-630.207c2.79,1.578 96.354,54.78 262.648,121.372l-70.591,608.443c-1.582,13.953 6.138,27.254 19.065,32.737l12.277,2.515c9.302,-0 18.323,-4.093 24.369,-11.535l409.69,-500.281c59.524,16.281 122.675,31.903 188.988,46.503l-108.539,591.147c-2.324,12.744 3.349,25.579 14.138,32.368c10.974,6.88 24.924,6.511 35.435,-1.022l232.049,-166.762l157.831,238.282c5.86,8.929 15.811,14.135 26.321,14.135l6.324,-0.744c12.555,-2.509 22.414,-12.46 24.74,-25.113l111.141,-605.929c52.642,4.649 106.306,8.277 161.273,10.786l161.178,554.685c3.907,13.21 15.812,22.417 29.576,22.786l0.744,0c13.486,0 25.484,-8.554 29.855,-21.202l193.174,-559.618c38.783,-2.419 77.753,-5.297 117.279,-8.924c17.393,-1.493 30.134,-16.928 28.46,-34.321c-1.581,-17.302 -16.741,-30.228 -34.318,-28.463c-48.829,4.468 -96.727,7.63 -144.346,10.235c-72.824,3.997 -146.019,5.671 -219.028,5.484c-17.485,0 -35.157,0 -52.456,-0.187l-24.553,-0.744c-929.128,-22.224 -1553.94,-377.138 -1561.01,-381.321c-15.066,-8.742 -34.412,-3.537 -43.154,11.535c-8.743,15.065 -3.535,34.315 11.44,43.153Z" style="fill:#0b0b16;fill-rule:nonzero;"/><path d="M1789.24,1593.62l-24.554,-2.696l-18.973,15.809l-109.467,213.918l-168.063,-556.082c126.117,-32.924 247.49,-70.781 361.701,-112.539l168.991,559.057l-209.635,-117.467Zm-1144.44,-195.871l23.065,558.965l-173.642,-166.109c-6.23,-5.858 -14.508,-8.924 -23.158,-8.742c-8.556,0.375 -16.554,4.189 -22.228,10.604l-159.412,179.778l-23.438,-565.567c21.391,0.375 42.783,0.465 64.174,0.562l16.741,0.278l8.557,-0.096c15.997,-0 31.994,-0.279 48.084,-0.557c13.95,-0.091 27.994,-0.187 41.759,-0.556c66.686,-1.306 133.278,-4.184 199.498,-8.56Zm511.16,465.125l-240.979,-491.442c101.842,-13.113 203.497,-29.672 303.292,-49.478l-62.313,540.92Zm926.058,-95.055l-193.172,-638.671c112.443,-43.432 174.943,-74.585 177.268,-75.794c15.532,-7.908 21.67,-26.879 13.765,-42.416c-7.906,-15.531 -26.878,-21.759 -42.503,-13.76c-6.697,3.343 -556.454,278.177 -1383.74,336.493c-11.16,0.743 -22.414,1.396 -33.668,2.043c-21.299,1.306 -42.504,2.697 -64.08,3.724c-107.236,5.018 -214.937,6.228 -321.615,3.35c-65.662,-1.772 -132.346,-4.837 -200.427,-9.861c-17.764,-0.84 -32.459,11.813 -33.761,29.201c-1.303,17.393 11.812,32.555 29.11,33.855c58.78,4.184 116.537,7.068 173.642,8.929l26.787,648.157c0.464,12.932 8.742,24.183 20.833,28.463l10.695,1.856c8.835,0 17.391,-3.718 23.531,-10.695l189.639,-213.821l206.473,197.546c9.393,8.93 23.065,11.251 34.877,5.955c11.625,-5.302 19.066,-17.211 18.507,-30.137l-26.413,-639.602c47.805,-3.906 94.586,-8.646 140.438,-13.857l298.549,608.443c5.302,10.979 16.369,17.768 28.274,17.768l5.3,-0.465c13.858,-2.328 24.461,-13.675 26.043,-27.532l77.194,-669.643c42.411,-9.111 83.52,-18.505 123.048,-28.275l191.87,634.766c3.721,12.278 14.603,21.111 27.436,22.32l2.792,0.097c11.811,-0 22.6,-6.602 28.086,-17.206l130.209,-254.37l249.255,139.787c11.347,6.227 25.206,5.115 35.157,-2.98c10.137,-8.089 14.23,-21.39 10.602,-33.668Z" style="fill:#0b0b16;fill-rule:nonzero;"/></g></g></svg>