<?xml version="1.0" encoding="UTF-8" standalone="no"?><!DOCTYPE svg PUBLIC "-//W3C//DTD SVG 1.1//EN" "http://www.w3.org/Graphics/SVG/1.1/DTD/svg11.dtd"><svg width="100%" height="100%" viewBox="0 0 2084 2084" version="1.1" xmlns="http://www.w3.org/2000/svg" xmlns:xlink="http://www.w3.org/1999/xlink" xml:space="preserve" xmlns:serif="http://www.serif.com/" style="fill-rule:evenodd;clip-rule:evenodd;stroke-linejoin:round;stroke-miterlimit:2;"><rect id="画板1" x="0" y="0" width="2083.33" height="2083.33" style="fill:none;"/><g id="画板11" serif:id="画板1"><g><path d="M2020.08,820.484l-415.712,0c-88.164,-37.571 -151.963,-100.532 -196.975,-165.446l612.687,-0l-0,165.446Zm-94.675,1199.61l-757.487,-0l0,-1124.56c50.871,76.074 120.25,144.893 215.015,190.462l13.578,3.071l14.324,-3.439c8.832,-4.468 15.065,-12.835 16.833,-22.416c0.463,-2.787 11.344,-62.587 15.25,-140.153c92.35,4.836 173.447,-37.197 177.63,-39.428l304.857,0l-0,1136.46Zm-946.836,-0l-0,-1542.59l52.917,-0c4.836,59.334 20.926,179.211 73.284,301.041l-0,1241.55l-126.201,-0Zm-820.635,-1136.46l757.395,0l0,1136.46l-757.395,-0l0,-1136.46Zm-94.675,-63.149l0,-165.446l852.07,-0l0,165.446l-852.07,0Zm207.112,-529.449l93.93,-0c-1.487,10.228 -3.719,20.179 -6.881,30.038l-24.273,76.261l-1.489,9.576c0,25.112 14.509,60.362 83.422,85.843c45.663,17.017 104.253,25.481 162.75,25.481c58.499,-0 116.996,-8.464 162.752,-25.481l141.453,-52.358c9.951,8.923 21.298,16.177 33.294,22.222l0,129.272l-827.611,0l182.653,-300.854Zm166.658,-206.464c38.129,-14.043 89.465,-21.11 140.801,-21.11c51.337,-0 102.581,7.067 140.711,21.11l72.075,26.786l-72.075,26.69c-76.167,28.177 -205.067,28.177 -281.512,0c-32.831,-12.278 -41.666,-24.459 -42.316,-26.502c0.65,-2.606 9.485,-14.787 42.316,-26.974Zm408.922,301.882l-127.41,47.147c-76.261,28.37 -205.159,28.37 -281.512,0c-27.437,-10.132 -38.131,-20.27 -41.293,-24.828l21.855,-68.45c14.601,-46.035 15.531,-94.488 3.814,-141.266c44.732,15.53 100.439,23.528 156.425,23.528c58.499,0 116.996,-8.554 162.752,-25.39l99.417,-36.918c-2.046,9.485 -3.255,19.435 -3.255,29.573l0,148.242c0,17.114 3.534,33.11 9.207,48.362Zm53.939,-196.604c-0,-41.942 34.225,-76.261 76.261,-76.261l131.502,0c42.036,0 76.261,34.319 76.261,76.261l0,148.242c0,42.039 -34.225,76.261 -76.261,76.261l-131.502,-0c-42.036,-0 -76.261,-34.222 -76.261,-76.261l-0,-148.242Zm301.695,250.546l47.521,17.483c14.603,59.799 80.445,280.391 275.84,393.945c-30.692,7.629 -68.635,12.369 -106.113,4.746c-9.207,-1.862 -18.788,0.369 -26.04,6.323c-7.348,5.767 -11.625,14.696 -11.812,23.994c-0.838,47.34 -5.115,90.957 -9.02,121.461c-225.712,-136.526 -269.516,-433.197 -277.979,-530.846l13.671,-0c36.363,-0 69.191,-14.231 93.932,-37.106Zm42.22,-280.119l99.417,36.918c45.663,16.836 104.16,25.39 162.751,25.39c55.988,0 111.695,-7.998 156.427,-23.528c-11.719,46.778 -10.788,95.231 3.811,141.266l21.763,68.45c-3.068,4.558 -13.762,14.696 -41.198,24.828c-76.355,28.37 -205.346,28.37 -281.607,0l-127.222,-47.147c5.58,-15.252 9.113,-31.248 9.113,-48.362l0,-148.242c0,-10.138 -1.209,-20.088 -3.255,-29.573Zm121.364,-75.705c76.355,-28.177 205.252,-28.177 281.607,0c32.922,12.187 41.664,24.368 42.314,26.508c-0.65,2.509 -9.392,14.69 -42.314,26.968c-76.355,28.177 -205.346,28.177 -281.607,0l-71.981,-26.69l71.981,-26.786Zm630.358,507.318l-626.637,0c-21.482,-40.364 -36.084,-77.748 -45.663,-106.487l19.995,7.351c45.663,17.017 104.16,25.481 162.751,25.481c58.497,-0 117.087,-8.464 162.75,-25.481c69.007,-25.481 83.422,-60.731 83.422,-85.843l-1.488,-9.576l-24.181,-76.261c-3.255,-9.859 -5.486,-19.81 -6.973,-30.038l93.463,-0l182.561,300.854Zm87.698,31.339l-2.23,-10.694l-1.209,-2.787l-1.116,-2.606l-220.969,-364.003c-5.767,-9.485 -15.996,-15.161 -26.971,-15.161l-110.205,-0l4.836,-22.132l19.251,-64.636c5.486,-10.603 7.533,-21.019 7.533,-29.852c-0,-25.202 -14.415,-60.356 -83.422,-85.933c-91.326,-33.944 -234.266,-33.853 -325.501,0l-149.729,55.52c-23.716,-18.783 -53.289,-30.505 -85.84,-30.505l-131.502,0c-32.551,0 -62.124,11.722 -85.84,30.505l-149.729,-55.52c-91.419,-33.944 -234.269,-33.853 -325.502,0c-68.913,25.577 -83.422,60.731 -83.422,85.933c0,8.833 2.046,19.067 7.534,29.665l19.343,64.823l4.744,22.132l-110.67,-0c-10.975,-0 -21.204,5.676 -26.877,15.161l-221.062,364.003l-1.117,2.697l-1.209,2.696l-2.232,10.694l-0,228.873c-0,17.489 14.137,31.532 31.621,31.532l63.054,0l-0,1168.08c-0,17.393 14.137,31.617 31.62,31.617l1830.62,0c17.393,0 31.527,-14.224 31.527,-31.617l-0,-1168.08l63.148,0c17.39,0 31.526,-14.043 31.526,-31.532l0,-228.873Z" style="fill:#0b0b16;fill-rule:nonzero;"/></g></g></svg>