<?xml version="1.0" encoding="UTF-8" standalone="no"?><!DOCTYPE svg PUBLIC "-//W3C//DTD SVG 1.1//EN" "http://www.w3.org/Graphics/SVG/1.1/DTD/svg11.dtd"><svg width="100%" height="100%" viewBox="0 0 2084 2084" version="1.1" xmlns="http://www.w3.org/2000/svg" xmlns:xlink="http://www.w3.org/1999/xlink" xml:space="preserve" xmlns:serif="http://www.serif.com/" style="fill-rule:evenodd;clip-rule:evenodd;stroke-linejoin:round;stroke-miterlimit:2;"><rect id="画板1" x="0" y="0" width="2083.33" height="2083.33" style="fill:none;"/><g id="画板11" serif:id="画板1"><g><path d="M1642.18,734.654c-0,17.393 14.137,31.528 31.622,31.528c17.299,0 31.529,-14.135 31.529,-31.528c-0,-21.299 -0.651,-42.223 -1.581,-62.965c23.623,11.347 39.992,35.155 39.992,62.965c-0,38.595 -31.436,69.942 -69.94,69.942c-38.597,-0 -70.033,-31.347 -70.033,-69.942c-0,-26.601 14.973,-49.478 36.83,-61.291c1.023,20.181 1.581,40.736 1.581,61.291Zm-713.263,31.528c17.484,0 31.622,-14.135 31.622,-31.528c-0,-20.555 0.557,-41.11 1.58,-61.291c21.857,11.813 36.831,34.69 36.831,61.291c-0,38.595 -31.343,69.942 -70.033,69.942c-38.505,-0 -69.941,-31.347 -69.941,-69.942c0,-27.81 16.461,-51.618 39.992,-62.965c-0.929,20.742 -1.488,41.666 -1.488,62.965c-0,17.393 14.044,31.528 31.437,31.528Zm-332.87,1254.1l142.393,-1472.75l171.689,0c-2.605,18.506 -4.65,37.387 -6.51,56.545c-61.291,11.904 -107.794,65.849 -107.794,130.58c0,73.291 59.802,133.095 133.092,133.095c73.474,-0 133.277,-59.804 133.277,-133.095c0,-60.082 -40.457,-110.49 -95.146,-126.862c2.047,-20.555 4.651,-40.548 7.627,-60.263l653.369,0c2.975,19.715 5.58,39.708 7.718,60.263c-54.781,16.372 -95.144,66.78 -95.144,126.862c-0,73.291 59.709,133.095 133.184,133.095c73.381,-0 132.999,-59.804 132.999,-133.095c-0,-64.731 -46.411,-118.676 -107.702,-130.671c-1.86,-19.067 -3.999,-37.948 -6.509,-56.454l171.688,0l142.393,1472.75l-1410.62,0Zm-470.703,0l176.153,-154.666l175.968,154.666l-352.121,0Zm150.948,-1445.31l130.953,103.236l-135.696,1129.46l-187.221,164.532l191.964,-1397.23Zm193.824,109.281l202.475,-111.795l-136.811,1414.81l-200.986,-176.527l135.322,-1126.49Zm425.039,-496.093c38.97,0 76.637,13.857 111.887,38.874c-37.854,72.826 -67.523,159.973 -86.403,257.254l-210.845,0l-1.581,0.375l-8.278,1.487l-3.069,1.118l-2.419,1.022l-98.028,54.127c58.502,-208.98 171.69,-354.257 298.736,-354.257Zm161.831,83.981c47.247,51.623 88.076,124.721 118.676,212.147l-189.547,0c16.741,-79.053 41.016,-150.948 70.871,-212.147Zm244.419,-208.98c140.067,-0 263.58,176.895 315.199,421.127l-372.77,0c-36.736,-114.396 -89.936,-208.145 -154.297,-271.202c58.595,-93.289 132.534,-149.925 211.868,-149.925Zm622.955,449.777c-1.581,-16.281 -15.16,-28.65 -31.342,-28.65l-210.939,0c-55.152,-285.064 -202.752,-484.28 -380.674,-484.28c-101.004,0 -192.15,64.078 -262.184,171.69c-44.549,-30.137 -93.098,-46.69 -144.066,-46.69c-172.806,-0 -316.686,187.965 -375.372,459.637l-75.986,41.945l-171.783,-135.513c-8.835,-6.971 -20.833,-8.742 -31.25,-4.552c-10.51,4.274 -17.951,13.856 -19.438,25.107l-211.03,1535.81l0.092,1.862l0.743,9.582l0.652,2.6l0.279,1.397l5.395,9.02l0.278,0.562l1.395,1.113l7.906,5.767l2.79,1.487l11.72,2.509l1999.91,0c8.929,0 17.392,-3.809 23.345,-10.416c5.952,-6.602 8.928,-15.344 8.091,-24.274l-148.531,-1535.71Z" style="fill:#0b0b16;fill-rule:nonzero;"/><path d="M1301.41,1669.36c-67.15,-44.454 -316.406,-221.071 -316.406,-395.276c0,-85.751 69.755,-155.409 155.412,-155.409c54.689,-0 105.841,29.388 133.744,76.635c11.439,19.255 43.061,19.255 54.409,-0c27.902,-47.247 79.148,-76.635 133.649,-76.635c85.752,-0 155.506,69.658 155.506,155.409c0,173.921 -249.163,350.822 -316.314,395.276Zm160.808,-613.747c-61.384,0 -119.885,26.413 -160.808,70.964c-41.015,-44.551 -99.516,-70.964 -160.994,-70.964c-120.442,0 -218.471,97.939 -218.471,218.471c0,235.212 348.123,450.709 363.003,459.825l16.462,4.559l16.463,-4.559c14.787,-9.116 363.002,-224.613 363.002,-459.825c0,-120.532 -98.028,-218.471 -218.657,-218.471Z" style="fill:#0b0b16;fill-rule:nonzero;"/></g></g></svg>