<?xml version="1.0" encoding="UTF-8" standalone="no"?><!DOCTYPE svg PUBLIC "-//W3C//DTD SVG 1.1//EN" "http://www.w3.org/Graphics/SVG/1.1/DTD/svg11.dtd"><svg width="100%" height="100%" viewBox="0 0 2084 2084" version="1.1" xmlns="http://www.w3.org/2000/svg" xmlns:xlink="http://www.w3.org/1999/xlink" xml:space="preserve" xmlns:serif="http://www.serif.com/" style="fill-rule:evenodd;clip-rule:evenodd;stroke-linejoin:round;stroke-miterlimit:2;"><rect id="画板1" x="0" y="0" width="2083.33" height="2083.33" style="fill:none;"/><clipPath id="_clip1"><rect id="画板11" serif:id="画板1" x="0" y="0" width="2083.33" height="2083.33"/></clipPath><g clip-path="url(#_clip1)"><g><path d="M475.518,1094.17c-227.946,-125.459 -251.009,-489.286 -234.088,-754.992l558.851,0c16.927,265.706 -6.136,629.533 -234.088,754.992c-28.365,15.531 -62.31,15.531 -90.675,0Zm120.254,925.926l-149.828,-0c30.693,-18.136 56.452,-39.434 74.957,-62.406c18.414,22.972 43.992,44.27 74.871,62.406Zm-320.953,-1956.94l492.074,-0c6.879,37.85 19.81,115.787 28.552,212.972l-549.179,-0c8.748,-97.185 21.673,-175.122 28.553,-212.972Zm321.697,1086.35c413.575,-227.578 235.014,-1088.03 227.203,-1124.49c-3.071,-14.509 -15.996,-25.016 -30.88,-25.016l-544.154,-0c-14.878,-0 -27.803,10.507 -30.874,25.016c-7.811,36.459 -186.378,896.907 227.203,1124.49c14.134,7.72 29.108,12.834 44.173,15.996l0,712.578c0,55.896 -121.923,142.018 -283.932,142.018c-17.484,-0 -31.618,14.134 -31.618,31.617c0,17.393 14.134,31.623 31.618,31.623l631.202,0c17.483,0 31.623,-14.23 31.623,-31.623c-0,-17.483 -14.14,-31.617 -31.623,-31.617c-162.01,-0 -284.12,-86.122 -284.12,-142.018l-0,-712.578c15.252,-3.162 30.227,-8.276 44.179,-15.996Z" style="fill:#0b0b16;fill-rule:nonzero;"/><path d="M1487.66,2020.09c30.692,-18.136 56.451,-39.434 74.865,-62.406c18.511,22.972 44.27,44.27 74.963,62.406l-149.828,-0Zm29.573,-925.926c-227.946,-125.459 -251.009,-489.286 -234.082,-754.992l558.936,0c16.836,265.615 -6.04,629.533 -234.173,754.992c-28.371,15.531 -62.316,15.531 -90.681,0Zm-200.694,-1031.02l492.069,-0c6.885,37.753 19.81,115.787 28.552,212.972l-549.082,-0c8.651,-97.185 21.576,-175.122 28.461,-212.972Zm561.633,1956.94c-162.004,-0 -284.024,-86.122 -284.024,-142.018l0,-712.578c15.253,-3.162 30.131,-8.276 44.27,-15.996c413.388,-227.578 235.014,-1088.03 227.016,-1124.49c-3.071,-14.509 -15.718,-25.016 -30.88,-25.016l-544.149,-0c-14.883,-0 -27.621,10.507 -30.692,25.016c-7.811,36.459 -186.378,896.907 227.016,1124.49c14.23,7.72 29.108,12.834 44.361,15.996l-0,712.578c-0,55.896 -122.111,142.018 -284.12,142.018c-17.574,-0 -31.618,14.134 -31.618,31.617c0,17.393 14.044,31.623 31.618,31.623l631.202,0c17.489,0 31.623,-14.23 31.623,-31.623c-0,-17.483 -14.134,-31.617 -31.623,-31.617Z" style="fill:#0b0b16;fill-rule:nonzero;"/><path d="M611.207,909.186c-0,-17.484 -14.135,-31.623 -31.805,-31.623c-17.205,-0 -31.436,14.139 -31.436,31.623c0,17.392 14.231,31.435 31.436,31.435c17.67,0 31.805,-14.043 31.805,-31.435Z" style="fill:#0b0b16;fill-rule:nonzero;"/><path d="M421.763,751.269c-17.392,-0 -31.623,14.225 -31.623,31.526c-0,17.484 14.231,31.527 31.623,31.527c17.483,0 31.623,-14.043 31.623,-31.527c0,-17.301 -14.14,-31.526 -31.623,-31.526Z" style="fill:#0b0b16;fill-rule:nonzero;"/><path d="M516.439,656.592c-17.483,0 -31.623,14.044 -31.623,31.527c0,17.392 14.14,31.623 31.623,31.623c17.393,0 31.527,-14.231 31.527,-31.623c0,-17.483 -14.134,-31.527 -31.527,-31.527Z" style="fill:#0b0b16;fill-rule:nonzero;"/><path d="M674.265,530.202c17.387,0 31.618,-14.043 31.618,-31.436c-0,-17.483 -14.231,-31.617 -31.618,-31.617c-17.488,-0 -31.623,14.134 -31.623,31.617c0,17.393 14.135,31.436 31.623,31.436Z" style="fill:#0b0b16;fill-rule:nonzero;"/><path d="M516.439,435.617c0,-17.484 -14.23,-31.618 -31.623,-31.618c-17.483,0 -31.43,14.134 -31.43,31.618c0,17.392 13.947,31.532 31.43,31.532c17.393,-0 31.623,-14.14 31.623,-31.532Z" style="fill:#0b0b16;fill-rule:nonzero;"/><path d="M358.523,530.202c-17.393,0 -31.527,14.231 -31.527,31.623c-0,17.484 14.134,31.618 31.527,31.618c17.483,-0 31.617,-14.134 31.617,-31.618c-0,-17.392 -14.134,-31.623 -31.617,-31.623Z" style="fill:#0b0b16;fill-rule:nonzero;"/><path d="M1463.48,877.563c-17.392,-0 -31.617,14.139 -31.617,31.623c-0,17.392 14.225,31.435 31.617,31.435c17.483,0 31.436,-14.043 31.436,-31.435c-0,-17.484 -13.953,-31.623 -31.436,-31.623Z" style="fill:#0b0b16;fill-rule:nonzero;"/><path d="M1526.53,972.239c-17.489,-0 -31.623,14.134 -31.623,31.526c-0,17.484 14.134,31.624 31.623,31.624c17.387,-0 31.617,-14.14 31.617,-31.624c0,-17.392 -14.23,-31.526 -31.617,-31.526Z" style="fill:#0b0b16;fill-rule:nonzero;"/><path d="M1589.78,877.563c17.392,-0 31.526,-14.231 31.526,-31.618c0,-17.489 -14.134,-31.623 -31.526,-31.623c-17.484,0 -31.624,14.134 -31.624,31.623c0,17.387 14.14,31.618 31.624,31.618Z" style="fill:#0b0b16;fill-rule:nonzero;"/><path d="M1715.98,656.592c17.483,0 31.617,-14.139 31.617,-31.526c-0,-17.489 -14.134,-31.623 -31.617,-31.623c-17.393,-0 -31.624,14.134 -31.624,31.623c0,17.387 14.231,31.526 31.624,31.526Z" style="fill:#0b0b16;fill-rule:nonzero;"/><path d="M1526.53,656.592c-17.489,0 -31.623,14.044 -31.623,31.527c-0,17.392 14.134,31.623 31.623,31.623c17.387,0 31.617,-14.231 31.617,-31.623c0,-17.483 -14.23,-31.527 -31.617,-31.527Z" style="fill:#0b0b16;fill-rule:nonzero;"/><path d="M1400.33,498.766c-17.483,0 -31.43,14.044 -31.43,31.436c0,17.483 13.947,31.623 31.43,31.623c17.393,0 31.533,-14.14 31.533,-31.623c-0,-17.392 -14.14,-31.436 -31.533,-31.436Z" style="fill:#0b0b16;fill-rule:nonzero;"/><path d="M1589.78,498.766c17.392,0 31.526,-14.134 31.526,-31.617c0,-17.392 -14.134,-31.532 -31.526,-31.532c-17.484,-0 -31.624,14.14 -31.624,31.532c0,17.483 14.14,31.617 31.624,31.617Z" style="fill:#0b0b16;fill-rule:nonzero;"/><path d="M1779.22,467.149c17.205,-0 31.436,-14.14 31.436,-31.532c-0,-17.484 -14.231,-31.618 -31.436,-31.618c-17.483,0 -31.623,14.134 -31.623,31.618c-0,17.392 14.14,31.532 31.623,31.532Z" style="fill:#0b0b16;fill-rule:nonzero;"/></g></g></svg>