<?xml version="1.0" encoding="UTF-8" standalone="no"?><!DOCTYPE svg PUBLIC "-//W3C//DTD SVG 1.1//EN" "http://www.w3.org/Graphics/SVG/1.1/DTD/svg11.dtd"><svg width="100%" height="100%" viewBox="0 0 2084 2084" version="1.1" xmlns="http://www.w3.org/2000/svg" xmlns:xlink="http://www.w3.org/1999/xlink" xml:space="preserve" xmlns:serif="http://www.serif.com/" style="fill-rule:evenodd;clip-rule:evenodd;stroke-linejoin:round;stroke-miterlimit:2;"><rect id="画板1" x="0" y="0" width="2083.33" height="2083.33" style="fill:none;"/><clipPath id="_clip1"><rect id="画板11" serif:id="画板1" x="0" y="0" width="2083.33" height="2083.33"/></clipPath><g clip-path="url(#_clip1)"><g><path d="M1142.11,1720.72c16.558,110.672 102.675,229.058 224.325,299.372l-649.712,-0c121.644,-70.314 207.766,-188.7 224.506,-299.372c7.254,-48.363 7.623,-145.645 -78.868,-226.46c59.614,6.789 119.511,10.507 179.312,10.507c59.794,0 119.504,-3.718 179.305,-10.507c-86.491,80.815 -86.122,178 -78.868,226.46Zm-914.3,-851.156l1627.81,-0c-8.18,273.147 -154.193,437.387 -467.053,534.204l-81.189,14.321c-176.331,31.436 -355.08,31.436 -531.417,0l-81.376,-14.321c-312.576,-96.817 -458.868,-261.057 -466.775,-534.204Zm320.483,-806.415l986.753,-0c47.892,59.704 270.264,348.847 310.436,635.476c5.211,37.668 8.094,73.379 9.582,107.885l-1626.98,0c1.675,-34.506 4.559,-70.217 9.86,-107.885c40.178,-286.26 262.266,-575.772 310.345,-635.476Zm857.57,1401.25c352.759,-108.624 515.512,-304.022 513.463,-624.323l0.562,-2.134l-0.375,-1.674c-0.465,-46.132 -4.28,-94.955 -11.625,-146.389c-47.335,-338.062 -322.157,-664.959 -333.782,-678.821c-6.046,-6.97 -14.975,-11.063 -24.182,-11.063l-1016.7,-0c-9.02,-0 -17.949,4.093 -23.898,11.063c-11.625,13.862 -286.634,340.759 -333.879,678.821c-7.254,51.616 -11.25,100.444 -11.625,146.667l-0.374,1.396l0.374,2.044c-1.953,320.301 160.801,515.789 513.463,624.413c147.131,45.479 218.552,132.992 201.443,246.922c-21.951,145.73 -193.258,308.767 -389.774,308.767c-17.387,-0 -31.618,14.134 -31.618,31.617c0,17.393 14.231,31.623 31.618,31.623l1105.42,0c17.483,0 31.43,-14.23 31.43,-31.623c-0,-17.483 -13.947,-31.617 -31.43,-31.617c-196.517,-0 -368.011,-163.037 -389.956,-308.767c-17.115,-113.93 54.499,-201.443 201.437,-246.922Z" style="fill:#0b0b16;fill-rule:nonzero;"/></g></g></svg>