<?xml version="1.0" encoding="UTF-8" standalone="no"?><!DOCTYPE svg PUBLIC "-//W3C//DTD SVG 1.1//EN" "http://www.w3.org/Graphics/SVG/1.1/DTD/svg11.dtd"><svg width="100%" height="100%" viewBox="0 0 2084 2084" version="1.1" xmlns="http://www.w3.org/2000/svg" xmlns:xlink="http://www.w3.org/1999/xlink" xml:space="preserve" xmlns:serif="http://www.serif.com/" style="fill-rule:evenodd;clip-rule:evenodd;stroke-linejoin:round;stroke-miterlimit:2;"><rect id="画板1" x="0" y="0" width="2083.33" height="2083.33" style="fill:none;"/><g id="画板11" serif:id="画板1"><g><path d="M1497.47,717.043c-8.557,-4.649 -18.788,-5.024 -27.81,-1.022c-8.929,3.815 -15.533,11.717 -17.858,21.112c-15.439,61.571 -41.016,118.026 -58.316,152.16c-37.11,-35.99 -101.1,-105.377 -136.722,-183.41c-4.836,-10.604 -15.16,-17.672 -26.786,-18.416l-1.953,0c-10.882,0 -21.113,5.581 -26.88,15.066c-39.063,63.523 -87.614,117.004 -117.469,147.511c-38.133,-68.916 -115.702,-230.846 -85.289,-358.454c13.021,-54.593 43.993,-95.613 94.59,-125.28l22.508,-17.116l39.342,25.858c-100.448,149.464 -83.614,294.556 -82.777,301.067c2.046,15.998 15.625,27.624 31.344,27.624l3.906,-0.279c17.393,-2.231 29.577,-18.046 27.345,-35.252c-0.093,-1.391 -14.789,-128.068 73.011,-258.56l116.26,76.171c-40.923,114.216 3.441,210.574 5.488,214.848c5.394,11.536 16.741,18.138 28.553,18.138l13.486,-2.975c15.718,-7.533 22.509,-26.414 14.975,-42.224c-0.28,-0.653 -31.53,-68.456 -7.813,-151.882l216.244,141.647l17.206,5.211c10.417,0 20.462,-5.114 26.508,-14.419c9.579,-14.504 5.487,-34.038 -9.115,-43.62l-216.244,-141.647c65.849,-54.224 138.768,-53.202 142.582,-53.48c18.136,1.209 31.995,-13.21 32.459,-30.604c0.558,-17.484 -13.114,-31.994 -30.507,-32.55c-4.836,-0.188 -110.865,-2.328 -199.223,80.729l-116.26,-76.171c83.986,-131.61 206.664,-169.65 207.966,-170.019c16.649,-4.933 26.228,-22.509 21.392,-39.249c-4.929,-16.65 -22.415,-26.136 -39.157,-21.396c-6.231,1.771 -146.115,44.273 -243.03,196.064l-39.342,-25.761c3.069,-8.839 5.487,-17.956 6.604,-27.345c7.068,-58.318 32.18,-103.056 77.01,-136.816c104.541,-78.595 284.233,-72.174 362.732,-64.829c-15.904,39.528 -45.574,105.378 -88.265,166.58c-6.696,9.395 -7.534,21.952 -2.232,32.368c5.208,10.417 15.905,17.019 27.531,17.207c85.846,1.487 174.855,32.55 222.847,52.175c-24.554,29.576 -65.943,75.336 -116.353,114.216c-7.72,5.859 -12.278,15.067 -12.371,24.921c0,9.674 4.558,18.978 12.278,24.836c91.334,70.875 148.534,203.876 172.158,268.142c-68.454,4.003 -213.175,4.559 -314.553,-50.875Zm-298.185,342.082c83.242,12.745 147.511,84.085 147.511,170.86c0,95.795 -78.033,173.924 -173.832,173.924c-57.107,0 -107.611,-27.997 -139.326,-70.687c15.346,-31.25 23.996,-66.219 23.996,-103.237c-0,-21.765 -3.255,-42.412 -8.929,-62.411c63.617,-14.322 117.562,-54.315 150.58,-108.449Zm-202.479,667.617c-57.2,-0 -107.424,-28.186 -139.047,-71.062c15.067,-31.251 23.903,-65.942 23.903,-102.772c0,-31.995 -6.882,-62.224 -18.508,-90.034c52.735,-9.764 99.333,-36.644 133.745,-74.962c37.854,42.321 90.776,71.244 150.208,77.568c14.882,25.761 23.625,55.524 23.625,87.428c-0,95.891 -78.034,173.834 -173.926,173.834Zm-176.064,293.534c-95.891,-0 -173.925,-78.039 -173.925,-173.834c-0,-20.368 3.906,-39.437 10.416,-57.199c64.92,-3.537 122.864,-33.113 163.695,-78.595c40.737,45.482 98.588,75.058 163.415,78.595c6.418,17.859 10.324,37.018 10.324,57.199c-0,95.795 -78.034,173.834 -173.925,173.834Zm-349.99,-467.368c0,-31.995 8.743,-61.667 23.903,-87.428c59.432,-6.512 112.168,-35.344 150.116,-77.664c37.854,42.32 90.497,71.152 149.929,77.664c15.067,25.67 23.81,55.433 23.81,87.428c-0,95.891 -78.034,173.834 -173.926,173.834c-95.891,-0 -173.832,-77.943 -173.832,-173.834Zm-176.064,-322.923c0,-86.775 64.268,-158.115 147.511,-170.86c39.528,65.016 109.377,109.568 189.923,113.751c6.417,17.859 10.23,37.019 10.23,57.109c0,95.795 -77.941,173.924 -173.832,173.924c-95.891,0 -173.832,-78.129 -173.832,-173.924Zm349.896,-467.369c95.892,0 173.926,77.942 173.926,173.925c-0,95.892 -78.034,173.834 -173.926,173.834c-95.891,0 -173.832,-77.942 -173.832,-173.834c0,-95.983 77.941,-173.925 173.832,-173.925Zm213.269,276.516c15.066,-31.064 23.809,-65.851 23.809,-102.591c0,-37.2 -8.836,-72.174 -24.182,-103.516c27.344,-36.643 68.733,-62.314 116.167,-68.643c33.204,85.475 73.198,148.163 76.453,153.187c5.022,7.812 13.208,12.926 22.322,14.232c9.022,1.3 18.23,-1.675 25.205,-7.63c1.861,-1.674 26.042,-23.252 57.758,-58.13c9.766,21.578 15.347,45.295 15.347,70.5c-0,95.892 -78.034,173.834 -173.926,173.834c-57.292,0 -107.424,-28.367 -138.953,-71.243Zm-161.37,128.539c48.922,-10.979 92.171,-37.297 124.445,-73.48c40.737,45.573 98.495,75.149 163.322,78.685c6.511,17.763 10.417,36.922 10.417,57.109c-0,95.795 -78.034,173.924 -173.925,173.924c-57.107,0 -107.517,-27.997 -139.233,-70.687c15.16,-31.25 23.996,-66.219 23.996,-103.237c0,-21.674 -3.348,-42.412 -9.022,-62.314Zm-111.61,-602.322c3.349,-166.579 139.605,-301.164 307.02,-301.164c60.456,-0 117.748,18.137 166.206,49.575c-63.618,38.318 -104.448,93.195 -121.19,163.139c-17.578,74.127 -5.581,154.947 15.997,227.218c-51.991,9.855 -97.937,36.553 -132.071,74.406c-43.435,-48.366 -106.215,-79.061 -176.251,-79.061c-10.137,0 -20.089,0.931 -29.948,2.14c-18.881,-39.436 -29.949,-83.056 -30.042,-129.651l0.279,-6.602Zm1300.25,221.825c-2.511,-8.561 -58.13,-197.926 -176.901,-311.484c73.011,-63.154 121.283,-131.054 123.514,-134.307c5.302,-7.442 7.069,-16.831 4.837,-25.761c-2.232,-9.026 -8.278,-16.463 -16.463,-20.556c-5.115,-2.514 -111.423,-55.246 -230.845,-70.499c52.642,-88.081 79.521,-170.02 80.823,-174.022c2.884,-8.742 1.768,-18.319 -3.069,-26.136c-4.743,-7.811 -12.835,-13.3 -21.857,-14.691c-11.905,-2.049 -291.766,-46.135 -449.229,72.078c-58.595,43.995 -92.823,104.452 -101.937,179.692l-0.093,0.562c-58.781,-38.505 -128.351,-61.014 -202.014,-61.014c-143.884,0 -268.514,82.592 -329.9,202.661c-34.134,-113.564 -118.213,-255.029 -322.738,-328.969c-16.369,-5.858 -34.506,2.509 -40.459,19.069c-5.859,16.366 2.604,34.412 19.067,40.367c298.184,107.7 305.997,369.427 304.23,424.673l-0.373,9.112l-0.092,0.84l-0.186,2.787c-0,52.084 11.626,101.569 31.343,146.398c-85.195,35.991 -145.092,120.444 -145.092,218.567c-0,21.578 3.069,42.508 8.557,62.411c-105.565,23.995 -184.807,118.303 -184.807,231.033c-0,116.163 84.172,212.986 194.665,232.986c-11.719,27.81 -18.415,57.942 -18.415,89.937c-0,112.723 79.149,207.128 184.807,231.033c-5.58,19.812 -8.743,40.645 -8.743,62.501c-0,130.583 106.309,236.891 236.985,236.891c130.676,0 236.892,-106.308 236.892,-236.891c-0,-21.856 -3.069,-42.689 -8.557,-62.501c105.564,-23.996 184.807,-118.401 184.807,-231.033c0,-31.995 -6.697,-62.224 -18.23,-89.937c110.308,-20.187 194.202,-116.823 194.202,-232.986c-0,-112.73 -79.15,-206.85 -184.714,-230.664c5.487,-20.085 8.742,-41.106 8.742,-62.78c0,-44.733 -13.207,-86.122 -34.878,-121.744c8.65,-10.791 17.3,-22.139 25.857,-34.134c61.664,103.328 152.347,179.783 156.718,183.41l20.276,7.534l5.209,-0.557c9.021,-1.487 17.02,-6.977 21.857,-14.697c1.952,-3.44 44.829,-74.78 73.662,-166.761c151.603,63.336 347.386,38.875 356.314,37.666c9.114,-1.209 17.3,-6.324 22.322,-14.135c5.023,-7.63 6.511,-17.025 3.906,-25.949Z" style="fill:#0b0b16;fill-rule:nonzero;"/></g></g></svg>