<?xml version="1.0" encoding="UTF-8" standalone="no"?><!DOCTYPE svg PUBLIC "-//W3C//DTD SVG 1.1//EN" "http://www.w3.org/Graphics/SVG/1.1/DTD/svg11.dtd"><svg width="100%" height="100%" viewBox="0 0 2084 2084" version="1.1" xmlns="http://www.w3.org/2000/svg" xmlns:xlink="http://www.w3.org/1999/xlink" xml:space="preserve" xmlns:serif="http://www.serif.com/" style="fill-rule:evenodd;clip-rule:evenodd;stroke-linejoin:round;stroke-miterlimit:2;"><rect id="画板1" x="0" y="0" width="2083.33" height="2083.33" style="fill:none;"/><g id="画板11" serif:id="画板1"><g><path d="M1777.62,1756.87c-37.111,7.067 -73.104,-17.116 -80.171,-54.133l-101.842,-522.04c44.922,-19.624 87.145,-41.667 126.487,-66.315l109.562,562.22c7.254,37.017 -17.112,72.916 -54.036,80.268Zm-699.407,192.335c0,37.665 -30.691,68.267 -68.358,68.267c-37.761,0 -68.361,-30.602 -68.361,-68.267l0,-666.017c32.74,1.862 66.127,3.072 100.076,3.072c12.37,-0 24.461,-0.279 36.643,-0.562l0,663.507Zm-755.952,-246.468c-7.161,37.017 -43.153,61.109 -80.171,54.133c-37.017,-7.352 -61.29,-43.251 -54.036,-80.268l117.001,-600.446c38.318,28.275 79.8,53.945 124.441,76.822l-107.235,549.759Zm-251.117,-1117.84c54.039,38.13 136.254,70.407 236.236,96.259l3.815,1.118c86.307,22.042 185.64,39.714 291.853,52.361l5.58,1.306l1.487,-0.284c91.891,10.791 188.615,18.046 286.366,21.764l0.838,0.097l0.556,-0c47.806,1.765 95.983,2.696 143.695,2.696c47.713,0 95.703,-0.931 143.509,-2.696l0.837,0.181l1.3,-0.369c97.564,-3.627 194.104,-10.882 285.901,-21.673l1.396,0.284l5.674,-1.306c231.306,-27.81 430.615,-78.309 531.901,-149.738c-64.362,439.638 -519.16,638.207 -970.518,638.207c-451.357,-0 -906.064,-198.569 -970.426,-638.207Zm217.449,-243.863l0,270.089c-145.648,-41.945 -225.538,-92.353 -225.538,-135.041c-0,-42.694 79.89,-93.103 225.538,-135.048Zm63.059,-16.649c65.29,-15.713 140.625,-29.666 225.539,-40.826l-0,384.949c-84.914,-11.16 -160.249,-25.017 -225.539,-40.735l0,-303.388Zm288.597,-48.456c16.275,-1.765 32.925,-3.44 49.759,-5.115l10.601,17.394c33.668,44.828 33.668,120.628 0,165.553c-10.417,13.857 -7.533,33.759 6.417,44.176l18.881,6.323c9.673,0 19.068,-4.371 25.298,-12.647c47.247,-63.153 49.852,-158.946 9.02,-226.566c34.134,-2.418 69.292,-4.462 105.563,-6.136l-0,434.336c-80.543,-3.44 -155.784,-9.298 -225.539,-17.019l0,-400.299Zm288.598,-19.249c28.366,-0.84 57.291,-1.209 86.682,-1.397l0.837,1.306c33.575,44.828 33.575,120.719 0,165.548c-10.51,13.953 -7.626,33.758 6.324,44.272l18.88,6.233c9.58,-0 19.065,-4.281 25.298,-12.654c42.223,-56.357 48.734,-139.321 20.462,-204.517c22.598,0.278 45.013,0.652 66.961,1.209l0,438.803c-36.642,1.022 -74.125,1.579 -112.721,1.579c-38.504,-0 -76.081,-0.557 -112.723,-1.579l-0,-438.803Zm288.597,2.231c22.88,1.021 45.2,2.23 67.242,3.627c4.559,9.02 9.767,17.671 15.719,25.67c33.668,44.828 33.668,120.628 0,165.553c-10.417,13.857 -7.533,33.759 6.418,44.176l18.88,6.323c9.579,0 19.159,-4.371 25.298,-12.647c46.409,-62.131 49.758,-156.25 10.882,-223.586c27.807,2.322 54.78,5.018 81.099,7.902l0,400.299c-69.754,7.721 -144.995,13.579 -225.538,17.019l-0,-434.336Zm288.691,24.648c84.726,11.16 160.248,25.113 225.445,40.826l-0,303.388c-65.197,15.718 -140.719,29.575 -225.445,40.735l-0,-384.949Zm288.503,57.475c145.649,41.854 225.448,92.354 225.448,135.048c-0,42.688 -79.799,93.096 -225.448,135.041l0,-270.089Zm-15.718,734.563c192.988,-142.484 304.409,-349.795 304.409,-599.515c0,-130.302 -267.764,-218.193 -602.864,-258.56l-5.952,-1.209l-1.49,0.278c-46.594,-5.58 -94.306,-10.042 -142.949,-13.669c-9.207,-40.645 -2.603,-86.96 20.927,-118.21c10.417,-13.953 7.626,-33.765 -6.324,-44.272c-13.953,-10.417 -33.855,-7.533 -44.178,6.42c-31.437,41.848 -43.248,98.49 -35.715,151.691c-70.313,-4.093 -141.462,-6.324 -212.241,-6.511c-17.762,-44.363 -13.3,-102.026 14.232,-138.953c10.601,-13.947 7.626,-33.759 -6.233,-44.175c-14.044,-10.508 -33.759,-7.533 -44.176,6.323c-36.552,48.734 -46.318,117.28 -30.134,177.179c-85.845,1.3 -171.877,5.393 -255.489,12.183c-9.951,-40.832 -3.349,-88.079 20.462,-119.885c10.417,-13.953 7.626,-33.765 -6.418,-44.272c-13.95,-10.417 -33.668,-7.533 -44.178,6.42c-33.762,45.106 -44.457,106.953 -33.203,163.504c-19.717,1.856 -39.154,4.093 -58.406,6.415l-0.372,-0.091l-1.209,0.278c-108.353,12.926 -209.823,30.693 -297.621,53.383l-2.231,0.653c-184.059,47.712 -307.571,116.632 -307.571,205.08c0,225.072 90.31,415.734 249.443,555.43l-123.328,632.905c-13.857,71.242 32.831,140.44 103.888,154.393c8.464,1.578 17.021,2.322 25.485,2.322c25.855,-0 51.152,-7.624 73.195,-22.321c29.11,-19.715 48.921,-49.574 55.523,-83.986l104.075,-533.853c114.118,49.761 245.163,83.146 390.067,97.377l0,670.853c0,72.451 58.967,131.511 131.511,131.511c72.545,-0 131.511,-59.06 131.511,-131.511l-0,-666.017c145.273,-8.367 277.715,-35.53 394.622,-78.587l99.424,510.227c12.185,62.687 67.43,106.307 129.092,106.307c8.279,-0 16.743,-0.744 25.204,-2.322c34.415,-6.789 64.268,-26.51 83.892,-55.62c19.625,-29.297 26.786,-64.265 19.996,-98.773l-114.676,-588.82Z" style="fill:#0b0b16;fill-rule:nonzero;"/></g></g></svg>