<?xml version="1.0" encoding="UTF-8" standalone="no"?><!DOCTYPE svg PUBLIC "-//W3C//DTD SVG 1.1//EN" "http://www.w3.org/Graphics/SVG/1.1/DTD/svg11.dtd"><svg width="100%" height="100%" viewBox="0 0 2084 2084" version="1.1" xmlns="http://www.w3.org/2000/svg" xmlns:xlink="http://www.w3.org/1999/xlink" xml:space="preserve" xmlns:serif="http://www.serif.com/" style="fill-rule:evenodd;clip-rule:evenodd;stroke-linejoin:round;stroke-miterlimit:2;"><rect id="画板1" x="0" y="0" width="2083.33" height="2083.33" style="fill:none;"/><clipPath id="_clip1"><rect id="画板11" serif:id="画板1" x="0" y="0" width="2083.33" height="2083.33"/></clipPath><g clip-path="url(#_clip1)"><g><path d="M2020.37,1965.11c0,30.321 -24.836,55.157 -55.343,55.157l-1846.62,-0c-30.508,-0 -55.248,-24.836 -55.248,-55.157c0,-30.598 24.74,-55.434 55.248,-55.434l1846.62,-0c30.507,-0 55.343,24.836 55.343,55.434Zm-1957.21,-957.16c0,-30.508 24.74,-55.253 55.248,-55.253l1846.62,-0c30.507,-0 55.343,24.745 55.343,55.253c0,30.507 -24.836,55.151 -55.343,55.151l-1846.62,-0c-30.508,-0 -55.248,-24.644 -55.248,-55.151Zm254.103,-469.608l1448.91,-0c-14.975,145.095 -133.003,271.962 -306.653,351.109l-835.045,-0c-173.929,-79.057 -292.235,-205.827 -307.21,-351.109Zm1592.52,1308.28l-1736.22,0l0,-720.361l1736.22,-0l0,720.361Zm173.559,-838.667c0,-65.296 -53.016,-118.499 -118.311,-118.499l-377.064,-0c149.466,-96.638 242.942,-232.15 242.942,-382.735c-0,-17.485 -14.136,-31.53 -31.53,-31.53l-726.032,0l-0,-128.354l327.113,0c9.951,0 19.534,-4.927 25.483,-13.113l195.79,-270.662l430.171,-0c17.394,-0 31.438,-14.136 31.438,-31.62c0,-17.394 -14.044,-31.439 -31.438,-31.439l-446.356,0c-10.23,0 -19.625,4.837 -25.671,13.114l-195.602,270.474l-575.822,0c-17.394,0 -31.53,14.232 -31.53,31.626c0,17.485 14.136,31.62 31.53,31.62l201.648,0l-0,128.354l-726.038,0c-17.394,0 -31.53,14.045 -31.53,31.53c0,150.675 93.845,286.097 243.595,382.735l-377.716,-0c-65.29,-0 -118.403,53.203 -118.403,118.499c0,62.406 48.923,113.282 110.5,117.471l0,721.94c-61.577,4.184 -110.5,55.06 -110.5,117.749c0,65.199 53.113,118.216 118.403,118.216l1846.62,-0c65.295,-0 118.311,-53.017 118.311,-118.216c0,-62.689 -48.832,-113.565 -110.404,-117.749l0,-721.94c61.572,-4.189 110.404,-55.065 110.404,-117.471Z" style="fill:#0b0b16;fill-rule:nonzero;"/><path d="M362.928,1312.83l1357.48,-0l0,347.209l-1357.48,-0l0,-347.209Zm-31.529,410.364l1420.63,0c17.297,0 31.529,-14.044 31.529,-31.535l0,-410.358c0,-17.485 -14.232,-31.621 -31.529,-31.621l-1420.63,0c-17.303,0 -31.439,14.136 -31.439,31.621l0,410.358c0,17.491 14.136,31.535 31.439,31.535Z" style="fill:#0b0b16;fill-rule:nonzero;"/><path d="M1041.62,1541.64c-30.32,0 -55.156,-24.739 -55.156,-55.247c-0,-30.417 24.836,-55.247 55.156,-55.247c30.508,-0 55.338,24.83 55.338,55.247c0,30.508 -24.83,55.247 -55.338,55.247Zm0,-173.559c-65.199,0 -118.215,53.113 -118.215,118.312c0,65.386 53.016,118.493 118.215,118.493c65.29,0 118.494,-53.107 118.494,-118.493c-0,-65.199 -53.204,-118.312 -118.494,-118.312Z" style="fill:#0b0b16;fill-rule:nonzero;"/></g></g></svg>