<?xml version="1.0" encoding="UTF-8" standalone="no"?><!DOCTYPE svg PUBLIC "-//W3C//DTD SVG 1.1//EN" "http://www.w3.org/Graphics/SVG/1.1/DTD/svg11.dtd"><svg width="100%" height="100%" viewBox="0 0 2084 2084" version="1.1" xmlns="http://www.w3.org/2000/svg" xmlns:xlink="http://www.w3.org/1999/xlink" xml:space="preserve" xmlns:serif="http://www.serif.com/" style="fill-rule:evenodd;clip-rule:evenodd;stroke-linejoin:round;stroke-miterlimit:2;"><rect id="画板1" x="0" y="0" width="2083.33" height="2083.33" style="fill:none;"/><clipPath id="_clip1"><rect id="画板11" serif:id="画板1" x="0" y="0" width="2083.33" height="2083.33"/></clipPath><g clip-path="url(#_clip1)"><g><path d="M978.057,787.102l-190.828,-0c0,245.914 199.352,445.265 445.266,445.265l190.828,0c-0,-245.945 -199.352,-445.265 -445.266,-445.265Z" style="fill:#fff;fill-rule:nonzero;"/><path d="M811.751,810.955c12.403,221.329 196.361,397.559 420.744,397.559l166.306,-0c-12.404,-221.329 -196.362,-397.559 -420.744,-397.559l-166.306,0Zm611.572,445.266l-190.828,-0c-258.668,-0 -469.119,-210.452 -469.119,-469.119c-0,-13.167 10.686,-23.854 23.853,-23.854l190.828,0c258.668,0 469.119,210.452 469.119,469.119c0,13.167 -10.686,23.854 -23.853,23.854Z" style="fill-rule:nonzero;"/><path d="M1423.35,1256.22c-6.838,-0 -13.612,-2.926 -18.351,-8.587c-1.527,-1.845 -158.292,-187.648 -400.961,-331.151c-11.323,-6.71 -15.076,-21.372 -8.365,-32.663c6.742,-11.322 21.404,-15.107 32.663,-8.397c250.049,147.924 406.75,333.759 413.302,341.646c8.428,10.083 7.093,25.094 -3.022,33.554c-4.484,3.721 -9.891,5.598 -15.266,5.598Z" style="fill-rule:nonzero;"/><path d="M1868.65,977.93l190.828,-0c-0,245.914 -199.352,445.265 -445.266,445.265l-190.828,0c0,-245.945 199.384,-445.265 445.266,-445.265Z" style="fill:#fff;fill-rule:nonzero;"/><path d="M1447.91,1399.34l166.306,-0c224.382,-0 408.372,-176.23 420.744,-397.559l-166.306,0c-224.35,0 -408.341,176.23 -420.744,397.559Zm166.306,47.707l-190.828,-0c-13.167,-0 -23.853,-10.687 -23.853,-23.854c-0,-258.667 210.451,-469.119 469.119,-469.119l190.828,0c13.199,0 23.853,10.687 23.853,23.854c0,258.667 -210.419,469.119 -469.119,469.119Z" style="fill-rule:nonzero;"/><path d="M1423.39,1447.05c-5.375,-0 -10.813,-1.813 -15.266,-5.534c-10.114,-8.46 -11.482,-23.44 -3.021,-33.586c6.551,-7.856 163.253,-193.754 413.269,-341.677c11.323,-6.711 25.985,-2.926 32.696,8.396c6.71,11.354 2.957,25.953 -8.397,32.663c-242.637,143.503 -399.403,329.306 -400.962,331.182c-4.706,5.63 -11.481,8.556 -18.319,8.556Z" style="fill-rule:nonzero;"/><path d="M1105.28,1455.1l190.828,0c0,245.882 -199.384,445.234 -445.265,445.234l-190.828,0c-0,-245.945 199.351,-445.234 445.265,-445.234Z" style="fill:#fff;fill-rule:nonzero;"/><path d="M684.532,1876.48l166.307,-0c224.35,-0 408.339,-176.23 420.743,-397.527l-166.306,-0c-224.382,-0 -408.372,176.198 -420.744,397.527Zm166.307,47.707l-190.828,-0c-13.168,-0 -23.854,-10.687 -23.854,-23.854c0,-258.667 210.42,-469.087 469.119,-469.087l190.828,-0c13.167,-0 23.854,10.686 23.854,23.853c-0,258.636 -210.452,469.088 -469.119,469.088Z" style="fill-rule:nonzero;"/><path d="M659.979,1924.18c-5.375,-0 -10.814,-1.877 -15.267,-5.598c-10.114,-8.46 -11.481,-23.472 -3.021,-33.554c6.552,-7.887 163.253,-193.722 413.302,-341.646c11.291,-6.711 25.92,-2.926 32.663,8.397c6.711,11.29 2.958,25.952 -8.396,32.663c-242.638,143.503 -399.404,329.306 -400.962,331.15c-4.707,5.661 -11.482,8.588 -18.319,8.588Z" style="fill-rule:nonzero;"/><path d="M214.682,1264.24l-190.828,-0c-0,245.85 199.351,445.265 445.265,445.265l190.828,0c-0,-245.914 -199.352,-445.265 -445.265,-445.265Z" style="fill:#fff;fill-rule:nonzero;"/><path d="M48.375,1288.09c12.372,221.329 196.362,397.559 420.744,397.559l166.306,-0c-12.404,-221.329 -196.393,-397.559 -420.743,-397.559l-166.307,0Zm611.572,445.266l-190.828,-0c-258.699,-0 -469.119,-210.452 -469.119,-469.119c0,-13.167 10.686,-23.854 23.854,-23.854l190.828,0c258.667,0 469.119,210.451 469.119,469.119c-0,13.167 -10.687,23.854 -23.854,23.854Z" style="fill-rule:nonzero;"/><path d="M659.947,1733.36c-6.838,-0 -13.613,-2.927 -18.32,-8.588c-1.558,-1.844 -158.323,-187.648 -400.961,-331.15c-11.323,-6.711 -15.107,-21.373 -8.397,-32.663c6.743,-11.291 21.341,-15.108 32.696,-8.397c250.016,147.86 406.718,333.759 413.27,341.646c8.459,10.082 7.092,25.094 -2.99,33.554c-4.485,3.721 -9.891,5.598 -15.298,5.598Z" style="fill-rule:nonzero;"/><path d="M946.475,2083.21l-636.062,0c-13.167,0 -23.853,-10.687 -23.853,-23.853c-0,-13.168 10.686,-23.854 23.853,-23.854l636.062,0c13.167,0 23.853,10.686 23.853,23.854c0,13.166 -10.686,23.853 -23.853,23.853Z" style="fill-rule:nonzero;"/><path d="M1550.83,2083.21l-477.101,0c-13.168,0 -23.854,-10.687 -23.854,-23.853c0,-13.168 10.686,-23.854 23.854,-23.854l477.101,0c13.167,0 23.854,10.686 23.854,23.854c-0,13.166 -10.687,23.853 -23.854,23.853Z" style="fill-rule:nonzero;"/><path d="M1773.43,2083.21l-95.382,0c-13.167,0 -23.854,-10.687 -23.854,-23.853c0,-13.168 10.687,-23.854 23.854,-23.854l95.382,0c13.168,0 23.854,10.686 23.854,23.854c-0,13.166 -10.686,23.853 -23.854,23.853Z" style="fill-rule:nonzero;"/><path d="M1423.58,723.556c-193.213,0 -349.851,-156.67 -349.851,-349.851c-0,-193.245 156.638,-349.851 349.851,-349.851c193.213,-0 349.851,156.606 349.851,349.851c0,193.181 -156.638,349.851 -349.851,349.851Z" style="fill:#fff;fill-rule:nonzero;"/><path d="M1423.58,47.707c-179.76,0 -325.998,146.206 -325.998,325.998c0,179.76 146.238,325.998 325.998,325.998c179.76,-0 325.998,-146.238 325.998,-325.998c-0,-179.792 -146.238,-325.998 -325.998,-325.998Zm0,699.703c-206.063,-0 -373.705,-167.674 -373.705,-373.705c0,-206.063 167.642,-373.705 373.705,-373.705c206.063,0 373.705,167.642 373.705,373.705c-0,206.031 -167.642,373.705 -373.705,373.705Z" style="fill-rule:nonzero;"/><path d="M1671.4,373.705c-0,16.093 -13.04,29.133 -29.165,29.133c-16.093,0 -29.133,-13.04 -29.133,-29.133c0,-16.094 13.04,-29.133 29.133,-29.133c16.125,-0 29.165,13.039 29.165,29.133Z" style="fill-rule:nonzero;"/><path d="M1234.02,373.705c-0,16.093 -13.04,29.133 -29.133,29.133c-16.093,0 -29.165,-13.04 -29.165,-29.133c0,-16.094 13.072,-29.133 29.165,-29.133c16.093,-0 29.133,13.039 29.133,29.133Z" style="fill-rule:nonzero;"/><path d="M1423.74,582.661c-52.223,0 -98.213,-29.069 -117.168,-74.105c-5.089,-12.181 0.604,-26.143 12.753,-31.232c12.213,-5.152 26.144,0.605 31.232,12.722c11.291,26.907 40.71,44.908 73.183,44.908c43.032,0 78.017,-30.818 78.017,-68.698c-0,-31.295 -13.58,-68.698 -78.367,-68.698c-92.679,0 -125.724,-60.142 -125.724,-116.405c0,-64.182 56.39,-116.405 125.724,-116.405c52.255,-0 98.245,29.133 117.168,74.105c5.121,12.149 -0.604,26.144 -12.753,31.232c-12.149,5.152 -26.112,-0.636 -31.232,-12.722c-11.291,-26.843 -40.71,-44.908 -73.183,-44.908c-43.031,-0 -78.017,30.787 -78.017,68.698c0,31.359 13.549,68.698 78.017,68.698c92.934,0 126.074,60.111 126.074,116.405c-0,64.246 -56.39,116.405 -125.724,116.405Z" style="fill-rule:nonzero;"/><path d="M1423.39,212.455c-13.167,-0 -23.853,-10.686 -23.853,-23.854l-0,-50.887c-0,-13.167 10.686,-23.854 23.853,-23.854c13.168,0 23.854,10.687 23.854,23.854l-0,50.887c-0,13.168 -10.686,23.854 -23.854,23.854Z" style="fill-rule:nonzero;"/><path d="M1423.39,633.613c-13.167,-0 -23.853,-10.687 -23.853,-23.854l-0,-50.951c-0,-13.167 10.686,-23.854 23.853,-23.854c13.168,0 23.854,10.687 23.854,23.854l-0,50.951c-0,13.167 -10.686,23.854 -23.854,23.854Z" style="fill-rule:nonzero;"/><path d="M660.169,1200.69c-193.213,0 -349.851,-156.67 -349.851,-349.851c-0,-193.246 156.638,-349.852 349.851,-349.852c193.246,0 349.852,156.606 349.852,349.852c-0,193.181 -156.606,349.851 -349.852,349.851Z" style="fill:#fff;fill-rule:nonzero;"/><path d="M660.169,524.841c-179.728,-0 -325.998,146.206 -325.998,325.998c0,179.759 146.27,325.998 325.998,325.998c179.761,-0 325.998,-146.239 325.998,-325.998c0,-179.792 -146.237,-325.998 -325.998,-325.998Zm0,699.703c-206.062,-0 -373.705,-167.675 -373.705,-373.705c0,-206.063 167.643,-373.705 373.705,-373.705c206.063,-0 373.705,167.642 373.705,373.705c0,206.03 -167.642,373.705 -373.705,373.705Z" style="fill-rule:nonzero;"/><path d="M907.992,850.839c-0,16.093 -13.041,29.133 -29.134,29.133c-16.093,-0 -29.165,-13.04 -29.165,-29.133c0,-16.094 13.072,-29.133 29.165,-29.133c16.093,-0 29.134,13.039 29.134,29.133Z" style="fill-rule:nonzero;"/><path d="M470.645,850.839c0,16.093 -13.039,29.133 -29.164,29.133c-16.093,-0 -29.134,-13.04 -29.134,-29.133c0,-16.094 13.041,-29.133 29.134,-29.133c16.125,-0 29.164,13.039 29.164,29.133Z" style="fill-rule:nonzero;"/><path d="M660.36,1059.8c-52.223,0 -98.213,-29.133 -117.168,-74.105c-5.121,-12.181 0.573,-26.143 12.722,-31.232c12.213,-5.184 26.143,0.541 31.264,12.722c11.291,26.843 40.71,44.908 73.182,44.908c43,0 77.985,-30.818 77.985,-68.698c0,-31.359 -13.58,-68.698 -78.334,-68.698c-92.679,0 -125.724,-60.143 -125.724,-116.405c-0,-64.182 56.389,-116.437 125.724,-116.437c52.254,0 98.244,29.133 117.168,74.2c5.089,12.086 -0.605,26.08 -12.754,31.169c-12.149,5.152 -26.143,-0.636 -31.232,-12.722c-11.291,-26.843 -40.71,-44.94 -73.182,-44.94c-43.033,0 -78.017,30.819 -78.017,68.73c-0,31.295 13.517,68.698 78.017,68.698c92.933,0 126.041,60.111 126.041,116.405c0,64.182 -56.389,116.405 -125.692,116.405Z" style="fill-rule:nonzero;"/><path d="M660.011,689.557c-13.168,0 -23.854,-10.655 -23.854,-23.853l0,-50.92c0,-13.167 10.686,-23.854 23.854,-23.854c13.167,0 23.853,10.687 23.853,23.854l0,50.92c0,13.198 -10.686,23.853 -23.853,23.853Z" style="fill-rule:nonzero;"/><path d="M660.011,1110.68c-13.168,-0 -23.854,-10.687 -23.854,-23.854l0,-50.887c0,-13.168 10.686,-23.854 23.854,-23.854c13.167,0 23.853,10.686 23.853,23.854l0,50.887c0,13.167 -10.686,23.854 -23.853,23.854Z" style="fill-rule:nonzero;"/><path d="M1423.58,2083.21c-13.167,0 -23.853,-10.687 -23.853,-23.853l-0,-1335.8c-0,-13.167 10.686,-23.853 23.853,-23.853c13.167,-0 23.854,10.686 23.854,23.853l-0,1335.8c-0,13.166 -10.687,23.853 -23.854,23.853Z" style="fill-rule:nonzero;"/><path d="M660.169,2083.21c-13.167,0 -23.853,-10.687 -23.853,-23.853l-0,-858.663c-0,-13.167 10.686,-23.853 23.853,-23.853c13.167,-0 23.854,10.686 23.854,23.853l-0,858.663c-0,13.166 -10.687,23.853 -23.854,23.853Z" style="fill-rule:nonzero;"/><path d="M882.834,278.768c0,35.112 -28.497,63.609 -63.609,63.609c-35.144,0 -63.61,-28.497 -63.61,-63.609c0,-35.145 28.466,-63.609 63.61,-63.609c35.112,-0 63.609,28.464 63.609,63.609Z" style="fill:#fff;fill-rule:nonzero;"/><path d="M819.225,239.012c-21.946,0 -39.756,17.842 -39.756,39.756c-0,21.945 17.81,39.756 39.756,39.756c21.913,-0 39.756,-17.811 39.756,-39.756c-0,-21.914 -17.843,-39.756 -39.756,-39.756Zm-0,127.219c-48.248,-0 -87.463,-39.247 -87.463,-87.463c-0,-48.248 39.215,-87.463 87.463,-87.463c48.247,0 87.463,39.215 87.463,87.463c-0,48.216 -39.216,87.463 -87.463,87.463Z" style="fill-rule:nonzero;"/><path d="M1900.68,755.838c-0,35.176 -28.497,63.609 -63.61,63.609c-35.144,0 -63.609,-28.433 -63.609,-63.609c0,-35.081 28.465,-63.609 63.609,-63.609c35.113,-0 63.61,28.528 63.61,63.609Z" style="fill:#fff;fill-rule:nonzero;"/><path d="M1837.07,716.082c-21.944,0 -39.755,17.842 -39.755,39.756c-0,21.945 17.811,39.756 39.755,39.756c21.914,-0 39.756,-17.811 39.756,-39.756c0,-21.914 -17.842,-39.756 -39.756,-39.756Zm0,127.219c-48.247,-0 -87.462,-39.184 -87.462,-87.463c-0,-48.184 39.215,-87.463 87.462,-87.463c48.216,0 87.463,39.279 87.463,87.463c0,48.279 -39.247,87.463 -87.463,87.463Z" style="fill-rule:nonzero;"/><path d="M1741.62,1646.5c-0,35.112 -28.466,63.609 -63.61,63.609c-35.112,0 -63.609,-28.497 -63.609,-63.609c0,-35.144 28.497,-63.609 63.609,-63.609c35.144,-0 63.61,28.465 63.61,63.609Z" style="fill:#fff;fill-rule:nonzero;"/><path d="M1678.01,1606.74c-21.913,0 -39.755,17.842 -39.755,39.756c-0,21.945 17.842,39.756 39.755,39.756c21.946,-0 39.756,-17.811 39.756,-39.756c0,-21.914 -17.81,-39.756 -39.756,-39.756Zm0,127.219c-48.216,-0 -87.462,-39.247 -87.462,-87.463c-0,-48.248 39.246,-87.463 87.462,-87.463c48.248,0 87.463,39.215 87.463,87.463c0,48.216 -39.215,87.463 -87.463,87.463Z" style="fill-rule:nonzero;"/><path d="M1996.09,1837.32c-0,35.176 -28.465,63.61 -63.61,63.61c-35.112,-0 -63.609,-28.434 -63.609,-63.61c0,-35.08 28.497,-63.609 63.609,-63.609c35.145,-0 63.61,28.529 63.61,63.609Z" style="fill:#fff;fill-rule:nonzero;"/><path d="M1932.48,1797.57c-21.913,0 -39.755,17.842 -39.755,39.756c-0,21.945 17.842,39.756 39.755,39.756c21.946,-0 39.756,-17.811 39.756,-39.756c0,-21.914 -17.81,-39.756 -39.756,-39.756Zm0,127.219c-48.215,0 -87.462,-39.184 -87.462,-87.463c-0,-48.184 39.247,-87.463 87.462,-87.463c48.249,0 87.463,39.279 87.463,87.463c0,48.279 -39.214,87.463 -87.463,87.463Z" style="fill-rule:nonzero;"/><path d="M501.114,151.517c0,35.144 -28.465,63.61 -63.609,63.61c-35.112,-0 -63.609,-28.466 -63.609,-63.61c-0,-35.112 28.497,-63.609 63.609,-63.609c35.144,-0 63.609,28.497 63.609,63.609Z" style="fill:#fff;fill-rule:nonzero;"/><path d="M437.505,111.761c-21.913,0 -39.756,17.811 -39.756,39.756c0,21.913 17.843,39.756 39.756,39.756c21.945,0 39.756,-17.843 39.756,-39.756c-0,-21.945 -17.811,-39.756 -39.756,-39.756Zm-0,127.219c-48.216,0 -87.463,-39.215 -87.463,-87.463c0,-48.216 39.247,-87.463 87.463,-87.463c48.248,0 87.463,39.247 87.463,87.463c-0,48.248 -39.215,87.463 -87.463,87.463Z" style="fill-rule:nonzero;"/><path d="M246.677,501.401c-0,35.175 -28.497,63.609 -63.609,63.609c-35.144,0 -63.61,-28.434 -63.61,-63.609c0,-35.145 28.466,-63.61 63.61,-63.61c35.112,0 63.609,28.465 63.609,63.61Z" style="fill:#fff;fill-rule:nonzero;"/><path d="M183.068,461.645c-21.914,-0 -39.756,17.842 -39.756,39.756c-0,21.944 17.842,39.756 39.756,39.756c21.913,-0 39.755,-17.812 39.755,-39.756c0,-21.914 -17.842,-39.756 -39.755,-39.756Zm-0,127.219c-48.248,-0 -87.463,-39.248 -87.463,-87.463c-0,-48.248 39.215,-87.463 87.463,-87.463c48.247,-0 87.462,39.215 87.462,87.463c0,48.215 -39.215,87.463 -87.462,87.463Z" style="fill-rule:nonzero;"/><path d="M373.896,1869.13c-0,35.176 -28.466,63.609 -63.61,63.609c-35.144,0 -63.609,-28.433 -63.609,-63.609c-0,-35.081 28.465,-63.61 63.609,-63.61c35.144,0 63.61,28.529 63.61,63.61Z" style="fill:#fff;fill-rule:nonzero;"/><path d="M310.286,1829.37c-21.913,-0 -39.756,17.842 -39.756,39.756c0,21.945 17.843,39.756 39.756,39.756c21.946,-0 39.756,-17.811 39.756,-39.756c0,-21.914 -17.81,-39.756 -39.756,-39.756Zm0,127.219c-48.216,-0 -87.463,-39.184 -87.463,-87.463c0,-48.184 39.247,-87.463 87.463,-87.463c48.248,-0 87.463,39.279 87.463,87.463c0,48.279 -39.215,87.463 -87.463,87.463Z" style="fill-rule:nonzero;"/></g></g></svg>