<?xml version="1.0" encoding="UTF-8" standalone="no"?><!DOCTYPE svg PUBLIC "-//W3C//DTD SVG 1.1//EN" "http://www.w3.org/Graphics/SVG/1.1/DTD/svg11.dtd"><svg width="100%" height="100%" viewBox="0 0 2084 2084" version="1.1" xmlns="http://www.w3.org/2000/svg" xmlns:xlink="http://www.w3.org/1999/xlink" xml:space="preserve" xmlns:serif="http://www.serif.com/" style="fill-rule:evenodd;clip-rule:evenodd;stroke-linejoin:round;stroke-miterlimit:2;"><rect id="画板1" x="0" y="0" width="2083.33" height="2083.33" style="fill:none;"/><clipPath id="_clip1"><rect id="画板11" serif:id="画板1" x="0" y="0" width="2083.33" height="2083.33"/></clipPath><g clip-path="url(#_clip1)"><g><path d="M1695.62,501.297l-113.654,-113.651c-20.274,-20.367 -20.274,-53.479 -0,-73.937l191.034,-190.944c9.857,-9.855 22.973,-15.253 37.017,-15.253c13.857,-0 27.063,5.398 36.924,15.253l113.557,113.56c9.86,9.951 15.347,22.973 15.347,37.017c-0,13.953 -5.487,27.066 -15.347,36.921l-190.938,191.034c-20.461,20.277 -53.573,20.277 -73.94,0Zm-554.964,532.085c-10.045,-18.693 -22.88,-36.274 -38.596,-52.083c-15.905,-15.809 -33.483,-28.644 -52.176,-38.595l498.879,-498.973l90.775,90.769l-498.882,498.882Zm-83.239,-7.533c62.315,62.409 62.405,163.878 -0,226.281c-30.228,30.227 -70.404,46.877 -113.095,46.877c-42.782,-0 -82.867,-16.65 -113.095,-46.877c-30.225,-30.228 -46.874,-70.402 -46.874,-113.095c-0,-42.779 16.649,-82.867 46.874,-113.186c31.156,-31.25 72.079,-46.781 113.095,-46.781c40.923,0 81.845,15.531 113.095,46.781Zm326.262,230.004c-33.668,33.572 -73.937,58.407 -119.978,73.751c-73.1,24.273 -125.464,94.123 -130.3,173.732c-6.88,114.866 -38.504,274.832 -149.459,385.884c-225.259,225.071 -524.365,127.695 -720.976,-68.829c-196.615,-196.609 -294.085,-495.811 -68.826,-720.973c111.701,-111.699 270.461,-142.948 383.928,-149.369c81.845,-4.745 150.853,-56.084 175.779,-130.856c15.346,-45.76 40.179,-85.938 73.659,-119.516c54.688,-54.682 116.257,-76.912 178.665,-76.912c70.032,0 140.902,28.366 204.426,69.936l-227.027,226.933c-69.289,-12.273 -143.507,8.186 -196.984,61.665c-42.131,42.041 -65.383,98.217 -65.383,157.736c0,59.615 23.252,115.513 65.383,157.644c42.129,42.229 98.12,65.383 157.736,65.383c59.525,0 115.513,-23.154 157.738,-65.383c53.383,-53.479 73.938,-127.604 61.569,-197.08l227.027,-226.836c78.496,120.071 109.095,267.015 -6.977,383.09Zm690.379,-879.089l-49.292,-49.199c8.929,-16.553 14.044,-34.877 14.044,-54.223c-0,-30.784 -11.904,-59.803 -33.668,-81.567l-113.654,-113.56c-35.34,-35.433 -91.981,-41.57 -135.416,-19.437l-49.57,-49.573c-12.37,-12.273 -32.275,-12.273 -44.55,-0c-12.37,12.375 -12.37,32.277 -0,44.646l45.387,45.384l-52.177,52.083l-45.387,-45.293c-12.275,-12.37 -32.271,-12.37 -44.55,-0c-12.369,12.278 -12.369,32.18 0,44.459l45.387,45.571l-52.176,52.083l-45.387,-45.481c-12.276,-12.272 -32.365,-12.272 -44.547,0c-12.372,12.466 -12.372,32.272 -0,44.647l48.918,48.921c-15.81,29.575 -17.762,64.633 -5.952,95.605l-255.299,255.208c-61.756,-42.131 -126.486,-70.31 -189.357,-81.101c-108.724,-18.784 -206.847,12.091 -283.947,89.1c-40.457,40.548 -70.406,89.003 -88.821,144.253c-16.741,50.034 -63.709,84.542 -119.51,87.704c-124.536,7.158 -299.199,42.035 -425.035,167.874c-256.046,255.952 -149.925,591.325 68.823,810.073c128.72,128.632 297.618,218.379 467.073,218.379c118.675,-0 237.628,-43.994 343.097,-149.55c124.998,-125.005 160.341,-300.877 167.874,-426.523c3.255,-54.223 38.32,-101.566 87.24,-117.75c55.43,-18.596 104.072,-48.455 144.623,-89.003c77.102,-77.196 107.887,-175.407 89.191,-284.04c-10.879,-62.868 -38.967,-127.604 -81.193,-189.36l255.206,-255.202c13.3,4.927 27.16,7.72 41.11,7.72c18.787,-0 37.202,-5.024 54.223,-14.044l49.293,49.29l22.226,9.207l22.323,-9.207c12.37,-12.37 12.37,-32.272 0,-44.641l-45.387,-45.294l52.177,-52.27l45.384,45.385l22.23,9.304l22.32,-9.304c12.369,-12.182 12.369,-32.181 -0,-44.55l-45.387,-45.385l52.085,-52.173l45.385,45.384l22.323,9.298l22.32,-9.298c12.37,-12.278 12.37,-32.271 0,-44.55Z" style="fill:#0b0b16;fill-rule:nonzero;"/><path d="M747.893,1735.67c-11.626,11.716 -30.691,11.716 -42.41,-0l-357.884,-357.7l-8.836,-21.298l8.836,-21.299c11.626,-11.626 30.69,-11.626 42.41,0l357.884,357.887c11.719,11.716 11.719,30.688 -0,42.41Zm-313.243,-444.847c-36.271,-36.273 -95.33,-36.273 -131.695,0c-17.577,17.484 -27.25,40.923 -27.25,65.849c-0,24.926 9.673,48.177 27.25,65.752l357.884,357.977c18.137,18.046 41.947,27.254 65.849,27.254c23.81,-0 47.712,-9.208 65.848,-27.254c36.271,-36.364 36.271,-95.423 0,-131.691l-357.886,-357.887Z" style="fill:#0b0b16;fill-rule:nonzero;"/></g></g></svg>