<?xml version="1.0" encoding="UTF-8" standalone="no"?><!DOCTYPE svg PUBLIC "-//W3C//DTD SVG 1.1//EN" "http://www.w3.org/Graphics/SVG/1.1/DTD/svg11.dtd"><svg width="100%" height="100%" viewBox="0 0 2084 2084" version="1.1" xmlns="http://www.w3.org/2000/svg" xmlns:xlink="http://www.w3.org/1999/xlink" xml:space="preserve" xmlns:serif="http://www.serif.com/" style="fill-rule:evenodd;clip-rule:evenodd;stroke-linejoin:round;stroke-miterlimit:2;"><rect id="画板1" x="0" y="0" width="2083.33" height="2083.33" style="fill:none;"/><clipPath id="_clip1"><rect id="画板11" serif:id="画板1" x="0" y="0" width="2083.33" height="2083.33"/></clipPath><g clip-path="url(#_clip1)"><g><path d="M1159.3,1806.65c-24.925,28.46 -59.339,45.294 -97.099,47.806c-78.405,5.302 -145.184,-54.13 -150.206,-131.884c-5.023,-77.847 54.13,-145.277 131.883,-150.299l9.208,-0.281c73.848,0 136.163,57.574 140.999,132.165c2.511,37.759 -9.952,74.033 -34.785,102.493Zm-417.694,-558.785l161.553,326.827c-24.461,26.413 -41.947,59.338 -49.851,95.425c-70.499,-105.007 -132.35,-201.92 -187.317,-292.23c27.159,-45.295 51.991,-88.262 75.615,-130.022Zm-546.23,606.591c-37.668,-2.512 -72.173,-19.346 -97.098,-47.806c-24.927,-28.46 -37.296,-64.734 -34.878,-102.493c4.835,-74.591 67.243,-132.165 140.998,-132.165l9.301,0.281c77.754,5.022 136.906,72.452 131.884,150.299c-5.023,77.754 -72.545,137.277 -150.207,131.884Zm84.357,-1540.85l313.806,634.773l-80.172,162.297c-259.582,-489.308 -256.7,-711.224 -233.634,-797.07Zm697.924,0.281c30.6,114.584 26.321,464.753 -573.479,1356.23c-7.814,-36.087 -25.298,-69.012 -49.759,-95.425l623.238,-1260.8Zm62.222,1195.42c-31.25,2.046 -60.268,11.254 -85.938,25.482l-174.945,-353.89c411.554,-754.379 244.421,-939.465 219.216,-961.414c-7.44,-6.511 -17.299,-9.113 -26.972,-7.348c-9.58,2.046 -17.764,8.279 -22.043,17.022l-320.408,648.071l-320.41,-648.071c-4.277,-8.743 -12.462,-14.976 -22.135,-17.022c-9.487,-1.765 -19.438,0.837 -26.879,7.348c-25.204,21.949 -191.408,207.591 219.403,961.135l-175.132,354.169c-25.67,-14.228 -54.687,-23.436 -85.845,-25.482c-111.98,-7.162 -210.102,78.31 -217.357,190.85c-7.255,112.444 78.312,209.916 190.851,217.264l13.392,0.372c74.87,-0 141.557,-41.111 177.085,-102.958l0.186,-0.094c94.867,-136.814 176.062,-261.63 246.933,-376.399c70.686,114.862 151.788,239.401 246.747,376.399l0.094,0.094c35.621,61.847 102.215,102.958 177.272,102.958l13.299,-0.372c112.539,-7.348 198.199,-104.82 190.85,-217.264c-7.347,-112.447 -104.447,-197.827 -217.264,-190.85Z" style="fill:#0b0b16;fill-rule:nonzero;"/><path d="M626.459,1203.5c17.578,-0 31.808,-14.229 31.808,-31.713c0,-17.581 -14.23,-31.81 -31.808,-31.81c-17.579,0 -31.715,14.229 -31.715,31.81c-0,17.484 14.136,31.713 31.715,31.713Z" style="fill:#0b0b16;fill-rule:nonzero;"/><path d="M2001.19,642.206c-28.553,200.802 -76.451,536.927 -35.436,1167.51c1.302,20.555 -24.089,46.319 -51.34,52.084c-21.949,4.652 -36.086,-4.462 -44.736,-28.367c-20.182,-55.245 -23.438,-197.361 -8.836,-389.883c2.976,-38.971 -10.603,-77.848 -37.202,-106.495c-26.6,-28.738 -64.455,-45.201 -103.703,-45.201l-361.797,0c-52.735,0 -97.192,-35.527 -111.051,-83.893l592.92,0c17.485,0 31.623,-14.135 31.623,-31.528l0,-786.188c0,-17.484 -14.138,-31.622 -31.623,-31.622l-601.476,0c-1.488,-14.231 -1.767,-26.973 -0.651,-33.109c30.692,-29.951 251.398,-102.496 454.711,-105.005c127.977,-1.209 220.52,25.017 265.069,76.729c79.522,92.448 69.663,161.181 43.528,344.964Zm4.185,-386.165c-59.431,-69.29 -174.202,-103.146 -332.5,-98.216c-192.803,6.046 -443.178,73.477 -486.797,131.325c-13.952,18.137 -15.905,54.224 -5.954,106.867l1.395,3.533l1.769,4.649l3.813,5.674l2.882,3.443l6.14,4.184l3.44,1.953l11.533,2.234l597.291,-0l-0,94.122l-597.291,-0c-17.392,-0 -31.436,14.138 -31.436,31.622c0,17.393 14.044,31.622 31.436,31.622l597.291,-0l-0,94.122l-597.291,0c-17.392,0 -31.436,14.045 -31.436,31.438c0,17.484 14.044,31.622 31.436,31.622l597.291,-0l-0,94.122l-597.291,0c-17.392,0 -31.436,14.138 -31.436,31.622c0,17.394 14.044,31.532 31.436,31.532l597.291,-0l-0,94.028l-597.291,0c-17.392,0 -31.436,14.138 -31.436,31.531c0,17.485 14.044,31.622 31.436,31.622l597.291,0l-0,94.123l-597.291,-0c-17.392,-0 -31.436,14.044 -31.436,31.622c0,98.403 80.079,178.574 178.48,178.574l361.797,0c22.042,0 42.504,8.836 57.385,24.924c14.882,16.091 22.229,37.018 20.554,58.782c-10.974,144.438 -17.578,333.895 12.557,416.391c16.555,45.201 51.246,70.871 93.565,70.871l23.437,-2.418c51.898,-10.883 105.005,-60.92 101.285,-117.931c-40.551,-624.172 6.79,-956.205 34.97,-1154.59c27.437,-192.803 39.994,-280.789 -58.315,-395.001Z" style="fill:#0b0b16;fill-rule:nonzero;"/></g></g></svg>