<?xml version="1.0" encoding="UTF-8" standalone="no"?><!DOCTYPE svg PUBLIC "-//W3C//DTD SVG 1.1//EN" "http://www.w3.org/Graphics/SVG/1.1/DTD/svg11.dtd"><svg width="100%" height="100%" viewBox="0 0 2084 2084" version="1.1" xmlns="http://www.w3.org/2000/svg" xmlns:xlink="http://www.w3.org/1999/xlink" xml:space="preserve" xmlns:serif="http://www.serif.com/" style="fill-rule:evenodd;clip-rule:evenodd;stroke-linejoin:round;stroke-miterlimit:2;"><rect id="画板1" x="0" y="0" width="2083.33" height="2083.33" style="fill:none;"/><clipPath id="_clip1"><rect id="画板11" serif:id="画板1" x="0" y="0" width="2083.33" height="2083.33"/></clipPath><g clip-path="url(#_clip1)"><g><path d="M1337.57,1616.18l-46.687,-83.61l10.973,-3.253c8.463,-2.327 16.927,-4.933 25.391,-7.629c11.253,-3.44 22.414,-7.164 33.483,-11.069c8.464,-3.066 16.834,-6.228 25.204,-9.577c10.882,-4.371 21.67,-8.929 32.552,-13.674l24.366,-11.251c10.789,-5.211 21.205,-10.604 31.715,-16.275l23.53,-12.744c10.416,-6.045 20.739,-12.369 30.971,-18.88l22.226,-13.947c10.511,-6.977 20.555,-14.419 30.693,-21.673l20.274,-14.879c10.789,-8.185 21.392,-17.114 31.902,-25.953l16.647,-13.669c14.694,-13.022 29.109,-26.504 43.062,-40.269l5.393,-5.399c13.766,-13.947 27.066,-28.178 39.991,-42.875l14.325,-17.296c8.555,-10.229 17.206,-20.555 25.388,-31.062l15.253,-21.111c7.161,-9.861 14.325,-19.721 21.114,-29.859l14.6,-23.064c6.233,-9.86 12.369,-19.902 18.231,-30.04l13.3,-24.37c5.486,-10.132 10.694,-20.367 15.715,-30.783c3.999,-8.368 7.908,-16.831 11.626,-25.204c4.745,-10.598 9.116,-21.111 13.3,-31.619c3.443,-8.742 6.789,-17.393 9.86,-26.044c3.906,-10.785 7.439,-21.667 10.879,-32.549c2.699,-8.742 5.396,-17.484 7.814,-26.226l3.255,-10.7l83.517,46.599c-51.802,329.887 -350.067,628.15 -679.863,679.954Zm-35.249,-715.206l233.63,-233.533l340.209,190.011l-4.652,19.062l-6.973,24.926c-3.162,10.229 -6.605,20.277 -10.232,30.318l-8.836,24.279c-3.999,10.133 -8.37,20.084 -12.834,30.04l-10.417,23.251c-4.833,10.133 -10.135,19.993 -15.437,29.944l-11.904,22.042c-5.767,10.048 -11.906,19.902 -18.23,29.762l-12.741,20.368c-6.883,10.325 -14.231,20.367 -21.577,30.415l-12.928,17.858c-8.648,11.251 -17.856,22.133 -27.063,33.015l-10.697,13.022c-26.32,29.944 -54.595,58.219 -84.635,84.541l-13.391,11.16c-10.788,9.111 -21.486,18.04 -32.646,26.6l-17.855,13.017c-10.045,7.351 -19.996,14.696 -30.412,21.576l-20.277,12.835c-9.857,6.142 -19.718,12.369 -29.853,18.136l-22.136,11.813c-9.86,5.393 -19.717,10.695 -29.668,15.44l-23.439,10.604c-9.951,4.371 -19.902,8.742 -29.946,12.738l-24.367,8.839c-10.045,3.531 -20.089,7.067 -30.228,10.132l-25.016,7.073l-19.068,4.553l-190.008,-340.207l233.627,-233.63Zm-609.457,401.225c-56.828,56.078 -110.397,116.902 -158.946,180.519l-142.019,186.01c-50.686,66.313 -140.9,85.846 -214.281,46.224l-93.748,-50.505l718.18,-718.083l124.813,124.81l-233.999,231.025Zm555.981,-910.979l236.976,236.974l-456.375,456.281l-236.976,-236.979l456.375,-456.276Zm140.994,-32.645c14.881,-15.066 41.482,-15.066 56.547,-0l72.172,72.075c7.439,7.532 11.532,17.489 11.532,28.275c-0,10.694 -4.093,20.742 -11.532,28.087l-42.503,42.041l-128.441,-128.347l42.225,-42.131Zm677.261,533.101l-139.045,-77.661l-378.435,-211.303l-28.922,-28.928l42.409,-41.848c19.437,-19.442 30.134,-45.389 30.134,-73.011c0,-27.532 -10.697,-53.479 -30.134,-72.916l-72.078,-72.08c-38.876,-38.873 -107.048,-38.873 -145.833,-0l-42.222,42.131l-31.809,-31.806c-12.369,-12.369 -32.365,-12.369 -44.643,0l-501.015,501.018c-12.275,12.369 -12.275,32.362 0,44.55l31.809,31.805l-748.13,748.22c-6.976,6.977 -10.323,17.019 -8.835,26.879c1.396,9.951 7.442,18.511 16.184,23.16l131.227,70.685c34.971,18.88 72.915,27.991 110.304,27.991c70.125,-0 138.579,-32.084 184.056,-91.609l141.925,-185.918c46.875,-61.29 98.401,-119.786 153.086,-173.918l234.373,-231.206l32.549,32.55l211.213,378.251l77.661,139.041c5.674,10.138 16.275,16.275 27.622,16.275l3.906,-0.278c371.924,-46.412 712.228,-386.619 758.639,-758.546c1.581,-12.835 -4.743,-25.204 -15.996,-31.528Z" style="fill:#0b0b16;fill-rule:nonzero;"/></g></g></svg>