<?xml version="1.0" encoding="UTF-8" standalone="no"?><!DOCTYPE svg PUBLIC "-//W3C//DTD SVG 1.1//EN" "http://www.w3.org/Graphics/SVG/1.1/DTD/svg11.dtd"><svg width="100%" height="100%" viewBox="0 0 2084 2084" version="1.1" xmlns="http://www.w3.org/2000/svg" xmlns:xlink="http://www.w3.org/1999/xlink" xml:space="preserve" xmlns:serif="http://www.serif.com/" style="fill-rule:evenodd;clip-rule:evenodd;stroke-linejoin:round;stroke-miterlimit:2;"><rect id="画板1" x="0" y="0" width="2083.33" height="2083.33" style="fill:none;"/><g id="画板11" serif:id="画板1"><g><path d="M1701.91,1861.84l-449.776,-0l-0,-197.359l449.776,-0l0,197.359Zm-769.438,-312.595c-122.49,-245.162 -345.985,-420.848 -613.002,-482.326l-256.323,-58.963l0,-479.817l96.356,0l118.675,321.797c4.553,12.369 16.366,20.742 29.575,20.742l968.189,0l306.174,429.312c5.955,8.464 15.532,13.21 25.67,13.21l397.506,-0c9.395,41.201 14.975,83.701 14.975,127.786l-0,47.156c-0,62.312 -50.778,113.192 -113.187,113.192l-948.382,-0l-26.226,-52.089Zm-109.094,-796.59c0,-30.228 24.552,-54.876 54.78,-54.876l344.026,0c30.228,0 54.967,24.648 54.967,54.876l-0,54.871l-453.773,-0l0,-54.871Zm1163.32,497.579l-362.634,0l-270.554,-379.556l96.543,0c247.393,0 457.961,158.758 536.645,379.556Zm-1691.78,-933.873c39.714,-40.082 319.566,-94.68 755.298,-94.68c435.733,-0 715.59,54.598 755.207,94.68c-38.691,39.158 -306.265,91.893 -723.582,94.403l-0,-125.931c-0,-17.484 -14.141,-31.624 -31.625,-31.624c-17.393,-0 -31.528,14.14 -31.528,31.624l0,125.931c-417.408,-2.51 -685.083,-55.245 -723.77,-94.403Zm1612.16,1348.12c97.19,-0 176.248,-79.15 176.248,-176.339l0,-47.156c0,-58.776 -8.651,-115.417 -23.535,-169.266l-0.744,-2.514c-75.056,-265.996 -319.378,-461.68 -608.999,-461.68l-109.843,-0l-0,-54.871c-0,-65.105 -52.918,-117.932 -118.023,-117.932l-140.343,0l-0,-160.716c163.873,-1.487 789.062,-16.275 789.062,-157.646c0,-153.365 -736.701,-157.924 -820.687,-157.924c-83.985,0 -820.681,4.559 -820.681,157.924c0,141.371 625.184,156.159 789.153,157.646l0,160.716l-140.53,0c-65.015,0 -117.932,52.827 -117.932,117.932l-0,54.871l-430.43,-0l-118.676,-321.893c-4.558,-12.37 -16.371,-20.743 -29.575,-20.743l-149.926,0c-17.489,0 -31.624,14.231 -31.624,31.625l0,536.645c0,14.691 10.138,27.526 24.551,30.688l280.789,64.549c248.602,57.198 456.656,220.889 570.683,449.033l34.877,69.476c5.302,10.785 16.275,17.575 28.179,17.575l249.907,-0l0,197.359l-233.445,-0c-17.484,-0 -31.528,13.953 -31.528,31.528c-0,17.393 14.044,31.528 31.528,31.528l964.005,-0c90.309,-0 163.787,-73.473 163.787,-163.782c0,-17.393 -14.14,-31.528 -31.533,-31.528c-17.484,-0 -31.528,14.135 -31.528,31.528c-0,55.523 -45.198,100.726 -100.726,100.726l-154.478,-0l-0,-197.359l142.017,-0Z" style="fill:#0b0b16;fill-rule:nonzero;"/><path d="M1137.37,1409.64c-95.799,0 -173.642,-77.94 -173.642,-173.733c-0,-95.611 77.843,-173.551 173.642,-173.551c95.702,-0 173.546,77.94 173.546,173.551c-0,95.793 -77.844,173.733 -173.546,173.733Zm236.698,-173.733c0,-130.397 -106.209,-236.704 -236.698,-236.704c-130.58,0 -236.795,106.307 -236.795,236.704c0,130.671 106.215,236.789 236.795,236.789c130.489,0 236.698,-106.118 236.698,-236.789Z" style="fill:#0b0b16;fill-rule:nonzero;"/><path d="M1231.67,1204.48l-62.778,0l-0,-62.874c-0,-17.388 -14.135,-31.528 -31.528,-31.528c-17.484,-0 -31.625,14.14 -31.625,31.528l0,62.874l-62.868,0c-17.484,0 -31.528,14.044 -31.528,31.437c-0,17.575 14.044,31.619 31.528,31.619l62.868,0l0,62.874c0,17.484 14.141,31.528 31.625,31.528c17.393,0 31.528,-14.044 31.528,-31.528l-0,-62.874l62.778,0c17.484,0 31.528,-14.044 31.528,-31.619c-0,-17.393 -14.044,-31.437 -31.528,-31.437Z" style="fill:#0b0b16;fill-rule:nonzero;"/></g></g></svg>