<?xml version="1.0" encoding="UTF-8" standalone="no"?><!DOCTYPE svg PUBLIC "-//W3C//DTD SVG 1.1//EN" "http://www.w3.org/Graphics/SVG/1.1/DTD/svg11.dtd"><svg width="100%" height="100%" viewBox="0 0 2084 2084" version="1.1" xmlns="http://www.w3.org/2000/svg" xmlns:xlink="http://www.w3.org/1999/xlink" xml:space="preserve" xmlns:serif="http://www.serif.com/" style="fill-rule:evenodd;clip-rule:evenodd;stroke-linejoin:round;stroke-miterlimit:2;"><rect id="画板1" x="0" y="0" width="2083.33" height="2083.33" style="fill:none;"/><g id="画板11" serif:id="画板1"><g><path d="M1903.64,1312.47c-109.379,120.818 -204.994,225.548 -373.435,125.47c158.954,-139.052 332.698,-179.046 433.893,-189.928c-20.556,20.743 -40.739,42.693 -60.458,64.458Zm-301.166,-123.799c101.009,-57.666 251.499,-55.06 357.345,-2.324c-107.521,12.557 -290.471,55.341 -458.819,195.693c-8.65,-105.102 47.9,-162.861 101.474,-193.369Zm-266.566,669.58c-33.578,9.115 -68.177,6.605 -99.987,-5.952c2.698,-10.323 5.116,-21.021 6.511,-31.995c2.976,-23.252 2.697,-46.411 -0.558,-69.107l211.318,-57.388c4.93,74.222 -42.877,144.352 -117.284,164.442Zm-527.461,-126.12c11.44,-37.669 34.135,-71.061 65.944,-95.522c33.763,-26.043 74.129,-39.622 115.891,-39.622l25.019,1.581c50.505,6.602 95.429,32.367 126.494,72.732c24.554,31.904 37.949,69.851 39.344,109.289l-372.692,-48.458Zm157.745,244.617c-93.568,-12.186 -162.302,-90.686 -165.744,-181.93l372.505,48.367c-26.601,87.43 -113.193,145.745 -206.761,133.563Zm-837.463,-84.174l0,-282.752l473.607,0c17.393,0 31.531,-14.232 31.531,-31.532l0,-505.322c0,-17.301 -14.138,-31.53 -31.531,-31.53l-473.607,0l0,-206.298l733.106,0l0,734.129c-8.93,5.303 -17.672,10.977 -25.95,17.394c-53.667,41.297 -88.081,101.1 -96.824,168.349c-6.324,48.642 1.953,95.8 20.928,137.562l-631.26,-0Zm179.695,-536.017l-179.695,-0l0,-108.358l277.728,0c17.486,0 31.531,-14.045 31.531,-31.532c-0,-17.485 -14.045,-31.623 -31.531,-31.623l-277.728,-0l0,-80.453l441.984,-0l0,442.076l-441.984,-0l0,-126.864l179.695,-0c17.486,-0 31.531,-14.232 31.531,-31.623c-0,-17.488 -14.045,-31.623 -31.531,-31.623Zm-245.267,-584.663l-0,-182.114l864.249,-0l0,182.114l-864.249,0Zm1105.24,52.551c37.484,157.931 33.392,323.861 -11.068,496.114c-98.962,-43.155 -174.114,-95.984 -232.338,-155.978l0,-329.441l34.042,0c17.392,0 31.437,-14.229 31.437,-31.623l-0,-245.36c-0,-17.485 -14.045,-31.53 -31.437,-31.53l-247.965,0c-1.117,-12.557 -2.233,-24.927 -3.256,-37.391c-9.766,-116.262 -19.997,-235.502 -46.785,-346.928c131.889,87.71 420.314,316.049 507.37,682.137Zm249.732,-133.191c50.505,152.538 54.412,373.062 -185.926,588.009c33.949,-162.024 33.298,-318.746 -2.512,-469.328c-83.895,-353.437 -337.254,-581.219 -488.767,-689.949c288.144,60.922 589.126,305.351 677.205,571.268Zm-341.997,857.459c-16.834,-5.952 -34.506,-10.323 -52.644,-12.648c-33.39,-4.371 -66.782,-2.14 -98.497,6.418l0,-291.587c57.572,49.388 127.702,93.847 214.853,130.957c-17.114,54.969 -38.506,110.682 -63.712,166.86Zm176.068,1.675c13.952,-3.721 28.089,-5.674 42.04,-5.674c27.439,0 54.597,7.255 79.059,21.206c27.717,15.907 49.481,39.066 63.34,67.061l-211.598,57.388c-8.464,-20.278 -19.439,-39.622 -33.297,-57.575c-6.976,-9.114 -14.696,-17.485 -22.789,-25.484c20.37,-26.602 48.46,-47.436 83.245,-56.922Zm831.138,-335.58l-1.767,-12.649l-1.302,-2.14l-5.581,-8.742l-0.465,-0.744c-117.007,-116.356 -352.042,-142.771 -503.092,-56.644c-107.984,61.665 -153.28,170.207 -126.214,299.587c-20.648,20.553 -40.553,43.527 -60.178,67.711c-45.296,-20.278 -97.475,-25.671 -149.095,-11.72c-32.182,8.648 -60.549,24.274 -84.545,44.458c21.298,-50.876 39.714,-101.38 54.596,-151.326c261.73,-198.393 358.647,-450.543 272.426,-711.157c-110.868,-334.744 -515.183,-628.19 -866.481,-629.49l-0.186,-0l-2.14,-0.094l-0.372,-0l-8.65,1.303l-1.86,0.743l-8.929,4.744l-0.744,0.559l-5.488,5.671l-1.581,2.884l-0.651,0.931l-0.279,1.022l-2.976,10.417l-0.093,1.862l1.116,10.045l0.186,1.022l0.093,0.278c41.762,125.38 53.388,264.151 65.852,411.106c0.835,10.789 1.766,21.484 2.696,32.182l-616.098,0c-17.486,0 -31.531,14.045 -31.531,31.53l0,245.36c0,17.394 14.045,31.623 31.531,31.623l34.041,0l0,1088.96c0,17.391 14.045,31.53 31.531,31.53l703.9,-0c39.25,44.367 93.847,75.525 157.001,83.708c11.069,1.397 22.044,2.14 32.926,2.14c93.382,0 177.742,-51.713 221.735,-130.863c25.579,10.323 53.017,16.46 81.478,16.46c19.159,-0 38.784,-2.603 58.317,-7.811c118.401,-32.183 188.531,-154.769 156.443,-273.263c-12.277,-45.111 -37.67,-83.152 -70.966,-111.335c14.694,-18.229 29.576,-35.807 44.83,-51.62c64.455,41.484 121.657,58.503 172.999,58.503c125.656,0 216.806,-100.637 294.748,-186.764c40.553,-44.83 78.873,-87.151 119.704,-116.262l7.255,-7.999l2.047,-2.79l2.696,-8.652l1.117,-3.627l0,-0.65Z" style="fill:#0b0b16;fill-rule:nonzero;"/></g></g></svg>