<?xml version="1.0" encoding="UTF-8" standalone="no"?><!DOCTYPE svg PUBLIC "-//W3C//DTD SVG 1.1//EN" "http://www.w3.org/Graphics/SVG/1.1/DTD/svg11.dtd"><svg width="100%" height="100%" viewBox="0 0 2084 2084" version="1.1" xmlns="http://www.w3.org/2000/svg" xmlns:xlink="http://www.w3.org/1999/xlink" xml:space="preserve" xmlns:serif="http://www.serif.com/" style="fill-rule:evenodd;clip-rule:evenodd;stroke-linejoin:round;stroke-miterlimit:2;"><rect id="画板1" x="0" y="0" width="2083.33" height="2083.33" style="fill:none;"/><g id="画板11" serif:id="画板1"><g><path d="M414.296,1071.06c-9.673,-39.061 -14.789,-85.564 -14.789,-134.207c-0,-48.734 5.116,-95.237 14.789,-134.394c4.091,-16.928 -6.232,-34.037 -23.159,-38.227c-16.834,-3.996 -34.04,6.233 -38.133,23.161c-10.881,44.085 -16.555,95.702 -16.555,149.46c0,53.667 5.674,105.375 16.555,149.369c3.441,14.413 16.462,23.995 30.6,23.995l7.533,-0.84c16.927,-4.275 27.25,-21.299 23.159,-38.317Z" style="fill:#0b0b16;fill-rule:nonzero;"/><path d="M548.317,1110.21l7.533,-0.931c16.927,-4.184 27.252,-21.208 23.159,-38.226c-9.673,-39.061 -14.788,-85.564 -14.788,-134.207c0,-48.921 5.115,-95.237 14.788,-134.394c4.093,-16.832 -6.232,-34.037 -23.159,-38.227c-16.834,-4.093 -33.947,6.233 -38.132,23.161c-10.882,43.994 -16.648,95.702 -16.648,149.46c0,53.757 5.766,105.466 16.648,149.369c3.534,14.413 16.369,23.995 30.599,23.995Z" style="fill:#0b0b16;fill-rule:nonzero;"/><path d="M1752,1810.45c-86.961,0 -195.407,-191.126 -239.582,-556.826c9.857,-1.396 19.53,-3.258 29.016,-5.676l0.559,-0.091c9.579,-2.231 18.88,-4.928 28.088,-8.186l9.392,-3.627l18.137,-7.346l10.603,-5.114l15.532,-8.095l10.788,-6.506l13.857,-8.929l10.51,-7.72l12.65,-9.951l9.858,-8.652l11.532,-10.973l9.023,-9.582l10.417,-11.813l8.276,-10.416l9.208,-12.835l7.348,-11.064l8.092,-13.862l6.23,-11.626l6.977,-14.691l5.114,-12l5.674,-15.997l3.906,-11.904l4.371,-17.484l2.696,-11.722l2.977,-19.993l1.303,-10.048c1.022,-10.229 1.581,-20.549 1.581,-30.875c0,-10.604 -0.559,-20.743 -1.581,-30.881l-1.303,-10.229l-2.977,-19.903l-2.696,-11.813l-4.371,-17.296l-3.906,-12.182l-5.674,-15.815l-5.208,-11.995l-6.789,-14.697l-6.324,-11.717l-8.092,-13.675l-7.348,-11.16l-9.208,-12.738l-8.276,-10.417l-10.323,-11.813l-9.208,-9.769l-11.347,-10.786l-10.045,-8.742l-12.557,-9.86l-10.51,-7.811l-13.763,-8.839l-10.976,-6.692l-15.347,-7.908l-10.694,-5.302l-18.137,-7.255l-9.392,-3.718c-9.208,-3.071 -18.509,-5.858 -28.088,-8.186l-0.559,-0.187c-9.486,-2.231 -19.159,-4.093 -29.016,-5.484c44.175,-365.796 152.621,-556.922 239.582,-556.922c122.115,-0 258.09,358.91 258.09,873.792c0,514.785 -135.975,873.604 -258.09,873.604Zm-224.517,-1123.23l19.812,5.768l3.162,0.84l22.042,8.833l6.696,3.44l14.137,7.254l7.905,4.933l11.904,7.624l7.814,5.858l10.51,8.373l7.626,6.693l9.486,9.026l7.068,7.533l8.557,9.673l6.417,8.276l7.533,10.326l5.768,8.742l6.511,11.16l5.021,9.208l5.486,11.994l3.999,9.395l4.559,12.926l3.162,9.582l3.533,13.857l2.14,9.395l2.325,15.996l1.116,8.09l1.209,24.835l-1.209,24.738l-1.116,7.999l-2.325,15.997l-2.14,9.394l-3.533,13.954l-3.069,9.576l-4.652,12.835l-3.999,9.486l-5.58,12.091l-4.927,9.02l-6.605,11.347l-5.674,8.561l-7.626,10.598l-6.324,8.095l-8.557,9.764l-6.974,7.442l-9.673,9.111l-7.442,6.698l-10.601,8.373l-7.814,5.762l-11.998,7.629l-7.811,4.928l-14.231,7.351l-6.602,3.253l-22.042,8.838l-3.071,0.925l-19.903,5.768l-8.464,1.771l-13.391,2.418c-7.814,-82.22 -11.719,-167.506 -11.719,-253.722c-0,-86.404 3.905,-171.599 11.719,-253.904l13.298,2.509l8.557,1.765Zm-689.73,632.161l-4.836,-0.369c-34.134,-0 -100.726,-134.86 -100.726,-382.162c-0,-247.302 66.592,-382.349 100.726,-382.349l4.836,-0.279c295.665,-46.315 553.199,-213.168 701.822,-328.96c-42.692,108.168 -75.429,250.93 -93.472,419.735c-10.229,94.124 -15.347,192.245 -15.347,291.853c0,99.517 5.118,197.728 15.347,291.761c18.043,168.71 50.78,311.568 93.472,419.736c-148.623,-115.701 -406.157,-282.742 -701.822,-328.966Zm-207.776,62.874l0,538.598c0,54.78 -44.643,99.33 -99.423,99.33c-54.874,-0 -99.423,-44.55 -99.423,-99.33l-0,-538.598l198.846,-0Zm134.023,246.093c17.484,0 31.621,14.231 31.621,31.625l0,63.334c0,17.296 -14.137,31.528 -31.621,31.528l-70.964,-0l0,-126.487l70.964,0Zm-503.35,-453.869c-16.462,-69.289 -25.11,-151.503 -25.11,-237.629c-0,-21.577 0.558,-42.876 1.673,-63.8c3.162,-62.783 11.068,-121.934 23.437,-174.017l0,-0.091c24.741,-105.193 59.618,-144.441 75.8,-144.441l408.204,-0c-49.852,82.123 -75.707,232.702 -75.707,382.349c0,149.46 25.855,300.129 75.707,382.162l-408.204,-0c-16.182,-0 -51.059,-39.249 -75.8,-144.533Zm-187.406,-237.629c-0,-81.846 45.108,-155.597 114.396,-194.198l-0.092,0.375c-2.976,17.762 -5.394,36.268 -7.533,55.148l-1.674,16.928c-1.303,14.322 -2.419,28.832 -3.348,43.529l-1.023,17.484c-0.931,19.998 -1.581,40.179 -1.581,60.734c-0,20.367 0.65,40.548 1.581,60.637l1.023,17.581c0.929,14.6 2.045,29.11 3.348,43.341l1.674,17.019c2.139,18.88 4.557,37.386 7.533,55.341l0.092,0.091c-69.288,-38.505 -114.396,-112.255 -114.396,-194.01Zm1678.76,-936.848c-41.667,0 -81.381,21.952 -117.654,61.665l-4.743,3.162c-3.627,3.627 -364.675,357.605 -799.104,426.616l-494.049,-0c-56.175,-0 -102.771,62.499 -132.533,175.407c-114.955,38.97 -193.824,147.32 -193.824,269.998c-0,122.581 78.869,230.84 193.917,269.901c29.669,112.913 76.265,175.504 132.44,175.504l31.53,-0l-0,538.598c-0,89.56 72.916,162.482 162.574,162.482c89.565,0 162.482,-72.922 162.482,-162.482l0,-102.957l70.964,0c52.267,0 94.771,-42.415 94.771,-94.589l0,-63.334c0,-52.18 -42.504,-94.59 -94.771,-94.59l-70.964,-0l0,-183.128l137.463,-0c433.87,68.823 795.477,422.988 799.104,426.525l4.836,3.252c36.274,39.714 75.894,61.575 117.561,61.575c208.704,-0 321.243,-482.61 321.243,-936.757c-0,-454.147 -112.539,-936.848 -321.243,-936.848Z" style="fill:#0b0b16;fill-rule:nonzero;"/></g></g></svg>