<?xml version="1.0" encoding="UTF-8" standalone="no"?><!DOCTYPE svg PUBLIC "-//W3C//DTD SVG 1.1//EN" "http://www.w3.org/Graphics/SVG/1.1/DTD/svg11.dtd"><svg width="100%" height="100%" viewBox="0 0 2084 2084" version="1.1" xmlns="http://www.w3.org/2000/svg" xmlns:xlink="http://www.w3.org/1999/xlink" xml:space="preserve" xmlns:serif="http://www.serif.com/" style="fill-rule:evenodd;clip-rule:evenodd;stroke-linejoin:round;stroke-miterlimit:2;"><rect id="画板1" x="0" y="0" width="2083.33" height="2083.33" style="fill:none;"/><clipPath id="_clip1"><rect id="画板11" serif:id="画板1" x="0" y="0" width="2083.33" height="2083.33"/></clipPath><g clip-path="url(#_clip1)"><g><path d="M1900.85,1047.11l0,-323.568c68.08,15.997 119.329,82.403 119.329,161.737c-0,79.427 -51.249,145.834 -119.329,161.831Zm-63.146,579.24c-0,43.992 -35.718,79.705 -79.706,79.705c-43.903,0 -79.615,-35.713 -79.615,-79.705l0,-1482.05c0,-43.993 35.712,-79.706 79.615,-79.706c43.988,0 79.706,35.713 79.706,79.706l-0,1482.05Zm-966.054,-1155.32l743.581,-266.834l0,1362.26l-743.581,-266.834l-0,-828.589Zm-252.417,1547.71l-49.109,0c-82.68,0 -149.925,-67.337 -149.925,-149.926l-0,-515.438l277.808,-0c-162.107,191.964 -104.54,545.944 -78.774,665.364Zm90.213,-472.655c19.72,-0 35.904,16.182 35.904,35.899l0,125.372c0,19.81 -16.184,35.993 -35.904,35.993l-58.032,-0c-0.744,-65.382 4.461,-133.835 20.555,-197.264l37.477,-0Zm-464.842,-336.775l-0,-648.158c-0,-44.457 36.273,-80.821 80.914,-80.821l482.979,-0l0,809.894l-482.979,-0c-44.641,-0 -80.914,-36.366 -80.914,-80.915Zm-181.55,-256.045l-0,-135.976c-0,-71.799 50.783,-132.068 118.397,-146.576l0,429.035c-67.614,-14.508 -118.397,-74.683 -118.397,-146.483Zm2020.28,-67.988c0,-114.583 -79.427,-209.449 -182.481,-225.818l0,-515.159c0,-78.87 -64.077,-142.857 -142.852,-142.857c-76.174,0 -138.021,60.174 -142.023,135.416l-781.433,280.321l-509.024,-0c-79.518,-0 -144.067,64.638 -144.067,143.972l0,45.665c-102.582,15.347 -181.453,103.888 -181.453,210.472l0,135.976c0,106.678 78.871,195.127 181.453,210.472l0,45.573c0,79.334 64.549,144.066 144.067,144.066l31.438,-0l-0,515.438c-0,117.374 95.702,213.076 213.168,213.076l88.913,0c9.861,0 19.068,-4.557 25.017,-12.369c6.046,-7.719 7.999,-17.858 5.49,-27.343c-0.557,-2.233 -27.345,-106.12 -35.809,-235.678l55.711,-0c54.598,-0 99.051,-44.457 99.051,-99.144l0,-125.372c0,-54.594 -44.453,-99.05 -99.051,-99.05l-16.831,-0c21.02,-51.34 51.804,-96.355 95.236,-129.558l46.691,-0l781.433,280.412c4.002,75.243 65.849,135.324 142.023,135.324c78.775,0 142.852,-64.08 142.852,-142.764l0,-515.16c103.054,-16.462 182.481,-111.327 182.481,-225.911Z" style="fill:#0b0b16;fill-rule:nonzero;"/><path d="M367.652,916.806l317.801,0c17.393,0 31.624,-14.136 31.624,-31.529c0,-17.484 -14.231,-31.436 -31.624,-31.436l-317.801,0c-17.484,0 -31.618,13.952 -31.618,31.436c-0,17.393 14.134,31.529 31.618,31.529Z" style="fill:#0b0b16;fill-rule:nonzero;"/><path d="M717.077,1074.73c0,-17.485 -14.231,-31.621 -31.624,-31.621l-317.801,-0c-17.484,-0 -31.618,14.136 -31.618,31.621c-0,17.392 14.134,31.53 31.618,31.53l317.801,-0c17.393,-0 31.624,-14.138 31.624,-31.53Z" style="fill:#0b0b16;fill-rule:nonzero;"/><path d="M367.652,727.353l317.801,0c17.393,0 31.624,-14.044 31.624,-31.529c0,-17.392 -14.231,-31.528 -31.624,-31.528l-317.801,-0c-17.484,-0 -31.618,14.136 -31.618,31.528c-0,17.485 14.134,31.529 31.618,31.529Z" style="fill:#0b0b16;fill-rule:nonzero;"/></g></g></svg>