<?xml version="1.0" encoding="UTF-8" standalone="no"?><!DOCTYPE svg PUBLIC "-//W3C//DTD SVG 1.1//EN" "http://www.w3.org/Graphics/SVG/1.1/DTD/svg11.dtd"><svg width="100%" height="100%" viewBox="0 0 2084 2084" version="1.1" xmlns="http://www.w3.org/2000/svg" xmlns:xlink="http://www.w3.org/1999/xlink" xml:space="preserve" xmlns:serif="http://www.serif.com/" style="fill-rule:evenodd;clip-rule:evenodd;stroke-linejoin:round;stroke-miterlimit:2;"><rect id="画板1" x="0" y="0" width="2083.33" height="2083.33" style="fill:none;"/><clipPath id="_clip1"><rect id="画板11" serif:id="画板1" x="0" y="0" width="2083.33" height="2083.33"/></clipPath><g clip-path="url(#_clip1)"><g><path d="M2000.09,692.235c-256.509,513.577 -794.356,1051.43 -1307.84,1307.94c-73.012,36.644 -161.459,22.135 -219.775,-36.272l-3.253,-3.348c-42.41,-42.132 -61.943,-100.26 -54.132,-159.226c7.72,-59.43 42.132,-110.676 94.215,-140.81c443.172,-256.044 895.178,-707.958 1151.32,-1151.41c29.944,-51.897 81.192,-86.216 140.717,-94.028c58.872,-7.812 117.001,11.997 159.32,54.129l3.253,3.348c58.315,58.222 72.916,146.484 36.177,219.679Zm-1827.19,1132.62c-30.131,12.741 -64.265,6.51 -86.863,-15.997c-18.324,-18.322 -26.323,-43.434 -21.577,-69.01c4.184,-24.926 19.806,-45.294 42.688,-55.99c622.486,-291.014 1285.71,-954.143 1576.72,-1576.82c10.695,-22.787 31.063,-38.412 55.898,-42.783l14.038,-1.116c20.464,-0 40.088,7.998 54.967,22.972c22.604,22.508 28.74,56.641 15.996,86.775c-27.435,65.196 -59.519,130.858 -94.958,196.52c-51.617,20.926 -95.236,58.314 -123.881,108.259c-251.116,434.521 -693.914,877.228 -1128.25,1128.16c-49.948,28.831 -87.335,72.451 -108.259,123.976c-65.57,35.435 -131.328,67.615 -196.524,95.052Zm53.014,-397.506c6.789,-50.316 35.808,-93.842 79.984,-119.326c385.975,-222.655 779.205,-616.162 1002.32,-1002.13c25.391,-44.177 68.823,-73.195 119.14,-79.891l21.202,-1.395c31.994,-0 62.5,9.858 88.822,27.529c-284.596,499.719 -785.523,1000.74 -1285.25,1285.34c-21.855,-32.18 -31.25,-70.871 -26.226,-110.119Zm1782.55,-999.624l-3.259,-3.255c-51.986,-51.897 -122.115,-77.845 -194.191,-73.474c26.317,-51.246 50.499,-102.492 72.076,-153.366c22.882,-54.129 11.069,-115.327 -29.762,-156.249c-32.55,-32.459 -79.24,-47.247 -124.437,-39.249c-45.39,7.999 -82.686,36.551 -102.31,78.125c-18.137,38.69 -37.573,77.566 -58.685,116.443c-43.715,-27.995 -95.889,-40.365 -148.715,-33.203c-70.129,9.114 -130.398,49.572 -165.831,110.863c-217.63,377.044 -601.93,761.436 -979.067,978.976c-61.2,35.435 -101.566,95.795 -110.864,165.735c-7.068,53.014 5.302,105.097 33.299,149.088c-38.879,20.926 -77.753,40.365 -116.445,58.501c-41.575,19.438 -70.128,56.733 -78.127,102.306c-7.998,45.387 6.699,91.889 39.436,124.441c26.691,26.972 62.686,41.202 99.516,41.202c18.881,-0 38.13,-3.813 56.363,-11.626c50.965,-21.484 102.213,-46.131 153.643,-72.451c-4.558,72.637 21.39,142.763 73.382,194.66l3.44,3.442c48.921,48.921 113.935,74.683 179.875,74.683c38.129,-0 76.821,-8.743 112.629,-26.6c524.553,-262.089 1074.03,-811.659 1336.11,-1336.3c48.921,-97.563 29.672,-215.122 -48.08,-292.689Z" style="fill:#0b0b16;fill-rule:nonzero;"/></g></g></svg>