<?xml version="1.0" encoding="UTF-8" standalone="no"?><!DOCTYPE svg PUBLIC "-//W3C//DTD SVG 1.1//EN" "http://www.w3.org/Graphics/SVG/1.1/DTD/svg11.dtd"><svg width="100%" height="100%" viewBox="0 0 2084 2084" version="1.1" xmlns="http://www.w3.org/2000/svg" xmlns:xlink="http://www.w3.org/1999/xlink" xml:space="preserve" xmlns:serif="http://www.serif.com/" style="fill-rule:evenodd;clip-rule:evenodd;stroke-linejoin:round;stroke-miterlimit:2;"><rect id="画板1" x="0" y="0" width="2083.33" height="2083.33" style="fill:none;"/><clipPath id="_clip1"><rect id="画板11" serif:id="画板1" x="0" y="0" width="2083.33" height="2083.33"/></clipPath><g clip-path="url(#_clip1)"><g><path d="M1544.1,1691.31c-483.636,510.33 -1063.91,311.946 -1299.68,197.268c445.226,-24.089 741.174,-318.364 800.048,-381.98c145.742,-157.182 205.453,-504.659 225.077,-618.871c21.578,-125.557 58.687,-217.264 113.19,-278.928l3.906,3.35l10.137,8.742l20.741,16.647l11.812,8.373l22.043,13.857l11.998,6.883c8.742,4.743 17.764,8.929 26.786,13.019l8.742,4.093c12.091,5.024 24.461,9.395 37.017,13.301l9.673,2.602c9.394,2.79 19.066,5.118 28.739,7.164l14.044,2.509c8.464,1.581 17.021,2.884 25.577,3.815l14.974,1.581c8.743,0.557 17.486,0.931 26.322,1.209l9.765,0.466l4.558,-0.188l19.996,-0.93l16.834,-0.835l20.369,-2.606l16.276,-2.324l21.02,-4.559l15.253,-3.44l23.345,-7.161l12.09,-3.815c11.626,-4.092 23.159,-8.835 34.413,-14.044l8.092,-4.093c8.463,-4.09 16.927,-8.276 25.297,-13.019l11.44,-7.255l18.323,-11.532c77.382,249.258 -100.169,767.958 -368.216,1050.7Zm15.905,-1187.24l17.02,-12.554c23.996,-25.764 98.681,-131.141 67.151,-418.998c22.136,-10.045 65.105,-20.555 111.33,17.672c-83.986,256.698 -0.558,377.33 21.95,403.835l15.16,12.185c33.017,12.929 59.338,30.878 78.125,53.665l15.161,21.299l-4.278,3.44l-11.533,7.72l-16.649,10.323l-12.37,6.789l-17.299,8.558l-12.928,5.58l-18.136,6.883l-13.114,4.371l-19.346,5.302l-12.742,3.162l-21.856,3.906l-10.789,1.768c-10.789,1.303 -21.764,2.325 -32.646,2.79l-6.324,0c-8.929,0.372 -17.764,0.372 -26.507,0l-12.184,-0.931l-20.554,-1.859l-13.301,-2.14l-18.88,-3.44l-13.579,-3.256l-17.765,-4.93l-13.486,-4.465l-17.113,-6.602l-12.742,-5.486l-16.648,-8.373l-11.812,-6.509l-16.555,-10.604l-10.138,-6.789l-18.88,-15.253l-5.767,-4.931l-0.372,-0.371c8.278,-6.046 17.02,-11.811 25.763,-17.113c31.901,-18.881 67.058,-33.947 104.633,-44.644Zm394.909,71.895c-10.138,-21.205 -22.137,-40.273 -35.53,-56.361c-24.089,-29.207 -56.175,-52.458 -95.704,-68.921c-15.904,-20.368 -83.613,-126.394 -1.953,-359.284c3.999,-11.254 1.302,-23.717 -7.068,-32.369c-86.869,-89.936 -183.875,-57.942 -223.218,-28.551c-9.021,6.696 -13.765,17.857 -12.369,29.111c33.296,269.907 -31.251,367.841 -46.318,386.631c-39.156,12.089 -75.894,28.273 -109.562,48.176c-21.857,12.928 -42.598,28.369 -61.571,45.853c-77.103,70.593 -127.606,180.9 -154.392,336.873c-18.787,109.469 -76.08,443.086 -209.08,586.596c-168.064,181.269 -498.332,384.77 -875.476,361.237c-14.695,-0.65 -27.437,7.908 -31.901,21.487c-4.557,13.672 0.651,28.644 12.742,36.552c5.022,3.255 314.922,200.336 702.575,200.336c249.259,0 530.699,-81.568 783.864,-348.589c274.929,-289.997 497.309,-881.524 364.961,-1158.78Z" style="fill:#0b0b16;fill-rule:nonzero;"/><path d="M1748.16,1032.73c-16.741,-4.558 -34.133,5.58 -38.691,22.505c-53.386,200.34 -163.413,405.978 -287.113,536.559c-129.187,136.256 -278.742,222.38 -444.388,255.957c-17.113,3.44 -28.181,20.181 -24.646,37.296c3.069,15.066 16.183,25.389 30.878,25.389l6.418,-0.743c178.573,-36.087 339.29,-128.629 477.591,-274.463c130.582,-137.745 246.375,-353.801 302.459,-563.81c4.464,-16.928 -5.674,-34.225 -22.508,-38.69Z" style="fill:#0b0b16;fill-rule:nonzero;"/></g></g></svg>