<?xml version="1.0" encoding="UTF-8" standalone="no"?><!DOCTYPE svg PUBLIC "-//W3C//DTD SVG 1.1//EN" "http://www.w3.org/Graphics/SVG/1.1/DTD/svg11.dtd"><svg width="100%" height="100%" viewBox="0 0 2084 2084" version="1.1" xmlns="http://www.w3.org/2000/svg" xmlns:xlink="http://www.w3.org/1999/xlink" xml:space="preserve" xmlns:serif="http://www.serif.com/" style="fill-rule:evenodd;clip-rule:evenodd;stroke-linejoin:round;stroke-miterlimit:2;"><rect id="画板1" x="0" y="0" width="2083.33" height="2083.33" style="fill:none;"/><g id="画板11" serif:id="画板1"><g><path d="M1650.57,321.525l-176.888,-112.068l85.096,-134.29l176.981,112.158l-85.189,134.2Zm-156.334,189.442l-132.155,-83.703c65.845,-67.514 100.069,-125.64 110.113,-144.054l105.278,66.68c-12.37,17.018 -50.221,72.822 -83.236,161.077Zm-571.864,322.995c34.411,-77.567 100.349,-179.588 224.226,-246.177c20.274,59.987 60.078,110.949 114.391,145.359c45.012,28.552 96.163,43.339 148.336,43.339c10.603,0 21.298,-0.743 31.993,-2.043c-1.116,20.832 -3.813,40.364 -7.161,59.522l-511.785,-0Zm-45.384,377.022c-21.763,-0 -39.432,-17.762 -39.432,-39.525c-0,-21.575 17.669,-39.433 39.432,-39.433c21.855,-0 39.526,17.858 39.526,39.433c-0,21.763 -17.671,39.525 -39.526,39.525Zm567.306,376.84c-268.494,-57.66 -420.086,-230.919 -493.091,-345.87c17.484,-18.414 28.365,-43.061 28.365,-70.495c0,-56.451 -45.942,-102.577 -102.58,-102.577c-56.545,0 -102.58,46.126 -102.58,102.577c0,56.639 46.035,102.583 102.58,102.583l18.693,-1.862c78.028,124.249 242.175,314.622 536.058,377.584l-44.082,213.81l-845.008,0l-199.115,-966.56l1243.14,0l-142.385,690.81Zm-62.497,432.269l-833.288,0l-0,-93.37l833.288,0l0,93.37Zm-66.96,-1548l159.124,100.721c-11.718,40.92 -21.297,86.677 -27.156,136.901c-52.825,9.298 -106.486,-1.118 -152.056,-29.857c-45.571,-28.921 -77.843,-72.912 -92.072,-124.715c42.967,-26.781 80.261,-55.054 112.16,-83.05Zm495.23,-301.504l-13.857,-19.81l-230.363,-145.825c-14.695,-9.395 -34.225,-5.024 -43.525,9.763l-118.948,187.676l-4.092,23.807l13.857,19.72l5.58,3.53c-3.162,6.233 -88.444,169.45 -298.627,280.678c-157.264,83.141 -232.223,213.901 -267.005,303.837l-548.241,-0c-9.486,-0 -18.507,4.183 -24.46,11.528c-5.951,7.351 -8.369,17.024 -6.51,26.321l211.392,1026.64l-0,153.266c-0,17.392 14.229,31.617 31.62,31.617l896.436,0c17.392,0 31.528,-14.225 31.528,-31.617l0,-153.266l211.392,-1026.64c1.952,-9.297 -0.466,-18.97 -6.417,-26.321c-6.046,-7.345 -14.974,-11.528 -24.46,-11.528l-126.947,-0c2.977,-19.442 5.395,-39.343 6.325,-60.175c10.695,-236.13 121.552,-383.998 126.202,-389.953l12.462,7.907l16.927,4.928c10.416,-0 20.646,-5.206 26.69,-14.6l118.949,-187.676l4.092,-23.807Z" style="fill:#0b0b16;fill-rule:nonzero;"/><path d="M500.987,1057.16l136.433,662.632c3.068,14.974 16.181,25.299 30.876,25.299l6.417,-0.743c17.112,-3.446 28.086,-20.185 24.552,-37.294l-136.432,-662.541c-3.535,-17.114 -20.275,-27.996 -37.294,-24.55c-17.112,3.53 -28.086,20.27 -24.552,37.197Z" style="fill:#0b0b16;fill-rule:nonzero;"/></g></g></svg>