<?xml version="1.0" encoding="UTF-8" standalone="no"?><!DOCTYPE svg PUBLIC "-//W3C//DTD SVG 1.1//EN" "http://www.w3.org/Graphics/SVG/1.1/DTD/svg11.dtd"><svg width="100%" height="100%" viewBox="0 0 2084 2084" version="1.1" xmlns="http://www.w3.org/2000/svg" xmlns:xlink="http://www.w3.org/1999/xlink" xml:space="preserve" xmlns:serif="http://www.serif.com/" style="fill-rule:evenodd;clip-rule:evenodd;stroke-linejoin:round;stroke-miterlimit:2;"><rect id="画板1" x="0" y="0" width="2083.33" height="2083.33" style="fill:none;"/><g id="画板11" serif:id="画板1"><g><path d="M1811.12,1082.36l-1538.81,-0c-26.133,-0 -47.245,-21.298 -47.245,-47.335c0,-26.134 21.112,-47.432 47.245,-47.432l1538.81,-0c26.134,-0 47.338,21.298 47.338,47.432c0,26.037 -21.204,47.335 -47.338,47.335Zm-769.404,602.281c-378.238,-0 -688.306,-239.015 -708.674,-539.131l1417.35,-0c-20.367,300.116 -330.435,539.131 -708.674,539.131Zm-94.676,157.264l0,-99.047c31.063,3.258 62.59,5.023 94.676,5.023c32.086,0 63.613,-1.765 94.676,-5.023l0,99.047l-189.352,-0Zm352.477,178.193l-515.602,-0l142.665,-115.043l230.272,-0l142.665,115.043Zm-889.097,-1199.44c0,-176.893 144.06,-320.948 320.949,-320.948c132.435,0 245.99,80.911 294.909,195.767c-13.671,39.337 -21.39,81.28 -21.39,125.181c-0,35.988 5.301,70.864 14.694,103.974l-591.492,0c-11.253,-32.735 -17.67,-67.52 -17.67,-103.974Zm310.44,-436.553c-0,-176.984 143.967,-320.948 320.856,-320.948c176.983,-0 320.949,143.964 320.949,320.948c0,18.511 -2.232,36.459 -5.394,54.13c-126.296,10.319 -235.108,82.024 -297.234,185.163c-67.24,-111.694 -189.072,-186.747 -328.668,-186.747l-5.394,0.187c-2.976,-17.114 -5.115,-34.688 -5.115,-52.733Zm988.981,436.553c-0,36.454 -6.603,71.239 -17.856,103.974l-606.372,0c-11.253,-32.735 -17.577,-67.52 -17.577,-103.974c-0,-176.893 143.874,-320.948 320.856,-320.948c176.983,0 320.949,144.055 320.949,320.948Zm101.279,103.974l-53.011,0c9.486,-33.201 14.88,-67.889 14.88,-103.974c0,-200.887 -155.127,-365.962 -351.825,-382.423c2.697,-17.671 4.65,-35.716 4.65,-54.13c-0,-211.763 -172.333,-384.098 -384.098,-384.098c-211.765,-0 -384.097,172.335 -384.097,384.098c-0,20.089 1.86,39.712 5.022,59.057c-179.028,32.457 -315.369,189.165 -315.369,377.496c-0,35.988 5.301,70.864 14.694,103.974l-89.654,0c-60.823,0 -110.486,49.476 -110.486,110.395c0,60.357 48.64,109.276 108.626,110.297c17.578,291.193 274.821,531.412 613.44,589.26l0,123.784l-209.161,168.799c-10.416,8.373 -14.415,22.416 -9.951,35.063c4.371,12.556 16.368,21.11 29.76,21.11l694.352,0c13.392,0 25.297,-8.554 29.854,-21.11c4.371,-12.647 0.371,-26.69 -9.952,-35.063l-209.254,-168.799l0,-123.784c338.62,-57.848 595.956,-298.067 613.44,-589.26c59.986,-1.021 108.533,-49.94 108.533,-110.297c0,-60.919 -49.477,-110.395 -110.393,-110.395Z" style="fill:#0b0b16;fill-rule:nonzero;"/></g></g></svg>