<svg width="100%" height="100%" viewBox="0 0 2084 2084" version="1.1" xmlns="http://www.w3.org/2000/svg" xmlns:xlink="http://www.w3.org/1999/xlink" xml:space="preserve" xmlns:serif="http://www.serif.com/" style="fill-rule:evenodd;clip-rule:evenodd;stroke-linejoin:round;stroke-miterlimit:2;"><rect id="Canvas" x="0" y="0" width="2083.33" height="2083.33" style="fill:none;"/><clipPath id="_clip1"><rect id="Canvas1" serif:id="Canvas" x="0" y="0" width="2083.33" height="2083.33"/></clipPath><g clip-path="url(#_clip1)"><g><path d="M23.854,1486.89c70.321,0 127.221,56.9 127.221,127.221c-0,-70.321 56.899,-127.221 127.22,-127.285c-70.321,0 -127.22,-56.899 -127.22,-127.156c-0,70.257 -56.9,127.156 -127.221,127.22Z" style="fill:#fff;fill-rule:nonzero;"/><path d="M105.243,1486.89c18.352,11.736 34.032,27.479 45.832,45.8c11.799,-18.321 27.447,-34.064 45.831,-45.8c-18.384,-11.799 -34.032,-27.511 -45.831,-45.831c-11.8,18.32 -27.48,34.032 -45.832,45.831Zm45.832,151.075c-13.168,-0 -23.854,-10.687 -23.854,-23.854c-0,-57.027 -46.372,-103.367 -103.367,-103.367c-13.167,0 -23.854,-10.686 -23.854,-23.854c0,-13.167 10.655,-23.854 23.854,-23.854c56.995,-0.064 103.367,-46.404 103.367,-103.366c-0,-13.168 10.686,-23.854 23.854,-23.854c13.167,-0 23.853,10.686 23.853,23.854c0,56.962 46.372,103.302 103.367,103.302c13.167,0 23.854,10.687 23.854,23.854c0,13.168 -10.687,23.854 -23.854,23.854c-56.995,0.064 -103.367,46.404 -103.367,103.431c0,13.167 -10.686,23.854 -23.853,23.854Z" style="fill-rule:nonzero;"/><path d="M628.216,1677.72c70.321,0 127.22,56.9 127.22,127.221c0,-70.321 56.9,-127.221 127.221,-127.221c-70.321,0 -127.221,-56.899 -127.221,-127.22c0,70.321 -56.899,127.22 -127.22,127.22Z" style="fill:#fff;fill-rule:nonzero;"/><path d="M709.605,1677.72c18.351,11.8 34.031,27.479 45.831,45.863c11.8,-18.384 27.448,-34.063 45.831,-45.863c-18.383,-11.799 -34.031,-27.448 -45.831,-45.831c-11.8,18.383 -27.48,34.032 -45.831,45.831Zm45.831,151.075c-13.167,-0 -23.854,-10.687 -23.854,-23.854c0,-57.027 -46.372,-103.367 -103.366,-103.367c-13.168,0 -23.854,-10.686 -23.854,-23.854c-0,-13.167 10.654,-23.854 23.854,-23.854c56.994,0 103.366,-46.404 103.366,-103.366c0,-13.168 10.687,-23.854 23.854,-23.854c13.167,-0 23.854,10.686 23.854,23.854c0,56.962 46.372,103.366 103.367,103.366c13.167,0 23.854,10.687 23.854,23.854c-0,13.168 -10.687,23.854 -23.854,23.854c-56.995,0 -103.367,46.34 -103.367,103.367c0,13.167 -10.687,23.854 -23.854,23.854Z" style="fill-rule:nonzero;"/><path d="M278.327,1932.16c70.321,-0 127.189,56.899 127.189,127.22c0.032,-70.321 56.931,-127.22 127.252,-127.22c-70.321,-0 -127.22,-56.9 -127.22,-127.221c-0.032,70.321 -56.9,127.221 -127.221,127.221Z" style="fill:#fff;fill-rule:nonzero;"/><path d="M359.716,1932.16c18.352,11.799 34.032,27.479 45.832,45.862c11.799,-18.383 27.447,-34.063 45.831,-45.862c-18.384,-11.8 -34.063,-27.448 -45.831,-45.832c-11.8,18.384 -27.48,34.032 -45.832,45.832Zm45.832,151.074c-13.168,0 -23.854,-10.686 -23.854,-23.854c-0,-56.963 -46.372,-103.367 -103.367,-103.367c-13.167,0 -23.854,-10.686 -23.854,-23.853c0,-13.168 10.655,-23.854 23.854,-23.854c56.963,-0 103.335,-46.34 103.367,-103.367c-0,-13.167 10.686,-23.854 23.854,-23.854c13.167,0 23.854,10.687 23.854,23.854c-0,57.027 46.371,103.367 103.366,103.367c13.168,-0 23.854,10.686 23.854,23.854c0,13.167 -10.686,23.853 -23.854,23.853c-56.995,0 -103.366,46.404 -103.366,103.367c-0,13.168 -10.687,23.854 -23.854,23.854Z" style="fill-rule:nonzero;"/><path d="M2059.48,723.563c0,-399.092 -334.24,-720.197 -738.102,-698.633c-358.508,19.147 -649.398,316.843 -660.975,675.669c-6.679,207.402 77.255,395.02 215.035,527.075c76.778,73.533 117.806,176.9 117.806,283.256l0,39.567l733.046,-0l-0,-47.263c-0,-106.42 46.435,-205.875 122.577,-280.235c129.829,-126.839 210.613,-303.485 210.613,-499.436Z" style="fill:#fff;fill-rule:nonzero;"/><path d="M1213.84,1526.64l288.536,-0l174.197,-524.785l-633.813,-0l171.08,524.785Zm305.775,47.708l-323.109,-0c-10.305,-0 -19.465,-6.648 -22.677,-16.444l-186.601,-572.493c-2.385,-7.283 -1.113,-15.234 3.371,-21.373c4.485,-6.202 11.641,-9.891 19.306,-9.891l699.714,-0c7.633,-0 14.853,3.753 19.305,9.955c4.517,6.202 5.725,14.153 3.308,21.437l-189.972,572.492c-3.244,9.733 -12.372,16.317 -22.645,16.317Z" style="fill-rule:nonzero;"/><path d="M1614.21,1804.94l-508.882,-0c-35.145,-0 -63.611,-28.434 -63.611,-63.61c0,-35.081 28.466,-63.611 63.611,-63.611l508.882,0c35.113,0 63.611,28.53 63.611,63.611c-0,35.176 -28.498,63.61 -63.611,63.61Z" style="fill:#fff;fill-rule:nonzero;"/><path d="M1614.21,1932.16l-508.882,-0c-35.145,-0 -63.611,-28.435 -63.611,-63.611c0,-35.081 28.466,-63.61 63.611,-63.61l508.882,-0c35.113,-0 63.611,28.529 63.611,63.61c-0,35.176 -28.498,63.611 -63.611,63.611Z" style="fill:#fff;fill-rule:nonzero;"/><path d="M1614.21,1677.72l-508.882,0c-35.145,0 -63.611,-28.434 -63.611,-63.61l0,-63.61l636.104,-0l-0,63.61c-0,35.176 -28.498,63.61 -63.611,63.61Z" style="fill:#fff;fill-rule:nonzero;"/><path d="M1017.1,1526.64l685.338,-0l-0,-23.409c-0,-109.95 46.054,-215.543 129.765,-297.315c131.164,-128.079 203.426,-299.414 203.426,-482.356c-0,-187.333 -74.933,-361.594 -210.964,-490.532c-135.935,-128.842 -314.299,-194.138 -502.013,-184.311c-346.803,18.575 -627.197,305.171 -638.393,652.611c-6.17,191.085 69.558,376.7 207.688,509.073c79.545,76.268 125.153,185.805 125.153,300.526l0,15.713Zm709.192,47.708l-733.046,-0c-13.167,-0 -23.854,-10.687 -23.854,-23.854l0,-39.567c0,-101.807 -40.265,-198.782 -110.459,-266.049c-147.894,-141.819 -228.933,-340.474 -222.35,-545.109c11.959,-371.961 312.2,-678.817 683.525,-698.696c200.977,-10.75 391.808,59.317 537.38,197.351c145.636,138.003 225.848,324.572 225.848,525.136c0,195.887 -77.382,379.308 -217.833,516.547c-74.392,72.675 -115.357,166.086 -115.357,263.124l-0,47.263c-0,13.167 -10.687,23.854 -23.854,23.854Z" style="fill-rule:nonzero;"/><path d="M1105.33,1701.57c-21.946,0 -39.757,17.843 -39.757,39.757c0,21.945 17.811,39.756 39.757,39.756l508.882,0c21.914,0 39.757,-17.811 39.757,-39.756c-0,-21.914 -17.843,-39.757 -39.757,-39.757l-508.882,0Zm508.882,127.221l-508.882,-0c-48.249,-0 -87.464,-39.184 -87.464,-87.464c-0,-48.186 39.215,-87.465 87.464,-87.465l508.882,0c48.217,0 87.464,39.279 87.464,87.465c0,48.28 -39.247,87.464 -87.464,87.464Z" style="fill-rule:nonzero;"/><path d="M1105.33,1828.79c-21.946,-0 -39.757,17.843 -39.757,39.756c0,21.946 17.811,39.757 39.757,39.757l508.882,-0c21.914,-0 39.757,-17.811 39.757,-39.757c-0,-21.913 -17.843,-39.756 -39.757,-39.756l-508.882,-0Zm508.882,127.22l-508.882,0c-48.249,0 -87.464,-39.183 -87.464,-87.464c-0,-48.185 39.215,-87.464 87.464,-87.464l508.882,0c48.217,0 87.464,39.279 87.464,87.464c0,48.281 -39.247,87.464 -87.464,87.464Z" style="fill-rule:nonzero;"/><path d="M1065.57,1574.35l0,39.756c0,21.946 17.811,39.756 39.757,39.756l508.882,0c21.914,0 39.757,-17.81 39.757,-39.756l-0,-39.756l-588.396,-0Zm548.639,127.22l-508.882,0c-48.249,0 -87.464,-39.184 -87.464,-87.464l-0,-63.61c-0,-13.168 10.686,-23.854 23.853,-23.854l636.104,-0c13.167,-0 23.853,10.686 23.853,23.854l0,63.61c0,48.28 -39.247,87.464 -87.464,87.464Z" style="fill-rule:nonzero;"/><path d="M1550.6,2083.3l-381.662,0c-13.167,0 -23.854,-10.686 -23.854,-23.854c0,-13.167 10.687,-23.854 23.854,-23.854l381.662,0c13.167,0 23.854,10.687 23.854,23.854c-0,13.168 -10.687,23.854 -23.854,23.854Z" style="fill-rule:nonzero;"/><path d="M1896.86,685.174c-11.959,-0 -22.264,-8.938 -23.663,-21.119c-17.461,-152.379 -101.363,-288.219 -230.174,-372.821c-11.005,-7.219 -14.09,-22.008 -6.87,-33.044c7.252,-11.005 22.041,-14.122 33.045,-6.839c140.675,92.363 232.305,240.829 251.388,407.297c1.527,13.04 -7.887,24.936 -20.959,26.398c-0.923,0.128 -1.845,0.128 -2.767,0.128Z" style="fill-rule:nonzero;"/><path d="M1873.32,917.002c-2.481,-0 -4.993,-0.351 -7.474,-1.178c-12.5,-4.166 -19.306,-17.619 -15.171,-30.119c10.813,-32.854 18.351,-66.918 22.359,-101.267c1.558,-13.105 13.326,-22.487 26.493,-20.929c13.072,1.559 22.423,13.423 20.896,26.526c-4.389,37.53 -12.626,74.742 -24.458,110.586c-3.307,10.051 -12.626,16.381 -22.645,16.381Z" style="fill-rule:nonzero;"/><path d="M1423.28,723.563c-0,386.464 -313.281,699.713 -699.714,699.713c-386.464,0 -699.713,-313.249 -699.713,-699.713c-0,-386.433 313.249,-699.682 699.713,-699.682c386.433,-0 699.714,313.249 699.714,699.682Z" style="fill:#fff;fill-rule:nonzero;"/><path d="M723.567,47.735c-372.692,-0 -675.859,303.198 -675.859,675.828c-0,372.724 303.167,675.859 675.859,675.859c372.662,0 675.86,-303.135 675.86,-675.859c0,-372.63 -303.198,-675.828 -675.86,-675.828Zm0,1399.39c-398.995,-0 -723.567,-324.572 -723.567,-723.567c-0,-398.933 324.572,-723.536 723.567,-723.536c398.964,0 723.568,324.603 723.568,723.536c-0,398.995 -324.604,723.567 -723.568,723.567Z" style="fill-rule:nonzero;"/><path d="M1232.45,723.563c-0,281.093 -227.852,508.882 -508.883,508.882c-281.062,0 -508.882,-227.789 -508.882,-508.882c-0,-281.031 227.82,-508.883 508.882,-508.883c281.031,-0 508.883,227.852 508.883,508.883Z" style="fill:#fff;fill-rule:nonzero;"/><path d="M723.567,238.534c-267.449,-0 -485.028,217.611 -485.028,485.029c-0,267.513 217.579,485.028 485.028,485.028c267.418,0 485.029,-217.515 485.029,-485.028c0,-267.418 -217.611,-485.029 -485.029,-485.029Zm0,1017.76c-293.752,-0 -532.736,-238.952 -532.736,-532.736c-0,-293.69 238.984,-532.737 532.736,-532.737c293.721,0 532.737,239.047 532.737,532.737c-0,293.784 -239.016,532.736 -532.737,532.736Z" style="fill-rule:nonzero;"/><path d="M1066.75,914.584c-3.499,-0 -7.061,-0.731 -10.432,-2.417c-11.863,-5.725 -16.761,-20.006 -10.973,-31.868c23.886,-49.013 36.035,-101.745 36.035,-156.736c0,-54.897 -12.117,-107.565 -36.003,-156.545c-5.757,-11.864 -0.859,-26.145 11.005,-31.902c11.799,-5.724 26.112,-0.826 31.9,10.973c27.066,55.532 40.806,115.231 40.806,177.474c0,62.305 -13.74,122.067 -40.901,177.663c-4.103,8.46 -12.595,13.358 -21.437,13.358Z" style="fill-rule:nonzero;"/><path d="M380.294,914.584c-8.842,-0 -17.334,-4.898 -21.468,-13.358c-27.066,-55.596 -40.774,-115.294 -40.774,-177.536c-0,-62.243 13.739,-122.005 40.869,-177.601c5.789,-11.799 20.069,-16.697 31.901,-10.909c11.831,5.757 16.761,20.038 10.973,31.838c-23.918,49.011 -36.036,101.712 -36.036,156.672c0,54.927 12.086,107.596 35.972,156.609c5.757,11.862 0.827,26.143 -11.005,31.932c-3.371,1.622 -6.901,2.353 -10.432,2.353Z" style="fill-rule:nonzero;"/><path d="M143.06,723.563c-0,13.167 -10.687,23.853 -23.854,23.853c-13.168,0 -23.854,-10.686 -23.854,-23.853c-0,-13.168 10.686,-23.854 23.854,-23.854c13.167,-0 23.854,10.686 23.854,23.854Z" style="fill-rule:nonzero;"/><path d="M1351.78,723.563c-0,13.167 -10.687,23.853 -23.854,23.853c-13.167,0 -23.854,-10.686 -23.854,-23.853c0,-13.168 10.687,-23.854 23.854,-23.854c13.167,-0 23.854,10.686 23.854,23.854Z" style="fill-rule:nonzero;"/><path d="M723.567,1304.07c13.168,-0 23.854,10.686 23.854,23.854c0,13.167 -10.686,23.854 -23.854,23.854c-13.167,-0 -23.854,-10.687 -23.854,-23.854c0,-13.168 10.687,-23.854 23.854,-23.854Z" style="fill-rule:nonzero;"/><path d="M723.567,95.347c13.168,-0 23.854,10.686 23.854,23.853c0,13.232 -10.686,23.854 -23.854,23.854c-13.167,0 -23.854,-10.622 -23.854,-23.854c0,-13.167 10.687,-23.853 23.854,-23.853Z" style="fill-rule:nonzero;"/><path d="M1134.05,1134.07c9.319,-9.319 24.394,-9.319 33.713,0c9.319,9.319 9.319,24.396 0,33.715c-9.319,9.318 -24.394,9.318 -33.713,-0c-9.319,-9.319 -9.319,-24.396 -0,-33.715Z" style="fill-rule:nonzero;"/><path d="M279.345,279.372c9.319,-9.255 24.426,-9.255 33.745,-0c9.287,9.318 9.287,24.458 -0,33.777c-9.319,9.319 -24.426,9.319 -33.745,-0c-9.319,-9.319 -9.319,-24.459 -0,-33.777Z" style="fill-rule:nonzero;"/><path d="M1134.05,313.149c-9.319,-9.319 -9.319,-24.459 -0,-33.777c9.319,-9.255 24.394,-9.255 33.713,-0c9.319,9.318 9.319,24.458 0,33.777c-9.319,9.319 -24.394,9.319 -33.713,-0Z" style="fill-rule:nonzero;"/><path d="M279.345,1167.79c-9.319,-9.319 -9.319,-24.396 -0,-33.715c9.319,-9.319 24.426,-9.319 33.745,0c9.287,9.319 9.287,24.396 -0,33.715c-9.319,9.318 -24.426,9.318 -33.745,-0Z" style="fill-rule:nonzero;"/><path d="M1259.87,945.785c5.057,-12.181 19.02,-17.97 31.169,-12.945c12.181,5.057 17.938,19.02 12.913,31.137c-5.057,12.182 -18.988,17.938 -31.169,12.913c-12.181,-5.024 -17.938,-18.956 -12.913,-31.105Z" style="fill-rule:nonzero;"/><path d="M143.155,483.179c5.057,-12.182 19.019,-17.97 31.169,-12.881c12.181,5.057 17.97,18.956 12.913,31.137c-5.025,12.181 -18.988,17.938 -31.169,12.913c-12.15,-5.025 -17.938,-18.988 -12.913,-31.169Z" style="fill-rule:nonzero;"/><path d="M945.726,187.296c-12.181,-5.026 -17.969,-19.02 -12.912,-31.169c5.025,-12.182 18.987,-17.97 31.137,-12.946c12.181,5.058 17.97,19.021 12.913,31.202c-5.026,12.181 -18.988,17.938 -31.138,12.913Z" style="fill-rule:nonzero;"/><path d="M483.152,1304.01c-12.181,-5.089 -17.938,-18.988 -12.913,-31.17c5.025,-12.181 18.988,-17.97 31.169,-12.913c12.182,5.026 17.938,18.988 12.913,31.17c-5.057,12.181 -18.987,17.97 -31.169,12.913Z" style="fill-rule:nonzero;"/><path d="M1259.87,501.435c-5.025,-12.181 0.732,-26.08 12.913,-31.137c12.181,-5.089 26.112,0.699 31.169,12.881c5.025,12.181 -0.732,26.144 -12.913,31.169c-12.149,5.025 -26.112,-0.732 -31.169,-12.913Z" style="fill-rule:nonzero;"/><path d="M143.155,963.977c-5.025,-12.117 0.763,-26.08 12.913,-31.137c12.181,-5.025 26.144,0.764 31.169,12.945c5.057,12.149 -0.732,26.081 -12.913,31.105c-12.15,5.025 -26.112,-0.731 -31.169,-12.913Z" style="fill-rule:nonzero;"/><path d="M501.408,187.296c-12.181,5.025 -26.144,-0.732 -31.169,-12.913c-5.025,-12.181 0.732,-26.144 12.913,-31.202c12.182,-5.024 26.112,0.764 31.169,12.946c5.025,12.149 -0.731,26.143 -12.913,31.169Z" style="fill-rule:nonzero;"/><path d="M963.951,1304.01c-12.15,5.057 -26.112,-0.732 -31.137,-12.913c-5.057,-12.182 0.731,-26.144 12.912,-31.17c12.15,-5.057 26.112,0.732 31.138,12.913c5.057,12.182 -0.732,26.081 -12.913,31.17Z" style="fill-rule:nonzero;"/><path d="M723.885,1049.57c-88.8,0 -167.104,-43.413 -199.481,-110.618c-5.725,-11.864 -0.732,-26.144 11.131,-31.869c11.832,-5.661 26.112,-0.763 31.837,11.164c24.109,50.029 87.019,83.616 156.513,83.616c91.917,-0 166.659,-57.027 166.659,-127.221c0,-81.994 -59.443,-127.221 -167.326,-127.221c-134.218,0 -214.335,-65.328 -214.335,-174.928c-0,-96.402 96.147,-174.928 214.335,-174.928c88.8,-0 167.104,43.509 199.513,110.713c5.725,11.864 0.732,26.08 -11.131,31.805c-11.896,5.662 -26.144,0.732 -31.869,-11.132c-24.109,-49.997 -87.019,-83.679 -156.513,-83.679c-91.886,0 -166.628,57.09 -166.628,127.221c0,82.057 59.158,127.221 166.628,127.221c134.631,-0 215.034,65.423 215.034,174.928c0,96.497 -96.179,174.928 -214.367,174.928Z" style="fill-rule:nonzero;"/><path d="M723.281,1144.98c-13.167,-0 -23.854,-10.687 -23.854,-23.854l0,-795.129c0,-13.167 10.687,-23.854 23.854,-23.854c13.168,0 23.854,10.687 23.854,23.854l0,795.129c0,13.167 -10.686,23.854 -23.854,23.854Z" style="fill-rule:nonzero;"/></g></g></svg>