<?xml version="1.0" encoding="UTF-8" standalone="no"?><!DOCTYPE svg PUBLIC "-//W3C//DTD SVG 1.1//EN" "http://www.w3.org/Graphics/SVG/1.1/DTD/svg11.dtd"><svg width="100%" height="100%" viewBox="0 0 2084 2084" version="1.1" xmlns="http://www.w3.org/2000/svg" xmlns:xlink="http://www.w3.org/1999/xlink" xml:space="preserve" xmlns:serif="http://www.serif.com/" style="fill-rule:evenodd;clip-rule:evenodd;stroke-linejoin:round;stroke-miterlimit:2;"><rect id="画板1" x="0" y="0" width="2083.33" height="2083.33" style="fill:none;"/><clipPath id="_clip1"><rect id="画板11" serif:id="画板1" x="0" y="0" width="2083.33" height="2083.33"/></clipPath><g clip-path="url(#_clip1)"><g><path d="M1880.25,1827.8l-0,-1572.23c-0,-28.929 -23.479,-52.408 -52.408,-52.408l-262.038,0c-28.955,0 -52.407,23.479 -52.407,52.408l-0,1572.23c-0,28.903 23.452,52.408 52.407,52.408l262.038,-0c28.929,-0 52.408,-23.505 52.408,-52.408Z" style="fill:#fff;fill-rule:nonzero;"/><path d="M1565.81,222.818c-18.08,0 -32.754,14.674 -32.754,32.755l-0,1572.23c-0,18.054 14.674,32.755 32.754,32.755l262.038,-0c18.055,-0 32.755,-14.701 32.755,-32.755l0,-1572.23c0,-18.081 -14.7,-32.755 -32.755,-32.755l-262.038,0Zm262.038,1677.04l-262.038,0c-39.751,0 -72.06,-32.361 -72.06,-72.06l-0,-1572.23c-0,-39.725 32.309,-72.06 72.06,-72.06l262.038,-0c39.725,-0 72.061,32.335 72.061,72.06l-0,1572.23c-0,39.699 -32.336,72.06 -72.061,72.06Z" style="fill-rule:nonzero;"/><path d="M1880.25,1768.89l-104.815,-0c-10.849,-0 -19.653,-8.805 -19.653,-19.653c-0,-10.848 8.804,-19.653 19.653,-19.653l104.815,0c10.822,0 19.653,8.805 19.653,19.653c-0,10.848 -8.831,19.653 -19.653,19.653Z" style="fill-rule:nonzero;"/><path d="M1880.25,1611.67l-104.815,0c-10.849,0 -19.653,-8.804 -19.653,-19.653c-0,-10.848 8.804,-19.653 19.653,-19.653l104.815,0c10.822,0 19.653,8.805 19.653,19.653c-0,10.849 -8.831,19.653 -19.653,19.653Z" style="fill-rule:nonzero;"/><path d="M1880.25,1454.45l-104.815,0c-10.849,0 -19.653,-8.804 -19.653,-19.653c-0,-10.848 8.804,-19.652 19.653,-19.652l104.815,-0c10.822,-0 19.653,8.804 19.653,19.652c-0,10.849 -8.831,19.653 -19.653,19.653Z" style="fill-rule:nonzero;"/><path d="M1880.25,1297.2l-104.815,0c-10.849,0 -19.653,-8.804 -19.653,-19.653c-0,-10.848 8.804,-19.679 19.653,-19.679l104.815,0c10.822,0 19.653,8.831 19.653,19.679c-0,10.849 -8.831,19.653 -19.653,19.653Z" style="fill-rule:nonzero;"/><path d="M1880.25,1139.95l-104.815,0c-10.849,0 -19.653,-8.805 -19.653,-19.653c-0,-10.848 8.804,-19.652 19.653,-19.652l104.815,-0c10.822,-0 19.653,8.804 19.653,19.652c-0,10.848 -8.831,19.653 -19.653,19.653Z" style="fill-rule:nonzero;"/><path d="M1880.25,982.728l-104.815,0c-10.849,0 -19.653,-8.804 -19.653,-19.652c-0,-10.849 8.804,-19.653 19.653,-19.653l104.815,-0c10.822,-0 19.653,8.804 19.653,19.653c-0,10.848 -8.831,19.652 -19.653,19.652Z" style="fill-rule:nonzero;"/><path d="M1880.25,825.506l-104.815,-0c-10.849,-0 -19.653,-8.805 -19.653,-19.653c-0,-10.849 8.804,-19.653 19.653,-19.653l104.815,-0c10.822,-0 19.653,8.804 19.653,19.653c-0,10.848 -8.831,19.653 -19.653,19.653Z" style="fill-rule:nonzero;"/><path d="M1880.25,668.23l-104.815,0c-10.849,0 -19.653,-8.804 -19.653,-19.653c-0,-10.848 8.804,-19.653 19.653,-19.653l104.815,0c10.822,0 19.653,8.805 19.653,19.653c-0,10.849 -8.831,19.653 -19.653,19.653Z" style="fill-rule:nonzero;"/><path d="M1880.25,511.007l-104.815,0c-10.849,0 -19.653,-8.804 -19.653,-19.653c-0,-10.848 8.804,-19.652 19.653,-19.652l104.815,-0c10.822,-0 19.653,8.804 19.653,19.652c-0,10.849 -8.831,19.653 -19.653,19.653Z" style="fill-rule:nonzero;"/><path d="M1880.25,353.784l-104.815,0c-10.849,0 -19.653,-8.804 -19.653,-19.652c-0,-10.848 8.804,-19.653 19.653,-19.653l104.815,-0c10.822,-0 19.653,8.805 19.653,19.653c-0,10.848 -8.831,19.652 -19.653,19.652Z" style="fill-rule:nonzero;"/><path d="M1618.14,779.649c0,-328.884 -275.375,-593.438 -608.111,-575.619c-295.369,15.775 -535.029,261.016 -544.568,556.621c-5.502,170.954 63.675,325.451 177.164,434.25c63.256,60.661 97.059,145.797 97.059,233.397l-0,32.65l603.945,-0l0,-38.939c0,-87.652 38.258,-169.617 100.99,-230.882c106.99,-104.501 173.521,-250.063 173.521,-411.478Z" style="fill:#fff;fill-rule:nonzero;"/><path d="M1251.28,1670.58l-419.261,0c-28.955,0 -52.407,-23.452 -52.407,-52.407c-0,-28.929 23.452,-52.408 52.407,-52.408l419.261,0c28.929,0 52.408,23.479 52.408,52.408c-0,28.955 -23.479,52.407 -52.408,52.407Z" style="fill:#fff;fill-rule:nonzero;"/><path d="M1251.28,1775.39l-419.261,0c-28.955,0 -52.407,-23.452 -52.407,-52.407c-0,-28.929 23.452,-52.408 52.407,-52.408l419.261,0c28.929,0 52.408,23.479 52.408,52.408c-0,28.955 -23.479,52.407 -52.408,52.407Z" style="fill:#fff;fill-rule:nonzero;"/><path d="M1251.28,1565.76l-419.261,0c-28.955,0 -52.407,-23.453 -52.407,-52.408l-0,-52.407l524.076,-0l-0,52.407c-0,28.955 -23.479,52.408 -52.408,52.408Z" style="fill:#fff;fill-rule:nonzero;"/><path d="M759.308,1441.3l564.639,-0l-0,-19.286c-0,-90.587 37.996,-177.61 106.912,-244.953c108.091,-105.575 167.652,-246.683 167.652,-397.407c0,-154.367 -61.763,-297.911 -173.81,-404.168c-112.048,-106.204 -259.129,-160.393 -413.653,-151.851c-285.726,15.251 -516.687,251.452 -525.937,537.702c-5.057,157.407 57.308,310.28 171.111,419.392c65.509,62.811 103.086,153.03 103.086,247.574l0,12.997Zm584.292,39.306l-603.945,-0c-10.848,-0 -19.653,-8.805 -19.653,-19.653l0,-32.65c0,-83.879 -33.121,-163.748 -90.98,-219.195c-121.874,-116.816 -188.667,-280.538 -183.217,-449.054c9.906,-306.48 257.243,-559.347 563.172,-575.672c165.451,-8.962 322.832,48.87 442.713,162.595c120.014,113.724 186.127,267.409 186.127,432.677c-0,161.363 -63.728,312.506 -179.444,425.497c-61.317,59.928 -95.12,136.915 -95.12,216.863l-0,38.939c-0,10.848 -8.778,19.653 -19.653,19.653Z" style="fill-rule:nonzero;"/><path d="M832.05,1585.42c-18.081,-0 -32.755,14.674 -32.755,32.755c0,18.054 14.674,32.754 32.755,32.754l419.261,0c18.054,0 32.754,-14.7 32.754,-32.754c0,-18.081 -14.7,-32.755 -32.754,-32.755l-419.261,-0Zm419.261,104.815l-419.261,0c-39.778,0 -72.061,-32.309 -72.061,-72.06c0,-39.726 32.283,-72.061 72.061,-72.061l419.261,0c39.698,0 72.06,32.335 72.06,72.061c0,39.751 -32.362,72.06 -72.06,72.06Z" style="fill-rule:nonzero;"/><path d="M832.05,1690.23c-18.081,0 -32.755,14.674 -32.755,32.755c0,18.054 14.674,32.755 32.755,32.755l419.261,-0c18.054,-0 32.754,-14.701 32.754,-32.755c0,-18.081 -14.7,-32.755 -32.754,-32.755l-419.261,0Zm419.261,104.815l-419.261,0c-39.778,0 -72.061,-32.309 -72.061,-72.06c0,-39.725 32.283,-72.061 72.061,-72.061l419.261,0c39.698,0 72.06,32.336 72.06,72.061c0,39.751 -32.362,72.06 -72.06,72.06Z" style="fill-rule:nonzero;"/><path d="M799.295,1480.6l0,32.754c0,18.055 14.674,32.755 32.755,32.755l419.261,0c18.054,0 32.754,-14.7 32.754,-32.755l0,-32.754l-484.77,-0Zm452.016,104.815l-419.261,-0c-39.778,-0 -72.061,-32.309 -72.061,-72.061l0,-52.407c0,-10.849 8.805,-19.653 19.653,-19.653l524.076,-0c10.849,-0 19.653,8.804 19.653,19.653l0,52.407c0,39.752 -32.362,72.061 -72.06,72.061Z" style="fill-rule:nonzero;"/><path d="M1198.9,1899.86l-314.446,0c-10.848,0 -19.652,-8.804 -19.652,-19.652c-0,-10.849 8.804,-19.653 19.652,-19.653l314.446,-0c10.848,-0 19.653,8.804 19.653,19.653c-0,10.848 -8.805,19.652 -19.653,19.652Z" style="fill-rule:nonzero;"/><path d="M569.933,1722.99l-0,-1205.43l-183.427,52.408l-183.427,-52.408l0,1205.43l366.854,-0Z" style="fill:#fff;fill-rule:nonzero;"/><path d="M222.732,1703.33l327.548,-0l-0,-1159.73l-158.402,45.254c-3.511,1.022 -7.258,1.022 -10.796,-0l-158.35,-45.254l0,1159.73Zm347.201,39.306l-366.854,-0c-10.874,-0 -19.652,-8.805 -19.652,-19.653l-0,-1205.43c-0,-6.131 2.856,-11.975 7.808,-15.669c4.874,-3.721 11.321,-4.9 17.217,-3.224l178.054,50.888l178.002,-50.888c5.87,-1.676 12.316,-0.497 17.243,3.224c4.9,3.694 7.835,9.538 7.835,15.669l-0,1205.43c-0,10.848 -8.831,19.653 -19.653,19.653Z" style="fill-rule:nonzero;"/><path d="M569.933,1827.8l-0,-104.815l-366.854,-0l0,104.815c0,28.955 23.453,52.408 52.408,52.408l262.038,-0c28.929,-0 52.408,-23.453 52.408,-52.408Z" style="fill:#fff;fill-rule:nonzero;"/><path d="M222.732,1742.64l0,85.162c0,18.054 14.649,32.755 32.755,32.755l262.038,-0c18.029,-0 32.755,-14.701 32.755,-32.755l-0,-85.162l-327.548,-0Zm294.793,157.222l-262.038,0c-39.751,0 -72.06,-32.309 -72.06,-72.06l-0,-104.815c-0,-10.849 8.778,-19.653 19.652,-19.653l366.854,-0c10.822,-0 19.653,8.804 19.653,19.653l-0,104.815c-0,39.751 -32.335,72.06 -72.061,72.06Z" style="fill-rule:nonzero;"/><path d="M569.933,517.558l-183.427,-314.445l-183.427,314.445l183.427,52.408l183.427,-52.408Z" style="fill:#fff;fill-rule:nonzero;"/><path d="M232.768,505.636l153.738,43.917l153.711,-43.917l-153.711,-263.532l-153.738,263.532Zm153.738,83.983c-1.86,-0 -3.668,-0.262 -5.424,-0.76l-183.427,-52.408c-5.817,-1.651 -10.586,-5.948 -12.839,-11.582c-2.254,-5.633 -1.808,-11.975 1.284,-17.19l183.427,-314.445c7.021,-12.08 26.937,-12.08 33.907,-0l183.426,314.445c3.066,5.215 3.564,11.557 1.311,17.19c-2.28,5.634 -7.023,9.931 -12.866,11.582l-183.427,52.408c-1.756,0.498 -3.564,0.76 -5.372,0.76Z" style="fill-rule:nonzero;"/><path d="M386.506,1742.64c-10.874,-0 -19.653,-8.805 -19.653,-19.653l0,-1153.02c0,-10.848 8.779,-19.653 19.653,-19.653c10.822,-0 19.653,8.805 19.653,19.653l-0,1153.02c-0,10.848 -8.831,19.653 -19.653,19.653Z" style="fill-rule:nonzero;"/><path d="M1403.53,839.629c3.171,-19.39 4.979,-39.253 4.979,-59.587c0,-20.203 -1.808,-40.118 -4.979,-59.509l-124.835,-19.862c-3.668,-11.058 -8.28,-21.75 -13.39,-32.074l74.262,-102.273c-23.269,-32.546 -51.727,-61.003 -84.141,-84.298l-102.299,74.314c-10.35,-5.11 -21.094,-9.722 -32.126,-13.338l-19.889,-124.94c-19.338,-3.223 -39.279,-4.9 -59.483,-4.9l-0.026,0c-20.281,0 -40.144,1.677 -59.482,4.9l-19.915,124.94c-11.058,3.616 -21.776,8.228 -32.074,13.286l-102.378,-74.262c-32.362,23.295 -60.871,51.752 -84.14,84.298l74.314,102.273c-5.241,10.324 -9.748,21.016 -13.364,32.074l-124.835,19.862c-3.223,19.391 -4.926,39.306 -4.926,59.509c-0,20.334 1.703,40.197 4.926,59.587l124.835,19.811c3.616,11.11 8.123,21.801 13.364,32.073l-74.314,102.378c23.269,32.44 51.778,60.95 84.14,84.219l102.378,-74.288c10.298,5.267 21.016,9.67 32.074,13.39l19.915,124.835c19.338,3.223 39.201,4.822 59.482,4.822l0.026,-0c20.204,-0 40.145,-1.599 59.483,-4.822l19.889,-124.835c11.032,-3.72 21.776,-8.227 32.126,-13.39l102.299,74.288c32.414,-23.269 60.872,-51.779 84.141,-84.219l-74.262,-102.378c5.11,-10.272 9.722,-20.963 13.39,-32.073l124.835,-19.811Z" style="fill:#fff;fill-rule:nonzero;"/><path d="M1128.1,866.488c-47.743,47.77 -125.175,47.77 -172.919,0c-47.743,-47.743 -47.743,-125.176 -0,-172.919c47.744,-47.769 125.176,-47.769 172.919,0c47.769,47.743 47.769,125.176 -0,172.919Z" style="fill:#fff;fill-rule:nonzero;"/><path d="M1041.68,677.376c-56.626,-0 -102.666,46.013 -102.666,102.64c-0,56.6 46.04,102.64 102.666,102.64c56.574,0 102.588,-46.04 102.588,-102.64c-0,-56.627 -46.014,-102.64 -102.588,-102.64Zm0,244.586c-78.323,-0 -141.972,-63.649 -141.972,-141.946c0,-78.271 63.649,-141.946 141.972,-141.946c78.218,-0 141.893,63.675 141.893,141.946c0,78.297 -63.675,141.946 -141.893,141.946Z" style="fill-rule:nonzero;"/><path d="M1403.56,839.629l0.261,0l-0.261,0Zm-404.326,285.019c27.803,3.433 56.916,3.433 84.77,0l17.609,-110.554c1.153,-7.206 6.184,-13.207 13.155,-15.512c10.036,-3.433 19.967,-7.573 29.531,-12.316c6.551,-3.328 14.438,-2.673 20.361,1.624l90.612,65.825c22.378,-17.505 42.45,-37.629 59.85,-59.981l-65.746,-90.691c-4.323,-5.949 -4.926,-13.784 -1.651,-20.335c5.005,-10.009 9.172,-19.941 12.395,-29.531c2.279,-6.892 8.28,-12.028 15.487,-13.128l110.579,-17.557c1.756,-14.333 2.7,-28.562 2.7,-42.45c-0,-13.81 -0.944,-28.038 -2.7,-42.372l-110.579,-17.609c-7.207,-1.126 -13.208,-6.184 -15.487,-13.154c-3.223,-9.512 -7.39,-19.496 -12.395,-29.531c-3.275,-6.551 -2.672,-14.413 1.651,-20.309l65.798,-90.586c-17.426,-22.352 -37.471,-42.477 -59.902,-60.033l-90.612,65.772c-5.844,4.297 -13.679,5.004 -20.256,1.729c-10.089,-5.005 -20.046,-9.145 -29.636,-12.368c-6.918,-2.306 -12.002,-8.307 -13.155,-15.513l-17.635,-110.659c-28.117,-3.485 -56.653,-3.485 -84.744,0l-17.582,110.659c-1.179,7.206 -6.237,13.207 -13.18,15.565c-9.46,3.118 -19.444,7.259 -29.689,12.264c-6.577,3.223 -14.308,2.567 -20.23,-1.677l-90.612,-65.772c-22.457,17.556 -42.503,37.681 -59.928,60.033l65.797,90.586c4.324,5.949 4.926,13.81 1.625,20.413c-4.822,9.538 -8.909,19.417 -12.237,29.375c-2.307,6.97 -8.307,12.08 -15.565,13.206l-110.554,17.609c-1.73,14.019 -2.594,28.248 -2.594,42.372c-0,14.176 0.864,28.353 2.594,42.45l110.554,17.557c7.258,1.153 13.258,6.236 15.565,13.233c3.328,9.983 7.415,19.862 12.237,29.348c3.301,6.551 2.699,14.464 -1.598,20.413l-65.824,90.691c17.451,22.352 37.549,42.424 59.928,59.981l90.612,-65.825c6.027,-4.402 13.967,-4.952 20.571,-1.572c8.909,4.586 18.762,8.7 29.348,12.264c6.943,2.305 12.001,8.306 13.18,15.512l17.582,110.554Zm42.398,41.874c-21.251,-0 -42.398,-1.704 -62.705,-5.084c-8.333,-1.388 -14.884,-7.939 -16.22,-16.272l-18.054,-113.411c-4.272,-1.65 -8.412,-3.38 -12.447,-5.162l-92.919,67.449c-6.866,4.9 -16.142,4.953 -23.034,-0c-34.274,-24.631 -64.042,-54.451 -88.621,-88.7c-4.926,-6.865 -4.9,-16.115 0.079,-22.981l67.422,-92.944c-1.808,-4.088 -3.537,-8.228 -5.188,-12.369l-113.331,-18.028c-8.307,-1.336 -14.858,-7.835 -16.273,-16.168c-3.433,-20.675 -5.162,-41.768 -5.162,-62.81c0,-20.963 1.729,-42.057 5.162,-62.732c1.415,-8.333 7.966,-14.831 16.273,-16.168l113.331,-18.028c1.651,-4.193 3.38,-8.333 5.188,-12.421l-67.422,-92.84c-4.979,-6.813 -5.005,-16.089 -0.105,-22.98c24.475,-34.196 54.32,-64.042 88.647,-88.753c6.892,-5.005 16.143,-4.952 23.034,0l92.971,67.449c4.192,-1.835 8.333,-3.59 12.395,-5.162l18.054,-113.463c1.336,-8.333 7.887,-14.883 16.22,-16.272c41.349,-6.813 83.983,-6.813 125.385,-0c8.385,1.389 14.91,7.939 16.22,16.272l18.055,113.515c4.113,1.573 8.254,3.275 12.394,5.162l92.918,-67.448c6.814,-5.005 16.116,-5.005 23.008,-0.105c34.405,24.71 64.199,54.609 88.621,88.857c4.926,6.839 4.9,16.115 -0.078,22.928l-67.397,92.893c1.834,4.14 3.59,8.228 5.163,12.368l113.41,18.028c8.411,1.337 14.962,7.888 16.324,16.22c3.433,21.173 5.241,42.267 5.241,62.68c0,20.491 -1.808,41.559 -5.241,62.758c-1.362,8.333 -7.94,14.884 -16.324,16.22l-113.41,18.028c-1.573,4.088 -3.329,8.228 -5.163,12.369l67.397,92.944c4.978,6.866 5.004,16.063 0.052,22.981c-24.501,34.249 -54.347,64.121 -88.595,88.753c-6.892,4.9 -16.194,4.847 -23.008,-0.106l-92.892,-67.448c-4.114,1.834 -8.254,3.564 -12.42,5.162l-18.055,113.463c-1.31,8.333 -7.835,14.884 -16.22,16.272c-20.361,3.38 -41.455,5.084 -62.68,5.084Z" style="fill-rule:nonzero;"/><path d="M1618.22,1770.28c-10.849,0 -19.653,-8.804 -19.653,-19.652l0,-282.634c0,-10.849 8.804,-19.653 19.653,-19.653c10.848,-0 19.653,8.804 19.653,19.653l-0,282.634c-0,10.848 -8.805,19.652 -19.653,19.652Z" style="fill-rule:nonzero;"/><path d="M1618.22,1382.83c-10.849,0 -19.653,-8.804 -19.653,-19.653l0,-58.015c0,-10.874 8.804,-19.653 19.653,-19.653c10.848,0 19.653,8.779 19.653,19.653l-0,58.015c-0,10.849 -8.805,19.653 -19.653,19.653Z" style="fill-rule:nonzero;"/><path d="M2063.68,1664.03l-104.815,0c-10.848,0 -19.653,-8.805 -19.653,-19.653c0,-10.848 8.805,-19.652 19.653,-19.652l104.815,-0c10.849,-0 19.653,8.804 19.653,19.652c0,10.848 -8.804,19.653 -19.653,19.653Z" style="fill-rule:nonzero;"/><path d="M2011.27,1716.43c-10.849,-0 -19.653,-8.805 -19.653,-19.653l0,-104.815c0,-10.849 8.804,-19.653 19.653,-19.653c10.848,-0 19.653,8.804 19.653,19.653l-0,104.815c-0,10.848 -8.805,19.653 -19.653,19.653Z" style="fill-rule:nonzero;"/><path d="M2030.93,1487.15c-0,10.848 -8.805,19.652 -19.653,19.652c-10.875,0 -19.653,-8.804 -19.653,-19.652c0,-10.849 8.778,-19.653 19.653,-19.653c10.848,-0 19.653,8.804 19.653,19.653Z" style="fill-rule:nonzero;"/><path d="M2030.93,1382.36c-0,10.849 -8.805,19.653 -19.653,19.653c-10.875,0 -19.653,-8.804 -19.653,-19.653c0,-10.848 8.778,-19.652 19.653,-19.652c10.848,-0 19.653,8.804 19.653,19.652Z" style="fill-rule:nonzero;"/><path d="M2030.93,1251.27c-0,10.9 -8.805,19.652 -19.653,19.652c-10.875,0 -19.653,-8.752 -19.653,-19.652c0,-10.848 8.778,-19.653 19.653,-19.653c10.848,-0 19.653,8.805 19.653,19.653Z" style="fill-rule:nonzero;"/><path d="M2030.93,1067.84c-0,10.848 -8.805,19.653 -19.653,19.653c-10.875,-0 -19.653,-8.805 -19.653,-19.653c0,-10.848 8.778,-19.653 19.653,-19.653c10.848,0 19.653,8.805 19.653,19.653Z" style="fill-rule:nonzero;"/><path d="M124.468,753.34l-104.815,0c-10.874,0 -19.653,-8.804 -19.653,-19.653c0,-10.848 8.779,-19.653 19.653,-19.653l104.815,0c10.822,0 19.653,8.805 19.653,19.653c-0,10.849 -8.831,19.653 -19.653,19.653Z" style="fill-rule:nonzero;"/><path d="M72.06,805.748c-10.874,-0 -19.652,-8.805 -19.652,-19.653l-0,-104.815c-0,-10.848 8.778,-19.653 19.652,-19.653c10.822,-0 19.653,8.805 19.653,19.653l0,104.815c0,10.848 -8.831,19.653 -19.653,19.653Z" style="fill-rule:nonzero;"/><path d="M52.381,917.166c0,-10.848 8.805,-19.653 19.653,-19.653c10.848,0 19.653,8.805 19.653,19.653c-0,10.849 -8.805,19.653 -19.653,19.653c-10.848,0 -19.653,-8.804 -19.653,-19.653Z" style="fill-rule:nonzero;"/><path d="M52.381,1048.18c0,-10.848 8.805,-19.653 19.653,-19.653c10.848,0 19.653,8.805 19.653,19.653c-0,10.849 -8.805,19.653 -19.653,19.653c-10.848,0 -19.653,-8.804 -19.653,-19.653Z" style="fill-rule:nonzero;"/><path d="M52.381,1205.41c0,-10.848 8.805,-19.653 19.653,-19.653c10.848,0 19.653,8.805 19.653,19.653c-0,10.848 -8.805,19.653 -19.653,19.653c-10.848,-0 -19.653,-8.805 -19.653,-19.653Z" style="fill-rule:nonzero;"/><path d="M52.381,1415.12c0,-10.848 8.805,-19.653 19.653,-19.653c10.848,0 19.653,8.805 19.653,19.653c-0,10.822 -8.805,19.627 -19.653,19.627c-10.848,0 -19.653,-8.805 -19.653,-19.627Z" style="fill-rule:nonzero;"/></g></g></svg>