<?xml version="1.0" encoding="UTF-8" standalone="no"?><!DOCTYPE svg PUBLIC "-//W3C//DTD SVG 1.1//EN" "http://www.w3.org/Graphics/SVG/1.1/DTD/svg11.dtd"><svg width="100%" height="100%" viewBox="0 0 2084 2084" version="1.1" xmlns="http://www.w3.org/2000/svg" xmlns:xlink="http://www.w3.org/1999/xlink" xml:space="preserve" xmlns:serif="http://www.serif.com/" style="fill-rule:evenodd;clip-rule:evenodd;stroke-linejoin:round;stroke-miterlimit:2;"><rect id="画板1" x="0" y="0" width="2083.33" height="2083.33" style="fill:none;"/><g id="画板11" serif:id="画板1"><g><path d="M1489.07,632.061l-161.482,-37.301c-12.836,-2.79 -26.326,2.419 -33.582,13.58c-7.25,11.163 -6.79,25.581 1.306,36.185l93.853,124.459c-188.546,236.545 -356.631,334.028 -453.277,332.54c143.621,-316.913 391.331,-669.639 815.398,-985.064c-69.951,185.664 -159.341,362.027 -262.216,515.601Zm-596.342,9.766l137.2,32.836c13.024,3.162 26.417,-2.14 33.673,-13.209c7.352,-11.069 6.977,-25.673 -1.022,-36.277l-81.204,-109.482c137.853,-157.76 360.634,-290.87 663.966,-397.282c-389.657,307.147 -623.969,644.989 -763.684,951.578c-52.18,-77.019 -88.272,-243.987 11.071,-428.164Zm166.967,678.476c-0,26.045 -21.205,47.347 -47.344,47.347l-599.97,-0c-26.138,-0 -47.349,-21.302 -47.349,-47.347c-0,-26.138 21.211,-47.439 47.349,-47.439l599.97,0c26.139,0 47.344,21.301 47.344,47.439Zm13.858,265.103l50.978,399.141c1.112,9.117 -1.488,18.046 -7.631,24.93c-6.046,6.883 -14.415,10.604 -23.623,10.604l-761.73,-0c-9.209,-0 -17.674,-3.721 -23.721,-10.604c-6.046,-6.884 -8.834,-15.813 -7.624,-24.93l50.971,-399.141c53.209,-12.836 92.831,-60.835 92.831,-117.762l0,-36.928l536.815,0l-0,36.928c-0,56.927 39.531,104.926 92.734,117.762Zm772.983,-1550.34l-0.091,-9.582l-0.091,-1.302l-4.468,-9.953l-0.465,-1.302l-1.21,-1.116l-1.953,-2.698l-4.928,-3.907l-1.396,-1.116l-9.862,-3.813l-2.878,-0.28l-8.284,0.093l-2.787,0.373l-1.397,0.093c-421.467,121.76 -720.892,287.892 -889.999,493.834c-9.209,11.162 -9.584,27.254 -1.022,38.789l44.459,59.903l-75.901,-18.231c-13.489,-3.256 -27.438,2.79 -34.603,14.604c-143.156,242.778 -73.295,463.324 3.537,545.646c-10.515,25.114 -20.558,50.044 -29.863,74.601l-410.953,-0c-60.93,-0 -110.414,49.671 -110.414,110.598c0,49.858 33.395,91.623 78.882,105.297l0,42.044c0,31.906 -25.951,57.858 -57.858,57.858c-15.908,-0 -29.301,11.813 -31.351,27.533l-54.043,423.606c-3.531,26.975 4.837,54.137 22.789,74.601c18.049,20.371 43.909,32.091 71.161,32.091l761.73,0c27.16,0 53.112,-11.72 71.064,-32.184c18.048,-20.371 26.229,-47.533 22.885,-74.508l-54.043,-423.606c-2.05,-15.72 -15.539,-27.533 -31.441,-27.533c-31.817,-0 -57.859,-25.952 -57.859,-57.858l0,-42.044c45.578,-13.674 78.973,-55.439 78.973,-105.297c-0,-60.927 -49.581,-110.598 -110.505,-110.598l-122.041,-0c6.137,-15.627 12.371,-31.254 18.974,-46.975c9.208,1.395 18.514,2.326 28.279,2.326c138.131,-0 332.354,-139.528 516.347,-376.26c8.743,-11.255 8.925,-27.068 0.278,-38.416l-56.183,-74.508l98.043,22.603c12.553,2.884 25.764,-2.139 33.11,-12.836c128.832,-188.456 238.224,-411.327 316.169,-644.618l0.653,-2.883l0.556,-3.069Z" style="fill:#0b0b16;fill-rule:nonzero;"/></g></g></svg>