<?xml version="1.0" encoding="UTF-8" standalone="no"?><!DOCTYPE svg PUBLIC "-//W3C//DTD SVG 1.1//EN" "http://www.w3.org/Graphics/SVG/1.1/DTD/svg11.dtd"><svg width="100%" height="100%" viewBox="0 0 2084 2084" version="1.1" xmlns="http://www.w3.org/2000/svg" xmlns:xlink="http://www.w3.org/1999/xlink" xml:space="preserve" xmlns:serif="http://www.serif.com/" style="fill-rule:evenodd;clip-rule:evenodd;stroke-linejoin:round;stroke-miterlimit:2;"><rect id="画板1" x="0" y="0" width="2083.33" height="2083.33" style="fill:none;"/><clipPath id="_clip1"><rect id="画板11" serif:id="画板1" x="0" y="0" width="2083.33" height="2083.33"/></clipPath><g clip-path="url(#_clip1)"><g><path d="M2020.27,2020.28l-623.54,0l-306.468,-261.92l930.008,-794.861l0,1056.78Zm-1957.12,-1056.78l958.003,818.766l0.094,0.091l278.379,237.924l-1236.48,0l-0,-1056.78Zm284.052,159.696l-267.125,-228.245l267.125,-228.25l-0,456.495Zm1325.77,-788.446l-0,842.394l-631.26,539.645l-631.354,-539.645l-0,-842.394l1262.61,0Zm-631.26,-261.733l232.339,198.578l-464.773,-0l232.434,-198.578Zm961.538,821.934l-267.124,228.245l-0,-456.495l267.124,228.25Zm77.571,-11.813l-1.209,-2.515l-7.162,-9.673l-0.094,-0l-336.23,-287.308l-0,-280.421c-0,-17.394 -14.045,-31.626 -31.531,-31.626l-333.349,-0l-309.072,-264.055c-11.812,-10.048 -29.206,-10.048 -41.019,0l-308.978,264.055l-333.442,-0c-17.393,-0 -31.531,14.232 -31.531,31.626l-0,280.421l-336.139,287.308l-2.231,2.514l-1.303,0.931l-0.743,1.391l-3.07,4.746l-1.767,3.815l-0.558,1.397l-1.395,9.207l-0,1156.86c-0,17.485 14.137,31.62 31.529,31.62l2020.28,0c17.486,0 31.529,-14.135 31.529,-31.62l0,-1156.86l-2.51,-11.813Z" style="fill:#0b0b16;fill-rule:nonzero;"/><path d="M726.037,1210.81l631.353,-0c17.392,-0 31.531,-14.232 31.531,-31.626c-0,-17.485 -14.139,-31.53 -31.531,-31.53l-631.353,0c-17.394,0 -31.624,14.045 -31.624,31.53c-0,17.394 14.23,31.626 31.624,31.626Z" style="fill:#0b0b16;fill-rule:nonzero;"/><path d="M1231.08,1338.32l-378.737,-0c-17.486,-0 -31.624,14.135 -31.624,31.626c-0,17.388 14.138,31.529 31.624,31.529l378.737,0c17.486,0 31.623,-14.141 31.623,-31.529c-0,-17.491 -14.137,-31.626 -31.623,-31.626Z" style="fill:#0b0b16;fill-rule:nonzero;"/><path d="M967.677,698.045c10.325,-1.493 19.161,-7.908 23.81,-17.207l50.227,-101.758l50.224,101.758c4.559,9.299 13.394,15.714 23.718,17.207l112.264,16.366l-81.198,79.153c-7.441,7.346 -10.883,17.763 -9.116,27.998l19.161,111.795l-100.451,-52.829l-14.602,-3.627l-14.697,3.627l-100.451,52.829l19.161,-111.795c1.767,-10.235 -1.674,-20.652 -9.022,-27.998l-81.291,-79.153l112.263,-16.366Zm-86.964,129.189l-27.16,158.487c-2.045,11.904 2.792,23.905 12.557,30.882l18.602,6.046l14.602,-3.627l142.4,-74.782l142.305,74.782c10.697,5.58 23.531,4.649 33.204,-2.419c9.767,-6.977 14.696,-18.978 12.65,-30.882l-27.159,-158.487l115.146,-112.261c8.558,-8.464 11.626,-20.931 7.907,-32.37c-3.722,-11.439 -13.581,-19.721 -25.485,-21.39l-159.141,-23.162l-71.152,-144.261c-10.697,-21.669 -46.041,-21.578 -56.644,0l-71.153,144.261l-159.14,23.162c-11.905,1.669 -21.764,9.951 -25.485,21.39c-3.72,11.439 -0.65,23.906 7.998,32.37l115.148,112.261Z" style="fill:#0b0b16;fill-rule:nonzero;"/></g></g></svg>