<?xml version="1.0" encoding="UTF-8" standalone="no"?><!DOCTYPE svg PUBLIC "-//W3C//DTD SVG 1.1//EN" "http://www.w3.org/Graphics/SVG/1.1/DTD/svg11.dtd"><svg width="100%" height="100%" viewBox="0 0 2084 2084" version="1.1" xmlns="http://www.w3.org/2000/svg" xmlns:xlink="http://www.w3.org/1999/xlink" xml:space="preserve" xmlns:serif="http://www.serif.com/" style="fill-rule:evenodd;clip-rule:evenodd;stroke-linejoin:round;stroke-miterlimit:2;"><rect id="画板1" x="0" y="0" width="2083.33" height="2083.33" style="fill:none;"/><clipPath id="_clip1"><rect id="画板11" serif:id="画板1" x="0" y="0" width="2083.33" height="2083.33"/></clipPath><g clip-path="url(#_clip1)"><g><path d="M1704.71,1352.21c-21.952,-93.658 -55.342,-181.731 -98.405,-262.277c132.998,-26.135 194.107,-97.655 221.355,-148.251c26.226,14.322 63.34,22.786 106.862,22.786c30.79,0 57.851,-4.371 80.546,-11.904c-15.253,103.979 -75.425,299.851 -310.358,399.646Zm-837.428,626.025c-490.886,-0 -804.129,-105.007 -804.129,-177.27l0,-93.284c135.882,95.146 471.541,144.436 804.129,144.436c332.588,-0 668.247,-49.29 804.129,-144.436l-0,93.284c-0,72.263 -313.152,177.27 -804.129,177.27Zm-490.421,-1107.05c81.568,94.215 386.999,102.588 490.421,102.588c194.754,0 416.296,-29.859 482.61,-109.377c195.123,170.668 321.519,442.056 321.519,747.118c-0,72.264 -313.152,177.361 -804.129,177.361c-490.886,-0 -804.129,-105.097 -804.129,-177.361c0,-300.969 123.047,-569.292 313.708,-740.329Zm439.172,-167.875l0,-130.857c0,-25.954 21.208,-47.344 47.247,-47.344c26.232,0 47.434,21.39 47.434,47.344l-0,130.857l-94.681,0Zm-31.618,63.153l157.833,-0c17.387,-0 31.528,-14.044 31.528,-31.534l-0,-49.756c119.419,18.415 230.562,67.427 327.564,139.975c-27.345,32.368 -158.202,85.473 -434.058,85.473c-276.974,-0 -414.434,-47.247 -442.153,-79.337c96.73,-74.216 207.964,-124.999 327.758,-144.902l-0,48.547c-0,17.49 14.044,31.534 31.528,31.534Zm82.867,-661.367c349.238,-0 549.759,266.37 586.401,771.947c-29.018,-30.784 -59.803,-59.241 -92.262,-85.098l-4.927,-3.815c-111.699,-88.078 -241.91,-146.763 -382.718,-166.665l-0,-49.012c-0,-60.831 -49.484,-110.309 -110.496,-110.309c-60.825,0 -110.393,49.478 -110.393,110.309l-0,50.13c-141.649,21.577 -272.507,82.402 -384.115,172.893l-3.815,3.258c-29.388,24.183 -57.572,50.221 -84.167,78.309c36.733,-505.577 237.164,-771.947 586.492,-771.947Zm1067.24,758.182c43.994,-0 72.735,11.444 82.777,18.977c-10.042,7.532 -38.783,18.971 -82.777,18.971c-43.897,-0 -72.541,-11.439 -82.68,-18.971c10.139,-7.533 38.783,-18.977 82.68,-18.977Zm148.717,17.489l-0.557,-2.14c-3.162,-46.321 -62.868,-78.593 -148.16,-78.593c-82.771,0 -141.274,30.506 -147.41,74.688l-0.653,1.669c-0.188,1.209 -27.157,128.07 -214.287,154.858c-15.81,-25.579 -32.737,-50.039 -50.687,-73.756c-26.504,-753.255 -366.721,-915.641 -654.203,-915.641c-287.481,0 -627.512,162.483 -654.203,915.55c-132.629,175.317 -213.078,404.017 -213.078,654.112l-0,189.452c-0,157.827 436.385,240.513 867.281,240.513c430.987,-0 867.372,-82.686 867.372,-240.513l-0,-189.452c-0,-67.245 -5.949,-133.003 -17.109,-196.525c379.369,-153.087 365.881,-530.316 365.694,-534.222Z" style="fill:#0b0b16;fill-rule:nonzero;"/></g></g></svg>