<?xml version="1.0" encoding="UTF-8" standalone="no"?><!DOCTYPE svg PUBLIC "-//W3C//DTD SVG 1.1//EN" "http://www.w3.org/Graphics/SVG/1.1/DTD/svg11.dtd"><svg width="100%" height="100%" viewBox="0 0 2084 2084" version="1.1" xmlns="http://www.w3.org/2000/svg" xmlns:xlink="http://www.w3.org/1999/xlink" xml:space="preserve" xmlns:serif="http://www.serif.com/" style="fill-rule:evenodd;clip-rule:evenodd;stroke-linejoin:round;stroke-miterlimit:2;"><rect id="画板1" x="0" y="0" width="2083.33" height="2083.33" style="fill:none;"/><g id="画板11" serif:id="画板1"><g><path d="M1388.92,677.673c-108.45,-49.575 -227.503,-75.618 -347.3,-75.618c-119.797,0 -238.85,26.043 -347.207,75.618l0,-215.227c0,-84.174 68.456,-152.536 152.537,-152.536l389.341,-0c84.174,-0 152.629,68.362 152.629,152.536l-0,215.227Zm31.53,82.405l16.184,-4.463c9.58,-5.768 15.347,-15.998 15.347,-27.066l-0,-266.103c-0,-118.959 -96.824,-215.69 -215.69,-215.69l-389.341,-0c-118.867,-0 -215.691,96.731 -215.691,215.69l0,266.103c0,11.068 5.86,21.298 15.347,27.066c9.581,5.672 21.3,5.952 31.158,0.743c111.241,-59.62 237.084,-91.057 363.856,-91.057c126.773,0 252.709,31.437 363.949,91.057l14.881,3.72Z" style="fill:#0b0b16;fill-rule:nonzero;"/><path d="M1041.62,2020.27c-425.8,0 -772.17,-346.463 -772.17,-772.17c0,-186.857 67.805,-367.204 190.764,-507.928l7.906,-20.834l-0,-308.98c-0,-191.601 155.699,-347.207 347.207,-347.207l452.68,-0c191.415,-0 347.299,155.606 347.299,347.207l0,308.98l7.813,20.834c122.959,140.724 190.764,321.071 190.764,507.928c0,425.707 -346.462,772.17 -772.263,772.17Zm636.747,-1312.65l0,-297.26c0,-226.387 -184.066,-410.361 -410.36,-410.361l-452.68,-0c-226.294,-0 -410.454,183.974 -410.454,410.361l0,297.26c-128.075,150.863 -198.577,342.37 -198.577,540.482c0,460.586 374.739,835.23 835.324,835.23c460.679,0 835.417,-374.644 835.417,-835.23c0,-198.112 -70.409,-389.619 -198.67,-540.482Z" style="fill:#0b0b16;fill-rule:nonzero;"/><path d="M1629.35,986.465c-7.627,-15.719 -26.508,-22.135 -42.134,-14.696c-15.718,7.627 -22.229,26.509 -14.695,42.228c36.646,75.524 55.248,156.814 55.248,241.267c-0,251.221 -169.371,471.655 -411.942,536.111c-16.835,4.372 -26.973,21.672 -22.508,38.599c3.814,14.045 16.555,23.438 30.507,23.438l8.185,-1.023c270.102,-71.804 458.912,-317.257 458.912,-597.125c-0,-94.219 -20.741,-184.531 -61.573,-268.799Z" style="fill:#0b0b16;fill-rule:nonzero;"/></g></g></svg>