<?xml version="1.0" encoding="UTF-8" standalone="no"?><!DOCTYPE svg PUBLIC "-//W3C//DTD SVG 1.1//EN" "http://www.w3.org/Graphics/SVG/1.1/DTD/svg11.dtd"><svg width="100%" height="100%" viewBox="0 0 2084 2084" version="1.1" xmlns="http://www.w3.org/2000/svg" xmlns:xlink="http://www.w3.org/1999/xlink" xml:space="preserve" xmlns:serif="http://www.serif.com/" style="fill-rule:evenodd;clip-rule:evenodd;stroke-linejoin:round;stroke-miterlimit:2;"><rect id="画板1" x="0" y="0" width="2083.33" height="2083.33" style="fill:none;"/><clipPath id="_clip1"><rect id="画板11" serif:id="画板1" x="0" y="0" width="2083.33" height="2083.33"/></clipPath><g clip-path="url(#_clip1)"><g><path d="M929.78,1079.77c-47.059,-82.867 -117.653,-150.203 -202.848,-193.544c6.976,-49.574 24.182,-103.054 44.925,-158.855c93.562,47.246 157.923,144.067 157.923,255.766l0,96.633Zm-170.946,55.058c-16.927,-60.172 -30.971,-120.254 -34.502,-178.014c110.393,66.218 188.243,181.266 202.843,315.292c-41.292,-60.644 -99.795,-108.725 -168.341,-137.278Zm-38.873,90.962c54.314,179.682 101.282,334.819 -31.068,452.66c-86.03,76.634 -178.383,59.429 -240.604,31.431c-189.361,-84.911 -385.137,-399.833 -385.137,-779.667c0,-379.46 169.828,-645.365 338.259,-740.698c40.458,-23.16 93.659,-43.806 153.462,-43.806c43.529,-0 90.588,10.882 138.765,39.901c178.014,106.584 114.861,270.463 41.667,460.192l-0.091,0.188c-29.484,-8.186 -60.269,-12.744 -92.359,-12.744c-52.083,-0 -94.584,-42.501 -94.584,-94.681c0,-17.393 -14.14,-31.528 -31.528,-31.528c-17.489,0 -31.624,14.135 -31.624,31.528c-0,35.621 12.369,68.177 32.368,94.681l-88.169,-0c-17.394,-0 -31.534,14.044 -31.534,31.528c-0,17.302 14.14,31.528 31.534,31.528l213.537,-0c24.183,-0 47.525,3.258 69.851,8.929c-19.346,52.367 -36.739,104.819 -45.759,155.506c-49.761,-17.297 -102.866,-27.157 -158.389,-27.157l-202.105,-0c-17.484,-0 -31.619,14.231 -31.619,31.528c-0,17.58 14.135,31.533 31.619,31.533l82.776,0c-15.906,23.342 -25.295,51.43 -25.295,81.562c0,17.49 14.135,31.624 31.528,31.624c17.484,0 31.528,-14.134 31.528,-31.624c0,-44.828 36.643,-81.562 81.568,-81.562c53.57,0 104.631,10.508 151.878,28.923l-0.278,4.649c-0,60.547 11.625,121.837 27.344,182.759c-24.092,-4.837 -48.921,-7.442 -74.409,-7.442l-252.605,-0c-17.484,-0 -31.618,14.135 -31.618,31.624c-0,17.388 14.134,31.619 31.618,31.619l84.542,0c-15.9,23.251 -25.295,51.249 -25.295,81.38c0,17.484 14.135,31.715 31.528,31.715c17.394,0 31.625,-14.231 31.625,-31.715c-0,-44.919 36.552,-81.38 81.471,-81.38l48.734,0c32.833,0 64.27,5.024 94.033,14.14c4.275,14.323 8.555,28.736 12.835,42.876Zm74.403,-557.757c72.82,-188.708 155.131,-402.808 -68.267,-536.645c-109.842,-65.849 -236.233,-64.731 -355.839,3.161c-221.451,125.278 -370.258,445.218 -370.258,795.665c0,420.757 217.636,745.443 422.432,837.24c43.619,19.624 86.773,29.388 128.439,29.388c65.384,-0 126.861,-24.086 180.063,-71.242c159.042,-141.552 107.237,-326.542 52.917,-506.508c87.613,56.363 145.929,154.574 145.929,266.273l0,351.468c0,17.49 14.135,31.625 31.619,31.625c17.393,-0 31.534,-14.135 31.534,-31.625l-0,-853.696c-0,-138.674 -81.289,-258.372 -198.569,-315.104Z" style="fill:#0b0b16;fill-rule:nonzero;"/><path d="M1635.04,1841.96c-62.318,27.991 -154.574,45.106 -240.7,-31.534c-132.254,-117.744 -85.382,-272.875 -31.062,-452.472c4.371,-14.226 8.645,-28.645 12.925,-42.967c29.672,-9.207 61.2,-14.14 93.937,-14.14l48.83,-0c44.92,-0 81.471,36.552 81.471,81.567c0,17.303 14.135,31.528 31.619,31.528c17.393,0 31.534,-14.225 31.534,-31.528c-0,-30.319 -9.395,-58.316 -25.392,-81.567l84.633,-0c17.393,-0 31.528,-14.226 31.528,-31.619c0,-17.484 -14.135,-31.625 -31.528,-31.625l-252.695,0c-25.482,0 -50.317,2.697 -74.403,7.442c15.809,-60.825 27.344,-122.206 27.344,-182.753l-0.187,-4.745c47.155,-18.325 98.211,-28.645 151.787,-28.645c45.01,0 81.562,36.456 81.562,81.38c-0,17.484 14.14,31.716 31.533,31.716c17.484,-0 31.619,-14.232 31.619,-31.716c0,-30.228 -9.486,-58.225 -25.391,-81.38l82.867,0c17.393,0 31.534,-14.14 31.534,-31.624c-0,-17.393 -14.141,-31.619 -31.534,-31.619l-202.19,-0c-55.432,-0 -108.543,9.855 -158.299,27.157c-9.116,-50.692 -26.413,-103.144 -45.85,-155.506c22.412,-5.58 45.76,-8.929 69.846,-8.929l213.543,0c17.484,0 31.619,-14.14 31.619,-31.624c-0,-17.394 -14.135,-31.528 -31.619,-31.528l-88.079,-0c19.999,-26.414 32.272,-59.06 32.272,-94.681c-0,-17.297 -14.135,-31.528 -31.528,-31.528c-17.484,0 -31.619,14.231 -31.619,31.528c0,52.271 -42.416,94.681 -94.589,94.681c-31.994,-0 -62.875,4.745 -92.353,12.834l-0.097,-0.187c-73.098,-189.73 -136.25,-353.608 41.666,-460.283c48.275,-28.832 95.334,-39.811 138.766,-39.811c59.803,0 113.004,20.743 153.552,43.625c168.437,95.424 338.265,361.607 338.265,740.885c-0,379.835 -195.872,694.751 -385.137,779.668Zm-478.982,-437.782c14.6,-133.928 92.45,-249.067 202.849,-315.194c-3.446,57.754 -17.49,117.835 -34.509,177.826c-68.545,28.644 -126.952,76.731 -168.34,137.368Zm-2.509,-288.781c-0,-111.983 64.265,-208.707 157.827,-256.044c20.743,55.892 37.948,109.281 45.016,158.945c-85.189,43.154 -155.875,110.678 -202.843,193.545l-0,-96.446Zm559.522,-848.866c-119.606,-67.801 -246.002,-68.92 -355.935,-3.162c-223.308,133.929 -141.087,348.029 -68.171,536.828c-117.279,56.55 -198.568,176.338 -198.568,315.2l-0,853.515c-0,17.484 14.043,31.619 31.527,31.619c17.485,-0 31.625,-14.135 31.625,-31.619l-0,-351.468c-0,-111.705 58.219,-209.826 145.833,-266.28c-54.314,179.966 -106.029,364.956 53.014,506.509c53.104,47.252 114.582,71.247 180.056,71.247c41.576,0 84.821,-9.769 128.445,-29.394c204.705,-91.887 422.432,-416.477 422.432,-837.234c0,-350.446 -148.812,-670.296 -370.258,-795.761Z" style="fill:#0b0b16;fill-rule:nonzero;"/></g></g></svg>