<?xml version="1.0" encoding="UTF-8" standalone="no"?><!DOCTYPE svg PUBLIC "-//W3C//DTD SVG 1.1//EN" "http://www.w3.org/Graphics/SVG/1.1/DTD/svg11.dtd"><svg width="100%" height="100%" viewBox="0 0 2084 2084" version="1.1" xmlns="http://www.w3.org/2000/svg" xmlns:xlink="http://www.w3.org/1999/xlink" xml:space="preserve" xmlns:serif="http://www.serif.com/" style="fill-rule:evenodd;clip-rule:evenodd;stroke-linejoin:round;stroke-miterlimit:2;"><rect id="画板1" x="0" y="0" width="2083.33" height="2083.33" style="fill:none;"/><clipPath id="_clip1"><rect id="画板11" serif:id="画板1" x="0" y="0" width="2083.33" height="2083.33"/></clipPath><g clip-path="url(#_clip1)"><g><path d="M358.815,844.223c-57.013,-22.695 -114.676,-20.089 -162.295,7.533c-15.067,8.651 -20.275,27.9 -11.532,42.966c8.65,15.162 27.994,20.186 43.061,11.625c30.598,-17.574 68.731,-18.874 107.421,-3.44c41.388,16.372 77.846,49.483 102.956,92.637c25.019,43.431 35.342,91.608 28.925,135.505c-6.046,41.479 -26.134,73.756 -56.733,91.427c-13.113,7.624 -27.623,12.182 -43.061,13.579c-17.3,1.765 -30.041,17.109 -28.366,34.502c1.581,16.371 15.345,28.553 31.342,28.553l3.161,-0.187c24.461,-2.322 47.526,-9.577 68.453,-21.764c47.712,-27.435 78.775,-76.169 87.611,-136.806c8.464,-58.037 -4.557,-120.627 -36.644,-176.246c-32.18,-55.619 -79.892,-98.217 -134.299,-119.884Z" style="fill:#0b0b16;fill-rule:nonzero;"/><path d="M320.682,1137.65c-22.042,12.744 -56.175,-3.44 -74.59,-35.246c-18.323,-31.902 -15.345,-69.566 6.789,-82.31l16.834,-4.371l18.323,3.814c15.439,6.233 29.854,19.25 39.433,35.808c18.415,31.994 15.346,69.567 -6.789,82.305Zm61.476,-113.838c-16.834,-29.11 -41.945,-51.521 -70.777,-62.965c-30.97,-12.272 -63.8,-10.598 -90.121,4.559c-52.548,30.318 -65.849,105.936 -29.763,168.526c25.856,44.924 70.313,70.963 112.723,70.963c16.834,-0 33.202,-4.093 48.084,-12.557c52.548,-30.409 65.94,-105.93 29.854,-168.526Z" style="fill:#0b0b16;fill-rule:nonzero;"/><path d="M1943.06,1481.31c-71.707,94.499 -184.243,149.459 -316.962,154.761c-134.485,5.864 -274.179,-40.639 -392.016,-130.113c-117.931,-89.468 -199.96,-211.214 -230.932,-342.632c-30.412,-129.273 -7.812,-252.415 63.988,-346.811c71.707,-94.498 184.243,-149.555 316.868,-154.857l21.577,-0.466c128.161,0 258.833,45.947 370.533,130.579c117.837,89.565 199.868,211.123 230.838,342.632c30.412,129.279 7.812,252.415 -63.894,346.907Zm-874.713,242.839c-196.055,-148.902 -242.929,-400.483 -141.182,-661.452c0.744,37.664 5.394,76.077 14.509,115.047c34.412,145.741 124.627,280.134 254.183,378.435c122.58,93.005 266.831,143.51 408.664,143.51l24.181,-0.466c39.993,-1.578 78.31,-7.533 114.769,-17.018c-223.956,168.242 -478.977,190.75 -675.124,41.944Zm-660.057,-328.958c-159.411,-53.757 -273.343,-161.272 -320.867,-302.828c-102.213,-304.22 126.579,-646.29 520.921,-778.918c109.653,-36.733 217.446,-54.313 318.449,-54.313c268.319,-0 487.719,124.163 560.541,340.679l1.023,4.093c-35.62,-4.836 -71.427,-6.885 -106.955,-5.398c-151.785,6.142 -281.247,70.037 -364.58,179.783c-162.293,213.91 -227.862,441.587 -198.473,637.639c-145.831,26.697 -287.665,20.742 -410.059,-20.737Zm1660.05,-275.297c-34.319,-145.74 -124.627,-279.946 -254.091,-378.435c-78.588,-59.621 -166.107,-101.378 -256.136,-124.073c-3.162,-12.551 -6.789,-25.204 -10.974,-37.573c-111.606,-332.211 -523.805,-472.28 -958.882,-326.074c-427.916,143.878 -674.195,521.013 -560.635,858.81c53.943,160.528 181.917,282.177 360.395,342.445c80.822,27.344 168.99,40.826 260.972,40.826c59.523,-0 120.535,-6.137 182.197,-17.393c30.692,115.887 96.632,218.19 199.124,295.943c100.352,76.264 213.725,112.912 331.005,112.912c218.562,0 450.052,-128.069 632.063,-367.836c83.24,-109.655 109.931,-251.581 74.962,-399.552Z" style="fill:#0b0b16;fill-rule:nonzero;"/><path d="M1586.39,1179.97c-12.555,19.624 -18.88,41.944 -19.252,66.688c-27.529,-4.933 -59.524,-4.376 -90.679,8.646c-1.955,-29.019 -11.348,-54.501 -27.902,-76.169c-16.09,-21.02 -37.016,-35.529 -58.594,-45.48c35.9,-20.368 72.358,-49.296 91.146,-87.982l8.091,-21.395c16.37,9.951 35.528,18.046 56.826,20.93c11.812,1.487 23.53,1.487 34.97,-0.097c-4,22.974 -3.442,48.087 7.626,71.06c6.139,12.738 14.788,23.62 25.949,32.549c-10.416,8.373 -20.183,18.512 -28.181,31.25Zm113.374,-65.57c-20.183,-2.231 -45.945,-8.458 -54.223,-25.573c-12.835,-26.601 10.696,-74.5 19.81,-89.287c8.464,-13.113 5.953,-30.506 -5.952,-40.644c-11.997,-10.32 -29.483,-10.32 -41.386,-0c-21.578,18.698 -42.318,26.509 -63.337,23.813c-43.155,-5.677 -75.707,-52.826 -75.985,-53.292c-9.115,-13.397 -27.065,-17.949 -41.388,-9.951c-14.322,7.714 -20.275,25.295 -13.764,40.179c9.299,21.577 9.579,40.173 0.743,58.497c-24.832,51.617 -114.581,85.66 -147.134,94.402c-15.439,4.092 -25.297,19.067 -23.065,34.78c2.232,15.815 16.276,28.275 31.715,27.162c21.112,-0.374 85.099,6.88 112.723,43.057c17.483,23.07 19.902,56.641 7.161,100.169c-4.185,14.6 2.51,30.041 16.09,37.017l14.136,3.44c9.673,0 19.066,-4.371 25.112,-12.369c50.315,-65.939 121.65,-29.484 129.369,-25.204c11.254,6.324 25.112,5.205 35.156,-2.884c10.137,-8.095 14.23,-21.298 10.603,-33.668c-8.742,-29.109 -7.627,-52.639 3.255,-70.032c18.787,-29.858 61.29,-37.017 61.57,-37.107c15.717,-2.328 27.25,-15.815 26.879,-31.812c-0.28,-15.809 -12.277,-29.019 -28.088,-30.693Z" style="fill:#0b0b16;fill-rule:nonzero;"/></g></g></svg>