<?xml version="1.0" encoding="UTF-8" standalone="no"?><!DOCTYPE svg PUBLIC "-//W3C//DTD SVG 1.1//EN" "http://www.w3.org/Graphics/SVG/1.1/DTD/svg11.dtd"><svg width="100%" height="100%" viewBox="0 0 2084 2084" version="1.1" xmlns="http://www.w3.org/2000/svg" xmlns:xlink="http://www.w3.org/1999/xlink" xml:space="preserve" xmlns:serif="http://www.serif.com/" style="fill-rule:evenodd;clip-rule:evenodd;stroke-linejoin:round;stroke-miterlimit:2;"><rect id="画板1" x="0" y="0" width="2083.33" height="2083.33" style="fill:none;"/><clipPath id="_clip1"><rect id="画板11" serif:id="画板1" x="0" y="0" width="2083.33" height="2083.33"/></clipPath><g clip-path="url(#_clip1)"><g><path d="M1758.87,1446.44l-113.185,0l-0,-1371.36c100.909,41.207 368.482,202.29 368.482,752.32l0,747.944c-58.128,-78.03 -150.76,-128.904 -255.297,-128.904Zm-0,573.651l-1434.41,-0c-140.716,-0 -255.297,-114.394 -255.297,-255.298c-0,-140.716 114.581,-255.297 255.297,-255.297l1434.41,-0c140.716,-0 255.297,114.581 255.297,255.297c0,140.904 -114.581,255.298 -255.297,255.298Zm-895.543,-1063.23c21.671,-5.393 41.201,-16.74 56.641,-32.084c54.685,-54.688 63.986,-163.224 -44.828,-272.038c-111.419,-111.425 -215.678,-163.689 -309.426,-155.509c-53.479,4.746 -91.333,28.553 -113.931,48.086l-79.149,-79.052c22.042,-26.231 70.685,-71.337 150.668,-81.941c138.207,-18.505 314.262,75.334 509.295,270.273l549.936,549.939l0,241.906l-229.722,0c-162.199,-162.298 -372.668,-372.768 -489.484,-489.58Zm757.06,-956.273c-9.301,-1.766 -18.973,0.465 -26.322,6.511c-7.254,5.949 -11.532,14.975 -11.532,24.364l0,1083.79l-505.293,-505.293c-212.425,-212.332 -401.409,-309.151 -562.215,-288.221c-144.25,18.971 -208.423,127.416 -211.029,131.974c-7.161,12.369 -5.114,27.991 5.024,38.129l120.905,120.814c6.511,6.699 15.812,10.042 25.019,9.208c9.302,-0.835 17.765,-5.768 23.158,-13.391c0.278,-0.466 31.437,-42.875 93.192,-48.274c73.381,-6.692 162.943,40.832 259.203,137.186c78.124,78.121 78.03,149.549 44.828,182.66c-22.227,22.23 -61.384,27.435 -99.235,-10.416l-0.094,-0c-12.275,-12.37 -32.274,-12.37 -44.549,-0c-12.369,12.369 -12.369,32.271 -0,44.64l0.093,0l532.081,532.177l-939.164,0c-175.499,0 -318.355,142.76 -318.355,318.353c-0,175.684 142.856,318.54 318.355,318.54l1434.41,0c175.499,0 318.356,-142.856 318.356,-318.54l-0,-937.393c-0,-725.441 -438.146,-822.998 -456.839,-826.813Z" style="fill:#0b0b16;fill-rule:nonzero;"/><path d="M1763.62,566.335c-17.484,0 -31.528,14.135 -31.528,31.528l0,392.574c0,17.484 14.044,31.527 31.528,31.527c17.393,0 31.53,-14.043 31.53,-31.527l0,-392.574c0,-17.393 -14.137,-31.528 -31.53,-31.528Z" style="fill:#0b0b16;fill-rule:nonzero;"/><path d="M1758.87,1827.38c-34.505,-0 -62.593,-28.088 -62.593,-62.59c0,-34.411 28.088,-62.589 62.593,-62.589c34.505,-0 62.499,28.178 62.499,62.589c-0,34.502 -27.994,62.59 -62.499,62.59Zm-0,-188.24c-69.288,-0 -125.742,56.453 -125.742,125.65c0,69.379 56.454,125.838 125.742,125.838c69.288,0 125.651,-56.459 125.651,-125.838c-0,-69.197 -56.363,-125.65 -125.651,-125.65Z" style="fill:#0b0b16;fill-rule:nonzero;"/></g></g></svg>