<?xml version="1.0" encoding="UTF-8" standalone="no"?><!DOCTYPE svg PUBLIC "-//W3C//DTD SVG 1.1//EN" "http://www.w3.org/Graphics/SVG/1.1/DTD/svg11.dtd"><svg width="100%" height="100%" viewBox="0 0 2084 2084" version="1.1" xmlns="http://www.w3.org/2000/svg" xmlns:xlink="http://www.w3.org/1999/xlink" xml:space="preserve" xmlns:serif="http://www.serif.com/" style="fill-rule:evenodd;clip-rule:evenodd;stroke-linejoin:round;stroke-miterlimit:2;"><rect id="画板1" x="0" y="0" width="2083.33" height="2083.33" style="fill:none;"/><clipPath id="_clip1"><rect id="画板11" serif:id="画板1" x="0" y="0" width="2083.33" height="2083.33"/></clipPath><g clip-path="url(#_clip1)"><g><path d="M965.33,312.171c80.541,12.554 155.597,13.019 222.744,1.303l20.09,-2.79c17.205,-1.956 29.668,-17.58 27.715,-34.97c-1.861,-17.3 -17.392,-29.762 -34.97,-27.81l-23.529,3.443c-60.452,10.507 -128.625,9.951 -202.377,-1.584c-192.614,-29.946 -394.897,39.251 -540.637,184.987c-145.83,146.018 -215.026,348.024 -185.078,540.822c2.418,15.531 15.903,26.691 31.156,26.691l4.836,-0.372c17.3,-2.697 29.111,-18.88 26.321,-36.177c-26.786,-172.711 35.714,-354.534 167.408,-486.23c131.602,-131.599 313.331,-194.191 486.321,-167.313Z" style="fill:#0b0b16;fill-rule:nonzero;"/><path d="M1267.59,2010.81c-114.118,-17.858 -220.048,-18.415 -314.633,-2.046c-67.988,11.81 -160.993,14.134 -216.887,-41.666c-55.709,-55.897 -53.385,-148.714 -41.481,-216.608c16.368,-94.864 15.718,-200.703 -2.047,-314.821c-30.877,-198.75 19.624,-405.405 136.345,-578.023c0.094,57.013 12.557,121.558 39.063,192.427c57.291,153.272 170.197,319.098 318.261,467.068c226.279,226.466 478.135,357.043 658.564,357.79c-172.337,116.44 -378.622,166.757 -577.185,135.879Zm-791.189,-425.59c-50.315,-0 -98.398,3.905 -143.879,11.719c-68.079,11.998 -160.989,14.228 -216.793,-41.572c-55.803,-55.803 -53.477,-148.623 -41.665,-216.702c16.461,-94.679 15.716,-200.518 -1.953,-314.633c-39.156,-251.764 51.802,-516.455 243.299,-708.044c191.681,-191.589 456.281,-282.641 708.044,-243.393c114.115,17.58 219.954,18.324 314.818,1.956c67.988,-11.813 160.898,-14.138 216.702,41.572c55.709,55.987 53.385,148.807 41.572,216.886c-16.369,94.679 -15.719,200.609 1.953,314.634c11.253,71.984 10.788,144.808 1.209,216.699c-112.722,-92.074 -230.371,-163.036 -341.325,-204.608c-161.549,-60.362 -291.848,-51.989 -367.181,23.345c-205.727,205.632 -303.29,490.782 -261.065,762.356c8.277,53.292 12.648,104.352 12.929,153.179c-57.756,-8.836 -113.467,-13.394 -166.665,-13.394Zm1499.23,182.103c-121.927,121.93 -463.067,-13.022 -744.779,-294.825c-141.832,-141.644 -249.623,-299.474 -303.752,-444.467c-50.408,-134.949 -47.152,-244.322 8.836,-300.218c29.574,-29.669 74.124,-44.55 129.277,-44.55c49.477,0 107.42,11.813 171.034,35.62c144.9,54.129 302.821,162.015 444.561,303.755c281.71,281.71 416.752,622.85 294.823,744.685Zm-250.179,-789.422c-22.508,-22.507 -45.575,-43.806 -68.638,-64.639c16.462,-90.864 18.414,-183.868 4.183,-275.386c-16.74,-107.139 -17.484,-206.189 -2.231,-294.079c20.555,-118.861 0.094,-212.887 -59.152,-272.13c-59.428,-59.431 -153.457,-79.892 -272.221,-59.337c-87.89,15.253 -186.847,14.509 -294.267,-2.234c-271.386,-42.131 -556.539,55.432 -762.358,261.158c-205.726,205.817 -303.381,490.876 -261.064,762.45c16.648,107.327 17.392,206.283 2.139,294.267c-20.553,118.58 -0.092,212.7 59.337,272.13c59.244,59.152 153.272,79.704 272.038,59.152c87.982,-15.252 187.032,-14.509 294.174,2.231l3.627,0.372c-1.674,26.691 -4.371,52.826 -8.651,77.752c-20.645,118.767 -0.184,212.887 59.153,272.037c59.337,59.43 153.363,79.985 272.224,59.336c87.981,-15.159 186.937,-14.415 294.172,2.141c41.76,6.51 83.704,9.766 125.835,9.766c231.487,-0 462.417,-96.725 636.522,-270.831c151.226,-151.223 21.67,-517.754 -294.822,-834.156Z" style="fill:#0b0b16;fill-rule:nonzero;"/><path d="M1351.39,955.76l6.418,9.395l42.315,182.01l-266.363,-266.272l-2.512,-19.437l12.463,-7.814l3.812,0.372c54.594,12.741 126.953,48.827 203.867,101.562l0,0.184Zm101.281,91.146l18.88,1.487c31.993,27.531 63.986,57.2 95.051,88.262c30.971,30.877 60.546,62.87 88.262,95.238l1.581,18.877c-2.14,3.537 -7.161,9.21 -16.928,7.07l-157.456,-36.645l-17.205,-74.217l-19.346,-83.145c-2.14,-9.673 3.44,-14.881 7.161,-16.927Zm295.01,305.054c52.826,76.915 88.821,149.273 101.562,203.774c2.231,9.392 -3.721,14.134 -7.442,16.368l-19.343,-2.605l-266.272,-266.27l69.009,15.997l112.907,26.225l9.579,6.511Zm32.646,281.619c-2.14,3.718 -7.348,9.392 -16.278,7.346c-54.594,-12.741 -126.95,-48.64 -203.77,-101.559l-6.511,-9.582l-42.319,-181.823l266.366,266.272l2.512,19.346Zm-321.426,-185.359l-18.786,-1.674c-32.178,-27.622 -64.264,-57.197 -95.142,-88.075c-31.065,-31.155 -60.733,-63.151 -88.262,-95.238l-1.674,-18.88l12.928,-7.624l4.184,0.557l48.736,11.253l108.629,25.298l36.551,157.271c2.231,9.858 -3.536,14.881 -7.164,17.112Zm-295.01,-305.148c-52.732,-76.914 -88.911,-149.179 -101.559,-203.774l0,-0.09c-2.14,-9.301 3.628,-14.138 7.439,-16.184l8.464,-2.325l10.882,4.93l266.363,266.27l-69.1,-16.09l-0,-0.091l-112.909,-26.135l-9.58,-6.511Zm-87.887,-312.309c-4.836,8.929 -7.72,18.321 -9.207,27.903c-9.395,1.394 -18.88,4.277 -27.716,9.207c-30.877,17.206 -46.224,51.524 -38.226,85.657c14.603,63.057 53.014,140.9 111.048,225.256c11.16,16.368 27.994,27.809 47.246,32.18l37.854,8.927c-13.022,27.903 -8.93,60.268 11.81,84.45c28.553,33.202 59.337,66.497 91.517,98.584c32.087,32.18 65.289,62.871 98.678,91.608c14.975,12.835 33.108,19.439 51.432,19.439c11.16,0 22.32,-3.255 32.921,-8.185l8.836,38.319c4.558,19.437 15.996,36.177 32.274,47.431c84.447,57.943 162.199,96.26 225.256,110.956l17.95,2.047c27.809,-0 53.663,-14.975 67.8,-40.366c5.024,-9.02 7.905,-18.509 9.208,-28.179c9.485,-1.396 18.88,-3.999 27.715,-8.744c30.878,-17.206 46.315,-51.711 38.317,-85.844c-14.694,-62.87 -53.01,-140.806 -111.047,-225.256c-11.16,-16.181 -27.901,-27.622 -47.246,-32.178l-37.851,-8.745c13.112,-28.084 8.926,-60.358 -11.813,-84.447c-28.738,-33.573 -59.431,-66.685 -91.517,-98.678c-32.178,-32.271 -65.474,-63.055 -98.676,-91.608c-24.182,-20.555 -56.456,-24.741 -84.45,-11.719l-8.742,-37.76c-4.558,-19.437 -15.996,-36.364 -32.271,-47.431c-84.45,-57.943 -162.295,-96.353 -225.165,-110.956c-34.224,-7.998 -68.729,7.254 -85.935,38.132Z" style="fill:#0b0b16;fill-rule:nonzero;"/></g></g></svg>