<?xml version="1.0" encoding="UTF-8" standalone="no"?><!DOCTYPE svg PUBLIC "-//W3C//DTD SVG 1.1//EN" "http://www.w3.org/Graphics/SVG/1.1/DTD/svg11.dtd"><svg width="100%" height="100%" viewBox="0 0 2084 2084" version="1.1" xmlns="http://www.w3.org/2000/svg" xmlns:xlink="http://www.w3.org/1999/xlink" xml:space="preserve" xmlns:serif="http://www.serif.com/" style="fill-rule:evenodd;clip-rule:evenodd;stroke-linejoin:round;stroke-miterlimit:2;"><rect id="画板1" x="0" y="0" width="2083.33" height="2083.33" style="fill:none;"/><clipPath id="_clip1"><rect id="画板11" serif:id="画板1" x="0" y="0" width="2083.33" height="2083.33"/></clipPath><g clip-path="url(#_clip1)"><g><path d="M757.482,2020.27l-378.822,0c-69.57,0 -126.211,-56.733 -126.211,-126.398l-0,-507.635l631.337,0l0,507.635c0,69.665 -56.642,126.398 -126.304,126.398Zm-505.033,-782.008l631.337,-0l0,84.821l-631.337,0l-0,-84.821Zm99.145,-464.761l432.952,-0l-0,401.7l-432.952,0l0,-401.7Zm78.498,-436.207c19.719,9.579 42.505,14.416 67.246,14.416c58.315,-0 126.119,-25.67 182.667,-73.849c9.58,-8.092 18.044,-16.553 26.136,-25.298l0,457.784l-276.049,-0l0,-373.053Zm66.966,-215.22c47.155,-40.273 101.006,-58.783 142.024,-58.783c21.671,0 39.714,5.118 51.34,14.976c10.417,8.929 15.719,21.299 15.719,37.111c0,35.341 -25.67,79.242 -67.059,114.492c-71.988,61.292 -159.694,72.174 -193.271,43.526c-10.51,-8.835 -15.719,-21.205 -15.719,-36.921c0,-35.531 25.671,-79.338 66.966,-114.401Zm418.257,1053.13l-67.616,0l0,-433.138c0,-17.485 -14.138,-31.716 -31.716,-31.716l-46.691,-0l0,-583.53l-0.65,-2.79l0.65,-8.649c0,-34.043 -13.485,-64.269 -37.946,-85.196c-62.873,-53.387 -183.691,-34.228 -275.21,43.807c-53.573,45.573 -86.126,103.147 -88.731,155.603l-0.557,3.162l-0,477.593l-46.784,-0c-17.484,-0 -31.622,14.231 -31.622,31.716l-0,433.138l-67.617,0c-17.485,0 -31.529,14.138 -31.529,31.623l0,687.048c0,104.449 84.916,189.458 189.364,189.458l378.822,0c104.446,0 189.362,-85.009 189.362,-189.458l-0,-687.048c-0,-17.485 -14.135,-31.623 -31.529,-31.623Z" style="fill:#0b0b16;fill-rule:nonzero;"/><path d="M1704.67,1590.3l-378.82,0c-69.663,0 -126.305,-56.736 -126.305,-126.304l-0,-835.49l631.336,0l0,835.49c0,69.568 -56.642,126.304 -126.211,126.304Zm126.211,-1109.68l0,84.729l-631.336,-0l-0,-84.729l631.336,0Zm31.623,-63.153l-694.488,-0c-17.487,-0 -31.716,14.137 -31.716,31.528l0,1015c0,104.446 85.1,189.362 189.55,189.362l378.82,-0c104.447,-0 189.365,-84.916 189.365,-189.362l0,-1015c0,-17.391 -14.138,-31.528 -31.531,-31.528Z" style="fill:#0b0b16;fill-rule:nonzero;"/></g></g></svg>