<?xml version="1.0" encoding="UTF-8" standalone="no"?><!DOCTYPE svg PUBLIC "-//W3C//DTD SVG 1.1//EN" "http://www.w3.org/Graphics/SVG/1.1/DTD/svg11.dtd"><svg width="100%" height="100%" viewBox="0 0 2084 2084" version="1.1" xmlns="http://www.w3.org/2000/svg" xmlns:xlink="http://www.w3.org/1999/xlink" xml:space="preserve" xmlns:serif="http://www.serif.com/" style="fill-rule:evenodd;clip-rule:evenodd;stroke-linejoin:round;stroke-miterlimit:2;"><rect id="画板1" x="0" y="0" width="2083.33" height="2083.33" style="fill:none;"/><g id="画板11" serif:id="画板1"><g><path d="M1995.66,696.286c-128.246,271.374 -350.895,627.105 -816.179,645.519c174.843,-248.124 205.257,-531.504 93.279,-862.214c163.962,-121.462 519.88,-129.738 676.212,-10.694c75.24,57.008 90.867,133.735 46.688,227.389Zm-934.474,694.251c-140.064,159.403 -627.389,399.722 -827.622,408.367c-41.381,1.772 -55.146,-7.067 -59.148,-10.972c-57.286,-54.964 -150.662,-473.748 -94.21,-869.559c27.717,-193.354 102.583,-445.661 302.907,-550.475c114.577,-59.897 231.203,-84.447 340.569,-84.447c212.602,-0 397.395,92.91 484.164,200.233c124.993,355.634 77.005,652.309 -146.66,906.853Zm926.198,-971.955c-179.679,-136.618 -556.611,-129.92 -746.984,6.698c-156.526,-170.568 -532.339,-298.445 -886.492,-113.368c-177.352,92.717 -293.604,299.371 -336.199,597.623c-55.52,388.841 29.852,844.174 113.09,923.876c19.901,19.345 50.315,28.921 92.445,28.921l12.834,-0.369c216.411,-9.207 721.782,-258.172 872.443,-429.665c7.629,-8.742 14.696,-17.58 21.854,-26.509l11.722,0.188c526.662,-0 771.722,-388.376 910.667,-682.723c57.008,-120.997 33.757,-229.063 -65.38,-304.672Z" style="fill:#0b0b16;fill-rule:nonzero;"/></g></g></svg>