<?xml version="1.0" encoding="UTF-8" standalone="no"?><!DOCTYPE svg PUBLIC "-//W3C//DTD SVG 1.1//EN" "http://www.w3.org/Graphics/SVG/1.1/DTD/svg11.dtd"><svg width="100%" height="100%" viewBox="0 0 2084 2084" version="1.1" xmlns="http://www.w3.org/2000/svg" xmlns:xlink="http://www.w3.org/1999/xlink" xml:space="preserve" xmlns:serif="http://www.serif.com/" style="fill-rule:evenodd;clip-rule:evenodd;stroke-linejoin:round;stroke-miterlimit:2;"><rect id="画板1" x="0" y="0" width="2083.33" height="2083.33" style="fill:none;"/><clipPath id="_clip1"><rect id="画板11" serif:id="画板1" x="0" y="0" width="2083.33" height="2083.33"/></clipPath><g clip-path="url(#_clip1)"><g><path d="M1677.94,660.044c0,351.397 -284.853,636.186 -636.186,636.186c-351.367,0 -636.187,-284.789 -636.187,-636.186c-0,-351.303 284.82,-636.187 636.187,-636.187c351.333,-0 636.186,284.884 636.186,636.187Z" style="fill:#fff;fill-rule:nonzero;"/><path d="M1041.76,47.714c-337.625,-0 -612.33,274.737 -612.33,612.33c-0,337.687 274.705,612.329 612.33,612.329c337.622,0 612.296,-274.642 612.296,-612.329c0,-337.593 -274.674,-612.33 -612.296,-612.33Zm-0,1272.37c-363.932,0 -660.044,-296.081 -660.044,-660.043c-0,-363.931 296.112,-660.044 660.044,-660.044c363.93,0 660.01,296.113 660.01,660.044c0,363.962 -296.08,660.043 -660.01,660.043Z" style="fill-rule:nonzero;"/><path d="M1504.42,660.044c-0,255.556 -207.143,462.73 -462.666,462.73c-255.558,-0 -462.7,-207.174 -462.7,-462.73c0,-255.525 207.142,-462.635 462.7,-462.635c255.523,-0 462.666,207.11 462.666,462.635Z" style="fill:#fff;fill-rule:nonzero;"/><path d="M1041.76,221.266c-241.976,-0 -438.843,196.867 -438.843,438.778c0,242.005 196.867,438.873 438.843,438.873c241.973,-0 438.809,-196.868 438.809,-438.873c-0,-241.911 -196.836,-438.778 -438.809,-438.778Zm-0,925.365c-268.281,-0 -486.557,-218.244 -486.557,-486.587c0,-268.248 218.276,-486.492 486.557,-486.492c268.278,-0 486.523,218.244 486.523,486.492c-0,268.343 -218.245,486.587 -486.523,486.587Z" style="fill-rule:nonzero;"/><path d="M1353.77,835.949c-3.498,0 -7.092,-0.827 -10.433,-2.417c-11.865,-5.79 -16.763,-20.072 -11.007,-31.937c21.599,-44.247 32.575,-91.897 32.575,-141.551c-0,-49.559 -10.945,-97.146 -32.511,-141.393c-5.756,-11.865 -0.858,-26.083 11.007,-31.873c11.864,-5.757 26.148,-0.859 31.904,10.942c24.748,50.832 37.314,105.417 37.314,162.324c-0,56.97 -12.597,111.65 -37.378,162.482c-4.166,8.493 -12.627,13.423 -21.471,13.423Z" style="fill-rule:nonzero;"/><path d="M729.642,835.949c-8.812,0 -17.337,-4.994 -21.44,-13.423c-24.779,-50.768 -37.313,-105.448 -37.313,-162.355c-0,-56.907 12.565,-111.556 37.377,-162.451c5.79,-11.865 20.071,-16.763 31.872,-10.942c11.866,5.79 16.765,20.072 11.006,31.873c-21.597,44.31 -32.541,91.897 -32.541,141.52c-0,49.654 10.911,97.241 32.479,141.424c5.756,11.865 0.858,26.147 -10.975,31.937c-3.373,1.59 -6.935,2.417 -10.465,2.417Z" style="fill-rule:nonzero;"/><path d="M1041.76,1185.73c13.169,-0 23.857,10.688 23.857,23.857c-0,13.168 -10.688,23.857 -23.857,23.857c-13.202,-0 -23.857,-10.689 -23.857,-23.857c-0,-13.169 10.655,-23.857 23.857,-23.857Z" style="fill-rule:nonzero;"/><path d="M1041.76,86.744c13.169,-0 23.857,10.688 23.857,23.857c-0,13.169 -10.688,23.857 -23.857,23.857c-13.202,-0 -23.857,-10.688 -23.857,-23.857c-0,-13.169 10.655,-23.857 23.857,-23.857Z" style="fill-rule:nonzero;"/><path d="M1567.37,660.044c-0,-13.169 10.687,-23.857 23.857,-23.857c13.169,-0 23.857,10.688 23.857,23.857c-0,13.2 -10.688,23.857 -23.857,23.857c-13.17,-0 -23.857,-10.657 -23.857,-23.857Z" style="fill-rule:nonzero;"/><path d="M468.392,660.044c-0,-13.169 10.688,-23.857 23.857,-23.857c13.2,-0 23.857,10.688 23.857,23.857c-0,13.2 -10.657,23.857 -23.857,23.857c-13.169,-0 -23.857,-10.657 -23.857,-23.857Z" style="fill-rule:nonzero;"/><path d="M1413.41,1031.77c9.321,-9.32 24.429,-9.32 33.75,0c9.32,9.32 9.32,24.43 0,33.75c-9.321,9.32 -24.429,9.32 -33.75,0c-9.288,-9.32 -9.288,-24.43 -0,-33.75Z" style="fill-rule:nonzero;"/><path d="M636.313,254.665c9.321,-9.32 24.43,-9.32 33.749,0c9.321,9.321 9.321,24.43 -0,33.75c-9.319,9.32 -24.428,9.32 -33.749,0c-9.288,-9.32 -9.288,-24.429 -0,-33.75Z" style="fill-rule:nonzero;"/><path d="M1413.41,288.415c-9.288,-9.32 -9.288,-24.429 -0,-33.75c9.321,-9.32 24.429,-9.32 33.75,0c9.32,9.321 9.32,24.43 0,33.75c-9.321,9.32 -24.429,9.32 -33.75,0Z" style="fill-rule:nonzero;"/><path d="M636.313,1065.52c-9.288,-9.32 -9.288,-24.43 -0,-33.75c9.321,-9.32 24.43,-9.32 33.749,0c9.321,9.32 9.321,24.43 -0,33.75c-9.319,9.32 -24.428,9.32 -33.749,0Z" style="fill-rule:nonzero;"/><path d="M1527.39,861.238c5.026,-12.183 18.989,-17.973 31.141,-12.947c12.183,5.058 17.941,19.022 12.915,31.205c-5.027,12.183 -18.99,17.941 -31.173,12.915c-12.182,-5.026 -17.941,-19.022 -12.883,-31.173Z" style="fill-rule:nonzero;"/><path d="M512.034,440.686c5.058,-12.183 19.021,-17.94 31.173,-12.914c12.183,5.025 17.972,18.99 12.915,31.173c-5.027,12.183 -18.99,17.972 -31.173,12.915c-12.152,-5.09 -17.941,-18.991 -12.915,-31.174Z" style="fill-rule:nonzero;"/><path d="M1242.89,174.474c-12.152,-5.026 -17.941,-19.022 -12.915,-31.205c5.058,-12.151 19.021,-17.941 31.173,-12.915c12.183,5.09 17.972,19.023 12.914,31.205c-5.026,12.152 -18.989,17.941 -31.172,12.915Z" style="fill-rule:nonzero;"/><path d="M822.335,1189.76c-12.183,-5.026 -17.942,-18.958 -12.915,-31.141c5.024,-12.183 18.989,-17.94 31.172,-12.915c12.183,5.026 17.973,19.022 12.915,31.174c-5.058,12.183 -18.99,17.972 -31.172,12.882Z" style="fill-rule:nonzero;"/><path d="M1527.39,458.945c-5.058,-12.183 0.701,-26.148 12.883,-31.173c12.183,-5.026 26.146,0.731 31.173,12.914c5.026,12.183 -0.732,26.084 -12.915,31.174c-12.152,5.057 -26.115,-0.732 -31.141,-12.915Z" style="fill-rule:nonzero;"/><path d="M512.034,879.496c-5.026,-12.183 0.763,-26.147 12.915,-31.205c12.183,-5.026 26.146,0.764 31.173,12.947c5.057,12.151 -0.732,26.147 -12.915,31.173c-12.152,5.026 -26.115,-0.732 -31.173,-12.915Z" style="fill-rule:nonzero;"/><path d="M840.592,174.474c-12.183,5.026 -26.148,-0.763 -31.172,-12.915c-5.027,-12.182 0.732,-26.115 12.915,-31.205c12.182,-5.026 26.114,0.764 31.172,12.915c5.058,12.183 -0.732,26.179 -12.915,31.205Z" style="fill-rule:nonzero;"/><path d="M1261.14,1189.76c-12.152,5.09 -26.115,-0.699 -31.173,-12.882c-5.026,-12.152 0.763,-26.148 12.915,-31.174c12.183,-5.025 26.146,0.732 31.172,12.915c5.058,12.183 -0.731,26.115 -12.914,31.141Z" style="fill-rule:nonzero;"/><path d="M1042.04,958.638c-81.56,-0 -153.511,-39.953 -183.317,-101.822c-5.726,-11.865 -0.732,-26.147 11.132,-31.873c11.834,-5.726 26.084,-0.732 31.843,11.197c21.566,44.724 77.964,74.784 140.342,74.784c82.354,-0 149.345,-50.863 149.345,-113.496c0,-73.193 -53.249,-113.527 -149.949,-113.527c-123.389,-0 -197.059,-60.248 -197.059,-161.21c0,-88.907 88.398,-161.21 197.059,-161.21c81.558,0 153.512,40.016 183.348,101.886c5.726,11.864 0.732,26.083 -11.132,31.809c-11.929,5.725 -26.148,0.731 -31.873,-11.134c-21.566,-44.787 -77.965,-74.847 -140.343,-74.847c-82.354,0 -149.345,50.927 -149.345,113.496c0,73.193 53.057,113.496 149.345,113.496c145.75,-0 197.663,83.34 197.663,161.241c0,88.907 -88.398,161.21 -197.059,161.21Z" style="fill-rule:nonzero;"/><path d="M1041.5,1045.38c-13.169,-0 -23.857,-10.688 -23.857,-23.857l0,-722.931c0,-13.169 10.688,-23.857 23.857,-23.857c13.169,-0 23.857,10.688 23.857,23.857l0,722.931c0,13.169 -10.688,23.857 -23.857,23.857Z" style="fill-rule:nonzero;"/><path d="M1909.54,643.789c34.514,22.171 54.459,61.137 52.263,102.14l-24.492,455l-209.242,-30.727l16.668,-150.808c36.644,-172.216 19.372,-291.819 44.819,-350.699c23.444,-54.425 80.127,-55.348 119.984,-24.906Z" style="fill:#fff;fill-rule:nonzero;"/><path d="M1754.28,1149.88l160.637,23.666l23.063,-428.916c1.716,-32.383 -14.091,-63.333 -41.352,-80.764c-0.541,-0.382 -1.05,-0.764 -1.592,-1.145c-16.826,-12.915 -36.643,-18.005 -52.93,-13.774c-13.519,3.531 -23.824,13.36 -30.664,29.138c-10.401,24.238 -12.787,64.922 -15.777,116.485c-3.562,61.392 -8.016,137.798 -27.612,229.823l-13.773,125.487Zm183.032,74.911c-1.145,0 -2.322,-0.063 -3.467,-0.222l-209.275,-30.823c-12.692,-1.877 -21.63,-13.488 -20.23,-26.211l16.667,-150.745c19.213,-90.815 23.541,-165.25 27.006,-225.019c3.278,-56.239 5.854,-100.645 19.627,-132.581c12.565,-29.138 34.737,-49.209 62.411,-56.398c30.155,-7.825 64.89,0.19 93.17,21.408c41.16,26.846 65.05,73.893 62.409,122.974l-24.494,455.065c-0.349,6.711 -3.529,12.946 -8.715,17.209c-4.295,3.499 -9.638,5.343 -15.109,5.343Z" style="fill-rule:nonzero;"/><path d="M1935.57,581.475c-55.635,27.387 1.59,197.44 -79.015,537.513c2.798,-48.318 -13.71,-73.32 -36.072,-85.121c-100.771,-53.344 -136.176,38.839 -136.176,38.839c-200.779,464.83 -153.735,64.191 -437.027,691.535l405.312,180.74c0,0 543.941,-587.55 374.238,-1291.75c-0,0 -18.545,-107.611 -91.26,-71.761Z" style="fill:#fff;fill-rule:nonzero;"/><path d="M1935.57,581.475l0.285,-0l-0.285,-0Zm-656.64,1170.71l367.333,163.85c75.992,-88.907 508.536,-629.92 357.411,-1257.23c-2.99,-16.382 -13.997,-50.004 -31.142,-58.688c-2.545,-1.304 -10.369,-5.217 -26.433,2.735c-13.138,6.521 -14.697,58.943 -16.352,114.482c-2.607,89.161 -6.552,223.97 -49.971,407.128c-2.864,12.055 -14.41,19.69 -26.657,18.131c-12.247,-1.781 -21.089,-12.66 -20.359,-24.97c2.769,-48.764 -16.953,-59.261 -23.443,-62.665c-25.765,-13.677 -47.968,-17.272 -65.972,-10.624c-25.447,9.289 -36.707,36.772 -36.836,37.026c-96.286,223.015 -137.733,253.171 -185.701,288.065c-47.11,34.322 -100.423,73.13 -241.878,382.762Zm373.662,216.653c-3.275,0 -6.583,-0.699 -9.732,-2.099l-405.315,-180.741c-5.789,-2.544 -10.305,-7.347 -12.565,-13.296c-2.258,-5.916 -2.068,-12.501 0.541,-18.258c154.116,-341.283 214.205,-385.021 267.231,-423.605c42.307,-30.728 78.855,-57.321 169.67,-267.644c0.35,-0.986 18.196,-46.346 63.842,-63.428c31.427,-11.738 66.894,-7.38 105.384,12.978c6.617,3.563 13.519,8.207 19.976,14.537c25.288,-135.349 28.311,-238.792 30.442,-311.381c2.577,-88.144 4.008,-136.685 42.942,-155.866c31.111,-15.364 54.776,-9.765 69.218,-2.417c42.973,21.916 54.902,84.485 56.142,91.579c170.372,706.867 -374.744,1306.03 -380.279,1312.01c-4.613,4.962 -11.006,7.634 -17.497,7.634Z" style="fill-rule:nonzero;"/><path d="M1705.93,1490.71c-4.262,0 -8.523,-1.113 -12.404,-3.467c-11.261,-6.902 -14.824,-21.567 -7.953,-32.827c117.122,-191.842 144.542,-291.183 146.895,-340.773c0.637,-13.17 12.088,-23.857 24.97,-22.68c13.169,0.636 23.317,11.801 22.68,24.97c-3.817,80.159 -55.571,202.435 -153.83,363.358c-4.485,7.411 -12.342,11.419 -20.358,11.419Z" style="fill-rule:nonzero;"/><path d="M173.806,640.608c-34.514,22.171 -54.459,61.201 -52.263,102.14l24.461,455.096l209.273,-30.824l-16.668,-150.776c-36.677,-172.152 -19.403,-291.755 -44.819,-350.729c-23.475,-54.426 -80.16,-55.285 -119.984,-24.907Z" style="fill:#fff;fill-rule:nonzero;"/><path d="M173.965,643.789l0.285,0l-0.285,0Zm55.633,3.721c-13.518,0 -28.213,5.281 -41.161,15.206c-0.509,0.381 -1.049,0.763 -1.59,1.145c-27.261,17.431 -43.07,48.381 -41.321,80.764l23.063,428.916l160.606,-23.666l-14.156,-127.873c-19.213,-89.639 -23.635,-166.045 -27.198,-227.437c-3.021,-51.563 -5.376,-92.247 -15.808,-116.485c-6.808,-15.778 -17.114,-25.607 -30.665,-29.138c-3.753,-0.986 -7.698,-1.432 -11.77,-1.432Zm-83.435,577.276c-5.471,0 -10.816,-1.844 -15.078,-5.343c-5.216,-4.263 -8.397,-10.498 -8.748,-17.209l-24.461,-455.065c-2.64,-49.081 21.25,-96.128 62.378,-122.974c28.28,-21.218 63.046,-29.233 93.201,-21.408c27.643,7.189 49.815,27.26 62.378,56.398c13.775,31.936 16.352,76.342 19.627,132.581c3.467,59.769 7.793,134.204 26.625,222.665l17.049,153.099c1.433,12.723 -7.506,24.334 -20.231,26.211l-209.273,30.823c-1.145,0.159 -2.322,0.222 -3.467,0.222Z" style="fill-rule:nonzero;"/><path d="M147.945,581.475c55.602,27.387 -1.623,197.44 78.982,537.513c-2.767,-48.318 13.709,-73.32 36.071,-85.121c100.773,-53.344 136.176,38.839 136.176,38.839c200.781,464.83 153.734,64.191 437.029,691.535l-405.315,180.74c-0,0 -543.939,-587.55 -374.237,-1291.75c-0,0 18.578,-107.611 91.294,-71.761Z" style="fill:#fff;fill-rule:nonzero;"/><path d="M120.048,597.984c-4.104,-0 -6.966,1.049 -9.129,2.194c-17.337,8.811 -28.216,42.307 -30.761,57.162c-151.572,629.22 281.003,1169.79 357.092,1258.69l367.302,-163.85c-141.423,-309.632 -194.737,-348.44 -241.878,-382.762c-47.968,-34.894 -89.415,-65.05 -185.385,-287.27c-0.413,-1.049 -11.705,-28.532 -37.152,-37.821c-18.036,-6.648 -40.208,-2.99 -65.974,10.624c-6.488,3.404 -26.21,13.901 -23.41,62.665c0.699,12.31 -8.145,23.189 -20.359,24.97c-12.501,1.495 -23.826,-6.076 -26.687,-18.131c-43.42,-183.158 -47.365,-317.967 -49.974,-407.128c-1.621,-55.539 -3.18,-107.961 -16.349,-114.482c-7.444,-3.689 -13.041,-4.866 -17.336,-4.866Zm310.84,1370.85c-6.489,0 -12.882,-2.672 -17.495,-7.634c-5.535,-5.98 -550.65,-605.14 -379.93,-1313.57c0.89,-5.535 12.818,-68.104 55.793,-90.02c14.41,-7.348 38.139,-12.947 69.218,2.417c38.935,19.181 40.365,67.722 42.942,155.866c2.131,72.589 5.185,176.032 30.442,311.381c6.489,-6.33 13.36,-10.974 19.976,-14.537c38.521,-20.358 74.019,-24.779 105.384,-12.978c45.646,17.082 63.491,62.442 64.223,64.382c90.465,209.369 127.014,235.962 169.321,266.69c52.994,38.584 113.082,82.322 267.199,423.605c2.607,5.757 2.799,12.342 0.573,18.258c-2.291,5.949 -6.807,10.752 -12.597,13.296l-405.314,180.741c-3.15,1.4 -6.458,2.099 -9.735,2.099Z" style="fill-rule:nonzero;"/><path d="M377.577,1490.71c-8.05,0 -15.874,-4.008 -20.392,-11.419c-98.226,-160.923 -150.011,-283.199 -153.83,-363.358c-0.635,-13.169 9.512,-24.334 22.681,-24.97c13.138,-1.241 24.334,9.51 24.971,22.68c2.384,49.59 29.773,148.931 146.895,340.773c6.871,11.26 3.308,25.925 -7.921,32.827c-3.879,2.354 -8.174,3.467 -12.404,3.467Z" style="fill-rule:nonzero;"/><path d="M1785.58,302.252l-44.056,0c-13.169,0 -23.857,-10.688 -23.857,-23.857c-0,-13.169 10.688,-23.857 23.857,-23.857l44.056,0c13.169,0 23.857,10.688 23.857,23.857c0,13.169 -10.688,23.857 -23.857,23.857Z" style="fill-rule:nonzero;"/><path d="M1932.38,302.252l-44.023,0c-13.169,0 -23.857,-10.688 -23.857,-23.857c-0,-13.169 10.688,-23.857 23.857,-23.857l44.023,0c13.169,0 23.857,10.688 23.857,23.857c-0,13.169 -10.688,23.857 -23.857,23.857Z" style="fill-rule:nonzero;"/><path d="M1836.96,397.68c-13.169,0 -23.857,-10.688 -23.857,-23.857l-0,-44.024c-0,-13.169 10.688,-23.857 23.857,-23.857c13.169,0 23.857,10.688 23.857,23.857l-0,44.024c-0,13.169 -10.688,23.857 -23.857,23.857Z" style="fill-rule:nonzero;"/><path d="M1836.96,250.816c-13.169,0 -23.857,-10.687 -23.857,-23.857l-0,-43.992c-0,-13.169 10.688,-23.857 23.857,-23.857c13.169,0 23.857,10.688 23.857,23.857l-0,43.992c-0,13.17 -10.688,23.857 -23.857,23.857Z" style="fill-rule:nonzero;"/><path d="M354.195,143.142l-44.054,-0c-13.169,-0 -23.857,-10.656 -23.857,-23.857c-0,-13.169 10.688,-23.857 23.857,-23.857l44.054,-0c13.169,-0 23.857,10.688 23.857,23.857c0,13.201 -10.688,23.857 -23.857,23.857Z" style="fill-rule:nonzero;"/><path d="M500.997,143.142l-44.025,-0c-13.169,-0 -23.857,-10.656 -23.857,-23.857c-0,-13.169 10.688,-23.857 23.857,-23.857l44.025,-0c13.169,-0 23.857,10.688 23.857,23.857c-0,13.201 -10.688,23.857 -23.857,23.857Z" style="fill-rule:nonzero;"/><path d="M405.569,238.57c-13.169,-0 -23.857,-10.656 -23.857,-23.857l-0,-44.024c-0,-13.169 10.688,-23.857 23.857,-23.857c13.169,-0 23.857,10.688 23.857,23.857l-0,44.024c-0,13.201 -10.688,23.857 -23.857,23.857Z" style="fill-rule:nonzero;"/><path d="M405.569,91.77c-13.169,-0 -23.857,-10.688 -23.857,-23.857l-0,-44.056c-0,-13.169 10.688,-23.857 23.857,-23.857c13.169,0 23.857,10.688 23.857,23.857l-0,44.056c-0,13.169 -10.688,23.857 -23.857,23.857Z" style="fill-rule:nonzero;"/><path d="M67.88,365.871l-44.023,-0c-13.169,-0 -23.857,-10.688 -23.857,-23.857c0,-13.169 10.688,-23.857 23.857,-23.857l44.023,-0c13.169,-0 23.857,10.688 23.857,23.857c0,13.169 -10.688,23.857 -23.857,23.857Z" style="fill-rule:nonzero;"/><path d="M214.713,365.871l-44.056,-0c-13.169,-0 -23.857,-10.688 -23.857,-23.857c-0,-13.169 10.688,-23.857 23.857,-23.857l44.056,-0c13.169,-0 23.857,10.688 23.857,23.857c-0,13.169 -10.688,23.857 -23.857,23.857Z" style="fill-rule:nonzero;"/><path d="M119.285,461.299c-13.169,-0 -23.857,-10.688 -23.857,-23.857l-0,-44.024c-0,-13.169 10.688,-23.857 23.857,-23.857c13.169,-0 23.857,10.688 23.857,23.857l-0,44.024c-0,13.169 -10.688,23.857 -23.857,23.857Z" style="fill-rule:nonzero;"/><path d="M119.285,314.499c-13.169,-0 -23.857,-10.688 -23.857,-23.857l-0,-44.056c-0,-13.169 10.688,-23.857 23.857,-23.857c13.169,-0 23.857,10.688 23.857,23.857l-0,44.056c-0,13.169 -10.688,23.857 -23.857,23.857Z" style="fill-rule:nonzero;"/><path d="M1237.19,1667.1l-53.186,392.559l563.948,0l52.263,-228.55l-563.025,-164.009Z" style="fill:#fff;fill-rule:nonzero;"/><path d="M1211.3,2035.8l517.634,0l43.005,-188.057l-514.801,-150.013l-45.838,338.07Zm536.656,47.714l-563.948,0c-6.87,0 -13.423,-2.958 -17.972,-8.111c-4.518,-5.217 -6.585,-12.056 -5.663,-18.895l53.187,-392.655c0.953,-6.902 4.834,-12.978 10.655,-16.763c5.82,-3.785 12.979,-4.867 19.657,-2.927l563.026,164.073c12.121,3.499 19.405,15.905 16.572,28.215l-52.263,228.55c-2.481,10.815 -12.118,18.513 -23.251,18.513Z" style="fill-rule:nonzero;"/><path d="M1626.44,1911.17c16.732,5.344 25.925,23.316 20.518,40.016c-5.376,16.732 -23.286,25.925 -40.018,20.517c-16.699,-5.343 -25.892,-23.316 -20.516,-40.016c5.376,-16.7 23.316,-25.893 40.016,-20.517Z" style="fill-rule:nonzero;"/><path d="M846.287,1667.1l53.216,392.559l-563.979,0l-52.263,-228.55l563.026,-164.009Z" style="fill:#fff;fill-rule:nonzero;"/><path d="M354.547,2035.8l517.631,0l-45.836,-338.07l-514.803,150.013l43.008,188.057Zm544.925,47.714l-563.948,0c-11.101,0 -20.772,-7.698 -23.253,-18.513l-52.263,-228.55c-2.831,-12.31 4.454,-24.716 16.572,-28.215l563.026,-164.073c6.681,-1.94 13.837,-0.858 19.691,2.927c5.82,3.785 9.701,9.861 10.623,16.763l53.185,392.655c0.956,6.839 -1.145,13.678 -5.661,18.895c-4.518,5.153 -11.07,8.111 -17.972,8.111Z" style="fill-rule:nonzero;"/><path d="M743.351,1911.17c-16.732,5.344 -25.892,23.316 -20.516,40.016c5.374,16.732 23.284,25.925 40.016,20.517c16.732,-5.343 25.892,-23.316 20.516,-40.016c-5.376,-16.7 -23.315,-25.893 -40.016,-20.517Z" style="fill-rule:nonzero;"/></g></g></svg>