<?xml version="1.0" encoding="UTF-8" standalone="no"?><!DOCTYPE svg PUBLIC "-//W3C//DTD SVG 1.1//EN" "http://www.w3.org/Graphics/SVG/1.1/DTD/svg11.dtd"><svg width="100%" height="100%" viewBox="0 0 2084 2084" version="1.1" xmlns="http://www.w3.org/2000/svg" xmlns:xlink="http://www.w3.org/1999/xlink" xml:space="preserve" xmlns:serif="http://www.serif.com/" style="fill-rule:evenodd;clip-rule:evenodd;stroke-linejoin:round;stroke-miterlimit:2;"><rect id="画板1" x="0" y="0" width="2083.33" height="2083.33" style="fill:none;"/><clipPath id="_clip1"><rect id="画板11" serif:id="画板1" x="0" y="0" width="2083.33" height="2083.33"/></clipPath><g clip-path="url(#_clip1)"><g><path d="M277.531,984.932c-118.213,-0 -214.381,-96.168 -214.381,-214.469c-0,-118.029 96.168,-214.288 214.381,-214.288l79.612,0c14.231,55.336 64.08,96.537 123.696,96.537c59.713,0 109.562,-41.201 123.794,-96.537l218.377,0c64.73,170.481 186.012,344.493 248.977,428.757l-794.456,-0Zm203.308,-525.299c35.902,-0 65.012,29.206 65.012,65.014c-0,35.809 -29.11,64.918 -65.012,64.918c-35.711,0 -64.918,-29.109 -64.918,-64.918c0,-35.808 29.207,-65.014 64.918,-65.014Zm655.322,-395.276c161.736,0 293.247,131.511 293.247,293.159c-0,203.865 -218.656,509.296 -293.247,607.513c-74.497,-98.217 -293.249,-403.648 -293.249,-607.513c0,-161.648 131.604,-293.159 293.249,-293.159Zm245.256,1314.17c-35.808,0 -65.011,-29.109 -65.011,-64.918c-0,-35.899 29.203,-65.008 65.011,-65.008c35.9,-0 65.012,29.109 65.012,65.008c0,35.809 -29.112,64.918 -65.012,64.918Zm-573.567,331.38c35.806,-0 65.012,29.206 65.012,65.014c0,35.899 -29.206,65.009 -65.012,65.009c-35.808,-0 -64.918,-29.11 -64.918,-65.009c0,-35.808 29.11,-65.014 64.918,-65.014Zm1110.31,-1484.18l-247.025,0c-17.484,0 -31.619,14.044 -31.619,31.528c0,17.393 14.135,31.528 31.619,31.528l247.025,0c56.176,0 101.935,45.85 101.935,102.214c-0,56.266 -45.759,102.026 -101.935,102.026l-447.453,-0c13.579,-47.06 21.765,-92.91 21.765,-135.507c-0,-196.429 -159.783,-356.305 -356.306,-356.305c-196.428,-0 -356.305,159.876 -356.305,356.305c0,42.597 8.183,88.447 21.855,135.507l-197.078,-0c-14.232,-55.336 -64.081,-96.446 -123.794,-96.446c-59.616,-0 -109.465,41.11 -123.696,96.446l-82.312,-0l-0.928,0.187c-151.322,2.044 -273.903,125.556 -273.903,277.253c-0,153.087 124.44,277.525 277.531,277.525l1309.52,-0c64.452,-0 117.001,52.548 117.001,117.006c-0,64.544 -52.549,117.092 -117.001,117.092l-81.94,0c-14.135,-55.432 -63.987,-96.633 -123.697,-96.633c-59.709,-0 -109.561,41.201 -123.696,96.633l-661.459,0c-144.626,0 -262.277,117.558 -262.277,262.187c-0,144.624 117.651,262.181 262.277,262.181l87.889,0c14.137,55.432 63.99,96.633 123.699,96.633c59.71,0 109.559,-41.201 123.697,-96.633l300.782,0c58.594,0 106.213,47.712 106.213,106.306c-0,58.498 -47.619,106.119 -106.213,106.119l-349.331,0c-17.484,0 -31.528,14.135 -31.528,31.625c-0,17.387 14.044,31.619 31.528,31.619l349.331,-0c93.378,-0 169.363,-76.078 169.363,-169.363c-0,-93.471 -75.985,-169.362 -169.363,-169.362l-300.782,0c-14.138,-55.341 -63.987,-96.633 -123.697,-96.633c-59.709,-0 -109.562,41.292 -123.699,96.633l-87.889,0c-109.933,0 -199.127,-89.288 -199.127,-199.125c-0,-109.752 89.194,-199.131 199.127,-199.131l661.459,0c14.135,55.433 63.987,96.543 123.696,96.543c59.71,-0 109.562,-41.11 123.697,-96.543l81.94,0c99.329,0 180.153,-80.727 180.153,-180.148c0,-99.335 -80.824,-180.062 -180.153,-180.062l-386.627,-0c62.874,-84.264 184.152,-258.276 248.886,-428.757l468.842,0c91.053,0 165.178,-74.125 165.178,-165.178c0,-91.144 -74.125,-165.27 -165.178,-165.27Z" style="fill:#0b0b16;fill-rule:nonzero;"/><path d="M1033.76,360.581c-0,-56.545 45.946,-102.395 102.4,-102.395c56.454,0 102.398,45.85 102.398,102.395c0,56.454 -45.944,102.401 -102.398,102.401c-56.454,0 -102.4,-45.947 -102.4,-102.401Zm267.951,0c-0,-91.331 -74.219,-165.457 -165.551,-165.457c-91.24,0 -165.55,74.126 -165.55,165.457c-0,91.241 74.31,165.554 165.55,165.554c91.332,-0 165.551,-74.313 165.551,-165.554Z" style="fill:#0b0b16;fill-rule:nonzero;"/></g></g></svg>