<?xml version="1.0" encoding="UTF-8" standalone="no"?><!DOCTYPE svg PUBLIC "-//W3C//DTD SVG 1.1//EN" "http://www.w3.org/Graphics/SVG/1.1/DTD/svg11.dtd"><svg width="100%" height="100%" viewBox="0 0 2084 2084" version="1.1" xmlns="http://www.w3.org/2000/svg" xmlns:xlink="http://www.w3.org/1999/xlink" xml:space="preserve" xmlns:serif="http://www.serif.com/" style="fill-rule:evenodd;clip-rule:evenodd;stroke-linejoin:round;stroke-miterlimit:2;"><rect id="画板1" x="0" y="0" width="2083.33" height="2083.33" style="fill:none;"/><g id="画板11" serif:id="画板1"><g><path d="M1644.07,1963.92c-29.11,35.712 -72.263,56.267 -118.392,56.267l-1125.88,-0c-46.128,-0 -89.375,-20.555 -118.483,-56.267c-29.204,-35.711 -40.549,-82.211 -31.25,-127.413l98.21,-477.377c29.482,20.46 64.265,31.901 100.814,31.901c47.246,-0 91.7,-18.323 125.087,-51.803c42.968,-42.967 117.834,-42.967 160.801,0c52.918,52.918 131.319,64.822 196.141,36.363l0,459.151c0,17.39 14.136,31.62 31.621,31.62c17.391,0 31.526,-14.23 31.526,-31.62l0,-502.955c43.805,-34.782 111.418,-32.642 151.594,7.441c68.914,68.914 181.075,68.914 249.989,0c43.059,-42.967 117.833,-42.967 160.893,0l19.717,16.74l98.861,480.539c9.299,45.202 -2.14,91.702 -31.249,127.413Zm-1167.54,-1228.28c14.601,-70.586 77.469,-122.017 149.639,-122.017l105.742,0l0,128.156c0,17.486 14.137,31.62 31.528,31.62l167.683,-0l0,528.624c-43.896,34.782 -111.417,32.642 -151.501,-7.442c-33.387,-33.388 -77.841,-51.802 -125.087,-51.802c-47.151,-0 -91.606,18.414 -124.994,51.802c-43.06,42.968 -117.833,42.968 -160.801,0l-6.043,-5.208l113.834,-553.733Zm217.902,-281.886c-0,-34.876 28.366,-63.15 63.148,-63.15l410.232,-0c34.876,-0 63.24,28.274 63.24,63.15l0,96.813l-536.62,0l-0,-96.813Zm187.398,-390.609l161.732,-0l-0,264.403l-161.732,-0l0,-264.403Zm-86.77,550.478l335.364,0l0,96.629l-335.364,0l-0,-96.629Zm653.802,122.017l108.534,527.88c-66.496,-34.504 -150.291,-24.74 -206.092,31.061c-44.361,44.361 -116.531,44.361 -160.801,0c-33.48,-33.388 -77.841,-51.802 -125.086,-51.802c-24.925,-0 -48.919,5.395 -71.148,15.252l0,-484.632l167.683,-0c17.391,-0 31.621,-14.134 31.621,-31.62l-0,-128.156l105.556,0c72.263,0 135.226,51.431 149.733,122.017Zm61.847,-12.647c-20.554,-99.978 -109.463,-172.426 -211.58,-172.426l-5.021,0l0,-96.813c0,-69.567 -56.545,-126.206 -126.296,-126.206l-61.01,-0l0,-264.403l150.013,-0l466.682,175.587l11.161,1.953c12.741,-0 24.738,-7.811 29.48,-20.461c6.139,-16.274 -2.045,-34.503 -18.414,-40.64l-472.076,-177.543l-11.161,-2.043l-599.676,0c-17.391,0 -31.528,14.228 -31.528,31.62c0,17.484 14.137,31.527 31.528,31.527l155.872,-0l0,264.403l-61.103,-0c-69.658,-0 -126.297,56.639 -126.297,126.206l0,96.813l-5.114,0c-102.023,0 -190.932,72.448 -211.486,172.426l-117.462,571.032l-0.092,0.372l-108.905,529.459c-13.021,63.799 2.975,129.364 44.176,179.864c41.199,50.594 102.209,79.611 167.402,79.611l1125.88,0c65.101,0 126.111,-29.017 167.31,-79.611c41.2,-50.5 57.29,-116.065 44.176,-179.864l-226.459,-1100.86Z" style="fill:#0b0b16;fill-rule:nonzero;"/><path d="M1734.65,686.445c-56.081,-0 -101.745,-39.247 -101.745,-87.516c0,-55.243 61.196,-133.548 101.745,-177.725c40.548,44.177 101.743,122.482 101.743,177.725c0,48.269 -45.663,87.516 -101.743,87.516Zm21.855,-333.317c-12.276,-11.813 -31.435,-11.813 -43.804,-0c-14.509,14.043 -142.851,140.43 -142.851,245.801c0,83.051 73.937,150.756 164.8,150.756c90.862,0 164.892,-67.705 164.892,-150.756c-0,-105.371 -128.436,-231.758 -143.037,-245.801Z" style="fill:#0b0b16;fill-rule:nonzero;"/></g></g></svg>