<?xml version="1.0" encoding="UTF-8" standalone="no"?><!DOCTYPE svg PUBLIC "-//W3C//DTD SVG 1.1//EN" "http://www.w3.org/Graphics/SVG/1.1/DTD/svg11.dtd"><svg width="100%" height="100%" viewBox="0 0 2084 2084" version="1.1" xmlns="http://www.w3.org/2000/svg" xmlns:xlink="http://www.w3.org/1999/xlink" xml:space="preserve" xmlns:serif="http://www.serif.com/" style="fill-rule:evenodd;clip-rule:evenodd;stroke-linejoin:round;stroke-miterlimit:2;"><rect id="画板1" x="0" y="0" width="2083.33" height="2083.33" style="fill:none;"/><clipPath id="_clip1"><rect id="画板11" serif:id="画板1" x="0" y="0" width="2083.33" height="2083.33"/></clipPath><g clip-path="url(#_clip1)"><g><path d="M1657.56,1504.11c-176.431,94.026 -387.925,43.897 -507.065,1.209c132.067,-32.74 355.372,-116.444 481.301,-321.612c54.687,-89.1 83.984,-190.103 98.214,-288.223c127.881,12.182 238.744,56.176 284.502,77.1c-25.855,90.961 -131.043,411.177 -356.952,531.526Zm46.78,248.6c-46.966,31.158 -207.121,118.211 -419.08,33.761c48.455,-34.133 84.913,-75.427 84.913,-122.021c0,-16.184 -4.649,-31.624 -12.369,-46.411c22.136,2.046 44.828,3.349 67.893,3.349c55.06,-0 111.979,-6.883 168.153,-23.53c82.31,44.55 104.816,121.371 110.49,154.852Zm-662.753,76.636c-110.398,-34.318 -265.622,-108.07 -265.622,-164.896c-0,-19.252 17.949,-40.366 45.759,-61.199c104.908,-22.136 187.497,-58.778 219.956,-74.403c32.272,15.625 114.675,52.176 219.399,74.312c27.994,20.924 46.037,41.944 46.037,61.29c0,56.826 -155.132,130.578 -265.529,164.896Zm-662.382,-76.636c5.766,-33.575 28.181,-110.302 110.397,-154.761c56.175,16.65 113.002,23.439 168.06,23.439c22.88,-0 45.387,-1.303 67.429,-3.349c-7.626,14.787 -12.277,30.227 -12.277,46.411c0,46.594 36.458,87.797 84.913,121.927c-211.679,84.079 -371.74,-2.509 -418.522,-33.667Zm-310.357,-780.126c45.758,-21.018 156.527,-65.38 284.316,-77.565c14.323,98.307 43.526,199.404 98.307,288.688c126.021,205.356 349.512,288.872 481.487,321.703c-119.14,42.784 -330.354,93.005 -507.251,-1.3c-225.537,-120.165 -331.003,-440.659 -356.859,-531.526Zm358.162,-485.577c58.872,10.044 199.96,41.759 329.423,125.741c-26.041,75.428 -43.34,157.738 -43.34,244.604c-0,259.391 151.878,479.719 241.999,587.792c-120.534,-29.203 -333.795,-105.561 -449.772,-294.455c-142.112,-231.582 -96.075,-565.191 -78.31,-663.682Zm614.763,-220.422c67.15,72.916 265.529,312.311 265.529,590.767c0,278.456 -198.473,517.758 -265.529,590.673c-67.149,-72.822 -265.53,-311.752 -265.53,-590.673c-0,-278.456 198.381,-517.851 265.53,-590.767Zm614.484,220.422c17.857,98.491 63.802,432.1 -78.218,663.682c-115.605,188.335 -328.771,264.877 -449.492,294.268c90.215,-108.164 241.906,-328.401 241.906,-587.605c-0,-86.959 -17.3,-169.363 -43.433,-244.882c129.462,-83.891 270.365,-115.419 329.237,-125.463Zm410.338,440.658c-9.393,-5.024 -152.436,-78.964 -329.238,-95.611c17.113,-201.634 -22.6,-376.484 -25.204,-387.832c-3.72,-15.437 -18.043,-25.854 -33.946,-24.179c-11.254,1.115 -199.031,21.67 -374.532,131.787c-87.517,-205.168 -231.304,-345.328 -240.046,-353.605c-12.184,-11.719 -31.435,-11.719 -43.712,0c-8.743,8.37 -152.436,148.531 -240.139,353.793c-175.501,-110.305 -363.37,-130.86 -374.718,-131.975c-15.345,-1.396 -30.226,8.742 -33.853,24.179c-2.697,11.348 -42.224,185.732 -25.298,387.089c-176.803,16.927 -319.75,91.33 -329.145,96.354c-12.647,6.695 -19.25,21.017 -15.903,35.061c4.278,17.95 107.049,443.542 395.178,597.094l21.205,10.322c-96.539,77.287 -102.863,190.566 -103.049,196.149c-0.465,9.951 4,19.53 11.718,25.854c1.767,1.303 118.675,92.911 295.571,92.911c72.45,0 154.946,-15.437 243.765,-58.684c69.661,35.526 142.111,58.871 167.223,66.311l9.115,1.209l9.022,-1.209c25.11,-7.533 97.841,-30.785 167.501,-66.405c88.82,43.247 171.409,58.778 243.953,58.778c176.894,-0.091 293.802,-91.608 295.477,-92.911c7.812,-6.324 12.277,-15.903 11.811,-25.854c-0.186,-5.583 -6.603,-118.862 -103.235,-196.149l21.112,-10.322c288.222,-153.552 390.993,-579.144 395.271,-597.094c3.254,-14.044 -3.255,-28.366 -15.904,-35.061Z" style="fill:#0b0b16;fill-rule:nonzero;"/></g></g></svg>