<?xml version="1.0" encoding="UTF-8" standalone="no"?><!DOCTYPE svg PUBLIC "-//W3C//DTD SVG 1.1//EN" "http://www.w3.org/Graphics/SVG/1.1/DTD/svg11.dtd"><svg width="100%" height="100%" viewBox="0 0 2084 2084" version="1.1" xmlns="http://www.w3.org/2000/svg" xmlns:xlink="http://www.w3.org/1999/xlink" xml:space="preserve" xmlns:serif="http://www.serif.com/" style="fill-rule:evenodd;clip-rule:evenodd;stroke-linejoin:round;stroke-miterlimit:2;"><rect id="画板1" x="0" y="0" width="2083.33" height="2083.33" style="fill:none;"/><g id="画板11" serif:id="画板1"><g><path d="M1998.7,1855.61c-29.762,138.488 -85.569,154.484 -124.999,154.484c-268.977,0 -647.79,-202.939 -647.79,-654.391c-0,-38.692 -0.091,-78.032 -0.279,-117.28c-0.652,-212.704 -1.487,-442.801 21.668,-610.954c53.576,56.17 118.676,110.859 198.944,160.989c22.508,14.141 43.154,29.11 63.056,44.551c-29.485,7.164 -61.103,19.902 -90.31,41.019c-22.042,-16.746 -55.058,-30.415 -96.815,-22.882c-17.211,3.071 -28.65,19.436 -25.579,36.551c2.975,17.206 19.437,28.645 36.552,25.579c16.366,-2.98 29.11,0.46 38.596,5.297c-14.975,18.602 -28.088,40.741 -38.505,66.78c-6.511,16.184 1.487,34.508 17.58,41.013l11.717,2.237c12.557,0 24.461,-7.533 29.394,-19.902c14.322,-36.087 35.155,-61.109 57.567,-78.962c5.114,12.647 8.929,29.291 4.933,48.359c-3.537,17.019 7.436,33.765 24.551,37.392l6.415,0.556c14.606,0 27.809,-10.229 30.881,-25.113c7.72,-37.018 -0.744,-68.733 -11.07,-91.144c28.185,-9.486 53.292,-11.07 67.246,-11.07c55.71,55.898 96.355,118.585 121.372,187.778c-84.821,-7.437 -152.157,8.095 -204.427,31.346c-21.299,-15.44 -59.713,-37.483 -106.772,-37.573c-17.484,0.09 -31.438,14.413 -31.25,31.897c0.187,17.302 14.231,31.25 31.528,31.25l0.374,-0c15.81,0.283 30.41,4.745 42.876,10.325c-51.339,36.643 -76.266,74.779 -78.496,78.219c-9.304,14.787 -4.837,34.321 9.951,43.619l16.74,4.746c10.508,-0 20.743,-5.115 26.692,-14.606c0.653,-1.022 41.019,-62.591 130.489,-96.35c1.118,19.25 -1.119,42.41 -15.906,56.92c-12.461,12.091 -12.739,32.084 -0.466,44.641l22.508,9.395l22.139,-8.93c35.712,-34.877 37.574,-85.098 33.668,-118.306c34.599,-5.671 74.307,-6.602 119.232,-0.557c12.648,59.804 13.857,119.142 8.186,175.596c-46.037,-0.835 -133.929,5.114 -214.475,51.249c-22.599,-21.021 -62.869,-49.575 -116.536,-49.575c-17.484,0 -31.618,14.044 -31.618,31.528c-0,17.394 14.134,31.529 31.618,31.529c26.601,-0 48.734,12.556 63.988,24.46c-20.459,18.137 -39.618,39.623 -56.177,65.662c-9.298,14.697 -5.018,34.23 9.77,43.625l16.831,4.927c10.513,0 20.646,-5.211 26.692,-14.787c69.754,-109.747 199.687,-124.813 260.881,-125.278c-5.018,26.039 -11.16,51.056 -18.04,74.682c-33.481,-1.397 -88.726,1.952 -126.953,32.833c-13.578,11.064 -15.627,30.876 -4.649,44.454c6.228,7.72 15.344,11.626 24.552,11.626l19.902,-6.977c16.371,-13.3 42.876,-17.762 66.127,-18.693c-32.924,88.357 -69.567,146.673 -70.311,147.882c-9.485,14.692 -5.211,34.225 9.395,43.711l17.11,5.023c10.416,0 20.464,-5.114 26.51,-14.509c1.856,-2.793 13.765,-21.486 29.575,-52.271c5.671,9.304 10.604,20.743 12.182,34.878c1.765,15.996 15.44,27.9 31.346,27.9l3.628,-0.278c17.206,-1.856 29.757,-17.484 27.713,-34.877c-4.927,-43.529 -27.435,-73.286 -45.203,-90.588c20.742,-48.178 42.041,-109.003 56.273,-177.27c100.726,101.748 64.452,284.598 63.987,286.738c-3.537,16.928 7.345,33.669 24.46,37.296l6.511,0.653c14.601,-0 27.623,-10.139 30.876,-25.017c2.231,-10.604 50.97,-253.723 -113.743,-372.025c7.72,-67.523 6.602,-140.162 -9.673,-213.64l-3.815,-13.669l-1.487,-5.302c-25.948,-99.796 -78.315,-188.522 -156.25,-265.066l-5.024,-4.933c-37.108,-35.62 -78.962,-68.823 -127.23,-99.051c-91.985,-57.664 -163.136,-121.373 -218.29,-186.103c14.232,-64.731 33.765,-114.771 61.2,-142.297c14.884,-14.975 30.785,-21.764 49.943,-21.764c260.234,0 647.694,675.407 647.694,1129.28c-0,113.005 -0,240.979 -21.481,341.518Zm-1141,-617.187c-0.187,39.248 -0.187,78.588 -0.187,117.28c-0,451.452 -378.905,654.391 -647.881,654.391c-39.436,0 -95.237,-15.996 -124.909,-154.575c-21.577,-100.539 -21.577,-228.422 -21.577,-341.427c-0,-453.87 387.465,-1129.28 647.79,-1129.28c19.159,0 35.065,6.789 49.852,21.764c27.248,27.436 46.872,77.1 61.013,141.178c-55.064,65.384 -126.118,129.655 -218.102,187.222c-48.269,30.228 -90.214,63.431 -127.231,99.148l-4.837,4.836c-77.94,76.448 -130.301,165.083 -156.346,264.975l-1.487,5.483l-3.815,13.579c-16.365,73.478 -17.387,146.117 -9.667,213.64c-164.81,118.302 -115.979,361.421 -113.748,372.025c3.161,14.878 16.184,25.108 30.875,25.108l6.511,-0.744c17.115,-3.627 27.997,-20.368 24.37,-37.386c-0.466,-2.05 -37.205,-184.713 63.987,-286.648c14.322,68.267 35.621,129.092 56.363,177.27c-17.859,17.206 -40.276,47.059 -45.294,90.588c-1.952,17.393 10.508,33.021 27.81,34.877l3.628,0.278c15.809,0 29.575,-11.904 31.34,-27.9c1.578,-14.135 6.415,-25.67 12.092,-34.878c15.905,30.694 27.809,49.478 29.575,52.271c6.045,9.395 16.184,14.509 26.601,14.509l17.018,-5.023c14.697,-9.486 18.881,-29.019 9.486,-43.711c-0.835,-1.209 -37.574,-59.525 -70.498,-147.882c23.16,0.931 49.943,5.393 66.314,18.693l19.902,6.977c9.117,-0 18.228,-3.906 24.461,-11.626c10.973,-13.578 8.929,-33.39 -4.649,-44.454c-38.227,-30.971 -93.659,-34.23 -127.049,-32.833c-6.88,-23.626 -13.113,-48.831 -18.04,-74.966c60.916,0.465 190.848,14.975 261.068,125.562c6.046,9.576 16.184,14.787 26.692,14.787l16.831,-4.927c14.794,-9.395 19.068,-28.928 9.77,-43.625c-16.559,-26.039 -35.718,-47.525 -56.176,-65.662c15.253,-11.904 37.295,-24.46 63.987,-24.46c17.484,-0 31.624,-14.135 31.624,-31.529c0,-17.484 -14.14,-31.528 -31.624,-31.528c-53.758,0 -94.028,28.554 -116.536,49.575c-80.637,-46.225 -168.528,-52.18 -214.566,-51.249c-5.58,-56.364 -4.462,-115.792 8.186,-175.596c45.107,-6.136 84.82,-5.302 119.232,0.278c-3.815,33.3 -2.043,83.612 33.856,118.585l21.951,8.93l22.599,-9.395c12.182,-12.557 11.904,-32.55 -0.556,-44.641c-14.885,-14.606 -17.025,-38.039 -15.816,-57.204c87.614,32.743 127.793,92.547 130.489,96.73c5.955,9.395 16.275,14.51 26.601,14.51l16.831,-4.746c14.788,-9.298 19.256,-28.832 9.861,-43.619c-2.14,-3.44 -27.345,-41.758 -78.962,-78.497c12.369,-5.671 26.788,-10.047 42.41,-10.047l1.3,-0c17.302,-0 31.346,-13.948 31.624,-31.25c0.188,-17.484 -13.856,-31.807 -31.25,-31.897c-47.337,-0.562 -85.842,21.855 -107.05,37.477c-17.393,-7.624 -36.552,-14.322 -57.476,-19.715l0,-0.091c-41.763,-10.791 -90.218,-16.275 -146.673,-11.444c25.017,-69.193 65.662,-131.789 121.282,-187.778c13.947,0.097 39.061,1.584 67.245,11.07c-10.235,22.411 -18.699,54.126 -11.069,91.144c3.162,14.884 16.275,25.113 30.875,25.113l6.511,-0.556c17.019,-3.627 28.088,-20.373 24.461,-37.392c-3.906,-19.068 -0.188,-35.808 4.933,-48.359c22.502,17.853 43.244,42.875 57.567,78.962c5.023,12.369 16.927,19.902 29.484,19.902l11.626,-2.237c16.184,-6.505 24.086,-24.829 17.671,-41.013c-10.416,-26.039 -23.529,-48.081 -38.504,-66.684c9.485,-4.836 22.229,-8.373 38.504,-5.393c17.206,3.066 33.578,-8.373 36.643,-25.579c3.071,-17.115 -8.367,-33.48 -25.573,-36.551c-41.854,-7.533 -74.869,6.232 -96.821,22.973c-9.673,-7.068 -19.624,-13.022 -29.672,-18.228l-0.647,-0.465c-20.186,-10.326 -40.554,-17.581 -60.082,-22.417c19.903,-15.441 40.549,-30.41 63.147,-44.551c80.172,-50.13 145.373,-104.819 198.847,-160.989c23.161,168.153 22.418,398.25 21.674,610.954Zm514.786,-916.851c-36.177,-0 -67.892,13.669 -94.584,40.548c-27.997,27.997 -49.109,70.498 -65.293,123.603c-151.788,-218.193 -139.043,-429.591 -138.203,-441.87c1.3,-17.484 -11.723,-32.55 -29.116,-33.759l-3.531,0.369l-3.724,-0.369c-17.387,1.209 -30.409,16.457 -29.109,33.85c0.278,2.98 14.14,218.749 -138.579,440.479c-16.184,-52.361 -37.108,-94.493 -64.827,-122.303c-26.691,-26.879 -58.498,-40.548 -94.584,-40.548c-322.734,-0 -710.937,732.423 -710.937,1192.52c-0,116.07 -0,247.769 22.968,354.728c29.115,135.694 91.893,204.427 186.665,204.427c295.202,0 710.937,-222.564 710.937,-717.544c-0,-38.692 0.187,-77.844 0.284,-117.189c0.925,-254.927 1.578,-500.186 -31.069,-672.801c81.199,-102.311 126.675,-206.011 151.879,-294.09c25.204,88.079 70.782,191.779 151.878,293.902c-32.549,172.803 -31.897,417.966 -30.966,672.989c0.091,39.345 0.182,78.497 0.182,117.189c-0,494.98 415.74,717.544 710.943,717.544c94.771,0 157.646,-68.733 186.659,-204.336c22.973,-107.05 22.973,-238.652 22.973,-354.819c0,-460.097 -388.208,-1192.52 -710.846,-1192.52Z" style="fill:#0b0b16;fill-rule:nonzero;"/></g></g></svg>