<?xml version="1.0" encoding="UTF-8" standalone="no"?><!DOCTYPE svg PUBLIC "-//W3C//DTD SVG 1.1//EN" "http://www.w3.org/Graphics/SVG/1.1/DTD/svg11.dtd"><svg width="100%" height="100%" viewBox="0 0 2084 2084" version="1.1" xmlns="http://www.w3.org/2000/svg" xmlns:xlink="http://www.w3.org/1999/xlink" xml:space="preserve" xmlns:serif="http://www.serif.com/" style="fill-rule:evenodd;clip-rule:evenodd;stroke-linejoin:round;stroke-miterlimit:2;"><rect id="画板1" x="0" y="0" width="2083.33" height="2083.33" style="fill:none;"/><clipPath id="_clip1"><rect id="画板11" serif:id="画板1" x="0" y="0" width="2083.33" height="2083.33"/></clipPath><g clip-path="url(#_clip1)"><g><path d="M2008.59,914.44l-136.801,0c-9.382,-61.704 -25.667,-121.088 -47.709,-177.608l118.575,-68.48c24.332,-14.026 32.697,-45.133 18.638,-69.497l-76.336,-132.188c-14.058,-24.364 -45.197,-32.697 -69.529,-18.639l-118.702,68.511c-38.454,-47.9 -82.029,-91.444 -129.962,-129.961l68.543,-118.703c14.059,-24.3 5.726,-55.407 -18.606,-69.529l-132.252,-76.272c-24.332,-14.122 -55.439,-5.725 -69.498,18.575l-68.48,118.575c-56.488,-21.978 -115.871,-38.327 -177.576,-47.71l0,-136.8c0,-28.054 -22.773,-50.859 -50.89,-50.859l-152.672,-0c-28.117,-0 -50.891,22.805 -50.891,50.859l0,136.8c-61.673,9.383 -121.088,25.732 -177.576,47.71l-68.48,-118.575c-14.058,-24.3 -45.165,-32.697 -69.497,-18.575l-132.252,76.272c-24.332,14.122 -32.666,45.229 -18.607,69.529l68.543,118.703c-47.901,38.517 -91.476,82.061 -129.93,129.961l-118.734,-68.511c-24.332,-14.058 -55.471,-5.725 -69.529,18.639l-76.336,132.188c-14.027,24.364 -5.693,55.471 18.639,69.497l118.575,68.48c-22.01,56.52 -38.327,115.904 -47.678,177.608l-136.832,0c-28.118,0 -50.891,22.806 -50.891,50.859l-0,152.704c-0,28.085 22.773,50.89 50.891,50.89l136.832,0c9.351,61.673 25.668,121.056 47.678,177.545l-118.575,68.511c-24.332,14.059 -32.666,45.165 -18.639,69.53l76.336,132.188c14.058,24.364 45.197,32.665 69.529,18.638l118.734,-68.511c38.454,47.869 82.029,91.444 129.93,129.898l-68.543,118.702c-14.059,24.364 -5.725,55.471 18.607,69.53l132.252,76.336c24.332,14.026 55.439,5.725 69.497,-18.639l68.48,-118.607c56.488,22.074 115.903,38.359 177.576,47.71l0,136.864c0,28.085 22.774,50.89 50.891,50.89l152.672,0c28.117,0 50.89,-22.805 50.89,-50.89l0,-136.864c61.705,-9.351 121.088,-25.636 177.576,-47.71l68.48,118.607c14.059,24.364 45.166,32.665 69.498,18.639l132.252,-76.336c24.332,-14.059 32.665,-45.166 18.606,-69.53l-68.543,-118.702c47.933,-38.454 91.476,-82.029 129.962,-129.898l118.702,68.511c24.332,14.027 55.471,5.726 69.529,-18.638l76.336,-132.188c14.059,-24.365 5.694,-55.471 -18.638,-69.53l-118.575,-68.511c22.042,-56.489 38.327,-115.872 47.709,-177.545l136.801,0c28.117,0 50.89,-22.805 50.89,-50.89l0,-152.704c0,-28.053 -22.773,-50.859 -50.89,-50.859Z" style="fill:#fff;fill-rule:nonzero;"/><path d="M736.864,1800.16c2.894,0 5.821,0.573 8.683,1.622c56.139,21.947 114.186,37.532 172.487,46.406c11.642,1.749 20.261,11.737 20.261,23.537l0,136.8c0,14.917 12.118,27.099 27.036,27.099l152.672,0c14.917,0 27.035,-12.182 27.035,-27.099l0,-136.8c0,-11.8 8.62,-21.788 20.261,-23.537c58.302,-8.874 116.349,-24.459 172.519,-46.406c10.91,-4.23 23.41,0.127 29.326,10.306l68.448,118.606c7.474,12.914 24.045,17.399 36.927,9.924l132.252,-76.336c6.266,-3.594 10.719,-9.446 12.595,-16.412c1.845,-6.997 0.891,-14.281 -2.703,-20.547l-68.543,-118.702c-5.885,-10.21 -3.467,-23.187 5.725,-30.503c46.437,-37.277 88.931,-79.771 126.272,-126.304c7.379,-9.192 20.325,-11.609 30.534,-5.725l118.703,68.511c12.945,7.475 29.516,2.99 36.927,-9.86l76.368,-132.188c7.443,-12.945 2.99,-29.517 -9.924,-36.959l-118.575,-68.48c-10.21,-5.884 -14.599,-18.384 -10.305,-29.326c21.883,-56.075 37.468,-114.154 46.342,-172.487c1.781,-11.705 11.8,-20.261 23.6,-20.261l136.801,0c14.917,0 27.035,-12.182 27.035,-27.099l0,-152.64c0,-14.885 -12.118,-27.004 -27.035,-27.004l-136.801,0c-11.8,0 -21.819,-8.651 -23.6,-20.324c-8.874,-58.334 -24.459,-116.349 -46.342,-172.456c-4.294,-10.973 0.095,-23.409 10.305,-29.325l118.575,-68.512c6.266,-3.594 10.751,-9.446 12.596,-16.412c1.876,-6.934 0.922,-14.281 -2.672,-20.483l-76.368,-132.189c-3.594,-6.298 -9.415,-10.751 -16.412,-12.627c-6.998,-1.908 -14.249,-0.986 -20.515,2.672l-118.703,68.575c-10.209,5.916 -23.155,3.435 -30.534,-5.694c-37.277,-46.533 -79.771,-89.026 -126.272,-126.304c-9.192,-7.379 -11.61,-20.388 -5.725,-30.566l68.543,-118.702c3.594,-6.234 4.548,-13.55 2.703,-20.515c-1.876,-6.966 -6.329,-12.787 -12.595,-16.381l-132.252,-76.368c-12.882,-7.442 -29.453,-2.989 -36.927,9.892l-68.448,118.575c-5.884,10.242 -18.384,14.536 -29.326,10.306c-56.17,-21.851 -114.217,-37.436 -172.519,-46.343c-11.641,-1.781 -20.261,-11.8 -20.261,-23.6l0,-136.8c0,-14.886 -12.118,-27.004 -27.035,-27.004l-152.672,-0c-14.918,-0 -27.036,12.118 -27.036,27.004l0,136.8c0,11.8 -8.619,21.819 -20.261,23.6c-58.301,8.907 -116.348,24.492 -172.487,46.343c-11.005,4.23 -23.441,-0.064 -29.326,-10.306l-68.479,-118.575c-7.443,-12.881 -24.014,-17.334 -36.928,-9.892l-132.252,76.368c-6.234,3.594 -10.718,9.415 -12.563,16.381c-1.877,6.965 -0.923,14.281 2.671,20.515l68.576,118.702c5.884,10.178 3.467,23.187 -5.726,30.566c-46.501,37.278 -88.995,79.771 -126.272,126.304c-7.379,9.129 -20.324,11.61 -30.534,5.694l-118.734,-68.575c-6.266,-3.658 -13.582,-4.58 -20.516,-2.672c-6.965,1.876 -12.786,6.329 -16.412,12.627l-76.336,132.189c-3.594,6.202 -4.58,13.549 -2.703,20.483c1.876,6.966 6.329,12.818 12.595,16.412l118.575,68.512c10.21,5.916 14.599,18.352 10.306,29.325c-21.883,56.171 -37.5,114.186 -46.311,172.456c-1.781,11.673 -11.8,20.324 -23.6,20.324l-136.832,0c-14.918,0 -27.036,12.119 -27.036,27.004l-0,152.64c-0,14.917 12.118,27.099 27.036,27.099l136.832,0c11.8,0 21.819,8.556 23.6,20.261c8.811,58.27 24.428,116.285 46.311,172.487c4.293,10.942 -0.096,23.442 -10.306,29.326l-118.575,68.48c-12.913,7.442 -17.334,24.014 -9.892,36.959l76.336,132.188c7.475,12.914 24.078,17.398 36.928,9.86l118.734,-68.511c10.21,-5.884 23.155,-3.467 30.534,5.725c37.277,46.469 79.771,88.963 126.272,126.304c9.193,7.316 11.61,20.293 5.726,30.503l-68.576,118.702c-3.594,6.266 -4.548,13.55 -2.671,20.547c1.845,6.966 6.329,12.818 12.563,16.412l132.252,76.336c12.914,7.475 29.485,2.99 36.928,-9.924l68.479,-118.606c4.358,-7.57 12.341,-11.928 20.643,-11.928Zm381.139,283.174l-152.672,0c-41.222,0 -74.746,-33.556 -74.746,-74.809l0,-116.539c-48.314,-8.556 -96.31,-21.501 -143.161,-38.518l-58.365,101.081c-20.611,35.719 -66.413,48.028 -102.1,27.386l-132.252,-76.336c-17.271,-10.019 -29.643,-26.081 -34.796,-45.42c-5.185,-19.243 -2.513,-39.376 7.474,-56.711l58.429,-101.209c-37.786,-31.87 -72.932,-66.953 -104.771,-104.739l-101.208,58.397c-35.751,20.579 -81.521,8.333 -102.1,-27.322l-76.336,-132.188c-20.61,-35.719 -8.333,-81.52 27.322,-102.131l101.082,-58.334c-17.017,-46.914 -29.93,-94.942 -38.486,-143.193l-116.571,0c-41.222,0 -74.746,-33.556 -74.746,-74.809l0,-152.64c0,-41.221 33.524,-74.714 74.746,-74.714l116.571,0c8.556,-48.346 21.469,-96.31 38.518,-143.193l-101.082,-58.397c-17.271,-9.956 -29.644,-26.081 -34.828,-45.356c-5.153,-19.307 -2.513,-39.44 7.474,-56.711l76.336,-132.189c9.956,-17.334 26.082,-29.707 45.388,-34.86c19.275,-5.152 39.441,-2.481 56.712,7.443l101.208,58.461c31.839,-37.755 66.985,-72.933 104.771,-104.803l-58.429,-101.177c-9.987,-17.271 -12.659,-37.405 -7.474,-56.743c5.153,-19.243 17.525,-35.401 34.796,-45.324l132.252,-76.368c35.655,-20.611 81.489,-8.302 102.1,27.354l58.365,101.049c46.851,-17.016 94.847,-29.93 143.161,-38.518l0,-116.539c0,-41.222 33.524,-74.714 74.746,-74.714l152.672,0c41.221,0 74.745,33.492 74.745,74.714l0,116.539c48.314,8.588 96.311,21.502 143.194,38.518l58.365,-101.049c20.579,-35.656 66.38,-47.901 102.067,-27.354l132.252,76.368c17.271,9.923 29.644,26.081 34.797,45.324c5.184,19.338 2.544,39.472 -7.443,56.743l-58.429,101.177c37.786,31.87 72.933,66.984 104.739,104.803l101.209,-58.461c17.303,-9.924 37.468,-12.532 56.743,-7.443c19.275,5.153 35.4,17.526 45.388,34.86l76.336,132.189c9.987,17.271 12.627,37.468 7.443,56.711c-5.153,19.275 -17.526,35.4 -34.829,45.356l-101.049,58.397c17.016,46.851 29.898,94.784 38.486,143.193l116.571,0c41.221,0 74.745,33.493 74.745,74.714l0,152.64c0,41.253 -33.524,74.809 -74.745,74.809l-116.571,0c-8.588,48.314 -21.47,96.342 -38.486,143.193l101.049,58.334c35.687,20.611 47.964,66.412 27.386,102.131l-76.368,132.188c-20.579,35.655 -66.38,47.965 -102.067,27.322l-101.241,-58.397c-31.838,37.786 -66.953,72.933 -104.739,104.739l58.429,101.209c9.987,17.335 12.627,37.468 7.443,56.711c-5.153,19.339 -17.526,35.401 -34.797,45.42l-132.252,76.336c-35.719,20.579 -81.488,8.27 -102.067,-27.386l-58.365,-101.081c-46.883,17.017 -94.88,29.962 -143.194,38.518l0,116.539c0,41.253 -33.524,74.809 -74.745,74.809Z" style="fill-rule:nonzero;"/><path d="M1041.67,1677.8c-351.336,-0 -636.133,-284.828 -636.133,-636.132c0,-351.304 284.797,-636.133 636.133,-636.133c351.336,0 636.132,284.829 636.132,636.133c-0,351.304 -284.796,636.132 -636.132,636.132Z" style="fill:#fff;fill-rule:nonzero;"/><path d="M1041.67,429.389c-337.596,0 -612.278,274.651 -612.278,612.278c0,337.563 274.682,612.277 612.278,612.277c337.595,0 612.277,-274.714 612.277,-612.277c0,-337.627 -274.682,-612.278 -612.277,-612.278Zm-0,1272.27c-363.9,-0 -659.988,-296.088 -659.988,-659.987c0,-363.932 296.088,-659.988 659.988,-659.988c363.931,0 659.987,296.056 659.987,659.988c-0,363.899 -296.056,659.987 -659.987,659.987Z" style="fill-rule:nonzero;"/><path d="M1194.98,1204.87l-16.031,-63.614l-274.555,0l-16.03,63.614c-9.701,38.454 -36.546,69.624 -71.756,85.273l225.191,119.974l224.936,-119.974c-35.21,-15.649 -62.023,-46.819 -71.755,-85.273Z" style="fill:#fff;fill-rule:nonzero;"/><path d="M1570.99,1394.28c-28.244,-34.606 -68.384,-59.383 -115.14,-67.462l-158.874,-27.481c-10.591,-1.781 -20.706,-4.898 -30.248,-9.192l-224.936,119.974l-0,267.685c220.77,-0.064 415.172,-112.691 529.198,-283.524Z" style="fill:#fff;fill-rule:nonzero;"/><path d="M816.603,1290.14c-9.51,4.294 -19.656,7.411 -30.248,9.192l-158.842,27.481c-46.788,8.079 -86.928,32.856 -115.172,67.462c114.058,170.897 308.492,283.524 529.326,283.524l0.127,-0l-0,-267.685l-225.191,-119.974Z" style="fill:#fff;fill-rule:nonzero;"/><path d="M863.74,1288.23l178.054,94.847l177.831,-94.784c-23.283,-20.07 -40.013,-46.915 -47.774,-77.608l-11.482,-45.579l-237.373,0l-11.514,45.579c-7.729,30.693 -24.491,57.538 -47.742,77.545Zm178.054,145.737c-3.849,0 -7.697,-0.922 -11.228,-2.798l-225.191,-119.975c-8.047,-4.262 -12.945,-12.786 -12.627,-21.851c0.318,-9.129 5.821,-17.271 14.122,-20.929c29.262,-13.104 50.541,-38.39 58.365,-69.402l16.031,-63.613c2.672,-10.624 12.182,-18.003 23.123,-18.003l274.555,0c10.942,0 20.452,7.379 23.124,18.003l16.03,63.613c7.856,31.012 29.135,56.298 58.365,69.402c8.333,3.658 13.804,11.8 14.122,20.929c0.318,9.065 -4.58,17.589 -12.627,21.851l-224.936,119.975c-3.499,1.876 -7.379,2.798 -11.228,2.798Z" style="fill-rule:nonzero;"/><path d="M1313.49,855.471c0,182.888 -121.692,331.107 -271.819,331.107c-150.128,-0 -271.82,-148.219 -271.82,-331.107c0,-182.825 121.692,-279.294 271.82,-279.294c150.127,-0 271.819,96.469 271.819,279.294Z" style="fill:#fff;fill-rule:nonzero;"/><path d="M1041.67,600.032c-150.636,-0 -247.965,100.254 -247.965,255.439c0,169.402 111.228,307.252 247.965,307.252c136.736,-0 247.964,-137.85 247.964,-307.252c0,-155.185 -97.328,-255.439 -247.964,-255.439Zm-0,610.401c-163.041,-0 -295.675,-159.192 -295.675,-354.962c0,-181.33 118.83,-303.149 295.675,-303.149c176.876,-0 295.674,121.819 295.674,303.149c-0,195.77 -132.634,354.962 -295.674,354.962Z" style="fill-rule:nonzero;"/><path d="M1041.35,782.347c-113.327,-41.666 -207.061,-30.598 -260.019,-17.239c-7.38,27.322 -11.483,57.379 -11.483,90.363c0,182.888 121.692,331.107 271.82,331.107c150.127,-0 271.819,-148.219 271.819,-331.107c0,-23.156 -1.972,-44.911 -5.693,-65.331c-63.264,16.38 -163.9,29.994 -266.444,-7.793Z" style="fill:#fff;fill-rule:nonzero;"/><path d="M801.018,785.019c-4.867,22.265 -7.316,45.865 -7.316,70.452c0,169.402 111.228,307.252 247.965,307.252c136.736,-0 247.964,-137.85 247.964,-307.252c0,-12.278 -0.604,-24.396 -1.781,-36.133c-67.844,14.091 -160.369,20.166 -254.739,-14.535c-96.184,-35.496 -177.354,-31.33 -232.093,-19.784Zm240.649,425.414c-163.041,-0 -295.675,-159.192 -295.675,-354.962c0,-33.906 4.135,-66.413 12.278,-96.597c2.258,-8.365 8.842,-14.854 17.207,-16.953c60.942,-15.331 157.984,-24.65 274.11,18.066c95.515,35.178 189.853,23.251 252.194,7.093c6.425,-1.749 13.2,-0.636 18.862,2.99c5.566,3.53 9.414,9.256 10.623,15.776c4.039,22.169 6.075,45.579 6.075,69.625c-0,195.77 -132.634,354.962 -295.674,354.962Z" style="fill-rule:nonzero;"/><path d="M1065.65,1424.46l-0,228.976c189.631,-7.379 364.599,-102.004 475,-257.125c-24.237,-24.109 -55.216,-40.171 -88.868,-46.024l-158.842,-27.385c-8.461,-1.495 -16.698,-3.69 -24.714,-6.489l-202.576,108.047Zm-23.855,277.195c-6.33,-0 -12.405,-2.545 -16.858,-7.029c-4.484,-4.485 -6.997,-10.496 -6.997,-16.826l-0,-267.685c-0,-8.842 4.866,-16.889 12.627,-21.055l224.937,-119.975c6.52,-3.403 14.249,-3.721 20.96,-0.668c7.825,3.467 16.094,5.948 24.587,7.443l158.842,27.385c50.763,8.779 96.787,35.719 129.58,75.923c6.648,8.142 7.188,19.624 1.368,28.339c-122.901,184.129 -328.149,294.084 -549.046,294.148Z" style="fill-rule:nonzero;"/><path d="M542.684,1396.31c110.465,155.185 285.528,249.873 475.255,257.125l-0,-228.976l-202.799,-108.047c-8.015,2.799 -16.285,4.994 -24.714,6.489l-158.842,27.385c-33.651,5.853 -64.663,21.915 -88.9,46.024Zm499.11,305.344c-221.056,-0 -426.368,-109.955 -549.3,-294.148c-5.821,-8.715 -5.28,-20.197 1.367,-28.339c32.825,-40.204 78.849,-67.144 129.612,-75.923l158.843,-27.385c8.492,-1.495 16.762,-3.976 24.554,-7.443c6.711,-3.053 14.44,-2.799 20.929,0.668l225.223,119.975c7.76,4.166 12.627,12.213 12.627,21.055l-0,267.685c-0,13.168 -10.687,23.855 -23.855,23.855Z" style="fill-rule:nonzero;"/><path d="M246.533,182.888c0,35.146 -28.499,63.613 -63.613,63.613c-35.146,0 -63.613,-28.467 -63.613,-63.613c-0,-35.178 28.467,-63.613 63.613,-63.613c35.114,-0 63.613,28.435 63.613,63.613Z" style="fill:#fff;fill-rule:nonzero;"/><path d="M182.92,143.13c-21.947,-0 -39.758,17.812 -39.758,39.758c-0,21.915 17.811,39.758 39.758,39.758c21.915,0 39.758,-17.843 39.758,-39.758c0,-21.946 -17.843,-39.758 -39.758,-39.758Zm-0,127.226c-48.251,0 -87.468,-39.281 -87.468,-87.468c-0,-48.282 39.217,-87.468 87.468,-87.468c48.219,-0 87.468,39.186 87.468,87.468c0,48.187 -39.249,87.468 -87.468,87.468Z" style="fill-rule:nonzero;"/><path d="M1868.64,87.468c-0,35.083 -28.499,63.613 -63.614,63.613c-35.146,0 -63.613,-28.53 -63.613,-63.613c0,-35.178 28.467,-63.613 63.613,-63.613c35.115,-0 63.614,28.435 63.614,63.613Z" style="fill:#fff;fill-rule:nonzero;"/><path d="M1805.03,47.71c-21.946,-0 -39.758,17.812 -39.758,39.758c0,21.915 17.812,39.758 39.758,39.758c21.915,0 39.759,-17.843 39.759,-39.758c-0,-21.946 -17.844,-39.758 -39.759,-39.758Zm0,127.226c-48.25,0 -87.468,-39.281 -87.468,-87.468c0,-48.282 39.218,-87.468 87.468,-87.468c48.219,0 87.469,39.186 87.469,87.468c-0,48.187 -39.25,87.468 -87.469,87.468Z" style="fill-rule:nonzero;"/><path d="M2059.48,310.115c0,35.146 -28.466,63.613 -63.613,63.613c-35.114,-0 -63.613,-28.467 -63.613,-63.613c-0,-35.115 28.499,-63.614 63.613,-63.614c35.147,0 63.613,28.499 63.613,63.614Z" style="fill:#fff;fill-rule:nonzero;"/><path d="M1995.87,270.356c-21.914,0 -39.758,17.812 -39.758,39.759c-0,21.914 17.844,39.758 39.758,39.758c21.947,-0 39.758,-17.844 39.758,-39.758c0,-21.947 -17.811,-39.759 -39.758,-39.759Zm0,127.227c-48.219,-0 -87.468,-39.218 -87.468,-87.468c-0,-48.219 39.249,-87.469 87.468,-87.469c48.251,0 87.468,39.25 87.468,87.469c0,48.25 -39.217,87.468 -87.468,87.468Z" style="fill-rule:nonzero;"/><path d="M151.081,1805.03c0,35.083 -28.467,63.614 -63.613,63.614c-35.114,-0 -63.613,-28.531 -63.613,-63.614c-0,-35.178 28.499,-63.613 63.613,-63.613c35.146,0 63.613,28.435 63.613,63.613Z" style="fill:#fff;fill-rule:nonzero;"/><path d="M87.468,1765.2c-21.915,-0 -39.758,17.811 -39.758,39.758c-0,21.915 17.843,39.758 39.758,39.758c21.947,0 39.758,-17.843 39.758,-39.758c0,-21.947 -17.811,-39.758 -39.758,-39.758Zm0,127.226c-48.219,0 -87.468,-39.217 -87.468,-87.468c0,-48.219 39.249,-87.468 87.468,-87.468c48.251,-0 87.468,39.249 87.468,87.468c0,48.251 -39.217,87.468 -87.468,87.468Z" style="fill-rule:nonzero;"/><path d="M405.566,1995.87c0,35.083 -28.467,63.613 -63.613,63.613c-35.115,0 -63.613,-28.53 -63.613,-63.613c-0,-35.178 28.498,-63.613 63.613,-63.613c35.146,-0 63.613,28.435 63.613,63.613Z" style="fill:#fff;fill-rule:nonzero;"/><path d="M341.953,1956.11c-21.915,-0 -39.758,17.812 -39.758,39.758c-0,21.915 17.843,39.758 39.758,39.758c21.947,0 39.758,-17.843 39.758,-39.758c0,-21.946 -17.811,-39.758 -39.758,-39.758Zm-0,127.226c-48.251,0 -87.468,-39.281 -87.468,-87.468c-0,-48.282 39.217,-87.468 87.468,-87.468c48.251,-0 87.468,39.186 87.468,87.468c0,48.187 -39.217,87.468 -87.468,87.468Z" style="fill-rule:nonzero;"/><path d="M2027.67,1836.83c-0,35.083 -28.467,63.613 -63.613,63.613c-35.147,0 -63.614,-28.53 -63.614,-63.613c0,-35.178 28.467,-63.613 63.614,-63.613c35.146,-0 63.613,28.435 63.613,63.613Z" style="fill:#fff;fill-rule:nonzero;"/><path d="M1964.06,1797.01c-21.915,0 -39.759,17.812 -39.759,39.758c0,21.915 17.844,39.759 39.759,39.759c21.946,-0 39.758,-17.844 39.758,-39.759c-0,-21.946 -17.812,-39.758 -39.758,-39.758Zm-0,127.227c-48.219,-0 -87.469,-39.218 -87.469,-87.469c0,-48.218 39.25,-87.468 87.469,-87.468c48.25,0 87.468,39.25 87.468,87.468c-0,48.251 -39.218,87.469 -87.468,87.469Z" style="fill-rule:nonzero;"/><path d="M1544.94,1165.11l-127.227,0c-13.168,0 -23.855,-10.687 -23.855,-23.855c0,-13.168 10.687,-23.855 23.855,-23.855l127.227,0c13.168,0 23.855,10.687 23.855,23.855c-0,13.168 -10.687,23.855 -23.855,23.855Z" style="fill-rule:nonzero;"/><path d="M1481.33,1228.72c-13.168,-0 -23.855,-10.688 -23.855,-23.855l-0,-127.227c-0,-13.168 10.687,-23.855 23.855,-23.855c13.167,0 23.855,10.687 23.855,23.855l-0,127.227c-0,13.167 -10.688,23.855 -23.855,23.855Z" style="fill-rule:nonzero;"/><path d="M665.617,873.441l-127.226,0c-13.168,0 -23.855,-10.687 -23.855,-23.855c-0,-13.167 10.687,-23.854 23.855,-23.854l127.226,-0c13.168,-0 23.855,10.687 23.855,23.854c0,13.168 -10.687,23.855 -23.855,23.855Z" style="fill-rule:nonzero;"/><path d="M602.004,937.055c-13.168,-0 -23.855,-10.687 -23.855,-23.855l-0,-127.227c-0,-13.168 10.687,-23.855 23.855,-23.855c13.168,0 23.855,10.687 23.855,23.855l-0,127.227c-0,13.168 -10.687,23.855 -23.855,23.855Z" style="fill-rule:nonzero;"/></g></g></svg>