<?xml version="1.0" encoding="UTF-8" standalone="no"?><!DOCTYPE svg PUBLIC "-//W3C//DTD SVG 1.1//EN" "http://www.w3.org/Graphics/SVG/1.1/DTD/svg11.dtd"><svg width="100%" height="100%" viewBox="0 0 2084 2084" version="1.1" xmlns="http://www.w3.org/2000/svg" xmlns:xlink="http://www.w3.org/1999/xlink" xml:space="preserve" xmlns:serif="http://www.serif.com/" style="fill-rule:evenodd;clip-rule:evenodd;stroke-linejoin:round;stroke-miterlimit:2;"><rect id="画板1" x="0" y="0" width="2083.33" height="2083.33" style="fill:none;"/><clipPath id="_clip1"><rect id="画板11" serif:id="画板1" x="0" y="0" width="2083.33" height="2083.33"/></clipPath><g clip-path="url(#_clip1)"><g><path d="M285.947,959.54l265.251,428.755l-43.523,368.771l-433.132,137.465l211.404,-934.991Zm143.698,-635.509l262.367,-128.252l-62.965,533.296l-280.135,-47.899l80.733,-357.145Zm1146.01,1433.04l-71.894,-608.352l336.402,-0l168.715,745.817l-433.223,-137.465Zm-502.415,-63.618l138.668,160.716l-138.668,43.994l-0,-204.71Zm-502.234,65.292l38.88,-329.613l400.202,199.034l-0,269.997l-439.082,-139.418Zm502.234,-533.665l167.131,-316.312l197.728,221.91l74.222,628.067l-235.029,74.591l-204.052,-236.516l-0,-371.74Zm-63.152,59.151l-0,273.437l-206.658,-102.775l206.658,-170.662Zm-316.404,-564.08l62.403,-529.203l254.001,130.67l-0,293.992l-316.404,104.541Zm-8.186,69.192l324.59,-107.231l-0,520.273l-268.601,221.724l-123.699,-61.478l67.71,-573.288Zm387.742,-68.08l122.206,137.278l-122.206,231.402l-0,-368.68Zm153.74,77.571l-153.74,-172.433l-0,-304.783l253.904,-130.67l40.366,341.982l-140.53,265.904Zm167.131,-41.019l31.153,263.583l-153.456,-172.252l108.725,-205.817l13.578,114.486Zm-2.884,-562.031l232.515,113.652l-199.221,167.596l-33.294,-281.248Zm434.71,889.788l-329.522,-0l-62.965,-533.483l228.331,-192.245l164.156,725.728Zm-1490.98,-342.732l286.738,48.921l-58.594,495.819l-257.35,-416.017l29.206,-128.723Zm1747.67,1191.41l-370.626,-1638.86l-0.556,-0.931l-4.371,-9.111l-1.488,-2.884l-0.278,-0.465l-10.138,-7.908l-0.097,-0.091l-328.029,-160.342l-7.255,-2.418l-3.162,-0.375l-3.627,-0.369l-0.556,0.091l-0.562,0l-3.253,0.278l-4.649,1.119l-3.162,1.112l-2.049,0.931l-297.155,152.809l-297.057,-152.809l-2.049,-0.834l-3.344,-1.306l-4.377,-0.925l-3.343,-0.375l-0.653,0l-0.465,-0.091l-3.815,0.369l-2.975,0.375l-5.114,1.675l-2.14,0.743l-328.03,160.342c-8.56,4.184 -14.696,11.995 -16.927,21.39l-129.836,574.587l-240.7,1064.27c-2.509,10.972 1.022,22.598 9.395,30.222l8.832,5.489l2.793,1.022l8.09,1.487l1.674,0.375l0.653,-0.187l8.929,-1.3l495.439,-157.277l495.444,157.277l9.576,1.487l9.673,-1.487l495.445,-157.277l495.438,157.277l9.582,1.487l21.39,-8.373c8.276,-7.624 11.813,-19.25 9.485,-30.222Z" style="fill:#0b0b16;fill-rule:nonzero;"/></g></g></svg>