<?xml version="1.0" encoding="UTF-8" standalone="no"?><!DOCTYPE svg PUBLIC "-//W3C//DTD SVG 1.1//EN" "http://www.w3.org/Graphics/SVG/1.1/DTD/svg11.dtd"><svg width="100%" height="100%" viewBox="0 0 2084 2084" version="1.1" xmlns="http://www.w3.org/2000/svg" xmlns:xlink="http://www.w3.org/1999/xlink" xml:space="preserve" xmlns:serif="http://www.serif.com/" style="fill-rule:evenodd;clip-rule:evenodd;stroke-linejoin:round;stroke-miterlimit:2;"><rect id="画板1" x="0" y="0" width="2083.33" height="2083.33" style="fill:none;"/><clipPath id="_clip1"><rect id="画板11" serif:id="画板1" x="0" y="0" width="2083.33" height="2083.33"/></clipPath><g clip-path="url(#_clip1)"><g><path d="M1129.56,1993.55c-221.63,-55.988 -349.511,-252.976 -417.684,-408.383c-42.131,-95.61 -118.022,-171.596 -213.817,-213.631c-155.318,-68.357 -352.302,-196.238 -408.29,-417.874c-73.102,-288.59 6.789,-637.448 190.194,-855.172c29.017,110.766 119.976,341.512 392.107,498.503c325.982,188.149 239.58,525.569 235.674,539.8c-2.883,10.877 0.279,22.502 8.185,30.506c7.998,7.999 19.717,11.16 30.505,8.18c14.416,-3.809 351.837,-90.212 539.892,235.77c156.899,272.128 387.736,363.089 498.505,392.108c-217.817,183.404 -566.584,263.199 -855.271,190.193Zm951.996,-219.302c-3.999,-11.444 -14.23,-19.533 -26.321,-20.93c-3.162,-0.369 -321.424,-39.338 -514.222,-373.597c-168.897,-292.688 -452.003,-288.408 -563.608,-273.717c14.694,-111.788 18.786,-394.804 -273.806,-563.699c-333.05,-192.055 -373.321,-511.06 -373.599,-514.312c-1.396,-12.001 -9.487,-22.23 -21.02,-26.135c-11.439,-4.093 -24.088,-1.306 -32.737,7.345c-226.838,226.932 -331.004,630.569 -247.765,959.899c62.407,246.556 275.945,386.25 444.19,460.187c81.287,35.621 145.646,100.169 181.36,181.36c73.845,168.248 213.724,381.782 460.093,444.1c76.264,19.249 156.434,28.553 237.534,28.553c269.156,-0 548.076,-101.934 722.46,-276.318c8.556,-8.56 11.44,-21.207 7.441,-32.736Z" style="fill:#0b0b16;fill-rule:nonzero;"/><path d="M582.79,1112.23l-10.696,12.931l-16.275,1.022c-47.619,-16.837 -119.511,-60.643 -191.311,-173.362c-57.57,-90.587 -68.265,-154.016 -67.149,-191.311c1.209,-38.13 32.83,-68.914 71.985,-70.032l4.093,-0.091c57.755,0 114.116,35.059 163.409,101.65c87.052,117.652 66.126,250.461 45.944,319.193Zm-215.306,-483.904c-72.357,2.14 -130.95,59.712 -133.182,131.231c-2.046,67.148 23.809,143.509 76.914,227.022c81.379,128.069 166.386,178.942 223.491,199.128c8.928,3.253 18.415,4.74 27.901,4.74c13.114,-0 26.227,-2.975 38.132,-9.02c20.554,-10.604 36.086,-29.297 42.596,-51.339c23.623,-79.892 47.619,-234.93 -55.71,-374.527c-79.984,-108.167 -163.688,-129 -220.142,-127.235Z" style="fill:#0b0b16;fill-rule:nonzero;"/><path d="M1321.81,1785.87c-37.295,1.391 -100.724,-9.491 -191.218,-67.057c-112.721,-71.803 -156.619,-143.6 -173.546,-191.311l1.116,-16.275l12.927,-10.791c68.638,-20.089 201.448,-41.013 319.099,45.946c68.266,50.499 103.422,108.439 101.747,167.498c-1.209,39.248 -31.993,70.872 -70.125,71.99Zm5.952,-290.083c-139.6,-103.421 -294.545,-79.426 -374.529,-55.806c-22.136,6.42 -40.829,21.951 -51.339,42.506c-10.324,20.555 -11.998,44.453 -4.278,66.126c20.089,57.01 71.148,142.016 199.03,223.395c80.356,51.248 154.201,77.105 219.491,77.105l7.626,-0.188c71.427,-2.14 129.09,-60.733 131.136,-133.092c1.674,-56.357 -19.066,-140.154 -127.137,-220.046Z" style="fill:#0b0b16;fill-rule:nonzero;"/></g></g></svg>