<?xml version="1.0" encoding="UTF-8" standalone="no"?><!DOCTYPE svg PUBLIC "-//W3C//DTD SVG 1.1//EN" "http://www.w3.org/Graphics/SVG/1.1/DTD/svg11.dtd"><svg width="100%" height="100%" viewBox="0 0 2084 2084" version="1.1" xmlns="http://www.w3.org/2000/svg" xmlns:xlink="http://www.w3.org/1999/xlink" xml:space="preserve" xmlns:serif="http://www.serif.com/" style="fill-rule:evenodd;clip-rule:evenodd;stroke-linejoin:round;stroke-miterlimit:2;"><rect id="画板1" x="0" y="0" width="2083.33" height="2083.33" style="fill:none;"/><clipPath id="_clip1"><rect id="画板11" serif:id="画板1" x="0" y="0" width="2083.33" height="2083.33"/></clipPath><g clip-path="url(#_clip1)"><g><path d="M1663.59,1415.86l22.882,38.322c17.207,28.834 8.742,65.761 -19.348,84.457l-37.112,24.556c-38.601,25.485 -60.18,69.946 -55.993,116.081l3.999,44.554c2.975,33.299 -20.744,63.157 -54.04,67.528l-44.183,6.046c-45.857,6.139 -84.458,37.02 -100.828,80.365l-15.72,41.856c-11.718,31.439 -46.133,47.903 -77.945,37.578l-42.414,-13.766c-44.182,-14.231 -92.27,-3.349 -125.757,28.648l-32.181,30.788c-24.278,23.253 -62.32,23.16 -86.596,0.093l-32.184,-30.881c-23.812,-22.695 -55.065,-34.787 -86.874,-34.787c-12.93,-0 -26.138,1.953 -38.88,6.139l-42.508,13.766c-31.811,10.417 -66.226,-6.139 -77.947,-37.764l-15.72,-41.577c-16.276,-43.438 -54.878,-74.319 -100.826,-80.458l-44.088,-6.046c-33.3,-4.371 -57.019,-34.229 -53.95,-67.528l3.815,-44.554c4.278,-46.135 -17.207,-90.596 -55.903,-116.081l-37.205,-24.649c-27.997,-18.603 -36.461,-55.53 -19.254,-84.364l22.882,-38.322c23.719,-39.717 23.719,-89.201 -0,-128.918l-22.882,-38.321c-17.207,-28.742 -8.743,-65.948 19.348,-84.364l37.111,-24.556c38.696,-25.579 60.181,-70.04 55.903,-116.175l-3.815,-44.554c-3.069,-33.392 20.65,-63.157 53.856,-67.714l44.182,-5.86c46.042,-6.232 84.644,-37.113 100.826,-80.457l15.72,-41.671c11.721,-31.439 46.136,-47.995 77.947,-37.578l42.508,13.766c43.995,14.232 92.177,3.256 125.754,-28.741l32.184,-30.788c24.276,-23.16 62.318,-23.16 86.596,0l32.181,30.788c33.58,31.997 81.669,42.973 125.757,28.741l42.414,-13.766c31.903,-10.324 66.227,6.139 77.945,37.578l15.72,41.671c16.279,43.344 54.971,74.225 100.922,80.457l44.089,5.86c33.296,4.557 57.015,34.322 54.04,67.807l-3.999,44.461c-4.187,46.135 17.392,90.596 55.993,116.175l37.112,24.556c28.09,18.416 36.555,55.622 19.348,84.364l-22.882,38.321c-23.719,39.717 -23.719,89.201 -0,128.918Zm-1193.74,-1352.8l294.39,-0l237.092,296.901l-116.452,145.753l-61.762,0l-353.268,-442.654Zm849.126,-0l294.482,-0l-353.359,442.654l-294.485,0l353.362,-442.654Zm421.727,1358.75l-22.882,-38.322c-11.905,-19.719 -11.905,-44.368 -0,-64.273l22.882,-38.322c34.508,-57.762 17.485,-132.266 -38.696,-169.286l-37.205,-24.741c-19.254,-12.65 -29.95,-34.881 -27.903,-57.762l4,-44.461c5.952,-67.063 -41.577,-126.778 -108.457,-135.894l-44.088,-6.046c-22.882,-3.069 -42.042,-18.323 -50.226,-39.996l-15.72,-41.763c-23.719,-62.971 -92.364,-96.084 -156.544,-75.342l-42.414,13.766c-21.857,7.069 -45.948,1.675 -62.599,-14.324l-32.275,-30.695c-13.951,-13.487 -30.415,-22.509 -47.716,-28.183l0,-57.018l194.306,0l0.837,-0.186l91.993,0c17.485,0 31.624,-14.231 31.624,-31.625c0,-17.486 -14.139,-31.625 -31.624,-31.625l-27.069,0l362.849,-454.56c7.533,-9.394 9.023,-22.509 3.815,-33.392c-5.396,-10.883 -16.373,-17.766 -28.463,-17.766l-375.312,0c-9.581,0 -18.698,4.279 -24.651,11.813l-237.557,297.552l-237.372,-297.552c-6.046,-7.534 -15.161,-11.813 -24.835,-11.813l-375.219,0c-12.092,0 -23.254,6.883 -28.462,17.766c-5.117,10.883 -3.722,23.998 3.812,33.392l362.849,454.56l-11.905,0c-17.301,0 -31.44,14.139 -31.44,31.625c-0,17.394 14.139,31.625 31.44,31.625l76.828,0l0.838,0.186l209.56,0l-0,52.553c-22.882,4.465 -44.832,15.255 -62.971,32.648l-32.181,30.695c-16.835,15.999 -40.835,21.393 -62.692,14.324l-42.414,-13.766c-64.18,-20.742 -132.825,12.371 -156.638,75.342l-15.717,41.763c-7.999,21.673 -27.254,36.927 -50.042,39.996l-44.276,6.046c-66.783,9.116 -114.314,68.831 -108.362,135.894l4,44.461c2.046,22.881 -8.65,45.112 -27.904,57.855l-37.205,24.648c-56.181,37.02 -73.11,111.524 -38.601,169.286l22.788,38.322c11.814,19.905 11.814,44.554 -0,64.273l-22.788,38.322c-34.603,57.855 -17.58,132.359 38.601,169.379l37.205,24.649c19.254,12.65 29.95,34.973 27.904,57.948l-4,44.274c-5.952,67.157 41.579,126.872 108.362,135.894l44.183,6.046c22.881,3.163 42.136,18.417 50.319,40.089l15.533,41.671c23.813,63.063 92.458,96.269 156.638,75.434l42.414,-13.766c22.044,-7.162 45.857,-1.674 62.599,14.231l32.274,30.881c24.463,23.254 55.625,34.787 86.877,34.787c31.253,0 62.599,-11.533 86.968,-34.787l32.275,-30.881c16.557,-15.905 40.555,-21.393 62.599,-14.231l42.414,13.766c64.18,20.835 132.825,-12.371 156.544,-75.342l15.72,-41.856c8.184,-21.579 27.344,-36.833 50.226,-39.996l44.182,-6.046c66.786,-9.022 114.315,-68.737 108.363,-135.894l-4,-44.274c-2.047,-22.975 8.649,-45.298 27.903,-57.948l37.205,-24.649c56.181,-37.02 73.204,-111.524 38.696,-169.379Z" style="fill:#0b0b16;fill-rule:nonzero;"/><path d="M1041.61,1799.92c-247.324,-0 -448.607,-201.19 -448.607,-448.515c-0,-247.325 201.283,-448.515 448.607,-448.515c247.419,0 448.608,201.19 448.608,448.515c-0,247.325 -201.189,448.515 -448.608,448.515Zm0,-960.279c-282.02,-0 -511.672,229.652 -511.672,511.764c0,282.112 229.652,511.765 511.672,511.765c282.205,-0 511.67,-229.653 511.67,-511.765c-0,-282.112 -229.465,-511.764 -511.67,-511.764Z" style="fill:#0b0b16;fill-rule:nonzero;"/><path d="M1174.99,1388.7c-7.534,7.162 -10.883,17.766 -9.115,27.997l25.857,150.683l-135.335,-71.063c-9.208,-4.93 -20.278,-4.93 -29.393,0l-135.428,71.063l25.765,-150.683c1.86,-10.231 -1.581,-20.835 -9.023,-27.997l-109.478,-106.781l151.335,-21.951c10.324,-1.581 19.254,-7.906 23.81,-17.301l67.623,-137.103l67.714,137.103c4.65,9.395 13.486,15.72 23.81,17.301l151.336,21.951l-109.478,106.781Zm-16.37,-188.819l-88.643,-179.704c-10.605,-21.579 -46.042,-21.579 -56.553,0l-88.827,179.704l-198.121,28.834c-11.999,1.675 -21.766,10.046 -25.578,21.487c-3.628,11.348 -0.559,23.904 7.999,32.369l143.521,139.707l-33.859,197.469c-2.046,11.906 2.791,23.812 12.558,30.974c9.674,7.069 22.694,7.906 33.206,2.325l177.285,-93.2l177.377,93.2l14.604,3.628l18.601,-5.953c9.768,-7.162 14.605,-19.068 12.558,-30.974l-33.764,-197.283l143.43,-139.893c8.555,-8.465 11.717,-21.021 7.905,-32.369c-3.721,-11.441 -13.58,-19.812 -25.487,-21.487l-198.212,-28.834Z" style="fill:#0b0b16;fill-rule:nonzero;"/></g></g></svg>