<?xml version="1.0" encoding="UTF-8" standalone="no"?><!DOCTYPE svg PUBLIC "-//W3C//DTD SVG 1.1//EN" "http://www.w3.org/Graphics/SVG/1.1/DTD/svg11.dtd"><svg width="100%" height="100%" viewBox="0 0 2084 2084" version="1.1" xmlns="http://www.w3.org/2000/svg" xmlns:xlink="http://www.w3.org/1999/xlink" xml:space="preserve" xmlns:serif="http://www.serif.com/" style="fill-rule:evenodd;clip-rule:evenodd;stroke-linejoin:round;stroke-miterlimit:2;"><rect id="画板1" x="0" y="0" width="2083.33" height="2083.33" style="fill:none;"/><g id="画板11" serif:id="画板1"><g><path d="M1848.21,1844.77l-75.613,0c14.601,-129.648 117.745,-232.98 247.581,-247.58l-0,75.703c-0,94.777 -77.191,171.877 -171.968,171.877Zm-49.846,112.352l-220.611,-0l-0,-49.199l220.611,-0l-0,49.199Zm-1292.88,-0l-220.52,-0l0,-49.199l220.52,-0l0,49.199Zm-442.43,-284.229l-0,-75.703c129.835,14.6 233.071,117.932 247.671,247.58l-75.613,0c-94.862,0 -172.058,-77.1 -172.058,-171.877Zm172.058,-1195.96l75.613,-0c-14.6,129.836 -117.836,232.98 -247.671,247.58l-0,-75.612c-0,-94.868 77.196,-171.968 172.058,-171.968Zm465.217,-175.783c-0,-53.388 43.432,-96.724 96.82,-96.724l1.488,0c13.203,46.872 55.801,81.562 106.862,81.562l272.228,0c51.062,0 93.75,-34.69 106.863,-81.562l1.675,0c53.292,0 96.729,43.336 96.729,96.724l0,112.63l-682.665,0l-0,-112.63Zm205.17,-175.038l272.228,-0c26.692,-0 48.365,21.576 48.365,48.268c0,26.788 -21.673,48.365 -48.365,48.365l-272.228,-0c-26.691,-0 -48.268,-21.577 -48.268,-48.365c-0,-26.692 21.577,-48.268 48.268,-48.268Zm1114.67,522.789l-0,75.612c-129.836,-14.6 -232.98,-117.744 -247.581,-247.58l75.613,-0c94.777,-0 171.968,77.1 171.968,171.968Zm-311.011,1195.87l-1335.01,0c-15.065,-164.435 -146.479,-295.849 -311.101,-311.011l-0,-745.812c164.622,-15.066 296.036,-146.395 311.101,-311.011l1335.01,-0c15.066,164.616 146.394,295.945 311.011,311.011l-0,745.812c-164.617,15.162 -295.945,146.576 -311.011,311.011Zm139.043,-1430.99l-402.155,0l0,-112.63c0,-88.265 -71.616,-159.876 -159.785,-159.876l-2.697,-0c-14.231,-45.203 -55.988,-78.315 -105.841,-78.315l-272.228,0c-49.852,0 -91.609,33.112 -105.841,78.315l-2.509,-0c-88.266,-0 -159.973,71.611 -159.973,159.876l0,112.63l-402.064,0c-129.648,0 -235.12,105.466 -235.12,235.121l0,1023.99c0,125.096 98.404,227.4 221.82,234.377l-0,81.567c-0,17.484 14.14,31.528 31.528,31.528l283.763,0c17.484,0 31.528,-14.044 31.528,-31.528l0,-80.914l945.964,-0l0,80.914c0,17.484 14.044,31.528 31.528,31.528l283.764,0c17.484,0 31.528,-14.044 31.528,-31.528l-0,-81.567c123.512,-6.977 221.91,-109.281 221.91,-234.377l0,-1023.99c0,-129.655 -105.466,-235.121 -235.12,-235.121Z" style="fill:#0b0b16;fill-rule:nonzero;"/><path d="M1041.58,1602.77c-243.584,-0 -441.869,-198.194 -441.869,-441.869c0,-243.68 198.285,-441.965 441.869,-441.965c243.766,0 441.965,198.285 441.965,441.965c-0,243.675 -198.199,441.869 -441.965,441.869Zm-0,-946.896c-278.461,0 -505.021,226.566 -505.021,505.027c-0,278.456 226.56,505.112 505.021,505.112c278.552,0 505.112,-226.656 505.112,-505.112c-0,-278.461 -226.56,-505.027 -505.112,-505.027Z" style="fill:#0b0b16;fill-rule:nonzero;"/><path d="M1262.65,1204.99l-145.276,-0c-17.393,-0 -31.437,14.226 -31.437,31.619l-0,145.276l-88.448,-0l0,-145.276c0,-17.393 -14.231,-31.619 -31.624,-31.619l-145.18,-0l-0,-88.357l145.18,0c17.393,0 31.624,-14.044 31.624,-31.528l0,-145.185l88.448,-0l-0,145.185c-0,17.484 14.044,31.528 31.437,31.528l145.276,0l0,88.357Zm31.528,-151.418l-145.185,-0l-0,-145.271c-0,-17.393 -14.135,-31.534 -31.619,-31.534l-151.509,0c-17.388,0 -31.528,14.141 -31.528,31.534l-0,145.271l-145.277,-0c-17.387,-0 -31.528,14.14 -31.528,31.533l0,151.504c0,17.393 14.141,31.528 31.528,31.528l145.277,-0l-0,145.276c-0,17.484 14.14,31.715 31.528,31.715l151.509,0c17.484,0 31.619,-14.231 31.619,-31.715l-0,-145.276l145.185,-0c17.393,-0 31.619,-14.135 31.619,-31.528l-0,-151.504c-0,-17.393 -14.226,-31.533 -31.619,-31.533Z" style="fill:#0b0b16;fill-rule:nonzero;"/></g></g></svg>