<?xml version="1.0" encoding="UTF-8" standalone="no"?><!DOCTYPE svg PUBLIC "-//W3C//DTD SVG 1.1//EN" "http://www.w3.org/Graphics/SVG/1.1/DTD/svg11.dtd"><svg width="100%" height="100%" viewBox="0 0 2084 2084" version="1.1" xmlns="http://www.w3.org/2000/svg" xmlns:xlink="http://www.w3.org/1999/xlink" xml:space="preserve" xmlns:serif="http://www.serif.com/" style="fill-rule:evenodd;clip-rule:evenodd;stroke-linejoin:round;stroke-miterlimit:2;"><rect id="画板1" x="0" y="0" width="2083.33" height="2083.33" style="fill:none;"/><clipPath id="_clip1"><rect id="画板11" serif:id="画板1" x="0" y="0" width="2083.33" height="2083.33"/></clipPath><g clip-path="url(#_clip1)"><g><path d="M649.368,161.831c-17.392,-0 -31.529,14.23 -31.529,31.528l-0,1285.99c-0,17.393 14.137,31.529 31.529,31.529c17.485,0 31.622,-14.136 31.622,-31.529l-0,-1285.99c-0,-17.298 -14.137,-31.528 -31.622,-31.528Z" style="fill:#0b0b16;fill-rule:nonzero;"/><path d="M946.708,302.362c44.271,-0 80.357,36.18 80.357,80.358c-0,44.363 -36.086,80.449 -80.357,80.449c-44.271,0 -80.357,-36.086 -80.357,-80.449c-0,-44.178 36.086,-80.358 80.357,-80.358Zm-0,223.772c79.055,0 143.508,-64.266 143.508,-143.414c0,-79.056 -64.453,-143.416 -143.508,-143.416c-79.055,0 -143.415,64.36 -143.415,143.416c-0,79.148 64.36,143.414 143.415,143.414Z" style="fill:#0b0b16;fill-rule:nonzero;"/><path d="M352.12,1370.26c-44.27,-0 -80.357,-35.901 -80.357,-80.265c0,-44.271 36.087,-80.263 80.357,-80.263c44.272,-0 80.358,35.992 80.358,80.263c0,44.364 -36.086,80.265 -80.358,80.265Zm0,-223.773c-79.147,-0 -143.415,64.454 -143.415,143.508c0,79.148 64.268,143.508 143.415,143.508c79.149,0 143.509,-64.36 143.509,-143.508c0,-79.054 -64.36,-143.508 -143.509,-143.508Z" style="fill:#0b0b16;fill-rule:nonzero;"/><path d="M352.12,916.759c-44.27,0 -80.357,-35.993 -80.357,-80.357c0,-44.271 36.087,-80.263 80.357,-80.263c44.272,-0 80.358,35.992 80.358,80.263c0,44.364 -36.086,80.357 -80.358,80.357Zm0,-223.865c-79.147,0 -143.415,64.454 -143.415,143.508c0,79.148 64.268,143.416 143.415,143.416c79.149,-0 143.509,-64.268 143.509,-143.416c0,-79.054 -64.36,-143.508 -143.509,-143.508Z" style="fill:#0b0b16;fill-rule:nonzero;"/><path d="M352.12,463.169c-44.27,0 -80.357,-36.086 -80.357,-80.449c0,-44.178 36.087,-80.358 80.357,-80.358c44.272,-0 80.358,36.18 80.358,80.358c0,44.363 -36.086,80.449 -80.358,80.449Zm0,-223.865c-79.147,0 -143.415,64.36 -143.415,143.416c0,79.148 64.268,143.414 143.415,143.414c79.149,0 143.509,-64.266 143.509,-143.414c0,-79.056 -64.36,-143.416 -143.509,-143.416Z" style="fill:#0b0b16;fill-rule:nonzero;"/><path d="M2010.88,1047.62l-530.878,0c-17.485,0 -31.529,14.138 -31.529,31.53l-0,635.416c-0,17.393 14.044,31.529 31.529,31.529l530.878,0l0,93.006c0,99.889 -81.194,181.176 -180.99,181.176l-632.905,0c-99.889,0 -181.083,-81.287 -181.083,-181.176l-0,-825.055c-0,-137.091 102.865,-251.396 239.212,-265.811c16.09,-1.767 28.273,-15.253 28.273,-31.436l0,-66.965l460.101,0l0,66.965c0,16.183 12.183,29.669 28.273,31.436c136.347,14.415 239.119,128.72 239.119,265.811l0,33.574Zm0,179.317l-368.21,-0c-17.393,-0 -31.53,14.229 -31.53,31.621c0,17.486 14.137,31.53 31.53,31.53l368.21,-0l0,75.148l-368.21,0c-17.393,0 -31.53,14.137 -31.53,31.622c0,17.392 14.137,31.529 31.53,31.529l368.21,0l0,254.558l-499.256,-0l-0,-572.266l499.256,0l0,116.258Zm-988.375,-415.923c-23.623,30.413 -42.038,65.104 -53.943,102.492l-21.856,3.255c-44.271,0 -80.357,-35.993 -80.357,-80.357c-0,-44.271 36.086,-80.263 80.357,-80.263c35.342,-0 65.197,23.064 75.799,54.873Zm-69.754,558.593l-6.045,0.652c-44.271,-0 -80.357,-35.901 -80.357,-80.265c-0,-44.271 36.086,-80.263 80.357,-80.263l6.045,0.65l-0,159.226Zm-636.812,240.049c-134.207,-0 -243.489,-109.189 -243.489,-243.49l-0,-1059.43c-0,-134.301 109.282,-243.583 243.489,-243.583l666.946,0c134.301,0 243.489,109.282 243.489,243.583l0,73.474l-49.386,0c-17.391,0 -31.528,14.138 -31.528,31.622l-0,206.567c-0,17.392 14.137,31.435 31.528,31.435l43.249,0l-0,39.714c-57.571,11.16 -109.376,36.924 -151.786,73.102c-24.926,-41.574 -69.848,-69.754 -121.745,-69.754c-79.055,0 -143.415,64.454 -143.415,143.508c-0,79.148 64.36,143.416 143.415,143.416l8.091,-0.466c-1.209,11.44 -2.046,22.972 -2.046,34.692l-0,132.998l-6.045,-0.558c-79.055,-0 -143.415,64.454 -143.415,143.508c-0,79.148 64.36,143.508 143.415,143.508l6.045,-0.651l-0,176.805l-636.812,-0Zm996.466,-1166.3l0,143.508l-103.794,0l-0,-143.508l103.794,0Zm63.151,0l106.306,0l-0,143.508l-106.306,0l0,-143.508Zm169.457,0l106.213,0l-0,143.508l-106.213,0l0,-143.508Zm169.364,0l103.887,0l0,143.508l-103.887,0l-0,-143.508Zm92.261,246.187l0,-39.714l43.156,0c17.484,0 31.528,-14.043 31.528,-31.435l0,-206.567c0,-17.484 -14.044,-31.622 -31.528,-31.622l-560.268,0l-0,-73.474c-0,-169.086 -137.556,-306.734 -306.641,-306.734l-666.946,-0c-169.084,-0 -306.64,137.648 -306.64,306.734l-0,1059.43c-0,169.086 137.556,306.548 306.64,306.548l636.812,-0l-0,166.387c-0,134.766 109.561,244.234 244.234,244.234l632.905,0c134.58,0 244.141,-109.468 244.141,-244.234l-0,-825.055c-0,-159.785 -113.095,-294.643 -267.393,-324.498Z" style="fill:#0b0b16;fill-rule:nonzero;"/><path d="M1642.67,1566.68l208.147,0c17.392,0 31.529,-14.137 31.529,-31.529c-0,-17.578 -14.137,-31.622 -31.529,-31.622l-208.147,0c-17.393,0 -31.53,14.044 -31.53,31.622c0,17.392 14.137,31.529 31.53,31.529Z" style="fill:#0b0b16;fill-rule:nonzero;"/></g></g></svg>