<?xml version="1.0" encoding="UTF-8" standalone="no"?><!DOCTYPE svg PUBLIC "-//W3C//DTD SVG 1.1//EN" "http://www.w3.org/Graphics/SVG/1.1/DTD/svg11.dtd"><svg width="100%" height="100%" viewBox="0 0 2084 2084" version="1.1" xmlns="http://www.w3.org/2000/svg" xmlns:xlink="http://www.w3.org/1999/xlink" xml:space="preserve" xmlns:serif="http://www.serif.com/" style="fill-rule:evenodd;clip-rule:evenodd;stroke-linejoin:round;stroke-miterlimit:2;"><rect id="画板1" x="0" y="0" width="2083.33" height="2083.33" style="fill:none;"/><clipPath id="_clip1"><rect id="画板11" serif:id="画板1" x="0" y="0" width="2083.33" height="2083.33"/></clipPath><g clip-path="url(#_clip1)"><g><path d="M2020.27,812.907l-1957.21,-0l-0,-292.047c-0,-52.182 42.412,-94.685 94.684,-94.685l1767.84,-0c52.179,-0 94.685,42.503 94.685,94.685l-0,292.047Zm-126.308,1112.78c-0,52.086 -42.506,94.589 -94.685,94.589l-1515.23,-0c-52.179,-0 -94.685,-42.503 -94.685,-94.589l0,-1049.71l1704.6,0l-0,1049.71Zm-1262.7,-1711.94c-0,-83.058 67.617,-150.585 150.676,-150.585l519.46,0c83.058,0 150.676,67.527 150.676,150.585l-0,149.37l-820.812,0l-0,-149.37Zm1294.33,149.37l-410.359,0l-0,-149.37c-0,-117.75 -95.988,-213.74 -213.831,-213.74l-519.46,0c-117.938,0 -213.832,95.99 -213.832,213.74l0,149.37l-410.359,0c-86.964,0 -157.746,70.689 -157.746,157.75l0,323.673c0,17.297 14.045,31.438 31.532,31.438l94.685,0l-0,1049.71c-0,86.965 70.779,157.835 157.837,157.835l1515.23,-0c87.058,-0 157.747,-70.87 157.747,-157.835l-0,-1049.71l94.775,0c17.488,0 31.532,-14.141 31.532,-31.438l0,-323.673c0,-87.061 -70.782,-157.75 -157.746,-157.75Z" style="fill:#0b0b16;fill-rule:nonzero;"/><path d="M1041.71,1069.34c208.807,0 378.736,170.023 378.736,378.83c-0,208.903 -169.929,378.83 -378.736,378.83c-208.901,-0 -378.83,-169.927 -378.83,-378.83c-0,-208.807 169.929,-378.83 378.83,-378.83Zm-0,820.815c243.592,-0 441.797,-198.203 441.797,-441.985c0,-243.686 -198.205,-441.889 -441.797,-441.889c-243.686,0 -441.985,198.203 -441.985,441.889c-0,243.782 198.299,441.985 441.985,441.985Z" style="fill:#0b0b16;fill-rule:nonzero;"/><path d="M836.534,1408.64l134.119,-0c17.394,-0 31.532,-13.954 31.532,-31.53l0,-134.031l78.966,0l-0,134.031c-0,17.576 14.044,31.53 31.436,31.53l134.306,-0l0,79.056l-134.306,0c-17.392,0 -31.436,14.045 -31.436,31.439l-0,134.212l-78.966,0l0,-134.212c0,-17.394 -14.138,-31.439 -31.532,-31.439l-134.119,0l-0,-79.056Zm-31.623,142.12l134.119,0l0,134.117c0,17.49 14.232,31.626 31.623,31.626l141.934,-0c17.578,-0 31.623,-14.136 31.623,-31.626l-0,-134.117l134.215,0c17.391,0 31.53,-14.141 31.53,-31.625l-0,-142.025c-0,-17.394 -14.139,-31.529 -31.53,-31.529l-134.215,-0l-0,-134.122c-0,-17.581 -14.045,-31.626 -31.623,-31.626l-141.934,0c-17.391,0 -31.623,14.045 -31.623,31.626l0,134.122l-134.119,-0c-17.394,-0 -31.532,14.135 -31.532,31.529l-0,142.025c-0,17.484 14.138,31.625 31.532,31.625Z" style="fill:#0b0b16;fill-rule:nonzero;"/></g></g></svg>