<?xml version="1.0" encoding="UTF-8" standalone="no"?><!DOCTYPE svg PUBLIC "-//W3C//DTD SVG 1.1//EN" "http://www.w3.org/Graphics/SVG/1.1/DTD/svg11.dtd"><svg width="100%" height="100%" viewBox="0 0 2084 2084" version="1.1" xmlns="http://www.w3.org/2000/svg" xmlns:xlink="http://www.w3.org/1999/xlink" xml:space="preserve" xmlns:serif="http://www.serif.com/" style="fill-rule:evenodd;clip-rule:evenodd;stroke-linejoin:round;stroke-miterlimit:2;"><rect id="画板1" x="0" y="0" width="2083.33" height="2083.33" style="fill:none;"/><clipPath id="_clip1"><rect id="画板11" serif:id="画板1" x="0" y="0" width="2083.33" height="2083.33"/></clipPath><g clip-path="url(#_clip1)"><g><path d="M812.659,529.306c16.556,-5.764 25.204,-23.713 19.346,-40.269c-5.768,-16.368 -23.623,-25.11 -40.178,-19.251c-46.968,16.461 -94.957,35.435 -142.668,56.452c-67.706,29.762 -132.344,62.314 -192.052,96.725c-15.067,8.835 -20.275,28.087 -11.626,43.153c5.86,10.138 16.462,15.811 27.436,15.811l15.718,-4.28c57.756,-33.295 120.254,-64.822 185.914,-93.653c46.316,-20.274 92.818,-38.688 138.11,-54.688Z" style="fill:#0b0b16;fill-rule:nonzero;"/><path d="M909.104,730.382l11.812,-2.325c55.895,-22.507 110.209,-43.061 161.455,-61.382c48.268,-17.115 94.398,-32.365 136.993,-45.293c16.742,-5.024 26.227,-22.695 21.113,-39.341c-5.023,-16.74 -22.694,-26.135 -39.341,-21.111c-43.618,13.297 -90.679,28.737 -139.878,46.315c-52.081,18.508 -107.233,39.434 -163.873,62.22c-16.088,6.511 -23.994,24.925 -17.483,41.2c4.928,12.091 16.833,19.717 29.202,19.717Z" style="fill:#0b0b16;fill-rule:nonzero;"/><path d="M466.314,865.423c-84.726,43.618 -159.687,85.936 -222.744,125.834c-14.694,9.3 -19.158,28.83 -9.765,43.618c5.952,9.394 16.182,14.696 26.692,14.696l16.834,-4.93c61.475,-38.969 134.762,-80.263 217.907,-123.044c15.439,-7.904 21.577,-26.971 13.672,-42.596c-7.999,-15.437 -26.972,-21.576 -42.596,-13.578Z" style="fill:#0b0b16;fill-rule:nonzero;"/><path d="M827.168,1010.23c5.209,11.904 16.74,18.971 28.924,18.971l12.648,-2.696c176.614,-77.564 334.628,-156.711 456.928,-229.067c15.067,-8.929 19.995,-28.274 11.16,-43.249c-8.835,-15.065 -28.087,-19.902 -43.246,-11.066c-120.254,71.055 -275.849,148.991 -450.231,225.626c-15.904,6.883 -23.251,25.485 -16.183,41.481Z" style="fill:#0b0b16;fill-rule:nonzero;"/><path d="M1869.09,1534.21c-118.208,134.575 -295.752,221.44 -499.894,244.691c-255.574,29.203 -483.992,-51.338 -629.635,-203.119c124.532,80.356 291.938,126.299 481.014,126.299c45.107,-0 91.515,-2.606 138.948,-7.998c218.372,-24.926 410.982,-103.049 542.304,-219.769c12.183,-10.788 23.437,-21.948 34.318,-33.108c-19.251,32.458 -41.385,63.801 -67.055,93.004Zm-1639.28,-173.266c35.062,8.835 73.751,14.693 116.254,16.646l1.395,-0c16.834,-0 30.692,-13.206 31.529,-30.131c0.743,-17.393 -12.649,-32.086 -30.134,-32.924c-69.287,-3.161 -126.485,-16.742 -169.917,-39.156c8.464,-5.486 15.81,-12.554 21.856,-21.111c76.634,-11.625 190.658,-41.572 362.342,-104.257c16.368,-5.952 24.739,-24.182 18.786,-40.457c-6.044,-16.368 -24.087,-24.738 -40.456,-18.786c-149.828,54.685 -253.156,82.681 -322.815,96.166c-1.024,-13.394 -4.371,-26.879 -9.953,-39.713l0,-0.094c-21.948,-49.757 -72.171,-76.448 -116.346,-64.263c18.972,-75.427 77.75,-160.991 171.405,-245.066c12.927,-11.625 14.044,-31.621 2.325,-44.734c-11.625,-12.834 -31.621,-13.952 -44.549,-2.233c-70.031,62.963 -122.021,126.671 -155.502,188.425c25.39,-224.511 220.512,-453.021 524.448,-586.481c145.923,-63.985 290.823,-94.862 422.33,-94.862c142.759,-0 269.524,36.457 364.48,105.744c-28.645,-7.254 -59.522,-12.556 -93.003,-15.253c-17.671,-1.674 -32.644,11.439 -34.132,28.831c-1.302,17.484 11.626,32.552 29.017,34.039c75.519,6.14 136.344,25.204 178.939,55.153c-21.948,1.116 -46.967,4.184 -75.333,9.207c-17.205,2.975 -28.645,19.343 -25.669,36.549c3.07,17.114 19.438,28.552 36.551,25.669c38.596,-6.88 65.474,-8.927 83.889,-8.927c28.924,0 37.574,5.671 37.48,4.743c37.015,84.446 -12.183,201.632 -134.949,321.326c-12.462,12.185 -12.741,32.18 -0.557,44.643l22.599,9.486l22.136,-8.93c54.128,-52.825 95.328,-105.279 123.323,-156.339c-22.601,226.467 -218.28,457.951 -525.1,592.714l-10.23,4.184c-68.916,-23.342 -122.299,-58.499 -152.99,-103.233c33.667,-12.647 67.798,-26.506 101.559,-41.387c125.37,-55.057 237.16,-117.929 332.396,-186.751c14.136,-10.138 17.298,-29.947 7.067,-44.084c-10.23,-14.043 -29.946,-17.299 -44.084,-7.067c-91.608,66.31 -199.585,126.949 -320.676,180.146c-33.759,14.881 -67.706,28.553 -101.28,41.203l-3.255,-16.184c-1.953,-17.205 -17.951,-29.668 -34.877,-27.715l-252.412,28.831l-11.905,3.814l-8.834,7.533l-0.373,0.372l-0.744,1.393l-4.836,9.395l-1.116,12.369c9.579,83.797 34.319,160.991 70.776,230.835c-140.064,-2.138 -264.224,-39.526 -356.855,-109.278Zm-123.044,-216.979l7.255,-1.393c12.275,-0 28.179,10.416 36.829,29.946c5.114,11.81 6.511,24.554 3.719,35.248l-12.555,16.647l-20.553,-2.044c-9.766,-5.117 -18.322,-14.975 -23.437,-26.6c-10.416,-23.716 -3.721,-46.317 8.742,-51.804Zm1227,325.048c289.056,-33.109 489.758,-176.613 494.223,-347.646l190.098,-21.763l0.186,2.324c2.326,117.186 -53.011,231.578 -158.384,325.141c-121.742,108.256 -301.983,180.799 -507.521,204.328c-392.383,44.643 -713.897,-110.674 -767.931,-364.944l-0.558,-3.071l190.099,-21.577c42.968,165.64 270.92,260.225 559.788,227.208Zm745.146,-408.007c-1.952,-17.393 -17.485,-29.946 -34.97,-27.9l-252.318,28.831c-17.299,1.953 -29.761,17.577 -27.808,34.97c16.648,145.923 -171.22,279.102 -437.21,309.423c-77.38,8.742 -150.108,7.345 -215.118,-2.327c387.825,-196.237 584.9,-545.838 467.53,-840.379c26.878,-2.884 65.474,-3.721 106.953,6.229c15.811,3.815 31.809,5.58 47.711,5.58c36.086,0 71.242,-9.669 100.63,-28.271c53.571,-33.946 75.333,-106.676 47.525,-158.573c-17.671,-33.108 -46.13,-55.987 -82.307,-66.126c-36.086,-10.229 -77.939,-5.951 -106.398,10.698c-31.621,18.508 -55.057,47.617 -62.87,77.935c-4.278,16.927 5.86,34.133 22.786,38.504c16.833,4.371 33.947,-5.858 38.411,-22.692c2.139,-8.557 11.626,-26.413 33.482,-39.247c11.811,-6.883 35.34,-10.51 57.475,-4.371c19.532,5.486 34.225,17.299 43.805,35.061c11.161,20.926 2.511,57.477 -25.762,75.426c-27.901,17.765 -64.358,23.251 -99.793,14.694c-62.405,-14.878 -120.161,-9.764 -151.038,-4.743c-157.92,-276.871 -569.274,-351.088 -984.443,-168.708c-436.931,191.774 -662.559,572.809 -525.006,886.231c89.284,203.028 302.634,312.959 560.72,312.959l23.157,-0.837c131.787,194.561 366.9,314.724 641.632,314.724c36.272,0 73.287,-2.14 110.675,-6.326c219.767,-25.204 411.633,-119.507 540.165,-265.989c126.205,-143.505 183.961,-326.35 162.384,-514.776Z" style="fill:#0b0b16;fill-rule:nonzero;"/></g></g></svg>