<?xml version="1.0" encoding="UTF-8" standalone="no"?><!DOCTYPE svg PUBLIC "-//W3C//DTD SVG 1.1//EN" "http://www.w3.org/Graphics/SVG/1.1/DTD/svg11.dtd"><svg width="100%" height="100%" viewBox="0 0 2084 2084" version="1.1" xmlns="http://www.w3.org/2000/svg" xmlns:xlink="http://www.w3.org/1999/xlink" xml:space="preserve" xmlns:serif="http://www.serif.com/" style="fill-rule:evenodd;clip-rule:evenodd;stroke-linejoin:round;stroke-miterlimit:2;"><rect id="画板1" x="0" y="0" width="2083.33" height="2083.33" style="fill:none;"/><clipPath id="_clip1"><rect id="画板11" serif:id="画板1" x="0" y="0" width="2083.33" height="2083.33"/></clipPath><g clip-path="url(#_clip1)"><path d="M1394.06,1632.44c-74.124,-0 -136.067,-52.548 -150.667,-122.301l301.244,-0c-14.601,69.753 -76.543,122.301 -150.577,122.301Zm-1130.65,-443.815c0,-211.123 98.863,-398.897 252.51,-520.83c10.598,22.695 25.851,42.688 44.64,58.781c-136.157,108.258 -223.86,274.83 -223.86,462.049c0,326.628 265.805,592.342 592.342,592.342c126.582,-0 250.461,-41.757 352.304,-117.368c23.995,14.787 50.964,24.925 79.983,29.296c-119.696,102.956 -271.203,161.362 -432.287,161.362c-367.085,-0 -665.632,-298.638 -665.632,-665.632Zm1140.52,728.783c60.08,0 109.932,44.732 117.93,102.769l-1109.45,-0c7.998,-58.037 57.849,-102.769 117.93,-102.769l873.593,0Zm-730.924,-1433.39c60.92,0 110.488,49.573 110.488,110.494c-0,60.915 -49.568,110.489 -110.488,110.489c-60.915,-0 -110.489,-49.574 -110.489,-110.489c0,-60.921 49.574,-110.494 110.489,-110.494Zm60.177,-88.815l64.264,-31.437l0.834,-0.187l182.944,-89.565l1.022,-0.743l63.986,-31.341l270.181,551.795l-64.826,31.806l-0.187,-0l-182.939,89.564l0,0.188l-65.013,31.715l-159.222,-325.051c1.397,-8.838 2.419,-18.046 2.419,-27.435c-0,-65.661 -36.643,-122.863 -90.587,-152.438l-22.876,-46.871Zm-48.177,-202.937l230.371,-112.816l17.859,147.506l-142.669,69.844l-105.561,-104.534Zm627.594,830.065l-126.207,61.846l-61.755,-126.207l126.206,-61.846l61.756,126.207Zm539.056,424.566l-915.168,0c-17.393,0 -31.527,14.231 -31.527,31.624c-0,17.575 14.134,31.619 31.527,31.619l243.116,-0c6.136,42.318 24.551,80.726 51.617,111.516c-89.009,62.589 -192.521,96.069 -302.175,96.069c-291.752,0 -529.196,-237.347 -529.196,-529.099c0,-176.524 87.334,-332.68 220.795,-428.659c16.553,5.205 34.133,8.185 52.361,8.185c56.64,0 106.77,-27.344 138.485,-69.384l149.083,304.405l18.137,15.996l10.234,1.578l13.948,-3.065l65.013,-31.993l75.703,154.572c5.489,11.251 16.649,17.671 28.365,17.671l13.862,-3.161l182.939,-89.656c15.622,-7.629 22.042,-26.509 14.412,-42.131l-75.611,-154.573l65.013,-31.811c15.622,-7.811 22.133,-26.691 14.504,-42.319l-298.076,-608.435l-18.136,-15.997l-24.092,1.584l-53.473,26.135l-20.651,-169.825c-1.209,-10.048 -7.255,-19.068 -16.178,-23.904c-9.026,-4.933 -19.811,-5.115 -29.019,-0.557l-310.076,151.78c-9.213,4.649 -15.627,13.209 -17.302,23.348c-1.674,10.041 1.675,20.271 8.93,27.525l121.461,120.349l-53.473,26.135c-15.628,7.72 -22.139,26.6 -14.419,42.222l12.931,26.322l-2.514,-0.187c-95.701,-0 -173.544,78.03 -173.544,173.736l0.278,7.158c-181.173,132.44 -299.568,345.702 -299.568,586.956c-0,296.497 178.101,551.885 432.751,665.632l-102.586,-0c-100.447,-0 -182.195,81.748 -182.195,182.291l0,5.483c0,22.695 18.506,41.297 41.292,41.297l1155.3,0c22.786,0 41.388,-18.602 41.388,-41.297l0,-5.483c0,-100.543 -81.748,-182.291 -182.194,-182.291l-178.199,-0c88.73,-39.622 169.269,-97.007 236.979,-169.922c76.446,-25.573 133.831,-92.63 145.922,-174.196l243.024,-0c17.484,-0 31.528,-14.044 31.528,-31.619c-0,-17.393 -14.044,-31.624 -31.528,-31.624Z" style="fill:#0b0b16;fill-rule:nonzero;"/></g></svg>