<?xml version="1.0" encoding="UTF-8" standalone="no"?><!DOCTYPE svg PUBLIC "-//W3C//DTD SVG 1.1//EN" "http://www.w3.org/Graphics/SVG/1.1/DTD/svg11.dtd"><svg width="100%" height="100%" viewBox="0 0 2084 2084" version="1.1" xmlns="http://www.w3.org/2000/svg" xmlns:xlink="http://www.w3.org/1999/xlink" xml:space="preserve" xmlns:serif="http://www.serif.com/" style="fill-rule:evenodd;clip-rule:evenodd;stroke-linejoin:round;stroke-miterlimit:2;"><rect id="画板1" x="0" y="0" width="2083.33" height="2083.33" style="fill:none;"/><g id="画板11" serif:id="画板1"><g><path d="M1165,435.54c11.068,-82.492 46.223,-160.34 100.538,-223.305l605.555,605.559c-62.965,54.217 -140.717,89.468 -223.305,100.538l-482.788,-482.792Zm729.344,-246.556c81.101,81.101 125.743,188.893 125.743,303.662c-0,104.165 -37.109,202.285 -104.538,280.32l-605.182,-605.28c77.938,-67.336 176.151,-104.534 280.316,-104.534c114.675,-0 222.561,44.64 303.661,125.832Zm44.642,-44.64c-93.005,-93.005 -216.7,-144.344 -348.303,-144.344c-131.601,0 -255.298,51.339 -348.396,144.344c-80.262,80.261 -130.672,186.662 -141.832,299.66c-0.929,9.394 2.418,18.693 9.114,25.488l504.365,504.175l22.322,9.304l3.162,-0.188c112.908,-11.069 219.305,-61.477 299.568,-141.738c93.098,-93.101 144.343,-216.793 144.343,-348.399c0,-131.6 -51.245,-255.298 -144.343,-348.302Z" style="fill:#0b0b16;fill-rule:nonzero;"/><path d="M425.617,1952.91l-295.199,-295.289l887.173,-1047.79l455.817,455.908l-1047.79,887.173Zm-302.36,7.164c-67.242,-67.245 -78.403,-171.875 -31.435,-251.671l283.107,283.107c-79.798,46.968 -184.522,35.808 -251.672,-31.436Zm914.703,-1419.07c-6.231,-6.233 -14.509,-9.861 -23.623,-9.208c-8.743,0.369 -17.113,4.371 -22.787,11.16l-928.095,1096.06c-90.121,106.493 -83.518,267.111 15.16,365.696c52.083,52.179 121.557,78.592 191.218,78.592c62.034,0 124.254,-20.929 174.384,-63.339l1096.25,-928.283c6.603,-5.671 10.695,-13.856 11.067,-22.785c0.373,-8.742 -2.976,-17.388 -9.208,-23.621l-504.364,-504.271Z" style="fill:#0b0b16;fill-rule:nonzero;"/><path d="M1088.65,1081.83c-0,23.251 -9.116,45.106 -25.484,61.568l-12.928,12.834c-32.923,32.925 -90.307,32.925 -123.231,0c-33.854,-33.855 -33.946,-89.008 -0.186,-122.954l13.114,-13.113c32.923,-32.924 90.307,-32.924 123.231,0c16.368,16.462 25.484,38.414 25.484,61.665Zm-258.74,294.823c-33.947,33.946 -89.285,33.946 -123.232,0c-33.946,-34.036 -33.946,-89.19 -0,-123.232l134.113,-134.018c4.93,29.762 18.602,58.497 41.574,81.566c22.507,22.412 50.873,36.455 81.565,41.57l-134.02,134.114Zm65.382,-401.128l-12.927,12.925l-0.28,0.278l-220.049,220.052c-58.593,58.594 -58.593,153.83 0,212.514c29.297,29.206 67.801,43.993 106.211,43.993c38.504,0 77.009,-14.787 106.305,-43.993l220.421,-220.325l12.835,-12.931c28.367,-28.366 43.992,-66.126 43.992,-106.208c-0,-40.179 -15.625,-77.849 -43.992,-106.305c-28.366,-28.366 -66.126,-44.084 -106.304,-44.084c-40.085,-0 -77.845,15.718 -106.212,44.084Z" style="fill:#0b0b16;fill-rule:nonzero;"/></g></g></svg>