<?xml version="1.0" encoding="UTF-8" standalone="no"?><!DOCTYPE svg PUBLIC "-//W3C//DTD SVG 1.1//EN" "http://www.w3.org/Graphics/SVG/1.1/DTD/svg11.dtd"><svg width="100%" height="100%" viewBox="0 0 2084 2084" version="1.1" xmlns="http://www.w3.org/2000/svg" xmlns:xlink="http://www.w3.org/1999/xlink" xml:space="preserve" xmlns:serif="http://www.serif.com/" style="fill-rule:evenodd;clip-rule:evenodd;stroke-linejoin:round;stroke-miterlimit:2;"><rect id="画板1" x="0" y="0" width="2083.33" height="2083.33" style="fill:none;"/><clipPath id="_clip1"><rect id="画板11" serif:id="画板1" x="0" y="0" width="2083.33" height="2083.33"/></clipPath><g clip-path="url(#_clip1)"><g><path d="M490.489,1000.7l0,-264.986l136.819,0l-0,258.382c-0,228.433 185.833,414.267 414.265,414.267c228.529,-0 414.362,-185.834 414.362,-414.267l-0,-258.382l136.722,0l-0,264.986c-0,303.957 -247.127,551.178 -551.084,551.178c-303.861,-0 -551.084,-247.221 -551.084,-551.178Zm551.084,-937.728c193.65,0 351.206,157.559 351.206,351.299l0,579.825c0,193.554 -157.556,351.113 -351.206,351.113c-184.902,0 -336.509,-143.701 -349.81,-325.442l489.234,0c17.485,0 31.53,-14.045 31.53,-31.438c-0,-17.578 -14.045,-31.623 -31.53,-31.623l-490.539,0l-0,-126.401l490.539,0c17.485,0 31.53,-13.951 31.53,-31.53c-0,-17.393 -14.045,-31.438 -31.53,-31.438l-490.539,0l-0,-126.308l490.539,0c17.485,0 31.53,-14.136 31.53,-31.623c-0,-17.392 -14.045,-31.623 -31.53,-31.623l-490.539,-0l-0,-126.215l490.539,0c17.485,0 31.53,-14.137 31.53,-31.623c-0,-17.393 -14.045,-31.531 -31.53,-31.531l-489.234,0c13.301,-181.649 164.908,-325.442 349.81,-325.442Zm547.178,1957.21l-1094.27,0c14.044,-54.503 63.53,-94.684 122.308,-94.684l849.648,0c58.688,0 108.264,40.181 122.309,94.684Zm67.152,-1019.48l-0,-296.517c-0,-17.578 -14.226,-31.623 -31.62,-31.623l-168.348,0l-0,-258.289c-0,-228.433 -185.833,-414.267 -414.362,-414.267c-228.432,-0 -414.265,185.834 -414.265,414.267l-0,258.289l-168.348,0c-17.491,0 -31.53,14.045 -31.53,31.623l0,296.517c0,328.139 258.566,596.194 582.614,612.75l-0,248.895l-393.25,0c-104.449,0 -189.364,84.919 -189.364,189.369c0,17.486 14.039,31.623 31.53,31.623l1165.32,0c17.394,0 31.62,-14.137 31.62,-31.623c-0,-104.45 -85.011,-189.369 -189.461,-189.369l-393.243,0l-0,-248.895c323.951,-16.556 582.704,-284.611 582.704,-612.75Z" style="fill:#0b0b16;fill-rule:nonzero;"/></g></g></svg>