<?xml version="1.0" encoding="UTF-8" standalone="no"?><!DOCTYPE svg PUBLIC "-//W3C//DTD SVG 1.1//EN" "http://www.w3.org/Graphics/SVG/1.1/DTD/svg11.dtd"><svg width="100%" height="100%" viewBox="0 0 2084 2084" version="1.1" xmlns="http://www.w3.org/2000/svg" xmlns:xlink="http://www.w3.org/1999/xlink" xml:space="preserve" xmlns:serif="http://www.serif.com/" style="fill-rule:evenodd;clip-rule:evenodd;stroke-linejoin:round;stroke-miterlimit:2;"><rect id="画板1" x="0" y="0" width="2083.33" height="2083.33" style="fill:none;"/><g id="画板11" serif:id="画板1"><g><path d="M1810.41,1549.75l-329.057,0l-0,-431.917l329.057,-0l-0,431.917Zm-0,293.993c-0,31.715 -31.716,57.572 -70.686,57.572l-614.58,-0l0,-706.842c0,-153.275 -22.417,-305.153 -66.127,-453.035c14.879,-67.427 33.947,-134.019 58.22,-199.777l17.297,-47.06c39.991,16.463 85.938,25.017 131.975,25.017c59.435,0 119.051,-13.856 165.457,-41.479c69.476,-41.292 184.434,-42.41 257.441,-4.462l25.022,67.984c61.291,166.206 93.097,338.73 95.515,512.928l-360.119,0c-17.393,0 -31.619,14.135 -31.619,31.625l-0,495.161c-0,17.484 14.226,31.437 31.619,31.437l360.585,-0l-0,230.931Zm-748.418,-175.13l-567.521,0l0,-432.008l567.521,-0l-0,432.008Zm-0,293.993c-0,31.715 -31.624,57.572 -70.595,57.572l-647.782,-0c-38.97,-0 -70.685,-25.857 -70.685,-57.572l-0,-768.133c-0,-181.459 32.271,-361.142 95.889,-533.949l17.393,-47.06c39.896,16.463 85.842,25.017 131.88,25.017c59.525,0 119.05,-13.856 165.553,-41.479c69.38,-41.201 184.428,-42.506 257.441,-4.467l25.016,67.989c61.104,166.109 93.097,338.633 95.425,512.832l-598.589,-0c-17.484,-0 -31.619,14.231 -31.619,31.624l-0,495.258c-0,17.393 14.135,31.527 31.619,31.527l599.054,0l-0,230.841Zm-577.103,-1617.28l365.143,-0l62.125,168.806c-86.029,-23.348 -188.986,-14.141 -260.88,28.553c-65.009,38.686 -170.106,42.314 -243.301,11.251l76.913,-208.61Zm9.582,-163.413l346.07,-0l0,100.26l-346.07,0l0,-100.26Zm738.745,44.55l365.138,0l62.13,168.715c-86.029,-23.251 -188.986,-13.953 -260.789,28.735c-65.009,38.692 -170.106,42.132 -243.21,11.257l76.731,-208.707Zm9.673,-163.317l345.888,0l0,100.261l-345.888,0l0,-100.261Zm530.782,456.657l-121.741,-330.545l-0,-157.736c-0,-17.393 -14.141,-31.528 -31.625,-31.528l-408.95,0c-17.574,0 -31.618,14.135 -31.618,31.528l-0,157.736l-121.838,330.545c-13.391,36.739 -24.835,73.756 -35.433,110.955l-118.863,-322.546l-0,-157.924c-0,-17.387 -14.141,-31.431 -31.625,-31.431l-409.04,-0c-17.484,-0 -31.619,14.044 -31.619,31.431l-0,157.924l-121.65,330.454c-66.224,179.778 -99.892,366.812 -99.892,555.804l0,768.133c0,66.592 60.081,120.724 133.838,120.724l647.782,0c73.013,0 132.442,-53.201 133.56,-118.863l614.767,0c73.757,0 133.838,-54.132 133.838,-120.724l0,-768.133c0,-188.896 -33.577,-375.929 -99.891,-555.804Z" style="fill:#0b0b16;fill-rule:nonzero;"/></g></g></svg>