<?xml version="1.0" encoding="UTF-8" standalone="no"?><!DOCTYPE svg PUBLIC "-//W3C//DTD SVG 1.1//EN" "http://www.w3.org/Graphics/SVG/1.1/DTD/svg11.dtd"><svg width="100%" height="100%" viewBox="0 0 2084 2084" version="1.1" xmlns="http://www.w3.org/2000/svg" xmlns:xlink="http://www.w3.org/1999/xlink" xml:space="preserve" xmlns:serif="http://www.serif.com/" style="fill-rule:evenodd;clip-rule:evenodd;stroke-linejoin:round;stroke-miterlimit:2;"><rect id="画板1" x="0" y="0" width="2083.33" height="2083.33" style="fill:none;"/><clipPath id="_clip1"><rect id="画板11" serif:id="画板1" x="0" y="0" width="2083.33" height="2083.33"/></clipPath><g clip-path="url(#_clip1)"><g><path d="M1902.38,418.08l-166.77,745.103c-2.043,8.93 -9.673,15.351 -18.694,15.351l-49.945,-0l-15.163,-7.352l-3.815,-16.276l126.498,-565.219c5.393,-24.558 -0.374,-49.951 -16.184,-69.576c-15.629,-19.625 -39.25,-30.877 -64.274,-30.877l-153.373,0l21.3,-94.684l321.539,-0l15.067,7.164l3.814,16.366Zm-580.569,760.454l-171.698,-0l68.083,-783.984l278.843,-0l-18.507,83.058l-8.186,36.275l-148.535,664.651Zm-69.389,205.089l-568.103,-0l-0,-142.121l568.103,-0l-0,142.121Zm241.733,636.651l-276.612,0l-66.317,-573.502l172.35,0l170.579,573.502Zm-711.342,0l66.317,-573.502l238.481,0l66.317,573.502l-371.115,0Zm-169.649,-573.502l172.345,0l-66.312,573.502l-276.612,0l170.579,-573.502Zm-173.741,-1052.22l279.031,-0l68.174,783.984l-171.885,-0l-175.32,-783.984Zm-218.299,-0l153.657,-0l3.252,14.231l45.762,204.34l-202.671,-218.571Zm933.729,-0l-68.173,783.984l-236.71,-0l-68.083,-783.984l372.966,-0Zm286.473,-63.156l-932.798,0c273.916,-178.765 658.979,-178.765 932.798,0Zm-517.414,-268.335l88.826,-0l0,73.385c-29.582,-1.209 -59.159,-1.022 -88.826,0.466l-0,-73.851Zm1023.86,299.217c-15.628,-19.625 -39.25,-30.882 -64.268,-30.882l-336.327,0c-133.282,-109.377 -299.309,-172.719 -471.375,-190.67l-0,-109.285c-0,-17.394 -13.954,-31.439 -31.439,-31.439l-152.072,-0c-17.389,-0 -31.53,14.045 -31.53,31.439l0,110.869c-167.139,19.716 -328.323,82.497 -458.164,189.086l-253.644,0c-12.461,0 -23.996,7.352 -28.833,18.881c-5.115,11.445 -2.974,24.928 5.581,34.136l325.354,351.206l107.798,481.326c3.066,14.42 15.901,24.559 30.689,24.559l31.535,-0l0,142.121l-31.535,-0c-14.044,-0 -26.227,9.208 -30.224,22.503l-189.466,636.657c-2.884,9.577 -0.834,19.813 4.934,27.811c5.949,8.09 15.435,12.739 25.296,12.739l1136.4,0c10.043,0 19.251,-4.649 25.484,-12.739c5.768,-7.998 7.811,-18.234 4.837,-27.811l-189.461,-636.657c-4.002,-13.295 -16.185,-22.503 -30.138,-22.503l-31.621,-0l0,-142.121l31.621,-0c14.697,-0 27.629,-10.139 30.695,-24.559l148.632,-664.65l167.508,0l15.072,7.255l3.809,16.372l-126.492,565.129c-5.393,24.649 0.374,49.945 16.185,69.57c15.622,19.625 39.25,30.883 64.364,30.883l49.945,-0c38.694,-0 71.898,-26.511 80.266,-64.365l166.77,-745.29c5.484,-24.462 -0.375,-49.946 -16.185,-69.571Z" style="fill:#0b0b16;fill-rule:nonzero;"/></g></g></svg>