<?xml version="1.0" encoding="UTF-8" standalone="no"?><!DOCTYPE svg PUBLIC "-//W3C//DTD SVG 1.1//EN" "http://www.w3.org/Graphics/SVG/1.1/DTD/svg11.dtd"><svg width="100%" height="100%" viewBox="0 0 2084 2084" version="1.1" xmlns="http://www.w3.org/2000/svg" xmlns:xlink="http://www.w3.org/1999/xlink" xml:space="preserve" xmlns:serif="http://www.serif.com/" style="fill-rule:evenodd;clip-rule:evenodd;stroke-linejoin:round;stroke-miterlimit:2;"><rect id="画板1" x="0" y="0" width="2083.33" height="2083.33" style="fill:none;"/><clipPath id="_clip1"><rect id="画板11" serif:id="画板1" x="0" y="0" width="2083.33" height="2083.33"/></clipPath><g clip-path="url(#_clip1)"><g><path d="M1792.69,2059.49l-1691.17,-186.671l111.672,-1011.63l1691.21,186.671l-111.704,1011.63Z" style="fill:#fff;fill-rule:nonzero;"/><path d="M127.816,1851.7l1643.78,181.456l106.455,-964.179l-1643.78,-181.454l-106.456,964.177Zm1664.87,231.645c-0.859,0 -1.749,-0.063 -2.608,-0.127l-1691.21,-186.671c-6.297,-0.732 -12.054,-3.913 -15.999,-8.811c-3.976,-4.962 -5.82,-11.259 -5.057,-17.525l111.673,-1011.66c1.43,-13.104 13.549,-22.423 26.303,-21.12l1691.17,186.703c13.105,1.464 22.551,13.232 21.087,26.336l-111.671,1011.63c-0.636,6.297 -3.849,12.054 -8.779,16.03c-4.262,3.435 -9.51,5.216 -14.917,5.216Z" style="fill-rule:nonzero;"/><path d="M2019.4,1487.61l-1631.6,260.589l-147.772,-925.532l1631.54,-260.557l147.836,925.5Z" style="fill:#fff;fill-rule:nonzero;"/><path d="M267.286,842.485l140.266,878.396l1584.5,-253.019l-140.234,-878.395l-1584.53,253.018Zm120.515,929.573c-5.025,-0 -9.955,-1.622 -14.026,-4.517c-5.153,-3.753 -8.557,-9.319 -9.543,-15.616l-147.804,-925.47c-2.067,-12.976 6.775,-25.222 19.784,-27.353l1631.63,-260.526c6.17,-1.049 12.626,0.509 17.779,4.23c5.089,3.722 8.492,9.32 9.51,15.522l147.773,925.565c2.13,12.976 -6.776,25.222 -19.784,27.321l-1631.6,260.526c-1.24,0.191 -2.513,0.318 -3.721,0.318Z" style="fill-rule:nonzero;"/><path d="M1794.28,1399.89l-1770.4,-195.45l105.66,-957.148l1770.4,195.418l-105.661,957.18Z" style="fill:#fff;fill-rule:nonzero;"/><path d="M50.209,1183.39l1722.98,190.171l100.381,-909.789l-1722.95,-190.202l-100.412,909.82Zm1744.1,240.361c-0.922,0 -1.781,-0.064 -2.64,-0.127l-1770.4,-195.419c-6.33,-0.699 -12.055,-3.88 -15.998,-8.842c-3.976,-4.898 -5.821,-11.228 -5.122,-17.525l105.693,-957.212c1.431,-13.041 13.613,-22.296 26.304,-21.056l1770.37,195.419c13.104,1.431 22.551,13.231 21.088,26.335l-105.629,957.18c-0.7,6.266 -3.849,12.055 -8.81,16.031c-4.231,3.403 -9.479,5.216 -14.854,5.216Z" style="fill-rule:nonzero;"/><rect x="278.356" y="23.855" width="1781.15" height="1017.77" style="fill:#fff;fill-rule:nonzero;"/><path d="M302.178,1017.77l1733.45,-0l-0,-970.061l-1733.45,-0l0,970.061Zm1757.3,47.709l-1781.15,0c-13.136,0 -23.855,-10.687 -23.855,-23.855l-0,-1017.77c-0,-13.168 10.719,-23.855 23.855,-23.855l1781.15,-0c13.167,-0 23.854,10.687 23.854,23.855l0,1017.77c0,13.168 -10.687,23.855 -23.854,23.855Z" style="fill-rule:nonzero;"/><path d="M1741.45,882.594l-1145.03,-0c0,-87.818 -71.247,-159.032 -159.032,-159.032l0,-381.676c87.785,0 159.032,-71.183 159.032,-159.032l1145.03,0c0,87.849 71.182,159.032 159.032,159.032l-0,381.676c-87.85,0 -159.032,71.214 -159.032,159.032Z" style="fill:#fff;fill-rule:nonzero;"/><path d="M618.683,858.739l1100.4,0c10.687,-81.806 75.668,-146.786 157.505,-157.473l0,-337.052c-81.837,-10.751 -146.818,-75.667 -157.505,-157.505l-1100.4,0c-10.687,81.838 -75.667,146.754 -157.473,157.505l0,337.052c81.806,10.687 146.786,75.667 157.473,157.473Zm1122.73,47.71l-1145.03,-0c-13.136,-0 -23.855,-10.687 -23.855,-23.855c0,-74.523 -60.655,-135.177 -135.177,-135.177c-13.135,-0 -23.854,-10.687 -23.854,-23.855l-0,-381.676c-0,-13.168 10.719,-23.855 23.854,-23.855c74.522,0 135.177,-60.686 135.177,-135.177c0,-13.167 10.719,-23.854 23.855,-23.854l1145.03,-0c13.168,-0 23.855,10.687 23.855,23.854c-0,74.491 60.623,135.177 135.177,135.177c13.168,0 23.855,10.687 23.855,23.855l-0,381.676c-0,13.168 -10.687,23.855 -23.855,23.855c-74.554,-0 -135.177,60.654 -135.177,135.177c-0,13.168 -10.687,23.855 -23.855,23.855Z" style="fill-rule:nonzero;"/><path d="M1693.77,532.724c-0,61.45 -49.872,111.322 -111.322,111.322c-61.482,0 -111.323,-49.872 -111.323,-111.322c0,-61.482 49.841,-111.322 111.323,-111.322c61.45,-0 111.322,49.84 111.322,111.322Z" style="fill:#fff;fill-rule:nonzero;"/><path d="M898.515,532.724c0,61.45 -49.84,111.322 -111.322,111.322c-61.482,0 -111.322,-49.872 -111.322,-111.322c-0,-61.482 49.84,-111.322 111.322,-111.322c61.482,-0 111.322,49.84 111.322,111.322Z" style="fill:#fff;fill-rule:nonzero;"/><path d="M1582.42,445.257c-48.251,-0 -87.468,39.217 -87.468,87.467c0,48.218 39.217,87.468 87.468,87.468c48.218,-0 87.467,-39.25 87.467,-87.468c-0,-48.25 -39.249,-87.467 -87.467,-87.467Zm-0,222.644c-74.555,0 -135.177,-60.686 -135.177,-135.177c-0,-74.523 60.622,-135.177 135.177,-135.177c74.521,0 135.176,60.654 135.176,135.177c0,74.491 -60.655,135.177 -135.176,135.177Z" style="fill-rule:nonzero;"/><path d="M787.193,445.257c-48.25,-0 -87.467,39.217 -87.467,87.467c-0,48.218 39.217,87.468 87.467,87.468c48.218,-0 87.468,-39.25 87.468,-87.468c-0,-48.25 -39.25,-87.467 -87.468,-87.467Zm0,222.644c-74.554,0 -135.177,-60.686 -135.177,-135.177c0,-74.523 60.623,-135.177 135.177,-135.177c74.522,0 135.177,60.654 135.177,135.177c0,74.491 -60.655,135.177 -135.177,135.177Z" style="fill-rule:nonzero;"/><path d="M1169.06,756.131c-55.566,0 -104.452,-30.947 -124.586,-78.784c-5.088,-12.118 0.605,-26.081 12.755,-31.233c12.15,-5.089 26.081,0.604 31.234,12.786c12.468,29.643 44.846,49.522 80.597,49.522c47.423,-0 86.004,-34.064 86.004,-75.922c0,-34.604 -14.98,-75.921 -86.354,-75.921c-98.568,-0 -133.682,-63.835 -133.682,-123.663c-0,-68.161 59.955,-123.631 133.682,-123.631c55.534,-0 104.452,30.947 124.649,78.784c5.057,12.086 -0.636,26.144 -12.786,31.233c-11.991,5.09 -26.05,-0.572 -31.234,-12.722c-12.5,-29.644 -44.879,-49.586 -80.629,-49.586c-47.391,0 -85.973,34.096 -85.973,75.922c0,34.669 14.886,75.953 85.973,75.953c98.822,0 134.064,63.867 134.064,123.631c-0,68.162 -59.987,123.631 -133.714,123.631Z" style="fill-rule:nonzero;"/><path d="M1168.71,356.994c-13.168,0 -23.855,-10.687 -23.855,-23.854l0,-54.867c0,-13.167 10.687,-23.854 23.855,-23.854c13.2,-0 23.855,10.687 23.855,23.854l-0,54.867c-0,13.167 -10.655,23.854 -23.855,23.854Z" style="fill-rule:nonzero;"/><path d="M1168.71,811.03c-13.168,-0 -23.855,-10.687 -23.855,-23.855l0,-54.898c0,-13.168 10.687,-23.855 23.855,-23.855c13.2,-0 23.855,10.687 23.855,23.855l-0,54.898c-0,13.168 -10.655,23.855 -23.855,23.855Z" style="fill-rule:nonzero;"/><path d="M1415.97,1914.58c-0.859,-0 -1.75,-0.063 -2.64,-0.191l-454.035,-50.127c-13.105,-1.431 -22.552,-13.231 -21.089,-26.335c1.464,-13.072 13.486,-22.456 26.305,-21.088l454.067,50.158c13.072,1.4 22.518,13.232 21.055,26.336c-1.303,12.183 -11.673,21.247 -23.663,21.247Z" style="fill-rule:nonzero;"/><path d="M1650.26,1940.41c-0.859,-0 -1.75,-0.064 -2.64,-0.127l-110.368,-12.246c-13.104,-1.4 -22.551,-13.231 -21.087,-26.336c1.43,-13.041 13.454,-22.36 26.303,-21.055l110.368,12.181c13.136,1.432 22.551,13.232 21.12,26.336c-1.305,12.182 -11.705,21.247 -23.696,21.247Z" style="fill-rule:nonzero;"/><path d="M723.644,1637.13c-11.577,0 -21.724,-8.46 -23.569,-20.197l-19.528,-125.73c-2.004,-13.04 6.902,-25.222 19.911,-27.258c13.135,-1.94 25.222,6.934 27.257,19.943l19.529,125.73c2.004,12.977 -6.901,25.223 -19.91,27.194c-1.241,0.191 -2.481,0.318 -3.69,0.318Z" style="fill-rule:nonzero;"/><path d="M650.998,1584.02c-11.545,0 -21.691,-8.461 -23.536,-20.197c-2.004,-13.041 6.902,-25.222 19.911,-27.258l125.698,-19.497c13.168,-1.877 25.222,6.87 27.29,19.942c1.972,12.977 -6.902,25.223 -19.943,27.194l-125.699,19.498c-1.208,0.191 -2.512,0.318 -3.721,0.318Z" style="fill-rule:nonzero;"/><path d="M906.148,1544.71c-13.008,1.972 -25.19,-6.901 -27.225,-19.942c-2.004,-12.978 6.902,-25.159 19.911,-27.227c13.04,-1.971 25.19,6.902 27.257,19.943c2.004,12.977 -6.902,25.158 -19.943,27.226Z" style="fill-rule:nonzero;"/><path d="M1031.88,1525.18c-13.009,2.004 -25.19,-6.87 -27.194,-19.911c-2.036,-13.008 6.87,-25.222 19.91,-27.225c13.009,-2.037 25.16,6.901 27.195,19.878c2.003,13.04 -6.902,25.223 -19.911,27.258Z" style="fill-rule:nonzero;"/><path d="M1189.03,1500.78c-13.008,2.035 -25.19,-6.902 -27.194,-19.943c-2.068,-12.977 6.87,-25.158 19.911,-27.226c13.008,-1.972 25.19,6.901 27.194,19.942c2.036,13.009 -6.87,25.223 -19.911,27.227Z" style="fill-rule:nonzero;"/><path d="M1409.07,1466.62c-13.009,2.035 -25.223,-6.903 -27.226,-19.879c-2.037,-13.041 6.901,-25.223 19.91,-27.29c13.041,-1.972 25.222,6.902 27.227,19.942c2.035,12.978 -6.871,25.223 -19.911,27.227Z" style="fill-rule:nonzero;"/><path d="M1636.23,1260.55c-0.795,0 -1.589,0 -2.385,-0.127l-126.621,-12.595c-13.104,-1.305 -22.678,-12.978 -21.374,-26.113c1.273,-13.104 13.295,-22.837 26.113,-21.342l126.589,12.595c13.105,1.305 22.679,12.977 21.374,26.081c-1.208,12.373 -11.577,21.501 -23.696,21.501Z" style="fill-rule:nonzero;"/><path d="M1566.61,1317.58c-0.795,0 -1.559,-0.063 -2.386,-0.127c-13.104,-1.305 -22.678,-13.041 -21.342,-26.145l12.627,-126.557c1.304,-13.168 13.231,-22.774 26.082,-21.343c13.103,1.305 22.677,12.978 21.373,26.082l-12.627,126.589c-1.177,12.309 -11.61,21.501 -23.727,21.501Z" style="fill-rule:nonzero;"/></g></g></svg>