<?xml version="1.0" encoding="UTF-8" standalone="no"?><!DOCTYPE svg PUBLIC "-//W3C//DTD SVG 1.1//EN" "http://www.w3.org/Graphics/SVG/1.1/DTD/svg11.dtd"><svg width="100%" height="100%" viewBox="0 0 2084 2084" version="1.1" xmlns="http://www.w3.org/2000/svg" xmlns:xlink="http://www.w3.org/1999/xlink" xml:space="preserve" xmlns:serif="http://www.serif.com/" style="fill-rule:evenodd;clip-rule:evenodd;stroke-linejoin:round;stroke-miterlimit:2;"><rect id="画板1" x="0" y="0" width="2083.33" height="2083.33" style="fill:none;"/><clipPath id="_clip1"><rect id="画板11" serif:id="画板1" x="0" y="0" width="2083.33" height="2083.33"/></clipPath><g clip-path="url(#_clip1)"><g><path d="M1972.84,960.194l-1862.35,-0c-26.041,-0 -47.34,-21.208 -47.34,-47.338c0,-26.135 21.299,-47.246 47.34,-47.246l1862.35,-0c26.135,-0 47.433,21.111 47.433,47.246c0,26.13 -21.298,47.338 -47.433,47.338Zm-439.079,764.227l-984.934,0c-227.306,-153.456 -380.208,-409.131 -390.346,-701.075l1766.46,0c-10.232,292.04 -163.504,547.806 -391.182,701.075Zm-1011.35,160.995l38.411,-97.933l961.773,0l38.413,97.933l-1038.6,0Zm1051.71,-1430.43c4.184,-8.651 4.184,-18.881 0,-27.435c-21.298,-44.55 -21.298,-95.334 0.185,-139.418c18.696,-38.408 51.339,-67.427 91.706,-81.38c17.206,-5.95 34.877,-8.93 52.548,-8.93c23.902,0 47.712,5.49 69.846,16.281c38.413,18.693 67.43,51.339 81.38,91.609c13.953,40.645 11.347,83.89 -7.346,122.491c-21.392,44.084 -61.29,75.516 -109.468,86.216c-9.488,2.135 -17.393,8.368 -21.577,17.019l-131.698,270.923l-194.475,-0l168.899,-347.376Zm398.716,347.376l-303.013,-0l111.98,-230.279c60.266,-17.767 109.84,-59.434 137.369,-116.353c26.135,-53.571 29.762,-114.209 10.322,-170.572c-19.53,-56.363 -59.8,-101.748 -113.467,-127.883c-53.664,-26.044 -114.302,-29.575 -170.665,-10.138c-56.36,19.436 -101.748,59.803 -127.789,113.373c-27.717,56.829 -29.857,121.469 -6.605,179.966l-175.967,361.886l-1224.52,-0c-60.918,-0 -110.491,49.574 -110.491,110.495c0,55.711 41.76,101.47 95.516,108.906c9.673,308.781 167.877,580.175 405.228,746.188l-53.944,137.556c-3.813,9.764 -2.604,20.742 3.256,29.297c5.952,8.742 15.625,13.766 26.134,13.766l1131.04,-0c10.417,-0 20.184,-5.024 26.042,-13.766c5.861,-8.555 7.161,-19.533 3.349,-29.297l-54.223,-138.209c237.258,-165.922 395.741,-436.845 405.414,-745.535c53.851,-7.436 95.517,-53.195 95.517,-108.906c0,-60.921 -49.48,-110.495 -110.492,-110.495Z" style="fill:#0b0b16;fill-rule:nonzero;"/></g></g></svg>