<?xml version="1.0" encoding="UTF-8" standalone="no"?><!DOCTYPE svg PUBLIC "-//W3C//DTD SVG 1.1//EN" "http://www.w3.org/Graphics/SVG/1.1/DTD/svg11.dtd"><svg width="100%" height="100%" viewBox="0 0 2084 2084" version="1.1" xmlns="http://www.w3.org/2000/svg" xmlns:xlink="http://www.w3.org/1999/xlink" xml:space="preserve" xmlns:serif="http://www.serif.com/" style="fill-rule:evenodd;clip-rule:evenodd;stroke-linejoin:round;stroke-miterlimit:2;"><rect id="画板1" x="0" y="0" width="2083.33" height="2083.33" style="fill:none;"/><clipPath id="_clip1"><rect id="画板11" serif:id="画板1" x="0" y="0" width="2083.33" height="2083.33"/></clipPath><g clip-path="url(#_clip1)"><g><path d="M1452.13,218.893c52.175,0 94.585,42.508 94.585,94.773c0,52.18 -42.41,94.682 -94.585,94.682c-52.271,-0 -94.778,-42.502 -94.778,-94.682c-0,-52.265 42.507,-94.773 94.778,-94.773Zm0,252.608c86.961,-0 157.738,-70.777 157.738,-157.835c0,-86.961 -70.777,-157.829 -157.738,-157.829c-87.058,-0 -157.926,70.868 -157.926,157.829c0,87.058 70.868,157.835 157.926,157.835Z" style="fill:#0b0b16;fill-rule:nonzero;"/><path d="M1417.34,1698.26l102.868,-182.108c35.059,17.58 75.239,26.413 115.606,26.413c40.27,0 80.45,-8.833 115.515,-26.413l165.459,292.787c-152.159,-52.362 -322.085,-89.289 -499.448,-110.679Zm-333.245,-22.043l-303.107,-536.277l75.517,-133.743c54.508,31.619 118.495,48.269 183.505,51.43c4.837,55.433 50.971,99.331 107.704,99.331l203.964,0l149.462,264.608l-152.068,269.252c-87.33,-8.646 -176.063,-13.391 -264.977,-14.601Zm-901.238,126.954l298.276,-527.723c45.198,25.579 98.309,39.158 151.971,39.158c53.571,-0 106.682,-13.579 151.977,-39.158l226.375,400.679c-292.225,2.696 -582.781,45.016 -828.599,127.044Zm450.247,-796.605l120.908,213.915c-71.055,40.367 -170.851,40.367 -242.003,-0l121.095,-213.915Zm428.392,-363.099l114.028,201.733c-46.6,7.067 -82.499,46.878 -82.499,95.425l0.931,13.301c-16.837,9.576 -30.694,23.529 -40.367,40.179c-58.964,-0.931 -117.559,-14.509 -166.015,-42.876l173.922,-307.762Zm151.04,272.141c8.748,7.902 21.118,10.229 32.181,6.324c10.979,-4.093 18.881,-13.954 20.368,-25.67c5.49,-42.689 42.229,-74.967 85.384,-74.967c47.525,0 86.217,38.692 86.217,86.218l-1.583,15.815c-1.953,10.32 1.493,21.112 9.026,28.548c7.533,7.352 18.415,10.326 28.548,8.283c43.807,-9.583 81.477,24.177 81.477,66.127c0,37.2 -30.319,67.519 -67.615,67.519l-338.825,0c-25.114,0 -45.573,-20.459 -45.573,-45.476c0,-21.764 15.532,-40.554 36.831,-44.647c10.042,-1.856 18.506,-8.464 22.786,-17.672c4.275,-9.298 3.815,-19.993 -1.209,-28.923l-4.371,-16.462c-0,-18.603 15.157,-33.856 33.759,-33.856l22.599,8.839Zm423.278,396.023l84.543,149.553c-50.687,23.814 -118.399,23.814 -169.086,0l84.543,-149.553Zm428.948,555.528c-18.415,-8.277 -37.205,-16.366 -56.364,-24.177l-0.181,-0.653l-344.871,-610.313c-11.257,-19.812 -43.904,-19.812 -55.064,-0l-70.868,125.375l-113.284,-200.433l62.409,0c72.077,0 130.769,-58.685 130.769,-130.672c-0,-67.899 -51.902,-123.791 -118.03,-130.212c-5.762,-77.01 -70.312,-137.836 -148.809,-137.836c-47.804,0 -90.867,23.161 -118.308,59.061l-143.229,-253.448c-11.161,-19.806 -43.711,-19.806 -54.871,0l-289.347,511.914l-84.174,-148.997c-11.161,-19.811 -43.802,-19.811 -54.968,0l-514.048,909.793c-24.83,9.861 -49.387,19.812 -72.917,30.598c-15.906,7.255 -22.973,25.857 -15.809,41.763c7.254,15.901 25.857,22.974 41.757,15.719c549.857,-248.611 1444.4,-248.611 1994.26,0l12.926,2.787c12.091,0 23.53,-6.88 28.741,-18.506c7.255,-15.906 0.187,-34.508 -15.719,-41.763Z" style="fill:#0b0b16;fill-rule:nonzero;"/><path d="M255.218,588.225c9.951,-1.953 18.415,-8.555 22.695,-17.859c4.275,-9.207 3.809,-19.993 -1.209,-28.735l-4.371,-16.65c-0,-18.602 15.157,-33.759 33.668,-33.759c8.464,-0 16.463,3.065 22.787,8.833c8.645,7.811 21.015,10.229 32.084,6.233c10.973,-4.093 18.881,-14.044 20.368,-25.58c5.581,-42.785 42.229,-74.96 85.384,-74.96c47.525,-0 86.217,38.686 86.217,86.121l-1.583,15.809c-1.953,10.514 1.487,21.118 9.02,28.463c7.538,7.443 18.415,10.417 28.554,8.277c43.807,-9.486 81.477,24.37 81.477,66.128c0,37.296 -30.319,67.615 -67.615,67.615l-338.825,0c-25.114,0 -45.578,-20.368 -45.578,-45.476c-0,-21.674 15.537,-40.458 36.927,-44.46Zm8.651,153.18l338.825,0c72.077,0 130.763,-58.776 130.763,-130.859c-0,-67.803 -51.897,-123.701 -117.928,-130.206c-5.864,-76.92 -70.408,-137.746 -148.905,-137.746c-60.083,0 -112.91,35.991 -136.349,88.54l-24.274,-2.975c-53.389,0 -96.821,43.433 -96.821,96.822l0.931,13.391c-33.113,18.881 -54.877,54.502 -54.877,94.313c-0,59.986 48.734,108.72 108.635,108.72Z" style="fill:#0b0b16;fill-rule:nonzero;"/></g></g></svg>