<?xml version="1.0" encoding="UTF-8" standalone="no"?><!DOCTYPE svg PUBLIC "-//W3C//DTD SVG 1.1//EN" "http://www.w3.org/Graphics/SVG/1.1/DTD/svg11.dtd"><svg width="100%" height="100%" viewBox="0 0 2084 2084" version="1.1" xmlns="http://www.w3.org/2000/svg" xmlns:xlink="http://www.w3.org/1999/xlink" xml:space="preserve" xmlns:serif="http://www.serif.com/" style="fill-rule:evenodd;clip-rule:evenodd;stroke-linejoin:round;stroke-miterlimit:2;"><rect id="画板1" x="0" y="0" width="2083.33" height="2083.33" style="fill:none;"/><clipPath id="_clip1"><rect id="画板11" serif:id="画板1" x="0" y="0" width="2083.33" height="2083.33"/></clipPath><g clip-path="url(#_clip1)"><g><path d="M1390.66,1594.01l0,57.848l-141.83,-0l0,-57.848c0,-50.592 -30.039,-94.025 -73.191,-114.206l-0,-69.937c-0,-34.784 28.365,-63.149 63.24,-63.149l161.823,0c34.785,0 63.149,28.365 63.149,63.149l0,69.937c-43.061,20.181 -73.191,63.614 -73.191,114.206Zm73.191,426.134l-288.212,0l-0,-241.991c-0,-34.876 28.365,-63.241 63.24,-63.241l161.823,0c34.785,0 63.149,28.365 63.149,63.241l0,241.991Zm-629.436,-426.134l-0,57.848l-141.825,-0l0,-57.848c0,-50.592 -30.136,-94.025 -73.1,-114.206l-0,-69.937c-0,-34.784 28.274,-63.149 63.053,-63.149l161.919,0c34.779,0 63.144,28.365 63.144,63.149l-0,69.937c-43.152,20.181 -73.191,63.614 -73.191,114.206Zm73.191,426.134l-288.116,0l-0,-241.991c-0,-34.876 28.274,-63.241 63.053,-63.241l161.919,0c34.779,0 63.144,28.365 63.144,63.241l-0,241.991Zm1112.58,-241.991l-0,241.991l-288.304,0l0,-241.991c0,-34.876 28.365,-63.241 63.241,-63.241l161.822,0c34.876,0 63.241,28.365 63.241,63.241Zm-1668.82,241.991l-288.212,0l-0,-241.991c-0,-34.876 28.365,-63.241 63.144,-63.241l161.918,0c34.785,0 63.15,28.365 63.15,63.241l0,241.991Zm1605.58,-736.574l-161.822,0c-69.661,0 -126.3,56.638 -126.3,126.297l0,57.846l-141.92,0l-0,-57.846c-0,-69.659 -56.543,-126.297 -126.203,-126.297l-161.823,0c-69.654,0 -126.39,56.638 -126.39,126.297l0,57.846l-141.733,0l-0,-57.846c-0,-69.659 -56.73,-126.297 -126.294,-126.297l-161.919,0c-69.655,0 -126.203,56.638 -126.203,126.297l0,57.846l-141.921,0l0,-57.846c0,-69.659 -56.638,-126.297 -126.203,-126.297l-161.918,0c-69.655,0 -126.294,56.638 -126.294,126.297l0,147.221c0,17.484 14.134,31.622 31.623,31.622c17.387,-0 31.527,-14.138 31.527,-31.622l-0,-147.221c-0,-34.784 28.365,-63.149 63.144,-63.149l161.918,0c34.785,0 63.15,28.365 63.15,63.149l0,69.937c-43.061,20.181 -73.191,63.614 -73.191,114.206l-0,57.848l-151.877,-0c-69.655,-0 -126.294,56.637 -126.294,126.295l0,273.519c0,17.391 14.134,31.527 31.623,31.527l351.266,-0c17.483,-0 31.526,-14.136 31.526,-31.527l0,-273.519c0,-50.686 -30.039,-94.117 -73.191,-114.112l0,-70.031c0,-34.782 28.365,-63.148 63.15,-63.148l161.913,-0c34.876,-0 63.15,28.366 63.15,63.148l-0,70.031c-43.061,19.995 -73.101,63.426 -73.101,114.112l0,273.519c0,17.391 14.134,31.527 31.527,31.527l351.362,-0c17.392,-0 31.527,-14.136 31.527,-31.527l-0,-273.519c-0,-50.686 -30.131,-94.117 -73.192,-114.112l0,-70.031c0,-34.782 28.274,-63.148 63.054,-63.148l162.009,-0c34.785,-0 63.059,28.366 63.059,63.148l0,70.031c-42.97,19.995 -73.197,63.426 -73.197,114.112l0,273.519c0,17.391 14.231,31.527 31.714,31.527l351.175,-0c17.489,-0 31.527,-14.136 31.527,-31.527l-0,-273.519c-0,-50.686 -30.04,-94.117 -73.095,-114.112l-0,-70.031c-0,-34.782 28.365,-63.148 63.144,-63.148l161.919,-0c34.784,-0 63.149,28.366 63.149,63.148l0,69.937c-43.152,20.089 -73.197,63.52 -73.197,114.206l0,273.519c0,17.391 14.14,31.527 31.624,31.527l351.174,-0c17.484,-0 31.714,-14.136 31.714,-31.527l0,-273.519c0,-69.658 -56.729,-126.295 -126.39,-126.295l-151.781,-0l0,-57.848c0,-50.592 -30.13,-94.025 -73.282,-114.206l0,-69.937c0,-34.784 28.365,-63.149 63.241,-63.149l161.822,0c34.876,0 63.241,28.365 63.241,63.149l-0,147.221c-0,17.484 14.043,31.622 31.435,31.622c17.484,-0 31.714,-14.138 31.714,-31.622l0,-147.221c0,-69.659 -56.729,-126.297 -126.39,-126.297Z" style="fill:#0b0b16;fill-rule:nonzero;"/><path d="M2020.18,1103.7c-275.191,-58.684 -628.597,-87.98 -981.912,-87.98c-350.431,0 -700.862,28.739 -975.122,86.585l-0,-1031.58c550.569,116.066 1408.79,115.694 1957.03,-1.489l-0,1034.46Zm31.435,-1103.65l-6.601,-0l-6.976,0.743c-551.222,125.088 -1448.23,124.994 -1999.45,0c-9.389,-2.138 -19.249,0.093 -26.691,6.138c-7.532,5.953 -11.903,14.974 -11.903,24.645l0,1109.98c0,9.58 4.371,18.693 11.903,24.739l19.72,6.789l6.971,-0.744c551.222,-125.088 1448.13,-125.088 1999.45,0l6.976,0.744l6.601,-0c17.484,-0 31.714,-14.136 31.714,-31.528l0,-1109.98c0,-17.483 -14.23,-31.526 -31.714,-31.526Z" style="fill:#0b0b16;fill-rule:nonzero;"/><path d="M916.996,411.024l247.292,175.587l-247.292,175.588l0,-351.175Zm-46.035,-89.281c-10.507,5.394 -17.114,16.274 -17.114,28.087l-0,473.378c-0,11.812 6.607,22.785 17.114,28.179l14.509,3.442l18.227,-5.86l333.413,-236.595c8.373,-6.046 13.3,-15.625 13.3,-25.763c-0,-10.322 -4.927,-19.902 -13.3,-25.854l-333.413,-236.69c-9.576,-6.882 -22.223,-7.718 -32.736,-2.324Z" style="fill:#0b0b16;fill-rule:nonzero;"/></g></g></svg>