<?xml version="1.0" encoding="UTF-8" standalone="no"?><!DOCTYPE svg PUBLIC "-//W3C//DTD SVG 1.1//EN" "http://www.w3.org/Graphics/SVG/1.1/DTD/svg11.dtd"><svg width="100%" height="100%" viewBox="0 0 2084 2084" version="1.1" xmlns="http://www.w3.org/2000/svg" xmlns:xlink="http://www.w3.org/1999/xlink" xml:space="preserve" xmlns:serif="http://www.serif.com/" style="fill-rule:evenodd;clip-rule:evenodd;stroke-linejoin:round;stroke-miterlimit:2;"><rect id="画板1" x="0" y="0" width="2083.33" height="2083.33" style="fill:none;"/><clipPath id="_clip1"><rect id="画板11" serif:id="画板1" x="0" y="0" width="2083.33" height="2083.33"/></clipPath><g clip-path="url(#_clip1)"><g><path d="M1595.4,1990.94c-39.621,-55.524 -201.918,-272.698 -465.965,-500.005l5.764,-6.33c11.626,-13.017 10.604,-32.919 -2.231,-44.642c-12.928,-11.813 -32.925,-10.786 -44.644,2.231l-7.255,7.999c-63.616,-52.55 -132.628,-105.099 -206.661,-155.787c138.674,-47.434 294.275,-86.683 463.921,-108.448l9.114,16.837l21.206,8.277c8.557,0 17.206,-3.531 23.345,-10.417l20.834,-22.877c118.677,-11.257 243.679,-13.675 374.448,-4.189l223.123,817.351l-414.999,0Zm-1438.54,-307.485c41.202,-34.691 275.488,-223.215 643.981,-362.635c86.034,56.733 165.554,116.356 238.008,176.064l-9.766,10.791c-11.72,12.926 -10.695,32.925 2.231,44.551l21.208,8.18c8.555,0 17.112,-3.531 23.436,-10.417l11.254,-12.46c218.381,187.877 365.984,369.146 429.788,453.411l-848.693,0c1.022,-9.764 -1.859,-19.812 -9.673,-26.879c-12.929,-11.717 -32.831,-10.695 -44.551,2.14l-22.415,24.739l-518.795,0l83.987,-307.485Zm165.925,-607.426c149.556,55.524 287.58,125.745 412.672,203.124c-260.979,104.264 -452.015,229.822 -550.79,302.74l138.118,-505.864Zm143.323,-524.66l179.413,-0c55.989,248.612 268.699,542.144 344.778,641.288c-63.338,17.859 -123.701,37.387 -181.178,58.317c-140.442,-90.499 -297.531,-172.715 -469.689,-235.959l126.676,-463.646Zm575.532,-458.992c191.316,0 346.915,155.696 346.915,347.013c0,242.935 -264.047,607.988 -346.915,716.436c-82.778,-108.448 -346.826,-473.41 -346.826,-716.436c0,-191.317 155.602,-347.013 346.826,-347.013Zm575.622,458.992l64.269,235.311l-20.09,22.23c-11.719,13.017 -10.788,32.925 2.137,44.642l21.206,8.186l15.906,-5.024l69.012,252.609c-107.424,-6.881 -211.22,-6.137 -310.738,1.021l-9.861,-19.811c-12.926,-11.717 -32.925,-10.695 -44.551,2.327l-22.32,24.461c-92.264,9.764 -180.713,24.552 -264.979,43.342c89.659,-120.631 269.815,-383.565 320.596,-609.294l179.413,-0Zm464.943,1462.82l-410.441,-1502.82c-3.627,-13.766 -16.184,-23.252 -30.319,-23.252l-192.898,0c1.953,-16.644 3.162,-33.015 3.162,-48.734c-0,-226.195 -183.968,-410.16 -410.069,-410.16c-226.011,-0 -409.979,183.965 -409.979,410.16c-0,15.719 1.209,32.09 3.071,48.734l-192.713,0c-14.229,0 -26.692,9.486 -30.504,23.252l-410.444,1502.82c-2.509,9.582 -0.557,19.715 5.395,27.532c5.953,7.811 15.254,12.37 25.111,12.37l2020.31,-0c9.764,-0 19.065,-4.559 25.017,-12.37c5.952,-7.817 7.908,-17.95 5.302,-27.532Z" style="fill:#0b0b16;fill-rule:nonzero;"/><path d="M917.099,442.835c-0,-68.734 55.898,-124.627 124.539,-124.627c68.73,0 124.535,55.893 124.535,124.627c0,68.643 -55.805,124.536 -124.535,124.536c-68.641,-0 -124.539,-55.893 -124.539,-124.536Zm312.319,-0c-0,-103.515 -84.172,-187.69 -187.78,-187.69c-103.425,0 -187.596,84.175 -187.596,187.69c-0,103.521 84.171,187.689 187.596,187.689c103.608,0 187.78,-84.168 187.78,-187.689Z" style="fill:#0b0b16;fill-rule:nonzero;"/><path d="M894.406,1735.17c8.558,-0 17.113,-3.537 23.346,-10.417l59.338,-65.572c11.72,-12.926 10.695,-32.925 -2.233,-44.551c-12.926,-11.716 -32.832,-10.695 -44.642,2.328l-59.248,65.384c-11.717,12.835 -10.695,32.925 2.234,44.642l21.205,8.186Z" style="fill:#0b0b16;fill-rule:nonzero;"/><path d="M1526.77,1036.32c8.554,0 17.112,-3.536 23.342,-10.417l59.339,-65.384c11.626,-13.022 10.698,-32.834 -2.325,-44.648c-12.928,-11.625 -32.831,-10.785 -44.551,2.237l-59.338,65.566c-11.626,12.835 -10.602,32.925 2.327,44.648l21.206,7.998Z" style="fill:#0b0b16;fill-rule:nonzero;"/><path d="M736.292,1909.84c8.558,-0 17.206,-3.531 23.439,-10.417l59.246,-65.475c11.719,-13.023 10.695,-32.925 -2.325,-44.648c-12.835,-11.716 -32.738,-10.695 -44.551,2.328l-59.245,65.475c-11.72,12.835 -10.695,32.743 2.231,44.551l21.205,8.186Z" style="fill:#0b0b16;fill-rule:nonzero;"/><path d="M1246.44,1267.53l-59.245,65.385c-11.719,13.022 -10.697,32.925 2.138,44.641l21.205,8.186c8.558,0 17.209,-3.531 23.439,-10.417l59.245,-65.475c11.626,-12.926 10.789,-32.925 -2.231,-44.642c-12.928,-11.722 -32.925,-10.604 -44.551,2.322Z" style="fill:#0b0b16;fill-rule:nonzero;"/></g></g></svg>