<?xml version="1.0" encoding="UTF-8" standalone="no"?><!DOCTYPE svg PUBLIC "-//W3C//DTD SVG 1.1//EN" "http://www.w3.org/Graphics/SVG/1.1/DTD/svg11.dtd"><svg width="100%" height="100%" viewBox="0 0 2084 2084" version="1.1" xmlns="http://www.w3.org/2000/svg" xmlns:xlink="http://www.w3.org/1999/xlink" xml:space="preserve" xmlns:serif="http://www.serif.com/" style="fill-rule:evenodd;clip-rule:evenodd;stroke-linejoin:round;stroke-miterlimit:2;"><rect id="画板1" x="0" y="0" width="2083.33" height="2083.33" style="fill:none;"/><clipPath id="_clip1"><rect id="画板11" serif:id="画板1" x="0" y="0" width="2083.33" height="2083.33"/></clipPath><g clip-path="url(#_clip1)"><g><path d="M1836.92,2020.18l-724.482,-0c76.262,-89.375 217.064,-275.469 236.5,-448.457c81.655,16.092 161.641,38.412 237.994,68.451c149.544,58.779 249.988,208.045 249.988,371.355l-0,8.651Zm-1590.61,-8.651c-0,-163.4 100.534,-312.576 249.988,-371.355c76.443,-30.039 156.333,-52.92 237.988,-69.564c19.067,172.517 160.522,359.82 236.784,449.57l-724.76,-0l-0,-8.651Zm629.062,-633.064c52.45,27.156 108.998,41.386 166.284,41.386c56.917,0 113.187,-14.043 165.358,-40.921c8.56,52.359 30.602,112.256 81.19,166.755c-8.276,176.519 -183.12,388.004 -246.452,459.242c-63.428,-71.426 -238.55,-284.12 -246.644,-459.804c50.128,-54.033 71.8,-114.203 80.264,-166.658Zm347.27,-83.051c-110.486,80.264 -251.85,80.077 -362.244,-0.182c-83.704,-60.822 -146.57,-160.057 -176.797,-279.289c-2.327,-9.207 -10.041,-16.274 -18.601,-20.367l-13.3,-2.787l-15.065,3.349l-10.973,-4.836c-12.465,-10.326 -28.274,-37.016 -31.992,-78.59c-4.836,-54.402 15.344,-90.021 27.991,-91.327l3.349,0.84c9.581,2.696 19.997,1.113 28.086,-4.933c7.998,-5.858 12.744,-15.252 12.744,-25.203c-0,-9.11 0.278,-18.039 0.465,-26.599c0.466,-16.831 1.3,-33.105 2.6,-48.454c83.704,-91.049 194.376,-125.641 312.769,-97.276c51.428,12.272 88.909,27.156 125.181,41.568c81.933,32.554 147.682,58.501 300.672,23.903c4.558,17.484 7.442,31.805 8.838,62.963c0.647,14.231 1.113,28.739 1.113,43.895c-0,9.951 4.745,19.436 12.834,25.391c8.094,5.954 18.511,7.629 28.087,4.745l3.161,-0.84c12.647,1.306 32.923,36.925 28.087,91.327c-3.718,41.574 -19.527,68.264 -31.992,78.59l-13.856,3.996c-8.464,-4.093 -18.414,-4.183 -26.969,-0.187c-8.56,4.002 -14.883,11.625 -17.21,20.832c-30.221,119.232 -93.093,218.648 -176.978,279.471Zm-788.376,-340.197c0,-467.989 380.562,-537.831 607.39,-537.831c226.834,-0 607.395,69.842 607.395,537.831c0,217.899 -79.702,425.575 -201.256,574.007c-36.55,-9.673 -73.56,-17.671 -110.854,-24.369c-51.337,-53.846 -67.611,-115.134 -70.96,-163.406c86.025,-64.818 151.775,-164.053 187.303,-282.348c15.531,-1.306 30.88,-7.817 44.548,-19.255c29.665,-24.363 50.128,-69.938 54.687,-121.554c7.067,-78.958 -23.529,-143.686 -72.448,-157.355l-0.653,-15.536c-1.952,-43.243 -6.698,-61.1 -13.3,-85.747l-5.114,-20.089l-14.509,-19.527l-24.181,-3.44c-155.221,40.359 -209.811,18.784 -292.209,-13.952c-36.459,-14.509 -77.937,-30.874 -133.741,-44.361c-143.408,-34.319 -282.536,11.069 -381.674,124.806l-7.72,17.671c-1.862,18.88 -3.071,39.156 -3.627,60.175c-49.016,13.578 -79.611,78.306 -72.544,157.355c4.558,51.803 25.016,97.191 54.595,121.554c13.76,11.438 28.921,17.949 44.639,19.255c35.432,118.204 101.091,217.252 186.838,282.07c-3.44,48.176 -19.805,109.651 -70.495,163.219c-37.384,6.976 -74.309,15.065 -110.854,24.647c-121.463,-148.432 -201.256,-355.921 -201.256,-573.82Zm611.017,-892.077c291.658,0 484.916,118.58 484.916,166.568l0,276.587c-114.209,-98.951 -279.289,-151.962 -488.543,-151.962c-204.878,-0 -367.262,51.059 -481.187,146.104l0,-287.094c3.809,-37.294 204.883,-150.203 484.814,-150.203Zm564.709,1518.26c-30.783,-12.091 -62.31,-22.785 -94.12,-32.645c120.067,-156.708 196.329,-368.193 196.329,-593.534c-0,-156.151 -41.477,-284.585 -118.949,-382.52l0,-342.989c0,-118.114 -266.262,-229.712 -547.969,-229.712c-271.376,-0 -547.873,107.601 -547.873,213.347l0,350.147c-82.307,98.866 -126.203,230.552 -126.203,391.727c0,225.25 76.262,436.826 196.233,593.534c-31.805,9.86 -63.422,20.554 -94.211,32.741c-173.448,68.168 -290.069,240.968 -290.069,430.037l0,40.268c0,17.302 14.231,31.532 31.618,31.532l1653.76,0c17.483,0 31.617,-14.23 31.617,-31.532l0,-40.268c0,-189.069 -116.621,-361.96 -290.165,-430.133Z" style="fill:#0b0b16;fill-rule:nonzero;"/><path d="M966.151,241.712l47.613,-0l0,47.8c0,17.296 14.14,31.436 31.527,31.436c17.489,0 31.623,-14.14 31.623,-31.436l0,-47.8l47.619,-0c17.387,-0 31.618,-14.14 31.618,-31.527c-0,-17.392 -14.231,-31.623 -31.618,-31.623l-47.619,-0l0,-47.619c0,-17.387 -14.134,-31.43 -31.623,-31.43c-17.387,-0 -31.527,14.043 -31.527,31.43l0,47.619l-47.613,-0c-17.392,-0 -31.623,14.231 -31.623,31.623c-0,17.387 14.231,31.527 31.623,31.527Z" style="fill:#0b0b16;fill-rule:nonzero;"/></g></g></svg>