<?xml version="1.0" encoding="UTF-8" standalone="no"?><!DOCTYPE svg PUBLIC "-//W3C//DTD SVG 1.1//EN" "http://www.w3.org/Graphics/SVG/1.1/DTD/svg11.dtd"><svg width="100%" height="100%" viewBox="0 0 2084 2084" version="1.1" xmlns="http://www.w3.org/2000/svg" xmlns:xlink="http://www.w3.org/1999/xlink" xml:space="preserve" xmlns:serif="http://www.serif.com/" style="fill-rule:evenodd;clip-rule:evenodd;stroke-linejoin:round;stroke-miterlimit:2;"><rect id="画板1" x="0" y="0" width="2083.33" height="2083.33" style="fill:none;"/><g id="画板11" serif:id="画板1"><g><path d="M1672.81,1032.64c-61.478,64.174 -132.72,139.043 -173.363,242.375c-12.743,-34.69 -29.855,-68.545 -51.061,-101.379l-6.882,-10.417l-0.186,-0.09c-27.716,-40.923 -61.106,-80.262 -101.749,-118.12c-75.149,-69.755 -130.58,-140.065 -171.317,-208.702c18.043,-58.691 105.004,-315.014 256.882,-351.565c76.545,-18.325 162.017,23.626 254.094,124.908c194.01,213.26 114.211,296.594 -6.418,422.99Zm-539.715,987.537l-513.3,-0c-51.246,-43.62 -323.01,-287.761 -333.334,-564.264c-3.162,-88.544 21.67,-172.343 73.01,-250.84c24.739,-21.298 64.36,-20.555 87.612,2.697c49.665,49.852 130.58,49.761 180.246,-0c24.367,-24.274 66.777,-24.274 91.052,-0c24.089,24.091 56.176,37.483 90.216,37.483c34.04,-0 66.035,-13.392 90.124,-37.483c25.11,-25.017 66.033,-25.017 91.052,-0c48.177,48.274 132.162,48.274 180.339,-0c24.367,-24.274 66.685,-24.274 91.052,-0c24.183,24.091 56.084,37.483 90.124,37.483c20.647,-0 40.178,-5.393 58.035,-14.601c40.458,71.055 59.896,146.202 57.014,224.983c-10.139,276.225 -281.902,520.922 -333.242,564.542Zm-676.898,-928.852c364.212,-337.982 178.944,-700.242 88.914,-833.053l97.284,-0l21.298,139.6c2.326,15.349 15.625,26.788 31.25,26.788l236.794,-0c15.532,-0 28.74,-11.439 31.157,-26.788l21.298,-139.6l52.549,-0c-29.483,96.168 -76.358,334.82 68.917,594.401l3.07,5.489c43.805,77.01 104.538,155.784 187.965,233.163c29.949,27.719 55.804,56.363 77.847,85.848c-23.066,8.651 -50.782,3.996 -68.732,-13.954c-24.089,-24.182 -56.084,-37.386 -90.216,-37.386c-34.04,0 -66.035,13.204 -90.124,37.386c-24.367,24.37 -66.685,24.37 -91.052,0c-49.666,-49.664 -130.673,-49.664 -180.339,0c-24.275,24.37 -66.592,24.37 -90.96,0c-48.27,-48.359 -132.254,-48.268 -180.338,0c-25.112,25.114 -66.035,25.114 -91.054,0c-19.718,-19.624 -44.642,-31.618 -71.615,-35.62c11.44,-12.183 23.252,-24.461 36.087,-36.274Zm464.194,-833.053l-15.812,103.332l-182.571,-0l-15.811,-103.332l214.194,-0Zm-243.955,-195.033l273.716,0l-20.181,131.88l-233.447,0l-20.088,-131.88Zm1049.48,503.905c-108.911,-119.607 -215.03,-167.967 -315.663,-143.693c-150.577,36.274 -242.188,228.144 -282.46,335.66c-124.349,-276.322 -23.531,-506.607 -17.765,-519.345c4.465,-9.673 3.721,-21.021 -2.138,-30.137c-5.766,-9.02 -15.811,-14.51 -26.507,-14.51l-87.519,0l24.275,-158.758c1.395,-9.117 -1.303,-18.415 -7.255,-25.301c-6.045,-6.971 -14.787,-11.064 -23.995,-11.064l-347.192,-0c-9.301,-0 -17.951,4.093 -23.995,11.064c-5.953,6.886 -8.557,16.184 -7.255,25.301l24.275,158.758l-150.671,0c-12.461,0 -23.715,7.351 -28.831,18.693c-5.023,11.348 -3.07,24.648 5.302,33.856c15.067,16.928 364.304,417.318 -45.294,797.341c-40.551,37.67 -73.848,77.197 -101.564,117.932l-0.278,0.278l-6.975,10.514c-57.107,88.351 -84.73,183.497 -80.917,284.502c12.184,332.594 350.727,606.679 365.143,618.118l19.717,6.976l536.18,0l19.718,-6.976c14.415,-11.439 352.864,-285.524 365.235,-618.118l-0.094,-4.275l0.372,-2.237c-0,-178.195 100.261,-283.014 188.616,-375.464c124.07,-129.74 241.259,-252.418 7.535,-509.115Z" style="fill:#0b0b16;fill-rule:nonzero;"/></g></g></svg>