<?xml version="1.0" encoding="UTF-8" standalone="no"?><!DOCTYPE svg PUBLIC "-//W3C//DTD SVG 1.1//EN" "http://www.w3.org/Graphics/SVG/1.1/DTD/svg11.dtd"><svg width="100%" height="100%" viewBox="0 0 2084 2084" version="1.1" xmlns="http://www.w3.org/2000/svg" xmlns:xlink="http://www.w3.org/1999/xlink" xml:space="preserve" xmlns:serif="http://www.serif.com/" style="fill-rule:evenodd;clip-rule:evenodd;stroke-linejoin:round;stroke-miterlimit:2;"><rect id="画板1" x="0" y="0" width="2083.33" height="2083.33" style="fill:none;"/><clipPath id="_clip1"><rect id="画板11" serif:id="画板1" x="0" y="0" width="2083.33" height="2083.33"/></clipPath><g clip-path="url(#_clip1)"><g><path d="M1405.62,2018.14c-200.426,14.506 -382.902,-49.852 -513.946,-180.896c-131.137,-130.953 -195.311,-313.52 -180.988,-514.04c10.231,-142.297 59.244,-281.433 140.81,-404.85c-6.511,182.289 109.374,425.312 321.611,637.457c206.472,206.471 442.332,322.262 622.855,322.262l14.23,-0.559c-123.51,81.567 -262.46,130.487 -404.572,140.626Zm-1336.86,-971.626c0,-407.919 334.167,-742.088 752.969,-762.362c30.971,66.964 37.574,144.716 37.667,197.264c-66.126,-39.807 -135.322,-34.318 -138.949,-33.946c-17.299,1.581 -29.948,16.834 -28.46,34.131c1.488,17.208 16.834,30.134 34.04,28.646c3.534,-0.187 84.076,-6.139 137.927,56.36l2.976,2.328l1.302,1.115l3.441,3.068l0.186,0l0.465,0.188l1.581,0.743l2.511,1.116l6.139,1.674l1.302,0.466l3.72,0.184l0.279,0.094l0.186,-0.094l9.486,-1.674l1.395,-0.372l1.396,-0.744l6.789,-3.905l1.395,-0.931l0.465,-0.557l6.045,-7.161c0.279,-0.465 28.739,-47.155 100.353,-43.34c17.113,1.115 32.273,-12.463 33.203,-29.762c0.93,-17.484 -12.37,-32.366 -29.762,-33.296c-40.178,-2.141 -71.893,6.789 -96.074,19.252c-0.186,-35.527 -3.442,-80.264 -13.579,-126.767c113.838,34.505 210.749,48.455 292.78,48.455c24.46,0 47.246,-1.674 69.103,-3.905c177.732,103.328 309.8,271.76 360.952,470.699c-271.667,-215.307 -563.889,-277.806 -705.35,-136.533c-164.247,164.433 -263.297,374.532 -278.922,591.792c-13.114,182.664 34.226,352.024 133.927,486.883c-399.736,-39.063 -712.884,-364.394 -712.884,-759.109Zm1039.42,-969.111c146.855,-42.876 330.168,17.949 440.565,100.816c-42.689,61.571 -202.565,231.769 -608.439,113.372c76.822,-37.386 223.305,-89.468 413.035,-65.754c17.206,2.14 33.11,-10.23 35.249,-27.435c2.139,-17.3 -10.138,-33.109 -27.436,-35.249c-195.497,-24.46 -347.374,24.182 -434.706,64.639c41.294,-76.452 101.933,-127.138 181.732,-150.389Zm849.043,1680.14c-133.648,133.647 -472.28,20.833 -739.576,-246.372c-267.204,-267.202 -380.019,-605.835 -246.278,-739.482c38.225,-38.32 93.284,-56.363 158.76,-56.363c162.945,0 389.97,112.073 580.631,302.826c267.203,267.205 380.018,605.836 246.463,739.391Zm-201.821,-784.035c-15.16,-15.252 -30.505,-29.481 -45.944,-43.618c-33.575,-227.211 -162.666,-425.034 -347.374,-553.66c188.149,-51.43 252.323,-183.311 256.508,-192.24c5.859,-12.835 2.604,-28.088 -8.185,-37.201c-122.487,-104.259 -340.398,-182.477 -519.991,-130.023c-103.05,29.947 -181.36,100.073 -230.374,203.216l-1.209,0c-22.786,-36.27 -52.92,-69.01 -94.028,-93.189c-14.974,-8.651 -34.319,-3.628 -43.154,11.438c-8.836,14.881 -3.72,34.318 11.346,43.063c19.718,11.625 36.365,25.947 50.502,42.316c-435.543,38.41 -777.894,392.759 -777.894,822.908c-0,447.913 371.276,813.61 832.488,825.979l8.835,9.392c131.045,131.047 308.126,201.45 503.623,201.45c19.717,0 39.527,-0.65 59.616,-2.14c217.26,-15.625 427.359,-114.581 591.605,-279.015c163.317,-163.224 55.06,-527.337 -246.37,-828.676Z" style="fill:#0b0b16;fill-rule:nonzero;"/><path d="M1669.1,1250.47c-4.185,7.439 -13.02,14.416 -22.6,12.741l-154.853,-25.95l-25.949,-154.945c-1.581,-9.673 5.208,-18.321 12.742,-22.508l17.671,-0.65c30.878,25.854 61.29,53.848 90.587,83.054c29.204,29.294 57.198,59.709 83.053,90.493l-0.651,17.765Zm86.588,97.748c48.27,74.309 79.892,145.181 89.006,199.401c1.86,10.976 -7.627,19.159 -13.486,22.042l-17.392,-0.184l-257.438,-257.439l79.613,13.485l0.093,0l113.187,18.88l6.417,3.815Zm13.672,283.386c-3.069,5.858 -11.347,15.159 -22.135,13.485c-54.315,-9.114 -125.092,-40.735 -199.31,-88.912l-3.813,-6.511l-18.974,-113.186l-13.392,-79.707l257.438,257.344l0.186,17.487Zm-306.545,-184.707c1.581,9.67 -5.208,18.321 -12.742,22.692l-17.763,0.559c-30.692,-25.669 -61.105,-53.666 -90.588,-83.054c-29.203,-29.203 -57.105,-59.803 -83.053,-90.587l0.651,-17.671c3.906,-6.698 11.254,-13.116 19.81,-13.116l2.883,0.375l47.433,7.905l107.421,18.136l18.322,109.002l7.626,45.759Zm-290.083,-265.903c-48.176,-74.218 -79.798,-144.994 -89.005,-199.31c-1.768,-10.976 7.719,-19.065 13.578,-22.229l17.392,0.281l257.438,257.438l-79.705,-13.394l-113.28,-18.974l-6.418,-3.812Zm-13.578,-283.292c2.79,-5.396 9.765,-13.766 19.345,-13.766l2.79,0.185c54.315,9.207 125.185,40.831 199.31,89.006l3.813,6.511l18.973,113.188l13.393,79.705l-257.438,-257.345l-0.186,-17.484Zm377.507,113.001c-23.158,-19.44 -55.71,-22.323 -84.448,-8.37l-5.581,-33.205c-3.441,-20.274 -14.88,-38.039 -31.621,-48.828c-82.496,-53.663 -159.69,-87.609 -223.306,-98.307c-35.435,-6.045 -71.056,12.744 -88.633,46.784c-4.465,8.555 -7.255,17.299 -8.65,26.041c-8.742,1.488 -17.578,4.184 -26.041,8.649c-34.04,17.486 -52.92,53.107 -46.875,88.727c10.789,63.615 44.736,140.811 98.307,223.212c10.881,16.74 28.738,28.272 48.92,31.621l33.296,5.674c-14.044,28.647 -11.161,61.196 8.37,84.448c26.972,32.274 56.175,63.989 86.681,94.586c30.785,30.787 62.592,59.896 94.772,86.775c13.579,11.438 30.413,17.205 47.805,17.205c12.277,0 24.646,-3.349 36.551,-9.113l5.58,33.386c3.349,20.371 14.881,38.227 31.622,49.109l0.093,-0c82.495,53.569 159.69,87.518 223.212,98.213l13.114,1.115c30.97,0 60.267,-18.136 75.613,-47.989c4.371,-8.558 7.255,-17.578 8.557,-26.507c8.835,-1.397 17.577,-3.812 26.134,-8.186c33.947,-17.39 52.827,-53.104 46.782,-88.631c-10.696,-63.524 -44.643,-140.717 -98.214,-223.215c-10.881,-16.74 -28.738,-28.365 -48.92,-31.805l-33.296,-5.396c14.043,-28.738 11.067,-61.29 -8.371,-84.541c-27.064,-32.181 -56.268,-64.08 -86.774,-94.586c-30.505,-30.506 -62.406,-59.803 -94.679,-86.866Z" style="fill:#0b0b16;fill-rule:nonzero;"/></g></g></svg>