<?xml version="1.0" encoding="UTF-8" standalone="no"?><!DOCTYPE svg PUBLIC "-//W3C//DTD SVG 1.1//EN" "http://www.w3.org/Graphics/SVG/1.1/DTD/svg11.dtd"><svg width="100%" height="100%" viewBox="0 0 2084 2084" version="1.1" xmlns="http://www.w3.org/2000/svg" xmlns:xlink="http://www.w3.org/1999/xlink" xml:space="preserve" xmlns:serif="http://www.serif.com/" style="fill-rule:evenodd;clip-rule:evenodd;stroke-linejoin:round;stroke-miterlimit:2;"><rect id="画板1" x="0" y="0" width="2083.33" height="2083.33" style="fill:none;"/><g id="画板11" serif:id="画板1"><g><path d="M1041.62,1891.31c-530.48,-0 -978.568,-172.053 -978.568,-375.634c0,-86.492 81.008,-167.124 214.743,-231.389c4.184,16.183 11.257,31.993 20.645,47.338c-17.017,27.529 -26.315,56.545 -26.315,86.678c-0,184.516 338.062,329.133 769.495,329.133c431.53,0 769.592,-144.617 769.592,-329.133c0,-30.133 -9.672,-59.056 -26.508,-86.678c9.394,-15.345 16.461,-31.155 20.832,-47.338c133.554,64.265 214.368,144.897 214.368,231.389c0,203.581 -447.894,375.634 -978.284,375.634Zm-699.188,-507.139c120.811,112.812 385.307,189.445 699.188,189.445c313.972,-0 578.469,-76.633 699.092,-189.631c4.558,11.439 7.073,22.879 7.073,34.318c-0,128.435 -283.751,266.078 -706.165,266.078c-422.51,0 -706.442,-137.643 -706.442,-266.078c-0,-11.253 2.696,-22.693 7.254,-34.132Zm0.188,-174.193c97.372,90.864 287.747,158.011 522.391,180.889c7.067,10.044 15.253,19.251 24.55,27.622c31.805,28.923 73.192,44.734 115.884,44.734l16.552,-0.744c46.779,-4.558 88.075,-29.854 116.252,-65.939c98.395,-5.115 190,-17.949 272.586,-37.015c23.625,12.463 49.946,18.88 77.38,17.764c54.499,-2.976 100.444,-36.735 124.063,-84.352c51.99,-24.46 95.42,-52.361 128.252,-82.959c4.74,11.533 7.255,23.065 7.255,34.504c-0,128.436 -283.751,265.893 -706.165,265.893c-422.51,-0 -706.442,-137.457 -706.442,-265.893c-0,-11.439 2.696,-22.971 7.442,-34.504Zm-0.375,-173.82c29.205,27.343 66.868,52.547 111.694,74.96c7.073,24.181 19.811,46.501 38.321,64.171c29.296,27.622 67.237,41.2 107.414,39.526c28.462,-1.488 54.596,-11.533 76.263,-27.715c49.384,11.067 101.93,19.996 157.264,26.32l-0,77.842c-0,11.161 1.305,22.135 3.258,32.923c-306.258,-35.527 -501.281,-147.501 -501.281,-253.616c-0,-11.439 2.509,-22.971 7.067,-34.411Zm0.187,-173.634c27.809,25.854 63.053,49.756 104.815,71.333l-0,103.045c-71.983,-42.874 -112.069,-92.164 -112.069,-140.153c-0,-11.347 2.696,-22.786 7.254,-34.225Zm-0.374,-173.356c17.489,16.369 37.759,32.179 61.753,47.06c26.696,16.926 43.436,47.337 43.436,79.609l-0,47.152c-71.983,-42.874 -112.069,-92.165 -112.069,-140.154c-0,-11.346 2.509,-22.413 6.88,-33.667Zm491.143,350.059l-0,110.766c-39.525,-4.651 -77.188,-10.51 -112.807,-17.578c10.041,-20.739 16.178,-43.804 16.178,-68.449l-0,-38.968c31.248,5.487 63.427,10.323 96.629,14.229Zm-96.629,-77.749l-0,-5.673c-0,-13.672 5.863,-26.692 15.996,-35.899c10.138,-9.207 23.437,-13.671 37.39,-12.183c24.363,2.511 43.243,25.482 43.243,52.639l-0,15.81c-33.57,-4.092 -65.937,-8.928 -96.629,-14.694Zm440.549,195.489l0,-29.574c0,-21.297 8.464,-41.106 23.903,-55.801c15.44,-14.694 35.62,-22.599 57.105,-20.925c40.081,1.953 72.822,39.247 72.822,82.864l-0,4.279c-48.175,8.462 -99.422,15.158 -153.83,19.157Zm153.83,44.549l-0,26.598c-0,28.365 8.742,55.987 23.619,79.61c-56.729,10.881 -118.114,19.065 -184.238,23.715c4.002,-14.88 6.789,-30.226 6.789,-46.129l0,-64.822c53.755,-4.092 104.911,-10.51 153.83,-18.972Zm298.441,-335.458l0,-46.222c0,-32.736 17.018,-63.334 44.452,-79.982c26.043,-15.996 48.175,-32.829 67.055,-50.593c4.371,11.161 6.886,22.321 6.886,33.574c-0,49.291 -42.693,99.699 -118.393,143.223Zm118.393,204.511c-0,49.477 -42.505,99.977 -118.393,143.595l0,-103.697c44.639,-22.6 82.308,-47.803 111.32,-75.053c4.745,11.718 7.073,23.436 7.073,35.155Zm-118.393,-30.597l0,-103.047c44.639,-22.506 82.308,-47.524 111.32,-74.68c4.558,11.532 7.073,22.971 7.073,34.504c-0,49.291 -42.693,99.605 -118.393,143.223Zm-811.069,-742.806l-0.375,2.418c-3.065,28.645 0.744,56.638 9.491,82.399c-12.556,6.232 -24.743,13.672 -35.994,22.786c-39.803,32.086 -64.637,77.749 -69.938,128.436c-5.393,50.779 9.116,100.627 41.199,140.153c32.179,39.805 77.749,64.73 128.439,70.031l20.549,1.023c43.623,-0 85.565,-14.694 119.697,-42.316c11.064,-9.021 20.555,-19.252 29.109,-30.133c29.948,27.436 67.52,44.641 108.623,49.012l20.463,1.116c43.618,0 85.373,-14.694 119.693,-42.408c39.802,-32.086 64.727,-77.657 69.938,-128.436c5.489,-50.779 -9.207,-100.535 -41.199,-140.154c-32.179,-39.805 -77.749,-64.636 -128.439,-69.937l-11.807,-0.744l0.181,-0.372l0,-0.093c1.862,-17.019 1.119,-33.667 -1.578,-49.942c335.27,28.644 551.41,146.85 551.41,258.917c-0,59.335 -58.127,107.231 -106.767,136.992c-45.945,27.993 -74.685,79.423 -74.685,133.922l0,401.675c0,48.733 -36.453,90.397 -81.376,92.63c-24.176,1.581 -46.683,-7.068 -64.075,-23.53c-17.302,-16.461 -26.69,-38.595 -26.69,-62.497l-0,-94.583c-0,-77.935 -58.314,-142.107 -132.623,-146.013c-38.503,-1.674 -75.797,11.533 -103.884,38.224c-27.808,26.412 -43.617,63.427 -43.617,101.651l-0,157.917c-0,58.777 -43.061,108.998 -98.116,114.299c-31.249,2.79 -61.01,-6.882 -84.073,-27.807c-22.507,-20.553 -35.619,-49.942 -35.619,-80.54l-0,-330.9c-0,-59.15 -43.805,-109.835 -99.888,-115.508l-11.25,-0.559c-27.622,0 -54.499,10.231 -74.866,28.924c-23.438,21.019 -36.828,51.244 -36.828,82.586l-0,108.161c-0,46.129 -34.598,85.469 -77.103,87.7c-22.875,1.302 -44.082,-6.696 -60.447,-22.134c-16.558,-15.624 -25.391,-36.642 -25.391,-59.242l0,-254.453c0,-53.848 -28.177,-104.813 -73.288,-132.993c-46.5,-29.295 -102.021,-76.075 -102.021,-133.922c-0,-104.255 187.212,-213.718 483.145,-251.756Zm62.309,9.114c7.068,-65.566 62.685,-114.392 127.134,-114.392l13.675,0.651c70.307,7.441 121.088,70.681 113.647,140.805l-3.259,15.438c-22.319,7.161 -43.617,18.322 -62.678,33.574c-10.882,8.928 -20.651,19.065 -29.393,29.853c-29.761,-27.063 -67.236,-44.362 -108.254,-48.733c-14.509,-1.488 -29.108,-1.209 -43.242,0.372c-6.699,-17.763 -9.582,-37.387 -7.63,-57.568Zm181.446,211.3c3.627,-34.038 20.372,-64.543 46.875,-86.026c23.064,-18.601 51.059,-28.459 80.077,-28.459l13.856,0.744c33.945,3.627 64.45,20.275 85.935,46.873c21.576,26.505 31.43,59.893 27.803,93.932c-3.718,33.946 -20.367,64.45 -46.87,85.841c-26.69,21.483 -59.801,31.434 -94.12,27.714c-33.758,-3.534 -64.262,-20.274 -85.935,-46.78c-21.201,-26.692 -31.248,-59.893 -27.621,-93.839Zm-150.941,-92.072l13.856,0.652c32.645,3.533 62.128,19.344 83.148,44.176c-4.189,13.02 -7.254,26.505 -8.742,40.455c-4.189,38.317 3.344,75.983 20.923,109.37c-7.441,12.369 -17.114,23.437 -28.552,32.737c-26.69,21.576 -60.079,31.435 -93.836,27.715c-34.041,-3.627 -64.546,-20.275 -85.935,-46.781c-21.485,-26.691 -31.248,-59.986 -27.808,-93.931c3.627,-33.946 20.179,-64.543 46.875,-85.934c22.876,-18.507 51.054,-28.459 80.071,-28.459Zm897.004,790.423c-4.001,-19.902 -12.181,-39.247 -23.806,-57.755c17.386,-27.807 26.877,-57.195 26.877,-87.607c0,-30.226 -9.672,-59.335 -26.877,-87.05c17.018,-27.528 26.877,-56.545 26.877,-86.77c0,-30.133 -10.047,-58.964 -26.877,-86.492c17.205,-27.714 26.877,-57.103 26.877,-87.422c0,-30.225 -9.491,-59.056 -26.508,-86.585c17.017,-28.086 26.508,-57.288 26.508,-87.328c0,-165.264 -271.382,-298.071 -637.9,-324.018c-29.483,-51.337 -81.938,-88.352 -145.179,-95.048c-79.889,-8.463 -153.824,34.132 -189.256,101.372c-329.877,37.294 -566.752,163.311 -566.752,317.694c-0,30.04 9.11,59.056 25.946,87.05c-16.836,27.621 -25.946,56.638 -25.946,86.863c-0,30.226 9.298,59.242 26.315,86.957c-17.017,27.529 -26.315,56.638 -26.315,86.957c-0,30.132 9.11,59.242 26.134,86.863c-17.024,27.622 -26.134,56.731 -26.134,86.957c-0,30.226 9.298,59.429 26.315,87.05c-11.438,18.879 -19.436,38.224 -23.25,58.126c-171.586,77.935 -275.191,182.841 -275.191,299.931c0,246.083 457.386,438.875 1041.62,438.875c584.145,0 1041.71,-192.792 1041.71,-438.875c0,-116.996 -103.883,-221.81 -275.191,-299.745Z" style="fill:#0b0b16;fill-rule:nonzero;"/></g></g></svg>