<?xml version="1.0" encoding="UTF-8" standalone="no"?><!DOCTYPE svg PUBLIC "-//W3C//DTD SVG 1.1//EN" "http://www.w3.org/Graphics/SVG/1.1/DTD/svg11.dtd"><svg width="100%" height="100%" viewBox="0 0 2084 2084" version="1.1" xmlns="http://www.w3.org/2000/svg" xmlns:xlink="http://www.w3.org/1999/xlink" xml:space="preserve" xmlns:serif="http://www.serif.com/" style="fill-rule:evenodd;clip-rule:evenodd;stroke-linejoin:round;stroke-miterlimit:2;"><rect id="画板1" x="0" y="0" width="2083.33" height="2083.33" style="fill:none;"/><g id="画板11" serif:id="画板1"><g><path d="M903.925,1874.63c-265.718,107.05 -517.857,136.438 -671.968,143.321l2.697,-1.209c8.463,-3.721 17.206,-7.811 26.227,-11.811l9.766,-4.558l23.438,-10.882l8.556,-3.999c10.51,-4.93 21.205,-10.139 32.273,-15.438l9.115,-4.374c9.858,-4.742 19.81,-9.67 30.134,-14.694l6.975,-3.533c12.37,-5.952 24.926,-12.276 37.761,-18.787l8.649,-4.465c11.719,-5.858 23.624,-11.904 35.715,-18.321l5.952,-3.071c13.858,-7.068 28.088,-14.694 42.411,-22.321l8.277,-4.371c13.207,-7.07 26.693,-14.322 40.272,-21.858l5.487,-2.88c15.16,-8.373 30.599,-17.022 46.317,-25.764l7.906,-4.558c14.508,-8.183 29.203,-16.553 44.084,-25.204l5.209,-2.975c16.183,-9.395 32.645,-19.068 49.293,-29.019l8.184,-4.93c15.625,-9.301 31.251,-18.787 47.061,-28.554l4.651,-2.696c17.206,-10.695 34.598,-21.392 51.99,-32.459l8.278,-5.302c16.369,-10.323 32.738,-20.924 49.386,-31.806l4.464,-2.884c17.764,-11.626 35.714,-23.53 53.85,-35.714l8.371,-5.674c17.02,-11.532 34.04,-23.158 51.06,-35.062l4.279,-2.977c18.229,-12.648 36.644,-25.764 55.059,-39.064l8.743,-6.324c17.113,-12.369 34.412,-25.017 51.711,-37.761l4.464,-3.346c18.508,-13.951 37.017,-27.995 55.525,-42.32l9.207,-7.067c17.113,-13.394 34.32,-26.879 51.526,-40.645l4.836,-3.999c18.601,-14.787 37.11,-29.947 55.618,-45.294l9.3,-7.904c17.02,-14.229 34.134,-28.738 51.154,-43.435l5.115,-4.371c18.322,-15.997 36.551,-32.178 54.781,-48.456l9.765,-8.929c16.648,-15.066 33.296,-30.507 49.851,-46.038l5.488,-5.208c17.95,-16.834 35.807,-34.04 53.478,-51.43l10.138,-10.139c16.183,-15.997 32.273,-31.993 48.084,-48.456l5.859,-5.861c17.299,-17.856 34.598,-36.177 51.712,-54.686l10.23,-11.069c15.439,-16.74 30.785,-33.759 46.038,-50.968l5.953,-6.602c16.648,-19.067 33.11,-38.226 49.386,-57.757l10.323,-12.369c14.509,-17.671 29.018,-35.249 43.248,-53.199l6.139,-7.72c15.81,-19.996 31.249,-40.273 46.596,-60.825l10.137,-13.488c13.672,-18.415 27.065,-36.923 40.272,-55.71l4.743,-6.417c-162.946,584.077 -509.022,985.863 -1030.6,1195.69Zm-703.125,88.076c29.576,-30.319 65.941,-66.965 107.515,-108.259c11.253,14.787 24.553,27.81 39.806,39.061l-3.813,1.862c-26.135,12.928 -50.874,24.738 -74.033,35.62l-3.72,1.769c-23.159,10.788 -44.736,20.739 -64.453,29.481l-1.302,0.466Zm-56.641,-32.087l-17.02,17.671c62.128,-282.18 295.48,-1083.8 1042.97,-1813.62c-175.595,574.311 -460.101,1052.27 -698.01,1384.49c-21.577,0.188 -43.341,3.443 -64.453,10.326c-52.828,17.484 -95.703,54.314 -120.815,104.073c-23.902,47.434 -27.716,99.607 -14.881,147.135c-49.386,60.36 -93.099,111.234 -127.79,149.926Zm954.427,-941.036c-15.346,15.719 -28.552,33.949 -38.969,54.595c-13.858,27.345 -21.391,56.454 -23.252,85.38c-54.687,42.875 -107.143,85.285 -157.924,127.139c-20.275,0.744 -40.644,4.187 -60.454,10.695c-53.943,17.671 -97.842,55.432 -123.326,106.306c-8.928,17.393 -15.067,35.715 -18.787,54.408c-42.411,37.017 -82.961,73.01 -121.652,107.887l-13.206,-5.208c228.422,-322.822 494.884,-774.182 669.363,-1313.52c5.395,306.734 -39.806,561.104 -111.793,772.32Zm-4.278,447.64c-9.952,-65.571 -50.13,-125.653 -113.839,-157.74l-19.624,-8.836c27.343,-21.948 55.245,-44.269 83.612,-66.683c16.276,57.941 55.524,109.187 113.374,138.3c12.835,6.508 26.135,11.626 39.714,15.344c-9.58,7.626 -19.159,15.347 -28.739,22.786l-12.37,9.582c-15.439,11.998 -30.878,23.808 -46.317,35.434l-9.58,7.254l-6.231,4.559Zm-230.283,161.457l-0.651,0.559l-20.926,13.485c-8.464,-2.418 -17.02,-5.395 -25.205,-9.485c-35.714,-18.137 -62.314,-48.831 -74.776,-86.964c-12.556,-37.945 -9.487,-78.496 8.463,-114.301c18.043,-35.624 48.828,-62.128 86.867,-74.685c15.347,-5.024 31.251,-7.627 47.062,-7.627c23.065,0 46.037,5.393 67.243,16.091c55.99,28.272 86.495,87.145 81.659,146.204c-15.625,11.254 -31.25,22.321 -46.875,33.297l-6.138,4.277c-17.579,12.369 -35.157,24.554 -52.549,36.274l-12.462,8.464c-17.3,11.719 -34.599,23.157 -51.712,34.411Zm-183.966,114.861c-1.116,-17.296 -3.999,-34.505 -9.579,-51.43c-11.812,-35.996 -32.831,-67.058 -60.733,-91.331c21.577,-19.346 43.713,-38.97 66.406,-59.06l6.325,24.367c16.462,50.13 50.409,91.331 95.796,117.467c-9.859,6.23 -19.811,12.556 -29.576,18.508l-2.325,1.303c-16.37,10.229 -32.553,19.996 -48.643,29.669l-9.858,5.765l-7.813,4.742Zm-242.187,134.582l-5.022,2.603l-17.951,9.207l-7.44,-3.068c-71.429,-36.18 -100.168,-123.512 -64.174,-194.941c17.392,-34.506 47.34,-60.269 84.077,-72.451c14.881,-4.93 30.227,-7.255 45.48,-7.255c22.415,0 44.643,5.208 65.197,15.625c34.692,17.393 60.361,47.247 72.545,84.077c7.44,22.786 8.742,46.412 4.65,69.382c-8.649,4.93 -17.299,9.951 -25.855,14.697l-7.906,4.556c-15.811,8.742 -31.343,17.486 -46.596,25.763l-5.394,3.068c-14.416,7.814 -28.367,15.441 -42.225,22.786l-5.487,2.884c-14.974,7.998 -29.576,15.625 -43.899,23.067Zm820.22,-862.817c23.995,-0 48.456,5.395 71.242,17.021c37.947,19.065 66.035,51.802 79.427,92.169c8.464,25.76 9.394,52.639 4.557,78.59l-3.069,2.975l-9.021,8.092c-15.253,13.95 -30.506,27.622 -45.852,41.294l-13.114,11.439c-17.485,15.253 -34.877,30.228 -52.27,45.015l-11.16,9.302l-13.114,10.882c-27.251,1.393 -54.502,-3.534 -79.427,-16.184c-78.218,-39.433 -109.654,-135.138 -70.313,-213.357c27.902,-55.338 83.985,-87.238 142.114,-87.238Zm292.969,41.573l8.742,3.627c-10.417,10.698 -20.833,21.577 -31.436,32.181l-5.58,5.58c-14.974,14.881 -30.134,29.763 -45.294,44.363c-1.86,-12.741 -4.744,-25.483 -8.836,-37.946c-16.555,-50.314 -49.851,-92.168 -94.587,-119.513c23.158,-16.556 46.596,-33.018 70.312,-49.477c18.788,52.92 56.455,95.887 106.679,121.185Zm-39.807,-263.393c27.065,-53.758 81.473,-84.727 137.928,-84.727c23.344,0 46.968,5.208 69.196,16.462c31.622,15.903 55.711,42.129 70.127,73.938c-9.487,12.092 -18.881,24.183 -28.46,36.087l-7.348,9.207c-15.625,19.159 -31.529,38.039 -47.526,56.826l-12.741,14.791c-15.161,17.577 -30.414,34.877 -45.852,51.989l-4.186,4.743c-11.626,12.835 -23.437,25.392 -35.249,37.945c-9.487,-2.509 -18.787,-5.673 -27.623,-10.135c-36.83,-18.696 -64.174,-50.318 -77.009,-89.566c-12.928,-38.97 -9.858,-80.915 8.743,-117.56Zm319.475,-49.478c-9.858,-15.159 -21.949,-28.369 -35.342,-40.645c37.947,-23.623 75.707,-47.246 114.583,-70.313l-6.417,9.488c-12.277,17.95 -24.74,35.806 -37.388,53.386l-8.743,12.37c-8.743,12.091 -17.764,23.901 -26.693,35.714Zm207.032,-212.334l-1.954,-5.952l-2.79,-4.093l-2.604,-3.718l-0.93,-0.744l-3.906,-2.884l-5.022,-3.071l-1.302,-0.744l-3.256,-0.743l-5.766,-1.116l-4.743,0l-5.674,0.931l-4.557,1.672l-3.069,1.118c-86.961,49.384 -171.689,100.446 -254.651,152.435c-105.189,-47.247 -230.282,-3.718 -282.645,100.17c-16.369,32.459 -24.181,67.708 -23.344,103.048c-43.062,29.763 -85.473,59.525 -126.953,89.566c-41.574,-9.114 -84.078,-5.674 -122.954,8.464c73.288,-245.909 111.049,-544.551 82.868,-906.996l-1.302,-4.649l-1.209,-4.743l-4.465,-7.255l-1.395,-2.418l-0.372,-0.187l-9.393,-6.88l-3.72,-1.025l-6.697,-1.859l-0.837,0.094l-3.534,0.278l-8.65,1.303l-1.953,0.837l-8.184,4.927l-1.116,0.744c-1015.07,934.99 -1165.83,2026.69 -1167.23,2037.58l-0,0.743l0.186,4.184l-0.093,2.884l0.558,1.862l0.093,0.462l0.093,1.209l1.395,3.909l1.581,4.277l3.534,4.837l1.953,1.581l0.744,0.743l1.302,1.116l4,3.443l0.093,0.093l10.602,3.534l1.209,0.556l4,0.188l0.186,-0l2.325,-0.279c10.788,0.744 37.946,2.231 78.776,2.231c140.811,0 441.127,-18.043 768.043,-149.088c408.761,-163.876 933.687,-542.783 1113.47,-1417.6l0.093,-0.094l0.093,-0.466l-0,-2.043l0.186,-8.373l-1.116,-3.999Z" style="fill:#0b0b16;fill-rule:nonzero;"/></g></g></svg>