<?xml version="1.0" encoding="UTF-8" standalone="no"?><!DOCTYPE svg PUBLIC "-//W3C//DTD SVG 1.1//EN" "http://www.w3.org/Graphics/SVG/1.1/DTD/svg11.dtd"><svg width="100%" height="100%" viewBox="0 0 2084 2084" version="1.1" xmlns="http://www.w3.org/2000/svg" xmlns:xlink="http://www.w3.org/1999/xlink" xml:space="preserve" xmlns:serif="http://www.serif.com/" style="fill-rule:evenodd;clip-rule:evenodd;stroke-linejoin:round;stroke-miterlimit:2;"><rect id="画板1" x="0" y="0" width="2083.33" height="2083.33" style="fill:none;"/><clipPath id="_clip1"><rect id="画板11" serif:id="画板1" x="0" y="0" width="2083.33" height="2083.33"/></clipPath><g clip-path="url(#_clip1)"><g><path d="M1669.67,1855.75c-106.122,106.027 -247.308,164.528 -397.329,164.528c-150.114,0 -291.3,-58.501 -397.422,-164.528c-143.417,-143.511 -192.525,-270.374 -164.158,-424.302c19.812,-107.795 -44.829,-171.786 -72.452,-199.128l-3.348,-3.349c-97.844,-97.657 -125.003,-288.046 -21.485,-406.165c29.948,25.298 52.642,49.2 67.151,66.316l-22.787,11.81c-16.183,6.699 -23.902,25.114 -17.207,41.202c4.931,12.185 16.743,19.627 29.112,19.627l12.092,-2.327c23.066,-9.673 43.713,-22.509 62.035,-38.134l0.094,0l0.185,-0.184c53.851,-46.132 84.544,-115.144 81.288,-187.318c82.219,1.303 163.881,33.39 217.638,87.243l3.349,3.252c27.251,27.626 91.241,92.264 199.036,72.455c153.834,-28.369 280.79,20.74 424.208,164.251c106.214,106.03 164.622,247.213 164.622,397.235c0,150.206 -58.408,291.298 -164.622,397.516Zm-1309.73,-1522.26c53.107,-127.048 212.893,-270.281 490.706,-270.281l4.093,0c-11.068,119.981 -74.499,540.558 -414.349,575.252c13.301,-73.29 63.246,-246.47 247.121,-376.308c14.138,-10.139 17.672,-29.763 7.534,-44.085c-10.044,-14.138 -29.763,-17.488 -43.993,-7.536c-183.225,129.466 -246.004,296.509 -267.396,389.795c-53.294,-77.288 -63.059,-173.18 -23.716,-266.837Zm402.535,405.605c1.117,39.436 -11.44,77.476 -34.692,107.983c-15.252,-17.766 -37.574,-41.483 -66.5,-66.594c30.879,-20.927 65.385,-34.506 101.192,-41.389Zm951.84,277.163c-106.122,-106.123 -256.516,-222.848 -480.291,-181.644c-75.15,13.857 -117.376,-29.019 -142.767,-54.689l-3.627,-3.628c-114.307,-114.213 -333.803,-148.347 -478.245,-36.271c-26.507,-18.603 -56.455,-36.368 -89.752,-51.806c378.82,-100.262 400.305,-648.728 400.491,-654.868c0.465,-17.206 -13.021,-31.622 -30.228,-32.459c-333.153,-14.788 -524.842,156.905 -588.273,308.226c-48.829,116.819 -35.9,236.519 33.11,332.038c-38.597,-2.137 -79.521,-0.184 -122.769,7.442c-17.206,3.069 -28.646,19.437 -25.578,36.644c3.07,17.115 19.533,28.741 36.553,25.485c143.51,-25.392 258.747,19.997 340.036,74.127c-122.213,144.067 -89.753,371.658 27.343,488.846l3.628,3.537c25.578,25.295 68.454,67.8 54.782,142.857c-41.204,223.593 75.429,374.077 181.55,480.198c118.026,118.121 275.023,183.04 442.065,183.04c166.949,0 323.946,-64.919 441.972,-183.04c118.027,-117.931 183.132,-275.024 183.132,-442.064c-0,-166.947 -65.105,-323.852 -183.132,-441.971Z" style="fill:#0b0b16;fill-rule:nonzero;"/><path d="M1570.06,1123.68c-50.13,-50.319 -102.959,-84.731 -156.904,-102.403c-16.555,-5.392 -34.32,3.534 -39.714,20.09c-5.487,16.647 3.535,34.506 20.09,39.899c43.807,14.416 89.38,44.46 131.884,86.962c159.973,159.973 159.973,420.209 0,580.091c-12.277,12.37 -12.277,32.366 0,44.736l22.415,9.207l22.229,-9.207c184.527,-184.622 184.527,-484.85 -0,-669.375Z" style="fill:#0b0b16;fill-rule:nonzero;"/></g></g></svg>