<?xml version="1.0" encoding="UTF-8" standalone="no"?><!DOCTYPE svg PUBLIC "-//W3C//DTD SVG 1.1//EN" "http://www.w3.org/Graphics/SVG/1.1/DTD/svg11.dtd"><svg width="100%" height="100%" viewBox="0 0 2084 2084" version="1.1" xmlns="http://www.w3.org/2000/svg" xmlns:xlink="http://www.w3.org/1999/xlink" xml:space="preserve" xmlns:serif="http://www.serif.com/" style="fill-rule:evenodd;clip-rule:evenodd;stroke-linejoin:round;stroke-miterlimit:2;"><rect id="画板1" x="0" y="0" width="2083.33" height="2083.33" style="fill:none;"/><g id="画板11" serif:id="画板1"><g><path d="M96.341,2020.07l58.873,-75.243l1773,0l58.777,75.243l-1890.65,0Zm134.492,-319.665c18.784,-68.453 81.381,-116.166 152.249,-116.166l1317.07,-0c70.965,-0 133.556,47.713 152.346,116.166l49.666,181.271l-1721,-0l49.665,-181.271Zm265.721,-711.504l21.855,-21.113c81.381,-82.218 169.83,-202.383 249.071,-338.452c80.638,-138.395 149.649,-290.927 178.76,-411.464c109.004,232.518 331.945,641.563 624.17,828.786c57.573,36.831 85.383,75.522 76.454,106.121c-5.955,20.276 -27.158,40.365 -64.175,57.293c2.509,-23.252 -6.881,-54.038 -52.362,-86.311c-241.073,-170.761 -757.636,-156.81 -1033.77,-134.86Zm232.052,-419.183l-204.06,-118.398c47.712,-79.428 94.216,-146.207 137.189,-200.616l129.372,199.779c-18.137,37.482 -38.971,77.382 -62.501,119.235Zm-105.098,168.808l-238.564,-11.533c26.136,-64.919 61.757,-139.139 107.886,-220.985l204.06,118.212c-23.995,39.9 -48.552,78.312 -73.382,114.306Zm-243.957,261.257c-21.951,2.511 -39.157,4.464 -50.409,5.952c-14.328,-23.252 -7.816,-100.262 32.46,-216.613l217.446,10.416c-35.622,47.248 -71.243,89.194 -105.564,123.793c-40.64,41.109 -71.612,64.082 -93.933,76.452Zm498.052,-937.419l0.743,0.093c4.371,11.161 11.348,28.182 20.646,49.852c-1.209,53.107 -23.342,146.579 -76.635,270.186l-118.308,-182.666c81.29,-93.1 145.374,-137.465 173.554,-137.465Zm1199.04,1969.8l-104.349,-133.372l-58.97,-215.125c-26.226,-95.705 -113.841,-162.577 -213.172,-162.577l-629.285,0l2.419,-11.626l-0,-89.565l567.993,-0c17.485,-0 31.529,-14.044 31.529,-31.623c-0,-17.392 -14.044,-31.622 -31.529,-31.622l-199.036,-0l-0,-48.271c147.606,-16.741 244.053,-65.57 265.164,-137.836c10.23,-34.971 10.508,-104.354 -102.867,-176.993c-321.057,-205.732 -563.623,-713.364 -644.073,-898.634c-2.509,-35.715 -13.953,-62.78 -35.156,-79.242l-2.327,-1.767l-4.837,-3.999l-3.343,-1.675c-108.545,-55.99 -314.461,186.758 -461.039,438.436c-145.647,250.189 -254.282,546.323 -155.321,615.706l2.697,2.233l1.953,1.581c11.535,6.696 24.37,10.23 38.414,10.23c16.831,0 35.434,-5.022 55.711,-14.788c214.659,-22.042 840.226,-67.988 1096.64,113.748c23.53,16.648 26.323,27.065 25.858,28.739c-3.815,11.719 -39.993,31.716 -108.914,41.667l-0.09,0l-0.557,0.093c-25.301,3.628 -54.598,5.953 -88.636,5.953c-17.484,-0 -31.625,14.137 -31.625,31.529c0,17.579 14.141,31.53 31.625,31.53l0.188,-0c19.715,-0 38.874,-0.559 57.476,-1.488l0,43.248l-937.047,-0c-17.484,-0 -31.619,14.23 -31.619,31.622c-0,17.579 14.135,31.623 31.619,31.623l567.903,-0l-0,89.565l2.418,11.626l-629.382,0c-99.24,0 -186.848,66.872 -213.08,162.577l-59.055,215.125l-104.264,133.372c-7.442,9.58 -8.742,22.415 -3.531,33.297c5.297,10.881 16.366,17.764 28.367,17.764l2020.21,-0c12.086,-0 23.155,-6.883 28.457,-17.764c5.211,-10.882 3.906,-23.81 -3.536,-33.297Z" style="fill:#0b0b16;fill-rule:nonzero;"/></g></g></svg>