<?xml version="1.0" encoding="UTF-8" standalone="no"?><!DOCTYPE svg PUBLIC "-//W3C//DTD SVG 1.1//EN" "http://www.w3.org/Graphics/SVG/1.1/DTD/svg11.dtd"><svg width="100%" height="100%" viewBox="0 0 2084 2084" version="1.1" xmlns="http://www.w3.org/2000/svg" xmlns:xlink="http://www.w3.org/1999/xlink" xml:space="preserve" xmlns:serif="http://www.serif.com/" style="fill-rule:evenodd;clip-rule:evenodd;stroke-linejoin:round;stroke-miterlimit:2;"><rect id="画板1" x="0" y="0" width="2083.33" height="2083.33" style="fill:none;"/><clipPath id="_clip1"><rect id="画板11" serif:id="画板1" x="0" y="0" width="2083.33" height="2083.33"/></clipPath><g clip-path="url(#_clip1)"><g><path d="M2020.27,1904.29c0,63.991 -51.898,115.891 -115.888,115.891l-29.395,-0l0,-391.666c0,-17.393 -14.226,-31.531 -31.62,-31.531l-1603.31,0c-17.485,0 -31.621,14.138 -31.621,31.531l0,391.666l-29.576,-0c-63.808,-0 -115.797,-51.9 -115.797,-115.891l-0,-462.818l1957.21,-0l0,462.818Zm-1748.68,115.891l-0,-360.043l107.145,0l0,212.622c0,17.579 14.045,31.623 31.53,31.623c17.394,-0 31.626,-14.044 31.626,-31.623l-0,-212.622l94.685,0l-0,212.622c-0,17.579 14.135,31.623 31.529,31.623c17.485,-0 31.529,-14.044 31.529,-31.623l0,-212.622l157.932,0l-0,212.622c-0,17.579 14.044,31.623 31.529,31.623c17.485,-0 31.529,-14.044 31.529,-31.623l0,-212.622l94.782,0l-0,212.622c-0,17.579 14.135,31.623 31.529,31.623c17.576,-0 31.621,-14.044 31.621,-31.623l-0,-212.622l94.781,0l-0,212.622c-0,17.579 14.044,31.623 31.529,31.623c17.394,-0 31.439,-14.044 31.439,-31.623l-0,-212.622l189.551,0l0,212.622c0,17.579 14.141,31.623 31.53,31.623c17.49,-0 31.626,-14.044 31.626,-31.623l-0,-212.622l94.685,0l-0,212.622c-0,17.579 14.044,31.623 31.529,31.623c17.485,-0 31.529,-14.044 31.529,-31.623l0,-212.622l94.776,0l0,212.622c0,17.579 14.141,31.623 31.626,31.623c17.394,-0 31.626,-14.044 31.626,-31.623l-0,-212.622l106.958,0l0,360.043l-1540.15,-0Zm-208.529,-1231.08c-0,-400.408 325.717,-726.13 726.034,-726.13l66.596,0c360.227,0 669.396,269.171 719.063,626.052l6.602,47.248c18.603,133.47 134.679,234.2 270.197,234.2l5.115,-0c90.217,-0 163.602,73.478 163.602,163.791l0,243.966l-1957.21,-0l-0,-589.127Zm1793.61,118.217l-5.115,-0c-104.08,-0 -193.275,-77.292 -207.694,-179.79l-6.512,-47.248c-54.038,-387.853 -390.082,-680.277 -781.656,-680.277l-66.596,0c-435.196,0 -789.099,353.904 -789.099,789.098l-0,1115.19c-0,98.777 80.271,179.045 178.862,179.045l1725.52,-0c98.682,-0 178.947,-80.268 178.947,-179.045l0,-770.031c0,-125.192 -101.752,-226.944 -226.661,-226.944Z" style="fill:#0b0b16;fill-rule:nonzero;"/></g></g></svg>