<?xml version="1.0" encoding="UTF-8" standalone="no"?><!DOCTYPE svg PUBLIC "-//W3C//DTD SVG 1.1//EN" "http://www.w3.org/Graphics/SVG/1.1/DTD/svg11.dtd"><svg width="100%" height="100%" viewBox="0 0 2084 2084" version="1.1" xmlns="http://www.w3.org/2000/svg" xmlns:xlink="http://www.w3.org/1999/xlink" xml:space="preserve" xmlns:serif="http://www.serif.com/" style="fill-rule:evenodd;clip-rule:evenodd;stroke-linejoin:round;stroke-miterlimit:2;"><rect id="画板1" x="0" y="0" width="2083.33" height="2083.33" style="fill:none;"/><clipPath id="_clip1"><rect id="画板11" serif:id="画板1" x="0" y="0" width="2083.33" height="2083.33"/></clipPath><g clip-path="url(#_clip1)"><g><path d="M1470.71,1214.47l213.356,-0c17.387,-0 31.528,-14.044 31.528,-31.528c-0,-17.393 -14.141,-31.437 -31.528,-31.437l-213.356,-0c-17.394,-0 -31.528,14.044 -31.528,31.437c-0,17.484 14.134,31.528 31.528,31.528Z" style="fill:#0b0b16;fill-rule:nonzero;"/><path d="M1954.44,1783.85c-18.415,44.181 -53.014,78.496 -97.286,96.633c-45.572,18.693 -93.84,16.371 -135.882,-1.209c3.259,-12.182 6.046,-24.364 7.721,-37.108c2.974,-23.161 2.793,-46.225 0.091,-68.824l235.029,-96.264c7.72,35.621 4.649,72.456 -9.673,106.772Zm-705.077,-35.712c25.948,-91.428 109.934,-155.137 205.08,-155.137c9.111,0 18.318,0.562 27.622,1.675c56.545,7.346 106.953,36.461 141.74,81.567c28.275,36.74 43.341,80.728 44.084,126.3l-418.526,-54.405Zm335.472,227.582c-45.203,34.877 -101.379,49.852 -157.833,42.693c-56.545,-7.351 -106.863,-36.364 -141.649,-81.567c-28.27,-36.739 -43.341,-80.636 -44.085,-126.208l418.436,54.404c-12.37,43.716 -38.039,82.408 -74.869,110.678Zm-490.234,-294.731l0,-833.891l69.845,0c17.394,0 31.528,-14.14 31.528,-31.624l0,-270.554c0,-17.484 -14.134,-31.528 -31.528,-31.528l-300.685,0c42.314,-74.778 118.488,-128.258 209.632,-137.834c16.094,-1.771 28.276,-15.253 28.276,-31.437l-0,-69.289l473.215,-0l-0,69.289c-0,16.184 12.091,29.666 28.178,31.437c140.162,14.878 245.906,132.441 245.906,273.341l0,35.064l-544.916,0c-17.49,0 -31.534,14.232 -31.534,31.625l0,651.222c0,17.49 14.044,31.625 31.534,31.625l544.916,-0l0,81.749c-48.824,-12.551 -101.748,-10.417 -151.781,10.139c-40.832,16.836 -74.869,44.362 -100.727,78.683c-32.18,-19.068 -67.988,-31.993 -106.306,-36.921c-118.766,-15.44 -230.096,47.713 -281.81,148.904l-113.743,0Zm-63.152,339.19l-815.289,-0l0,-318.357l525.764,0c17.387,0 31.528,-14.231 31.528,-31.533l-0,-557.383c-0,-17.484 -14.141,-31.624 -31.528,-31.624l-525.764,-0l0,-234.184l815.289,0l-0,1173.08Zm-613.746,-591.238l-201.543,0l0,-126.021l309.711,0c17.388,0 31.528,-14.14 31.528,-31.624c0,-17.394 -14.14,-31.528 -31.528,-31.528l-309.711,-0l0,-95.425l494.139,0l0,494.23l-494.139,0l0,-146.389l201.543,0c17.393,0 31.625,-14.231 31.625,-31.624c-0,-17.484 -14.232,-31.619 -31.625,-31.619Zm-302.922,-644.995l0,-207.498l1018.05,0l-0,207.498l-1018.05,-0Zm910.253,-572.176l0,-148.716l108.072,-0l-0,148.716l-108.072,0Zm171.128,-148.716l110.586,-0l0,148.716l-110.586,0l-0,-148.716Zm173.642,-0l110.49,-0l-0,148.716l-110.49,0l0,-148.716Zm173.552,-0l108.071,-0l0,148.716l-108.071,0l-0,-148.716Zm-72.638,867.933l378.25,0l0,78.588l-378.25,-0c-17.394,-0 -31.528,14.231 -31.528,31.715c-0,17.393 14.134,31.437 31.528,31.437l378.25,0l0,262.556l-513.388,-0l-0,-588.076l513.388,-0l0,120.725l-378.25,-0c-17.394,-0 -31.528,14.043 -31.528,31.527c-0,17.485 14.134,31.528 31.528,31.528Zm203.121,706.661c-8.368,-10.7 -17.575,-20.555 -27.157,-29.859c18.977,-25.761 44.084,-46.594 74.5,-58.963c22.133,-9.117 45.106,-13.3 67.705,-13.3c60.456,-0 118.028,30.784 151.231,83.054l-225.726,92.631c-9.673,-26.135 -23.16,-50.874 -40.553,-73.563Zm339.473,-14.975c-20.833,-51.061 -57.476,-90.962 -101.844,-116.819l0.653,-11.251l-0,-845.704c-0,-163.691 -115.98,-301.707 -274.181,-331.844l-0,-42.223l45.106,-0c17.393,-0 31.534,-14.141 31.534,-31.528l-0,-211.778c-0,-17.393 -14.141,-31.528 -31.534,-31.528l-689.545,0c-17.484,0 -31.619,14.135 -31.619,31.528l-0,211.778c-0,17.387 14.135,31.528 31.619,31.528l45.015,-0l0,42.223c-111.511,21.208 -201.446,96.542 -245.071,196.337l-710.192,0c-17.484,0 -31.528,14.044 -31.528,31.528l0,270.554c0,17.484 14.044,31.624 31.528,31.624l69.755,0l-0,1204.61c-0,17.58 14.14,31.624 31.528,31.624l878.537,0c17.388,0 31.528,-14.044 31.528,-31.624l0,-307.571l90.401,-0c-2.044,8.742 -3.628,17.671 -4.928,26.879c-9.485,73.194 10.139,145.832 55.245,204.426c45.107,58.504 110.303,95.986 183.594,105.563c12.091,1.487 24.182,2.327 36.177,2.327c60.734,0 119.419,-19.902 168.34,-57.572c30.972,-23.904 55.898,-53.48 74.035,-86.96c29.575,12.182 60.547,18.324 91.609,18.324c31.159,-0 62.312,-6.142 91.984,-18.324c59.894,-24.37 106.675,-70.873 131.601,-130.58c25.023,-59.712 25.301,-125.561 0.653,-185.546Z" style="fill:#0b0b16;fill-rule:nonzero;"/></g></g></svg>