<?xml version="1.0" encoding="UTF-8" standalone="no"?><!DOCTYPE svg PUBLIC "-//W3C//DTD SVG 1.1//EN" "http://www.w3.org/Graphics/SVG/1.1/DTD/svg11.dtd"><svg width="100%" height="100%" viewBox="0 0 2084 2084" version="1.1" xmlns="http://www.w3.org/2000/svg" xmlns:xlink="http://www.w3.org/1999/xlink" xml:space="preserve" xmlns:serif="http://www.serif.com/" style="fill-rule:evenodd;clip-rule:evenodd;stroke-linejoin:round;stroke-miterlimit:2;"><rect id="画板1" x="0" y="0" width="2083.33" height="2083.33" style="fill:none;"/><g id="画板11" serif:id="画板1"><g><path d="M1767.61,810.82c-48.361,-16.74 -101.56,-29.203 -158.57,-32.643c28.273,-51.06 54.778,-113.836 72.171,-186.938c132.808,-39.9 247.11,19.436 305.887,61.661c-81.936,34.32 -160.71,100.445 -219.488,157.92Zm129.926,131.972c-158.012,-11.719 -265.245,48.642 -303.191,74.402c-77.193,-26.132 -155.502,-71.146 -228.138,-128.252c222.372,-106.766 420.19,-20.089 531.329,53.85Zm-647.77,843.544c-157.082,156.989 -334.348,238.832 -512.077,233.624c-164.337,-3.815 -323.374,-78.029 -459.81,-214.56c-136.529,-136.434 -210.653,-295.566 -214.56,-459.81c-4.185,-177.915 76.636,-354.993 233.718,-511.985c204.981,-204.887 472.831,-316.583 709.99,-321.326c81.844,235.671 326.256,480.455 562.02,562.952c-3.441,237.345 -113.742,505.474 -319.281,711.105Zm-109.279,-1600.13c73.752,111.234 159.78,308.773 53.663,530.772c-57.011,-72.449 -102.025,-150.572 -128.344,-227.766c25.669,-37.667 86.12,-144.62 74.681,-303.006Zm289.985,-90.026c42.131,58.871 102.025,173.079 62.22,305.611c-73.658,17.484 -136.808,44.174 -188.146,72.727c-3.442,-56.918 -15.811,-109.931 -32.366,-158.292c57.663,-58.777 123.881,-138.018 158.292,-220.046Zm207.491,349.135c-5.394,143.411 -55.244,256.598 -103.048,333.417c-70.311,5.49 -144.714,25.204 -221.348,66.126c-26.32,-23.807 -51.524,-48.92 -75.426,-75.333c40.828,-76.448 60.359,-150.665 65.846,-220.79c76.915,-47.898 190.193,-98.027 333.976,-103.42Zm224.418,-224.417c-4.558,121.741 -41.201,221.162 -81.378,295.751c-27.809,-1.115 -56.64,0.65 -86.68,6.883c4.929,-34.877 7.534,-71.799 7.161,-110.49c-0.186,-17.206 -14.043,-31.062 -31.249,-31.34l-6.881,-0c-36.365,-0 -70.776,2.696 -103.514,7.345c6.232,-30.318 8.556,-59.521 7.441,-87.608c74.309,-39.9 173.73,-75.985 295.1,-80.541Zm211.677,422.05c-1.489,-1.581 -92.632,-89.47 -225.348,-117.929c42.688,-85.936 78.494,-198.842 77.193,-336.485c-0.186,-17.021 -14.044,-31.065 -31.343,-31.252l-6.883,-0c-134.203,-0 -244.598,35.251 -328.952,77.194c-28.739,-132.531 -116.906,-223.767 -118.395,-225.16c-8.184,-8.186 -20.275,-11.348 -31.341,-7.998c-11.068,3.252 -19.531,12.459 -21.856,23.807c-16.276,78.403 -80.355,162.106 -140.808,226.651c-57.196,-124.719 -135.506,-203.772 -137.087,-205.447c-10.323,-9.951 -26.135,-11.997 -38.41,-4.555c-12.371,7.439 -18.043,22.133 -14.044,35.992c58.127,199.119 -13.951,332.208 -40.922,372.758c-256.411,2.14 -544.535,119.51 -763.466,338.347c-169.545,169.639 -256.783,362.619 -252.226,558.206c4.278,180.986 84.819,354.808 233.068,503.058c148.153,148.154 322.071,228.695 502.962,232.972l14.788,0.187c190.471,0 378.059,-87.145 543.327,-252.41c218.93,-218.747 335.278,-506.499 337.231,-762.631c39.155,-26.319 173.08,-100.442 374.06,-41.759c13.858,3.999 28.459,-1.674 35.9,-13.95c7.44,-12.369 5.58,-28.087 -4.465,-38.316c-1.673,-1.675 -80.633,-80.169 -205.259,-137.553c64.545,-60.454 147.969,-124.252 226.372,-140.53c11.345,-2.324 20.46,-10.788 23.902,-21.854c3.254,-11.069 0.186,-23.067 -7.998,-31.343Z" style="fill:#0b0b16;fill-rule:nonzero;"/><path d="M288.016,1603.96c-16.089,6.695 -23.809,25.203 -17.112,41.2c6.696,16.183 25.11,23.81 41.294,17.111c53.941,-22.32 97.095,-24.925 115.137,-6.789c18.137,18.043 15.533,61.105 -6.882,115.233c-6.603,16.09 1.117,34.505 17.113,41.2l12.091,2.418c12.369,0 24.18,-7.254 29.203,-19.439c45.106,-109 15.066,-162.01 -6.883,-184.052c-21.948,-21.951 -74.961,-51.99 -183.961,-6.882Z" style="fill:#0b0b16;fill-rule:nonzero;"/><path d="M619.946,1571.22c-6.603,15.996 1.023,34.598 17.113,41.293l12.091,2.328c12.369,-0 24.18,-7.349 29.109,-19.533c45.2,-109.094 15.16,-162.013 -6.789,-183.961c-21.948,-21.948 -74.961,-51.988 -183.961,-6.789c-16.09,6.695 -23.809,25.019 -17.113,41.2c6.603,16.184 25.019,23.81 41.201,17.021c54.035,-22.32 97.095,-24.832 115.232,-6.883c18.042,18.23 15.53,61.195 -6.883,115.324Z" style="fill:#0b0b16;fill-rule:nonzero;"/><path d="M836.552,1412.92l12.09,2.512c12.37,-0 24.181,-7.439 29.11,-19.53c45.2,-109.094 15.067,-162.107 -6.789,-184.055c-21.95,-21.857 -74.961,-51.991 -183.961,-6.789c-16.184,6.602 -23.81,25.11 -17.113,41.2c6.697,16.184 25.111,23.717 41.2,17.112c54.128,-22.32 97.19,-25.016 115.233,-6.883c18.042,18.137 15.53,61.198 -6.791,115.233c-6.695,16.09 0.931,34.598 17.021,41.2Z" style="fill:#0b0b16;fill-rule:nonzero;"/><path d="M869.382,1046.77c6.603,16.087 25.11,23.713 41.2,17.111c54.036,-22.413 97.096,-25.019 115.231,-6.882c18.043,18.23 15.533,61.195 -6.881,115.139c-6.697,16.183 1.023,34.689 17.112,41.293l12.091,2.418c12.369,0 24.088,-7.348 29.11,-19.53c45.199,-109.002 15.067,-162.012 -6.789,-183.963c-21.95,-21.948 -75.055,-51.988 -184.054,-6.789c-15.997,6.604 -23.717,25.113 -17.02,41.203Z" style="fill:#0b0b16;fill-rule:nonzero;"/><path d="M295.828,1446.5c-6.695,16.184 1.023,34.692 17.113,41.203l11.998,2.418c12.462,0 24.18,-7.348 29.202,-19.532c45.107,-108.907 15.161,-162.01 -6.881,-183.961c-21.856,-21.761 -74.869,-51.988 -183.962,-6.696c-16.089,6.511 -23.809,25.02 -17.02,41.107c6.604,16.09 25.112,23.716 41.202,17.208c54.034,-22.507 97.095,-24.925 115.137,-6.976c18.137,18.136 15.533,61.289 -6.789,115.229Z" style="fill:#0b0b16;fill-rule:nonzero;"/><path d="M612.134,1728.67c-16.09,6.602 -23.715,25.11 -17.02,41.2c6.603,16.09 25.018,23.716 41.201,17.205c54.035,-22.413 97.095,-25.11 115.138,-6.883c18.136,18.043 15.532,61.196 -6.789,115.14c-6.697,16.18 1.023,34.689 17.113,41.199l12.09,2.512c12.276,0 24.088,-7.348 29.11,-19.53c45.107,-109.002 15.067,-162.106 -6.883,-184.054c-21.856,-21.857 -74.961,-51.897 -183.96,-6.789Z" style="fill:#0b0b16;fill-rule:nonzero;"/><path d="M836.552,1554.2c-16.09,6.511 -23.716,25.017 -17.021,41.2c6.605,15.997 25.019,23.623 41.201,17.112c54.035,-22.413 97.097,-24.922 115.138,-6.88c18.136,18.043 15.532,61.196 -6.789,115.136c-6.695,16.184 1.023,34.692 17.113,41.203l12.091,2.509c12.369,0 24.087,-7.345 29.109,-19.53c45.201,-109 15.067,-162.012 -6.881,-184.054c-21.856,-21.764 -74.869,-51.895 -183.961,-6.696Z" style="fill:#0b0b16;fill-rule:nonzero;"/><path d="M1061.06,1379.54c-16.182,6.695 -23.808,25.11 -17.111,41.293c6.603,16.087 25.111,23.714 41.2,17.112c54.035,-22.414 97.188,-24.925 115.231,-6.883c18.043,18.137 15.532,61.196 -6.881,115.139c-6.604,16.181 1.023,34.689 17.111,41.2l12.091,2.603c12.369,-0 24.088,-7.439 29.111,-19.624c45.199,-109 15.067,-162.01 -6.789,-184.051c-21.95,-21.764 -74.961,-51.898 -183.963,-6.789Z" style="fill:#0b0b16;fill-rule:nonzero;"/><path d="M1193.5,1171.49c6.695,16.183 25.203,23.716 41.293,17.021c54.035,-22.32 97.095,-24.832 115.138,-6.883c18.136,18.136 15.624,61.198 -6.789,115.233c-6.696,16.09 0.931,34.595 17.019,41.387l12.091,2.325c12.463,-0 24.181,-7.349 29.203,-19.533c45.107,-109 15.067,-162.104 -6.881,-183.961c-21.95,-21.948 -74.961,-51.895 -183.963,-6.88c-16.088,6.695 -23.715,25.11 -17.111,41.291Z" style="fill:#0b0b16;fill-rule:nonzero;"/><path d="M361.954,1113.73c54.036,-22.416 97.188,-24.925 115.231,-6.883c18.136,18.134 15.532,61.196 -6.789,115.324c-6.696,15.996 0.931,34.505 17.113,41.2l11.997,2.324c12.369,0 24.181,-7.251 29.203,-19.436c45.107,-109 15.067,-162.197 -6.881,-183.961c-21.95,-21.948 -74.961,-51.988 -183.961,-6.882c-16.09,6.695 -23.81,25.11 -17.021,41.2c6.603,16.183 25.019,23.81 41.108,17.114Z" style="fill:#0b0b16;fill-rule:nonzero;"/><path d="M536.521,889.314c54.036,-22.32 97.097,-25.016 115.233,-6.88c18.043,18.134 15.531,61.196 -6.883,115.23c-6.603,16.09 1.023,34.692 17.112,41.2l12.091,2.418c12.369,0 24.182,-7.345 29.203,-19.53c45.106,-109 15.066,-162.012 -6.882,-183.96c-21.949,-21.858 -74.961,-51.898 -183.96,-6.696c-16.09,6.508 -23.811,25.016 -17.114,41.106c6.697,16.09 25.112,23.811 41.2,17.112Z" style="fill:#0b0b16;fill-rule:nonzero;"/><path d="M785.958,739.674c54.034,-22.323 97.002,-24.832 115.139,-6.883c18.135,18.136 15.53,61.195 -6.791,115.23c-6.695,16.09 0.931,34.598 17.021,41.293l12.09,2.418c12.369,0 24.181,-7.345 29.202,-19.53c45.107,-108.999 15.067,-162.106 -6.881,-183.96c-21.856,-21.948 -74.961,-52.082 -183.961,-6.883c-16.09,6.695 -23.81,25.11 -17.113,41.294c6.697,15.996 25.204,23.716 41.294,17.021Z" style="fill:#0b0b16;fill-rule:nonzero;"/></g></g></svg>