<?xml version="1.0" encoding="UTF-8" standalone="no"?><!DOCTYPE svg PUBLIC "-//W3C//DTD SVG 1.1//EN" "http://www.w3.org/Graphics/SVG/1.1/DTD/svg11.dtd"><svg width="100%" height="100%" viewBox="0 0 2084 2084" version="1.1" xmlns="http://www.w3.org/2000/svg" xmlns:xlink="http://www.w3.org/1999/xlink" xml:space="preserve" xmlns:serif="http://www.serif.com/" style="fill-rule:evenodd;clip-rule:evenodd;stroke-linejoin:round;stroke-miterlimit:2;"><rect id="画板1" x="0" y="0" width="2083.33" height="2083.33" style="fill:none;"/><clipPath id="_clip1"><rect id="画板11" serif:id="画板1" x="0" y="0" width="2083.33" height="2083.33"/></clipPath><g clip-path="url(#_clip1)"><g><path d="M1633.58,1765.83l-42.318,-73.193l7.624,-5.208l17.767,-12.183l21.11,-14.974l16.831,-13.206l19.629,-16.276l16.365,-14.229l18.51,-17.483l15.065,-14.881l17.671,-18.88l13.578,-15.438l17.109,-20.553l12.187,-15.624l16.643,-23.438l10.234,-14.321c7.436,-11.254 14.691,-22.879 21.389,-34.596l5.858,-9.767c6.511,-11.625 12.834,-23.436 18.692,-35.433l7.255,-15.624c4.189,-8.65 8.372,-17.577 12.187,-26.506l7.067,-17.949c3.44,-8.37 6.511,-16.833 9.673,-25.297l6.323,-19.251c2.696,-8.37 5.302,-16.74 7.623,-25.203l5.302,-19.903c2.14,-8.463 4.093,-17.019 5.955,-25.483l4.183,-20.366c1.487,-8.556 2.884,-17.299 4.184,-25.949l2.883,-20.552c0.931,-8.743 1.862,-17.671 2.515,-26.32l1.674,-20.833l0.744,-9.393l84.442,0c-10.507,271.566 -155.686,522.95 -385.954,668.312Zm-67.986,-132.063l-5.955,3.812l-215.112,-372.379l-96.816,-167.682l623.766,0l-0.375,7.255l-1.209,18.228l-2.6,24.646l-2.514,18.414l-3.996,23.994l-3.628,18.322l-5.676,23.436l-4.649,17.949l-7.345,23.344l-5.393,17.205l-9.116,23.53l-6.136,15.81c-3.627,8.464 -7.442,16.74 -11.444,24.924l-6.227,13.671c-5.767,11.625 -12.09,23.065 -18.51,34.318l-3.066,5.208c-6.329,11.254 -13.487,22.413 -20.554,33.295l-8.651,12.463l-15.808,21.947l-10.979,13.672l-15.621,19.251l-12.278,13.764l-16.552,17.671l-13.3,13.299l-17.205,16.368l-14.418,12.463l-18.505,15.252l-14.878,11.718l-19.998,14.323l-15.252,10.509Zm-372.564,259.289c-134.575,-0 -267.38,-32.923 -385.959,-95.606l42.317,-73.193l8.185,3.999l18.505,8.929l23.807,10.881l19.254,7.905l24.363,9.114l19.624,6.696l25.021,7.627l19.811,5.487c8.741,2.231 17.483,4.185 25.946,6.138l19.436,4.185c9.298,1.674 18.602,3.162 27.809,4.557l18.318,2.697c10.416,1.487 20.741,2.232 31.066,3.162l15.622,1.395c15.44,0.929 31.248,1.581 46.875,1.581c15.622,-0 31.249,-0.652 46.683,-1.581l15.627,-1.395c10.416,-0.837 20.741,-1.675 31.061,-3.162l18.227,-2.697c9.394,-1.395 18.698,-2.79 27.905,-4.557l19.061,-4.185c8.929,-1.861 17.858,-3.907 26.6,-6.138l19.254,-5.395c8.645,-2.418 17.205,-4.929 25.572,-7.719l19.254,-6.603l24.738,-9.393l18.88,-7.719l24.181,-10.974l18.318,-8.836l8.372,-3.999l42.131,73.193c-118.484,62.683 -251.197,95.606 -385.864,95.606Zm-407.723,-284.121l-15.156,-11.718l-18.51,-15.252l-14.134,-12.463l-17.302,-16.368l-13.391,-13.299l-16.552,-17.671l-12.187,-13.764l-15.809,-19.157l-10.694,-13.766l-15.809,-22.041l-8.929,-12.369c-7.067,-10.882 -13.952,-22.041 -20.645,-33.295l-2.883,-5.208c-6.42,-11.253 -12.557,-22.693 -18.415,-34.318l-6.323,-13.671l-11.256,-24.832l-6.415,-15.902l-8.838,-23.53l-5.67,-17.205l-7.068,-23.344l-4.745,-17.949l-5.58,-23.436l-3.814,-18.322l-3.815,-23.994l-2.6,-18.414l-2.514,-24.646l-1.488,-18.228l-0.369,-7.255l179.862,0c14.509,71.984 78.312,126.297 154.574,126.297c76.165,0 139.871,-54.313 154.568,-126.297l134.944,0l-96.816,167.682l-33.389,57.569c-19.992,-11.998 -43.055,-19.252 -68.077,-19.252c-73.934,0 -134.11,60.266 -134.11,134.295c0,49.942 27.996,93.281 68.826,116.346l-48.271,83.421l-6.137,-3.812l-15.53,-10.509l-19.533,-14.323Zm-4.183,107.324l-28.552,49.571c-230.552,-145.362 -375.635,-396.746 -385.96,-668.312l84.447,0l0.744,9.393l1.396,20.833c0.744,8.649 1.675,17.577 2.606,26.32l2.883,20.552c1.3,8.65 2.697,17.393 4.371,25.949l3.996,20.366c1.766,8.464 4.002,17.02 6.142,25.483l5.296,19.903c2.328,8.556 4.837,16.833 7.629,25.203l6.137,19.251c3.071,8.464 6.42,16.927 9.672,25.297l7.255,17.949c3.627,9.115 7.81,17.856 11.999,26.692l7.255,15.438c6.136,12.369 12.738,24.46 19.436,36.364l4.371,7.627c7.067,12.183 14.508,24.18 22.319,35.897l9.582,13.672l17.108,24.087l12,14.973l17.205,21.298l13.487,14.881l17.949,19.437l14.787,14.415l19.061,17.949l15.628,13.765l20.276,16.833l16.552,12.649l21.667,15.53l16.836,11.625l7.998,5.488l-13.578,23.622Zm156.52,-618.741c-13.021,36.551 -47.71,63.055 -88.812,63.055c-41.205,0 -75.706,-26.504 -89.006,-63.055l177.818,0Zm73.379,340.294c-0,38.968 -31.805,70.868 -70.961,70.868c-39.246,-0 -71.051,-31.9 -71.051,-70.868c0,-39.247 31.805,-71.053 71.051,-71.053c39.156,0 70.961,31.806 70.961,71.053Zm182.007,-308.859l112.251,194.559l-40.081,22.879c-15.071,8.743 -20.367,27.994 -11.444,43.059c5.58,10.138 16.28,15.904 27.253,15.904l15.808,-4.091l39.9,-23.065l168.242,291.003l-6.233,3.254l-17.761,8.557l-18.88,8.649c-8.56,3.534 -16.927,6.975 -25.487,10.231l-9.389,3.627c-149.828,54.125 -318.626,54.125 -468.454,-0.188l-9.485,-3.439c-8.367,-3.256 -16.831,-6.697 -25.391,-10.138l-19.248,-8.928l-17.302,-8.278l-6.136,-3.347l56.264,-97.56l2.605,0.187c74.032,0 134.201,-60.172 134.201,-134.016c0,-25.389 -7.436,-48.826 -19.623,-69.008l138.39,-239.851Zm-311.837,-666.357l6.136,-3.35l17.302,-8.183l19.435,-8.928l25.016,-10.138l10.047,-3.627c149.641,-54.127 318.252,-54.127 468.08,-0l9.389,3.627c8.56,3.163 16.927,6.603 25.487,10.138l18.88,8.742l17.761,8.555l6.233,3.164l-86.491,149.639l-4.746,-0.558c-73.935,0 -134.013,60.265 -134.013,134.201c-0,26.134 7.81,50.314 20.548,70.868l-107.227,186.004l-311.837,-540.154Zm-23.62,-58.964l-8.185,3.999l-42.317,-73.192c118.579,-62.683 251.384,-95.699 385.959,-95.699c134.667,0 267.38,33.016 385.864,95.699l-42.131,73.192l-8.372,-3.999l-18.318,-8.835l-24.181,-10.882l-18.88,-7.904l-24.738,-9.301l-19.254,-6.603c-8.367,-2.79 -16.927,-5.302 -25.572,-7.812l-19.254,-5.302c-8.742,-2.324 -17.671,-4.277 -26.6,-6.137l-19.061,-4.185c-9.207,-1.767 -18.511,-3.162 -27.905,-4.557l-18.227,-2.698c-10.32,-1.487 -20.645,-2.324 -31.061,-3.161l-15.627,-1.395c-15.434,-1.117 -31.061,-1.675 -46.683,-1.675c-15.627,0 -31.435,0.558 -46.875,1.675l-15.622,1.395c-10.325,0.837 -20.65,1.674 -31.066,3.069l-18.318,2.79c-9.207,1.487 -18.511,2.79 -27.809,4.557l-19.436,4.185c-8.463,1.952 -17.205,3.813 -25.946,6.045l-19.811,5.58l-25.021,7.626l-19.624,6.697l-24.363,9.113l-19.254,7.998l-23.807,10.696l-18.505,9.021Zm556.149,271.193c39.059,0 71.052,31.807 71.052,71.053c-0,39.154 -31.993,71.054 -71.052,71.054c-39.246,0 -70.96,-31.9 -70.96,-71.054c-0,-39.246 31.714,-71.053 70.96,-71.053Zm187.122,-151.965l14.878,11.811l18.505,15.159l14.418,12.556l17.205,16.368l13.3,13.3l16.552,17.577l12.278,13.857l15.621,19.158l10.979,13.672l15.808,22.135l8.651,12.368c7.067,10.974 14.225,22.042 20.736,33.295l2.884,5.208c6.42,11.254 12.743,22.785 18.51,34.411l6.227,13.577l11.444,24.74l6.136,15.996l9.116,23.53l5.393,17.111l7.345,23.438l4.649,17.763l5.676,23.622l3.628,18.414l3.996,23.902l2.514,18.414l2.6,24.645l1.209,18.229l0.375,7.254l-623.766,0l91.611,-158.754l7.998,-13.857c19.527,11.253 42.13,18.228 66.402,18.228c73.935,-0 134.292,-60.173 134.292,-134.109c0,-49.383 -27.247,-92.257 -67.237,-115.507l78.862,-136.155l5.955,3.719l15.44,10.696l19.81,14.229Zm32.736,-156.801c230.268,145.362 375.447,396.746 385.954,668.311l-84.442,0l-0.744,-9.487l-1.674,-20.738c-0.653,-8.65 -1.584,-17.578 -2.515,-26.32l-2.883,-20.647c-1.3,-8.649 -2.697,-17.298 -4.184,-25.854l-4.183,-20.275c-1.862,-8.555 -3.815,-17.111 -5.955,-25.668l-5.302,-19.809c-2.321,-8.556 -4.927,-16.834 -7.623,-25.203l-6.323,-19.252c-3.162,-8.556 -6.233,-16.927 -9.673,-25.297l-7.067,-18.042c-3.815,-9.021 -7.816,-17.763 -12.187,-26.412l-7.255,-15.718c-5.858,-11.904 -12.181,-23.715 -18.692,-35.34l-5.858,-9.858c-6.698,-11.626 -13.953,-23.251 -21.389,-34.598l-10.234,-14.229l-16.643,-23.436l-12.187,-15.625l-16.922,-20.552l-13.765,-15.439l-17.671,-18.879l-15.065,-14.881l-18.51,-17.577l-16.365,-14.229l-19.629,-16.182l-17.018,-13.206l-20.923,-15.067l-17.767,-12.183l-7.624,-5.116l42.318,-73.192Zm4.649,-71.053c-135.132,-78.029 -288.956,-119.322 -445.199,-119.322c-156.151,0 -310.072,41.293 -445.016,119.322c-15.066,8.742 -20.367,27.993 -11.626,43.06l73.754,127.877l328.202,568.427l-804.093,0c-17.483,0 -31.436,14.136 -31.436,31.62c0,316.579 170.564,611.952 445.199,770.892c134.944,78.029 288.865,119.322 445.016,119.322c156.243,0 310.067,-41.293 445.199,-119.322c274.538,-158.94 445.107,-454.313 445.107,-770.892c0,-316.671 -170.569,-612.044 -445.107,-770.984Z" style="fill:#0b0b16;fill-rule:nonzero;"/><path d="M1182.33,1492.96c17.483,-0 31.43,-14.136 31.43,-31.62c0,-17.391 -13.947,-31.528 -31.43,-31.528c-17.392,-0 -31.623,14.137 -31.623,31.528c-0,17.484 14.231,31.62 31.623,31.62Z" style="fill:#0b0b16;fill-rule:nonzero;"/><path d="M1408.51,1156.2c-17.483,0 -31.617,14.23 -31.617,31.621c-0,17.484 14.134,31.435 31.617,31.435c17.393,0 31.623,-13.951 31.623,-31.435c0,-17.391 -14.23,-31.621 -31.623,-31.621Z" style="fill:#0b0b16;fill-rule:nonzero;"/><path d="M1382.19,931.32c-17.484,-0 -31.436,14.137 -31.436,31.528c-0,17.485 13.952,31.528 31.436,31.528c17.392,0 31.526,-14.043 31.526,-31.528c0,-17.391 -14.134,-31.528 -31.526,-31.528Z" style="fill:#0b0b16;fill-rule:nonzero;"/><path d="M1292.82,560.987c17.392,0 31.527,-14.229 31.527,-31.62c-0,-17.485 -14.135,-31.622 -31.527,-31.622c-17.483,0 -31.623,14.137 -31.623,31.622c-0,17.391 14.14,31.62 31.623,31.62Z" style="fill:#0b0b16;fill-rule:nonzero;"/><path d="M1548.57,1290.31c0,-39.061 31.714,-71.053 70.96,-71.053c39.247,0 71.052,31.992 71.052,71.053c-0,39.246 -31.805,70.96 -71.052,70.96c-39.246,0 -70.96,-31.714 -70.96,-70.96Zm205.065,-0c-0,-73.936 -60.17,-134.109 -134.105,-134.109c-73.94,0 -134.019,60.173 -134.019,134.109c0,74.03 60.079,134.202 134.019,134.202c73.935,0 134.105,-60.172 134.105,-134.202Z" style="fill:#0b0b16;fill-rule:nonzero;"/><path d="M1147.27,541.085c6.324,-16.276 -1.396,-34.597 -17.58,-41.014l-47.432,-18.973c-16.177,-6.417 -34.501,1.395 -41.011,17.671c-6.415,16.275 1.396,34.597 17.579,40.921l47.427,18.879l11.625,2.418c12.465,0 24.459,-7.534 29.392,-19.902Z" style="fill:#0b0b16;fill-rule:nonzero;"/><path d="M1704.35,841.759l6.414,-0.465c16.836,-3.534 28.087,-20.089 24.46,-37.2l-10.32,-52.267c-3.44,-17.113 -20.185,-28.087 -37.203,-24.739c-17.109,3.441 -28.177,20.089 -24.738,37.108l10.507,52.36c3.162,14.973 16.184,25.203 30.88,25.203Z" style="fill:#0b0b16;fill-rule:nonzero;"/><path d="M1192.65,1583.17c-4.462,16.833 5.301,34.224 22.041,38.781l76.262,21.112l8.555,1.023c13.577,-0 26.321,-9.021 30.323,-23.065c4.552,-16.833 -5.302,-34.318 -21.951,-38.874l-76.54,-21.019c-16.462,-4.65 -34.132,5.209 -38.69,22.042Z" style="fill:#0b0b16;fill-rule:nonzero;"/><path d="M687.375,1286.87c-17.301,2.79 -28.739,19.065 -25.855,36.27l12.368,74.96c2.419,15.346 15.809,26.413 31.062,26.413l5.12,-0.373c17.296,-2.882 28.921,-19.158 25.946,-36.363l-12.368,-74.959c-2.884,-17.113 -18.698,-28.738 -36.273,-25.948Z" style="fill:#0b0b16;fill-rule:nonzero;"/><path d="M1516.95,954.942c-0,17.485 14.14,31.621 31.623,31.621l73.748,-0c17.392,-0 31.344,-14.136 31.344,-31.621c0,-17.391 -13.952,-31.526 -31.344,-31.526l-73.748,-0c-17.483,-0 -31.623,14.135 -31.623,31.526Z" style="fill:#0b0b16;fill-rule:nonzero;"/><path d="M1212.65,777.402c14.69,0 27.99,-10.416 30.873,-25.483c3.259,-17.111 -7.81,-33.666 -24.828,-37.107l-60.732,-11.812c-17.017,-3.347 -33.388,7.813 -36.828,25.018c-3.44,17.112 7.811,33.666 24.828,36.922l60.545,11.811l6.142,0.651Z" style="fill:#0b0b16;fill-rule:nonzero;"/><path d="M720.951,869.567c-14.696,-71.89 -78.498,-126.203 -154.573,-126.203c-76.262,-0 -140.059,54.313 -154.755,126.203l-199.951,-0l0.278,-7.255l1.488,-18.134l2.508,-24.832l2.606,-18.228l4.002,-24.181l3.627,-18.135l5.58,-23.622l4.74,-17.857l7.067,-23.344l5.676,-17.111l8.929,-23.624l6.324,-15.996l11.25,-24.645l6.511,-13.764c5.676,-11.533 11.812,-22.971 18.414,-34.224l2.884,-5.302c6.511,-11.254 13.39,-22.413 20.741,-33.295l8.645,-12.462l15.815,-21.948l10.694,-13.858l15.809,-19.157l12.181,-13.672l16.558,-17.671l13.391,-13.206l17.301,-16.368l14.135,-12.742l18.601,-15.158l15.065,-11.719l19.811,-14.136l15.434,-10.696l5.954,-3.813l311.929,540.155l-114.669,-0Zm-243.573,-0c13.112,-36.643 47.801,-63.149 89,-63.149c41.017,0 75.706,26.506 88.818,63.149l-177.818,-0Zm-278.262,-238.457c-3.258,8.37 -6.511,16.648 -9.485,25.204l-6.324,19.251l-7.629,25.111l-5.301,19.995c-2.14,8.463 -4.371,16.833 -5.949,25.483l-4.002,20.367c-1.862,8.649 -3.071,17.112 -4.558,25.854l-2.697,20.74c-1.112,8.742 -2.043,17.391 -2.605,26.32l-1.578,20.739l-0.744,9.393l-84.447,-0c10.512,-271.658 155.499,-522.95 385.96,-668.31l42.13,73.191l-7.629,5.116l-17.762,12.183l-20.929,15.066l-17.017,13.206l-19.624,16.276l-16.183,14.136l-18.505,17.578l-15.065,14.973l-17.671,18.786l-13.765,15.532l-16.927,20.552l-12.369,15.532l-16.739,23.529l-10.138,14.137c-7.442,11.439 -14.509,22.971 -21.389,34.69l-5.489,9.765c-6.698,11.625 -13.112,23.342 -19.067,35.247l-7.254,15.81c-4.184,8.743 -8.367,17.485 -11.995,26.32l-7.254,18.228Zm718.346,285.888c5.858,-9.858 5.858,-21.763 -0,-31.621l-355.455,-615.765l-73.748,-127.784l-19.254,-14.695l-23.807,3.163c-274.634,158.847 -445.198,454.22 -445.198,770.891c0,17.485 14.043,31.528 31.436,31.528l858.774,-0c11.347,-0 21.672,-6.138 27.252,-15.717Z" style="fill:#0b0b16;fill-rule:nonzero;"/><path d="M542.196,637.62c-4.37,16.927 6.046,34.04 22.882,38.317c16.927,4.185 34.035,-6.138 38.225,-23.065c4.274,-16.925 -6.046,-34.038 -22.973,-38.223c-17.017,-4.279 -34.132,6.045 -38.134,22.971Z" style="fill:#0b0b16;fill-rule:nonzero;"/><path d="M500.072,497.374l-49.946,36.922c-14.135,10.23 -17.109,29.947 -6.693,43.989c6.136,8.463 15.621,12.834 25.385,12.834l18.698,-6.138l49.941,-36.736c14.23,-10.322 17.114,-30.131 6.789,-44.082c-10.417,-14.136 -30.04,-17.112 -44.174,-6.789Z" style="fill:#0b0b16;fill-rule:nonzero;"/><path d="M360.382,636.69c-17.392,0 -31.623,14.23 -31.623,31.621l-0,71.611c-0,17.391 14.231,31.621 31.623,31.621c17.483,-0 31.617,-14.23 31.617,-31.621l0,-71.611c0,-17.391 -14.134,-31.621 -31.617,-31.621Z" style="fill:#0b0b16;fill-rule:nonzero;"/></g></g></svg>