<?xml version="1.0" encoding="UTF-8" standalone="no"?><!DOCTYPE svg PUBLIC "-//W3C//DTD SVG 1.1//EN" "http://www.w3.org/Graphics/SVG/1.1/DTD/svg11.dtd"><svg width="100%" height="100%" viewBox="0 0 2084 2084" version="1.1" xmlns="http://www.w3.org/2000/svg" xmlns:xlink="http://www.w3.org/1999/xlink" xml:space="preserve" xmlns:serif="http://www.serif.com/" style="fill-rule:evenodd;clip-rule:evenodd;stroke-linejoin:round;stroke-miterlimit:2;"><rect id="画板1" x="0" y="0" width="2083.33" height="2083.33" style="fill:none;"/><clipPath id="_clip1"><rect id="画板11" serif:id="画板1" x="0" y="0" width="2083.33" height="2083.33"/></clipPath><g clip-path="url(#_clip1)"><g><path d="M2003.72,1397.67c-58.22,312.394 -263.384,543.88 -506.958,543.88c-10.138,-0 -20.275,-0.56 -30.412,-1.491l-11.625,-1.115l-18.136,-2.509l-14.787,-2.699l-13.672,-3.068l-17.298,-4.371l-6.046,-2.046c-102.767,-31.343 -197.91,-105.653 -270.823,-214.093c-9.766,-14.415 -29.389,-18.321 -43.805,-8.557c-14.508,9.766 -18.321,29.296 -8.649,43.805c41.572,61.754 89.841,113.463 142.573,154.291c-24.646,3.162 -49.199,8.929 -73.286,17.765c-43.432,15.902 -88.353,24.088 -133.459,24.088c-288.588,-0 -523.327,-325.138 -523.327,-724.771c0,-123.695 23.251,-239.205 63.056,-340.95c152.896,-18.32 337.694,-81.562 552.251,-225.065c-110.209,143.503 -178.938,344.018 -178.938,566.015c0,53.384 3.999,106.765 11.812,158.568c2.697,17.299 18.786,29.112 35.992,26.507c17.205,-2.697 29.017,-18.693 26.413,-35.898c-7.348,-48.735 -11.068,-99.048 -11.068,-149.177c0,-335.648 165.545,-618.468 389.496,-700.776l0.372,-0.094c10.602,-3.905 21.204,-7.255 31.993,-10.229l3.255,-0.746c9.021,-2.416 17.949,-4.371 26.971,-6.137l8.277,-1.49l23.343,-3.162l8.464,-0.837c10.323,-0.834 20.647,-1.487 31.063,-1.487c243.574,-0 448.738,231.579 506.958,544.067c10.696,57.755 16.461,118.393 16.461,180.891c0,62.404 -5.765,122.949 -16.461,180.891Zm-1931.58,-692.594c126.112,-200.699 383.451,-404.375 649.346,-419.069c159.592,-9.022 300.212,51.616 418.605,179.773c-140.713,-21.389 -428.185,-34.223 -751.648,127.414c-15.532,7.626 -21.949,26.693 -14.137,42.318c5.487,11.066 16.648,17.483 28.273,17.483l14.044,-3.534c319.836,-159.593 607.772,-138.388 731.652,-117.834c-630.837,475.152 -993.27,241.714 -1076.13,173.449Zm1940.32,136.436c-99.42,-245.619 -293.238,-412.748 -515.7,-412.748c-11.904,0 -23.809,0.559 -35.527,1.675l-10.696,1.118c-8.463,0.744 -16.926,1.953 -25.389,3.346l-11.439,1.862c-9.487,1.859 -18.88,3.999 -28.18,6.417l-8.184,2.138c-10.324,2.883 -20.461,6.139 -30.599,9.672l-5.022,1.675c-15.903,5.764 -31.9,9.579 -48.082,12.275c24.087,-86.679 40.549,-245.06 -95.328,-380.937c-12.276,-12.372 -32.272,-12.372 -44.548,-0c-12.37,12.369 -12.37,32.364 -0,44.639c126.577,126.67 96.443,273.616 73.844,338.438c-137.83,-173.171 -313.42,-258.641 -509.656,-248.131c-297.794,16.368 -584.522,250.084 -713.703,472.362c-7.068,12.088 -5.208,27.621 4.65,37.757c2.511,2.699 150.479,149.083 428.278,149.083c9.858,-0 20.089,-0.372 30.319,-0.65c-36.085,101.654 -56.639,215.208 -56.639,335.276c0,434.415 263.105,787.824 586.476,787.824c52.546,0 104.814,-9.298 155.222,-27.806c61.753,-22.694 127.227,-22.694 189.167,0l12.184,3.812l21.669,6.883l16.09,4.093l19.53,4.464l15.067,2.696l22.507,2.884l12.648,1.394c11.718,1.024 23.53,1.58 35.341,1.58c222.462,0 416.28,-167.032 515.7,-412.651c45.199,-111.605 70.868,-239.483 70.868,-375.173c0,-135.877 -25.669,-263.756 -70.868,-375.267Z" style="fill:#0b0b16;fill-rule:nonzero;"/><path d="M1688.26,784.503c-12.183,12.463 -11.904,32.458 0.559,44.549c91.328,88.538 145.828,233.528 145.828,387.729c0,92.631 -19.437,182.563 -56.081,259.663c-7.44,15.718 -0.836,34.598 14.974,42.037l13.485,3.068c11.811,-0 23.158,-6.695 28.552,-17.949c40.735,-85.655 62.219,-184.89 62.219,-286.819c0,-170.94 -61.661,-332.764 -164.894,-433.022c-12.463,-12.184 -32.551,-11.812 -44.642,0.744Z" style="fill:#0b0b16;fill-rule:nonzero;"/></g></g></svg>