<?xml version="1.0" encoding="UTF-8" standalone="no"?><!DOCTYPE svg PUBLIC "-//W3C//DTD SVG 1.1//EN" "http://www.w3.org/Graphics/SVG/1.1/DTD/svg11.dtd"><svg width="100%" height="100%" viewBox="0 0 2084 2084" version="1.1" xmlns="http://www.w3.org/2000/svg" xmlns:xlink="http://www.w3.org/1999/xlink" xml:space="preserve" xmlns:serif="http://www.serif.com/" style="fill-rule:evenodd;clip-rule:evenodd;stroke-linejoin:round;stroke-miterlimit:2;"><rect id="画板1" x="0" y="0" width="2083.33" height="2083.33" style="fill:none;"/><clipPath id="_clip1"><rect id="画板11" serif:id="画板1" x="0" y="0" width="2083.33" height="2083.33"/></clipPath><g clip-path="url(#_clip1)"><g><path d="M2029.39,1234.74c-27.808,27.808 -64.637,43.061 -103.884,43.061c-39.248,0 -76.17,-15.253 -103.978,-43.061c-81.935,-81.843 -215.208,-81.843 -297.144,-0c-57.382,57.383 -150.571,57.383 -207.861,-0c-81.936,-81.843 -215.208,-81.843 -297.144,-0c-57.383,57.383 -150.665,57.383 -207.861,-0c-82.029,-81.843 -215.302,-81.843 -297.238,-0c-57.196,57.383 -150.571,57.383 -207.861,-0c-39.712,-39.713 -92.538,-61.567 -148.525,-61.567c-56.081,-0 -108.907,21.854 -148.619,61.567c-12.369,12.368 -12.369,32.457 -0,44.642c12.276,12.463 32.272,12.463 44.641,-0c27.715,-27.715 64.637,-42.968 103.978,-42.968c39.154,0 76.169,15.253 103.884,42.968c81.935,82.027 215.208,82.027 297.144,-0c57.289,-57.29 150.571,-57.29 207.954,-0c81.843,82.027 215.209,82.027 297.051,-0c57.383,-57.29 150.665,-57.29 207.861,-0c82.029,82.027 215.302,82.027 297.238,-0c57.289,-57.29 150.571,-57.29 207.861,-0c39.712,39.619 92.538,61.66 148.619,61.66c56.08,0 108.813,-22.041 148.525,-61.66c12.37,-12.185 12.37,-32.274 0,-44.642c-12.369,-12.369 -32.272,-12.369 -44.641,-0Z" style="fill:#0b0b16;fill-rule:nonzero;"/><path d="M2029.39,1550.58c-27.808,27.621 -64.637,43.061 -103.884,43.061c-39.248,0 -76.17,-15.44 -103.978,-43.061c-81.935,-82.028 -215.208,-82.028 -297.144,-0c-57.382,57.198 -150.571,57.198 -207.861,-0c-81.936,-82.028 -215.208,-82.028 -297.144,-0c-57.383,57.198 -150.665,57.198 -207.861,-0c-82.029,-82.028 -215.302,-82.028 -297.238,-0c-57.196,57.198 -150.571,57.198 -207.861,-0c-39.712,-39.897 -92.538,-61.567 -148.525,-61.567c-56.081,0 -108.907,21.67 -148.619,61.567c-12.369,12.278 -12.369,32.18 -0,44.549c12.276,12.368 32.272,12.368 44.641,-0c27.715,-27.9 64.637,-43.153 103.978,-43.153c39.154,0 76.169,15.253 103.884,43.153c81.935,81.936 215.208,81.936 297.144,-0c57.289,-57.384 150.571,-57.384 207.954,-0c81.843,81.936 215.209,81.936 297.051,-0c57.383,-57.384 150.665,-57.384 207.861,-0c82.029,81.936 215.302,81.936 297.238,-0c57.289,-57.384 150.571,-57.384 207.861,-0c39.712,39.712 92.538,61.566 148.619,61.566c56.08,0 108.813,-21.854 148.525,-61.566c12.37,-12.369 12.37,-32.271 0,-44.549c-12.369,-12.369 -32.272,-12.369 -44.641,-0Z" style="fill:#0b0b16;fill-rule:nonzero;"/><path d="M2029.39,1866.14c-27.808,27.809 -64.637,43.061 -103.884,43.061c-39.248,0 -76.17,-15.252 -103.978,-43.061c-81.935,-81.843 -215.208,-81.843 -297.144,-0c-57.382,57.383 -150.571,57.383 -207.861,-0c-81.936,-81.843 -215.208,-81.843 -297.144,-0c-57.383,57.383 -150.665,57.383 -207.861,-0c-82.029,-81.843 -215.302,-81.843 -297.238,-0c-57.196,57.383 -150.571,57.383 -207.861,-0c-39.712,-39.712 -92.538,-61.567 -148.525,-61.567c-56.081,0 -108.907,21.855 -148.619,61.567c-12.369,12.369 -12.369,32.458 -0,44.642c12.276,12.369 32.272,12.369 44.641,0c27.715,-27.715 64.637,-42.968 103.978,-42.968c39.154,0 76.169,15.253 103.884,42.968c81.935,82.028 215.208,82.028 297.144,0c57.289,-57.289 150.571,-57.289 207.954,0c81.843,82.028 215.209,82.028 297.051,0c57.383,-57.289 150.665,-57.289 207.861,0c82.029,82.028 215.302,82.028 297.238,0c57.289,-57.289 150.571,-57.289 207.861,0c39.712,39.713 92.538,61.661 148.619,61.661c56.08,-0 108.813,-21.948 148.525,-61.661c12.37,-12.184 12.37,-32.273 0,-44.642c-12.369,-12.369 -32.272,-12.369 -44.641,-0Z" style="fill:#0b0b16;fill-rule:nonzero;"/><path d="M1572.47,608.367l-0,220.972l-757.694,0l-0,-220.972l757.694,-0Zm-789.222,428.741c17.391,0 31.528,-14.137 31.528,-31.62l-0,-112.998l757.694,-0l-0,112.998c-0,17.483 14.136,31.62 31.528,31.62c17.484,0 31.528,-14.137 31.528,-31.62l-0,-639.21c-0,-105.928 86.306,-192.236 192.329,-192.236c106.024,0 192.33,86.308 192.33,192.236c0,17.486 14.137,31.623 31.528,31.623c17.485,0 31.621,-14.137 31.621,-31.623c0,-140.714 -114.672,-255.383 -255.479,-255.383c-140.806,-0 -255.385,114.669 -255.385,255.383l-0,178.938l-757.694,0l-0,-178.938c-0,-105.928 86.306,-192.236 192.33,-192.236c106.023,0 192.236,86.308 192.236,192.236c0,17.486 14.137,31.623 31.621,31.623c17.485,0 31.621,-14.137 31.621,-31.623c0,-140.714 -114.672,-255.383 -255.478,-255.383c-140.9,-0 -255.386,114.669 -255.386,255.383l-0,639.21c-0,17.483 14.043,31.62 31.528,31.62Z" style="fill:#0b0b16;fill-rule:nonzero;"/></g></g></svg>