<?xml version="1.0" encoding="UTF-8" standalone="no"?><!DOCTYPE svg PUBLIC "-//W3C//DTD SVG 1.1//EN" "http://www.w3.org/Graphics/SVG/1.1/DTD/svg11.dtd"><svg width="100%" height="100%" viewBox="0 0 2084 2084" version="1.1" xmlns="http://www.w3.org/2000/svg" xmlns:xlink="http://www.w3.org/1999/xlink" xml:space="preserve" xmlns:serif="http://www.serif.com/" style="fill-rule:evenodd;clip-rule:evenodd;stroke-linejoin:round;stroke-miterlimit:2;"><rect id="画板1" x="0" y="0" width="2083.33" height="2083.33" style="fill:none;"/><clipPath id="_clip1"><rect id="画板11" serif:id="画板1" x="0" y="0" width="2083.33" height="2083.33"/></clipPath><g clip-path="url(#_clip1)"><g><path d="M1990.37,848.222c0,26.227 -21.298,47.432 -47.342,47.432l-1802.82,-0c-26.044,-0 -47.246,-21.205 -47.246,-47.432l-0,-27.065c-0,-26.135 21.202,-47.246 47.246,-47.246l1802.82,-0c26.044,-0 47.342,21.111 47.342,47.246l0,27.065Zm-241.255,636.25l-535.712,535.804l-450.427,0l1061.47,-1061.47l45.759,-0l-121.093,525.667Zm-123.324,535.804l-323.101,0l419.734,-419.827l-96.633,419.827Zm-1168.15,0l-43.903,-190.289l871.182,-871.182l450.24,-0l-1061.38,1061.47l-216.142,0Zm-60.547,-262.833l-83.798,-363.652l434.987,-434.986l447.356,-0l-798.545,798.638Zm-183.967,-798.638l445.869,-0l-362.349,362.348l-83.52,-362.348Zm-3.718,-254.928c-2.884,-29.203 5.858,-57.571 24.364,-80.264c18.602,-22.6 44.828,-36.551 73.943,-39.341c29.201,-2.883 57.567,5.766 80.262,24.275c13.391,11.067 33.293,9.207 44.362,-4.279c11.07,-13.486 9.117,-33.39 -4.28,-44.456c-19.34,-15.811 -41.104,-26.507 -63.799,-32.832c-25.857,-49.293 -10.973,-111.047 36.552,-142.112c24.46,-16.089 53.757,-21.577 82.31,-15.625c28.735,5.953 53.292,22.879 69.289,47.34c9.576,14.509 29.109,18.601 43.71,9.115c14.606,-9.579 18.602,-29.111 9.116,-43.713c-7.442,-11.347 -16.371,-21.39 -26.044,-30.506l-0.744,-4.278c-14.691,-38.039 -13.76,-79.612 2.793,-116.721c16.462,-37.389 46.503,-65.941 84.542,-80.636c78.405,-30.413 167.04,8.649 197.358,87.145c6.324,16.37 24.648,24.461 40.826,18.137c16.281,-6.325 24.37,-24.646 18.046,-40.922c-7.067,-18.323 -16.649,-35.343 -28.178,-50.782c20.367,-37.573 65.564,-56.082 107.043,-41.015c45.578,16.369 69.385,66.871 52.923,112.63c-5.955,16.276 2.606,34.411 18.971,40.271l10.695,1.953c12.931,-0 25.113,-7.999 29.672,-20.926c3.627,-10.045 6.045,-20.461 7.442,-30.692c14.878,-20.741 36.642,-34.785 61.846,-39.527c25.857,-4.929 52.174,0.557 73.938,15.439c21.764,14.881 36.552,37.389 41.485,63.244c4.649,24.832 -0.375,49.757 -13.766,70.962c-26.135,6.79 -50.408,19.717 -70.316,39.156c-61.756,60.546 -62.778,160.063 -2.322,221.911l22.599,9.487l22.042,-9.022c12.466,-12.277 12.647,-32.181 0.556,-44.55c-36.268,-37.016 -35.62,-96.447 1.306,-132.811c33.39,-32.738 85.194,-34.971 121.559,-7.812c-5.212,10.322 -9.583,21.39 -12.188,33.202c-3.809,17.114 6.886,33.948 23.904,37.761c17.018,3.905 33.946,-6.977 37.67,-23.997c10.042,-45.107 54.966,-73.567 99.976,-63.708c45.112,10.045 73.665,54.873 63.618,99.98c-3.718,17.02 6.976,33.948 23.995,37.761l6.886,0.744c14.412,-0 27.525,-10.137 30.875,-24.739l2.327,-20.555c27.622,-19.066 65.752,-16.09 89.656,9.022c26.504,27.716 25.482,71.8 -2.231,98.307c-12.556,11.998 -13.022,31.993 -1.027,44.549l22.882,9.858l21.764,-8.835l16.184,-18.879l2.322,-1.209c11.722,-8.744 26.226,-12.557 40.554,-10.417c14.503,2.045 27.435,9.579 36.177,21.297c18.227,24.183 13.391,58.501 -10.792,76.637l-1.578,1.767l-1077.75,0c-7.907,-12.277 -12.182,-26.599 -11.994,-41.666c0.181,-20.182 8.18,-38.97 22.598,-53.106c29.763,-29.111 77.565,-28.553 106.675,1.115c12.188,12.463 32.181,12.743 44.646,0.466c12.461,-12.184 12.648,-32.179 0.466,-44.642c-53.479,-54.501 -141.37,-55.525 -195.968,-2.047c-26.413,25.856 -41.2,60.547 -41.666,97.656c-0.091,14.508 2.418,28.646 6.789,42.224l-513.664,0l-1.209,-6.789Zm1099.23,-610.301c13.3,-16.742 32.272,-27.344 53.479,-29.855c21.299,-2.418 42.041,3.442 58.782,16.74c16.831,13.115 27.344,31.995 29.853,53.2c2.043,17.392 18.04,29.855 34.968,27.715c17.393,-2.139 29.859,-17.764 27.809,-34.97l-3.996,-18.043c13.204,-10.137 29.013,-15.996 45.941,-16.462c21.111,-0.929 41.575,6.975 57.197,21.577c15.537,14.603 24.461,34.319 25.113,55.804c0.653,21.205 -6.976,41.574 -21.667,57.105c-11.813,12.742 -11.257,32.645 1.487,44.55l21.577,8.65l22.973,-9.953l10.786,-14.044c22.786,-10.509 48.177,-12.09 72.081,-4.185c24.83,8.278 44.828,25.856 56.454,49.201c11.626,23.437 13.391,49.85 5.115,74.59c-7.999,23.809 -24.648,43.061 -46.781,54.873c-34.787,-19.252 -76.175,-22.042 -112.817,-7.441c-17.575,-43.526 -55.336,-77.938 -104.444,-88.912c-45.293,-9.953 -89.843,2.604 -123.42,29.575c-19.346,-14.974 -41.292,-25.484 -65.1,-30.134c8.368,-25.576 10.877,-52.827 5.859,-79.984c-8.095,-42.503 -32.181,-79.334 -67.802,-103.609c-1.674,-20.274 3.997,-40.085 16.553,-55.988Zm638.578,617.556c3.996,-9.394 7.158,-19.067 8.645,-29.483c4.371,-31.25 -3.627,-62.314 -22.598,-87.332c-18.881,-25.205 -46.503,-41.388 -77.753,-45.853c-9.116,-1.395 -18.136,-1.209 -27.066,-0.371c0.562,-25.67 -6.414,-51.525 -20.833,-73.94c62.784,-45.107 85.938,-130.207 50.409,-201.729c-19.159,-38.411 -52.083,-67.15 -92.819,-80.82c-21.389,-7.163 -43.619,-9.487 -65.383,-7.535l1.119,-16.834c-1.209,-38.224 -17.206,-73.659 -45.016,-99.794c-27.9,-26.134 -64.543,-40.178 -102.4,-38.691c-26.226,0.838 -50.777,9.022 -72.36,22.786l-21.111,-20.739c-29.944,-23.717 -67.336,-34.319 -105.375,-29.763c-37.942,4.465 -71.797,23.438 -95.514,53.386c-16.184,20.555 -25.67,44.55 -29.019,69.754c-19.437,-3.627 -39.526,-3.905 -59.428,-0.092c-21.952,4.091 -42.228,12.647 -60.178,24.738c-15.531,-38.504 -46.224,-70.683 -88.26,-85.936c-65.105,-23.531 -135.693,1.301 -174.016,55.244c-12.46,-9.113 -25.851,-17.019 -40.179,-23.343c-52.73,-23.251 -111.324,-24.74 -165.081,-3.907c-91.427,35.342 -144.997,126.581 -136.999,219.679l-9.855,-3.069c-45.202,-9.487 -91.336,-0.745 -129.84,24.553c-64.453,42.132 -90.678,120.164 -71.054,190.568c-41.667,5.674 -81.471,25.949 -110.212,60.918c-29.297,35.715 -42.966,80.544 -38.504,126.488l0.187,0.651l-6.511,0c-60.825,0 -110.398,49.572 -110.398,110.491l-0,27.065c-0,61.01 49.573,110.583 110.398,110.583l8.089,-0l253.347,1100.07c3.258,14.322 16.093,24.46 30.784,24.46l1218.46,0c14.697,0 27.532,-10.138 30.785,-24.46l253.346,-1100.07l7.999,-0c60.921,-0 110.495,-49.573 110.495,-110.583l-0,-27.065c-0,-59.431 -47.343,-107.793 -106.306,-110.025Z" style="fill:#0b0b16;fill-rule:nonzero;"/></g></g></svg>