<?xml version="1.0" encoding="UTF-8" standalone="no"?><!DOCTYPE svg PUBLIC "-//W3C//DTD SVG 1.1//EN" "http://www.w3.org/Graphics/SVG/1.1/DTD/svg11.dtd"><svg width="100%" height="100%" viewBox="0 0 2084 2084" version="1.1" xmlns="http://www.w3.org/2000/svg" xmlns:xlink="http://www.w3.org/1999/xlink" xml:space="preserve" xmlns:serif="http://www.serif.com/" style="fill-rule:evenodd;clip-rule:evenodd;stroke-linejoin:round;stroke-miterlimit:2;"><rect id="画板1" x="0" y="0" width="2083.33" height="2083.33" style="fill:none;"/><g id="画板11" serif:id="画板1"><g><path d="M1884.8,1198.25c-29.02,17.859 -65.942,15.253 -93.01,-8.277l-163.789,-641.489l-14.607,-19.347l-15.901,-4.371l-8.186,1.022c-131.704,34.879 -211.691,7.811 -241.546,-6.511l-0,-65.943c66.777,18.319 199.69,38.319 339.858,-34.323l197.925,775.146l-0.744,4.093Zm-308.794,761.009c-30.23,38.694 -75.616,61.015 -124.727,61.015l-1095.75,0c-48.362,0 -93.476,-21.765 -123.609,-59.715c-30.133,-38.041 -41.015,-86.964 -30.042,-134.116l139.141,-594.058c78.131,40.555 172.719,61.106 267.313,61.106c110.682,-0 221.456,-27.806 305.723,-83.428c146.305,-96.547 381.992,-98.221 532.021,-5.955l158.113,619.264c12.188,47.623 1.862,97.103 -28.18,135.887Zm-186.855,-1760.68l-90.126,140.724l-813.004,0l-100.357,-269.732l1003.49,129.008Zm-900.156,401.151l802.775,0l133.282,522.07c-167.883,-74.038 -397.621,-62.134 -545.691,35.622c-143.518,94.685 -372.972,98.125 -523.46,11.065l133.094,-568.757Zm795.798,-197.271l-0,134.116l-789.286,0l-0,-134.116l789.286,-0Zm661.857,776.167l-208.154,-815.605c-2.51,-9.861 -9.674,-17.763 -18.973,-21.487c-9.491,-3.815 -20.09,-2.696 -28.651,2.793c-147.883,94.032 -292.609,59.897 -343.111,43.247l-0,-7.437l121.377,-189.557c5.859,-9.021 6.603,-20.465 2.044,-30.32c-4.553,-9.77 -13.857,-16.56 -24.643,-17.951l-1104.78,-142.03c-10.882,-1.487 -21.856,3.072 -28.736,11.627c-6.886,8.742 -8.652,20.277 -4.746,30.695l124.262,333.909l-0,187.973l-292.145,1247.64c-15.344,66.034 -0.09,134.395 42.134,187.695c42.043,53.011 105.29,83.518 172.998,83.518l1095.75,0c68.736,0 132.357,-31.064 174.581,-85.38c42.038,-54.317 56.548,-123.609 39.529,-190.204l-311.117,-1218.53c45.943,14.691 119.703,26.318 220.337,5.024l155.979,611.355c3.724,14.505 11.348,26.784 22.043,35.526c26.046,21.3 58.131,31.995 90.41,31.995c25.762,0 51.711,-6.88 74.776,-21.016c24.28,-14.975 36.088,-45.114 28.833,-73.481Z" style="fill:#0b0b16;fill-rule:nonzero;"/></g></g></svg>