<?xml version="1.0" encoding="UTF-8" standalone="no"?><!DOCTYPE svg PUBLIC "-//W3C//DTD SVG 1.1//EN" "http://www.w3.org/Graphics/SVG/1.1/DTD/svg11.dtd"><svg width="100%" height="100%" viewBox="0 0 2084 2084" version="1.1" xmlns="http://www.w3.org/2000/svg" xmlns:xlink="http://www.w3.org/1999/xlink" xml:space="preserve" xmlns:serif="http://www.serif.com/" style="fill-rule:evenodd;clip-rule:evenodd;stroke-linejoin:round;stroke-miterlimit:2;"><rect id="画板1" x="0" y="0" width="2083.33" height="2083.33" style="fill:none;"/><clipPath id="_clip1"><rect id="画板11" serif:id="画板1" x="0" y="0" width="2083.33" height="2083.33"/></clipPath><g clip-path="url(#_clip1)"><g><path d="M2020.18,1645.67l-1957.04,0l0,-173.541l1957.04,0l0,173.541Zm-808.929,231.11l-339.271,-0l-0,-168.055l339.271,0l-0,168.055Zm215.113,143.408l-769.497,0c13.671,-46.407 56.638,-80.353 107.324,-80.353l554.849,-0c50.779,-0 93.653,33.946 107.324,80.353Zm593.816,-1957.04l0,715.37l-436.364,0c34.782,-68.634 56.452,-140.618 56.452,-213.625c-0,-185.446 -150.942,-336.294 -336.294,-336.294c-102.209,0 -199.024,47.431 -262.358,126.297c-63.335,-78.866 -160.057,-126.297 -262.265,-126.297c-185.446,0 -336.295,150.848 -336.295,336.294c-0,74.308 22.506,147.501 58.312,217.16l-438.225,0l0,-718.905l1957.04,0Zm-1359.31,782.146c11.16,-0 21.577,-5.952 27.249,-15.531l85.469,-145.176l119.042,294.63c4.651,11.439 15.439,19.157 27.715,19.716l1.581,0.093c11.718,-0 22.507,-6.51 27.994,-17.019l112.16,-215.858l71.704,130.668c5.487,9.951 15.903,16.182 27.25,16.368c11.346,-0 21.948,-5.858 27.714,-15.717l138.108,-236.597l85.562,163.776c5.394,10.51 16.275,17.113 27.993,17.113l31.435,0c-137.271,192.885 -366.985,349.966 -430.226,391.073c-62.777,-40.921 -290.259,-196.142 -427.716,-387.539l46.966,-0Zm-154.569,-280.401c-0,-150.662 122.483,-273.146 273.054,-273.146c95.977,0 186.096,51.524 235.108,134.573c11.346,19.252 42.967,19.252 54.313,0c49.012,-83.049 139.224,-134.573 235.202,-134.573c150.569,0 273.145,122.484 273.145,273.146c0,72.264 -25.296,144.619 -64.915,213.625l-52.732,0l-103.139,-197.629c-5.301,-10.136 -15.81,-16.647 -27.249,-16.833c-11.626,-1.023 -22.228,5.674 -27.993,15.624l-138.759,237.899l-73.286,-133.458c-5.58,-10.23 -16.461,-16.553 -28.086,-16.367c-11.625,0.092 -22.227,6.603 -27.622,16.925l-107.882,207.395l-117.275,-290.445c-4.557,-11.067 -14.974,-18.693 -26.971,-19.623c-12.183,-1.117 -23.436,5.115 -29.481,15.439l-108.905,184.608l-69.845,0c-40.642,-70.031 -66.682,-143.689 -66.682,-217.16Zm-443.154,280.401l474.589,-0c160.428,249.617 469.844,441.107 487.422,451.803l16.462,4.65l16.46,-4.65c17.671,-10.696 330.157,-204.046 489.748,-455.337l472.356,0l0,567.218l-1957.04,0l0,-563.684Zm1988.57,-845.294l-2020.09,-0c-17.485,-0 -31.621,14.043 -31.621,31.528l0,1645.67c0,17.484 14.136,31.527 31.621,31.527l777.309,0l0,168.055l-44.734,-0c-96.536,-0 -174.936,78.493 -174.936,174.936c-0,17.391 14.136,31.528 31.527,31.528l841.667,0c17.484,0 31.62,-14.137 31.62,-31.528c0,-96.443 -78.494,-174.936 -175.029,-174.936l-44.641,-0l-0,-168.055l777.309,0c17.484,0 31.62,-14.043 31.62,-31.527l0,-1645.67c0,-17.485 -14.136,-31.528 -31.62,-31.528Z" style="fill:#0b0b16;fill-rule:nonzero;"/></g></g></svg>