<?xml version="1.0" encoding="UTF-8" standalone="no"?><!DOCTYPE svg PUBLIC "-//W3C//DTD SVG 1.1//EN" "http://www.w3.org/Graphics/SVG/1.1/DTD/svg11.dtd"><svg width="100%" height="100%" viewBox="0 0 2084 2084" version="1.1" xmlns="http://www.w3.org/2000/svg" xmlns:xlink="http://www.w3.org/1999/xlink" xml:space="preserve" xmlns:serif="http://www.serif.com/" style="fill-rule:evenodd;clip-rule:evenodd;stroke-linejoin:round;stroke-miterlimit:2;"><rect id="画板1" x="0" y="0" width="2083.33" height="2083.33" style="fill:none;"/><clipPath id="_clip1"><rect id="画板11" serif:id="画板1" x="0" y="0" width="2083.33" height="2083.33"/></clipPath><g clip-path="url(#_clip1)"><g><path d="M1133.57,72.869c34.701,52.227 106.903,64.854 157.664,27.386c63.392,-46.724 154.582,-13.963 172.71,61.991c14.472,60.878 77.959,97.041 138.614,79.008c75.795,-22.552 150.159,38.962 140.808,116.475c-7.507,62.054 39.663,117.493 102.893,121.024c79.008,4.357 127.576,87.277 91.891,156.965c-28.563,55.789 -3.467,123.823 54.737,148.442c72.774,30.788 89.633,125.031 31.935,178.529c-46.184,42.78 -46.184,115.109 -0,157.92c57.698,53.467 40.839,147.774 -31.935,178.53c-58.204,24.65 -83.3,92.622 -54.737,148.41c35.685,69.688 -12.883,152.639 -91.891,157.029c-63.23,3.499 -110.4,58.906 -102.893,120.96c9.351,77.544 -65.013,139.09 -140.808,116.54c-60.655,-18.066 -124.142,18.162 -138.614,78.976c-18.128,76.017 -109.318,108.777 -172.71,61.991c-50.761,-37.405 -122.963,-24.841 -157.664,27.449c-43.353,65.298 -140.425,65.298 -183.779,-0c-34.732,-52.29 -106.964,-64.854 -157.697,-27.449c-63.39,46.786 -154.61,14.026 -172.676,-61.991c-14.506,-60.814 -77.991,-97.042 -138.678,-78.976c-75.762,22.55 -150.127,-38.996 -140.744,-116.54c7.443,-62.054 -39.663,-117.461 -102.958,-120.96c-79.008,-4.39 -127.512,-87.341 -91.857,-157.029c28.531,-55.788 3.467,-123.76 -54.771,-148.41c-72.741,-30.756 -89.599,-125.063 -31.901,-178.53c46.15,-42.811 46.15,-115.14 -0,-157.92c-57.698,-53.498 -40.84,-147.741 31.901,-178.529c58.238,-24.619 83.302,-92.653 54.771,-148.442c-35.655,-69.688 12.849,-152.608 91.857,-156.965c63.295,-3.531 110.401,-58.97 102.958,-121.024c-9.383,-77.513 64.982,-139.027 140.744,-116.475c60.687,18.033 124.172,-18.13 138.678,-79.008c18.066,-75.954 109.286,-108.715 172.676,-61.991c50.733,37.468 122.965,24.841 157.697,-27.386c43.354,-65.362 140.426,-65.362 183.779,0Z" style="fill:#fff;fill-rule:nonzero;"/><path d="M858.031,1937.62c7.793,-0 15.554,0.699 23.282,2.067c36.579,6.457 67.941,26.877 88.359,57.57c16.127,24.363 42.399,38.326 72.012,38.326c29.58,0 55.851,-13.963 72.009,-38.326c20.357,-30.693 51.717,-51.113 88.262,-57.57c36.101,-6.425 73.889,2.417 103.404,24.141c23.506,17.334 54.039,21.756 81.648,11.642c27.449,-10.083 47.043,-31.934 53.721,-59.956c8.493,-35.591 30.725,-65.426 62.691,-83.874c31.87,-18.447 70.483,-22.996 105.947,-12.436c28.244,8.397 58.525,2.131 80.947,-16.762c22.075,-18.639 32.793,-45.643 29.39,-74.046c-4.42,-36.355 6.171,-71.883 29.772,-100.031c23.663,-28.182 58.459,-45.58 95.451,-47.647c29.42,-1.59 55.597,-17.621 70.07,-42.843c14.28,-24.905 15.012,-53.88 1.908,-79.453c-16.794,-32.761 -19.083,-69.847 -6.488,-104.421c12.5,-34.447 39.186,-62.437 73.186,-76.813c27.227,-11.545 45.706,-34.574 50.732,-63.295c4.994,-28.371 -4.389,-56.011 -25.701,-75.795c-26.875,-24.905 -42.301,-60.051 -42.301,-96.47c-0,-36.386 15.426,-71.565 42.301,-96.469c21.312,-19.752 30.695,-47.391 25.701,-75.795c-5.026,-28.69 -23.505,-51.75 -50.732,-63.231c-34,-14.409 -60.686,-42.43 -73.186,-76.845c-12.595,-34.542 -10.306,-71.628 6.488,-104.421c13.104,-25.54 12.372,-54.548 -1.908,-79.453c-14.473,-25.222 -40.65,-41.19 -70.07,-42.875c-36.992,-2.035 -71.788,-19.37 -95.42,-47.582c-23.632,-28.213 -34.223,-63.741 -29.803,-100.096c3.403,-28.371 -7.315,-55.343 -29.39,-73.982c-22.422,-18.893 -52.703,-25.159 -80.947,-16.762c-35.464,10.56 -74.013,5.947 -105.947,-12.5c-31.966,-18.448 -54.198,-48.187 -62.691,-83.778c-6.678,-28.086 -26.272,-49.937 -53.721,-59.956c-27.671,-10.114 -58.142,-5.757 -81.648,11.578c-29.515,21.787 -67.144,30.598 -103.435,24.141c-36.514,-6.394 -67.874,-26.876 -88.231,-57.57c-16.158,-24.364 -42.429,-38.327 -72.009,-38.327c-29.613,-0 -55.885,13.963 -72.012,38.327c-20.418,30.694 -51.749,51.176 -88.326,57.633c-36.26,6.394 -73.886,-2.481 -103.404,-24.204c-23.537,-17.335 -54.07,-21.628 -81.615,-11.578c-27.481,10.083 -47.042,31.87 -53.722,59.891c-8.46,35.656 -30.756,65.395 -62.689,83.843c-31.904,18.512 -70.581,22.996 -105.95,12.5c-28.244,-8.397 -58.554,-2.162 -80.914,16.762c-22.106,18.639 -32.826,45.611 -29.389,73.982c4.356,36.418 -6.234,71.947 -29.868,100.096c-23.631,28.212 -58.428,45.547 -95.419,47.582c-29.39,1.622 -55.567,17.653 -70.037,42.875c-14.314,24.905 -15.046,53.913 -1.909,79.517c16.762,32.729 19.052,69.815 6.488,104.42c-12.531,34.415 -39.218,62.373 -73.219,76.782c-26.813,11.291 -45.801,34.987 -50.732,63.231c-4.96,28.404 4.422,56.043 25.765,75.795c26.876,24.904 42.237,60.083 42.237,96.469c0.033,36.419 -15.361,71.565 -42.237,96.47c-21.343,19.784 -30.725,47.424 -25.765,75.795c4.931,28.276 23.919,51.94 50.732,63.295c34.001,14.376 60.688,42.366 73.219,76.813c12.564,34.51 10.274,71.597 -6.488,104.421c-13.137,25.573 -12.405,54.548 1.909,79.516c14.47,25.159 40.647,41.19 70.037,42.78c36.991,2.067 71.788,19.465 95.419,47.647c23.634,28.148 34.224,63.676 29.899,100.031c-3.468,28.403 7.252,55.407 29.358,74.046c22.36,18.893 52.67,25.159 80.914,16.762c35.369,-10.56 74.046,-6.011 105.95,12.436c31.933,18.448 54.229,48.219 62.689,83.874c6.68,28.022 26.241,49.873 53.722,59.956c27.545,10.051 58.047,5.756 81.615,-11.642c23.22,-17.08 51.464,-26.208 80.089,-26.208Zm183.653,145.673c-45.198,0 -86.993,-22.296 -111.77,-59.637c-13.104,-19.688 -33.27,-32.856 -56.869,-37.022c-23.76,-4.167 -47.455,1.368 -66.762,15.585c-36.514,26.909 -83.81,33.62 -126.368,18.034c-42.144,-15.426 -73.409,-50.445 -83.715,-93.702c-5.438,-22.71 -19.687,-41.73 -40.139,-53.594c-20.961,-12.118 -45.326,-14.917 -68.513,-8.016c-43.765,12.978 -90.553,3.245 -125.285,-26.017c-34.064,-28.785 -51.272,-72.201 -45.961,-116.253c2.767,-23.092 -3.976,-45.706 -19.052,-63.677c-15.426,-18.385 -37.277,-29.262 -61.546,-30.629c-45.516,-2.545 -86.196,-27.45 -108.746,-66.699c-22.17,-38.645 -23.314,-85.369 -3.021,-125c10.687,-20.801 12.118,-44.402 4.166,-66.412c-8.111,-22.296 -24.81,-39.759 -46.978,-49.141c-41.795,-17.684 -71.375,-54.644 -79.136,-98.95c-7.728,-43.988 7.348,-88.518 40.3,-119.02c17.398,-16.158 27.004,-37.977 26.971,-61.515c-0,-23.472 -9.573,-45.356 -26.971,-61.418c-32.952,-30.566 -48.028,-75.063 -40.3,-119.052c7.761,-44.274 37.341,-81.297 79.136,-99.014c22.168,-9.319 38.867,-26.844 46.978,-49.14c7.952,-21.979 6.521,-45.516 -4.166,-66.413c-20.293,-39.631 -19.149,-86.355 3.021,-124.968c22.55,-39.217 63.23,-64.185 108.746,-66.73c24.269,-1.304 46.12,-12.182 61.546,-30.63c15.076,-17.939 21.819,-40.554 19.052,-63.677c-5.311,-43.988 11.897,-87.404 45.961,-116.158c34.732,-29.325 81.52,-39.153 125.285,-26.049c23.187,6.902 47.552,4.04 68.513,-8.079c20.452,-11.8 34.701,-30.788 40.139,-53.53c10.306,-43.225 41.571,-78.276 83.715,-93.67c42.62,-15.585 89.885,-8.938 126.368,17.938c19.274,14.314 42.969,19.879 66.762,15.617c23.599,-4.166 43.765,-17.271 56.869,-37.023c24.777,-37.34 66.572,-59.637 111.77,-59.637c45.165,0 86.99,22.297 111.767,59.701c13.073,19.688 33.238,32.793 56.774,36.959c23.888,4.262 47.52,-1.303 66.826,-15.617c36.45,-26.812 83.652,-33.587 126.335,-18.003c42.144,15.459 73.442,50.446 83.747,93.735c5.408,22.742 19.658,41.73 40.141,53.53c20.929,12.119 45.293,14.981 68.48,8.079c43.765,-13.041 90.584,-3.276 125.349,26.049c34.064,28.754 51.241,72.17 45.929,116.158c-2.768,23.123 3.976,45.738 19.019,63.677c15.459,18.448 37.278,29.326 61.546,30.63c45.58,2.545 86.228,27.513 108.78,66.794c22.168,38.549 23.282,85.273 3.021,124.904c-10.687,20.897 -12.151,44.434 -4.166,66.413c8.141,22.296 24.808,39.758 46.946,49.14c41.824,17.717 71.406,54.74 79.165,99.014c7.731,43.989 -7.345,88.486 -40.297,119.052c-17.432,16.062 -27.004,37.946 -27.004,61.418c-0,23.474 9.572,45.357 27.004,61.515c32.952,30.502 48.028,75.032 40.297,119.02c-7.759,44.306 -37.341,81.266 -79.165,98.95c-22.138,9.382 -38.805,26.845 -46.946,49.205c-7.985,21.946 -6.521,45.547 4.166,66.348c20.261,39.631 19.147,86.355 -3.021,125c-22.552,39.249 -63.2,64.154 -108.78,66.699c-24.268,1.367 -46.087,12.244 -61.546,30.629c-15.043,17.971 -21.787,40.585 -19.019,63.677c5.312,43.988 -11.865,87.468 -45.96,116.253c-34.734,29.262 -81.584,39.058 -125.318,26.017c-23.187,-6.901 -47.551,-4.102 -68.48,8.016c-20.483,11.864 -34.733,30.884 -40.141,53.594c-10.305,43.257 -41.603,78.276 -83.747,93.702c-42.652,15.586 -89.885,8.875 -126.335,-18.034c-19.337,-14.217 -43.097,-19.752 -66.793,-15.585c-23.536,4.166 -43.734,17.334 -56.807,37.022c-24.777,37.341 -66.602,59.637 -111.767,59.637Z" style="fill-rule:nonzero;"/><path d="M246.486,1041.63c0,439.154 356.044,795.164 795.165,795.164c439.184,0 795.164,-356.01 795.164,-795.164c-0,-439.121 -355.98,-795.164 -795.164,-795.164c-439.121,-0 -795.165,356.043 -795.165,795.164Z" style="fill:#fff;fill-rule:nonzero;"/><path d="M1041.65,270.324c-425.285,-0 -771.31,346.024 -771.31,771.309c0,425.286 346.025,771.309 771.31,771.309c425.286,0 771.309,-346.023 771.309,-771.309c0,-425.285 -346.023,-771.309 -771.309,-771.309Zm-0,1590.33c-451.59,0 -819.019,-367.397 -819.019,-819.019c-0,-451.621 367.429,-819.019 819.019,-819.019c451.589,-0 819.019,367.398 819.019,819.019c-0,451.622 -367.43,819.019 -819.019,819.019Z" style="fill-rule:nonzero;"/><path d="M830.041,946.405l-212.244,-254.644l-212.278,254.644l424.522,-0Z" style="fill:#fff;fill-rule:nonzero;"/><path d="M456.473,922.55l322.614,-0l-161.29,-193.511l-161.324,193.511Zm373.568,47.71l-424.522,-0c-9.256,-0 -17.652,-5.344 -21.628,-13.741c-3.912,-8.365 -2.64,-18.32 3.308,-25.382l212.277,-254.643c4.516,-5.47 11.227,-8.588 18.321,-8.588c7.093,-0 13.804,3.118 18.32,8.588l212.246,254.643c5.947,7.062 7.22,17.017 3.306,25.382c-3.942,8.397 -12.372,13.741 -21.628,13.741Z" style="fill-rule:nonzero;"/><path d="M1253.26,946.405l-212.213,-254.644l-212.277,254.644l424.49,-0Z" style="fill:#fff;fill-rule:nonzero;"/><path d="M879.692,922.55l322.646,-0l-161.291,-193.511l-161.355,193.511Zm373.568,47.71l-424.49,-0c-9.257,-0 -17.684,-5.344 -21.629,-13.741c-3.911,-8.365 -2.64,-18.32 3.308,-25.382l212.245,-254.643c4.548,-5.47 11.259,-8.588 18.353,-8.588c7.061,-0 13.772,3.118 18.32,8.588l212.245,254.643c5.917,7.062 7.188,17.017 3.277,25.382c-3.945,8.397 -12.341,13.741 -21.629,13.741Z" style="fill-rule:nonzero;"/><path d="M1677.78,946.405l-212.244,-254.644l-212.278,254.644l424.522,-0Z" style="fill:#fff;fill-rule:nonzero;"/><path d="M1304.21,922.55l322.645,-0l-161.321,-193.511l-161.324,193.511Zm373.568,47.71l-424.522,-0c-9.256,-0 -17.652,-5.344 -21.597,-13.741c-3.912,-8.365 -2.64,-18.32 3.277,-25.382l212.277,-254.643c4.547,-5.47 11.258,-8.588 18.321,-8.588c7.091,-0 13.802,3.118 18.32,8.588l212.244,254.643c5.949,7.062 7.22,17.017 3.308,25.382c-3.942,8.397 -12.372,13.741 -21.628,13.741Z" style="fill-rule:nonzero;"/><path d="M1041.05,691.761l212.213,254.644l212.278,-254.644l-424.491,-0Z" style="fill:#fff;fill-rule:nonzero;"/><path d="M1091.97,715.616l161.29,193.511l161.355,-193.511l-322.645,-0Zm161.29,254.644c-7.06,-0 -13.771,-3.181 -18.32,-8.556l-212.246,-254.644c-5.915,-7.156 -7.189,-17.016 -3.275,-25.413c3.943,-8.397 12.372,-13.741 21.628,-13.741l424.491,-0c9.254,-0 17.683,5.344 21.628,13.741c3.912,8.397 2.64,18.257 -3.308,25.413l-212.246,254.644c-4.547,5.375 -11.258,8.556 -18.352,8.556Z" style="fill-rule:nonzero;"/><path d="M616.492,691.761l212.278,254.644l212.277,-254.644l-424.555,-0Z" style="fill:#fff;fill-rule:nonzero;"/><path d="M667.479,715.616l161.291,193.511l161.323,-193.511l-322.614,-0Zm161.291,254.644c-7.094,-0 -13.805,-3.181 -18.321,-8.556l-212.246,-254.644c-5.946,-7.156 -7.22,-17.016 -3.308,-25.413c3.945,-8.397 12.374,-13.741 21.63,-13.741l424.522,-0c9.256,-0 17.652,5.344 21.597,13.741c3.912,8.397 2.638,18.257 -3.277,25.413l-212.277,254.644c-4.549,5.375 -11.26,8.556 -18.32,8.556Z" style="fill-rule:nonzero;"/><path d="M405.519,946.405l423.251,-0l212.881,763.166l-636.132,-763.166Z" style="fill:#fff;fill-rule:nonzero;"/><path d="M456.473,970.26l532.347,638.676l-178.18,-638.676l-354.167,-0Zm585.178,763.166c-6.902,0 -13.677,-2.99 -18.321,-8.555l-636.131,-763.167c-5.948,-7.157 -7.22,-17.048 -3.308,-25.414c3.976,-8.397 12.372,-13.74 21.628,-13.74l423.251,-0c10.718,-0 20.102,7.156 22.963,17.462l212.915,763.166c3.02,10.814 -1.942,22.296 -11.897,27.513c-3.529,1.877 -7.315,2.735 -11.1,2.735Z" style="fill-rule:nonzero;"/><path d="M1677.78,946.405l-424.522,-0l-211.609,763.166l636.131,-763.166Z" style="fill:#fff;fill-rule:nonzero;"/><path d="M1271.42,970.26l-177.194,638.993l532.632,-638.993l-355.438,-0Zm-229.77,763.166c-3.753,0 -7.538,-0.858 -11.037,-2.735c-9.988,-5.217 -14.95,-16.634 -11.927,-27.513l211.609,-763.166c2.862,-10.306 12.277,-17.462 22.964,-17.462l424.522,-0c9.256,-0 17.686,5.343 21.628,13.74c3.912,8.366 2.641,18.257 -3.308,25.414l-636.131,763.167c-4.644,5.565 -11.419,8.555 -18.32,8.555Z" style="fill-rule:nonzero;"/><path d="M1347.88,1575.28l-44.052,0c-13.168,0 -23.855,-10.687 -23.855,-23.855c-0,-13.2 10.687,-23.855 23.855,-23.855l44.052,0c13.168,0 23.855,10.655 23.855,23.855c-0,13.168 -10.687,23.855 -23.855,23.855Z" style="fill-rule:nonzero;"/><path d="M1494.67,1575.28l-44.019,0c-13.168,0 -23.855,-10.687 -23.855,-23.855c-0,-13.2 10.687,-23.855 23.855,-23.855l44.019,0c13.168,0 23.855,10.655 23.855,23.855c0,13.168 -10.687,23.855 -23.855,23.855Z" style="fill-rule:nonzero;"/><path d="M1399.25,1670.7c-13.168,-0 -23.855,-10.687 -23.855,-23.855l0,-44.052c0,-13.168 10.687,-23.855 23.855,-23.855c13.168,-0 23.855,10.687 23.855,23.855l0,44.052c0,13.168 -10.687,23.855 -23.855,23.855Z" style="fill-rule:nonzero;"/><path d="M1399.25,1523.88c-13.168,-0 -23.855,-10.687 -23.855,-23.855l0,-44.02c0,-13.2 10.687,-23.855 23.855,-23.855c13.168,-0 23.855,10.655 23.855,23.855l0,44.02c0,13.168 -10.687,23.855 -23.855,23.855Z" style="fill-rule:nonzero;"/><path d="M714.298,540.871l-44.02,-0c-13.168,-0 -23.855,-10.687 -23.855,-23.855c0,-13.168 10.687,-23.855 23.855,-23.855l44.02,0c13.168,0 23.855,10.687 23.855,23.855c-0,13.168 -10.687,23.855 -23.855,23.855Z" style="fill-rule:nonzero;"/><path d="M861.118,540.871l-44.022,-0c-13.168,-0 -23.855,-10.687 -23.855,-23.855c0,-13.168 10.687,-23.855 23.855,-23.855l44.022,0c13.168,0 23.855,10.687 23.855,23.855c-0,13.168 -10.687,23.855 -23.855,23.855Z" style="fill-rule:nonzero;"/><path d="M765.698,636.291c-13.168,-0 -23.855,-10.687 -23.855,-23.855l0,-44.053c0,-13.168 10.687,-23.855 23.855,-23.855c13.168,0 23.855,10.687 23.855,23.855l-0,44.053c-0,13.168 -10.687,23.855 -23.855,23.855Z" style="fill-rule:nonzero;"/><path d="M765.698,489.504c-13.168,-0 -23.855,-10.687 -23.855,-23.855l0,-44.053c0,-13.168 10.687,-23.855 23.855,-23.855c13.168,0 23.855,10.687 23.855,23.855l-0,44.053c-0,13.168 -10.687,23.855 -23.855,23.855Z" style="fill-rule:nonzero;"/><path d="M1064.23,445.451l-44.052,0c-13.168,0 -23.855,-10.687 -23.855,-23.855c-0,-13.168 10.687,-23.855 23.855,-23.855l44.052,0c13.168,0 23.855,10.687 23.855,23.855c0,13.168 -10.687,23.855 -23.855,23.855Z" style="fill-rule:nonzero;"/><path d="M1211.02,445.451l-44.021,0c-13.168,0 -23.855,-10.687 -23.855,-23.855c-0,-13.168 10.687,-23.855 23.855,-23.855l44.021,0c13.168,0 23.855,10.687 23.855,23.855c0,13.168 -10.687,23.855 -23.855,23.855Z" style="fill-rule:nonzero;"/><path d="M1115.6,540.871c-13.168,-0 -23.855,-10.687 -23.855,-23.855l0,-44.052c0,-13.168 10.687,-23.855 23.855,-23.855c13.168,-0 23.855,10.687 23.855,23.855l0,44.052c0,13.168 -10.687,23.855 -23.855,23.855Z" style="fill-rule:nonzero;"/><path d="M1115.6,394.084c-13.168,-0 -23.855,-10.687 -23.855,-23.855l0,-44.052c0,-13.168 10.687,-23.855 23.855,-23.855c13.168,-0 23.855,10.687 23.855,23.855l0,44.052c0,13.168 -10.687,23.855 -23.855,23.855Z" style="fill-rule:nonzero;"/><path d="M438.089,1327.77l-44.02,0c-13.168,0 -23.855,-10.687 -23.855,-23.855c0,-13.168 10.687,-23.855 23.855,-23.855l44.02,0c13.168,0 23.855,10.687 23.855,23.855c-0,13.168 -10.687,23.855 -23.855,23.855Z" style="fill-rule:nonzero;"/><path d="M584.909,1327.77l-44.053,0c-13.168,0 -23.854,-10.687 -23.854,-23.855c-0,-13.168 10.686,-23.855 23.854,-23.855l44.053,0c13.168,0 23.855,10.687 23.855,23.855c-0,13.168 -10.687,23.855 -23.855,23.855Z" style="fill-rule:nonzero;"/><path d="M489.489,1423.18c-13.168,-0 -23.855,-10.687 -23.855,-23.855l0,-44.02c0,-13.2 10.687,-23.854 23.855,-23.854c13.168,-0 23.855,10.654 23.855,23.854l0,44.02c0,13.168 -10.687,23.855 -23.855,23.855Z" style="fill-rule:nonzero;"/><path d="M489.489,1276.34c-13.168,-0 -23.855,-10.687 -23.855,-23.855l0,-43.99c0,-13.168 10.687,-23.854 23.855,-23.854c13.168,-0 23.855,10.686 23.855,23.854l0,43.99c0,13.168 -10.687,23.855 -23.855,23.855Z" style="fill-rule:nonzero;"/><path d="M1041.65,1709.57l-212.881,-763.166l424.49,-0l-211.609,763.166Z" style="fill:#fff;fill-rule:nonzero;"/><path d="M860.194,970.26l181.393,650.285l180.311,-650.285l-361.704,-0Zm181.457,763.166c-10.718,0 -20.103,-7.125 -22.964,-17.461l-212.914,-763.168c-1.971,-7.187 -0.509,-14.917 3.976,-20.801c4.548,-5.979 11.546,-9.446 19.021,-9.446l424.49,-0c7.474,-0 14.504,3.467 18.988,9.383c4.549,5.947 6.013,13.677 4.009,20.801l-211.609,763.167c-2.864,10.4 -12.277,17.525 -22.964,17.525l-0.033,0Z" style="fill-rule:nonzero;"/></g></g></svg>