<?xml version="1.0" encoding="UTF-8" standalone="no"?><!DOCTYPE svg PUBLIC "-//W3C//DTD SVG 1.1//EN" "http://www.w3.org/Graphics/SVG/1.1/DTD/svg11.dtd"><svg width="100%" height="100%" viewBox="0 0 2084 2084" version="1.1" xmlns="http://www.w3.org/2000/svg" xmlns:xlink="http://www.w3.org/1999/xlink" xml:space="preserve" xmlns:serif="http://www.serif.com/" style="fill-rule:evenodd;clip-rule:evenodd;stroke-linejoin:round;stroke-miterlimit:2;"><rect id="画板1" x="0" y="0" width="2083.33" height="2083.33" style="fill:none;"/><clipPath id="_clip1"><rect id="画板11" serif:id="画板1" x="0" y="0" width="2083.33" height="2083.33"/></clipPath><g clip-path="url(#_clip1)"><g><path d="M1614.19,1677.84l-158.968,-0l-413.542,381.673l-413.512,-381.673l-158.999,-0c-140.551,-0 -254.449,-113.93 -254.449,-254.449l0,-1145.08c0,-140.52 113.898,-254.449 254.449,-254.449l1145.02,-0c140.519,-0 254.449,113.929 254.449,254.449l-0,1145.08c-0,140.519 -113.93,254.449 -254.449,254.449Z" style="fill:#fff;fill-rule:nonzero;"/><path d="M1868.64,342.775l-0,-64.471c-0,-140.52 -113.93,-254.449 -254.449,-254.449l-1145.02,-0c-140.551,-0 -254.449,113.929 -254.449,254.449l0,1145.08c0,140.519 113.898,254.449 254.449,254.449l33.396,-0c32.856,-732.845 629.158,-1318.52 1366.07,-1335.06Z" style="fill:#fff;fill-rule:nonzero;"/><path d="M469.172,47.709c-127.161,0 -230.594,103.434 -230.594,230.595l-0,1145.02c-0,127.161 103.433,230.595 230.594,230.595l158.999,-0c5.979,-0 11.768,2.29 16.157,6.329l397.355,366.82l397.353,-366.82c4.389,-4.039 10.178,-6.329 16.189,-6.329l158.968,-0c127.16,-0 230.594,-103.434 230.594,-230.595l0,-1145.02c0,-127.161 -103.434,-230.595 -230.594,-230.595l-1145.02,0Zm572.511,2035.66c-5.821,-0 -11.642,-2.131 -16.19,-6.329l-406.641,-375.408l-149.68,-0c-153.497,-0 -278.303,-124.807 -278.303,-278.304l-0,-1145.02c-0,-153.433 124.806,-278.304 278.303,-278.304l1145.02,-0c153.464,-0 278.304,124.871 278.304,278.304l-0,1145.02c-0,153.497 -124.84,278.304 -278.304,278.304l-149.648,-0l-406.705,375.408c-4.548,4.198 -10.369,6.329 -16.157,6.329Z" style="fill-rule:nonzero;"/><path d="M151.079,1770.58l-127.224,0c-13.168,0 -23.855,-10.686 -23.855,-23.854c0,-13.168 10.687,-23.855 23.855,-23.855l127.224,0c13.168,0 23.855,10.687 23.855,23.855c-0,13.168 -10.687,23.854 -23.855,23.854Z" style="fill-rule:nonzero;"/><path d="M87.467,1834.2c-13.168,-0 -23.855,-10.687 -23.855,-23.855l0,-127.224c0,-13.168 10.687,-23.855 23.855,-23.855c13.168,-0 23.854,10.687 23.854,23.855l0,127.224c0,13.168 -10.686,23.855 -23.854,23.855Z" style="fill-rule:nonzero;"/><path d="M111.321,1555.89c0,13.168 -10.654,23.855 -23.854,23.855c-13.168,-0 -23.855,-10.687 -23.855,-23.855c0,-13.168 10.687,-23.855 23.855,-23.855c13.2,0 23.854,10.687 23.854,23.855Z" style="fill-rule:nonzero;"/><path d="M111.321,1460.47c0,13.167 -10.654,23.854 -23.854,23.854c-13.168,0 -23.855,-10.687 -23.855,-23.854c0,-13.168 10.687,-23.855 23.855,-23.855c13.2,0 23.854,10.687 23.854,23.855Z" style="fill-rule:nonzero;"/><path d="M111.321,1333.25c0,13.168 -10.654,23.855 -23.854,23.855c-13.168,-0 -23.855,-10.687 -23.855,-23.855c0,-13.231 10.687,-23.854 23.855,-23.854c13.2,-0 23.854,10.623 23.854,23.854Z" style="fill-rule:nonzero;"/><path d="M111.321,1142.35c0,13.168 -10.654,23.854 -23.854,23.854c-13.168,0 -23.855,-10.686 -23.855,-23.854c0,-13.168 10.687,-23.855 23.855,-23.855c13.2,0 23.854,10.687 23.854,23.855Z" style="fill-rule:nonzero;"/><path d="M2059.48,111.321l-127.225,0c-13.168,0 -23.854,-10.686 -23.854,-23.854c-0,-13.168 10.686,-23.855 23.854,-23.855l127.225,0c13.168,0 23.854,10.687 23.854,23.855c0,13.168 -10.686,23.854 -23.854,23.854Z" style="fill-rule:nonzero;"/><path d="M1995.87,174.934c-13.167,-0 -23.854,-10.687 -23.854,-23.855l-0,-127.224c-0,-13.168 10.687,-23.855 23.854,-23.855c13.168,-0 23.855,10.687 23.855,23.855l0,127.224c0,13.168 -10.687,23.855 -23.855,23.855Z" style="fill-rule:nonzero;"/><path d="M1972.01,278.367c-0,-13.168 10.687,-23.854 23.854,-23.854c13.168,-0 23.855,10.686 23.855,23.854c0,13.168 -10.687,23.855 -23.855,23.855c-13.167,-0 -23.854,-10.687 -23.854,-23.855Z" style="fill-rule:nonzero;"/><path d="M1972.01,405.592c-0,-13.168 10.687,-23.855 23.854,-23.855c13.168,0 23.855,10.687 23.855,23.855c0,13.167 -10.687,23.854 -23.855,23.854c-13.167,0 -23.854,-10.687 -23.854,-23.854Z" style="fill-rule:nonzero;"/><path d="M1972.01,564.622c-0,-13.167 10.687,-23.854 23.854,-23.854c13.168,-0 23.855,10.687 23.855,23.854c0,13.168 -10.687,23.855 -23.855,23.855c-13.167,-0 -23.854,-10.687 -23.854,-23.855Z" style="fill-rule:nonzero;"/><path d="M1972.01,787.265c-0,-13.168 10.687,-23.854 23.854,-23.854c13.168,-0 23.855,10.686 23.855,23.854c0,13.168 -10.687,23.855 -23.855,23.855c-13.167,-0 -23.854,-10.687 -23.854,-23.855Z" style="fill-rule:nonzero;"/><path d="M341.948,1255.96c-13.168,0 -23.855,-10.687 -23.855,-23.854l0,-342.966c0,-13.167 10.687,-23.854 23.855,-23.854c13.168,-0 23.854,10.687 23.854,23.854l0,342.966c0,13.167 -10.686,23.854 -23.854,23.854Z" style="fill-rule:nonzero;"/><path d="M341.948,1453.64c-13.168,-0 -23.855,-10.688 -23.855,-23.855l0,-70.451c0,-13.168 10.687,-23.854 23.855,-23.854c13.168,-0 23.854,10.686 23.854,23.854l0,70.451c0,13.167 -10.686,23.855 -23.854,23.855Z" style="fill-rule:nonzero;"/><path d="M1741.55,1033.32c-13.168,0 -23.855,-10.686 -23.855,-23.854l0,-406.641c0,-13.168 10.687,-23.855 23.855,-23.855c13.198,0 23.854,10.687 23.854,23.855l0,406.641c0,13.168 -10.656,23.854 -23.854,23.854Z" style="fill-rule:nonzero;"/><path d="M1741.55,1294.61c-13.168,-0 -23.855,-10.687 -23.855,-23.855l0,-134.063c0,-13.167 10.687,-23.854 23.855,-23.854c13.198,-0 23.854,10.687 23.854,23.854l0,134.063c0,13.168 -10.656,23.855 -23.854,23.855Z" style="fill-rule:nonzero;"/><path d="M1041.68,214.691c-216.791,0 -393.157,176.365 -393.157,393.156c0,61.449 49.873,111.321 111.322,111.321c61.482,0 111.321,-49.872 111.321,-111.321c0,-94.051 76.494,-170.513 170.514,-170.513c94.018,0 170.48,76.462 170.48,170.513c0,60.813 -23.25,80.883 -90.456,129.769c-76.177,55.406 -191.346,139.215 -191.346,333.551l0,42.906c0,61.513 49.84,111.322 111.322,111.322c61.448,-0 111.321,-49.809 111.321,-111.322l0,-42.906c0,-77.862 28.785,-101.907 99.712,-153.529c72.518,-52.798 182.09,-132.504 182.09,-309.791c-0,-216.791 -176.365,-393.156 -393.123,-393.156Z" style="fill:#fff;fill-rule:nonzero;"/><path d="M1041.68,1378.48c-61.482,-0 -111.322,49.871 -111.322,111.321l0,13.04c0,61.482 49.84,111.322 111.322,111.322c61.448,-0 111.321,-49.84 111.321,-111.322l0,-13.04c0,-61.45 -49.873,-111.321 -111.321,-111.321Z" style="fill:#fff;fill-rule:nonzero;"/><path d="M1041.68,413.48c107.154,-0 194.335,87.212 194.335,194.367c-0,72.868 -32.538,99.776 -100.254,149.043c-76.652,55.788 -181.548,132.123 -181.548,314.277l-0,42.906c-0,48.282 39.217,87.467 87.467,87.467c48.217,0 87.467,-39.185 87.467,-87.467l-0,-42.906c-0,-89.153 35.558,-118.987 109.54,-172.835c72.708,-52.925 172.261,-125.348 172.261,-290.485c0,-203.623 -165.646,-369.301 -369.268,-369.301c-203.655,-0 -369.302,165.678 -369.302,369.301c0,48.218 39.249,87.467 87.467,87.467c48.25,-0 87.467,-39.249 87.467,-87.467c-0,-107.155 87.18,-194.367 194.368,-194.367Zm-0,835.769c-74.555,0 -135.176,-60.622 -135.176,-135.176l-0,-42.906c-0,-206.454 125.92,-298.056 201.173,-352.857c67.429,-49.014 80.628,-62.817 80.628,-110.463c0,-80.883 -65.774,-146.658 -146.625,-146.658c-80.852,-0 -146.659,65.775 -146.659,146.658c-0,74.554 -60.622,135.176 -135.176,135.176c-74.554,-0 -135.176,-60.622 -135.176,-135.176c-0,-229.959 187.052,-417.01 417.011,-417.01c229.925,-0 416.978,187.051 416.978,417.01c-0,189.405 -120.068,276.809 -191.855,329.066c-69.846,50.826 -89.947,68.383 -89.947,134.254l-0,42.906c-0,74.554 -60.655,135.176 -135.176,135.176Z" style="fill-rule:nonzero;"/><path d="M1041.68,1402.33c-48.25,0 -87.467,39.249 -87.467,87.467l-0,13.04c-0,48.25 39.217,87.467 87.467,87.467c48.217,0 87.467,-39.217 87.467,-87.467l-0,-13.04c-0,-48.218 -39.25,-87.467 -87.467,-87.467Zm-0,235.684c-74.555,-0 -135.176,-60.623 -135.176,-135.177l-0,-13.04c-0,-74.554 60.621,-135.176 135.176,-135.176c74.521,0 135.176,60.622 135.176,135.176l-0,13.04c-0,74.554 -60.655,135.177 -135.176,135.177Z" style="fill-rule:nonzero;"/></g></g></svg>