<?xml version="1.0" encoding="UTF-8" standalone="no"?><!DOCTYPE svg PUBLIC "-//W3C//DTD SVG 1.1//EN" "http://www.w3.org/Graphics/SVG/1.1/DTD/svg11.dtd"><svg width="100%" height="100%" viewBox="0 0 2084 2084" version="1.1" xmlns="http://www.w3.org/2000/svg" xmlns:xlink="http://www.w3.org/1999/xlink" xml:space="preserve" xmlns:serif="http://www.serif.com/" style="fill-rule:evenodd;clip-rule:evenodd;stroke-linejoin:round;stroke-miterlimit:2;"><rect id="画板1" x="0" y="0" width="2083.33" height="2083.33" style="fill:none;"/><clipPath id="_clip1"><rect id="画板11" serif:id="画板1" x="0" y="0" width="2083.33" height="2083.33"/></clipPath><g clip-path="url(#_clip1)"><g><path d="M1827.84,889.181c-260.79,-78.963 -518.139,-336.218 -597.009,-597.009l778.557,-181.455l-181.548,778.464Zm-943.179,697.639c-98.866,-29.576 -196.802,-103.139 -266.463,-192.706l-2.791,-3.627c-23.53,-30.694 -43.899,-63.244 -59.524,-96.447c89.101,79.797 180.991,144.25 264.604,184.52c48.735,23.536 92.169,37.483 129.93,42.598l-65.756,65.662Zm141.277,-141.275c-25.763,25.76 -93.937,16.553 -178.107,-23.905c-90.682,-43.71 -192.524,-118.489 -289.343,-211.586l107.515,-107.516c101.935,98.03 209.823,177.084 306.735,223.678c48.829,23.535 92.263,37.579 130.023,42.597l-76.823,76.732Zm152.345,-152.254c-25.763,25.67 -93.937,16.559 -178.108,-23.995c-90.681,-43.711 -192.523,-118.393 -289.436,-211.496l107.608,-107.606c142.673,137.091 313.711,249.534 436.759,266.275l-76.823,76.822Zm152.251,-152.345c-53.013,52.924 -260.79,-37.011 -467.357,-235.49l107.422,-107.516c142.672,137 313.804,249.353 436.851,266.093l-76.916,76.913Zm152.438,-152.344l-0.093,-0c-53.014,53.111 -260.79,-37.012 -467.451,-235.491l107.516,-107.516c142.765,137.092 313.803,249.444 436.851,266.185l-76.823,76.822Zm117.188,-138.301c-81.939,8.652 -257.349,-81.471 -432.387,-249.534l93.657,-93.563c83.613,134.951 204.522,257.067 338.73,343.097Zm473.96,-804.315c-7.719,-7.72 -18.973,-10.978 -29.575,-8.464l-860.124,200.614l-19.811,14.231l-3.72,24.183c14.51,58.31 37.761,116.814 67.895,173.825l-585.382,585.292l-0.093,0.187l-152.252,152.248l-15.532,15.441c-7.813,7.908 -10.975,19.25 -8.371,29.95c15.16,60.916 44.643,121.185 83.892,176.618c-41.295,50.965 -171.69,187.778 -345.705,132.346c-16.555,-5.302 -34.319,3.814 -39.621,20.464c-5.394,16.644 3.814,34.412 20.462,39.714c34.691,11.064 67.801,15.81 99.331,15.81c146.95,-0 257.163,-103.333 305.061,-157.834c29.762,34.321 63.244,65.945 99.052,93.472l-438.712,438.618c-12.37,12.37 -12.37,32.369 0,44.738l22.322,9.208l22.322,-9.208l446.896,-446.895c46.223,28.553 94.959,50.13 144.066,62.312l7.627,0.835l22.321,-9.208l753.166,-753.162c57.013,29.944 115.608,53.383 173.923,67.802l7.626,0.931l16.556,-4.655l14.23,-19.806l200.521,-860.128c2.511,-10.507 -0.651,-21.668 -8.371,-29.479Z" style="fill:#0b0b16;fill-rule:nonzero;"/><path d="M57.83,1659.65c-11.718,13.3 -10.416,33.299 2.883,44.925l20.834,7.902c8.835,-0 17.392,-3.815 23.716,-10.786c11.719,-13.209 10.417,-33.203 -2.883,-44.55c-12.928,-11.626 -32.831,-10.326 -44.55,2.509Z" style="fill:#0b0b16;fill-rule:nonzero;"/><path d="M62.573,1538c3.442,-17.393 -7.626,-33.856 -24.739,-37.392c-17.021,-3.718 -33.762,7.629 -37.203,24.648c-3.441,17.115 7.533,33.855 24.646,37.295l6.232,0.653c14.881,0 27.902,-10.416 31.064,-25.204Z" style="fill:#0b0b16;fill-rule:nonzero;"/><path d="M165.717,1403.32c-5.766,-16.463 -23.809,-25.301 -40.271,-19.721c-16.37,5.399 -25.298,23.439 -19.903,39.901c4.371,13.301 16.74,21.486 30.041,21.486l10.137,-1.583c16.369,-5.58 25.298,-23.343 19.996,-40.083Z" style="fill:#0b0b16;fill-rule:nonzero;"/><path d="M268.955,1468.14l20.833,7.532c8.929,0 17.764,-3.44 23.81,-10.785c11.626,-12.926 10.044,-33.203 -2.884,-44.551c-13.299,-11.347 -33.11,-10.042 -44.549,3.162c-11.719,13.023 -10.138,32.925 2.79,44.273l-0,0.369Z" style="fill:#0b0b16;fill-rule:nonzero;"/><path d="M246.54,1741.86l0.93,-0.278c16.741,-5.671 25.298,-23.808 19.625,-40.18c-5.674,-16.462 -23.717,-25.295 -40.18,-19.527l-1.208,0.465l-0,-0.278c-16.462,5.762 -25.67,23.711 -19.997,40.27c4.465,13.301 16.834,21.764 30.041,21.764l9.859,-1.861l0.93,-0.375Z" style="fill:#0b0b16;fill-rule:nonzero;"/></g></g></svg>