<?xml version="1.0" encoding="UTF-8" standalone="no"?><!DOCTYPE svg PUBLIC "-//W3C//DTD SVG 1.1//EN" "http://www.w3.org/Graphics/SVG/1.1/DTD/svg11.dtd"><svg width="100%" height="100%" viewBox="0 0 2084 2084" version="1.1" xmlns="http://www.w3.org/2000/svg" xmlns:xlink="http://www.w3.org/1999/xlink" xml:space="preserve" xmlns:serif="http://www.serif.com/" style="fill-rule:evenodd;clip-rule:evenodd;stroke-linejoin:round;stroke-miterlimit:2;"><rect id="画板1" x="0" y="0" width="2083.33" height="2083.33" style="fill:none;"/><g id="画板11" serif:id="画板1"><g><path d="M2017.43,751.874c-77.661,-28.832 -176.337,-37.947 -222.283,7.068c-13.766,13.672 -34.224,43.991 -15.997,95.144c16.928,47.991 12.369,95.795 -12.091,124.441c-14.884,17.392 -37.483,26.413 -65.292,28.459c-7.533,-37.295 -32.828,-68.172 -67.801,-82.867c-36.268,-15.067 -72.45,-27.808 -108.718,-38.504l233.069,-179.872c11.347,-8.835 15.344,-24.181 9.764,-37.388l-77.287,-180.802c-3.996,-9.393 -12.182,-16.182 -22.133,-18.507c-9.86,-1.954 -20.367,0.557 -27.906,7.44l-102.678,91.796l-87.141,-65.197l74.312,-86.122c5.671,-6.604 8.367,-15.346 7.437,-23.81c-0.931,-8.742 -5.206,-16.555 -12.182,-21.856l-160.063,-122.766c-6.88,-5.302 -15.344,-7.348 -23.807,-6.139c-8.464,1.209 -16.093,5.767 -21.111,12.742l-149.277,207.866l-5.206,-13.206c-6.142,-14.975 -15.996,-27.716 -27.44,-38.505c36.926,-61.941 61.664,-155.132 5.12,-251.764c-17.393,-29.39 -6.233,-44.735 -2.515,-49.758c14.322,-19.623 49.017,-31.249 75.612,-25.204c24.092,5.581 27.163,21.763 28.184,27.157c8.93,47.247 54.592,76.637 108.627,69.475c49.483,-6.417 97.195,-45.014 92.727,-106.49c-0.556,-8.557 1.022,-9.115 3.906,-10.045c25.947,-8.836 102.212,19.066 131.418,62.592c15.156,22.601 8.186,36.086 -0.744,46.224c-44.271,50.408 -24.182,133.555 19.624,181.639c44.641,49.106 106.771,56.733 158.388,19.438c36.92,-26.6 77.099,-13.394 99.051,10.23c7.067,7.627 28.365,34.505 6.789,60.081c-36.552,43.061 -40.645,100.074 -10.513,145.181c28.928,43.247 79.988,60.826 130.3,44.642c2.883,0.372 14.044,8.836 24.738,33.11c15.35,34.691 16.928,70.591 13.119,84.077Zm-391.553,312.961l-820.583,820.769l-78.592,78.403c-12.086,12.185 -28.735,17.206 -45.662,13.858c-16.928,-3.255 -30.416,-14.322 -36.927,-30.227c-132.156,-316.402 -86.494,-640.617 119.05,-846.252c127.603,-127.695 301.147,-193.636 490.041,-193.636c115.513,-0 236.418,24.553 356.398,74.683c15.809,6.51 26.782,19.903 30.131,36.83c3.35,16.927 -1.674,33.575 -13.856,45.572Zm-1156.05,902.986l-353.14,-353.326c-33.855,-33.761 -52.457,-78.589 -52.457,-126.394c-0,-8.928 1.305,-17.578 2.605,-26.134c11.813,15.625 27.435,28.18 46.128,35.992c128.069,53.479 257.348,79.706 380.858,79.706l12.926,-0.372c-2.044,127.696 23.626,261.902 79.058,394.713c7.623,18.508 20.089,33.947 35.342,45.759c-53.666,7.44 -110.029,-8.65 -151.32,-49.944Zm909.216,-1518.59c-13.953,-10.323 -33.577,-7.626 -44.18,6.417l-120.628,159.783c-6.136,-26.785 -13.481,-53.57 -22.133,-80.449l155.783,-216.516l107.61,82.682l-55.25,64.08l-21.202,-15.997Zm-88.912,396.48c-17.205,-0.743 -34.23,-1.022 -51.151,-0.836c0.925,-47.805 -1.959,-96.447 -8.93,-145.553l136.346,-180.709l125.464,93.935l-201.729,233.163Zm257.807,-201.448l102.122,-91.517l50.317,117.93l-252.976,195.125c-26.692,-5.673 -53.292,-10.045 -79.614,-13.393l180.151,-208.145Zm-1426.88,712.883l10.604,-10.696l888.565,-888.476c9.673,-9.765 22.23,-14.881 35.53,-14.881l10.229,1.023c16.74,3.348 30.228,14.23 36.83,30.041c52.735,126.394 76.077,253.531 72.915,374.158c-175.219,15.998 -335.094,86.309 -457.305,208.332c-122.023,122.115 -192.237,281.991 -208.233,457.027c-120.349,2.604 -247.209,-21.485 -372.951,-73.94c-15.815,-6.696 -26.697,-20.088 -30.041,-36.922c-3.349,-17.02 1.675,-33.482 13.857,-45.666Zm1924,-745.714c-33.111,-47.247 -70.406,-41.387 -84.916,-36.737c-27.531,8.835 -48.268,-4.464 -58.406,-19.903c-11.16,-16.741 -15.344,-43.62 6.233,-69.195c35.433,-41.946 31.993,-99.702 -8.742,-143.694c-41.388,-44.735 -117.284,-65.382 -182.105,-18.507c-32.458,23.437 -58.593,7.068 -74.868,-10.789c-27.344,-29.947 -36.551,-77.38 -18.88,-97.469c31.806,-36.365 33.849,-81.194 5.671,-123.046c-42.597,-63.336 -145.741,-107.327 -204.425,-87.145c-31.528,10.881 -48.733,38.69 -46.224,74.311c2.327,33.203 -33.856,38.876 -37.852,39.341c-1.487,0.186 -34.133,4.185 -38.504,-18.694c-7.442,-39.528 -35.252,-67.615 -76.265,-76.915c-51.061,-11.533 -111.51,9.765 -140.626,49.478c-24.92,34.226 -25.294,77.566 -1.021,119.047c46.133,78.589 19.158,149.273 -6.693,190.567c-37.295,-7.162 -75.152,4.464 -101.843,31.157l-899.17,899.172l-4.467,4.371c-45.663,45.759 -70.867,106.677 -70.867,171.315c0,64.546 25.204,125.371 70.867,171.129l353.236,353.326c47.246,47.247 109.371,70.777 171.313,70.777c61.943,0 123.977,-23.53 171.126,-70.777l3.724,-3.813l0.091,0l899.078,-899.172c11.161,-11.068 18.881,-24.367 24.461,-38.504c50.226,-1.302 91.892,-18.602 119.98,-51.432c39.151,-45.758 48.268,-117.372 23.529,-186.754c-7.254,-20.647 -1.118,-26.878 0.835,-28.832c18.414,-18.043 85.847,-19.345 156.9,7.348c27.532,10.138 53.383,3.999 69.476,-16.834c33.946,-43.805 9.951,-139.136 -20.646,-183.127Z" style="fill:#0b0b16;fill-rule:nonzero;"/></g></g></svg>