<?xml version="1.0" encoding="UTF-8" standalone="no"?><!DOCTYPE svg PUBLIC "-//W3C//DTD SVG 1.1//EN" "http://www.w3.org/Graphics/SVG/1.1/DTD/svg11.dtd"><svg width="100%" height="100%" viewBox="0 0 2084 2084" version="1.1" xmlns="http://www.w3.org/2000/svg" xmlns:xlink="http://www.w3.org/1999/xlink" xml:space="preserve" xmlns:serif="http://www.serif.com/" style="fill-rule:evenodd;clip-rule:evenodd;stroke-linejoin:round;stroke-miterlimit:2;"><rect id="画板1" x="0" y="0" width="2083.33" height="2083.33" style="fill:none;"/><clipPath id="_clip1"><rect id="画板11" serif:id="画板1" x="0" y="0" width="2083.33" height="2083.33"/></clipPath><g clip-path="url(#_clip1)"><g><path d="M2020.37,851.135l-1957.21,0l0,-126.308l1957.21,0l0,126.308Zm-6.971,209.925c-45.949,44.272 -103.149,68.64 -163.608,68.64c-67.243,0 -130.495,-29.856 -178.39,-84.08c-60.181,-67.991 -140.259,-105.382 -225.833,-105.382c-85.38,0 -165.464,37.391 -225.639,105.382c-47.714,54.132 -111.148,84.08 -178.396,84.08c-66.965,0 -130.399,-29.948 -178.391,-84.08c-59.903,-67.991 -139.981,-105.382 -225.548,-105.382c-85.387,0 -165.652,37.391 -225.646,105.382c-47.901,54.224 -111.147,84.08 -178.396,84.08c-60.453,0 -117.841,-24.368 -163.693,-68.64l75.616,-146.771l1792.4,0l75.525,146.771Zm-721.669,2.324c44.087,-38.692 97.66,-59.898 153.838,-59.898c56.275,0 109.939,21.206 154.213,59.898l-308.051,0Zm-808.162,0c44.087,-38.692 97.75,-59.898 154.026,-59.898c56.269,0 109.932,21.206 154.019,59.898l-308.045,0Zm1536.8,157.931c0,52.272 -42.69,94.685 -94.866,94.685l-1767.66,0c-52.363,0 -94.685,-42.413 -94.685,-94.685c0,-26.042 10.696,-49.481 27.811,-66.502c43.809,24.648 92.267,37.949 142.581,37.949c67.061,0 130.773,-23.346 184.255,-66.131l439.755,-0c53.385,42.785 117.006,66.131 183.971,66.131c67.248,0 130.772,-23.346 184.254,-66.131l439.749,-0c53.391,42.785 117.194,66.131 184.255,66.131c50.507,0 98.965,-13.301 142.587,-37.949c17.019,17.021 27.992,40.46 27.992,66.502Zm-131.698,261.545l-1694.18,-0l-0,-100.637l1694.18,-0l0,100.637Zm0,163.884l-297.077,0l131.516,-100.73l165.561,-0l0,100.73Zm131.698,189.369l-1957.21,-0l0,-126.215l1180.21,0l143.324,71.617l14.045,3.256l19.256,-6.51l89.195,-68.363l511.181,0l0,126.215Zm-623.163,-119.983l-340.421,-170.116l562.433,-0l-222.012,170.116Zm-1202.72,-170.116l721.385,-0l201.274,100.73l-922.659,0l-0,-100.73Zm725.387,-1269.77c76.269,-38.879 167.23,-38.879 243.595,-0l756.73,385.527l-1757.15,0l756.826,-385.527Zm1163.46,606.426l0,-189.369l-0.369,-1.396l-1.584,-8.65l-0.743,-2.604l-6.324,-9.394l-2.231,-1.673l-5.955,-4.373l-874.014,-445.146c-94.22,-47.992 -206.667,-47.992 -300.983,0l-873.923,445.146l-5.95,4.373l-2.236,1.673l-6.324,9.394l-0.744,2.512l-1.675,8.742l-0.278,1.396l0,189.369c0,17.393 14.141,31.623 31.529,31.623l43.065,0l-70.966,137.749c-6.046,11.532 -4.372,25.577 4.28,35.343c9.861,11.162 20.369,21.207 31.251,30.601c-24.274,27.716 -39.159,63.712 -39.159,103.333c0,77.943 57.019,142.585 131.517,155.141l-0,106.404l-99.988,-0c-17.388,-0 -31.529,14.138 -31.529,31.624c0,17.393 14.141,31.53 31.529,31.53l99.988,-0l-0,100.73l-99.988,0c-17.388,0 -31.529,14.137 -31.529,31.531l0,189.368c0,17.393 14.141,31.624 31.529,31.624l2020.28,-0c17.394,-0 31.529,-14.231 31.529,-31.624l0,-189.368c0,-17.394 -14.135,-31.531 -31.529,-31.531l-100.169,0l0,-100.73l100.169,-0c17.207,-0 31.529,-14.137 31.529,-31.53c0,-17.486 -14.322,-31.624 -31.529,-31.624l-100.169,-0l0,-106.404c74.685,-12.556 131.698,-77.105 131.698,-155.141c0,-39.621 -15.066,-75.431 -39.528,-103.055c10.883,-9.394 21.578,-19.625 31.53,-30.879c8.56,-9.766 10.417,-23.811 4.371,-35.343l-70.78,-137.749l42.878,0c17.394,0 31.529,-14.23 31.529,-31.623Z" style="fill:#0b0b16;fill-rule:nonzero;"/></g></g></svg>