<?xml version="1.0" encoding="UTF-8" standalone="no"?><!DOCTYPE svg PUBLIC "-//W3C//DTD SVG 1.1//EN" "http://www.w3.org/Graphics/SVG/1.1/DTD/svg11.dtd"><svg width="100%" height="100%" viewBox="0 0 2084 2084" version="1.1" xmlns="http://www.w3.org/2000/svg" xmlns:xlink="http://www.w3.org/1999/xlink" xml:space="preserve" xmlns:serif="http://www.serif.com/" style="fill-rule:evenodd;clip-rule:evenodd;stroke-linejoin:round;stroke-miterlimit:2;"><rect id="画板1" x="0" y="0" width="2083.33" height="2083.33" style="fill:none;"/><clipPath id="_clip1"><rect id="画板11" serif:id="画板1" x="0" y="0" width="2083.33" height="2083.33"/></clipPath><g clip-path="url(#_clip1)"><g><path d="M242.393,391c-0,0 203.372,5.98 294.212,155.058l209.988,-188.837c-0,0 -237.914,-312.373 -504.2,33.779Z" style="fill:#fff;fill-rule:nonzero;"/><path d="M288.829,372.043c63.901,10.21 179.804,41.635 252.165,137.978l172.233,-154.867c-30.756,-32.92 -108.11,-103.308 -206.14,-103.436l-0.19,0c-74.619,0 -147.838,40.459 -218.068,120.325Zm247.776,197.87c-1.145,-0 -2.291,-0.064 -3.467,-0.254c-6.999,-0.987 -13.232,-5.09 -16.921,-11.165c-83.112,-136.482 -272.617,-143.575 -274.556,-143.639c-8.938,-0.254 -16.985,-5.534 -20.834,-13.613c-3.848,-8.111 -2.831,-17.685 2.64,-24.778c88.041,-114.44 183.397,-172.456 283.43,-172.456l0.604,0c150.955,0.382 253.755,133.143 258.08,138.773c7.507,9.892 6.202,23.855 -3.021,32.189l-209.989,188.868c-4.421,3.976 -10.146,6.075 -15.966,6.075Z" style="fill-rule:nonzero;"/><path d="M1864.95,995.773c-35.687,-375.796 -338.773,-678.565 -714.634,-713.806c-84.414,-7.952 -166.348,-2.481 -244.116,14.249c-2.576,-75.668 -99.015,-270.484 -281.139,-272.361c-87.278,-0.859 -242.526,51.241 -319.721,166.381c-0,0 263.009,73.919 336.801,215.427c-179.581,116.285 -309.353,302.895 -350.098,521.026c-5.534,29.867 -31.806,51.431 -62.213,51.431l-205.981,0l31.807,381.681l38.263,0c132.253,0 254.423,66.095 331.235,173.824c1.845,2.545 3.658,5.153 5.566,7.697c101.305,138.423 179.105,292.654 242.94,451.942l26.59,66.222l174.937,-0l78.564,-200.097c39.091,5.916 79.008,9.32 119.72,9.32c96.693,-0 189.25,-17.462 274.938,-49.014l67.493,239.791l180.25,-0l70.356,-266c36.322,-137.31 79.548,-272.838 136.26,-402.991c51.971,-119.212 75.572,-253.595 62.182,-394.722Z" style="fill:#fff;fill-rule:nonzero;"/><path d="M1434,2035.63l143.798,0l65.681,-248.251c41.222,-155.853 86.164,-288.805 137.436,-406.458c51.94,-119.084 72.775,-251.464 60.274,-382.858c-34.796,-366.763 -326.273,-657.922 -693.1,-692.369c-79.484,-7.506 -159.224,-2.767 -236.897,13.805c-6.965,1.431 -14.09,-0.128 -19.689,-4.549c-5.566,-4.326 -8.905,-10.91 -9.159,-17.939c-1.972,-57.475 -86.038,-247.488 -257.539,-249.301l-1.846,0c-72.04,0 -201.781,41.126 -278.116,129.962c75.222,25.605 256.203,97.583 318.447,216.922c5.694,10.942 2.163,24.364 -8.206,31.076c-177.29,114.79 -301.018,298.983 -339.536,505.44c-7.697,41.063 -43.734,70.865 -85.719,70.865l-180.059,0l27.831,333.971l16.317,0c137.469,0 268.544,68.703 350.637,183.811l5.28,7.348c93.194,127.29 173.602,276.813 245.994,457.285l20.547,51.24l142.558,0l72.615,-184.987c4.071,-10.369 14.535,-16.667 25.763,-14.854c39.759,6.011 78.849,9.065 116.158,9.065c91.38,-0 181.108,-16.031 266.699,-47.583c6.234,-2.227 13.169,-1.877 19.086,1.177c5.946,2.99 10.304,8.397 12.117,14.79l62.628,222.392Zm162.151,47.711l-180.25,-0c-10.687,-0 -20.039,-7.093 -22.931,-17.399l-60.657,-215.299c-83.493,27.83 -170.453,41.921 -258.843,41.921c-33.746,-0 -68.766,-2.354 -104.389,-6.966l-71.661,182.666c-3.626,9.129 -12.405,15.077 -22.234,15.077l-174.937,-0c-9.731,-0 -18.51,-5.885 -22.137,-14.981l-26.59,-66.222c-70.833,-176.718 -149.364,-322.838 -240.076,-446.725l-5.725,-7.984c-73.157,-102.513 -189.728,-163.773 -311.803,-163.773l-38.263,0c-12.404,0 -22.741,-9.51 -23.76,-21.851l-31.807,-381.681c-0.571,-6.647 1.654,-13.231 6.202,-18.161c4.518,-4.898 10.88,-7.698 17.558,-7.698l205.981,0c19.021,0 35.369,-13.422 38.805,-31.934c39.471,-211.705 163.423,-401.369 341.412,-523.92c-80.661,-119.275 -308.747,-184.511 -311.164,-185.21c-7.348,-2.036 -13.264,-7.507 -15.937,-14.727c-2.64,-7.125 -1.654,-15.14 2.576,-21.533c82.157,-122.52 245.835,-176.941 337.533,-176.941l2.26,0c176.209,1.877 280.821,171.088 301.145,267.876c74.364,-13.486 150.193,-16.762 226.083,-9.701c389.568,36.61 699.206,345.835 736.167,735.34c13.23,139.472 -8.938,279.995 -64.06,406.49c-50.286,115.427 -94.498,246.12 -135.083,399.556l-70.356,266.031c-2.766,10.497 -12.215,17.749 -23.059,17.749Z" style="fill-rule:nonzero;"/><path d="M445.765,685.212c-0,70.261 -56.967,127.227 -127.227,127.227c-70.261,0 -127.227,-56.966 -127.227,-127.227c-0,-70.261 56.966,-127.227 127.227,-127.227c70.26,0 127.227,56.966 127.227,127.227Z" style="fill:#fff;fill-rule:nonzero;"/><path d="M612.781,748.826c-0,70.261 -56.965,127.227 -127.227,127.227c-70.261,-0 -127.227,-56.966 -127.227,-127.227c0,-70.261 56.966,-127.227 127.227,-127.227c70.262,-0 127.227,56.966 127.227,127.227Z" style="fill:#fff;fill-rule:nonzero;"/><path d="M1375.54,220.548c-2.386,-0 -4.834,-0.382 -7.284,-1.113c-34.923,-11.196 -70.929,-20.261 -106.999,-26.972c-12.944,-2.418 -21.5,-14.918 -19.083,-27.831c2.45,-12.978 14.853,-21.502 27.831,-19.084c38.009,7.093 75.955,16.666 112.787,28.403c12.563,4.039 19.497,17.462 15.49,29.994c-3.277,10.146 -12.659,16.603 -22.742,16.603Z" style="fill-rule:nonzero;"/><path d="M1900,647.267c-8.301,-0 -16.381,-4.357 -20.77,-12.055c-90.841,-159.797 -231.839,-291.349 -397.138,-370.58c-11.865,-5.693 -16.889,-19.911 -11.197,-31.807c5.694,-11.864 19.912,-16.889 31.839,-11.227c173.951,83.429 322.393,221.915 417.972,390.014c6.521,11.418 2.512,26.018 -8.938,32.538c-3.721,2.131 -7.792,3.117 -11.768,3.117Z" style="fill-rule:nonzero;"/><path d="M318.538,581.84c-56.998,0 -103.372,46.406 -103.372,103.372c-0,57.03 46.374,103.372 103.372,103.372c56.997,0 103.371,-46.342 103.371,-103.372c0,-56.966 -46.374,-103.372 -103.371,-103.372Zm-0,254.454c-83.303,0 -151.082,-67.78 -151.082,-151.082c-0,-83.301 67.779,-151.082 151.082,-151.082c83.333,0 151.082,67.781 151.082,151.082c-0,83.302 -67.749,151.082 -151.082,151.082Z" style="fill-rule:nonzero;"/><path d="M1868.64,1095.17c-13.168,0 -23.855,-10.687 -23.855,-23.855c-0,-13.168 10.687,-23.855 23.855,-23.855c92.05,0 166.985,-74.936 166.985,-166.985c0,-13.168 10.687,-23.855 23.855,-23.855c13.168,-0 23.855,10.687 23.855,23.855c0,118.384 -96.342,214.695 -214.695,214.695Z" style="fill-rule:nonzero;"/><path d="M612.781,748.826c-0,70.261 -56.965,127.227 -127.227,127.227c-70.261,-0 -127.227,-56.966 -127.227,-127.227c0,-70.261 56.966,-127.227 127.227,-127.227c70.262,-0 127.227,56.966 127.227,127.227Z" style="fill:#fff;fill-rule:nonzero;"/><path d="M485.554,645.454c-56.997,-0 -103.372,46.406 -103.372,103.372c0,57.029 46.375,103.372 103.372,103.372c56.999,-0 103.372,-46.343 103.372,-103.372c-0,-56.966 -46.373,-103.372 -103.372,-103.372Zm-0,254.454c-83.3,-0 -151.082,-67.78 -151.082,-151.082c0,-83.302 67.782,-151.082 151.082,-151.082c83.333,-0 151.082,67.78 151.082,151.082c-0,83.302 -67.749,151.082 -151.082,151.082Z" style="fill-rule:nonzero;"/><path d="M310.586,685.212c-0,13.168 -10.687,23.855 -23.855,23.855c-13.168,0 -23.855,-10.687 -23.855,-23.855c-0,-13.168 10.687,-23.855 23.855,-23.855c13.168,0 23.855,10.687 23.855,23.855Z" style="fill-rule:nonzero;"/><path d="M477.602,748.826c0,13.168 -10.687,23.855 -23.855,23.855c-13.199,-0 -23.855,-10.687 -23.855,-23.855c0,-13.168 10.656,-23.855 23.855,-23.855c13.168,-0 23.855,10.687 23.855,23.855Z" style="fill-rule:nonzero;"/><path d="M1550.6,1137.15c-0,-228.372 -185.149,-413.487 -413.488,-413.487c-228.372,-0 -413.487,185.115 -413.487,413.487c-0,228.372 185.115,413.487 413.487,413.487c228.339,0 413.488,-185.115 413.488,-413.487Z" style="fill:#fff;fill-rule:nonzero;"/><path d="M1137.12,747.522c-214.854,-0 -389.632,174.746 -389.632,389.632c-0,214.823 174.778,389.632 389.632,389.632c214.855,0 389.633,-174.809 389.633,-389.632c-0,-214.886 -174.778,-389.632 -389.633,-389.632Zm0,826.975c-241.159,-0 -437.342,-196.184 -437.342,-437.343c-0,-241.159 196.183,-437.342 437.342,-437.342c241.158,-0 437.343,196.183 437.343,437.342c-0,241.159 -196.185,437.343 -437.343,437.343Z" style="fill-rule:nonzero;"/><path d="M1137.28,1346.12c-52.258,0 -98.252,-29.135 -117.176,-74.173c-5.09,-12.15 0.604,-26.145 12.754,-31.234c12.023,-5.089 26.146,0.604 31.234,12.786c11.291,26.845 40.681,44.911 73.188,44.911c43.003,0 78.022,-30.789 78.022,-68.702c0,-31.362 -13.614,-68.703 -78.373,-68.703c-92.716,0 -125.732,-60.146 -125.732,-116.412c-0,-64.25 56.394,-116.413 125.732,-116.413c52.228,-0 98.22,29.071 117.177,74.11c5.088,12.118 -0.604,26.145 -12.755,31.234c-12.213,5.025 -26.113,-0.605 -31.234,-12.723c-11.324,-26.908 -40.713,-44.911 -73.188,-44.911c-43.033,-0 -78.022,30.821 -78.022,68.703c0,31.297 13.551,68.702 78.022,68.702c92.972,-0 126.084,60.146 126.084,116.413c-0,64.186 -56.427,116.412 -125.733,116.412Z" style="fill-rule:nonzero;"/><path d="M1136.92,975.894c-13.168,-0 -23.855,-10.687 -23.855,-23.855l0,-50.954c0,-13.168 10.687,-23.855 23.855,-23.855c13.168,-0 23.855,10.687 23.855,23.855l0,50.954c0,13.168 -10.687,23.855 -23.855,23.855Z" style="fill-rule:nonzero;"/><path d="M1136.92,1397.02c-13.168,0 -23.855,-10.687 -23.855,-23.855l0,-50.891c0,-13.168 10.687,-23.855 23.855,-23.855c13.168,0 23.855,10.687 23.855,23.855l0,50.891c0,13.168 -10.687,23.855 -23.855,23.855Z" style="fill-rule:nonzero;"/><path d="M1404.64,1137.15c0,16.094 -13.04,29.135 -29.134,29.135c-16.126,0 -29.166,-13.041 -29.166,-29.135c-0,-16.158 13.04,-29.199 29.166,-29.199c16.094,0 29.134,13.041 29.134,29.199Z" style="fill-rule:nonzero;"/><path d="M927.509,1137.15c0,16.094 -13.073,29.135 -29.166,29.135c-16.094,0 -29.167,-13.041 -29.167,-29.135c0,-16.158 13.073,-29.199 29.167,-29.199c16.093,0 29.166,13.041 29.166,29.199Z" style="fill-rule:nonzero;"/><path d="M747.643,1736.84l-44.053,0c-13.168,0 -23.855,-10.687 -23.855,-23.855c0,-13.168 10.687,-23.855 23.855,-23.855l44.053,0c13.168,0 23.855,10.687 23.855,23.855c0,13.168 -10.687,23.855 -23.855,23.855Z" style="fill-rule:nonzero;"/><path d="M894.431,1736.84l-44.053,0c-13.168,0 -23.855,-10.687 -23.855,-23.855c0,-13.168 10.687,-23.855 23.855,-23.855l44.053,0c13.168,0 23.855,10.687 23.855,23.855c-0,13.168 -10.687,23.855 -23.855,23.855Z" style="fill-rule:nonzero;"/><path d="M799.011,1832.26c-13.168,0 -23.855,-10.687 -23.855,-23.855l-0,-44.052c-0,-13.168 10.687,-23.855 23.855,-23.855c13.168,-0 23.855,10.687 23.855,23.855l-0,44.052c-0,13.168 -10.687,23.855 -23.855,23.855Z" style="fill-rule:nonzero;"/><path d="M799.011,1685.44c-13.168,0 -23.855,-10.687 -23.855,-23.855l-0,-44.02c-0,-13.168 10.687,-23.855 23.855,-23.855c13.168,-0 23.855,10.687 23.855,23.855l-0,44.02c-0,13.168 -10.687,23.855 -23.855,23.855Z" style="fill-rule:nonzero;"/><path d="M1448.69,1641.42l-44.053,-0c-13.168,-0 -23.855,-10.687 -23.855,-23.855c-0,-13.168 10.687,-23.855 23.855,-23.855l44.053,-0c13.168,-0 23.855,10.687 23.855,23.855c-0,13.168 -10.687,23.855 -23.855,23.855Z" style="fill-rule:nonzero;"/><path d="M1595.48,1641.42l-44.05,-0c-13.168,-0 -23.855,-10.687 -23.855,-23.855c-0,-13.168 10.687,-23.855 23.855,-23.855l44.05,-0c13.168,-0 23.855,10.687 23.855,23.855c0,13.168 -10.687,23.855 -23.855,23.855Z" style="fill-rule:nonzero;"/><path d="M1500.06,1736.84c-13.168,0 -23.855,-10.687 -23.855,-23.855l0,-44.052c0,-13.168 10.687,-23.855 23.855,-23.855c13.168,-0 23.855,10.687 23.855,23.855l0,44.052c0,13.168 -10.687,23.855 -23.855,23.855Z" style="fill-rule:nonzero;"/><path d="M1500.06,1590.02c-13.168,0 -23.855,-10.687 -23.855,-23.855l0,-44.02c0,-13.168 10.687,-23.855 23.855,-23.855c13.168,-0 23.855,10.687 23.855,23.855l0,44.02c0,13.168 -10.687,23.855 -23.855,23.855Z" style="fill-rule:nonzero;"/><path d="M1238.23,573.889l-44.019,-0c-13.168,-0 -23.855,-10.687 -23.855,-23.855c-0,-13.168 10.687,-23.855 23.855,-23.855l44.019,-0c13.201,-0 23.855,10.687 23.855,23.855c0,13.168 -10.654,23.855 -23.855,23.855Z" style="fill-rule:nonzero;"/><path d="M1385.05,573.889l-44.021,-0c-13.168,-0 -23.855,-10.687 -23.855,-23.855c-0,-13.168 10.687,-23.855 23.855,-23.855l44.021,-0c13.168,-0 23.855,10.687 23.855,23.855c0,13.168 -10.687,23.855 -23.855,23.855Z" style="fill-rule:nonzero;"/><path d="M1289.63,669.309c-13.168,-0 -23.855,-10.687 -23.855,-23.855l-0,-44.052c-0,-13.168 10.687,-23.855 23.855,-23.855c13.168,-0 23.855,10.687 23.855,23.855l-0,44.052c-0,13.168 -10.687,23.855 -23.855,23.855Z" style="fill-rule:nonzero;"/><path d="M1289.63,522.521c-13.168,-0 -23.855,-10.687 -23.855,-23.855l-0,-44.052c-0,-13.169 10.687,-23.856 23.855,-23.856c13.168,0 23.855,10.687 23.855,23.856l-0,44.052c-0,13.168 -10.687,23.855 -23.855,23.855Z" style="fill-rule:nonzero;"/><path d="M768.635,500.479l-44.053,-0c-13.168,-0 -23.855,-10.687 -23.855,-23.855c-0,-13.2 10.687,-23.855 23.855,-23.855l44.053,-0c13.168,-0 23.855,10.655 23.855,23.855c-0,13.168 -10.687,23.855 -23.855,23.855Z" style="fill-rule:nonzero;"/><path d="M915.422,500.479l-44.052,-0c-13.168,-0 -23.855,-10.687 -23.855,-23.855c-0,-13.2 10.687,-23.855 23.855,-23.855l44.052,-0c13.168,-0 23.855,10.655 23.855,23.855c0,13.168 -10.687,23.855 -23.855,23.855Z" style="fill-rule:nonzero;"/><path d="M820.002,595.899c-13.168,0 -23.855,-10.687 -23.855,-23.855l0,-43.989c0,-13.168 10.687,-23.855 23.855,-23.855c13.168,0 23.855,10.687 23.855,23.855l0,43.989c0,13.168 -10.687,23.855 -23.855,23.855Z" style="fill-rule:nonzero;"/><path d="M820.002,449.079c-13.168,0 -23.855,-10.687 -23.855,-23.855l0,-44.02c0,-13.2 10.687,-23.855 23.855,-23.855c13.168,-0 23.855,10.655 23.855,23.855l0,44.02c0,13.168 -10.687,23.855 -23.855,23.855Z" style="fill-rule:nonzero;"/><path d="M426.204,1285.56l-44.022,0c-13.168,0 -23.855,-10.687 -23.855,-23.855c0,-13.168 10.687,-23.855 23.855,-23.855l44.022,0c13.168,0 23.855,10.687 23.855,23.855c-0,13.168 -10.687,23.855 -23.855,23.855Z" style="fill-rule:nonzero;"/><path d="M573.022,1285.56l-44.019,0c-13.168,0 -23.855,-10.687 -23.855,-23.855c-0,-13.168 10.687,-23.855 23.855,-23.855l44.019,0c13.169,0 23.856,10.687 23.856,23.855c-0,13.168 -10.687,23.855 -23.856,23.855Z" style="fill-rule:nonzero;"/><path d="M477.602,1380.98c-13.168,0 -23.855,-10.687 -23.855,-23.855l0,-44.052c0,-13.168 10.687,-23.855 23.855,-23.855c13.168,0 23.855,10.687 23.855,23.855l0,44.052c0,13.168 -10.687,23.855 -23.855,23.855Z" style="fill-rule:nonzero;"/><path d="M477.602,1234.2c-13.168,0 -23.855,-10.687 -23.855,-23.855l0,-44.052c0,-13.168 10.687,-23.855 23.855,-23.855c13.168,-0 23.855,10.687 23.855,23.855l0,44.052c0,13.168 -10.687,23.855 -23.855,23.855Z" style="fill-rule:nonzero;"/></g></g></svg>