<?xml version="1.0" encoding="UTF-8" standalone="no"?><!DOCTYPE svg PUBLIC "-//W3C//DTD SVG 1.1//EN" "http://www.w3.org/Graphics/SVG/1.1/DTD/svg11.dtd"><svg width="100%" height="100%" viewBox="0 0 2084 2084" version="1.1" xmlns="http://www.w3.org/2000/svg" xmlns:xlink="http://www.w3.org/1999/xlink" xml:space="preserve" xmlns:serif="http://www.serif.com/" style="fill-rule:evenodd;clip-rule:evenodd;stroke-linejoin:round;stroke-miterlimit:2;"><rect id="画板1" x="0" y="0" width="2083.33" height="2083.33" style="fill:none;"/><clipPath id="_clip1"><rect id="画板11" serif:id="画板1" x="0" y="0" width="2083.33" height="2083.33"/></clipPath><g clip-path="url(#_clip1)"><g><path d="M2020.18,1793.9c0,124.721 -101.47,226.375 -226.283,226.375l-1504.65,0c-124.721,0 -226.189,-101.654 -226.189,-226.375l-0,-1267.86c-0,-124.628 101.468,-226.097 226.189,-226.097l180.246,-0l22.322,-9.302c147.228,-146.669 342.541,-227.492 549.85,-227.492c207.218,0 402.438,80.823 549.759,227.492l22.228,9.302l180.246,-0c124.813,-0 226.283,101.469 226.283,226.097l0,1267.86Zm-226.283,-1557.2l-167.319,-0c-158.109,-152.808 -365.234,-236.7 -584.914,-236.7c-219.772,0 -426.897,83.892 -585.1,236.7l-167.318,-0c-159.504,-0 -289.248,129.837 -289.248,289.342l0,1267.86c0,159.598 129.744,289.434 289.248,289.434l1504.65,0c159.597,0 289.434,-129.836 289.434,-289.434l0,-1267.86c0,-159.505 -129.837,-289.342 -289.434,-289.342Z" style="fill:#0b0b16;fill-rule:nonzero;"/><path d="M1391.18,823.382l-157.646,0c-10.322,-62.965 -50.873,-115.793 -106.304,-143.044l55.988,-176.99c5.302,-16.554 -3.905,-34.319 -20.553,-39.528c-16.649,-5.394 -34.32,3.907 -39.528,20.462l-56.362,177.735c-8.278,-1.023 -16.648,-1.768 -25.112,-1.768c-96.632,-0 -176.803,70.685 -191.87,163.133l-157.832,0l-141.833,-307.477c42.504,-60.269 94.958,-111.235 154.296,-151.508l39.992,68.174c5.86,10.044 16.462,15.532 27.251,15.532l15.998,-4.278c14.973,-8.836 19.996,-28.181 11.16,-43.248l-40.365,-68.731c76.823,-41.017 162.389,-65.384 251.581,-69.94l0,77.473c0,17.392 14.138,31.529 31.622,31.529c17.393,0 31.529,-14.137 31.529,-31.529l0,-77.473c89.101,4.556 174.758,28.923 251.582,69.94l-40.458,68.731c-8.742,15.067 -3.813,34.412 11.254,43.248l15.997,4.278c10.882,0 21.391,-5.488 27.251,-15.532l40.085,-68.174c59.244,40.273 111.701,91.239 154.204,151.508l-141.927,307.477Zm-222.284,0l-254.557,0c14.23,-57.292 65.662,-100.074 127.324,-100.074c61.57,-0 113.003,42.782 127.233,100.074Zm-127.233,-625.559c-223.214,0 -430.245,111.143 -553.943,297.527c-6.045,9.207 -6.975,20.741 -2.418,30.692l157.832,342.075c5.208,11.162 16.368,18.323 28.645,18.323l739.677,-0c12.275,-0 23.529,-7.161 28.645,-18.323l157.831,-342.075c4.558,-9.951 3.721,-21.485 -2.419,-30.692c-123.698,-186.384 -330.729,-297.527 -553.85,-297.527Z" style="fill:#0b0b16;fill-rule:nonzero;"/></g></g></svg>