<?xml version="1.0" encoding="UTF-8" standalone="no"?><!DOCTYPE svg PUBLIC "-//W3C//DTD SVG 1.1//EN" "http://www.w3.org/Graphics/SVG/1.1/DTD/svg11.dtd"><svg width="100%" height="100%" viewBox="0 0 2084 2084" version="1.1" xmlns="http://www.w3.org/2000/svg" xmlns:xlink="http://www.w3.org/1999/xlink" xml:space="preserve" xmlns:serif="http://www.serif.com/" style="fill-rule:evenodd;clip-rule:evenodd;stroke-linejoin:round;stroke-miterlimit:2;"><rect id="画板1" x="0" y="0" width="2083.33" height="2083.33" style="fill:none;"/><clipPath id="_clip1"><rect id="画板11" serif:id="画板1" x="0" y="0" width="2083.33" height="2083.33"/></clipPath><g clip-path="url(#_clip1)"><g><path d="M2020.18,1793.99c0,124.722 -101.47,226.285 -226.19,226.285l-1504.65,0c-124.721,0 -226.19,-101.563 -226.19,-226.285l0,-1267.95c0,-124.721 101.469,-226.191 226.19,-226.191l306.454,0c10.511,0 20.37,-5.208 26.229,-14.044c92.633,-139.509 247.489,-222.654 414.434,-222.654c166.854,-0 321.802,83.145 414.342,222.654c5.86,8.836 15.717,14.044 26.321,14.044l316.871,0c124.72,0 226.19,101.47 226.19,226.191l0,1267.95Zm-226.19,-1557.2l-300.316,0c-105.19,-148.623 -274.833,-236.792 -457.218,-236.792c-182.384,0 -352.12,88.169 -457.217,236.792l-289.9,0c-159.505,0 -289.341,129.745 -289.341,289.25l-0,1267.95c-0,159.599 129.836,289.251 289.341,289.251l1504.65,-0c159.598,-0 289.341,-129.652 289.341,-289.251l0,-1267.95c0,-159.505 -129.743,-289.25 -289.341,-289.25Z" style="fill:#0b0b16;fill-rule:nonzero;"/><path d="M1799.29,1709.92c-0,49.199 -40.086,89.378 -89.471,89.378l-1336.31,0c-49.293,0 -89.378,-40.179 -89.378,-89.378l-0,-1099.7c-0,-49.293 40.085,-89.379 89.378,-89.379l286.181,0c-1.303,12.929 -2.047,26.135 -2.047,39.436c0,208.888 169.922,378.813 378.813,378.813c208.892,-0 378.721,-169.925 378.721,-378.813c0,-13.301 -0.745,-26.507 -2.046,-39.436l296.689,0c49.385,0 89.471,40.086 89.471,89.379l-0,1099.7Zm-762.835,-1465.31c174.015,0 315.662,141.649 315.662,315.664c0,174.011 -141.647,315.66 -315.662,315.66c-174.106,0 -315.662,-141.649 -315.662,-315.66c0,-174.015 141.556,-315.664 315.662,-315.664Zm673.364,213.075l-309.06,0c-44.828,-159.133 -191.033,-276.227 -364.304,-276.227c-173.27,-0 -319.475,117.094 -364.305,276.227l-298.642,0c-84.076,0 -152.53,68.455 -152.53,152.532l0,1099.7c0,84.076 68.454,152.437 152.53,152.437l1336.31,0c84.17,0 152.53,-68.361 152.53,-152.437l-0,-1099.7c-0,-84.077 -68.36,-152.532 -152.53,-152.532Z" style="fill:#0b0b16;fill-rule:nonzero;"/><path d="M1036.46,619.607c32.739,0 59.338,-26.6 59.338,-59.337c0,-21.115 -11.16,-39.53 -27.808,-50.131l-0,-164.157c-0,-17.484 -14.044,-31.621 -31.53,-31.621c-17.485,-0 -31.621,14.137 -31.621,31.621l-0,164.157c-16.648,10.601 -27.81,29.016 -27.81,50.131c-0,32.737 26.601,59.337 59.431,59.337Z" style="fill:#0b0b16;fill-rule:nonzero;"/></g></g></svg>