<?xml version="1.0" encoding="UTF-8" standalone="no"?><!DOCTYPE svg PUBLIC "-//W3C//DTD SVG 1.1//EN" "http://www.w3.org/Graphics/SVG/1.1/DTD/svg11.dtd"><svg width="100%" height="100%" viewBox="0 0 2084 2084" version="1.1" xmlns="http://www.w3.org/2000/svg" xmlns:xlink="http://www.w3.org/1999/xlink" xml:space="preserve" xmlns:serif="http://www.serif.com/" style="fill-rule:evenodd;clip-rule:evenodd;stroke-linejoin:round;stroke-miterlimit:2;"><rect id="画板1" x="0" y="0" width="2083.33" height="2083.33" style="fill:none;"/><clipPath id="_clip1"><rect id="画板11" serif:id="画板1" x="0" y="0" width="2083.33" height="2083.33"/></clipPath><g clip-path="url(#_clip1)"><g><path d="M63.152,1529.3l0,-32.18l1957.22,0l0,32.18c-546.222,157.645 -1411.08,157.645 -1957.22,0Zm1154.58,333.147l-351.934,0l55.433,-153.831c40.082,1.023 80.358,1.581 120.441,1.581c40.27,-0 80.358,-0.558 120.441,-1.581l55.619,153.831Zm419.645,157.831l-1191.4,0c13.948,-54.501 63.522,-94.773 122.207,-94.773l946.986,0c58.781,0 108.259,40.272 122.212,94.773Zm382.996,-586.309l-1957.22,0l0,-1204.61l1957.22,0l0,1204.61Zm0,-1370.81l0,103.144l-1957.22,-0l0,-103.144l1957.22,0Zm31.437,-63.151l-2020.18,-0c-17.484,-0 -31.624,14.137 -31.624,31.529l0,1521.39c0,13.858 9.207,26.134 22.417,30.134c233.536,70.498 527.898,111.514 832.404,123.325l-56.273,156.064l-230.374,0c-104.445,0 -189.361,84.914 -189.361,189.36c-0,17.392 14.14,31.529 31.528,31.529l1262.65,0c17.484,0 31.619,-14.137 31.619,-31.529c-0,-104.446 -85.008,-189.36 -189.452,-189.36l-230.375,0l-56.266,-156.064c304.499,-11.811 598.861,-52.827 832.494,-123.325c13.3,-4 22.32,-16.276 22.32,-30.134l0,-1521.39c0,-17.392 -14.14,-31.529 -31.528,-31.529Z" style="fill:#0b0b16;fill-rule:nonzero;"/></g></g></svg>