<?xml version="1.0" encoding="UTF-8" standalone="no"?><!DOCTYPE svg PUBLIC "-//W3C//DTD SVG 1.1//EN" "http://www.w3.org/Graphics/SVG/1.1/DTD/svg11.dtd"><svg width="100%" height="100%" viewBox="0 0 2084 2084" version="1.1" xmlns="http://www.w3.org/2000/svg" xmlns:xlink="http://www.w3.org/1999/xlink" xml:space="preserve" xmlns:serif="http://www.serif.com/" style="fill-rule:evenodd;clip-rule:evenodd;stroke-linejoin:round;stroke-miterlimit:2;"><rect id="画板1" x="0" y="0" width="2083.33" height="2083.33" style="fill:none;"/><clipPath id="_clip1"><rect id="画板11" serif:id="画板1" x="0" y="0" width="2083.33" height="2083.33"/></clipPath><g clip-path="url(#_clip1)"><g><path d="M1532.65,1869.28c-9.673,53.848 -56.454,92.912 -111.143,92.912l-84.914,-0c-33.574,-0 -65.199,-14.881 -86.776,-40.645c-21.577,-25.763 -30.412,-59.431 -24.46,-92.54l129.279,-713.635c81.474,15.812 143.974,24.738 187.593,24.738c43.248,0 85.008,-5.671 125.278,-15.25l-134.857,744.42Zm-398.625,-283.111l0,-97.471l88.729,0l-17.578,97.471l-71.151,-0Zm38.505,-258.185l79.427,0l-17.765,97.562l-61.662,-0l-0,-97.562Zm-810.175,-499.722l-0,-458.426c233.724,-49.945 439.36,-97.748 605.654,-136.44c251.767,-58.595 440.385,-102.492 542.689,-110.678l0,181.735c-148.622,15.812 -264.786,141.833 -264.786,294.643c-0,152.622 116.164,278.74 264.786,294.549l0,181.828c-102.304,-8.37 -290.922,-52.177 -542.689,-110.771c-166.294,-38.689 -371.93,-86.401 -605.654,-136.44Zm-299.2,-551.619l236.049,89.379l-0,466.054l-236.049,89.285l0,-644.718Zm1479.07,89.194c128.627,0 233.259,104.632 233.259,233.259c-0,128.442 -104.632,233.165 -233.259,233.165c-128.536,-0 -233.168,-104.723 -233.168,-233.165c0,-128.627 104.632,-233.259 233.168,-233.259Zm475.54,281.065l-2.233,15.531c-1.488,10.416 -2.79,20.833 -4.837,30.972l-4.371,17.855c-2.14,9.117 -4.277,18.231 -6.974,27.067l-6.417,18.415l-9.117,24.832l-8.37,18.043l-11.067,23.064l-10.138,17.394l-13.019,21.483l-11.813,16.556l-14.788,19.811l-13.3,15.531l-16.556,18.137l-14.694,14.229l-18.228,16.556l-16,12.928l-19.53,14.694l-17.206,11.439l-20.927,12.744l-18.321,9.857l-22.23,10.695l-19.252,8.186l-23.436,8.557l-19.996,6.324l-24.367,6.324l-20.927,4.371c-8.279,1.581 -16.74,2.883 -25.298,3.905l-21.392,2.512l-9.114,0.466l-0,-181.735c148.623,-15.809 264.696,-141.927 264.696,-294.549c-0,-152.81 -116.073,-278.831 -264.696,-294.643l-0,-181.641l9.114,0.278l21.392,2.606c8.558,1.115 17.019,2.231 25.298,3.812l20.833,4.464l24.555,6.324l19.902,6.327l23.436,8.554l19.161,8.092l22.415,10.882l18.134,9.767l21.114,12.835l17.018,11.345l19.812,14.881l15.718,12.65l18.415,16.647l14.601,14.138l16.743,18.415l13.019,15.253l15.069,20.183l11.532,16.181l13.3,21.858l9.858,17.019l11.347,23.439l8.183,17.762c3.349,8.186 6.233,16.649 9.208,25.113l6.233,18.137c2.79,8.836 4.927,18.134 7.161,27.251l4.277,17.578c2.047,10.229 3.443,20.739 4.837,31.156l2.233,15.44c1.581,15.716 2.419,31.713 2.419,47.897c-0,16.09 -0.838,31.993 -2.419,47.806Zm65.568,-47.806c0,-298.364 -242.744,-541.108 -541.108,-541.108c-98.867,-0 -293.621,45.387 -588.542,113.933c-169.828,39.432 -380.767,88.447 -620.443,139.509l-290.55,-110.028c-9.673,-3.627 -20.555,-2.231 -29.111,3.534c-8.464,5.952 -13.579,15.718 -13.579,26.041l-0,736.144c-0,10.322 5.115,19.995 13.579,25.947l17.949,5.674l11.162,-2.14l290.55,-109.931c239.676,50.968 450.615,100.074 620.443,139.509c133.37,30.969 246.187,57.292 339.006,76.728l-29.297,161.924l-122.488,-0c-17.484,-0 -31.528,14.044 -31.528,31.621l0,129.093l-6.883,-0c-17.577,-0 -31.621,14.137 -31.621,31.531l-0,160.714c-0,17.393 14.044,31.621 31.621,31.621l91.238,0l-30.506,168.341c-9.301,51.527 4.558,104.075 38.132,144.252c33.575,40.273 82.868,63.337 135.232,63.337l84.914,-0c85.286,-0 158.111,-61.01 173.364,-144.902l140.625,-776.694c203.03,-77.938 347.841,-274.554 347.841,-504.65Z" style="fill:#0b0b16;fill-rule:nonzero;"/></g></g></svg>