<?xml version="1.0" encoding="UTF-8" standalone="no"?><!DOCTYPE svg PUBLIC "-//W3C//DTD SVG 1.1//EN" "http://www.w3.org/Graphics/SVG/1.1/DTD/svg11.dtd"><svg width="100%" height="100%" viewBox="0 0 2084 2084" version="1.1" xmlns="http://www.w3.org/2000/svg" xmlns:xlink="http://www.w3.org/1999/xlink" xml:space="preserve" xmlns:serif="http://www.serif.com/" style="fill-rule:evenodd;clip-rule:evenodd;stroke-linejoin:round;stroke-miterlimit:2;"><rect id="画板1" x="0" y="0" width="2083.33" height="2083.33" style="fill:none;"/><clipPath id="_clip1"><rect id="画板11" serif:id="画板1" x="0" y="0" width="2083.33" height="2083.33"/></clipPath><g clip-path="url(#_clip1)"><g><path d="M1041.67,1388.36c-167.038,-198.846 -401.505,-256.51 -495.536,-272.134c15.811,-39.714 33.668,-79.15 53.48,-118.492c127.511,66.315 284.504,99.983 442.056,99.983c157.365,-0 314.454,-33.668 441.965,-99.983c19.809,39.342 37.668,78.684 53.383,118.492c-94.027,15.624 -328.495,73.288 -495.348,272.134Zm482.885,-449.217l-0.184,-0.281c-12.463,-23.53 -25.204,-47.059 -38.692,-70.592c-199.775,-348.585 -38.967,-821.519 -37.386,-826.264c5.673,-16.46 -2.978,-34.412 -19.44,-40.27c-16.462,-5.674 -34.412,3.068 -40.179,19.436c-7.161,20.462 -172.059,504.559 42.225,878.442c8.186,14.138 15.813,28.088 23.439,42.319c-234.842,121.557 -590.494,121.557 -825.427,0c7.626,-14.231 15.253,-28.181 23.436,-42.319c214.287,-373.883 49.293,-857.98 42.225,-878.442c-5.767,-16.368 -23.717,-25.11 -40.179,-19.436c-16.462,5.858 -25.204,23.81 -19.437,40.27c1.581,4.745 162.48,477.679 -37.389,826.264c-13.394,23.439 -26.229,46.969 -38.598,70.501l-0.278,0.372l-0.28,0.556c-163.318,311.571 -223.401,632.255 -30.785,1123.7c4.93,12.369 16.835,19.905 29.483,19.905l11.533,-2.046c16.183,-6.418 24.275,-24.648 17.857,-41.017c-142.95,-364.303 -143.136,-624.256 -62.593,-863.56c77.289,11.813 325.707,65.011 486.142,273.159l0,601.933c0,17.487 14.138,31.531 31.622,31.531c17.393,0 31.437,-14.044 31.437,-31.531l0,-601.933c160.061,-207.588 408.854,-261.068 486.235,-273.159c80.636,239.304 80.262,499.257 -62.594,863.56c-6.323,16.369 1.675,34.599 17.856,41.017l11.532,2.046c12.557,0 24.461,-7.536 29.391,-19.905c192.707,-491.443 132.535,-812.315 -30.784,-1123.88l-0.188,-0.372Z" style="fill:#0b0b16;fill-rule:nonzero;"/><path d="M1047.81,824.09c17.3,-0 31.528,-14.138 31.528,-31.625c0,-17.39 -14.228,-31.528 -31.528,-31.528c-17.393,0 -31.621,14.138 -31.621,31.528c-0,17.487 14.228,31.625 31.621,31.625Z" style="fill:#0b0b16;fill-rule:nonzero;"/><path d="M343.936,625.243l-0,-62.502c-0,-17.484 -14.044,-31.528 -31.53,-31.528l-249.255,-0l0,-138.578l249.255,-0c17.486,-0 31.53,-14.232 31.53,-31.622l-0,-62.409l163.411,163.226l-163.411,163.413Zm230.376,-185.734l-239.584,-239.491c-9.021,-9.02 -22.6,-11.716 -34.412,-6.789c-11.813,4.836 -19.439,16.368 -19.439,29.112l-0,107.141l-249.349,0c-17.392,0 -31.528,14.044 -31.528,31.531l0,201.728c0,17.393 14.136,31.624 31.528,31.624l249.349,0l-0,107.05c-0,12.741 7.626,24.273 19.439,29.11l12.09,2.418l22.322,-9.301l239.584,-239.489c12.276,-12.278 12.276,-32.274 -0,-44.644Z" style="fill:#0b0b16;fill-rule:nonzero;"/><path d="M2020.18,531.213l-249.349,-0c-17.484,-0 -31.622,14.044 -31.622,31.528l0,62.502l-163.226,-163.413l163.226,-163.226l0,62.409c0,17.39 14.138,31.622 31.622,31.622l249.349,-0l-0,138.578Zm31.528,-201.731l-249.349,0l-0,-107.141c-0,-12.744 -7.717,-24.276 -19.53,-29.112c-11.811,-4.927 -25.298,-2.231 -34.319,6.789l-239.491,239.491c-12.369,12.37 -12.369,32.366 0,44.644l239.491,239.489l22.321,9.301l11.998,-2.418c11.813,-4.837 19.53,-16.369 19.53,-29.11l-0,-107.05l249.349,0c17.487,0 31.624,-14.231 31.624,-31.624l0,-201.728c0,-17.487 -14.137,-31.531 -31.624,-31.531Z" style="fill:#0b0b16;fill-rule:nonzero;"/></g></g></svg>