<?xml version="1.0" encoding="UTF-8" standalone="no"?><!DOCTYPE svg PUBLIC "-//W3C//DTD SVG 1.1//EN" "http://www.w3.org/Graphics/SVG/1.1/DTD/svg11.dtd"><svg width="100%" height="100%" viewBox="0 0 2084 2084" version="1.1" xmlns="http://www.w3.org/2000/svg" xmlns:xlink="http://www.w3.org/1999/xlink" xml:space="preserve" xmlns:serif="http://www.serif.com/" style="fill-rule:evenodd;clip-rule:evenodd;stroke-linejoin:round;stroke-miterlimit:2;"><rect id="画板1" x="0" y="0" width="2083.33" height="2083.33" style="fill:none;"/><g id="画板11" serif:id="画板1"><g><path d="M779.541,356.196c34.783,-0 63.149,28.364 63.149,63.147c-0,34.784 -28.366,63.149 -63.149,63.149c-34.782,0 -63.148,-28.365 -63.148,-63.149c0,-34.783 28.366,-63.147 63.148,-63.147Zm0,189.443c69.565,0 126.203,-56.636 126.203,-126.296c0,-69.658 -56.638,-126.203 -126.203,-126.203c-69.658,-0 -126.296,56.545 -126.296,126.203c-0,69.66 56.638,126.296 126.296,126.296Z" style="fill:#0b0b16;fill-rule:nonzero;"/><path d="M391.723,450.966l171.868,-0c17.391,-0 31.528,-14.137 31.528,-31.623c-0,-17.39 -14.137,-31.527 -31.528,-31.527l-171.868,-0c-17.391,-0 -31.434,14.137 -31.434,31.527c0,17.486 14.043,31.623 31.434,31.623Z" style="fill:#0b0b16;fill-rule:nonzero;"/><path d="M964.056,419.343c0,17.486 14.137,31.623 31.528,31.623l171.775,-0c17.391,-0 31.527,-14.137 31.527,-31.623c0,-17.39 -14.136,-31.527 -31.527,-31.527l-171.775,-0c-17.391,-0 -31.528,14.137 -31.528,31.527Z" style="fill:#0b0b16;fill-rule:nonzero;"/><path d="M779.541,234.923c17.484,-0 31.528,-14.137 31.528,-31.623l-0,-171.68c-0,-17.392 -14.044,-31.62 -31.528,-31.62c-17.484,-0 -31.528,14.228 -31.528,31.62l0,171.68c0,17.486 14.044,31.623 31.528,31.623Z" style="fill:#0b0b16;fill-rule:nonzero;"/><path d="M748.013,635.388l0,171.773c0,17.393 14.044,31.527 31.528,31.527c17.484,-0 31.528,-14.134 31.528,-31.527l-0,-171.773c-0,-17.392 -14.044,-31.623 -31.528,-31.623c-17.484,0 -31.528,14.231 -31.528,31.623Z" style="fill:#0b0b16;fill-rule:nonzero;"/><path d="M604.512,549.732l-121.554,121.46c-12.275,12.369 -12.275,32.458 0,44.642l22.414,9.301l22.228,-9.301l121.46,-121.46c12.369,-12.278 12.369,-32.273 -0,-44.642c-12.277,-12.275 -32.272,-12.275 -44.548,-0Z" style="fill:#0b0b16;fill-rule:nonzero;"/><path d="M932.25,298.163l22.413,-9.207l121.461,-121.46c12.276,-12.369 12.276,-32.367 -0,-44.642c-12.369,-12.369 -32.365,-12.369 -44.734,-0l-121.367,121.46c-12.37,12.369 -12.37,32.364 -0,44.642l22.227,9.207Z" style="fill:#0b0b16;fill-rule:nonzero;"/><path d="M604.512,288.956l22.32,9.207l22.228,-9.207c12.369,-12.278 12.369,-32.273 -0,-44.642l-121.46,-121.46c-12.184,-12.369 -32.272,-12.369 -44.642,-0c-12.275,12.275 -12.275,32.273 0,44.642l121.554,121.46Z" style="fill:#0b0b16;fill-rule:nonzero;"/><path d="M910.023,549.732c-12.37,12.369 -12.37,32.364 -0,44.642l121.367,121.46l22.413,9.301l22.321,-9.301c12.276,-12.184 12.276,-32.273 -0,-44.642l-121.461,-121.46c-12.368,-12.275 -32.364,-12.275 -44.64,-0Z" style="fill:#0b0b16;fill-rule:nonzero;"/><path d="M1808.88,2008.47l-118.763,-0l0,-995.027l118.763,0l0,995.027Zm-576.146,11.719l-906.395,-0l-34.225,-74.96l766.521,0l189.909,40.362l-15.81,34.598Zm-958.197,-1061.89l1010,0l0,70.495l-225.901,47.804l-561.545,-0c-17.392,-0 -31.621,14.137 -31.621,31.62l-0,773.96l-190.932,0l-0,-923.879Zm254.173,923.879l-0,-742.433l501.745,-0l0,742.433l-501.745,0Zm1098.17,-861.288l-0,980.239l-533.366,-112.906l0,-754.43l533.366,-112.903Zm213.532,-70.495l-181.912,-0l-3.627,0.743l-2.883,-0.093l-304.302,64.359l-0,-88.725c-0,-17.393 -14.136,-31.527 -31.528,-31.527l-1073.24,0c-17.391,0 -31.528,14.134 -31.528,31.527l0,987.029l2.233,11.159l0.65,2.047l63.149,137.828c5.115,11.253 16.274,18.601 28.644,18.601l946.944,0c12.37,0 23.529,-7.348 28.645,-18.601l30.226,-65.94l340.107,72.079l6.51,0.743l181.912,0c17.484,0 31.527,-14.137 31.527,-31.529l0,-1058.17c0,-17.483 -14.043,-31.526 -31.527,-31.526Z" style="fill:#0b0b16;fill-rule:nonzero;"/><path d="M638.271,1203.16c-17.391,0 -31.527,14.138 -31.527,31.621l-0,552.337c-0,17.486 14.136,31.623 31.527,31.623c17.485,0 31.621,-14.137 31.621,-31.623l0,-552.337c0,-17.483 -14.136,-31.621 -31.621,-31.621Z" style="fill:#0b0b16;fill-rule:nonzero;"/><path d="M779.541,1203.16c-17.484,0 -31.528,14.138 -31.528,31.621l0,552.337c0,17.486 14.044,31.623 31.528,31.623c17.484,0 31.528,-14.137 31.528,-31.623l-0,-552.337c-0,-17.483 -14.044,-31.621 -31.528,-31.621Z" style="fill:#0b0b16;fill-rule:nonzero;"/><path d="M920.811,1203.16c-17.485,0 -31.62,14.138 -31.62,31.621l-0,552.337c-0,17.486 14.135,31.623 31.62,31.623c17.391,0 31.527,-14.137 31.527,-31.623l0,-552.337c0,-17.483 -14.136,-31.621 -31.527,-31.621Z" style="fill:#0b0b16;fill-rule:nonzero;"/><path d="M1211.07,1842.46c17.484,0 31.62,-14.228 31.62,-31.62l-0,-607.674c-0,-17.389 -14.136,-31.526 -31.62,-31.526c-17.392,-0 -31.435,14.137 -31.435,31.526l-0,607.674c-0,17.392 14.043,31.62 31.435,31.62Z" style="fill:#0b0b16;fill-rule:nonzero;"/><path d="M1360.15,1866.08c17.485,0 31.621,-14.134 31.621,-31.526l0,-662.916c0,-17.486 -14.136,-31.62 -31.621,-31.62c-17.391,-0 -31.434,14.134 -31.434,31.62l-0,662.916c-0,17.392 14.043,31.526 31.434,31.526Z" style="fill:#0b0b16;fill-rule:nonzero;"/><path d="M1509.33,1889.79c17.483,0 31.62,-14.134 31.62,-31.62l-0,-718.158c-0,-17.393 -14.137,-31.53 -31.62,-31.53c-17.392,0 -31.529,14.137 -31.529,31.53l0,718.158c0,17.486 14.137,31.62 31.529,31.62Z" style="fill:#0b0b16;fill-rule:nonzero;"/></g></g></svg>