<?xml version="1.0" encoding="UTF-8" standalone="no"?><!DOCTYPE svg PUBLIC "-//W3C//DTD SVG 1.1//EN" "http://www.w3.org/Graphics/SVG/1.1/DTD/svg11.dtd"><svg width="100%" height="100%" viewBox="0 0 2084 2084" version="1.1" xmlns="http://www.w3.org/2000/svg" xmlns:xlink="http://www.w3.org/1999/xlink" xml:space="preserve" xmlns:serif="http://www.serif.com/" style="fill-rule:evenodd;clip-rule:evenodd;stroke-linejoin:round;stroke-miterlimit:2;"><rect id="画板1" x="0" y="0" width="2083.33" height="2083.33" style="fill:none;"/><g id="画板11" serif:id="画板1"><g><path d="M23.854,1486.86c70.321,0 127.221,56.9 127.221,127.158c-0,-70.258 56.899,-127.158 127.22,-127.221c-70.321,0 -127.22,-56.899 -127.22,-127.22c-0,70.321 -56.9,127.22 -127.221,127.283Z" style="fill:#fff;fill-rule:nonzero;"/><path d="M105.244,1486.8c18.383,11.8 34.03,27.48 45.831,45.863c11.798,-18.383 27.48,-34.063 45.863,-45.863c-18.383,-11.735 -34.065,-27.448 -45.863,-45.767c-11.801,18.319 -27.448,34.032 -45.831,45.767Zm45.831,151.075c-13.168,-0 -23.854,-10.687 -23.854,-23.854c-0,-56.964 -46.373,-103.304 -103.367,-103.304c-13.168,0 -23.854,-10.686 -23.854,-23.854c-0,-13.166 10.686,-23.853 23.854,-23.853c56.994,-0.064 103.367,-46.404 103.367,-103.43c-0,-13.168 10.686,-23.854 23.854,-23.854c13.167,-0 23.853,10.686 23.853,23.854c0,57.026 46.373,103.366 103.367,103.366c13.168,0 23.854,10.687 23.854,23.854c0,13.168 -10.686,23.854 -23.854,23.854c-56.994,0.063 -103.367,46.403 -103.367,103.367c0,13.167 -10.686,23.854 -23.853,23.854Z" style="fill-rule:nonzero;"/><path d="M628.216,1677.69c70.321,0 127.221,56.9 127.221,127.221c-0,-70.321 56.899,-127.221 127.22,-127.221c-70.321,0 -127.22,-56.898 -127.22,-127.22c-0,70.322 -56.9,127.22 -127.221,127.22Z" style="fill:#fff;fill-rule:nonzero;"/><path d="M709.604,1677.69c18.384,11.8 34.032,27.448 45.833,45.864c11.799,-18.416 27.478,-34.064 45.861,-45.864c-18.383,-11.798 -34.062,-27.447 -45.861,-45.83c-11.801,18.383 -27.449,34.032 -45.833,45.83Zm45.833,151.075c-13.168,-0 -23.854,-10.687 -23.854,-23.854c-0,-57.027 -46.372,-103.367 -103.367,-103.367c-13.167,0 -23.854,-10.686 -23.854,-23.854c0,-13.166 10.687,-23.853 23.854,-23.853c56.995,-0 103.367,-46.404 103.367,-103.367c-0,-13.167 10.686,-23.854 23.854,-23.854c13.167,-0 23.854,10.687 23.854,23.854c-0,56.963 46.372,103.367 103.366,103.367c13.168,-0 23.854,10.687 23.854,23.853c0,13.168 -10.686,23.854 -23.854,23.854c-56.994,0 -103.366,46.34 -103.366,103.367c-0,13.167 -10.687,23.854 -23.854,23.854Z" style="fill-rule:nonzero;"/><path d="M278.326,1932.14c70.321,-0 127.221,56.899 127.221,127.22c-0,-70.321 56.899,-127.22 127.221,-127.22c-70.322,-0 -127.221,-56.899 -127.221,-127.221c-0,70.322 -56.9,127.221 -127.221,127.221Z" style="fill:#fff;fill-rule:nonzero;"/><path d="M359.716,1932.14c18.353,11.799 34.032,27.448 45.831,45.863c11.801,-18.415 27.48,-34.064 45.863,-45.863c-18.383,-11.799 -34.095,-27.447 -45.863,-45.831c-11.799,18.384 -27.478,34.032 -45.831,45.831Zm45.8,151.074c-13.168,0 -23.854,-10.686 -23.854,-23.854c-0,-56.962 -46.341,-103.366 -103.336,-103.366c-13.167,-0 -23.854,-10.687 -23.854,-23.854c0,-13.167 10.687,-23.854 23.854,-23.854c56.964,-0 103.336,-46.339 103.367,-103.367c0,-13.166 10.687,-23.854 23.854,-23.854c13.167,0 23.854,10.688 23.854,23.854c-0,57.028 46.372,103.367 103.367,103.367c13.167,-0 23.853,10.687 23.853,23.854c0,13.167 -10.686,23.854 -23.853,23.854c-56.995,-0 -103.367,46.404 -103.398,103.366c-0,13.168 -10.687,23.854 -23.854,23.854Z" style="fill-rule:nonzero;"/><path d="M2059.48,723.539c0,-399.122 -334.239,-720.195 -738.101,-698.631c-358.476,19.114 -649.399,316.779 -660.943,675.669c-6.68,207.401 77.253,394.988 215.003,527.011c76.778,73.597 117.806,176.964 117.806,283.32l-0,39.566l733.044,-0l0,-47.263c0,-106.419 46.467,-205.874 122.577,-280.235c129.83,-126.838 210.614,-303.517 210.614,-499.437Z" style="fill:#fff;fill-rule:nonzero;"/><path d="M1614.21,1804.91l-508.882,0c-35.113,0 -63.611,-28.433 -63.611,-63.61c0,-35.081 28.498,-63.611 63.611,-63.611l508.882,0c35.144,0 63.61,28.53 63.61,63.611c0,35.177 -28.466,63.61 -63.61,63.61Z" style="fill:#fff;fill-rule:nonzero;"/><path d="M1614.21,1932.14l-508.882,-0c-35.113,-0 -63.611,-28.434 -63.611,-63.611c0,-35.081 28.498,-63.61 63.611,-63.61l508.882,0c35.144,0 63.61,28.529 63.61,63.61c0,35.177 -28.466,63.611 -63.61,63.611Z" style="fill:#fff;fill-rule:nonzero;"/><path d="M1614.21,1677.69l-508.882,0c-35.113,0 -63.611,-28.433 -63.611,-63.61l0,-63.61l636.103,-0l0,63.61c0,35.177 -28.466,63.61 -63.61,63.61Z" style="fill:#fff;fill-rule:nonzero;"/><path d="M1017.1,1526.62l685.337,-0l0,-23.409c0,-109.95 46.087,-215.542 129.766,-297.314c131.196,-128.143 203.426,-299.414 203.426,-482.358c-0,-187.331 -74.901,-361.592 -210.964,-490.562c-135.935,-128.874 -314.361,-194.361 -502.013,-184.279c-346.772,18.575 -627.165,305.171 -638.36,652.61c-6.139,191.149 69.525,376.701 207.655,509.073c79.544,76.269 125.153,185.806 125.153,300.527l0,15.712Zm709.191,47.708l-733.044,-0c-13.168,-0 -23.854,-10.687 -23.854,-23.854l-0,-39.566c-0,-101.807 -40.265,-198.782 -110.46,-266.049c-147.862,-141.756 -228.934,-340.411 -222.349,-545.109c11.989,-371.962 312.199,-678.818 683.524,-698.696c200.849,-10.623 391.839,59.317 537.412,197.319c145.636,138.034 225.816,324.603 225.816,525.166c0,195.857 -77.317,379.31 -217.769,516.517c-74.425,72.706 -115.422,166.182 -115.422,263.155l0,47.263c0,13.167 -10.686,23.854 -23.854,23.854Z" style="fill-rule:nonzero;"/><path d="M1105.33,1701.55c-21.913,0 -39.757,17.843 -39.757,39.757c0,21.945 17.844,39.756 39.757,39.756l508.882,0c21.946,0 39.757,-17.811 39.757,-39.756c-0,-21.914 -17.811,-39.757 -39.757,-39.757l-508.882,0Zm508.882,127.221l-508.882,-0c-48.217,-0 -87.465,-39.184 -87.465,-87.464c0,-48.185 39.248,-87.464 87.465,-87.464l508.882,-0c48.25,-0 87.464,39.279 87.464,87.464c0,48.28 -39.214,87.464 -87.464,87.464Z" style="fill-rule:nonzero;"/><path d="M1105.33,1828.77c-21.913,-0 -39.757,17.843 -39.757,39.756c0,21.946 17.844,39.757 39.757,39.757l508.882,-0c21.946,-0 39.757,-17.811 39.757,-39.757c-0,-21.913 -17.811,-39.756 -39.757,-39.756l-508.882,-0Zm508.882,127.221l-508.882,-0c-48.217,-0 -87.465,-39.184 -87.465,-87.465c0,-48.184 39.248,-87.464 87.465,-87.464l508.882,0c48.25,0 87.464,39.28 87.464,87.464c0,48.281 -39.214,87.465 -87.464,87.465Z" style="fill-rule:nonzero;"/><path d="M1065.57,1574.33l0,39.756c0,21.946 17.844,39.757 39.757,39.757l508.882,-0c21.946,-0 39.757,-17.811 39.757,-39.757l-0,-39.756l-588.396,-0Zm548.639,127.22l-508.882,0c-48.217,0 -87.465,-39.184 -87.465,-87.464l0,-63.61c0,-13.167 10.687,-23.854 23.854,-23.854l636.103,-0c13.168,-0 23.854,10.687 23.854,23.854l0,63.61c0,48.28 -39.214,87.464 -87.464,87.464Z" style="fill-rule:nonzero;"/><path d="M1550.6,2083.21l-381.662,0c-13.168,0 -23.854,-10.686 -23.854,-23.854c0,-13.166 10.686,-23.854 23.854,-23.854l381.662,0c13.167,0 23.854,10.688 23.854,23.854c-0,13.168 -10.687,23.854 -23.854,23.854Z" style="fill-rule:nonzero;"/><path d="M1896.89,685.152c-11.958,-0 -22.264,-8.938 -23.663,-21.119c-17.46,-152.379 -101.395,-288.219 -230.205,-372.853c-11.005,-7.187 -14.09,-21.976 -6.839,-33.045c7.157,-10.973 22.01,-14.09 33.014,-6.806c140.707,92.362 232.337,240.828 251.421,407.297c1.495,13.04 -7.889,24.903 -20.992,26.397c-0.891,0.129 -1.844,0.129 -2.736,0.129Z" style="fill-rule:nonzero;"/><path d="M1873.36,916.979c-2.481,-0 -4.993,-0.35 -7.474,-1.177c-12.499,-4.167 -19.305,-17.652 -15.171,-30.119c10.844,-32.919 18.351,-66.982 22.327,-101.268c1.558,-13.04 13.516,-22.295 26.462,-20.928c13.071,1.559 22.455,13.422 20.927,26.462c-4.356,37.467 -12.562,74.678 -24.427,110.65c-3.307,10.051 -12.625,16.38 -22.644,16.38Z" style="fill-rule:nonzero;"/><path d="M1551.65,533.822c0,-106.038 -85.905,-191.944 -191.881,-191.944c-105.974,-0 -191.881,85.906 -191.881,191.944c-0,61.829 29.77,116.312 75.221,151.393l-75.221,419.986l383.762,0l-75.219,-419.986c45.448,-35.081 75.219,-89.564 75.219,-151.393Z" style="fill:#fff;fill-rule:nonzero;"/><path d="M1196.41,1081.35l326.735,-0l-70.195,-391.966c-1.559,-8.748 1.877,-17.653 8.906,-23.059c41.919,-32.346 65.932,-80.691 65.932,-132.564c0,-92.617 -75.378,-168.028 -168.027,-168.028c-92.647,0 -168.027,75.411 -168.027,168.028c-0,51.873 24.046,100.218 65.932,132.564c7.062,5.406 10.465,14.311 8.937,23.059l-70.193,391.966Zm355.232,47.707l-383.762,0c-7.061,0 -13.771,-3.084 -18.287,-8.492c-4.548,-5.406 -6.425,-12.562 -5.185,-19.527l72.771,-406.311c-46.659,-41.188 -73.153,-99.01 -73.153,-160.966c-0,-118.951 96.784,-215.735 215.735,-215.735c118.951,-0 215.735,96.784 215.735,215.735c-0,61.956 -26.463,119.778 -73.121,160.966l72.772,406.311c1.24,6.965 -0.67,14.121 -5.186,19.527c-4.548,5.408 -11.259,8.492 -18.319,8.492Z" style="fill-rule:nonzero;"/><path d="M1551.04,549.375l-0.794,-0.064l-671.28,-0c-67.84,-159.28 -225.785,-271.044 -409.841,-271.044c-245.917,0 -445.272,199.419 -445.272,445.272c-0,245.95 199.355,445.273 445.272,445.273c184.056,-0 342.001,-111.7 409.841,-270.948l191.278,-0.064l128.905,-123.626l103.621,103.621l103.652,-103.621l103.559,103.558l-33.554,-192.517c41.601,-32.124 70.067,-80.435 74.613,-135.84Z" style="fill:#fff;fill-rule:nonzero;"/><path d="M469.095,524.757c-109.602,0 -198.782,89.214 -198.782,198.782c-0,109.634 89.18,198.783 198.782,198.783c109.631,-0 198.782,-89.149 198.782,-198.783c0,-109.568 -89.151,-198.782 -198.782,-198.782Zm0,445.272c-135.904,0 -246.49,-110.554 -246.49,-246.49c0,-135.902 110.586,-246.49 246.49,-246.49c135.935,0 246.49,110.588 246.49,246.49c0,135.936 -110.555,246.49 -246.49,246.49Z" style="fill-rule:nonzero;"/><path d="M469.126,302.121c-232.336,0 -421.418,189.114 -421.418,421.418c-0,232.401 189.082,421.419 421.418,421.419c169.299,-0 321.55,-100.695 387.895,-256.477c3.755,-8.841 12.374,-14.535 21.946,-14.535l181.672,0l122.005,-116.978c9.382,-9.002 24.203,-8.875 33.395,0.317l86.732,86.764l86.797,-86.764c4.453,-4.484 10.527,-6.965 16.855,-6.965c6.331,-0 12.405,2.481 16.858,6.965l50.253,50.253l-20.61,-118.221c-1.528,-8.746 1.908,-17.588 8.937,-22.994c30.691,-23.727 52.192,-56.773 61.194,-93.221l-644.088,0.063c-9.572,-0 -18.191,-5.725 -21.946,-14.471c-66.345,-155.877 -218.596,-256.573 -387.895,-256.573Zm0,890.545c-258.671,-0 -469.126,-210.391 -469.126,-469.127c-0,-258.671 210.455,-469.126 469.126,-469.126c183.134,0 348.362,105.848 425.299,271.044l655.822,0c6.68,0 13.422,2.799 17.937,7.697c4.549,4.899 7.189,11.481 6.616,18.129c-4.484,54.991 -30.691,106.484 -72.484,143.442l31.171,178.904c1.78,10.241 -3.277,20.482 -12.5,25.284c-9.192,4.708 -20.546,3.054 -27.862,-4.293l-86.702,-86.701l-86.763,86.764c-4.484,4.485 -10.56,6.966 -16.889,6.966c-6.328,-0 -12.371,-2.481 -16.857,-6.966l-87.082,-87.145l-112.081,107.532c-4.422,4.231 -10.368,6.584 -16.506,6.584l-175.82,-0c-76.937,165.165 -242.165,271.012 -425.299,271.012Z" style="fill-rule:nonzero;"/></g></g></svg>