<?xml version="1.0" encoding="UTF-8" standalone="no"?><!DOCTYPE svg PUBLIC "-//W3C//DTD SVG 1.1//EN" "http://www.w3.org/Graphics/SVG/1.1/DTD/svg11.dtd"><svg width="100%" height="100%" viewBox="0 0 2084 2084" version="1.1" xmlns="http://www.w3.org/2000/svg" xmlns:xlink="http://www.w3.org/1999/xlink" xml:space="preserve" xmlns:serif="http://www.serif.com/" style="fill-rule:evenodd;clip-rule:evenodd;stroke-linejoin:round;stroke-miterlimit:2;"><rect id="画板1" x="0" y="0" width="2083.33" height="2083.33" style="fill:none;"/><clipPath id="_clip1"><rect id="画板11" serif:id="画板1" x="0" y="0" width="2083.33" height="2083.33"/></clipPath><g clip-path="url(#_clip1)"><g><path d="M820.684,1862.45l-757.537,0l-0,-1609.93c-0,-104.353 84.917,-189.361 189.361,-189.361l378.814,0c104.354,0 189.362,85.008 189.362,189.361l-0,1609.93Zm-63.153,110.399c-0,26.134 -21.202,47.433 -47.247,47.433c-26.135,-0 -47.434,-21.299 -47.434,-47.433l0,-47.34l94.681,-0l-0,47.34Zm-536.551,-0c0,26.134 -21.208,47.433 -47.434,47.433c-26.038,-0 -47.246,-21.299 -47.246,-47.433l-0,-47.34l94.68,-0l0,47.34Zm410.342,-1972.85l-378.814,-0c-139.231,-0 -252.508,113.282 -252.508,252.512l0,1641.47c0,17.392 14.044,31.529 31.528,31.529l31.619,-0l-0,47.34c-0,60.826 49.574,110.491 110.399,110.491c61.013,-0 110.49,-49.665 110.49,-110.491l0,-47.34l315.667,-0l0,47.34c0,60.826 49.665,110.491 110.581,110.491c60.825,-0 110.4,-49.665 110.4,-110.491l-0,-47.34l31.528,-0c17.484,-0 31.624,-14.137 31.624,-31.529l0,-1641.47c0,-139.23 -113.283,-252.512 -252.514,-252.512Z" style="fill:#0b0b16;fill-rule:nonzero;"/><path d="M441.87,646.951c-121.838,-0 -220.89,-98.959 -220.89,-220.89c0,-121.745 99.052,-220.982 220.89,-220.982c121.928,-0 220.98,99.237 220.98,220.982c0,121.931 -99.052,220.89 -220.98,220.89Zm-0,-504.931c-156.624,0 -284.133,127.512 -284.133,284.041c-0,156.715 127.509,284.134 284.133,284.134c156.624,-0 284.133,-127.419 284.133,-284.134c-0,-156.529 -127.509,-284.041 -284.133,-284.041Z" style="fill:#0b0b16;fill-rule:nonzero;"/><path d="M441.87,489.212c-34.787,0 -63.056,-28.367 -63.056,-63.151c-0,-34.784 28.269,-63.058 63.056,-63.058c34.877,-0 63.152,28.274 63.152,63.058c0,34.784 -28.275,63.151 -63.152,63.151Zm-0,-189.36c-69.567,-0 -126.209,56.547 -126.209,126.209c0,69.569 56.642,126.302 126.209,126.302c69.664,0 126.299,-56.733 126.299,-126.302c0,-69.662 -56.635,-126.209 -126.299,-126.209Z" style="fill:#0b0b16;fill-rule:nonzero;"/><path d="M441.87,1720.33c-86.961,0 -157.834,-70.685 -157.834,-157.832c0,-86.96 70.873,-157.738 157.834,-157.738c87.051,0 157.833,70.778 157.833,157.738c0,87.147 -70.782,157.832 -157.833,157.832Zm-0,-378.721c-121.838,-0 -220.89,99.145 -220.89,220.889c0,121.932 99.052,220.983 220.89,220.983c121.928,0 220.98,-99.051 220.98,-220.983c0,-121.744 -99.052,-220.889 -220.98,-220.889Z" style="fill:#0b0b16;fill-rule:nonzero;"/><path d="M441.87,1531.07c-17.393,-0 -31.528,14.044 -31.528,31.435c-0,17.579 14.135,31.716 31.528,31.716c17.484,-0 31.624,-14.137 31.624,-31.716c0,-17.391 -14.14,-31.435 -31.624,-31.435Z" style="fill:#0b0b16;fill-rule:nonzero;"/><path d="M441.87,1183.78c-86.961,-0 -157.834,-70.871 -157.834,-157.831c0,-87.054 70.873,-157.925 157.834,-157.925c87.051,-0 157.833,70.871 157.833,157.925c0,86.96 -70.782,157.831 -157.833,157.831Zm-0,-378.907c-121.838,-0 -220.89,99.144 -220.89,221.076c0,121.744 99.052,220.982 220.89,220.982c121.928,-0 220.98,-99.238 220.98,-220.982c0,-121.932 -99.052,-221.076 -220.98,-221.076Z" style="fill:#0b0b16;fill-rule:nonzero;"/><path d="M441.87,994.328c-17.393,0 -31.528,14.137 -31.528,31.623c-0,17.392 14.135,31.435 31.528,31.435c17.484,0 31.624,-14.043 31.624,-31.435c0,-17.486 -14.14,-31.623 -31.624,-31.623Z" style="fill:#0b0b16;fill-rule:nonzero;"/><path d="M2020.18,1862.45l-757.531,0l-0,-1609.93c-0,-104.353 84.911,-189.361 189.361,-189.361l378.814,0c104.444,0 189.356,85.008 189.356,189.361l-0,1609.93Zm-63.147,110.399c-0,26.134 -21.208,47.433 -47.343,47.433c-26.136,-0 -47.247,-21.299 -47.247,-47.433l-0,-47.34l94.59,-0l-0,47.34Zm-536.556,-0c-0,26.134 -21.203,47.433 -47.429,47.433c-26.044,-0 -47.247,-21.299 -47.247,-47.433l0,-47.34l94.676,-0l-0,47.34Zm410.347,-1972.85l-378.814,-0c-139.231,-0 -252.514,113.282 -252.514,252.512l0,1641.47c0,17.392 14.135,31.529 31.528,31.529l31.625,-0l-0,47.34c-0,60.826 49.568,110.491 110.399,110.491c61.007,-0 110.581,-49.665 110.581,-110.491l0,-47.34l315.57,-0l0,47.34c0,60.826 49.665,110.491 110.491,110.491c60.921,-0 110.49,-49.665 110.49,-110.491l-0,-47.34l31.624,-0c17.393,-0 31.528,-14.137 31.528,-31.529l0,-1641.47c0,-139.23 -113.283,-252.512 -252.508,-252.512Z" style="fill:#0b0b16;fill-rule:nonzero;"/><path d="M1641.37,646.951c-121.838,-0 -220.889,-98.959 -220.889,-220.89c-0,-121.745 99.051,-220.982 220.889,-220.982c121.838,-0 221.077,99.237 221.077,220.982c-0,121.931 -99.239,220.89 -221.077,220.89Zm0,-504.931c-156.619,0 -284.036,127.512 -284.036,284.041c-0,156.715 127.417,284.134 284.036,284.134c156.624,-0 284.139,-127.419 284.139,-284.134c-0,-156.529 -127.515,-284.041 -284.139,-284.041Z" style="fill:#0b0b16;fill-rule:nonzero;"/><path d="M1641.37,489.212c-34.69,0 -63.147,-28.367 -63.147,-63.151c0,-34.784 28.457,-63.058 63.147,-63.058c34.877,-0 63.153,28.274 63.153,63.058c-0,34.784 -28.276,63.151 -63.153,63.151Zm0,-189.36c-69.567,-0 -126.209,56.547 -126.209,126.209c0,69.569 56.642,126.302 126.209,126.302c69.755,0 126.305,-56.733 126.305,-126.302c0,-69.662 -56.55,-126.209 -126.305,-126.209Z" style="fill:#0b0b16;fill-rule:nonzero;"/><path d="M1641.37,1720.33c-86.96,0 -157.737,-70.685 -157.737,-157.832c0,-86.96 70.777,-157.738 157.737,-157.738c87.057,0 157.833,70.778 157.833,157.738c0,87.147 -70.776,157.832 -157.833,157.832Zm0,-378.721c-121.838,-0 -220.889,99.145 -220.889,220.889c-0,121.932 99.051,220.983 220.889,220.983c121.838,0 221.077,-99.051 221.077,-220.983c-0,-121.744 -99.239,-220.889 -221.077,-220.889Z" style="fill:#0b0b16;fill-rule:nonzero;"/><path d="M1641.37,1531.07c-17.388,-0 -31.528,14.044 -31.528,31.435c-0,17.579 14.14,31.716 31.528,31.716c17.49,-0 31.534,-14.137 31.534,-31.716c-0,-17.391 -14.044,-31.435 -31.534,-31.435Z" style="fill:#0b0b16;fill-rule:nonzero;"/><path d="M1641.37,1183.78c-86.96,-0 -157.737,-70.871 -157.737,-157.831c0,-87.054 70.777,-157.925 157.737,-157.925c87.057,-0 157.833,70.871 157.833,157.925c0,86.96 -70.776,157.831 -157.833,157.831Zm0,-378.907c-121.838,-0 -220.889,99.144 -220.889,221.076c-0,121.744 99.051,220.982 220.889,220.982c121.838,-0 221.077,-99.238 221.077,-220.982c-0,-121.932 -99.239,-221.076 -221.077,-221.076Z" style="fill:#0b0b16;fill-rule:nonzero;"/><path d="M1641.37,994.328c-17.388,0 -31.528,14.137 -31.528,31.623c-0,17.392 14.14,31.435 31.528,31.435c17.49,0 31.534,-14.043 31.534,-31.435c-0,-17.486 -14.044,-31.623 -31.534,-31.623Z" style="fill:#0b0b16;fill-rule:nonzero;"/></g></g></svg>