<?xml version="1.0" encoding="UTF-8" standalone="no"?><!DOCTYPE svg PUBLIC "-//W3C//DTD SVG 1.1//EN" "http://www.w3.org/Graphics/SVG/1.1/DTD/svg11.dtd"><svg width="100%" height="100%" viewBox="0 0 2084 2084" version="1.1" xmlns="http://www.w3.org/2000/svg" xmlns:xlink="http://www.w3.org/1999/xlink" xml:space="preserve" xmlns:serif="http://www.serif.com/" style="fill-rule:evenodd;clip-rule:evenodd;stroke-linejoin:round;stroke-miterlimit:2;"><rect id="画板1" x="0" y="0" width="2083.33" height="2083.33" style="fill:none;"/><clipPath id="_clip1"><rect id="画板11" serif:id="画板1" x="0" y="0" width="2083.33" height="2083.33"/></clipPath><g clip-path="url(#_clip1)"><g><path d="M2020.09,1678.3c-0,49.2 -39.992,89.282 -89.285,89.282l-542.04,0l0,-116.439l0.094,0c261.069,0 473.4,-212.425 473.4,-473.494c0,-261.069 -212.331,-473.494 -473.4,-473.494l-0.094,-0l0,-299.204c0,-84.077 -68.358,-152.435 -152.528,-152.435l-478.702,-0l-0,-100.074c-0,-49.295 40.085,-89.475 89.378,-89.475l1083.89,0c49.293,0 89.285,40.18 89.285,89.475l-0,1525.86Zm-631.325,-279.762l0.094,0c121.838,0 220.983,-99.148 220.983,-220.889c0,-121.838 -99.145,-220.986 -220.983,-220.986l-0.094,0l0,-189.361l0.094,-0c226.282,-0 410.342,183.968 410.342,410.347c-0,226.191 -184.06,410.341 -410.342,410.341l-0.094,0l0,-189.452Zm0,-378.722l0.094,-0c87.054,-0 157.83,70.776 157.83,157.833c0,86.96 -70.776,157.828 -157.83,157.828l-0.094,-0l0,-315.661Zm-63.059,910.901c0,49.291 -40.085,89.379 -89.469,89.379l-1083.8,0c-49.293,0 -89.378,-40.088 -89.378,-89.379l-0,-1525.77c-0,-49.291 40.085,-89.283 89.378,-89.283l1083.8,0c49.384,0 89.469,39.992 89.469,89.283l0,1525.77Zm605.099,-1930.72l-1083.89,0c-84.17,0 -152.531,68.267 -152.531,152.44l0,100.074l-541.946,-0c-84.077,-0 -152.436,68.358 -152.436,152.435l-0,1525.77c-0,84.168 68.359,152.532 152.436,152.532l1083.8,-0c84.17,-0 152.528,-68.364 152.528,-152.532l0,-100.073l542.04,0c84.077,0 152.528,-68.358 152.528,-152.344l0,-1525.86c0,-84.173 -68.451,-152.44 -152.528,-152.44Z" style="fill:#0b0b16;fill-rule:nonzero;"/><path d="M1688.8,566.131c-95.796,0 -173.643,-77.94 -173.643,-173.643c0,-95.702 77.847,-173.642 173.643,-173.642c95.703,-0 173.549,77.94 173.549,173.642c0,95.703 -77.846,173.643 -173.549,173.643Zm0,-410.341c-130.582,-0 -236.795,106.21 -236.795,236.698c-0,130.58 106.213,236.699 236.795,236.699c130.486,0 236.605,-106.119 236.605,-236.699c0,-130.488 -106.119,-236.698 -236.605,-236.698Z" style="fill:#0b0b16;fill-rule:nonzero;"/><path d="M1688.8,431.924c-21.858,0 -39.529,-17.58 -39.529,-39.436c-0,-21.764 17.671,-39.339 39.529,-39.339c21.671,0 39.433,17.575 39.433,39.339c-0,21.856 -17.762,39.436 -39.433,39.436Zm0,-142.024c-56.641,0 -102.679,46.038 -102.679,102.588c0,56.545 46.038,102.589 102.679,102.589c56.454,-0 102.492,-46.044 102.492,-102.589c-0,-56.55 -46.038,-102.588 -102.492,-102.588Z" style="fill:#0b0b16;fill-rule:nonzero;"/><path d="M1799.2,735.681c-17.484,-0 -31.622,14.135 -31.622,31.619c-0,17.393 14.138,31.624 31.622,31.624c17.393,0 31.53,-14.231 31.53,-31.624c0,-17.484 -14.137,-31.619 -31.53,-31.619Z" style="fill:#0b0b16;fill-rule:nonzero;"/><path d="M1799.2,1556.36c-17.484,-0 -31.622,14.14 -31.622,31.624c-0,17.394 14.138,31.529 31.622,31.529c17.393,-0 31.53,-14.135 31.53,-31.529c0,-17.484 -14.137,-31.624 -31.53,-31.624Z" style="fill:#0b0b16;fill-rule:nonzero;"/><path d="M994.233,818.639c-95.702,0 -173.733,-77.843 -173.733,-173.637c-0,-95.611 78.031,-173.552 173.733,-173.552c95.612,0 173.643,77.941 173.643,173.552c0,95.794 -78.031,173.637 -173.643,173.637Zm0,-410.341c-130.579,-0 -236.698,106.215 -236.698,236.704c-0,130.58 106.119,236.79 236.698,236.79c130.489,-0 236.796,-106.21 236.796,-236.79c-0,-130.489 -106.307,-236.704 -236.796,-236.704Z" style="fill:#0b0b16;fill-rule:nonzero;"/><path d="M994.233,684.529c-21.855,-0 -39.432,-17.672 -39.432,-39.527c-0,-21.764 17.577,-39.435 39.432,-39.435c21.765,-0 39.53,17.671 39.53,39.435c-0,21.855 -17.765,39.527 -39.53,39.527Zm0,-142.024c-56.641,-0 -102.585,46.038 -102.585,102.497c0,56.636 45.944,102.674 102.585,102.674c56.548,-0 102.679,-46.038 102.679,-102.674c0,-56.459 -46.131,-102.497 -102.679,-102.497Z" style="fill:#0b0b16;fill-rule:nonzero;"/><path d="M694.382,1840.5c-226.284,-0 -410.341,-184.054 -410.341,-410.342c-0,-226.191 184.057,-410.25 410.341,-410.25c226.285,-0 410.344,184.059 410.344,410.25c0,226.288 -184.059,410.342 -410.344,410.342Zm0,-883.836c-261.067,0 -473.493,212.426 -473.493,473.494c0,261.069 212.426,473.494 473.493,473.494c261.069,0 473.494,-212.425 473.494,-473.494c0,-261.068 -212.425,-473.494 -473.494,-473.494Z" style="fill:#0b0b16;fill-rule:nonzero;"/><path d="M694.382,1587.99c-87.145,0 -157.83,-70.872 -157.83,-157.833c-0,-87.051 70.685,-157.827 157.83,-157.827c86.96,-0 157.74,70.776 157.74,157.827c-0,86.961 -70.78,157.833 -157.74,157.833Zm0,-378.722c-121.93,-0 -220.982,99.052 -220.982,220.889c0,121.838 99.052,220.986 220.982,220.986c121.838,0 220.889,-99.148 220.889,-220.986c0,-121.837 -99.051,-220.889 -220.889,-220.889Z" style="fill:#0b0b16;fill-rule:nonzero;"/><path d="M394.438,471.45c95.796,0 173.642,77.941 173.642,173.552c-0,95.794 -77.846,173.637 -173.642,173.637c-95.61,0 -173.549,-77.843 -173.549,-173.637c0,-95.611 77.939,-173.552 173.549,-173.552Zm0,410.342c130.58,-0 236.794,-106.21 236.794,-236.79c0,-130.489 -106.214,-236.704 -236.794,-236.704c-130.487,-0 -236.7,106.215 -236.7,236.704c0,130.58 106.213,236.79 236.7,236.79Z" style="fill:#0b0b16;fill-rule:nonzero;"/><path d="M394.438,605.567c21.763,-0 39.435,17.671 39.435,39.435c-0,21.855 -17.672,39.527 -39.435,39.527c-21.764,-0 -39.435,-17.672 -39.435,-39.527c-0,-21.764 17.671,-39.435 39.435,-39.435Zm0,142.109c56.548,-0 102.586,-46.038 102.586,-102.674c-0,-56.459 -46.038,-102.497 -102.586,-102.497c-56.547,-0 -102.585,46.038 -102.585,102.497c0,56.636 46.038,102.674 102.585,102.674Z" style="fill:#0b0b16;fill-rule:nonzero;"/><path d="M252.417,1019.9c0,17.302 14.138,31.437 31.624,31.437c17.484,-0 31.528,-14.135 31.528,-31.437c-0,-17.484 -14.044,-31.619 -31.528,-31.619c-17.486,-0 -31.624,14.135 -31.624,31.619Z" style="fill:#0b0b16;fill-rule:nonzero;"/><path d="M284.041,1808.97c-17.486,-0 -31.624,14.044 -31.624,31.528c0,17.393 14.138,31.624 31.624,31.624c17.484,0 31.528,-14.231 31.528,-31.624c-0,-17.484 -14.044,-31.528 -31.528,-31.528Z" style="fill:#0b0b16;fill-rule:nonzero;"/><path d="M1136.16,1019.9c-0,-17.484 -13.951,-31.619 -31.435,-31.619c-17.393,-0 -31.531,14.135 -31.531,31.619c0,17.302 14.138,31.437 31.531,31.437c17.484,-0 31.435,-14.135 31.435,-31.437Z" style="fill:#0b0b16;fill-rule:nonzero;"/><path d="M1104.73,1808.97c-17.393,-0 -31.531,14.044 -31.531,31.528c0,17.393 14.138,31.624 31.531,31.624c17.484,0 31.435,-14.231 31.435,-31.624c-0,-17.484 -13.951,-31.528 -31.435,-31.528Z" style="fill:#0b0b16;fill-rule:nonzero;"/></g></g></svg>