<?xml version="1.0" encoding="UTF-8" standalone="no"?><!DOCTYPE svg PUBLIC "-//W3C//DTD SVG 1.1//EN" "http://www.w3.org/Graphics/SVG/1.1/DTD/svg11.dtd"><svg width="100%" height="100%" viewBox="0 0 2084 2084" version="1.1" xmlns="http://www.w3.org/2000/svg" xmlns:xlink="http://www.w3.org/1999/xlink" xml:space="preserve" xmlns:serif="http://www.serif.com/" style="fill-rule:evenodd;clip-rule:evenodd;stroke-linejoin:round;stroke-miterlimit:2;"><rect id="画板1" x="0" y="0" width="2083.33" height="2083.33" style="fill:none;"/><clipPath id="_clip1"><rect id="画板11" serif:id="画板1" x="0" y="0" width="2083.33" height="2083.33"/></clipPath><g clip-path="url(#_clip1)"><g><path d="M1041.57,1294.18c-139.226,-0 -252.508,-113.282 -252.508,-252.419c-0,-139.415 113.282,-252.605 252.508,-252.605c139.23,0 252.604,113.19 252.604,252.605c0,139.137 -113.374,252.419 -252.604,252.419Zm-0,-568.173c-174.012,-0 -315.565,141.647 -315.565,315.754c0,174.014 141.553,315.57 315.565,315.57c174.108,-0 315.666,-141.556 315.666,-315.57c-0,-174.107 -141.558,-315.754 -315.666,-315.754Z" style="fill:#0b0b16;fill-rule:nonzero;"/><path d="M2020.18,1633.46c-0,14.323 -7.63,26.787 -20.368,33.296c-12.744,6.604 -27.254,5.674 -38.97,-2.79l-303.853,-216.982c-9.764,-6.977 -15.623,-18.417 -15.623,-30.506l0,-749.628c0,-12.092 5.859,-23.438 15.719,-30.507l303.757,-216.983l21.667,-7.068l17.303,4.278c12.738,6.511 20.368,18.974 20.368,33.296l-0,1183.59Zm-536.647,-330.729l0,-511.625l94.681,-0l-0,511.625l-94.681,-0Zm-63.152,117.746l-757.53,-0l-0,-757.626l757.53,-0l-0,757.626Zm-128.252,157.83l-511.624,0l-0,-94.773l511.624,0l-0,94.773Zm154.852,78.87l216.984,303.664c8.277,11.626 9.395,26.228 2.793,39.063c-6.511,12.742 -18.977,20.369 -33.39,20.369l-1183.6,-0c-14.232,-0 -26.788,-7.627 -33.294,-20.462c-6.511,-12.742 -5.489,-27.344 2.788,-38.97l217.074,-303.664c6.977,-9.951 18.415,-15.719 30.506,-15.719l749.628,0c12.091,0 23.439,5.768 30.506,15.719Zm-941.963,-364.955l-0,-511.719l94.68,0l0,511.719l-94.68,-0Zm-63.056,124.256c-0,12.089 -5.859,23.529 -15.81,30.506l-303.762,216.982c-11.626,8.464 -26.226,9.487 -38.97,2.79c-12.739,-6.509 -20.368,-18.973 -20.368,-33.296l0,-1183.59c0,-14.322 7.629,-26.785 20.368,-33.296l17.302,-4.278l21.668,7.068l303.762,216.983c9.855,6.976 15.81,18.415 15.81,30.507l-0,749.628Zm349.05,-911.366l511.721,0l-0,94.68l-511.721,-0l0,-94.68Zm-154.762,-78.869l-216.983,-303.851c-8.277,-11.625 -9.299,-26.227 -2.788,-38.876c6.506,-12.743 19.062,-20.369 33.294,-20.369l1183.6,-0c14.413,-0 26.879,7.626 33.39,20.369c6.602,12.649 5.484,27.251 -2.793,38.969l-216.984,303.758c-7.067,9.859 -18.505,15.625 -30.506,15.625l-749.628,-0c-12.091,-0 -23.529,-5.766 -30.597,-15.625Zm1392.48,-65.848c-33.759,-17.299 -73.751,-14.417 -104.535,7.533l-303.853,216.982c-26.414,18.974 -42.132,49.573 -42.132,81.94l-0,61.104l-94.681,0l0,-96.727c0,-17.298 -14.135,-31.435 -31.619,-31.435l-86.035,-0l0,-94.68l50.596,0c32.459,0 63.062,-15.812 81.846,-42.225l216.984,-303.665c22.042,-30.878 24.926,-70.87 7.629,-104.631c-17.393,-33.669 -51.618,-54.594 -89.566,-54.594l-1183.6,0c-37.852,0 -72.173,20.925 -89.379,54.594c-17.393,33.761 -14.509,73.753 7.533,104.539l216.984,303.757c18.88,26.413 49.477,42.225 81.936,42.225l61.109,0l0,94.68l-96.633,-0c-17.49,-0 -31.625,14.137 -31.625,31.435l0,86.217l-94.68,0l-0,-50.594c-0,-32.367 -15.719,-62.966 -42.132,-81.94l-303.757,-216.982c-30.784,-21.95 -70.873,-24.832 -104.541,-7.533c-33.668,17.298 -54.592,51.618 -54.592,89.471l0,1183.59c0,37.853 20.924,72.173 54.592,89.564c14.606,7.441 30.325,11.162 46.043,11.162c20.55,0 41.014,-6.417 58.498,-18.787l303.757,-216.983c26.322,-18.787 42.132,-49.573 42.132,-81.938l-0,-61.105l94.68,-0l0,96.633c0,17.484 14.135,31.528 31.625,31.528l86.029,0l0,94.773l-50.505,0c-32.459,0 -63.056,15.719 -81.845,42.132l-217.075,303.758c-22.042,30.785 -24.926,70.87 -7.533,104.538c17.206,33.668 51.527,54.595 89.379,54.595l1183.6,0c37.948,0 72.173,-20.927 89.566,-54.595c17.297,-33.668 14.413,-73.753 -7.629,-104.538l-216.984,-303.758c-18.784,-26.413 -49.387,-42.132 -81.846,-42.132l-61.194,0l0,-94.773l96.633,0c17.484,0 31.619,-14.044 31.619,-31.528l0,-86.031l94.681,0l-0,50.503c-0,32.365 15.809,63.151 42.132,81.938l303.757,216.983c17.484,12.37 37.857,18.787 58.503,18.787c15.719,0 31.528,-3.721 46.128,-11.162c33.668,-17.391 54.502,-51.711 54.502,-89.564l-0,-1183.59c-0,-37.853 -20.834,-72.173 -54.502,-89.471Z" style="fill:#0b0b16;fill-rule:nonzero;"/></g></g></svg>