<?xml version="1.0" encoding="UTF-8" standalone="no"?><!DOCTYPE svg PUBLIC "-//W3C//DTD SVG 1.1//EN" "http://www.w3.org/Graphics/SVG/1.1/DTD/svg11.dtd"><svg width="100%" height="100%" viewBox="0 0 2084 2084" version="1.1" xmlns="http://www.w3.org/2000/svg" xmlns:xlink="http://www.w3.org/1999/xlink" xml:space="preserve" xmlns:serif="http://www.serif.com/" style="fill-rule:evenodd;clip-rule:evenodd;stroke-linejoin:round;stroke-miterlimit:2;"><rect id="画板1" x="0" y="0" width="2083.33" height="2083.33" style="fill:none;"/><g id="画板11" serif:id="画板1"><g><path d="M1898.53,784.552c-66.961,-0 -121.559,-54.502 -121.559,-121.651c-0,-66.967 54.598,-121.469 121.559,-121.469c67.058,0 121.651,54.502 121.651,121.469c-0,67.149 -54.593,121.651 -121.651,121.651Zm-1360.68,661.55l0,-61.194c0,-17.394 -14.134,-31.625 -31.528,-31.625l-61.29,0c-24.83,0 -45.016,-20.18 -45.016,-45.016c-0,-24.738 20.186,-45.106 45.016,-45.106l275.765,-0c24.739,-0 44.92,20.368 44.92,45.106c-0,24.836 -20.181,45.016 -44.92,45.016l-61.387,0c-17.393,0 -31.528,14.231 -31.528,31.625l0,61.194c0,24.835 -20.18,45.016 -45.016,45.016c-24.739,-0 -45.016,-20.181 -45.016,-45.016Zm-337.89,-1353.15c33.202,0 60.269,27.066 60.269,60.365c-0,33.294 -27.067,60.36 -60.269,60.36c-33.294,0 -60.269,-27.066 -60.269,-60.36c-0,-33.299 26.975,-60.365 60.269,-60.365Zm705.544,60.365c-0,-33.299 27.066,-60.365 60.269,-60.365c33.299,0 60.36,27.066 60.36,60.365c-0,33.294 -27.061,60.36 -60.36,60.36c-33.203,0 -60.269,-27.066 -60.269,-60.36Zm1177.83,509.581c0,-101.748 -82.867,-184.621 -184.803,-184.621c-101.839,-0 -184.706,82.873 -184.706,184.621c-0,91.144 66.309,166.854 153.178,181.823l0,624.073c0,37.296 -30.131,67.427 -67.245,67.427c-37.109,0 -67.24,-30.131 -67.24,-67.427l-0,-461.959c-0,-78.406 -63.709,-142.024 -142.024,-142.024c-78.4,-0 -142.109,63.618 -142.109,142.024l-0,634.018c-0,61.387 -49.949,111.33 -111.33,111.33c-61.382,0 -111.422,-49.943 -111.422,-111.33l0,-182.566c0,-71.895 -58.503,-130.399 -130.301,-130.399c-71.895,0 -130.393,58.504 -130.393,130.399l0,356.771c0,96.633 -78.684,175.13 -175.317,175.13c-96.634,-0 -175.13,-78.497 -175.13,-175.13l-0,-266.093c44.085,-13.669 76.544,-54.314 76.544,-102.866l-0,-29.666l29.762,-0c59.616,-0 108.072,-48.553 108.072,-108.169l-0.096,-1.209c198.756,-116.348 337.056,-368.675 337.056,-660.897c0,-150.488 -36.274,-293.528 -104.257,-415.831c17.109,-21.299 27.713,-47.809 27.713,-77.01c0,-68.08 -55.432,-123.421 -123.512,-123.421c-68.08,-0 -123.416,55.341 -123.416,123.421c-0,68.08 55.336,123.513 123.416,123.513c15.718,-0 30.784,-3.259 44.55,-8.651c60.269,111.421 92.353,241.166 92.353,377.979c0,263.668 -120.254,491.625 -293.987,599.703c-19.534,-27.628 -51.624,-45.759 -87.892,-45.759l-275.765,-0c-36.274,-0 -68.268,18.04 -87.892,45.475c-173.643,-107.884 -294.084,-335.751 -294.084,-599.419c0,-136.813 32.085,-266.558 92.353,-377.979c13.863,5.392 28.832,8.651 44.551,8.651c68.08,-0 123.421,-55.433 123.421,-123.513c0,-68.08 -55.341,-123.421 -123.421,-123.421c-68.08,-0 -123.513,55.341 -123.513,123.421c0,29.201 10.695,55.711 27.719,77.01c-67.989,122.303 -104.166,265.343 -104.166,415.831c-0,292.222 138.204,544.361 337.051,660.71l-0.188,1.396c0,59.616 48.553,108.169 108.169,108.169l29.672,-0l-0,29.666c-0,48.552 32.459,89.197 76.634,102.866l0,266.093c0,131.414 106.959,238.373 238.283,238.373c131.511,0 238.373,-106.959 238.373,-238.373l0,-356.771c0,-37.018 30.229,-67.246 67.337,-67.246c37.017,0 67.245,30.228 67.245,67.246l0,182.566c0,96.168 78.219,174.387 174.478,174.387c96.168,-0 174.477,-78.219 174.477,-174.387l-0,-634.018c-0,-43.529 35.343,-78.872 78.962,-78.872c43.438,0 78.871,35.343 78.871,78.872l0,461.959c0,71.986 58.504,130.489 130.393,130.489c71.894,0 130.398,-58.503 130.398,-130.489l-0,-624.073c86.864,-14.969 153.178,-90.679 153.178,-181.823Z" style="fill:#0b0b16;fill-rule:nonzero;"/><path d="M1898.53,633.695c-16.087,-0 -29.11,13.113 -29.11,29.206c0,16.179 13.023,29.297 29.11,29.297c16.184,0 29.207,-13.118 29.207,-29.297c-0,-16.093 -13.023,-29.206 -29.207,-29.206Z" style="fill:#0b0b16;fill-rule:nonzero;"/></g></g></svg>