<?xml version="1.0" encoding="UTF-8" standalone="no"?><!DOCTYPE svg PUBLIC "-//W3C//DTD SVG 1.1//EN" "http://www.w3.org/Graphics/SVG/1.1/DTD/svg11.dtd"><svg width="100%" height="100%" viewBox="0 0 2084 2084" version="1.1" xmlns="http://www.w3.org/2000/svg" xmlns:xlink="http://www.w3.org/1999/xlink" xml:space="preserve" xmlns:serif="http://www.serif.com/" style="fill-rule:evenodd;clip-rule:evenodd;stroke-linejoin:round;stroke-miterlimit:2;"><rect id="画板1" x="0" y="0" width="2083.33" height="2083.33" style="fill:none;"/><g id="画板11" serif:id="画板1"><g><path d="M2019.38,1081.12c-36.828,229.894 -395.25,261.608 -777.015,261.608c-449.562,-0 -748.371,-134.108 -777.48,-263.561c-12.276,-54.129 -5.208,-96.814 21.483,-130.111c95.604,-119.503 431.334,-119.503 755.997,-119.503c343.914,0 661.323,79.423 754.788,189.071c18.228,21.479 25.575,41.942 22.227,62.496Zm-103.137,631.842c-0,192.227 -343.356,307.081 -918.468,307.081c-534.285,-0 -826.956,-101.555 -921.072,-319.637c-18.879,-43.713 -17.855,-80.631 3.442,-112.906c77.003,-117.085 402.875,-181.624 917.63,-181.624c635.19,0 918.468,94.669 918.468,307.086Zm-1559.89,-1143.53c-6.417,-30.039 -1.488,-53.942 15.717,-75.239c87.606,-108.44 454.956,-108.44 575.67,-108.44c348.192,0 590.736,100.442 590.736,190.28c-0,90.026 -242.544,190.28 -590.736,190.28c-549.072,-0 -570.555,-100.067 -591.387,-196.881Zm380.277,-375.44c4.371,-124.81 155.031,-130.759 421.104,-130.759c173.631,0 370.512,0 416.919,61.843c6.975,9.298 15.066,25.481 5.301,59.056c-19.437,66.588 -186.465,138.478 -422.22,138.478c-204.042,0 -350.703,-30.691 -402.504,-84.258c-13.206,-13.674 -19.065,-27.808 -18.6,-44.36Zm1308.51,783.711c-92.907,-109.092 -358.05,-189.258 -669.135,-207.485c133.362,-42.782 225.618,-108.065 225.618,-194.185c0,-93.465 -108.903,-162.563 -260.958,-204.783c161.076,-26.877 276.396,-89.191 299.832,-169.448c13.206,-44.922 7.998,-83.515 -15.252,-114.575c-65.472,-87.233 -260.772,-87.233 -467.511,-87.233c-256.215,0 -477.555,0 -484.158,191.858c-1.209,33.757 11.067,64.261 36.177,90.304c17.019,17.573 39.339,32.082 65.1,44.36c-248.961,12.09 -391.158,52.823 -451.886,127.965c-29.296,36.181 -38.782,79.423 -28.366,128.341c23.157,107.787 65.379,192.045 317.037,227.851c-76.818,21.297 -137.454,52.454 -174.561,98.954c-38.967,48.544 -50.22,110.296 -33.852,183.486c24.459,108.53 160.983,199.299 362.328,254.541c-411.897,17.948 -660.206,86.585 -738.234,205.157c-33.293,50.689 -36.176,108.717 -8.556,172.7c105.37,244.034 416.454,357.679 979.011,357.679c623.751,0 981.615,-134.942 981.615,-370.229c-0,-181.913 -154.38,-276.025 -374.976,-323.734c271.467,-30.601 447.33,-110.671 477.369,-298.158c6.231,-38.877 -6.417,-77.935 -36.642,-113.366Z" style="fill:#0b0b16;fill-rule:nonzero;"/></g></g></svg>