<?xml version="1.0" encoding="UTF-8" standalone="no"?><!DOCTYPE svg PUBLIC "-//W3C//DTD SVG 1.1//EN" "http://www.w3.org/Graphics/SVG/1.1/DTD/svg11.dtd"><svg width="100%" height="100%" viewBox="0 0 2084 2084" version="1.1" xmlns="http://www.w3.org/2000/svg" xmlns:xlink="http://www.w3.org/1999/xlink" xml:space="preserve" xmlns:serif="http://www.serif.com/" style="fill-rule:evenodd;clip-rule:evenodd;stroke-linejoin:round;stroke-miterlimit:2;"><rect id="画板1" x="0" y="0" width="2083.33" height="2083.33" style="fill:none;"/><g id="画板11" serif:id="画板1"><g><path d="M1041.76,2020.18c-437.945,-0 -794.235,-356.29 -794.235,-794.237c0,-437.85 356.29,-794.142 794.235,-794.142c437.853,0 794.143,356.292 794.143,794.142c-0,437.947 -356.29,794.237 -794.143,794.237Zm-565.543,-1544.85l87.049,-57.941l45.757,68.914c-30.039,17.67 -59.056,37.109 -86.678,58.22l-46.128,-69.193Zm-104.72,-6.323l-48.268,-72.541l226.552,-150.572l48.361,72.448l-226.645,150.665Zm598.559,-186.285l143.316,0l-0,89.097c-23.715,-1.953 -47.524,-3.162 -71.612,-3.162c-24.18,0 -48.081,1.209 -71.704,3.162l0,-89.097Zm-103.232,-63.053l0,-156.523l349.78,-0l-0,156.523l-349.78,0Zm653.338,197.72l87.05,57.941l-46.129,69.193c-27.622,-21.111 -56.638,-40.55 -86.771,-58.22l45.85,-68.914Zm13.392,-171.495l226.646,150.572l-48.268,72.541l-226.646,-150.665l48.268,-72.448Zm76.54,338.993l49.663,-74.681l43.433,28.924l17.484,5.299c10.323,0 20.274,-5.021 26.319,-14.228l83.237,-124.994l4.65,-23.716l-13.485,-20.088l-279.192,-185.632c-14.508,-9.766 -34.132,-5.767 -43.71,8.835l-83.237,125.088l-4.65,23.716l13.392,20.088l43.618,29.015l-49.012,73.66c-75.239,-37.016 -156.615,-63.244 -242.084,-76.822l0,-96.629l71.612,0c17.484,0 31.527,-14.043 31.527,-31.526l0,-219.577c0,-17.392 -14.043,-31.62 -31.527,-31.62l-412.928,-0c-17.392,-0 -31.528,14.228 -31.528,31.62l0,219.577c0,17.483 14.136,31.526 31.528,31.526l71.704,0l0,96.629c-85.562,13.578 -166.938,39.806 -242.084,76.913l-49.012,-73.751l43.525,-29.015l13.485,-20.088l-4.65,-23.716l-83.236,-125.088c-9.672,-14.602 -29.203,-18.508 -43.804,-8.835l-279.191,185.632l-13.486,20.088l4.743,23.716l83.144,124.994c6.138,9.207 16.182,14.228 26.319,14.228l17.485,-5.299l43.525,-28.924l49.663,74.681c-177.076,157.171 -288.957,386.329 -288.957,641.059c0,472.823 384.563,857.386 857.383,857.386c472.636,0 857.198,-384.563 857.198,-857.386c0,-254.73 -111.788,-483.888 -288.864,-641.059Z" style="fill:#0b0b16;fill-rule:nonzero;"/><path d="M1073.29,1839.85l0,-151.222c0,-17.39 -14.136,-31.527 -31.528,-31.527c-17.484,0 -31.62,14.137 -31.62,31.527l-0,151.222c-314.16,-15.996 -566.288,-268.124 -582.284,-582.286l151.221,-0c17.391,-0 31.527,-14.228 31.527,-31.621c0,-17.483 -14.136,-31.526 -31.527,-31.526l-151.221,-0c15.996,-314.159 268.124,-566.287 582.284,-582.377l-0,151.222c-0,17.483 14.136,31.62 31.62,31.62c17.392,0 31.528,-14.137 31.528,-31.62l0,-151.222c314.16,16.09 566.288,268.218 582.285,582.377l-151.221,-0c-17.392,-0 -31.528,14.043 -31.528,31.526c-0,17.393 14.136,31.621 31.528,31.621l151.221,-0c-15.997,314.162 -268.125,566.29 -582.285,582.286Zm-31.528,-1292.54c-374.239,-0 -678.727,304.395 -678.727,678.633c0,374.148 304.488,678.634 678.727,678.634c374.147,0 678.635,-304.486 678.635,-678.634c-0,-374.238 -304.488,-678.633 -678.635,-678.633Z" style="fill:#0b0b16;fill-rule:nonzero;"/><path d="M1041.76,1273.38c-26.133,0 -47.43,-21.297 -47.43,-47.432c-0,-17.855 21.111,-98.859 47.43,-189.537c26.134,90.678 47.246,171.682 47.246,189.537c-0,26.135 -21.205,47.432 -47.246,47.432Zm0,-378.889c-13.857,-0 -26.133,9.022 -30.225,22.322c-13.392,43.524 -80.261,263.194 -80.261,309.135c0,60.917 49.57,110.395 110.486,110.395c60.824,-0 110.394,-49.478 110.394,-110.395c-0,-45.941 -66.869,-265.611 -80.261,-309.135c-4.092,-13.3 -16.275,-22.322 -30.133,-22.322Z" style="fill:#0b0b16;fill-rule:nonzero;"/></g></g></svg>