<?xml version="1.0" encoding="UTF-8" standalone="no"?><!DOCTYPE svg PUBLIC "-//W3C//DTD SVG 1.1//EN" "http://www.w3.org/Graphics/SVG/1.1/DTD/svg11.dtd"><svg width="100%" height="100%" viewBox="0 0 2084 2084" version="1.1" xmlns="http://www.w3.org/2000/svg" xmlns:xlink="http://www.w3.org/1999/xlink" xml:space="preserve" xmlns:serif="http://www.serif.com/" style="fill-rule:evenodd;clip-rule:evenodd;stroke-linejoin:round;stroke-miterlimit:2;"><rect id="画板1" x="0" y="0" width="2083.33" height="2083.33" style="fill:none;"/><clipPath id="_clip1"><rect id="画板11" serif:id="画板1" x="0" y="0" width="2083.33" height="2083.33"/></clipPath><g clip-path="url(#_clip1)"><g><path d="M1868.64,1868.65l-1208.62,-0c-105.403,-0 -190.834,85.461 -190.834,190.834l1590.28,-0c0,-105.373 -85.43,-190.834 -190.834,-190.834Z" style="fill:#fff;fill-rule:nonzero;"/><path d="M1741.42,914.413l-954.17,-0c-0,105.404 85.43,190.833 190.834,190.833l572.502,0c105.403,0 190.834,-85.429 190.834,-190.833Z" style="fill:#fff;fill-rule:nonzero;"/><path d="M1550.56,1105.25l-572.439,0l-254.477,763.4l1081.36,-0l-254.445,-763.4Z" style="fill:#fff;fill-rule:nonzero;"/><path d="M494.769,2035.62l1539.17,0c-11.61,-80.818 -81.295,-143.125 -165.295,-143.125l-1208.62,-0c-83.966,-0 -153.685,62.307 -165.261,143.125Zm1564.71,47.709l-1590.28,-0c-13.167,-0 -23.854,-10.687 -23.854,-23.854c0,-118.349 96.34,-214.689 214.688,-214.689l1208.62,0c118.381,0 214.688,96.34 214.688,214.689c0,13.167 -10.686,23.854 -23.854,23.854Z" style="fill-rule:nonzero;"/><path d="M812.825,938.267c11.577,80.818 81.295,143.125 165.262,143.125l572.502,0c83.999,0 153.685,-62.307 165.294,-143.125l-903.058,-0Zm737.764,190.834l-572.502,-0c-118.348,-0 -214.688,-96.34 -214.688,-214.688c-0,-13.168 10.686,-23.855 23.854,-23.855l954.17,0c13.167,0 23.854,10.687 23.854,23.855c-0,118.348 -96.307,214.688 -214.688,214.688Z" style="fill-rule:nonzero;"/><path d="M756.752,1844.79l1015.17,0l-238.575,-715.69l-538.024,-0l-238.574,715.69Zm1048.28,47.709l-1081.39,-0c-7.665,-0 -14.853,-3.658 -19.338,-9.892c-4.485,-6.202 -5.725,-14.217 -3.308,-21.5l254.477,-763.431c3.276,-9.701 12.373,-16.285 22.646,-16.285l572.439,0c10.304,0 19.401,6.584 22.644,16.285l254.478,763.431c2.417,7.283 1.177,15.298 -3.276,21.5c-4.485,6.234 -11.673,9.892 -19.37,9.892Z" style="fill-rule:nonzero;"/><path d="M1264.34,914.476c-175.662,0 -318.057,-142.394 -318.057,-318.056c0,-175.695 142.395,-318.057 318.057,-318.057c175.663,0 318.056,142.362 318.056,318.057c0,175.662 -142.393,318.056 -318.056,318.056Z" style="fill:#fff;fill-rule:nonzero;"/><path d="M1264.34,302.217c-162.209,0 -294.203,131.93 -294.203,294.203c0,162.177 131.994,294.202 294.203,294.202c162.241,-0 294.202,-132.025 294.202,-294.202c0,-162.273 -131.961,-294.203 -294.202,-294.203Zm-0,636.113c-188.512,0 -341.911,-153.366 -341.911,-341.91c0,-188.544 153.399,-341.911 341.911,-341.911c188.544,-0 341.911,153.367 341.911,341.911c-0,188.544 -153.367,341.91 -341.911,341.91Z" style="fill-rule:nonzero;"/><path d="M1741.42,620.274c-13.168,-0 -23.855,-10.687 -23.855,-23.854c0,-136.542 -60.685,-264.528 -166.534,-351.039c-10.21,-8.397 -11.705,-23.441 -3.371,-33.619c8.365,-10.178 23.345,-11.609 33.555,-3.34c116.981,95.64 184.059,237.048 184.059,387.998c-0,13.167 -10.687,23.854 -23.854,23.854Z" style="fill-rule:nonzero;"/><path d="M1464.27,186.985c-3.339,0 -6.743,-0.763 -9.986,-2.258c-12.659,-5.82 -25.636,-11.1 -38.867,-15.775c-12.404,-4.389 -18.893,-18.066 -14.504,-30.502c4.422,-12.404 18.066,-18.861 30.471,-14.471c14.598,5.152 28.911,11.004 42.905,17.461c11.959,5.534 17.176,19.687 11.641,31.678c-4.008,8.715 -12.627,13.867 -21.66,13.867Z" style="fill-rule:nonzero;"/><path d="M1359.69,1805.03l-1081.39,0c-140.517,0 -254.445,113.928 -254.445,254.446l1590.28,-0c-0,-140.518 -113.928,-254.446 -254.445,-254.446Z" style="fill:#fff;fill-rule:nonzero;"/><path d="M1359.69,723.579l-1081.39,-0c0,140.517 113.928,254.445 254.446,254.445l572.501,-0c140.518,-0 254.446,-113.928 254.446,-254.445Z" style="fill:#fff;fill-rule:nonzero;"/><path d="M1105.21,978.024l-572.437,-0l-254.478,827.01l1081.39,0l-254.478,-827.01Z" style="fill:#fff;fill-rule:nonzero;"/><path d="M498.521,1681.47c-1.558,0 -3.084,-0.127 -4.675,-0.445c-12.945,-2.608 -21.31,-15.139 -18.734,-28.052l13.295,-66.792c2.545,-12.913 15.076,-21.246 28.053,-18.766c12.913,2.608 21.31,15.172 18.734,28.085l-13.295,66.792c-2.259,11.354 -12.214,19.178 -23.378,19.178Z" style="fill-rule:nonzero;"/><path d="M534.303,1501.77c-1.558,-0 -3.085,-0.128 -4.676,-0.446c-12.944,-2.608 -21.309,-15.171 -18.733,-28.084l66.474,-333.769c2.608,-12.913 15.171,-21.182 28.053,-18.765c12.912,2.608 21.277,15.171 18.701,28.084l-66.442,333.769c-2.29,11.386 -12.213,19.211 -23.377,19.211Z" style="fill-rule:nonzero;"/><path d="M48.917,2035.62l1540.16,0c-11.991,-115.995 -110.302,-206.736 -229.382,-206.736l-1081.39,-0c-119.08,-0 -217.423,90.741 -229.382,206.736Zm1565.22,47.709l-1590.28,-0c-13.167,-0 -23.854,-10.687 -23.854,-23.854c0,-153.431 124.837,-278.3 278.299,-278.3l1081.39,0c153.493,0 278.299,124.869 278.299,278.3c0,13.167 -10.687,23.854 -23.854,23.854Z" style="fill-rule:nonzero;"/><path d="M303.362,747.433c11.99,115.963 110.302,206.737 229.383,206.737l572.501,-0c119.08,-0 217.392,-90.774 229.383,-206.737l-1031.27,-0Zm801.884,254.445l-572.501,0c-153.463,0 -278.3,-124.869 -278.3,-278.299c0,-13.168 10.687,-23.855 23.854,-23.855l1081.39,0c13.167,0 23.854,10.687 23.854,23.855c-0,153.43 -124.806,278.299 -278.3,278.299Z" style="fill-rule:nonzero;"/><path d="M310.646,1781.12l1016.76,-0l-239.782,-779.239l-537.229,0l-239.751,779.239Zm1049.05,47.708l-1081.36,0c-7.569,0 -14.694,-3.594 -19.179,-9.701c-4.517,-6.075 -5.852,-13.899 -3.593,-21.182l254.445,-826.947c3.052,-9.987 12.308,-16.825 22.773,-16.825l572.437,-0c10.465,-0 19.72,6.838 22.805,16.825l254.477,826.947c2.226,7.283 0.891,15.107 -3.594,21.182c-4.516,6.107 -11.609,9.701 -19.21,9.701Z" style="fill-rule:nonzero;"/><path d="M818.996,723.642c-193.22,0 -349.863,-156.674 -349.863,-349.862c0,-193.251 156.643,-349.862 349.863,-349.862c193.25,-0 349.862,156.611 349.862,349.862c-0,193.188 -156.612,349.862 -349.862,349.862Z" style="fill:#fff;fill-rule:nonzero;"/><path d="M818.996,47.708c-179.766,0 -326.008,146.243 -326.008,326.008c-0,179.766 146.242,326.008 326.008,326.008c179.796,0 326.007,-146.242 326.007,-326.008c0,-179.765 -146.211,-326.008 -326.007,-326.008Zm-0,699.725c-206.037,-0 -373.717,-167.68 -373.717,-373.717c0,-206.068 167.68,-373.716 373.717,-373.716c206.069,0 373.716,167.648 373.716,373.716c-0,206.037 -167.647,373.717 -373.716,373.717Z" style="fill-rule:nonzero;"/><path d="M1066.83,373.78c-0,16.094 -13.04,29.134 -29.134,29.134c-16.126,-0 -29.166,-13.04 -29.166,-29.134c-0,-16.094 13.04,-29.198 29.166,-29.198c16.094,0 29.134,13.104 29.134,29.198Z" style="fill-rule:nonzero;"/><path d="M629.465,373.78c0,16.094 -13.04,29.134 -29.165,29.134c-16.062,-0 -29.135,-13.04 -29.135,-29.134c0,-16.094 13.073,-29.198 29.135,-29.198c16.125,0 29.165,13.104 29.165,29.198Z" style="fill-rule:nonzero;"/><path d="M819.186,582.68c-52.225,-0 -98.248,-29.071 -117.14,-74.108c-5.121,-12.181 0.573,-26.144 12.754,-31.233c12.182,-5.089 26.144,0.605 31.201,12.786c11.292,26.844 40.711,44.846 73.185,44.846c43.033,0 78.019,-30.82 78.019,-68.636c0,-31.361 -13.581,-68.701 -78.369,-68.701c-92.713,0 -125.727,-60.144 -125.727,-116.408c-0,-64.248 56.422,-116.409 125.727,-116.409c52.257,-0 98.248,29.07 117.172,74.107c5.089,12.15 -0.573,26.144 -12.754,31.233c-12.086,5.089 -26.144,-0.636 -31.233,-12.786c-11.259,-26.844 -40.679,-44.846 -73.185,-44.846c-43.001,0 -78.019,30.788 -78.019,68.701c0,31.296 13.549,68.7 78.019,68.7c92.968,-0 126.078,60.112 126.078,116.409c-0,64.183 -56.391,116.345 -125.728,116.345Z" style="fill-rule:nonzero;"/><path d="M818.836,212.525c-13.167,0 -23.854,-10.686 -23.854,-23.854l0,-50.952c0,-13.168 10.687,-23.855 23.854,-23.855c13.2,0 23.855,10.687 23.855,23.855l-0,50.952c-0,13.168 -10.655,23.854 -23.855,23.854Z" style="fill-rule:nonzero;"/><path d="M818.836,633.632c-13.167,0 -23.854,-10.687 -23.854,-23.854l0,-50.953c0,-13.167 10.687,-23.854 23.854,-23.854c13.2,0 23.855,10.687 23.855,23.854l-0,50.953c-0,13.167 -10.655,23.854 -23.855,23.854Z" style="fill-rule:nonzero;"/><path d="M1863.65,1727.49c-9.732,0 -18.892,-6.011 -22.391,-15.712c-4.549,-12.34 1.845,-26.017 14.217,-30.565l119.525,-43.606c12.373,-4.516 26.049,1.813 30.566,14.218c4.548,12.372 -1.845,26.048 -14.218,30.565l-119.525,43.605c-2.703,1.018 -5.439,1.495 -8.174,1.495Z" style="fill-rule:nonzero;"/><path d="M1945.23,1765.4c-9.733,-0 -18.894,-5.98 -22.424,-15.649l-43.605,-119.525c-4.517,-12.373 1.845,-26.049 14.249,-30.566c12.404,-4.548 26.08,1.845 30.565,14.217l43.605,119.526c4.517,12.372 -1.844,26.017 -14.249,30.565c-2.703,0.986 -5.47,1.432 -8.141,1.432Z" style="fill-rule:nonzero;"/><path d="M1880.38,1494.36c4.547,12.372 -1.845,26.112 -14.218,30.565c-12.34,4.548 -26.049,-1.845 -30.596,-14.217c-4.485,-12.372 1.876,-26.017 14.249,-30.565c12.372,-4.549 26.08,1.876 30.565,14.217Z" style="fill-rule:nonzero;"/><path d="M1847.68,1404.73c4.549,12.373 -1.844,26.081 -14.216,30.566c-12.405,4.516 -26.081,-1.877 -30.598,-14.217c-4.516,-12.373 1.877,-26.113 14.217,-30.566c12.405,-4.548 26.113,1.845 30.597,14.217Z" style="fill-rule:nonzero;"/><path d="M1793.17,1255.34c4.516,12.341 -1.845,26.017 -14.217,30.566c-12.405,4.516 -26.081,-1.877 -30.597,-14.249c-4.549,-12.341 1.876,-26.081 14.217,-30.566c12.372,-4.516 26.08,1.877 30.597,14.249Z" style="fill-rule:nonzero;"/><path d="M253.205,1536.6c-2.703,-0 -5.471,-0.414 -8.175,-1.432l-119.493,-43.605c-12.404,-4.517 -18.766,-18.193 -14.249,-30.565c4.516,-12.405 18.224,-18.734 30.565,-14.218l119.525,43.606c12.405,4.485 18.766,18.225 14.217,30.565c-3.498,9.701 -12.658,15.649 -22.39,15.649Z" style="fill-rule:nonzero;"/><path d="M171.655,1574.57c-2.704,-0 -5.47,-0.446 -8.174,-1.432c-12.404,-4.548 -18.766,-18.192 -14.217,-30.565l43.605,-119.526c4.485,-12.372 18.193,-18.828 30.566,-14.217c12.372,4.453 18.765,18.193 14.216,30.566l-43.605,119.525c-3.498,9.669 -12.69,15.649 -22.391,15.649Z" style="fill-rule:nonzero;"/><path d="M236.475,1303.52c-4.548,12.372 1.844,26.049 14.217,30.565c12.372,4.548 26.081,-1.845 30.565,-14.217c4.548,-12.372 -1.813,-26.081 -14.217,-30.565c-12.373,-4.549 -26.049,1.813 -30.565,14.217Z" style="fill-rule:nonzero;"/><path d="M269.171,1213.89c-4.517,12.372 1.845,26.017 14.249,30.565c12.34,4.516 26.048,-1.877 30.565,-14.217c4.516,-12.373 -1.844,-26.113 -14.249,-30.629c-12.341,-4.485 -26.049,1.845 -30.565,14.281Z" style="fill-rule:nonzero;"/><path d="M323.686,1064.44c-4.485,12.404 1.876,26.08 14.217,30.629c12.404,4.516 26.112,-1.877 30.597,-14.249c4.517,-12.404 -1.845,-26.081 -14.218,-30.629c-12.403,-4.453 -26.079,1.876 -30.596,14.249Z" style="fill-rule:nonzero;"/></g></g></svg>