<?xml version="1.0" encoding="UTF-8" standalone="no"?><!DOCTYPE svg PUBLIC "-//W3C//DTD SVG 1.1//EN" "http://www.w3.org/Graphics/SVG/1.1/DTD/svg11.dtd"><svg width="100%" height="100%" viewBox="0 0 8684 8684" version="1.1" xmlns="http://www.w3.org/2000/svg" xmlns:xlink="http://www.w3.org/1999/xlink" xml:space="preserve" xmlns:serif="http://www.serif.com/" style="fill-rule:evenodd;clip-rule:evenodd;stroke-linejoin:round;stroke-miterlimit:2;"><g><clipPath id="_clip1"><rect x="0" y="0" width="8680.54" height="8680.54"/></clipPath><g clip-path="url(#_clip1)"><g><path d="M8159.29,8160.08c-206.163,206.18 -492.542,295.68 -785.513,242.604c-556.871,-99.6 -1142.42,-148.42 -1708.59,-196.104c-1271.47,-105.775 -2472.41,-206.533 -3116.09,-850.621c-832.408,-832.004 -1011.83,-1910.49 -563.075,-2978.5l6.196,-15.112c201.904,-474.329 527.425,-946.721 975.017,-1394.7c430.537,-430.15 890.533,-754.9 1359.43,-961.458l50.766,-19.75c265.459,-112.775 533.621,-189.505 800.63,-224.771c112.77,-14.334 224.375,-21.309 334.82,-21.309c677.775,0 1309.06,275.53 1842.29,809.155c644.067,644.062 744.438,1844.62 850.617,3116.07c47.662,566.575 96.492,1152.12 196.087,1708.62c52.313,292.558 -35.654,579.725 -242.591,785.883Zm-7834.96,-4140.7c211.205,-227.871 771.567,-737.846 1391.6,-532.846c65.879,21.713 137.188,-11.237 163.15,-75.57c26.35,-64.313 -2.712,-137.567 -65.104,-168.171c-6.2,-2.721 -563.462,-276.688 -790.55,-1072.29c222.05,-72.85 774.663,-186.408 1230.39,269.333c51.154,51.538 134.471,51.538 185.625,0l38.362,-93.004l-38.362,-92.625c-459.217,-459.212 -344.513,-1008.71 -270.492,-1230.38c789.771,223.987 1062.2,767.292 1073.83,790.942c29.454,62.375 103.467,90.683 167.413,65.091c64.329,-25.971 97.658,-97.258 75.954,-163.533c-204.613,-617.713 305.367,-1179.23 533.233,-1391.2c508.821,751.396 275.142,1300.52 198.025,1441.96c-497.971,220.138 -983.537,561.538 -1436.17,1014.93c-460.38,460 -799.463,946.341 -1016.48,1436.57c-141.834,75.546 -693.675,306.517 -1440.43,-199.2Zm8336.42,3308.29c-97.271,-544.079 -145.712,-1123.81 -192.604,-1683.78c-110.438,-1320.69 -214.688,-2568.13 -926.958,-3280.41c-680.1,-680.104 -1508.25,-978.483 -2397.22,-862.229c-198.417,26.346 -397.217,72.85 -594.854,137.963c93.008,-331.725 118.966,-901 -402.638,-1587.31l-86.804,-50.758c-35.267,-4.658 -69.371,4.638 -97.658,25.95c-35.267,26.75 -716.534,556.875 -782.8,1278.07c-212.75,-210.034 -551.834,-447.979 -1060.27,-565.792c-60.454,-14.333 -121.688,15.492 -148.033,70.909c-3.88,6.979 -253.446,540.604 -51.155,1110.25c-569.275,-201.9 -1102.89,46.904 -1109.87,50.783c-55.805,26.725 -85.259,88.342 -71.309,148.421c118.2,508.812 356.138,847.9 565.788,1059.88c-720.796,66.275 -1251.32,748.321 -1277.67,783.183l-25.962,97.663l50.762,86.804c465.029,353.821 876.971,454.958 1197.07,454.958c151.516,0 281.725,-22.471 388.3,-52.696c-354.592,1074.58 -119.359,2146.88 726.216,2992.46c711.884,711.496 1959.33,816.133 3280.01,926.946c560.358,46.904 1139.71,95.345 1684.18,192.604c71.304,12.796 142.613,18.991 212.754,18.991c302.271,0 587.484,-116.654 805.279,-334.425c268.55,-268.17 383.259,-639.045 315.442,-1018.43Z" style="fill:#0b0b16;fill-rule:nonzero;"/><path d="M3584.94,3928.72c-94.554,-94.538 -94.554,-249.179 -0,-343.338c47.279,-47.283 109.279,-70.533 171.675,-70.533c62.004,-0 124.004,23.25 171.671,70.533c52.704,52.696 100.762,260.817 125.17,468.129c-207.712,-24.029 -415.812,-71.687 -468.516,-124.791Zm-186.013,-528.967c-197.25,196.863 -197.25,517.733 0,714.996c168.575,168.95 648.334,206.937 791.329,214.671l7.363,-0l93,-37.963c26.358,-26.75 40.304,-63.175 38.367,-99.979c-8.138,-143.004 -46.113,-623.529 -215.075,-791.725c-196.859,-197.642 -517.73,-197.642 -714.984,0Z" style="fill:#0b0b16;fill-rule:nonzero;"/><path d="M5173.04,3399.37c-46.117,-45.717 -71.309,-106.954 -71.309,-171.667c0,-65.117 25.192,-125.575 71.309,-171.671c45.725,-45.746 106.566,-71.316 171.671,-71.316c64.716,-0 125.558,25.57 171.283,71.316c53.096,53.075 101.146,261.171 125.171,468.509c-207.321,-24.03 -415.421,-72.471 -468.125,-125.171Zm-186.4,-528.967c-95.334,95.321 -148.038,222.054 -148.038,357.3c0,134.842 52.704,261.95 148.038,357.296c168.57,168.95 648.712,207.312 791.712,215.071l7.358,0.379l93.009,-38.363c25.966,-26.35 40.304,-63.154 38.366,-100.358c-8.137,-143.383 -46.5,-623.154 -215.079,-791.325c-191.05,-191.442 -524.321,-191.442 -715.366,0Z" style="fill:#0b0b16;fill-rule:nonzero;"/><path d="M6760.71,3161.8c47.667,-46.879 109.279,-70.908 171.671,-70.908c62.004,-0 124.396,24.029 171.675,70.908c52.704,53.1 100.754,261.196 125.171,468.133c-207.325,-23.629 -415.429,-72.066 -468.517,-125.166c-94.558,-94.163 -94.558,-248 0,-342.967Zm605.704,744.067l6.971,0.379l93.009,-38.746c26.345,-26.75 40.304,-62.771 38.362,-99.979c-7.75,-143.004 -46.117,-622.75 -214.687,-791.725c-197.638,-197.237 -518.509,-196.858 -715.367,0c-196.871,197.642 -196.871,518.513 -0,715.375c168.571,168.571 648.712,207.317 791.712,214.696Z" style="fill:#0b0b16;fill-rule:nonzero;"/><path d="M5173.04,5516.79c-94.559,-94.942 -94.559,-248.805 -0,-343.342c45.725,-45.746 106.566,-70.913 171.671,-70.913c64.716,0 125.558,25.167 171.283,70.913c53.096,53.075 101.146,261.196 125.171,468.133c-207.321,-24.033 -415.421,-72.096 -468.125,-124.791Zm-186.4,-529.371c-196.863,196.883 -196.863,517.733 -0,715.375c168.57,168.571 648.712,206.937 791.712,215.071l7.358,-0l93.009,-38.742c25.966,-26.35 40.304,-62.775 38.366,-100.358c-8.137,-142.625 -46.5,-622.75 -215.079,-791.346c-191.05,-191.042 -524.321,-191.421 -715.366,-0Z" style="fill:#0b0b16;fill-rule:nonzero;"/><path d="M6760.71,7104.5c-94.558,-94.542 -94.558,-248 0,-342.962c47.667,-47.663 109.279,-70.913 171.671,-70.913c62.004,0 124.396,23.25 171.675,70.912c52.704,52.317 100.754,260.817 125.171,468.13c-207.325,-23.63 -415.429,-72.067 -468.517,-125.167Zm-186.008,-528.967c-196.871,197.263 -196.871,517.729 -0,715.371c168.571,168.575 648.712,206.558 791.712,214.696l6.971,-0l93.009,-38.363c26.345,-26.754 40.304,-62.8 38.362,-99.983c-7.75,-143.004 -46.117,-622.75 -214.687,-791.721c-197.638,-197.641 -518.509,-196.862 -715.367,0Z" style="fill:#0b0b16;fill-rule:nonzero;"/><path d="M6866.5,5305.21c-94.558,-94.541 -94.558,-248.779 0,-343.341c47.667,-47.663 109.671,-71.313 171.679,-71.313c61.996,0 124.392,23.65 171.667,71.313c53.092,53.1 101.146,261.195 125.171,468.508c-207.325,-24.408 -415.421,-72.85 -468.517,-125.167Zm-185.625,-529.345c-197.246,196.858 -197.246,517.729 0,714.97c168.188,168.975 648.329,207.338 791.329,215.075l6.975,0l93.004,-38.745c26.738,-26.35 40.305,-62.775 38.755,-99.98c-8.138,-143.004 -46.509,-622.75 -214.688,-791.32c-197.642,-197.263 -518.125,-197.642 -715.375,-0Z" style="fill:#0b0b16;fill-rule:nonzero;"/><path d="M3055.2,5173.46c47.662,-47.283 109.662,-70.912 172.058,-70.912c62,-0 124.005,23.629 171.671,70.912c52.704,53.075 100.754,261.196 124.788,468.134c-206.942,-24.034 -415.429,-72.096 -468.517,-124.792c-94.558,-94.942 -94.558,-248.804 0,-343.342Zm606.083,744.417l6.979,0l93.005,-38.742c26.354,-26.35 40.304,-62.775 38.362,-100.358c-8.137,-142.625 -46.116,-622.75 -214.687,-791.346c-197.638,-197.237 -518.117,-197.237 -715.371,0c-197.25,196.884 -197.25,517.734 -0,715.375c168.575,168.571 648.717,206.938 791.712,215.071Z" style="fill:#0b0b16;fill-rule:nonzero;"/><path d="M3161.38,7104.5c-45.725,-45.721 -71.3,-106.558 -71.3,-171.671c0,-64.337 25.575,-125.55 71.3,-171.291c47.283,-47.663 109.671,-70.913 171.675,-70.913c62.008,0 124.396,23.25 171.671,70.913c52.704,52.316 100.762,260.816 125.171,468.129c-207.321,-23.63 -415.813,-72.067 -468.517,-125.167Zm-186.008,-528.967c-95.717,95.342 -148.038,222.45 -148.038,357.296c0,135.646 52.321,262.754 148.038,358.075c168.57,168.575 648.712,206.559 791.712,214.696l6.975,0l93.008,-38.362c26.351,-26.755 40.301,-62.8 38.367,-99.984c-8.146,-143.004 -46.117,-622.75 -214.691,-791.721c-197.251,-197.641 -517.73,-197.641 -715.371,0Z" style="fill:#0b0b16;fill-rule:nonzero;"/><path d="M4961.04,7210.67c-94.559,-94.538 -94.559,-249.159 -0,-343.721c47.275,-46.9 109.662,-70.529 171.671,-70.529c62.004,-0 124.395,23.629 171.675,70.529c52.699,53.079 100.754,261.575 125.17,468.512c-207.329,-24.408 -415.429,-72.07 -468.516,-124.791Zm-186.017,-529.346c-197.246,197.242 -197.246,517.733 -0,715.375c168.579,168.95 648.721,206.533 791.712,214.292l6.975,0.779l93.396,-38.742c25.963,-26.371 39.913,-62.796 37.979,-100.383c-7.754,-142.6 -46.116,-622.371 -214.687,-791.321c-197.254,-197.263 -517.733,-197.263 -715.375,-0Z" style="fill:#0b0b16;fill-rule:nonzero;"/></g></g></g></svg>