<?xml version="1.0" encoding="UTF-8" standalone="no"?><!DOCTYPE svg PUBLIC "-//W3C//DTD SVG 1.1//EN" "http://www.w3.org/Graphics/SVG/1.1/DTD/svg11.dtd"><svg width="100%" height="100%" viewBox="0 0 2084 2084" version="1.1" xmlns="http://www.w3.org/2000/svg" xmlns:xlink="http://www.w3.org/1999/xlink" xml:space="preserve" xmlns:serif="http://www.serif.com/" style="fill-rule:evenodd;clip-rule:evenodd;stroke-linejoin:round;stroke-miterlimit:2;"><rect id="画板1" x="0" y="0" width="2083.33" height="2083.33" style="fill:none;"/><clipPath id="_clip1"><rect id="画板11" serif:id="画板1" x="0" y="0" width="2083.33" height="2083.33"/></clipPath><g clip-path="url(#_clip1)"><g><path d="M2059.48,723.593c0,-399.123 -334.208,-720.196 -738.101,-698.664c-358.478,19.147 -649.399,316.811 -660.943,675.669c-6.68,207.433 77.253,395.02 215.001,527.107c76.778,73.533 117.808,176.9 117.808,283.257l-0,39.565l733.044,0l0,-47.262c0,-106.42 46.467,-205.875 122.577,-280.236c129.861,-126.839 210.614,-303.516 210.614,-499.436Z" style="fill:#fff;fill-rule:nonzero;"/><path d="M1614.21,1804.97l-508.882,0c-35.113,0 -63.611,-28.433 -63.611,-63.61c0,-35.081 28.498,-63.61 63.611,-63.61l508.882,-0c35.144,-0 63.61,28.529 63.61,63.61c0,35.177 -28.466,63.61 -63.61,63.61Z" style="fill:#fff;fill-rule:nonzero;"/><path d="M1614.21,1932.19l-508.882,0c-35.113,0 -63.611,-28.434 -63.611,-63.61c0,-35.081 28.498,-63.611 63.611,-63.611l508.882,0c35.144,0 63.61,28.53 63.61,63.611c0,35.176 -28.466,63.61 -63.61,63.61Z" style="fill:#fff;fill-rule:nonzero;"/><path d="M1614.21,1677.75l-508.882,-0c-35.113,-0 -63.611,-28.434 -63.611,-63.611l0,-63.61l636.103,0l0,63.61c0,35.177 -28.466,63.611 -63.61,63.611Z" style="fill:#fff;fill-rule:nonzero;"/><path d="M1017.1,1526.67l685.337,0l0,-23.408c0,-109.951 46.087,-215.576 129.766,-297.251c131.196,-128.143 203.426,-299.478 203.426,-482.421c-0,-187.333 -74.901,-361.593 -210.933,-490.563c-135.935,-128.811 -314.171,-194.552 -502.044,-184.311c-346.772,18.574 -627.165,305.202 -638.36,652.642c-6.172,191.149 69.525,376.701 207.655,509.073c79.544,76.269 125.153,185.806 125.153,300.528l0,15.711Zm709.191,47.708l-733.044,-0c-13.168,-0 -23.854,-10.686 -23.854,-23.854l-0,-39.565c-0,-101.809 -40.265,-198.783 -110.46,-266.114c-147.893,-141.756 -228.934,-340.411 -222.318,-545.045c11.958,-371.962 312.199,-678.85 683.493,-698.728c201.039,-10.75 391.87,59.412 537.412,197.351c145.636,138.098 225.816,324.604 225.816,525.167c0,195.856 -77.35,379.308 -217.802,516.516c-74.392,72.706 -115.389,166.118 -115.389,263.156l0,47.262c0,13.168 -10.686,23.854 -23.854,23.854Z" style="fill-rule:nonzero;"/><path d="M1105.33,1701.6c-21.915,-0 -39.757,17.842 -39.757,39.756c0,21.946 17.842,39.757 39.757,39.757l508.882,-0c21.946,-0 39.757,-17.811 39.757,-39.757c-0,-21.914 -17.811,-39.756 -39.757,-39.756l-508.882,-0Zm508.882,127.22l-508.882,0c-48.217,0 -87.465,-39.184 -87.465,-87.464c0,-48.185 39.248,-87.464 87.465,-87.464l508.882,-0c48.25,-0 87.464,39.279 87.464,87.464c0,48.28 -39.214,87.464 -87.464,87.464Z" style="fill-rule:nonzero;"/><path d="M1105.33,1828.82c-21.915,0 -39.757,17.843 -39.757,39.757c0,21.945 17.842,39.756 39.757,39.756l508.882,0c21.946,0 39.757,-17.811 39.757,-39.756c-0,-21.914 -17.811,-39.757 -39.757,-39.757l-508.882,0Zm508.882,127.221l-508.882,-0c-48.217,-0 -87.465,-39.184 -87.465,-87.464c0,-48.185 39.248,-87.464 87.465,-87.464l508.882,-0c48.25,-0 87.464,39.279 87.464,87.464c0,48.28 -39.214,87.464 -87.464,87.464Z" style="fill-rule:nonzero;"/><path d="M1065.57,1574.38l0,39.756c0,21.946 17.842,39.757 39.757,39.757l508.882,-0c21.946,-0 39.757,-17.811 39.757,-39.757l-0,-39.756l-588.396,-0Zm548.639,127.221l-508.882,-0c-48.217,-0 -87.465,-39.184 -87.465,-87.465l0,-63.61c0,-13.167 10.687,-23.854 23.854,-23.854l636.103,0c13.168,0 23.854,10.687 23.854,23.854l0,63.61c0,48.281 -39.214,87.465 -87.464,87.465Z" style="fill-rule:nonzero;"/><path d="M1550.6,2083.26l-381.662,-0c-13.168,-0 -23.854,-10.687 -23.854,-23.854c0,-13.168 10.686,-23.854 23.854,-23.854l381.662,-0c13.167,-0 23.854,10.686 23.854,23.854c-0,13.167 -10.687,23.854 -23.854,23.854Z" style="fill-rule:nonzero;"/><path d="M1896.89,685.204c-11.958,0 -22.264,-8.937 -23.663,-21.119c-17.462,-152.378 -101.364,-288.282 -230.174,-372.852c-11.036,-7.187 -14.09,-21.977 -6.87,-32.981c7.252,-11.037 22.041,-14.09 33.045,-6.902c140.676,92.394 232.306,240.797 251.388,407.329c1.497,13.04 -7.887,24.903 -20.99,26.398c-0.891,0.063 -1.844,0.127 -2.736,0.127Z" style="fill-rule:nonzero;"/><path d="M1873.36,917.032c-2.481,-0 -4.993,-0.382 -7.474,-1.241c-12.532,-4.102 -19.305,-17.588 -15.204,-30.119c10.815,-32.727 18.353,-66.791 22.36,-101.204c1.558,-13.104 13.421,-22.232 26.494,-20.928c13.072,1.559 22.454,13.422 20.928,26.462c-4.422,37.594 -12.659,74.869 -24.46,110.65c-3.307,9.987 -12.625,16.38 -22.644,16.38Z" style="fill-rule:nonzero;"/><path d="M1112.83,1113.33l0,-355.709l0.381,0.128c35.654,42.428 90.962,67.84 152.029,61.893c81.326,-7.952 147.957,-73.629 156.926,-154.828c11.736,-106.007 -70.956,-195.729 -174.577,-195.729c-54.198,-0 -102.573,24.617 -134.759,63.197l0,-507.96l-324.223,-0c38.581,32.218 63.197,80.562 63.197,134.79c0,103.621 -89.722,186.314 -195.728,174.546c-81.231,-8.937 -146.845,-75.6 -154.796,-156.894c-5.979,-61.066 19.4,-116.344 61.861,-152.029l0.19,-0.413l-539.478,-0l-0,507.96c32.219,-38.58 80.563,-63.197 134.758,-63.197c103.621,-0 186.314,89.722 174.579,195.729c-8.97,81.199 -75.601,146.876 -156.927,154.828c-61.034,5.947 -116.344,-19.465 -151.997,-61.893l-0.413,-0.128l-0,355.646l348.647,-0l-0.221,0.445c-42.461,35.654 -67.809,90.931 -61.861,151.997c7.951,81.326 73.596,147.957 154.796,156.927c106.004,11.736 195.728,-70.958 195.728,-174.579c0,-54.228 -24.585,-102.54 -63.197,-134.79l515.085,0.063Z" style="fill:#fff;fill-rule:nonzero;"/><path d="M47.708,1089.42l324.793,-0c8.27,-0 15.936,4.294 20.292,11.323c4.325,7.06 4.739,15.839 1.05,23.217c-1.463,2.926 -3.721,5.916 -6.202,8.015c-38.388,32.251 -58.363,81.326 -53.464,131.387c6.806,69.622 64.279,127.889 133.676,135.618c43.829,4.77 86.097,-8.588 118.665,-37.785c32.155,-28.752 50.571,-70.003 50.571,-113.131c0,-45.036 -19.911,-87.528 -54.61,-116.47c-7.728,-6.393 -10.559,-17.016 -7.156,-26.462c3.436,-9.446 12.405,-15.712 22.423,-15.712l491.231,-0l0,-331.792c0,-7.633 3.625,-14.757 9.765,-19.242c6.169,-4.484 14.089,-5.852 21.34,-3.466c4.294,1.367 8.493,4.039 11.387,7.506c32.219,38.325 81.293,58.139 131.451,53.496c69.589,-6.838 127.855,-64.31 135.552,-133.741c4.836,-43.923 -8.524,-86.065 -37.72,-118.665c-28.816,-32.123 -70.036,-50.57 -113.162,-50.57c-45.068,-0 -87.497,19.878 -116.439,54.609c-6.426,7.697 -16.984,10.56 -26.463,7.157c-9.446,-3.435 -15.711,-12.373 -15.711,-22.423l0,-484.107l-247.031,0c21.786,32.474 33.713,70.926 33.713,110.937c0,56.645 -24.234,110.809 -66.472,148.657c-42.206,37.816 -98.946,56.105 -155.75,49.616c-92.84,-10.241 -166.818,-85.269 -175.915,-178.331c-4.579,-46.786 7.412,-92.871 32.855,-130.879l-462.669,0l-0,430.801c32.473,-21.818 70.894,-33.745 110.904,-33.745c56.677,0 110.872,24.236 148.689,66.473c37.817,42.174 55.882,98.946 49.616,155.75c-10.273,92.775 -85.269,166.786 -178.331,175.914c-46.691,4.707 -92.871,-7.41 -130.878,-32.855l-0,278.9Zm437.066,358.19c-7.378,-0 -14.757,-0.446 -22.168,-1.241c-92.84,-10.273 -166.818,-85.301 -175.915,-178.363c-4.579,-46.754 7.379,-92.871 32.824,-130.878l-295.661,-0c-13.168,-0 -23.854,-10.687 -23.854,-23.854l0,-355.646c0,-7.569 3.593,-14.694 9.669,-19.178c6.105,-4.548 13.962,-5.916 21.214,-3.594c4.356,1.304 8.683,4.039 11.64,7.57c32.218,38.388 81.421,58.139 131.419,53.496c69.623,-6.838 127.889,-64.31 135.555,-133.709c4.864,-43.955 -8.524,-86.097 -37.722,-118.697c-28.783,-32.123 -70.034,-50.57 -113.163,-50.57c-45.036,-0 -87.464,19.878 -116.439,54.609c-6.425,7.697 -16.984,10.56 -26.43,7.157c-9.446,-3.435 -15.743,-12.373 -15.743,-22.423l0,-507.96c0,-13.168 10.686,-23.854 23.854,-23.854l539.478,-0c8.27,-0 15.967,4.293 20.292,11.291c4.358,7.092 4.739,15.839 1.05,23.249c-1.464,2.926 -3.69,5.884 -6.202,8.015c-38.357,32.219 -58.363,81.294 -53.464,131.387c6.806,69.622 64.279,127.889 133.676,135.586c43.86,4.802 86.097,-8.556 118.665,-37.753c32.155,-28.784 50.602,-70.003 50.602,-113.131c0,-45.1 -19.909,-87.528 -54.641,-116.471c-7.695,-6.393 -10.559,-17.015 -7.125,-26.461c3.405,-9.447 12.374,-15.712 22.423,-15.712l324.223,-0c13.168,-0 23.854,10.686 23.854,23.854l0,454.654c32.44,-21.818 70.894,-33.745 110.905,-33.745c56.676,0 110.871,24.236 148.689,66.473c37.815,42.174 55.882,98.946 49.615,155.75c-10.273,92.775 -85.301,166.786 -178.364,175.914c-46.657,4.707 -92.87,-7.41 -130.845,-32.855l0,302.754c0,13.167 -10.686,23.854 -23.854,23.854l-461.747,-0c21.786,32.505 33.713,70.957 33.713,110.936c0,56.677 -24.236,110.841 -66.44,148.657c-36.705,32.855 -84.444,50.889 -133.583,50.889Z" style="fill-rule:nonzero;"/><path d="M413.054,1987.85l-44.02,0c-13.167,0 -23.854,-10.686 -23.854,-23.854c0,-13.167 10.687,-23.854 23.854,-23.854l44.02,0c13.167,0 23.854,10.687 23.854,23.854c-0,13.168 -10.687,23.854 -23.854,23.854Z" style="fill-rule:nonzero;"/><path d="M559.865,1987.85l-44.048,0c-13.168,0 -23.854,-10.686 -23.854,-23.854c-0,-13.167 10.686,-23.854 23.854,-23.854l44.048,0c13.168,0 23.854,10.687 23.854,23.854c0,13.168 -10.686,23.854 -23.854,23.854Z" style="fill-rule:nonzero;"/><path d="M464.45,2083.26c-13.168,-0 -23.854,-10.687 -23.854,-23.854l-0,-43.987c-0,-13.167 10.686,-23.854 23.854,-23.854c13.167,0 23.854,10.687 23.854,23.854l-0,43.987c-0,13.167 -10.687,23.854 -23.854,23.854Z" style="fill-rule:nonzero;"/><path d="M464.45,1936.48c-13.168,-0 -23.854,-10.687 -23.854,-23.854l-0,-44.05c-0,-13.168 10.686,-23.854 23.854,-23.854c13.167,-0 23.854,10.686 23.854,23.854l-0,44.05c-0,13.167 -10.687,23.854 -23.854,23.854Z" style="fill-rule:nonzero;"/><path d="M699.331,1701.6l-44.05,-0c-13.168,-0 -23.854,-10.687 -23.854,-23.854c-0,-13.168 10.686,-23.854 23.854,-23.854l44.05,-0c13.168,-0 23.854,10.686 23.854,23.854c0,13.167 -10.686,23.854 -23.854,23.854Z" style="fill-rule:nonzero;"/><path d="M846.112,1701.6l-44.018,-0c-13.167,-0 -23.854,-10.687 -23.854,-23.854c0,-13.168 10.687,-23.854 23.854,-23.854l44.018,-0c13.167,-0 23.854,10.686 23.854,23.854c-0,13.167 -10.687,23.854 -23.854,23.854Z" style="fill-rule:nonzero;"/><path d="M750.696,1797.02c-13.167,0 -23.854,-10.686 -23.854,-23.854l0,-44.05c0,-13.167 10.687,-23.854 23.854,-23.854c13.168,0 23.854,10.687 23.854,23.854l0,44.05c0,13.168 -10.686,23.854 -23.854,23.854Z" style="fill-rule:nonzero;"/><path d="M750.696,1650.24c-13.167,0 -23.854,-10.686 -23.854,-23.853l0,-44.051c0,-13.167 10.687,-23.854 23.854,-23.854c13.168,0 23.854,10.687 23.854,23.854l0,44.051c0,13.167 -10.686,23.853 -23.854,23.853Z" style="fill-rule:nonzero;"/><path d="M163.32,1574.38l-44.051,-0c-13.167,-0 -23.854,-10.686 -23.854,-23.854c0,-13.167 10.687,-23.854 23.854,-23.854l44.051,0c13.167,0 23.854,10.687 23.854,23.854c-0,13.168 -10.687,23.854 -23.854,23.854Z" style="fill-rule:nonzero;"/><path d="M310.1,1574.38l-44.019,-0c-13.167,-0 -23.854,-10.686 -23.854,-23.854c0,-13.167 10.687,-23.854 23.854,-23.854l44.019,0c13.168,0 23.854,10.687 23.854,23.854c0,13.168 -10.686,23.854 -23.854,23.854Z" style="fill-rule:nonzero;"/><path d="M214.685,1669.8c-13.168,0 -23.854,-10.686 -23.854,-23.853l-0,-44.051c-0,-13.167 10.686,-23.853 23.854,-23.853c13.167,-0 23.854,10.686 23.854,23.853l-0,44.051c-0,13.167 -10.687,23.853 -23.854,23.853Z" style="fill-rule:nonzero;"/><path d="M214.685,1523.02c-13.168,-0 -23.854,-10.687 -23.854,-23.854l-0,-44.05c-0,-13.168 10.686,-23.854 23.854,-23.854c13.167,-0 23.854,10.686 23.854,23.854l-0,44.05c-0,13.167 -10.687,23.854 -23.854,23.854Z" style="fill-rule:nonzero;"/><path d="M1359.77,1574.38c-13.168,-0 -23.854,-10.686 -23.854,-23.854l-0,-435.317l-114.498,-114.562c-9.32,-9.319 -9.32,-24.395 0,-33.714c9.318,-9.319 24.427,-9.319 33.745,0l121.496,121.496c4.453,4.453 6.965,10.559 6.965,16.888l-0,445.209c-0,13.168 -10.687,23.854 -23.854,23.854Z" style="fill-rule:nonzero;"/><path d="M1359.77,1129.17c-6.107,0 -12.181,-2.353 -16.858,-7.029c-9.318,-9.319 -9.318,-24.394 0,-33.713l123.628,-123.627c9.319,-9.319 24.426,-9.319 33.746,0c9.318,9.319 9.318,24.427 0,33.746l-123.627,123.594c-4.677,4.676 -10.782,7.029 -16.889,7.029Z" style="fill-rule:nonzero;"/></g></g></svg>