<?xml version="1.0" encoding="UTF-8" standalone="no"?><!DOCTYPE svg PUBLIC "-//W3C//DTD SVG 1.1//EN" "http://www.w3.org/Graphics/SVG/1.1/DTD/svg11.dtd"><svg width="100%" height="100%" viewBox="0 0 2084 2084" version="1.1" xmlns="http://www.w3.org/2000/svg" xmlns:xlink="http://www.w3.org/1999/xlink" xml:space="preserve" xmlns:serif="http://www.serif.com/" style="fill-rule:evenodd;clip-rule:evenodd;stroke-linejoin:round;stroke-miterlimit:2;"><rect id="画板1" x="0" y="0" width="2083.33" height="2083.33" style="fill:none;"/><clipPath id="_clip1"><rect id="画板11" serif:id="画板1" x="0" y="0" width="2083.33" height="2083.33"/></clipPath><g clip-path="url(#_clip1)"><g><path d="M1168.96,2059.35l-254.465,0c-52.668,0 -95.413,-42.745 -95.413,-95.413c0,-52.668 42.745,-95.412 95.413,-95.412l254.465,-0c52.701,-0 95.412,42.744 95.412,95.412c0,52.668 -42.711,95.413 -95.412,95.413Z" style="fill:#fff;fill-rule:nonzero;"/><path d="M1614.22,1987.8l-349.846,-0c-13.167,-0 -23.853,-10.687 -23.853,-23.854c0,-13.167 10.686,-23.853 23.853,-23.853l349.846,0c162.234,0 294.189,-131.924 294.189,-294.189l0,-347.651c0,-13.199 10.686,-23.853 23.853,-23.853c13.167,-0 23.854,10.654 23.854,23.853l-0,347.651c-0,188.536 -153.359,341.896 -341.896,341.896Z" style="fill-rule:nonzero;"/><path d="M914.498,1892.38c-39.406,-0 -71.56,32.123 -71.56,71.559c0,39.437 32.154,71.56 71.56,71.56l254.465,-0c39.469,-0 71.559,-32.123 71.559,-71.56c0,-39.436 -32.09,-71.559 -71.559,-71.559l-254.465,-0Zm254.465,190.825l-254.465,0c-65.74,0 -119.266,-53.463 -119.266,-119.266c0,-65.77 53.526,-119.265 119.266,-119.265l254.465,-0c65.77,-0 119.265,53.495 119.265,119.265c0,65.803 -53.495,119.266 -119.265,119.266Z" style="fill-rule:nonzero;"/><path d="M1932.26,1168.77l0,-197.885c0,-382.541 -398.697,-692.632 -890.548,-692.632c-491.789,-0 -890.486,310.091 -890.486,692.632l0,197.885l0,-254.433c0,-491.852 398.697,-890.486 890.486,-890.486c491.851,0 890.548,398.634 890.548,890.486l0,254.433Z" style="fill:#fff;fill-rule:nonzero;"/><path d="M1041.71,254.402c370.232,-0 689.769,173.238 833.429,421.788c-103.715,-362.473 -438.103,-628.484 -833.429,-628.484c-395.263,0 -729.621,266.011 -833.366,628.484c143.692,-248.55 463.197,-421.788 833.366,-421.788Zm890.548,938.223c-13.167,0 -23.853,-10.686 -23.853,-23.853l0,-197.885c0,-368.738 -388.774,-668.779 -866.695,-668.779c-477.858,-0 -866.633,300.041 -866.633,668.779l0,197.885c0,13.167 -10.687,23.853 -23.853,23.853c-13.167,0 -23.853,-10.686 -23.853,-23.853l-0,-254.433c-0,-504.192 410.178,-914.339 914.339,-914.339c504.224,0 914.402,410.147 914.402,914.339l-0,254.433c-0,13.167 -10.687,23.853 -23.854,23.853Z" style="fill-rule:nonzero;"/><path d="M469.207,1614.03l-63.608,0c-35.112,0 -63.609,-28.432 -63.609,-63.608l0,-636.084c0,-35.143 28.497,-63.609 63.609,-63.609l63.608,0c35.144,0 63.608,28.466 63.608,63.609l0,636.084c0,35.176 -28.464,63.608 -63.608,63.608Z" style="fill:#fff;fill-rule:nonzero;"/><path d="M1677.89,1614.03l-63.609,0c-35.112,0 -63.608,-28.432 -63.608,-63.608l0,-636.084c0,-35.143 28.496,-63.609 63.608,-63.609l63.609,0c35.143,0 63.608,28.466 63.608,63.609l0,636.084c0,35.176 -28.465,63.608 -63.608,63.608Z" style="fill:#fff;fill-rule:nonzero;"/><path d="M1264.38,1582.23l-308.532,-0l-200.366,159.021l-0,-795.105c-0,-35.143 28.496,-63.608 63.608,-63.608l445.29,-0c35.145,-0 63.609,28.465 63.609,63.608l-0,572.476c-0,35.112 -28.464,63.608 -63.609,63.608Z" style="fill:#fff;fill-rule:nonzero;"/><path d="M341.895,1550.36c-175.655,-0 -318.042,-142.356 -318.042,-318.042c0,-175.655 142.387,-318.042 318.042,-318.042l0,636.084Z" style="fill:#fff;fill-rule:nonzero;"/><path d="M1741.44,914.276c175.655,-0 318.042,142.387 318.042,318.042c0,175.686 -142.387,318.042 -318.042,318.042l0,-636.084Z" style="fill:#fff;fill-rule:nonzero;"/><path d="M1041.71,1447.06c-13.167,0 -23.853,-10.686 -23.853,-23.853l-0,-254.434c-0,-13.166 10.686,-23.853 23.853,-23.853c13.198,0 23.884,10.687 23.884,23.853l-0,254.434c-0,13.167 -10.686,23.853 -23.884,23.853Z" style="fill-rule:nonzero;"/><path d="M1089.45,1447.06l-95.444,0c-13.167,0 -23.853,-10.686 -23.853,-23.853c0,-13.166 10.686,-23.853 23.853,-23.853l95.444,-0c13.167,-0 23.853,10.687 23.853,23.853c0,13.167 -10.686,23.853 -23.853,23.853Z" style="fill-rule:nonzero;"/><path d="M1089.45,1192.62l-95.444,0c-13.167,0 -23.853,-10.686 -23.853,-23.853c0,-13.166 10.686,-23.853 23.853,-23.853l95.444,0c13.167,0 23.853,10.687 23.853,23.853c0,13.167 -10.686,23.853 -23.853,23.853Z" style="fill-rule:nonzero;"/><path d="M1073.55,1073.36c-0,17.525 -14.215,31.804 -31.835,31.804c-17.556,-0 -31.804,-14.279 -31.804,-31.804c-0,-17.587 14.248,-31.804 31.804,-31.804c17.62,-0 31.835,14.217 31.835,31.804Z" style="fill-rule:nonzero;"/><path d="M819.085,906.388c-21.881,-0 -39.755,17.842 -39.755,39.755l0,745.714l161.725,-128.33c4.23,-3.34 9.446,-5.153 14.788,-5.153l308.532,-0c21.945,-0 39.755,-17.81 39.755,-39.755l0,-572.476c0,-21.913 -17.81,-39.755 -39.755,-39.755l-445.29,-0Zm-63.608,858.713c-3.498,0 -7.029,-0.731 -10.337,-2.353c-8.236,-3.975 -13.516,-12.372 -13.516,-21.5l-0,-795.105c-0,-48.183 39.277,-87.462 87.461,-87.462l445.29,0c48.248,0 87.462,39.279 87.462,87.462l-0,572.476c-0,48.215 -39.214,87.461 -87.462,87.461l-300.167,0l-193.846,153.869c-4.358,3.435 -9.574,5.152 -14.885,5.152Z" style="fill-rule:nonzero;"/><path d="M405.599,874.583c-21.913,0 -39.756,17.843 -39.756,39.756l0,636.084c0,21.945 17.843,39.755 39.756,39.755l63.608,-0c21.945,-0 39.755,-17.81 39.755,-39.755l0,-636.084c0,-21.913 -17.81,-39.756 -39.755,-39.756l-63.608,0Zm63.608,763.301l-63.608,0c-48.215,0 -87.462,-39.245 -87.462,-87.461l0,-636.084c0,-48.247 39.247,-87.462 87.462,-87.462l63.608,0c48.247,0 87.462,39.215 87.462,87.462l-0,636.084c-0,48.216 -39.215,87.461 -87.462,87.461Z" style="fill-rule:nonzero;"/><path d="M1614.29,874.583c-21.913,0 -39.755,17.843 -39.755,39.756l0,636.084c0,21.945 17.842,39.755 39.755,39.755l63.609,-0c21.945,-0 39.755,-17.81 39.755,-39.755l0,-636.084c0,-21.913 -17.81,-39.756 -39.755,-39.756l-63.609,0Zm63.609,763.301l-63.609,0c-48.214,0 -87.461,-39.245 -87.461,-87.461l-0,-636.084c-0,-48.247 39.247,-87.462 87.461,-87.462l63.609,0c48.248,0 87.461,39.215 87.461,87.462l0,636.084c0,48.216 -39.213,87.461 -87.461,87.461Z" style="fill-rule:nonzero;"/><path d="M1765.29,939.083l0,586.437c151.103,-12.18 270.336,-139.016 270.336,-293.202c0,-154.156 -119.233,-281.086 -270.336,-293.235Zm-23.853,635.13c-13.167,-0 -23.853,-10.686 -23.853,-23.853l0,-636.084c0,-13.167 10.686,-23.854 23.853,-23.854c188.537,0 341.895,153.392 341.895,341.896c0,188.535 -153.358,341.895 -341.895,341.895Z" style="fill-rule:nonzero;"/><path d="M318.042,939.083c-151.102,12.149 -270.336,139.079 -270.336,293.235c0,154.186 119.234,281.022 270.336,293.202l0,-586.437Zm23.853,635.13c-188.535,-0 -341.895,-153.36 -341.895,-341.895c0,-188.504 153.36,-341.896 341.895,-341.896c13.167,0 23.853,10.687 23.853,23.854l0,636.084c0,13.167 -10.686,23.853 -23.853,23.853Z" style="fill-rule:nonzero;"/><path d="M734.423,651.954l-127.218,0c-13.167,0 -23.853,-10.686 -23.853,-23.853c0,-13.166 10.686,-23.853 23.853,-23.853l127.218,-0c13.167,-0 23.853,10.687 23.853,23.853c0,13.167 -10.686,23.853 -23.853,23.853Z" style="fill-rule:nonzero;"/><path d="M670.815,715.562c-13.168,0 -23.855,-10.686 -23.855,-23.853l0,-127.216c0,-13.166 10.687,-23.854 23.855,-23.854c13.167,0 23.853,10.688 23.853,23.854l-0,127.216c-0,13.167 -10.686,23.853 -23.853,23.853Z" style="fill-rule:nonzero;"/><path d="M357.797,1860.51l-127.217,-0c-13.167,-0 -23.853,-10.686 -23.853,-23.853c0,-13.166 10.686,-23.854 23.853,-23.854l127.217,0c13.167,0 23.853,10.688 23.853,23.854c0,13.167 -10.686,23.853 -23.853,23.853Z" style="fill-rule:nonzero;"/><path d="M294.189,1924.12c-13.167,0 -23.853,-10.686 -23.853,-23.853l-0,-127.217c-0,-13.166 10.686,-23.853 23.853,-23.853c13.167,-0 23.853,10.687 23.853,23.853l0,127.217c0,13.167 -10.686,23.853 -23.853,23.853Z" style="fill-rule:nonzero;"/><path d="M1932.26,171.425l-127.216,0c-13.167,0 -23.854,-10.686 -23.854,-23.853c0,-13.167 10.687,-23.853 23.854,-23.853l127.216,-0c13.167,-0 23.854,10.686 23.854,23.853c-0,13.167 -10.687,23.853 -23.854,23.853Z" style="fill-rule:nonzero;"/><path d="M1868.65,235.034c-13.167,-0 -23.853,-10.687 -23.853,-23.854l-0,-127.216c-0,-13.167 10.686,-23.854 23.853,-23.854c13.167,0 23.853,10.687 23.853,23.854l0,127.216c0,13.167 -10.686,23.854 -23.853,23.854Z" style="fill-rule:nonzero;"/><path d="M1020.69,492.87l-127.217,-0c-13.167,-0 -23.853,-10.686 -23.853,-23.853c-0,-13.167 10.686,-23.853 23.853,-23.853l127.217,-0c13.167,-0 23.853,10.686 23.853,23.853c-0,13.167 -10.686,23.853 -23.853,23.853Z" style="fill-rule:nonzero;"/><path d="M957.083,556.478c-13.167,0 -23.853,-10.686 -23.853,-23.853l0,-127.217c0,-13.167 10.686,-23.853 23.853,-23.853c13.167,0 23.854,10.686 23.854,23.853l-0,127.217c-0,13.167 -10.687,23.853 -23.854,23.853Z" style="fill-rule:nonzero;"/><path d="M1501.7,729.366l-127.217,0c-13.167,0 -23.853,-10.686 -23.853,-23.853c0,-13.167 10.686,-23.853 23.853,-23.853l127.217,-0c13.167,-0 23.853,10.686 23.853,23.853c0,13.167 -10.686,23.853 -23.853,23.853Z" style="fill-rule:nonzero;"/><path d="M1438.09,792.975c-13.167,-0 -23.853,-10.687 -23.853,-23.854l-0,-127.216c-0,-13.167 10.686,-23.854 23.853,-23.854c13.167,0 23.853,10.687 23.853,23.854l0,127.216c0,13.167 -10.686,23.854 -23.853,23.854Z" style="fill-rule:nonzero;"/></g></g></svg>