<?xml version="1.0" encoding="UTF-8" standalone="no"?><!DOCTYPE svg PUBLIC "-//W3C//DTD SVG 1.1//EN" "http://www.w3.org/Graphics/SVG/1.1/DTD/svg11.dtd"><svg width="100%" height="100%" viewBox="0 0 2084 2084" version="1.1" xmlns="http://www.w3.org/2000/svg" xmlns:xlink="http://www.w3.org/1999/xlink" xml:space="preserve" xmlns:serif="http://www.serif.com/" style="fill-rule:evenodd;clip-rule:evenodd;stroke-linejoin:round;stroke-miterlimit:2;"><rect id="画板1" x="0" y="0" width="2083.33" height="2083.33" style="fill:none;"/><clipPath id="_clip1"><rect id="画板11" serif:id="画板1" x="0" y="0" width="2083.33" height="2083.33"/></clipPath><g clip-path="url(#_clip1)"><g><path d="M1133.09,2020.18c-89.012,-0 -161.368,-72.362 -161.368,-161.278c-0,-88.916 72.356,-161.278 161.368,-161.278c88.916,0 161.369,72.362 161.369,161.278c-0,88.916 -72.453,161.278 -161.369,161.278Zm-719.329,-0c-89.006,-0 -161.465,-72.362 -161.465,-161.278c0,-88.916 72.459,-161.278 161.465,-161.278c88.916,0 161.278,72.362 161.278,161.278c-0,88.916 -72.362,161.278 -161.278,161.278Zm359.665,-1107.55c27.901,-0 50.597,22.786 50.597,50.688c-0,27.998 -22.696,50.694 -50.597,50.694c-27.998,-0 -50.688,-22.696 -50.688,-50.694c-0,-27.902 22.69,-50.688 50.688,-50.688Zm359.664,721.747c-76.358,0 -143.884,38.409 -184.439,96.914l-123.697,-667.057c36.734,-18.79 62.223,-56.734 62.223,-100.916c0,-44.552 -26.136,-82.961 -63.529,-101.564l10.236,-55.337c28.923,-156.259 43.62,-315.953 43.62,-474.903l0,-299.957c0,-17.388 -14.141,-31.528 -31.529,-31.528c-17.49,-0 -31.625,14.14 -31.625,31.528l-0,299.957c-0,151.695 -13.857,304.23 -40.924,453.416c-27.158,-149.186 -41.015,-301.721 -41.015,-453.416l-0,-299.957c-0,-17.388 -14.141,-31.528 -31.626,-31.528c-17.393,-0 -31.528,14.14 -31.528,31.528l-0,299.957c-0,158.95 14.697,318.644 43.62,474.903l10.23,55.337c-37.388,18.603 -63.524,57.012 -63.524,101.564c0,44.182 25.483,82.126 62.224,100.916l-123.703,667.057c-40.459,-58.505 -108.075,-96.914 -184.343,-96.914c-123.794,0 -224.523,100.729 -224.523,224.523c0,123.703 100.729,224.426 224.523,224.426c122.307,0 222.105,-98.401 224.154,-220.43l135.511,-730.393l135.42,730.393c2.14,122.029 101.847,220.43 224.244,220.43c123.794,0 224.432,-100.723 224.432,-224.426c0,-123.794 -100.638,-224.523 -224.432,-224.523Z" style="fill:#0b0b16;fill-rule:nonzero;"/><path d="M1762.48,2020.18c-37.665,-0 -68.36,-30.604 -68.36,-68.366l0,-629.664l136.817,-0l-0,629.664c-0,37.762 -30.695,68.366 -68.457,68.366Zm-48.457,-1364.53c-88.637,-71.8 -131.696,-150.861 -127.977,-234.849c6.136,-139.325 135.05,-265.072 208.06,-325.433l-0,754.207l-68.457,-0l0,-169.373c0,-9.486 -4.274,-18.597 -11.626,-24.552Zm-19.903,466.439l0,-209.456l136.817,-0l-0,209.456l-136.817,0Zm136.817,136.817l-136.817,-0l0,-73.571l136.817,-0l-0,73.571Zm31.529,-409.331l-5.303,-0l0,-818.015c0,-11.626 -6.323,-22.411 -16.644,-27.804c-10.235,-5.581 -22.696,-4.837 -32.369,1.487c-11.348,7.624 -275.12,186.948 -285.162,412.493c-4.559,101.376 42.411,194.572 139.603,277.254l0,154.585c-17.393,-0 -31.625,14.044 -31.625,31.529l-0,1070.71c-0,72.549 58.971,131.514 131.514,131.514c72.55,0 131.611,-58.965 131.611,-131.514l0,-1070.71c0,-17.485 -14.141,-31.529 -31.625,-31.529Z" style="fill:#0b0b16;fill-rule:nonzero;"/></g></g></svg>