<?xml version="1.0" encoding="UTF-8" standalone="no"?><!DOCTYPE svg PUBLIC "-//W3C//DTD SVG 1.1//EN" "http://www.w3.org/Graphics/SVG/1.1/DTD/svg11.dtd"><svg width="100%" height="100%" viewBox="0 0 2084 2084" version="1.1" xmlns="http://www.w3.org/2000/svg" xmlns:xlink="http://www.w3.org/1999/xlink" xml:space="preserve" xmlns:serif="http://www.serif.com/" style="fill-rule:evenodd;clip-rule:evenodd;stroke-linejoin:round;stroke-miterlimit:2;"><rect id="画板1" x="0" y="0" width="2083.33" height="2083.33" style="fill:none;"/><g id="画板11" serif:id="画板1"><g><path d="M1882.65,992.796c-29.018,72.629 -55.243,138.107 -123.508,184.608c-5.767,-79.612 -33.945,-156.243 -82.683,-220.603c76.36,-39.525 117.372,-93.28 134.764,-121.367l155.966,-0c-41.109,47.614 -63.15,103.231 -84.539,157.362Zm-191.216,281.051c-19.436,102.397 -82.212,191.397 -172.24,244.04c-115.135,67.425 -256.779,109.09 -414.328,123.877c5.489,-41.756 8.56,-87.888 8.56,-139.407c0,-17.489 -14.043,-31.533 -31.623,-31.533l-411.348,0c8.089,-48.732 12.835,-103.6 12.835,-167.029c-0,-17.392 -14.14,-31.436 -31.533,-31.436l-392.933,0c-18.602,-100.257 6.414,-202.932 68.917,-282.265c43.521,-55.425 104.344,-124.808 178.842,-189.814c85.095,46.314 256.313,73.56 468.639,73.56c208.325,0 377.312,-29.296 462.039,-79.049c77.375,66.68 140.616,138.482 185.443,195.303c62.684,79.708 87.797,183.127 68.73,283.753Zm-919.7,676.595c-172.892,0 -271.009,-147.502 -277.986,-416.468l556.153,0c-7.067,268.966 -105.184,416.468 -278.167,416.468Zm-430.046,-198.561c-172.892,-0 -271.009,-147.502 -278.076,-416.468l556.153,0c-1.209,49.481 -5.949,94.399 -13.482,135.411l-144.624,0c-17.296,0 -31.526,14.044 -31.526,31.533c-0,88.626 8.929,161.823 23.812,222.646c-32.832,17.296 -70.217,26.878 -112.257,26.878Zm633.534,-1156.3c154.848,0 294.17,69.19 408.374,155.869c-68.356,30.692 -202.654,59.148 -408.374,59.148c-209.346,0 -344.575,-25.39 -414.696,-54.402c115.413,-88.91 256.966,-160.615 414.696,-160.615Zm46.871,-60.732c-15.435,-1.209 -30.965,-2.418 -46.871,-2.418c-18.692,-0 -37.106,1.113 -55.339,2.787l0,-52.268c0,-26.038 21.207,-47.245 47.341,-47.245l7.624,-0c26.043,-0 47.245,21.207 47.245,47.245l-0,51.899Zm-46.871,-402.05c315.649,0 503.516,226.739 551.227,657.62c-113.835,-108.346 -265.152,-214.467 -441.206,-247.385l-0,-60.084c-0,-60.914 -49.567,-110.486 -110.395,-110.486l-7.624,-0c-60.919,-0 -110.486,49.572 -110.486,110.486l0,61.475c-172.336,34.598 -320.394,139.226 -432.373,245.619c47.807,-430.415 235.299,-657.245 550.857,-657.245Zm1106.82,662.178c-3.905,-13.391 -16.274,-22.694 -30.227,-22.694l-259.196,-0c-12.369,-0 -23.626,7.254 -28.74,18.51c-0.369,0.926 -33.389,71.239 -128.157,115.691c-12.278,-14.321 -25.112,-29.199 -39.156,-44.452c-44.264,-649.439 -356.292,-792.383 -621.347,-792.383c-265.054,0 -576.616,143.319 -621.068,792.009c-29.018,31.623 -54.687,62.128 -75.985,89.375c-71.336,90.584 -100.91,207.025 -83.052,321.325l-163.594,0c-17.296,0 -31.527,14.044 -31.527,31.436c-0,461.567 239.017,511.327 341.692,511.327c33.48,-0 81.474,-5.58 130.95,-28.831c73.282,199.952 223.39,227.392 299.096,227.392c85.004,0 263.011,-34.32 322.069,-307.373c173.449,-14.139 330.061,-59.432 457.383,-133.923c105.65,-61.851 179.404,-166.291 202.28,-286.728c2.14,-11.625 3.44,-23.25 4.745,-34.688c112.439,-58.224 149.824,-151.13 183.031,-234.925c28.547,-71.988 55.612,-140.066 127.504,-185.545c11.716,-7.533 17.296,-22.042 13.299,-35.523Z" style="fill:#0b0b16;fill-rule:nonzero;"/></g></g></svg>