<?xml version="1.0" encoding="UTF-8" standalone="no"?><!DOCTYPE svg PUBLIC "-//W3C//DTD SVG 1.1//EN" "http://www.w3.org/Graphics/SVG/1.1/DTD/svg11.dtd"><svg width="100%" height="100%" viewBox="0 0 2084 2084" version="1.1" xmlns="http://www.w3.org/2000/svg" xmlns:xlink="http://www.w3.org/1999/xlink" xml:space="preserve" xmlns:serif="http://www.serif.com/" style="fill-rule:evenodd;clip-rule:evenodd;stroke-linejoin:round;stroke-miterlimit:2;"><rect id="画板1" x="0" y="0" width="2083.33" height="2083.33" style="fill:none;"/><clipPath id="_clip1"><rect id="画板11" serif:id="画板1" x="0" y="0" width="2083.33" height="2083.33"/></clipPath><g clip-path="url(#_clip1)"><g><path d="M2020.1,960.201c0,55.984 -27.994,107.784 -74.862,138.38l-422.392,278.805l5.392,-95.415l351.992,-228.773c42.871,-27.899 68.539,-75.327 68.539,-126.569l-0,-271.551c-0,-35.153 -28.545,-63.703 -63.794,-63.703l-317.679,0l4.188,-70.864l383.239,0c36.174,0 65.377,29.387 65.377,65.563l0,374.127Zm-1264.01,111.69l111.41,48.172l-0,238.538l-222.543,0l0,-238.538l111.133,-48.172Zm486.651,674.229l-692.552,-0c-109.735,-0 -200.593,-85.837 -206.916,-195.387l-63.05,-1110.2l444.432,-0l0,576.21l-123.875,53.566c-11.437,4.929 -19.06,16.367 -19.06,28.829l0,290.895c0,17.483 14.224,31.526 31.616,31.526l285.689,-0c17.482,-0 31.616,-14.043 31.616,-31.526l-0,-290.895c-0,-12.462 -7.623,-23.9 -19.061,-28.829l-123.875,-53.566l0,-576.21l725.098,-0l-63.237,1110.2c-6.136,109.55 -96.993,195.387 -206.825,195.387Zm365.574,63.144l-247.744,106.761l-928.297,0l-247.562,-106.761l1423.6,0Zm-883.66,-1530.36l0,98.484l-448.059,-0l-5.579,-98.484l453.638,0Zm143.214,-111.69c32.83,0 61.194,19.995 73.562,48.452l-147.124,0c12.09,-28.457 40.459,-48.452 73.562,-48.452Zm648.374,210.174l-728.538,-0l0,-98.484l734.214,0l-5.676,98.484Zm47.617,277.131l321.863,0.558l-0,271.551c-0,29.852 -14.877,57.379 -39.801,73.747l-313.309,203.385l31.247,-549.241Zm390.867,-197.061l-379.799,0l11.994,-208.313c0.374,-8.742 -2.509,-17.205 -8.741,-23.436c-5.949,-6.323 -14.134,-10.043 -22.875,-10.043l-548.129,0c-14.411,-63.703 -71.235,-111.504 -139.308,-111.504c-68.164,0 -124.988,47.801 -139.496,111.504l-490.84,0c-8.741,0 -16.829,3.72 -22.874,10.043c-5.955,6.231 -9.116,14.694 -8.554,23.436l74.118,1305.12c4.558,77.466 41.475,145.54 96.806,191.853l-345.294,-0c-15.07,-0 -27.903,10.601 -31.065,25.202c-3.065,14.693 4.745,29.48 18.601,35.338l394.125,169.813l12.55,2.697l941.226,0l12.459,-2.697l394.028,-169.813c13.952,-5.858 21.575,-20.645 18.51,-35.338c-3.071,-14.601 -15.995,-25.202 -30.878,-25.202l-345.481,-0c55.609,-46.313 92.254,-114.387 96.812,-191.853l5.67,-98.391l461.546,-304.566c64.815,-42.221 103.503,-113.735 103.503,-191.109l0,-374.127c0,-70.957 -57.748,-128.615 -128.614,-128.615Z" style="fill:#0b0b16;fill-rule:nonzero;"/></g></g></svg>