<?xml version="1.0" encoding="UTF-8" standalone="no"?><!DOCTYPE svg PUBLIC "-//W3C//DTD SVG 1.1//EN" "http://www.w3.org/Graphics/SVG/1.1/DTD/svg11.dtd"><svg width="100%" height="100%" viewBox="0 0 2084 2084" version="1.1" xmlns="http://www.w3.org/2000/svg" xmlns:xlink="http://www.w3.org/1999/xlink" xml:space="preserve" xmlns:serif="http://www.serif.com/" style="fill-rule:evenodd;clip-rule:evenodd;stroke-linejoin:round;stroke-miterlimit:2;"><rect id="画板1" x="0" y="0" width="2083.33" height="2083.33" style="fill:none;"/><g id="画板11" serif:id="画板1"><g><path d="M1901.41,1076.45c-58.872,62.131 -126.952,134.769 -168.715,235.586c-22.412,-70.873 -61.103,-142.114 -122.116,-211.403c-65.196,-73.847 -111.142,-148.251 -143.505,-220.611c24.552,-51.896 130.392,-260.228 268.879,-279.948c65.196,-9.577 131.511,26.6 197.263,106.771c147.694,179.688 80.08,251.208 -31.806,369.605Zm-462.333,943.734l-679.498,-0c-64.362,-67.898 -452.382,-505.952 -124.074,-877.788c287.016,-325.243 233.077,-666.856 202.105,-785.157l523.158,-0c-30.881,118.301 -84.639,459.914 202.377,785.157c97.196,110.211 132.442,225.35 132.073,334.631l-0.562,6.233l0.374,2.884c-5.211,259.859 -209.075,485.584 -255.953,534.04Zm-1213.63,-945.408c-14.135,-55.427 -19.063,-103.888 -23.717,-150.76c-8.555,-86.682 -16.366,-164.06 -84.168,-238.748l118.301,0c42.319,63.431 61.756,104.263 78.962,140.44c25.301,53.201 47.065,99.239 125.005,188.243c39.805,45.203 93.006,71.525 148.432,86.404l-0.181,0.278c-79.428,90.031 -121.19,183.224 -137.744,274.459c-94.027,-70.311 -191.591,-170.849 -224.89,-300.316Zm873.979,-867.463c82.68,0 161.829,30.41 228.331,86.773l-457.031,0c66.683,-56.363 145.832,-86.773 228.7,-86.773Zm-45.203,-74.778c-0,-36.921 21.02,-69.38 45.015,-69.38c24.183,0 45.203,32.459 45.203,69.38l-1.209,14.135c-14.606,-1.578 -29.11,-2.509 -43.806,-2.509c-14.884,-0 -29.576,0.931 -44.181,2.509l-1.022,-14.135Zm927.827,534.228c-80.823,-98.399 -166.762,-142.024 -255.209,-129.189c-137.647,19.72 -240.695,172.995 -290.456,263.583c-80.637,-249.255 -7.624,-452.757 -3.253,-464.473l0.925,-4.371l0.653,-2.509l-0,-8.095l-0.278,-1.675l-1.862,-6.227l-1.487,-2.884l-1.578,-3.162l-1.119,-1.209l-0.743,-1.305c-61.944,-73.57 -138.766,-123.234 -222.286,-146.202c1.397,-8.56 2.328,-17.393 2.328,-26.51c-0,-73.007 -48.643,-132.532 -108.447,-132.532c-59.616,-0 -108.259,59.525 -108.259,132.532c0,9.117 1.119,17.95 2.509,26.414c-83.701,22.973 -160.523,72.728 -222.467,146.298l-0.743,1.209l-1.118,1.305l-1.766,3.531l-1.3,2.418l-2.049,6.886l-0.278,1.022l0.187,8.276l0.466,2.419l1.112,4.462c1.487,3.723 130.398,360.494 -132.997,709.078c-54.967,-10.325 -108.628,-31.806 -145.089,-73.569c-72.264,-82.311 -91.422,-122.581 -115.514,-173.642c-19.437,-40.826 -41.667,-87.238 -93.193,-162.76c-5.859,-8.555 -15.622,-13.766 -26.226,-13.766l-218.658,-0c-13.857,-0 -25.948,8.838 -30.132,21.951c-4.183,13.113 0.557,27.345 11.626,35.343c106.21,75.987 113.095,145.554 123.699,250.93c4.74,46.877 9.951,99.886 25.386,160.251c41.485,161.642 166.762,280.317 277.809,357.139c-13.857,332.406 278.092,622.675 282.088,626.677l21.952,8.929l709.538,0c13.488,0 24.926,-8.373 29.394,-20.089c50.499,-53.667 261.624,-294.18 271.575,-572.454l1.119,-4.28c8.742,-175.595 104.631,-277.156 189.451,-366.722c111.887,-118.397 217.631,-230.283 34.69,-453.028Z" style="fill:#0b0b16;fill-rule:nonzero;"/></g></g></svg>