<?xml version="1.0" encoding="UTF-8" standalone="no"?><!DOCTYPE svg PUBLIC "-//W3C//DTD SVG 1.1//EN" "http://www.w3.org/Graphics/SVG/1.1/DTD/svg11.dtd"><svg width="100%" height="100%" viewBox="0 0 2084 2084" version="1.1" xmlns="http://www.w3.org/2000/svg" xmlns:xlink="http://www.w3.org/1999/xlink" xml:space="preserve" xmlns:serif="http://www.serif.com/" style="fill-rule:evenodd;clip-rule:evenodd;stroke-linejoin:round;stroke-miterlimit:2;"><rect id="画板1" x="0" y="0" width="2083.33" height="2083.33" style="fill:none;"/><g id="画板11" serif:id="画板1"><g><path d="M2020.18,1032.04c0,51.43 -25.669,98.863 -68.641,126.764l-333.698,218.003c-2.236,-34.877 -4.371,-70.685 -6.42,-107.327l228.142,-148.993c40.457,-26.51 64.73,-71.15 64.73,-119.697l-0,-252.602c-0,-33.855 -27.622,-61.477 -61.568,-61.477l-248.419,-0c0.284,-30.415 0.84,-59.894 1.675,-88.447l365.418,0c32.459,0 58.781,26.317 58.781,58.775l0,375.001Zm-1200.41,39.526l123.789,53.479l0,264.131l-247.584,0l0,-264.131l123.795,-53.479Zm-462.425,739.295c15.906,-176.15 81.657,-953.302 46.411,-1355.55l384.481,-0l-0,561.101l-136.437,58.969c-11.535,5.018 -18.971,16.462 -18.971,28.922l0,316.498c0,17.393 14.044,31.437 31.528,31.437l310.821,-0c17.393,-0 31.624,-14.044 31.624,-31.437l0,-316.498c0,-12.46 -7.533,-23.904 -19.158,-28.922l-136.255,-58.969l-0,-561.101l689.54,-0c-35.246,402.248 30.597,1179.4 46.411,1355.55l-1230,0Zm1120.53,184.801l-1011.06,0l-282.268,-121.649l1575.6,0l-282.268,121.649Zm-1159.4,-1786.62l469.765,0l-0,183.03l-391.27,0c-2.696,-21.577 -6.045,-42.035 -9.673,-60.45c-5.954,-29.859 -40.088,-82.31 -68.822,-122.58Zm622.669,-121.377c38.505,0 71.054,24.279 83.889,58.316l-167.686,-0c12.834,-34.037 45.475,-58.316 83.797,-58.316Zm616.25,243.957c-3.718,18.415 -6.88,38.873 -9.673,60.45l-696.329,0l-0,-183.03l774.825,0c-28.644,40.27 -62.778,92.721 -68.823,122.58Zm36.642,418.148l247.022,-1.578l0,252.602c0,27.061 -13.391,51.987 -35.989,66.871l-197.545,128.994c-7.72,-148.618 -13.21,-304.685 -13.488,-446.889Zm367.371,-214.745l-362.716,0c3.996,-74.965 10.507,-140.535 20.549,-190.846c4.371,-21.861 52.645,-93.38 94.68,-147.137c7.533,-9.577 8.929,-22.411 3.627,-33.293c-5.302,-10.882 -16.365,-17.768 -28.457,-17.768l-598.209,-0c-14.6,-69.192 -76.174,-121.462 -149.737,-121.462c-73.568,0 -134.955,52.27 -149.555,121.462l-535.988,-0c-12.182,-0 -23.155,6.886 -28.366,17.768c-5.302,10.882 -3.906,23.716 3.536,33.293c42.132,53.757 90.213,125.276 94.584,147.137c65.939,327.839 -15.532,1289.33 -31.528,1466.69l-262.275,0c-14.975,0 -27.901,10.513 -30.875,25.204c-3.071,14.697 4.649,29.394 18.415,35.343l428.752,184.801l12.556,2.605l1023.99,0l12.46,-2.605l428.753,-184.801c13.765,-5.949 21.485,-20.646 18.511,-35.343c-3.071,-14.691 -15.997,-25.204 -30.972,-25.204l-262.462,0c-4.927,-56.357 -16.649,-192.056 -28.088,-361.695l363.466,-237.44c60.915,-39.809 97.285,-107.048 97.285,-179.686l0,-375.001c0,-67.335 -54.688,-122.018 -121.933,-122.018Z" style="fill:#0b0b16;fill-rule:nonzero;"/></g></g></svg>