<?xml version="1.0" encoding="UTF-8" standalone="no"?><!DOCTYPE svg PUBLIC "-//W3C//DTD SVG 1.1//EN" "http://www.w3.org/Graphics/SVG/1.1/DTD/svg11.dtd"><svg width="100%" height="100%" viewBox="0 0 2084 2084" version="1.1" xmlns="http://www.w3.org/2000/svg" xmlns:xlink="http://www.w3.org/1999/xlink" xml:space="preserve" xmlns:serif="http://www.serif.com/" style="fill-rule:evenodd;clip-rule:evenodd;stroke-linejoin:round;stroke-miterlimit:2;"><rect id="画板1" x="0" y="0" width="2083.33" height="2083.33" style="fill:none;"/><clipPath id="_clip1"><rect id="画板11" serif:id="画板1" x="0" y="0" width="2083.33" height="2083.33"/></clipPath><g clip-path="url(#_clip1)"><g><path d="M1959.8,1112.43c-41.945,86.029 -100.166,155.598 -164.432,204.425c0.93,-16.275 1.581,-32.737 1.581,-49.664c-0,-228.048 -86.029,-442.332 -242.65,-606.95c25.205,-21.67 51.804,-40.457 79.613,-55.525c50.129,-27.251 100.352,-40.92 147.505,-40.92c34.412,0 67.149,7.252 97.097,21.949c71.149,34.689 119.326,107.233 135.695,204.424c17.019,101.003 -2.326,215.4 -54.409,322.261Zm-547.519,609.646c-65.941,0 -138.112,-0.184 -215.027,-0.278c-88.261,-0.187 -182.847,-0.372 -281.99,-0.372c-99.051,0 -193.636,0.185 -281.898,0.372c-76.915,0.094 -149.087,0.278 -215.027,0.278c-192.334,0 -321.611,-182.754 -321.611,-454.885c0,-35.436 5.301,-66.127 13.114,-94.308c45.666,-40.457 115.605,-39.248 159.41,4.558c33.947,33.946 79.147,52.639 127.045,52.639c47.99,0 93.097,-18.693 127.137,-52.639c34.97,-35.064 86.867,-42.784 129.649,-23.904l0,313.148c0,17.486 14.137,31.621 31.528,31.621l461.304,0c17.392,0 31.529,-14.135 31.529,-31.621l0,-246.556c18.229,6.046 37.202,9.951 56.826,9.951c47.991,0 93.191,-18.693 127.137,-52.639c45.387,-45.48 119.326,-45.48 164.805,0c33.947,33.946 79.054,52.639 127.045,52.639c27.715,0 54.221,-6.974 78.496,-18.787c1.209,18.509 2.045,37.205 2.045,55.898c0,272.131 -129.183,454.885 -321.517,454.885Zm-31.622,156.248l-930.698,-0l-0,-93.096l930.698,-0l0,93.096Zm-1288.39,-1185.53l560.819,0l0,394.527c-60.174,-16.462 -127.138,-1.768 -174.291,45.478c-44.177,44.084 -120.814,44.084 -164.898,-0c-46.688,-46.596 -112.535,-61.568 -172.151,-46.224c42.131,-100.166 81.193,-195.961 -49.479,-393.781Zm823,-244.046c188.706,-0 368.113,63.71 513.293,180.895l-1026.59,-0c145.181,-117.185 324.68,-180.895 513.294,-180.895Zm-339.189,-22.043c-0,-98.675 67.894,-182.194 165.084,-203.306c113.651,-24.554 234.558,-24.554 348.303,0c95.609,20.74 165.083,106.303 165.083,203.306l-0,26.507c-106.212,-44.362 -220.98,-67.707 -339.281,-67.707c-118.21,-0 -232.978,23.345 -339.189,67.707l-0,-26.507Zm601.369,266.089l320.774,0c122.301,124.067 200.239,280.13 226.094,449.212c-45.014,34.04 -112.907,31.25 -153.458,-9.207c-70.125,-70.126 -184.056,-70.032 -254.181,-0c-36.459,36.458 -95.052,42.319 -139.229,18.415l0,-458.42Zm-461.304,507.434c29.204,19.346 63.337,29.853 99.143,29.853c47.991,0 93.191,-18.693 127.045,-52.639c45.479,-45.48 119.418,-45.48 164.897,0l7.162,5.765l-0,251.951l-398.247,0l0,-234.93Zm398.247,-95.329c-68.731,-39.714 -158.015,-30.784 -216.609,27.9c-44.084,44.084 -120.812,44.084 -164.897,-0l-16.741,-13.672l0,-426.333l398.247,0l-0,412.105Zm962.042,-325.239c-19.811,-117.743 -80.263,-206.843 -170.199,-250.74c-89.936,-43.806 -197.357,-36.645 -302.359,20.181c-33.296,17.949 -64.917,40.828 -94.586,67.057c-58.407,-53.385 -122.859,-98.119 -191.59,-133.555l0,-55.898c0,-126.485 -90.401,-237.998 -214.841,-264.97c-122.487,-26.504 -252.694,-26.504 -375.088,-0c-126.487,27.438 -214.842,136.345 -214.842,264.97l0,55.898c-74.589,38.316 -143.971,87.796 -206.098,147.04l-275.294,-0c-11.905,-0 -22.786,6.789 -28.18,17.486c-5.302,10.508 -4.278,23.342 2.883,32.831c151.877,205.168 118.581,284.129 76.542,384.11c-10.23,24.367 -21.019,50.314 -29.947,79.052l-0,0.281c-11.067,35.898 -19.159,75.983 -19.159,123.789c-0,295.476 140.623,497.854 353.046,516.269l0,126.394c0,17.39 14.137,31.621 31.622,31.621l993.942,0c17.392,0 31.622,-14.231 31.622,-31.621l-0,-126.394c176.151,-15.997 305.521,-165.083 342.165,-385.132c91.144,-54.129 174.291,-143.135 230.465,-258.182c57.849,-118.58 79.148,-246.649 59.896,-360.487Z" style="fill:#0b0b16;fill-rule:nonzero;"/></g></g></svg>