<?xml version="1.0" encoding="UTF-8" standalone="no"?><!DOCTYPE svg PUBLIC "-//W3C//DTD SVG 1.1//EN" "http://www.w3.org/Graphics/SVG/1.1/DTD/svg11.dtd"><svg width="100%" height="100%" viewBox="0 0 2084 2084" version="1.1" xmlns="http://www.w3.org/2000/svg" xmlns:xlink="http://www.w3.org/1999/xlink" xml:space="preserve" xmlns:serif="http://www.serif.com/" style="fill-rule:evenodd;clip-rule:evenodd;stroke-linejoin:round;stroke-miterlimit:2;"><rect id="画板1" x="0" y="0" width="2083.33" height="2083.33" style="fill:none;"/><g id="画板11" serif:id="画板1"><g><path d="M1951.66,1310.66c-50.691,81.665 -249.09,174.958 -398.285,234.397c3.162,-22.419 5.115,-45.11 5.115,-68.364l0,-17.395c61.018,-21.488 257.646,-95.432 306.293,-173.658c28.744,-46.228 37.765,-100.825 25.485,-153.753c-12.371,-52.832 -44.736,-97.852 -90.687,-126.498c-77.759,-48.279 -175.52,-37.674 -241.091,19.16l0,-79.622c46.876,-34.324 103.245,-53.019 160.822,-53.019c49.391,0 99.339,13.398 144.171,41.301c128.264,79.804 167.89,249.187 88.177,377.451Zm-642.913,525.901l-870.151,0c-112.641,-80.081 -186.585,-211.422 -186.585,-359.868l-0,-460.887c110.596,-68.364 281.552,-66.877 388.151,5.859c65.946,45.02 150.399,67.529 235.045,67.433c84.55,-0 169.19,-22.413 235.141,-67.433c105.567,-71.992 274.297,-74.132 385.075,-7.624l0,462.652c0,148.446 -73.945,279.787 -186.676,359.868Zm196.168,183.707l-1262.39,-0c-73.019,-0 -134.219,-51.81 -148.729,-120.549l1559.94,0c-14.602,68.739 -75.807,120.549 -148.821,120.549Zm-1139.42,-1325.92l11.161,11.626c45.945,39.53 116.081,58.691 216.816,58.691c25.95,-0 54.506,-1.675 84.453,-4.184c25.49,75.154 44.554,154.679 54.324,238.116c-20,-7.999 -39.251,-17.304 -56.459,-29.113c-117.386,-79.9 -293.553,-88.552 -423.775,-26.234l-0,-248.902l113.48,-0Zm418.002,-272.253c22.323,75.988 -2.14,157.938 -71.901,244.066c-104.454,-262.205 -275.04,-460.791 -382.934,-568.685c209.094,67.433 411.587,178.864 454.835,324.619Zm-423.401,18.416c-3.628,-76.737 -7.999,-165.006 -36.737,-255.789c103.801,111.522 243.975,290.108 332.243,514.275c-117.658,8.187 -196.167,-5.115 -237.741,-40.926c-49.391,-42.511 -53.019,-119.805 -57.765,-217.56Zm560.969,253.837c0.188,31.434 4.281,64.736 12.093,99.985c-50.322,65.111 -95.336,139.431 -131.71,224.077l-3.809,-0.931c-9.396,-100.27 -31.162,-195.237 -61.205,-283.692c12.001,-13.211 23.066,-26.325 33.114,-39.439l151.517,-0Zm129.479,-173.193c91.617,-90.13 258.486,-111.34 387.124,-104.084c-117.665,49.203 -299.322,145.845 -451.401,314.013c-9.486,-87.711 11.814,-158.216 64.277,-209.929Zm-29.765,267.598c134.775,-153.658 297.924,-247.506 412.33,-299.594c-28.09,39.433 -50.788,82.222 -72.27,122.405c-75.716,142.03 -132.266,246.393 -340.06,177.189Zm474.648,152.919c-130.029,-60.649 -304.431,-51.44 -420.699,27.812c-57.021,38.877 -132.453,57.203 -207.516,55.807c31.253,-68.739 69.295,-130.035 111.244,-184.82c60.83,22.419 113.014,32.74 157.285,32.74c132.084,0 198.773,-85.946 251.792,-178.863l107.894,-0l0,247.324Zm63.067,205.842c3.253,-18.235 7.999,-33.212 14.324,-43.442c26.603,-42.692 72.548,-66.133 119.43,-66.133c25.206,0 50.878,6.79 73.944,21.023c31.719,19.813 53.95,50.787 62.415,87.342c8.555,36.459 2.418,74.036 -17.395,105.851c-28.181,45.479 -157.194,104.641 -252.161,139.799l-0.557,-6.421l0,-238.019Zm338.29,-267.978c-76.454,-47.529 -166.772,-62.505 -254.671,-41.949c-29.674,6.881 -57.668,18.139 -83.619,32.65l0,-207.42c0,-17.395 -14.141,-31.628 -31.627,-31.628l-105.01,0c41.852,-77.947 85.941,-156.916 161.566,-199.42l2.322,-1.862l2.696,-2.141l5.49,-6.137l1.675,-2.231l3.627,-10.327l0,-2.043l0.188,-6.699l-0.744,-2.51l-0.187,-1.674l-0.744,-1.584l-4.002,-7.812l-1.488,-2.418l-8.09,-7.069l-1.862,-0.931l-6.137,-2.605c-114.689,-30.788 -417.542,-47.717 -570.086,102.5c-43.249,42.692 -69.761,94.689 -80.179,154.963l-114.593,0c42.88,-77.39 54.319,-153.379 32.65,-226.864c-74.598,-253.086 -498.555,-372.982 -626.637,-403.678l-10.418,-0.653l-2.14,0.466l-8.374,2.696l-3.065,1.675l-6.325,5.302l-1.675,1.397l-0.743,1.113l-1.119,1.493l-3.815,8.277l-0.181,0.369l-0.841,11.161l0.557,2.884l2.327,7.63l1.766,3.35l1.306,2.6c100.082,132.266 106.685,270.765 112.452,393.079c3.441,70.692 6.881,134.685 27.813,187.703l-104.272,0c-17.486,0 -31.622,14.233 -31.622,31.628l0,813.874c0,141.009 58.503,268.341 152.079,359.868l-282.114,0c-17.485,0 -31.627,14.142 -31.627,31.628c-0,118.686 96.642,215.14 215.237,215.14l1262.39,0c118.59,0 215.232,-96.454 215.232,-215.14c-0,-17.486 -14.136,-31.628 -31.531,-31.628l-282.579,0c60.927,-59.343 106.315,-133.94 131.244,-217.372c140.543,-53.762 398.938,-164.171 467.955,-275.136c98.316,-158.029 49.578,-366.289 -108.456,-464.515Z" style="fill:#0b0b16;fill-rule:nonzero;"/></g></g></svg>