<?xml version="1.0" encoding="UTF-8" standalone="no"?><!DOCTYPE svg PUBLIC "-//W3C//DTD SVG 1.1//EN" "http://www.w3.org/Graphics/SVG/1.1/DTD/svg11.dtd"><svg width="100%" height="100%" viewBox="0 0 2084 2084" version="1.1" xmlns="http://www.w3.org/2000/svg" xmlns:xlink="http://www.w3.org/1999/xlink" xml:space="preserve" xmlns:serif="http://www.serif.com/" style="fill-rule:evenodd;clip-rule:evenodd;stroke-linejoin:round;stroke-miterlimit:2;"><rect id="画板1" x="0" y="0" width="2083.33" height="2083.33" style="fill:none;"/><clipPath id="_clip1"><rect id="画板11" serif:id="画板1" x="0" y="0" width="2083.33" height="2083.33"/></clipPath><g clip-path="url(#_clip1)"><g><path d="M2020.18,2020l-1957.03,0l-0,-94.583l1957.03,0l-0,94.583Zm-1799.21,-252.406l1641.39,-0l0,94.675l-1641.39,0l0,-94.675Zm114.952,-1020.6l73.004,0c14.975,110.487 66.034,545.921 10.513,957.454l-94.024,0c-55.526,-411.533 -4.376,-846.967 10.507,-957.454Zm-114.952,-157.824l1641.39,0l0,94.677l-1641.39,-0l0,-94.677Zm820.651,-522.019l881.19,458.871l-1762.2,-0l881.008,-458.871Zm323.276,679.843l245.895,0c-16.462,124.809 -63.984,550.85 -10.604,957.454l-224.784,0c53.477,-406.604 5.949,-832.645 -10.507,-957.454Zm-446.135,0l245.9,0c-16.558,124.809 -63.984,550.85 -10.603,957.454l-224.881,0c53.574,-406.604 5.954,-832.645 -10.416,-957.454Zm-210.832,957.454l-224.785,0c53.381,-406.604 5.858,-832.645 -10.603,-957.454l245.895,0c-16.462,124.809 -63.985,550.85 -10.507,957.454Zm63.615,0c-55.527,-411.533 -4.371,-846.967 10.507,-957.454l73.004,0c14.974,110.487 66.033,545.921 10.512,957.454l-94.023,0Zm446.129,0c-55.526,-411.533 -4.28,-846.967 10.598,-957.454l72.913,0c14.974,110.487 66.124,545.921 10.604,957.454l-94.115,0Zm540.244,0l-94.024,0c-55.617,-411.533 -4.37,-846.967 10.507,-957.454l73.01,0c14.878,110.487 66.033,545.921 10.507,957.454Zm293.792,157.824l-126.294,0l0,-126.203c0,-17.484 -14.134,-31.621 -31.526,-31.621l-72.266,0c53.386,-406.604 5.864,-832.645 -10.598,-957.454l82.864,0c17.392,0 31.526,-14.135 31.526,-31.62l0,-126.204l126.294,0c14.509,0 27.156,-9.95 30.692,-24.087c3.44,-14.136 -3.161,-28.738 -16.086,-35.527l-1010.1,-525.925c-9.116,-4.836 -19.998,-4.836 -29.109,0l-1010.09,525.925c-12.835,6.789 -19.527,21.391 -16.087,35.527c3.531,14.137 16.183,24.087 30.686,24.087l126.209,0l0,126.204c0,17.485 14.225,31.62 31.617,31.62l82.864,0c-16.461,124.809 -64.075,550.85 -10.507,957.454l-72.357,0c-17.392,0 -31.617,14.137 -31.617,31.621l0,126.203l-126.209,0c-17.386,0 -31.617,14.044 -31.617,31.527l0,157.824c0,17.485 14.231,31.621 31.617,31.621l2020.09,0c17.393,0 31.623,-14.136 31.623,-31.621l0,-157.824c0,-17.483 -14.23,-31.527 -31.623,-31.527Z" style="fill:#0b0b16;fill-rule:nonzero;"/></g></g></svg>