<?xml version="1.0" encoding="UTF-8" standalone="no"?><!DOCTYPE svg PUBLIC "-//W3C//DTD SVG 1.1//EN" "http://www.w3.org/Graphics/SVG/1.1/DTD/svg11.dtd"><svg width="100%" height="100%" viewBox="0 0 2084 2084" version="1.1" xmlns="http://www.w3.org/2000/svg" xmlns:xlink="http://www.w3.org/1999/xlink" xml:space="preserve" xmlns:serif="http://www.serif.com/" style="fill-rule:evenodd;clip-rule:evenodd;stroke-linejoin:round;stroke-miterlimit:2;"><rect id="画板1" x="0" y="0" width="2083.33" height="2083.33" style="fill:none;"/><clipPath id="_clip1"><rect id="画板11" serif:id="画板1" x="0" y="0" width="2083.33" height="2083.33"/></clipPath><g clip-path="url(#_clip1)"><g><path d="M2020.27,1412.48c-6.511,10.324 -23.621,33.389 -56.823,49.2c-207.123,-488.002 -179.319,-989.024 -166.388,-1127.14c17.019,3.906 34.599,6.232 52.73,6.232c67.246,-0 127.792,-28.739 170.481,-74.312l-0,1146.02Zm-119.323,607.607c-36.461,-232.979 45.294,-440.847 67.892,-492.187c20.181,-7.068 37.296,-16.182 51.431,-26.227l-0,518.414l-119.323,0Zm-1489.3,-169.828c-17.858,-188.523 -92.075,-301.526 -127.701,-345.61c377.7,-481.771 389.978,-1030.41 386.533,-1166.48c72.269,-10.137 134.025,-53.571 169.18,-114.21c40.458,69.754 115.792,116.815 202.009,116.815c86.307,-0 161.642,-47.061 202.099,-116.815c35.155,60.639 96.911,104.073 169.271,114.21c-3.531,136.068 8.742,684.709 386.533,1166.48c-35.712,44.084 -110.024,157.087 -127.883,345.61l-1260.04,-0Zm-348.494,-348.586c14.135,10.045 31.25,19.252 51.431,26.227c22.598,51.154 104.54,258.649 67.892,492.187l-119.323,0l0,-518.414Zm170.481,-1160.9c18.137,-0 35.808,-2.326 52.73,-6.232c12.931,138.114 40.741,639.136 -166.387,1127.14c-33.107,-15.811 -50.409,-38.876 -56.824,-49.2l0,-1146.02c42.689,45.573 103.145,74.312 170.481,74.312Zm-170.481,-277.809l340.961,0l0,44.271c0,94.029 -76.452,170.479 -170.48,170.479c-94.033,0 -170.481,-76.45 -170.481,-170.479l0,-44.271Zm284.967,1957.12l-101.748,0c30.137,-208.147 -24.642,-392.112 -58.032,-479.166l7.902,0.372c10.882,-0 22.32,-0.93 34.23,-2.232c33.384,39.713 143.783,195.219 117.648,481.026Zm-121.928,-543.991c-16.184,1.767 -30.881,2.139 -44.272,1.116c217.727,-520.461 177.548,-1052.27 165.456,-1166.29c36.74,-20.462 67.155,-50.688 88.266,-86.96c35.621,61.29 98.121,105.003 171.406,114.582c2.328,126.302 -11.16,673.363 -380.856,1137.56Zm581.939,-1368.86c0,94.029 -76.453,170.479 -170.48,170.479c-94.028,0 -170.481,-76.45 -170.481,-170.479l0,-44.271l340.961,0l0,44.271Zm404.017,-0c0,94.029 -76.453,170.479 -170.48,170.479c-93.937,0 -170.39,-76.45 -170.39,-170.479l0,-44.271l340.87,0l0,44.271Zm404.017,-0c-0,94.029 -76.453,170.479 -170.39,170.479c-94.027,0 -170.48,-76.45 -170.48,-170.479l-0,-44.271l340.87,0l-0,44.271Zm63.152,-0l0,-44.271l340.956,0l-0,44.271c-0,94.029 -76.544,170.479 -170.481,170.479c-94.027,0 -170.475,-76.45 -170.475,-170.479Zm177.917,1368.86c-369.792,-464.192 -383.183,-1011.25 -380.952,-1137.56c73.381,-9.579 135.881,-53.292 171.502,-114.582c21.02,36.272 51.527,66.498 88.169,86.96c-12.085,114.025 -52.174,645.832 165.462,1166.29c-13.3,1.023 -27.997,0.651 -44.181,-1.116Zm-4.093,63.058c11.723,1.209 23.252,2.139 33.947,2.139l7.998,-0.372c-33.481,87.054 -88.169,271.019 -58.032,479.166l-101.748,0c-25.857,-284.04 84.542,-440.847 117.835,-480.933Zm198.665,-1539.15l-2020.18,0c-17.489,0 -31.624,13.951 -31.624,31.436l-0,2020.18c-0,17.485 14.135,31.622 31.624,31.622l345.514,0l11.722,-2.418l3.44,-2.139l6.324,-4.185l2.884,-3.721l3.905,-5.58l1.488,-5.022l1.487,-4.837c6.142,-50.967 7.998,-98.028 6.976,-141.927l1252.61,0c-1.022,43.899 0.931,90.96 7.067,141.927l1.488,4.837l1.583,5.022l3.719,5.487l2.974,3.814l6.142,4.092l3.628,2.232l11.716,2.418l345.519,0c17.484,0 31.528,-14.137 31.528,-31.622l0,-2020.18c0,-17.485 -14.044,-31.436 -31.528,-31.436Z" style="fill:#0b0b16;fill-rule:nonzero;"/></g></g></svg>