<?xml version="1.0" encoding="UTF-8" standalone="no"?><!DOCTYPE svg PUBLIC "-//W3C//DTD SVG 1.1//EN" "http://www.w3.org/Graphics/SVG/1.1/DTD/svg11.dtd"><svg width="100%" height="100%" viewBox="0 0 2084 2084" version="1.1" xmlns="http://www.w3.org/2000/svg" xmlns:xlink="http://www.w3.org/1999/xlink" xml:space="preserve" xmlns:serif="http://www.serif.com/" style="fill-rule:evenodd;clip-rule:evenodd;stroke-linejoin:round;stroke-miterlimit:2;"><rect id="画板1" x="0" y="0" width="2083.33" height="2083.33" style="fill:none;"/><clipPath id="_clip1"><rect id="画板11" serif:id="画板1" x="0" y="0" width="2083.33" height="2083.33"/></clipPath><g clip-path="url(#_clip1)"><g><path d="M1990.35,1990.12c-39.903,39.897 -104.823,39.897 -144.629,0l-74.411,-74.502l144.537,-144.719l74.503,74.593c39.902,39.897 39.902,104.726 -0,144.628Zm-907.77,-384.78l-911.397,-911.397c-144.163,-144.163 -144.163,-378.73 0,-522.989c69.57,-69.57 162.397,-107.797 261.543,-107.797c99.055,-0 191.876,38.227 261.542,107.797l911.301,911.397c99.151,99.146 132.071,246.102 88.734,377.707l-168.533,-168.533l61.571,-61.474c12.37,-12.37 12.37,-32.37 -0,-44.74c-12.37,-12.279 -32.273,-12.279 -44.643,0l-61.576,61.668l-135.234,-135.239l61.571,-61.571c12.279,-12.279 12.279,-32.273 0,-44.643c-12.273,-12.369 -32.273,-12.369 -44.642,0l-61.48,61.571l-135.33,-135.142l61.576,-61.668c12.37,-12.369 12.37,-32.272 0,-44.733c-12.279,-12.279 -32.278,-12.279 -44.551,0l-61.668,61.662l-135.142,-135.234l61.571,-61.57c12.279,-12.37 12.279,-32.279 -0,-44.552c-12.37,-12.37 -32.273,-12.37 -44.643,-0l-61.571,61.48l-135.239,-135.143l61.577,-61.576c12.37,-12.273 12.37,-32.273 -0,-44.643c-12.279,-12.369 -32.279,-12.369 -44.648,0l-61.571,61.571l-95.615,-95.609c0.744,-63.62 -23.996,-124.913 -69.195,-170.021c-44.648,-44.739 -104.169,-69.291 -167.415,-69.291c-63.155,-0 -122.682,24.552 -167.324,69.291c-92.362,92.266 -92.362,242.474 -0,334.74c45.108,45.108 107.144,70.222 169.924,69.195l95.706,95.705l-61.571,61.48c-12.274,12.37 -12.274,32.37 -0,44.552l22.321,9.395l22.327,-9.395l61.571,-61.48l135.142,135.142l-61.576,61.668c-12.274,12.279 -12.274,32.182 -0,44.642l22.327,9.208l22.321,-9.208l61.571,-61.661l135.33,135.233l-61.668,61.48c-12.279,12.461 -12.279,32.46 0,44.921l22.322,9.026l22.321,-9.026l61.576,-61.662l135.234,135.233l-61.571,61.48c-12.37,12.461 -12.37,32.273 -0,44.643l22.321,9.304l22.231,-9.304l61.661,-61.48l135.239,135.052l-61.667,61.661c-12.279,12.279 -12.279,32.279 -0,44.552l22.321,9.208l22.321,-9.208l61.577,-61.474l168.528,168.437c-131.606,43.433 -278.562,10.507 -377.708,-88.638Zm738.68,171.042l-872.426,-872.329c-12.279,-12.37 -32.272,-12.37 -44.551,0c-12.279,12.37 -12.279,32.273 -0,44.643l872.329,872.238l-50.036,50.132l-1259.62,-1259.62l-22.321,-9.304l-2.231,0.096c-50.597,3.531 -99.986,-14.51 -135.699,-50.132c-67.622,-67.804 -67.622,-177.929 0,-245.636c32.829,-32.744 76.45,-50.881 122.773,-50.881c46.408,-0 90.029,18.137 122.864,50.881c35.622,35.622 53.85,85.101 50.132,135.602c-0.653,9.208 2.696,18.234 9.111,24.649l1259.62,1259.62l-49.945,50.035Zm213.732,24.462l-96.824,-96.818l-194.664,-194.67c66.499,-161.091 30.32,-347.95 -93.196,-471.648l-911.488,-911.397c-81.479,-81.479 -190.207,-126.309 -306.094,-126.309c-115.983,0 -224.712,44.83 -306.185,126.309c-168.721,168.716 -168.721,443.372 -0,612.371l911.488,911.397c123.425,123.42 310.369,159.604 471.556,93.287l194.761,194.573l96.727,96.824c32.279,32.182 74.594,48.367 117.005,48.367c42.321,-0 84.642,-16.185 116.914,-48.367c64.455,-64.455 64.455,-169.465 0,-233.919Z" style="fill:#0b0b16;fill-rule:nonzero;"/></g></g></svg>