<?xml version="1.0" encoding="UTF-8" standalone="no"?><!DOCTYPE svg PUBLIC "-//W3C//DTD SVG 1.1//EN" "http://www.w3.org/Graphics/SVG/1.1/DTD/svg11.dtd"><svg width="100%" height="100%" viewBox="0 0 2084 2084" version="1.1" xmlns="http://www.w3.org/2000/svg" xmlns:xlink="http://www.w3.org/1999/xlink" xml:space="preserve" xmlns:serif="http://www.serif.com/" style="fill-rule:evenodd;clip-rule:evenodd;stroke-linejoin:round;stroke-miterlimit:2;"><rect id="画板1" x="0" y="0" width="2083.33" height="2083.33" style="fill:none;"/><clipPath id="_clip1"><rect id="画板11" serif:id="画板1" x="0" y="0" width="2083.33" height="2083.33"/></clipPath><g clip-path="url(#_clip1)"><g><path d="M1041.21,2020.09c-290.815,-0 -559.032,-124.716 -745.408,-344.386l144.617,-0c53.478,-0 97.001,-43.617 97.001,-96.998l0,-513.837c0,-53.665 -43.523,-97.095 -97.001,-97.095l-374.797,0c37.76,-509.926 460.173,-904.627 975.588,-904.627c539.506,-0 978.472,438.965 978.472,978.471c-0,539.597 -438.966,978.472 -978.472,978.472Zm0,-2020.09c-560.429,0 -1017.44,438.319 -1040.6,998.004c-0.279,8.651 2.883,17.018 8.835,23.25c5.952,6.137 14.231,9.576 22.694,9.576l408.276,0c18.693,0 33.854,15.253 33.854,34.042l0,513.837c0,18.596 -15.161,33.757 -33.854,33.757l-209.904,0c-11.997,0 -22.878,6.88 -28.367,17.484c-5.208,10.694 -4.09,23.437 2.977,33.019c198.838,267.006 503.606,420.364 836.085,420.364c574.382,0 1041.53,-467.427 1041.53,-1041.71c-0,-574.285 -467.149,-1041.62 -1041.53,-1041.62Z" style="fill:#0b0b16;fill-rule:nonzero;"/><path d="M1591.41,1215.72c-7.254,5.302 -11.903,13.488 -12.647,22.411c-0.931,9.116 2.231,17.954 8.367,24.459c17.024,18.046 26.322,41.574 26.322,66.034c-0,45.201 -32.18,84.816 -76.634,94.301c-9.673,2.05 -17.855,8.56 -22.042,17.671c-4.186,9.025 -3.814,19.623 0.931,28.365c7.998,14.509 12.275,30.692 12.275,46.875c0,50.128 -37.571,91.515 -88.724,96.351l-3.534,0.278l-729.599,0c-14.321,0 -25.947,-11.534 -25.947,-25.946l0,-559.498c0,-33.202 50.872,-95.982 100.257,-156.527c65.286,-80.445 139.409,-171.585 171.772,-271.751c18.415,-56.917 -1.393,-185.816 -11.809,-243.942c14.88,-3.065 38.687,-5.767 73.285,-4.462c65.752,2.6 121.554,94.024 132.62,217.156c9.485,106.023 -11.438,195.307 -20.926,228.696c-2.697,9.576 -0.744,19.805 5.301,27.712c5.952,7.907 15.253,12.465 25.11,12.465l394.049,0c33.575,0 70.96,35.988 70.96,84.164c-0,62.497 -34.41,82.216 -41.29,83.516c-17.208,0.278 -30.97,14.322 -30.97,31.618c-0,17.392 14.134,31.532 31.526,31.532c21.111,0 50.406,24.738 50.406,70.96c0,30.783 -14.321,59.052 -39.059,77.562Zm55.986,-185.072c21.02,-24.738 36.551,-61.663 36.551,-110.116c-0,-79.89 -61.476,-147.314 -134.11,-147.314l-353.872,0c10.326,-48.828 21.02,-125.09 13.206,-211.394c-14.415,-160.147 -91.883,-270.542 -193.07,-274.634c-86.307,-3.718 -122.11,15.53 -128.343,19.345c-11.347,6.976 -17.112,20.179 -14.415,33.201c14.321,70.682 32.085,198.372 18.786,239.668c-28.737,88.909 -98.86,175.122 -160.707,251.288c-63.984,78.589 -114.393,140.621 -114.393,196.329l-0,559.498c-0,49.197 39.993,89.187 89.096,89.187l729.599,-0l10.976,-0.835c82.304,-7.816 144.432,-76.171 144.432,-159.035c0,-14.509 -2.14,-29.017 -6.045,-43.248c54.59,-25.947 91.514,-81.746 91.514,-143.964c0,-29.852 -8.372,-58.683 -23.903,-83.886c25.947,-29.018 40.921,-67.055 40.921,-106.58c0,-47.431 -19.345,-84.447 -46.223,-107.51Z" style="fill:#0b0b16;fill-rule:nonzero;"/><path d="M388.243,1507.65c-0,-16.74 -13.672,-30.505 -30.411,-30.505c-16.834,0 -30.505,13.765 -30.505,30.505c-0,16.836 13.671,30.505 30.505,30.505c16.739,-0 30.411,-13.669 30.411,-30.505Z" style="fill:#0b0b16;fill-rule:nonzero;"/></g></g></svg>