<?xml version="1.0" encoding="UTF-8" standalone="no"?><!DOCTYPE svg PUBLIC "-//W3C//DTD SVG 1.1//EN" "http://www.w3.org/Graphics/SVG/1.1/DTD/svg11.dtd"><svg width="100%" height="100%" viewBox="0 0 2084 2084" version="1.1" xmlns="http://www.w3.org/2000/svg" xmlns:xlink="http://www.w3.org/1999/xlink" xml:space="preserve" xmlns:serif="http://www.serif.com/" style="fill-rule:evenodd;clip-rule:evenodd;stroke-linejoin:round;stroke-miterlimit:2;"><rect id="画板1" x="0" y="0" width="2083.33" height="2083.33" style="fill:none;"/><g id="画板11" serif:id="画板1"><g><path d="M1115.23,674.969c6.233,8.371 15.719,12.742 25.392,12.742l18.784,-6.325c13.953,-10.416 16.837,-30.133 6.42,-43.991l-35.808,-48.084c-10.326,-14.044 -30.138,-16.928 -44.085,-6.417c-14.044,10.323 -16.928,30.133 -6.511,44.177l35.808,47.898Z" style="fill:#0b0b16;fill-rule:nonzero;"/><path d="M990.046,507c6.136,8.278 15.622,12.742 25.295,12.742l18.79,-6.231c14.044,-10.417 16.928,-30.135 6.511,-44.179l-35.808,-47.898c-10.417,-14.044 -30.228,-17.02 -44.176,-6.603c-13.953,10.51 -16.928,30.227 -6.42,44.271l35.808,47.898Z" style="fill:#0b0b16;fill-rule:nonzero;"/><path d="M1240.42,843.031c6.227,8.278 15.719,12.742 25.386,12.742l18.79,-6.324c14.044,-10.417 16.927,-30.227 6.42,-44.179l-35.717,-47.99c-10.417,-13.952 -30.229,-16.928 -44.176,-6.417c-13.953,10.416 -16.837,30.226 -6.42,44.177l35.717,47.991Z" style="fill:#0b0b16;fill-rule:nonzero;"/><path d="M901.598,583.823c-10.416,-14.044 -30.228,-16.928 -44.181,-6.417l-398.529,297.155c-13.953,10.417 -16.928,30.133 -6.511,44.085c6.233,8.37 15.719,12.741 25.392,12.741l18.784,-6.232l398.534,-297.153c13.948,-10.417 16.928,-30.228 6.511,-44.179Z" style="fill:#0b0b16;fill-rule:nonzero;"/><path d="M1003.62,720.822c-10.23,-13.952 -30.132,-16.834 -44.085,-6.418l-398.529,297.062c-13.953,10.509 -16.837,30.319 -6.42,44.271c6.233,8.276 15.628,12.741 25.295,12.741l18.79,-6.418l398.625,-297.061c13.947,-10.323 16.831,-30.135 6.324,-44.177Z" style="fill:#0b0b16;fill-rule:nonzero;"/><path d="M983.444,909.81l-126.027,93.936c-14.044,10.416 -16.831,30.226 -6.511,44.178c6.233,8.37 15.718,12.741 25.391,12.741l18.79,-6.323l126.022,-93.937c14.044,-10.509 16.927,-30.319 6.511,-44.271c-10.417,-13.95 -30.228,-16.834 -44.176,-6.324Z" style="fill:#0b0b16;fill-rule:nonzero;"/><path d="M1828.78,1583.92c-0,112.259 83.424,205.357 191.501,220.796l0,168.341l-298.461,0c0,-17.485 -14.134,-31.622 -31.528,-31.622c-17.393,0 -31.619,14.137 -31.619,31.622l-984.193,0l-0,-168.341c108.168,-15.439 191.501,-108.537 191.501,-220.796c0,-112.166 -83.333,-205.358 -191.501,-220.703l-0,-168.435l984.193,0c0,17.486 14.226,31.622 31.619,31.622c17.394,0 31.528,-14.136 31.528,-31.622l298.461,0l0,168.435c-108.077,15.345 -191.501,108.537 -191.501,220.703Zm-1287.86,-32.738l-100.635,-134.859c77.475,-77.009 88.635,-201.451 21.577,-291.389c-67.149,-90.122 -189.64,-114.862 -285.53,-62.592l-100.539,-135.046l788.974,-588.17c6.137,8.371 15.719,12.742 25.295,12.742l18.881,-6.418c13.953,-10.323 16.837,-30.133 6.42,-43.991l239.305,-178.479l100.539,134.952c-34.134,33.854 -56.273,77.567 -63.431,125.931c-8.555,58.964 6.414,117.745 42.035,165.55c66.968,89.937 189.549,114.677 285.348,62.5l100.63,135.045l-239.214,178.385l-0.09,-0.092c-10.417,-13.952 -30.132,-16.834 -44.176,-6.417c-13.953,10.509 -16.837,30.133 -6.42,44.084l-226.283,168.807l-460.659,-0c-17.394,-0 -31.528,14.136 -31.528,31.528l-0,229.261c-0,17.392 14.134,31.528 31.528,31.528c19.346,0 37.573,3.999 54.779,10.325l-156.806,116.815Zm1510.88,-127.14c17.388,0 31.528,-14.136 31.528,-31.528l0,-229.261c0,-17.392 -14.14,-31.528 -31.528,-31.528l-842.544,-0l183.685,-136.999l0.096,0l289.804,-216.053l12.37,-20.741l-5.95,-23.437l-137.09,-183.872c-10.417,-13.952 -30.138,-16.835 -44.085,-6.418c-70.686,52.641 -171.037,38.039 -223.683,-32.553c-25.573,-34.319 -36.268,-76.451 -30.04,-118.582c6.142,-42.318 28.366,-79.707 62.499,-105.191c14.044,-10.323 16.928,-30.133 6.511,-44.177l-136.994,-183.78l-20.833,-12.371c-8.373,-1.209 -16.65,0.931 -23.348,5.954l-289.804,216.145l-0.097,-0l-839.564,625.838c-13.953,10.511 -16.928,30.227 -6.511,44.271l137.091,183.78l20.742,12.463l23.434,-5.952c70.685,-52.734 170.946,-38.039 223.682,32.459c52.64,70.778 38.039,171.131 -32.646,223.866c-13.857,10.324 -16.832,30.226 -6.415,44.085l137.091,183.779l20.646,12.464l4.649,0.279l18.881,-6.231l201.73,-150.484c29.388,29.018 47.622,69.195 47.622,113.653c-0,88.17 -71.713,159.877 -159.786,159.877c-17.394,0 -31.528,14.137 -31.528,31.53l-0,229.26c-0,17.577 14.134,31.529 31.528,31.529l1408.86,0c17.388,0 31.528,-13.952 31.528,-31.529l0,-229.26c0,-17.393 -14.14,-31.53 -31.528,-31.53c-88.169,0 -159.877,-71.707 -159.877,-159.877c0,-88.171 71.708,-159.878 159.877,-159.878Z" style="fill:#0b0b16;fill-rule:nonzero;"/><path d="M1690.29,1729.19c-17.393,-0 -31.619,14.136 -31.619,31.529l0,70.87c0,17.392 14.226,31.622 31.619,31.622c17.394,-0 31.528,-14.23 31.528,-31.622l0,-70.87c0,-17.393 -14.134,-31.529 -31.528,-31.529Z" style="fill:#0b0b16;fill-rule:nonzero;"/><path d="M1690.29,1517.05c-17.393,0 -31.619,14.044 -31.619,31.53l0,70.684c0,17.485 14.226,31.529 31.619,31.529c17.394,0 31.528,-14.044 31.528,-31.529l0,-70.684c0,-17.486 -14.134,-31.53 -31.528,-31.53Z" style="fill:#0b0b16;fill-rule:nonzero;"/><path d="M1690.29,1304.81c-17.393,0 -31.619,14.138 -31.619,31.53l0,70.684c0,17.486 14.226,31.622 31.619,31.622c17.394,-0 31.528,-14.136 31.528,-31.622l0,-70.684c0,-17.392 -14.134,-31.53 -31.528,-31.53Z" style="fill:#0b0b16;fill-rule:nonzero;"/><path d="M1510.23,1381.44l-496.933,0c-17.485,0 -31.625,14.044 -31.625,31.622c-0,17.392 14.14,31.529 31.625,31.529l496.933,0c17.484,0 31.715,-14.137 31.715,-31.529c0,-17.578 -14.231,-31.622 -31.715,-31.622Z" style="fill:#0b0b16;fill-rule:nonzero;"/><path d="M1510.23,1552.39l-496.933,-0c-17.485,-0 -31.625,14.044 -31.625,31.529c-0,17.485 14.14,31.529 31.625,31.529l496.933,-0c17.484,-0 31.715,-14.044 31.715,-31.529c0,-17.485 -14.231,-31.529 -31.715,-31.529Z" style="fill:#0b0b16;fill-rule:nonzero;"/><path d="M1378.9,1723.33l-365.604,-0c-17.485,-0 -31.625,13.95 -31.625,31.529c-0,17.392 14.14,31.436 31.625,31.436l365.604,0c17.393,0 31.533,-14.044 31.533,-31.436c0,-17.579 -14.14,-31.529 -31.533,-31.529Z" style="fill:#0b0b16;fill-rule:nonzero;"/></g></g></svg>