<?xml version="1.0" encoding="UTF-8" standalone="no"?><!DOCTYPE svg PUBLIC "-//W3C//DTD SVG 1.1//EN" "http://www.w3.org/Graphics/SVG/1.1/DTD/svg11.dtd"><svg width="100%" height="100%" viewBox="0 0 2084 2084" version="1.1" xmlns="http://www.w3.org/2000/svg" xmlns:xlink="http://www.w3.org/1999/xlink" xml:space="preserve" xmlns:serif="http://www.serif.com/" style="fill-rule:evenodd;clip-rule:evenodd;stroke-linejoin:round;stroke-miterlimit:2;"><rect id="画板1" x="0" y="0" width="2083.33" height="2083.33" style="fill:none;"/><clipPath id="_clip1"><rect id="画板11" serif:id="画板1" x="0" y="0" width="2083.33" height="2083.33"/></clipPath><g clip-path="url(#_clip1)"><g><path d="M1041.67,2020.27c-497.117,0 -933.129,-402.342 -933.129,-860.77c-0,-175.686 67.337,-335.566 194.661,-462.425c100.633,-100.167 255.581,-185.733 430.712,-185.733c84.356,-0 173.363,19.811 263.299,67.336c-145.74,97.286 -218.75,214.565 -223.773,222.751c-9.021,14.881 -4.277,34.318 10.603,43.432c14.881,8.929 34.32,4.28 43.435,-10.695c1.859,-3.068 194.661,-312.873 584.821,-323.196c129.65,-4.743 268.043,54.688 371.466,155.227c87.146,84.914 190.941,239.398 190.941,493.303c-0,458.428 -436.011,860.77 -933.036,860.77Zm-453.962,-1674.85l-0.465,0c107.701,-45.478 268.695,-74.032 414.435,55.339l3.813,2.14l5.952,3.534l6.79,1.393l4.371,0.931l0.931,-0.184l6.881,-1.49l5.116,-1.3l4.371,-2.884l5.674,-4.371l0.65,-0.466l2.232,-3.905l3.442,-5.955l1.395,-6.602l0.929,-4.464l-0.092,-1.675l0,-0.372c-0.558,-120.816 -52.735,-222.192 -97.842,-287.76c80.171,30.785 189.173,96.818 220.423,235.027l0.838,1.953l0.279,1.765l1.487,2.328l3.814,6.417l2.977,3.253l5.58,4.186l3.813,2.047l7.254,1.859l3.813,0.559l0.931,0.184l6.975,-0.649l1.861,-0.931l1.859,-0.185c171.038,-61.291 288.505,-39.064 358.631,-7.627c-200.428,9.392 -301.432,102.027 -328.869,131.696c-71.057,16.927 -134.021,42.319 -188.709,71.988l-1.488,-0.931c-34.785,-20.555 -69.476,-37.296 -103.888,-50.502c-26.599,-30.785 -140.438,-144.346 -366.164,-144.346Zm1239.96,275.669c-115.234,-112.443 -271.485,-176.339 -417.04,-173.268c-10.043,0.278 -19.716,1.115 -29.481,1.765c62.406,-31.434 159.225,-59.428 297.804,-46.503c12.556,1.675 25.019,-5.486 30.971,-16.924c5.859,-11.442 4.278,-25.208 -4.185,-35.065c-6.418,-7.439 -157.181,-175.595 -477.028,-75.335c-75.986,-237.817 -343.098,-274.181 -354.91,-275.762l-2.232,0.184l-5.954,0.372l-6.51,1.397l-4.185,2.231l-6.139,4.186l-1.581,1.116l-1.859,2.883l-3.627,5.581l-2.047,6.045l-1.115,3.44l0.186,2.14l0.464,6.605l1.209,5.58l2.698,5.299l3.627,5.209l1.209,1.862c1.302,1.115 108.909,106.584 136.625,254.741c-267.485,-170.852 -557.384,55.711 -560.454,58.223c-11.346,9.114 -15.067,24.832 -8.928,37.945c6.138,13.301 20.462,20.555 34.784,17.672c157.366,-31.063 269.531,-6.231 343.844,28.181c-218.007,-22.136 -413.041,79.706 -535.25,201.543c-139.416,138.859 -213.169,314.361 -213.169,507.069c-0,492.096 465.587,923.829 996.279,923.829c530.693,0 996.281,-431.733 996.281,-923.829c-0,-275.947 -114.399,-445.031 -210.287,-538.412Z" style="fill:#0b0b16;fill-rule:nonzero;"/><path d="M1615.51,845.424c-13.951,10.417 -16.741,30.319 -6.232,44.085c60.455,80.543 92.542,184.243 92.542,299.945c0,324.03 -308.501,608.35 -660.157,608.35c-55.245,0 -110.491,-6.883 -164.062,-20.555c-17.02,-4.183 -34.133,6.046 -38.412,22.789c-4.278,17.019 5.953,34.131 22.787,38.505c58.687,14.787 119.14,22.32 179.687,22.32c385.324,0 723.215,-313.71 723.215,-671.409c-0,-129.652 -36.366,-246.375 -105.19,-337.891c-10.51,-13.766 -30.32,-16.649 -44.178,-6.139Z" style="fill:#0b0b16;fill-rule:nonzero;"/></g></g></svg>