<?xml version="1.0" encoding="UTF-8" standalone="no"?><!DOCTYPE svg PUBLIC "-//W3C//DTD SVG 1.1//EN" "http://www.w3.org/Graphics/SVG/1.1/DTD/svg11.dtd"><svg width="100%" height="100%" viewBox="0 0 2084 2084" version="1.1" xmlns="http://www.w3.org/2000/svg" xmlns:xlink="http://www.w3.org/1999/xlink" xml:space="preserve" xmlns:serif="http://www.serif.com/" style="fill-rule:evenodd;clip-rule:evenodd;stroke-linejoin:round;stroke-miterlimit:2;"><rect id="画板1" x="0" y="0" width="2083.33" height="2083.33" style="fill:none;"/><clipPath id="_clip1"><rect id="画板11" serif:id="画板1" x="0" y="0" width="2083.33" height="2083.33"/></clipPath><g clip-path="url(#_clip1)"><g><path d="M1807.08,1061.46l-785.32,-785.226l105.744,-105.747l785.227,785.226l-105.651,105.747Zm-440.463,166.565l-511.333,-511.331l134.949,-382.617l758.998,759.001l-382.614,134.947Zm-756.582,740.03c-69.381,69.378 -182.192,69.378 -251.573,-0l-243.206,-243.112c-69.38,-69.474 -69.38,-182.289 0,-251.666l703.571,-703.571l247.389,247.296l247.389,247.483l-703.57,703.57Zm539.792,-1864.62c-12.278,-12.369 -32.273,-12.369 -44.642,-0l-150.574,150.386l-0.65,1.209l-5.302,7.908l-1.022,1.856l-0.372,0.84l-155.873,442.044l-720.869,720.866c-94.028,94.031 -94.028,247.018 -0,340.952l243.203,243.203c47.06,47.057 108.721,70.592 170.475,70.592c61.755,0 123.509,-23.535 170.567,-70.592l720.869,-720.776l441.953,-155.87l0.837,-0.375l1.672,-0.834l8.279,-5.58l1.022,-0.653l150.48,-150.574c12.276,-12.182 12.276,-32.271 0,-44.549l-830.053,-830.053Z" style="fill:#0b0b16;fill-rule:nonzero;"/><path d="M836.683,1388.73l-39.528,39.338l-142.014,-142.014l39.525,-39.435c19.623,-19.623 45.292,-29.296 70.961,-29.296c25.763,0 51.432,9.673 71.056,29.296c39.153,39.157 39.153,102.864 -0,142.111Zm-228.231,228.228c-39.154,39.156 -102.861,39.156 -142.111,0c-18.786,-18.971 -29.202,-44.174 -29.202,-71.052c-0,-26.969 10.416,-52.178 29.202,-71.053l144.157,-144.063l141.923,142.105l-143.969,144.063Zm272.964,-415.075c-63.801,-63.888 -167.686,-63.888 -231.577,0l-61.661,61.755l-0.094,-0l0,0.096l-166.476,166.474c-30.784,30.693 -47.711,71.802 -47.711,115.698c0,43.805 16.927,84.908 47.711,115.698c31.992,31.992 73.845,47.892 115.788,47.892c41.947,-0 83.797,-15.9 115.789,-47.892l228.231,-228.325c63.801,-63.804 63.801,-167.592 0,-231.396Z" style="fill:#0b0b16;fill-rule:nonzero;"/><path d="M1647.48,467.443l22.229,-9.208l144.154,-144.154c12.369,-12.278 12.369,-32.367 0,-44.736c-12.369,-12.278 -32.364,-12.278 -44.642,0l-144.154,144.154c-12.369,12.369 -12.369,32.367 -0,44.736l22.413,9.208Z" style="fill:#0b0b16;fill-rule:nonzero;"/><path d="M1420.83,263.112l5.674,0.562c14.974,0 28.368,-10.694 31.158,-25.947l36.457,-200.425c3.255,-17.205 -8.092,-33.758 -25.391,-36.829c-17.021,-2.974 -33.573,8.373 -36.735,25.391l-36.551,200.42c-3.162,17.301 8.183,33.854 25.388,36.828Z" style="fill:#0b0b16;fill-rule:nonzero;"/><path d="M2046,588.999l-200.516,36.55c-17.112,3.35 -28.553,19.715 -25.391,36.92c2.793,15.253 16.09,25.947 31.065,25.947l5.673,-0.556l200.516,-36.551c17.205,-3.162 28.55,-19.623 25.482,-36.92c-3.162,-17.023 -19.718,-28.274 -36.829,-25.39Z" style="fill:#0b0b16;fill-rule:nonzero;"/></g></g></svg>