<?xml version="1.0" encoding="UTF-8" standalone="no"?><!DOCTYPE svg PUBLIC "-//W3C//DTD SVG 1.1//EN" "http://www.w3.org/Graphics/SVG/1.1/DTD/svg11.dtd"><svg width="100%" height="100%" viewBox="0 0 2084 2084" version="1.1" xmlns="http://www.w3.org/2000/svg" xmlns:xlink="http://www.w3.org/1999/xlink" xml:space="preserve" xmlns:serif="http://www.serif.com/" style="fill-rule:evenodd;clip-rule:evenodd;stroke-linejoin:round;stroke-miterlimit:2;"><rect id="画板1" x="0" y="0" width="2083.33" height="2083.33" style="fill:none;"/><g id="画板11" serif:id="画板1"><g><path d="M1940.11,503.859l-125.837,0l-0,-160.154l125.837,-0c44.084,-0 79.985,35.992 79.985,80.077c-0,44.178 -35.901,80.077 -79.985,80.077Zm-1284.51,1243.49l-0,-252.695l1095.52,-0l-0,252.695l-1095.52,-0Zm-295.759,-766.09l0,-414.156l232.608,-0l-0,414.156l-232.608,-0Zm-296.783,-557.477c0,-44.085 35.901,-80.077 80.079,-80.077c44.177,-0 80.078,35.992 80.078,80.077c-0,44.178 -35.901,80.077 -80.078,80.077c-44.178,0 -80.079,-35.899 -80.079,-80.077Zm413.041,-227.957c53.198,0 97.563,36.087 111.421,84.727l-222.564,0c13.765,-48.64 58.129,-84.727 111.143,-84.727Zm179.501,1089.94l1095.52,-0l-0,145.739l-1095.52,0l-0,-145.739Zm-393.787,-781.903c15.439,-22.879 24.553,-50.408 24.553,-80.077c-0,-29.669 -9.114,-57.198 -24.553,-80.077l330.636,-0l-0,160.154l-330.636,0Zm1373.05,-308.034c64.081,0 116.258,52.174 116.258,116.258l-0,910.526l-1095.52,0l-0,-910.435c-0,-10.23 -1.116,-20.274 -2.697,-30.041l-0.651,-3.627c-1.675,-9.302 -4.279,-18.134 -7.441,-26.786l-1.581,-4.558c-3.347,-8.461 -7.254,-16.553 -11.719,-24.367l-2.418,-3.905l-15.811,-22.23l-0.558,-0.835l1022.14,0Zm305.246,84.727l-128.814,0c-14.974,-83.798 -88.356,-147.785 -176.432,-147.785l-1158.76,-0c-88.077,-0 -161.18,63.987 -176.155,147.785l-156.807,0c-78.962,0 -143.136,64.268 -143.136,143.23c0,78.962 64.174,143.321 143.136,143.321l153.646,-0l-0,445.593c-0,17.484 14.137,31.622 31.529,31.622l264.137,-0l-0,874.814c-0,17.391 14.137,31.435 31.529,31.435c17.486,-0 31.622,-14.044 31.622,-31.435l-0,-108.724l65.569,-0l0,108.724c0,17.391 14.136,31.435 31.622,31.435c17.392,-0 31.529,-14.044 31.529,-31.435l0,-108.724l65.57,-0l-0,108.724c-0,17.391 14.136,31.435 31.621,31.435c17.392,-0 31.53,-14.044 31.53,-31.435l-0,-108.724l65.569,-0l0,108.724c0,17.391 14.23,31.435 31.622,31.435c17.392,-0 31.529,-14.044 31.529,-31.435l0,-108.724l65.662,-0l-0,108.724c-0,17.391 14.044,31.435 31.529,31.435c17.484,-0 31.622,-14.044 31.622,-31.435l0,-108.724l65.569,-0l0,108.724c0,17.391 14.137,31.435 31.622,31.435c17.392,-0 31.53,-14.044 31.53,-31.435l-0,-108.724l65.661,-0l0,108.724c0,17.391 14.044,31.435 31.53,31.435c17.485,-0 31.529,-14.044 31.529,-31.435l0,-108.724l65.568,-0l0,108.724c0,17.391 14.23,31.435 31.623,31.435c17.392,-0 31.622,-14.044 31.622,-31.435l-0,-108.724l65.569,-0l0,108.724c0,17.391 14.044,31.435 31.53,31.435c17.484,-0 31.621,-14.044 31.621,-31.435l0,-108.724l65.57,-0l-0,108.724c-0,17.391 14.136,31.435 31.622,31.435c17.391,-0 31.529,-14.044 31.529,-31.435l-0,-1352.03l125.837,-0c78.962,-0 143.228,-64.359 143.228,-143.321c0,-78.962 -64.266,-143.23 -143.228,-143.23Z" style="fill:#0b0b16;fill-rule:nonzero;"/></g></g></svg>