<?xml version="1.0" encoding="UTF-8" standalone="no"?><!DOCTYPE svg PUBLIC "-//W3C//DTD SVG 1.1//EN" "http://www.w3.org/Graphics/SVG/1.1/DTD/svg11.dtd"><svg width="100%" height="100%" viewBox="0 0 2084 2084" version="1.1" xmlns="http://www.w3.org/2000/svg" xmlns:xlink="http://www.w3.org/1999/xlink" xml:space="preserve" xmlns:serif="http://www.serif.com/" style="fill-rule:evenodd;clip-rule:evenodd;stroke-linejoin:round;stroke-miterlimit:2;"><rect id="画板1" x="0" y="0" width="2083.33" height="2083.33" style="fill:none;"/><g id="画板11" serif:id="画板1"><g><path d="M1977.19,1673.44c-13.485,17.207 -46.505,27.902 -93.102,30.229c-26.508,1.3 -48.923,18.507 -57.108,43.621c-8.278,25.206 -0.28,52.18 20.275,68.827c33.019,26.602 50.506,52.179 50.598,73.663c0.094,16.651 -10.697,33.951 -32.089,51.623c-15.625,13.02 -29.576,18.044 -42.691,16.276c-19.067,-2.791 -40.273,-21.206 -61.108,-52.923c-14.788,-22.415 -41.202,-33.204 -67.153,-27.902c-25.485,5.208 -44.83,25.483 -49.295,50.967c-5.488,30.695 -17.207,70.504 -42.599,85.57c-15.161,9.021 -36.181,9.115 -62.317,0.094c-26.694,-8.93 -31.623,-21.487 -33.204,-25.577c-6.976,-17.488 -0.558,-46.505 18.044,-81.849c12.092,-23.068 8.928,-50.692 -8.278,-70.317c-12.556,-14.601 -30.322,-22.322 -48.738,-22.322l-22.415,3.906c-25.671,9.395 -61.014,17.672 -83.616,4.931c-14.417,-8.093 -24.368,-25.765 -29.391,-52.18c-3.813,-19.625 -1.767,-34.135 6.418,-44.739c12.835,-16.554 43.901,-26.971 87.336,-29.577c26.322,-1.487 48.737,-18.6 57.016,-43.527c8.37,-24.834 0.743,-51.901 -19.254,-69.014c-21.485,-17.95 -46.876,-45.202 -46.784,-71.804c0.094,-17.113 11.254,-34.879 33.205,-52.829c15.532,-13.023 29.671,-18.138 42.598,-16.369c19.067,2.79 40.181,21.206 61.108,53.013c14.788,22.418 41.204,33.392 67.061,27.905c25.577,-5.209 44.83,-25.299 49.387,-50.97c5.395,-30.786 17.207,-70.779 42.692,-85.755c15.253,-9.114 36.088,-9.114 62.316,-0.187c25.857,8.929 30.601,21.021 32.182,25.021c7.07,17.856 -0.093,48.086 -19.904,84.917c-12.65,23.253 -9.486,51.157 7.999,71.061c17.858,20.74 46.041,27.53 71.711,18.044c38.319,-14.323 68.361,-16.651 86.779,-6.324c14.137,7.905 23.81,25.018 28.833,50.876c5.486,28.18 -3.442,39.715 -6.512,43.621Zm-1879.45,-158.303c0,-146.211 118.961,-265.266 265.265,-265.266l1192.67,-0c17.486,-0 31.623,-13.858 31.623,-31.53c-0,-17.206 -14.137,-31.435 -31.623,-31.435l-1192.67,-0c-146.304,-0 -265.265,-119.053 -265.265,-265.267c0,-146.117 118.961,-265.079 265.265,-265.079l1192.67,-0c17.486,-0 31.623,-14.136 31.623,-31.529c-0,-17.485 -14.137,-31.53 -31.623,-31.53l-1192.67,0c-146.304,0 -265.265,-119.053 -265.265,-265.266c0,-146.211 118.961,-265.077 265.265,-265.077l1341.02,0c64.455,0 116.82,52.27 116.82,116.726c0,64.364 -52.365,116.821 -116.82,116.821l-1341.02,0c-17.486,0 -31.623,14.139 -31.623,31.53c0,17.581 14.137,31.532 31.623,31.532l1192.67,-0c146.304,-0 265.171,118.959 265.171,265.264c0,146.21 -118.867,265.079 -265.171,265.079l-1192.67,-0c-17.486,-0 -31.623,14.138 -31.623,31.529c0,17.579 14.137,31.623 31.623,31.623l1192.67,0c146.304,0 265.171,118.868 265.171,265.079c0,38.785 -8.836,75.338 -23.81,108.451l-0.558,-0.187c-44.458,-15.254 -83.058,-13.301 -114.775,5.396c-37.11,21.95 -61.571,65.386 -74.315,128.539c-31.437,-47.902 -66.595,-75.06 -104.45,-80.64c-31.437,-4.837 -62.409,5.302 -92.173,29.857c-27.623,22.787 -45.11,47.621 -52.271,73.848l-995.487,-0c-17.486,-0 -31.623,14.045 -31.623,31.532c0,17.391 14.137,31.623 31.623,31.623l997.626,0c9.487,28.833 30.321,57.482 62.502,86.033c-63.711,3.628 -108.635,21.766 -133.561,53.948c-19.439,24.74 -25.579,56.456 -18.695,93.566l-907.872,0c-146.304,0 -265.265,-118.959 -265.265,-265.17Zm1948,102.684c-8.836,-44.924 -29.018,-76.641 -59.99,-93.848c-35.624,-19.997 -82.687,-19.253 -141.841,2.231c29.67,-55.153 37.483,-101.565 23.16,-138.027c-3.907,-9.765 -9.767,-18.601 -16.556,-26.415c21.299,-43.343 33.483,-91.892 33.483,-143.421c0,-131.05 -77.384,-244.151 -188.81,-296.702c111.426,-52.457 188.81,-165.558 188.81,-296.608c0,-111.614 -55.991,-210.11 -141.282,-269.544c80.64,-17.673 141.282,-89.661 141.282,-175.603c0,-99.147 -80.732,-179.881 -179.974,-179.881l-1341.02,-0c-181.091,-0 -328.325,147.236 -328.325,328.232c0,131.05 77.385,244.151 188.81,296.796c-111.425,52.55 -188.81,165.651 -188.81,296.608c0,131.145 77.385,244.151 188.81,296.702c-111.425,52.645 -188.81,165.745 -188.81,296.796c0,181.09 147.234,328.326 328.325,328.326l932.425,-0c9.768,14.138 21.486,25.67 35.81,33.669c34.971,19.903 80.918,19.625 138.306,-0.465c-28.183,53.388 -35.158,98.684 -20.834,134.678c11.44,28.833 35.622,49.667 71.524,61.946c19.811,6.696 38.413,10.045 55.806,10.045c21.671,0 41.39,-5.117 58.968,-15.625c37.019,-21.765 61.573,-65.296 74.223,-128.264c31.53,47.902 66.687,75.06 104.544,80.64c31.251,4.653 62.408,-5.393 92.172,-30.042c36.738,-30.32 55.248,-63.99 55.155,-100.543c-0.279,-41.668 -25.206,-82.871 -74.316,-122.774l0.372,0c66.968,-3.346 114.032,-21.578 139.795,-54.504c19.719,-25.111 26.043,-56.922 18.787,-94.403Z" style="fill:#0b0b16;fill-rule:nonzero;"/><path d="M1659.38,1755.84c-14.882,1.396 -29.113,-2.697 -40.645,-11.811c-11.534,-9.208 -18.696,-22.322 -20.371,-37.113c-3.255,-30.226 18.602,-57.478 48.924,-60.828l5.952,-0.465c27.811,-0 51.9,21.021 54.969,49.389c3.256,30.229 -18.601,57.481 -48.829,60.828Zm-19.068,-172.626c-64.828,7.161 -111.797,65.758 -104.73,130.679c3.536,31.439 18.975,59.528 43.623,79.431c21.206,16.928 47.063,25.949 73.849,25.949l13.207,-0.65c64.829,-7.255 111.799,-65.664 104.73,-130.679c-7.161,-64.83 -65.851,-111.613 -130.679,-104.73Z" style="fill:#0b0b16;fill-rule:nonzero;"/></g></g></svg>