<?xml version="1.0" encoding="UTF-8" standalone="no"?><!DOCTYPE svg PUBLIC "-//W3C//DTD SVG 1.1//EN" "http://www.w3.org/Graphics/SVG/1.1/DTD/svg11.dtd"><svg width="100%" height="100%" viewBox="0 0 1000 1000" version="1.1" xmlns="http://www.w3.org/2000/svg" xmlns:xlink="http://www.w3.org/1999/xlink" xml:space="preserve" xmlns:serif="http://www.serif.com/" style="fill-rule:evenodd;clip-rule:evenodd;stroke-linejoin:round;stroke-miterlimit:2;"><rect id="画板1" x="0" y="0" width="1000" height="1000" style="fill:none;"/><g id="画板11" serif:id="画板1"><g><path d="M863.349,923.756l-769.287,0c-35.178,0 -63.749,-28.571 -63.749,-63.705c-0,-34.554 27.142,-62.456 61.83,-63.527l3.571,-0.581l747.724,-82.901c4.598,-0.938 9.598,-1.474 16.294,-1.786l0.134,-0.045l0.447,0l3.036,-0.134c58.66,0 106.338,47.723 106.338,106.34c0,58.616 -47.723,106.339 -106.338,106.339Zm-74.867,-688.304l33.795,-33.75c157.455,175.938 97.098,423.304 78.705,484.464c-11.964,-3.482 -24.553,-5.446 -37.633,-5.446l-2.233,0.089l-2.678,0.045l-1.027,0.179c-7.233,0.312 -13.661,1.026 -18.527,2.009l-42.143,4.687c117.545,-184.152 17.322,-402.768 -8.259,-452.277Zm-102.232,59.42c-8.929,8.884 -23.303,8.795 -32.187,-0c-8.795,-8.929 -8.795,-23.304 -0,-32.143l180.357,-180.357c8.571,-8.572 23.66,-8.572 32.187,-0c4.242,4.285 6.607,9.955 6.607,16.071c0,6.072 -2.365,11.831 -6.607,16.072l-54.33,54.285l-0,0.045l-126.027,126.027Zm242.902,402.812c18.705,-61.16 86.027,-327.411 -85.446,-517.455l44.33,-44.331c9.956,-10 15.491,-23.259 15.491,-37.455c-0,-14.196 -5.535,-27.5 -15.491,-37.544c-19.956,-19.956 -55,-19.956 -75.045,-0l-180.357,180.356c-20.625,20.715 -20.625,54.331 0,75.045c10.357,10.313 23.973,15.491 37.544,15.491c13.572,0 27.143,-5.178 37.501,-15.491l58.259,-58.304c29.955,60.849 115.714,268.126 -9.107,434.153l-666.876,73.973l-1.473,0.267c-49.866,2.902 -88.482,43.572 -88.482,93.662c-0,51.875 42.187,94.017 94.062,94.017l769.287,0c75.312,0 136.651,-61.294 136.651,-136.651c0,-51.519 -28.661,-96.474 -70.848,-119.733Z" style="fill:#0b0b16;fill-rule:nonzero;"/><path d="M863.349,855.274c-20.893,-0 -37.902,-16.965 -37.902,-37.857c-0,-20.893 17.009,-37.858 37.902,-37.858c20.892,0 37.856,16.965 37.856,37.858c0,20.892 -16.964,37.857 -37.856,37.857Zm-0,-106.072c-37.59,0 -68.17,30.625 -68.17,68.215c-0,37.589 30.58,68.169 68.17,68.169c37.589,0 68.169,-30.58 68.169,-68.169c-0,-37.59 -30.58,-68.215 -68.169,-68.215Z" style="fill:#0b0b16;fill-rule:nonzero;"/><path d="M94.062,844.872c-8.348,-0 -15.133,6.786 -15.133,15.179c-0,8.348 6.785,15.133 15.133,15.133c8.348,0 15.134,-6.785 15.134,-15.133c0,-8.393 -6.786,-15.179 -15.134,-15.179Z" style="fill:#0b0b16;fill-rule:nonzero;"/></g></g></svg>