<?xml version="1.0" encoding="UTF-8" standalone="no"?><!DOCTYPE svg PUBLIC "-//W3C//DTD SVG 1.1//EN" "http://www.w3.org/Graphics/SVG/1.1/DTD/svg11.dtd"><svg width="100%" height="100%" viewBox="0 0 2084 2084" version="1.1" xmlns="http://www.w3.org/2000/svg" xmlns:xlink="http://www.w3.org/1999/xlink" xml:space="preserve" xmlns:serif="http://www.serif.com/" style="fill-rule:evenodd;clip-rule:evenodd;stroke-linejoin:round;stroke-miterlimit:2;"><rect id="画板1" x="0" y="0" width="2083.33" height="2083.33" style="fill:none;"/><g id="画板11" serif:id="画板1"><g><path d="M2020.28,1638.44l-41.295,0l-133.741,-53.014l-0,-34.412l175.036,0l-0,87.426Zm-101.47,202.196l-136.903,-0c-15.253,-94.028 -96.727,-166.11 -194.941,-166.11c-98.215,0 -179.782,72.082 -194.941,166.11l-751.58,-0c-15.16,-94.028 -96.633,-166.11 -194.941,-166.11c-98.214,0 -179.688,72.082 -194.848,166.11l-102.491,-0c-46.875,-0 -85.008,-38.039 -85.008,-85.008l0,-54.035l23.717,-0l15.532,-4.093l111.42,-63.153c9.952,-5.58 16.091,-16.087 16.091,-27.435l-0,-87.516c-0,-17.394 -14.138,-31.534 -31.622,-31.534l-135.138,-0l0,-121.463c0,-8.742 0.279,-17.58 0.931,-26.322l803.941,-0c17.487,-0 31.622,-14.232 31.622,-31.619l-0,-405.879l92.728,-0l-0,405.879c-0,17.387 14.137,31.619 31.621,31.619l560.547,-0l383.278,58.594c30.319,6.142 52.455,33.015 52.455,64.083l-0,25.108l-206.567,-0c-17.391,-0 -31.622,14.14 -31.622,31.534l0,87.516c0,12.926 7.905,24.551 19.902,29.297l159.227,63.153l11.626,2.231l47.434,-0l-0,37.664c-0,55.898 -45.572,101.379 -101.47,101.379Zm-331.844,166.109c-74.219,0 -134.579,-60.268 -134.579,-134.49c-0,-74.217 60.36,-134.485 134.579,-134.485c74.219,-0 134.578,60.268 134.578,134.485c0,74.222 -60.359,134.49 -134.578,134.49Zm-1141.46,0c-74.126,0 -134.485,-60.268 -134.485,-134.49c-0,-74.217 60.359,-134.485 134.485,-134.485c74.219,-0 134.578,60.268 134.578,134.485c0,74.222 -60.359,134.49 -134.578,134.49Zm-382.347,-455.731l103.517,0l-0,37.483l-88.079,49.943l-15.438,0l0,-87.426Zm88.729,-545.387c17.484,-60.638 73.844,-103.048 137.091,-103.048l154.668,-0l-0,374.254l-369.512,0.097l3.812,-15.35l73.941,-255.953Zm684.615,-103.048l0,374.254l-329.707,0l0,-374.254l329.707,-0Zm-449.404,-156.527l662.945,-0l-0,93.374l-662.945,0l0,-93.374Zm-75.335,-386.63l228.794,0l0,323.568l-228.794,0l0,-323.568Zm88.076,-227.581c0,-30.416 24.833,-55.154 55.245,-55.154l455.078,-0c30.506,-0 55.245,24.738 55.245,55.154l0,164.338l-565.568,-0l0,-164.338Zm303.385,227.581c-8.649,16.372 -13.951,34.696 -13.951,54.598l0,214.378c0,19.715 5.302,38.13 13.951,54.592l-99.514,0l-0,-323.568l99.514,0Zm425.315,54.598l0,214.378c0,30.041 -24.551,54.592 -54.686,54.592l-266.926,0c-30.134,0 -54.595,-24.551 -54.595,-54.592l0,-214.378c0,-30.137 24.461,-54.598 54.595,-54.598l266.926,0c30.135,0 54.686,24.461 54.686,54.598Zm209.173,578.403l190.195,284.41l-472.375,0l0,-374.254l114.211,-0c67.614,-0 130.392,33.577 167.969,89.844Zm641.087,344.123l-373.324,-57.204l-215.215,-321.984c-49.387,-73.847 -131.791,-117.932 -220.517,-117.932l-56.548,0l0,-93.374l93.472,-0c17.484,-0 31.528,-14.141 31.528,-31.534c-0,-17.388 -14.044,-31.528 -31.528,-31.528l-29.113,0c8.651,-16.462 14.044,-34.877 14.044,-54.592l0,-214.378c0,-64.918 -52.827,-117.841 -117.745,-117.841l-45.293,-0l-0,-164.338c-0,-65.196 -53.108,-118.398 -118.398,-118.398l-455.078,0c-65.29,0 -118.394,53.202 -118.394,118.398l-0,164.338l-56.548,-0c-17.393,-0 -31.531,14.231 -31.531,31.624l0,355.187l-18.228,0c-17.393,0 -31.53,14.14 -31.53,31.528c-0,17.393 14.137,31.534 31.53,31.534l93.563,-0l-0,93.374l-34.968,0c-91.241,0 -172.527,61.2 -197.732,148.717l-73.94,255.953c-11.439,39.805 -17.3,80.915 -17.3,122.303l0,389.229c0,81.659 66.408,148.16 148.16,148.16l102.491,0c15.16,93.937 96.634,166.104 194.848,166.104c98.308,0 179.781,-72.167 194.941,-166.104l751.58,0c15.159,93.937 96.726,166.104 194.941,166.104c98.214,0 179.688,-72.167 194.941,-166.104l136.903,0c90.775,0 164.528,-73.847 164.528,-164.531l0,-276.503c0,-60.921 -43.341,-113.935 -104.54,-126.208Z" style="fill:#0b0b16;fill-rule:nonzero;"/><path d="M445.499,1838.77c-18.415,-0 -33.39,14.975 -33.39,33.481c-0,18.42 14.975,33.39 33.39,33.39c18.508,-0 33.483,-14.97 33.483,-33.39c0,-18.506 -14.975,-33.481 -33.483,-33.481Z" style="fill:#0b0b16;fill-rule:nonzero;"/><path d="M1586.96,1838.77c-18.415,-0 -33.484,14.975 -33.484,33.481c0,18.42 15.069,33.39 33.484,33.39c18.508,-0 33.39,-14.97 33.39,-33.39c-0,-18.506 -14.882,-33.481 -33.39,-33.481Z" style="fill:#0b0b16;fill-rule:nonzero;"/><path d="M1181.17,1434.76l-157.18,0c-17.484,0 -31.621,14.141 -31.621,31.528c-0,17.49 14.137,31.534 31.621,31.534l157.18,-0c17.394,-0 31.438,-14.044 31.438,-31.534c-0,-17.387 -14.044,-31.528 -31.438,-31.528Z" style="fill:#0b0b16;fill-rule:nonzero;"/><path d="M632.348,1434.76l-157.087,0c-17.484,0 -31.621,14.141 -31.621,31.528c-0,17.49 14.137,31.534 31.621,31.534l157.087,-0c17.484,-0 31.528,-14.044 31.528,-31.534c-0,-17.387 -14.044,-31.528 -31.528,-31.528Z" style="fill:#0b0b16;fill-rule:nonzero;"/></g></g></svg>