<?xml version="1.0" encoding="UTF-8" standalone="no"?><!DOCTYPE svg PUBLIC "-//W3C//DTD SVG 1.1//EN" "http://www.w3.org/Graphics/SVG/1.1/DTD/svg11.dtd"><svg width="100%" height="100%" viewBox="0 0 2084 2084" version="1.1" xmlns="http://www.w3.org/2000/svg" xmlns:xlink="http://www.w3.org/1999/xlink" xml:space="preserve" xmlns:serif="http://www.serif.com/" style="fill-rule:evenodd;clip-rule:evenodd;stroke-linejoin:round;stroke-miterlimit:2;"><rect id="画板1" x="0" y="0" width="2083.33" height="2083.33" style="fill:none;"/><clipPath id="_clip1"><rect id="画板11" serif:id="画板1" x="0" y="0" width="2083.33" height="2083.33"/></clipPath><g clip-path="url(#_clip1)"><g><path d="M2008.82,347.472l-11.439,7.998l-876.113,188.339l-21.208,-78.036l858.817,-259.11l5.205,-0.84l8.742,2.328l8.464,10.972l29.484,114.583l-1.952,13.766Zm-1927.08,1325.52l278.734,-1027.62l722.844,0l278.831,1027.62l-1280.41,-0Zm974.421,347.284l-668.525,0c-163.503,0 -298.272,-124.908 -314.082,-284.228l1296.78,-0c-15.996,159.32 -150.765,284.228 -314.173,284.228Zm-876.488,-1957.12l953.588,0l-104.909,310.824l-611.237,0c-46.781,-160.155 -151.6,-256.322 -237.442,-310.824Zm886.53,518.975l-688.614,-0l39.435,-144.998l609.84,-0l39.339,144.998Zm1005.67,-264.23l-29.387,-114.492c-5.671,-21.48 -19.346,-39.436 -38.692,-50.318c-19.346,-10.876 -41.667,-13.294 -63.056,-6.971l-856.024,258.366l122.394,-362.816c3.349,-9.667 1.674,-20.271 -4.184,-28.547c-6.046,-8.283 -15.441,-13.119 -25.67,-13.119l-1136.81,0c-15.81,0 -29.11,11.626 -31.341,27.163c-2.231,15.622 7.533,30.409 22.599,34.78c2.605,0.744 258.74,77.662 328.313,343.936l-350.168,1290.37l-0.097,3.531l-0.834,4.746c-0,208.888 169.827,378.812 378.721,378.812l668.525,0c208.889,0 378.904,-169.924 378.904,-378.812l-1.022,-4.746l-0.091,-3.531l-296.223,-1091.42l872.951,-187.596c21.577,-4.745 40.083,-17.671 51.805,-36.642c11.626,-18.881 15.066,-41.201 9.389,-62.687Z" style="fill:#0b0b16;fill-rule:nonzero;"/></g></g></svg>