<?xml version="1.0" encoding="UTF-8" standalone="no"?><!DOCTYPE svg PUBLIC "-//W3C//DTD SVG 1.1//EN" "http://www.w3.org/Graphics/SVG/1.1/DTD/svg11.dtd"><svg width="100%" height="100%" viewBox="0 0 2084 2084" version="1.1" xmlns="http://www.w3.org/2000/svg" xmlns:xlink="http://www.w3.org/1999/xlink" xml:space="preserve" xmlns:serif="http://www.serif.com/" style="fill-rule:evenodd;clip-rule:evenodd;stroke-linejoin:round;stroke-miterlimit:2;"><rect id="画板1" x="0" y="0" width="2083.33" height="2083.33" style="fill:none;"/><g id="画板11" serif:id="画板1"><g><path d="M1944.13,1584.14c-7.982,52.294 -43.412,96.249 -92.738,115.187l-399.01,152.872c-80.113,30.714 -169.291,-14.164 -192.445,-96.854c-16.95,-60.538 17.047,-123.654 76.902,-142.846l78.842,-25.176c221.863,-47.266 353.498,-130.37 436.186,-131.357c76.361,-0.955 107.179,65.28 92.263,128.174Z" style="fill:#fff;fill-rule:nonzero;"/><path d="M1853.49,1479.77c-0.444,0 -0.891,0.063 -1.335,0.063c-35.112,0.414 -84.789,19.193 -147.634,42.937c-73.88,27.977 -165.824,62.734 -283.848,87.847l-76.584,24.635c-47.863,15.342 -74.738,65.249 -61.157,113.692c9.35,33.451 31.58,60.41 62.59,76.038c31.008,15.596 65.96,17.314 98.336,4.965l399.01,-152.936c41.25,-15.787 71.017,-52.771 77.697,-96.472c0.095,-0.636 0.223,-1.242 0.349,-1.942c6.806,-28.581 1.972,-56.813 -12.88,-75.401c-12.436,-15.533 -30.755,-23.426 -54.544,-23.426Zm-453.172,405.941c-26.236,-0 -52.379,-6.112 -76.232,-18.111c-42.521,-21.356 -74.263,-59.901 -87.111,-105.798c-20.514,-73.301 20.165,-148.83 92.581,-172.001l78.873,-25.24c116.783,-24.985 206.883,-59.074 279.237,-86.414c67.234,-25.431 120.345,-45.578 163.916,-46.056c38.642,-0.509 72.003,14.164 93.693,41.281c23.789,29.76 32.122,72.792 22.294,115.315c-9.54,60.22 -50.726,111.081 -107.654,132.884l-399.01,152.936c-19.495,7.48 -40.073,11.204 -60.587,11.204Z" style="fill-rule:nonzero;"/><path d="M2031.08,1582.1c-61.412,-51.117 -231.466,105.543 -673.921,189.156c58.329,-22.057 79.034,-54.586 81.227,-87.146c9.954,-146.729 -117.101,-140.013 -117.101,-140.013c-652.326,7.67 -156.22,-147.334 -1043,-151.472l0,572.149c0,-0 976.66,332.034 1716.23,-237.536c-0,-0 116.909,-78.394 36.573,-145.138Z" style="fill:#fff;fill-rule:nonzero;"/><path d="M302.135,1947.24c129.632,39.054 1008.62,276.462 1677.84,-238.904c14.821,-10.058 53.939,-42.937 55.402,-72.537c0.255,-4.521 0.923,-18.334 -19.527,-35.362c-17.651,-14.673 -73.308,8.148 -150.272,39.785c-106.066,43.637 -266.356,109.585 -503.993,154.528c-12.119,2.259 -24.045,-5.093 -27.415,-17.028c-3.341,-11.872 2.989,-24.349 14.533,-28.773c41.822,-15.787 63.99,-38.163 65.898,-66.458c2.671,-39.595 -5.439,-69.45 -24.107,-88.643c-26.556,-27.245 -67.711,-25.94 -68.091,-25.876c-310.723,3.628 -367.27,-28.837 -432.627,-66.522c-66.183,-38.099 -141.049,-81.226 -587.637,-84.855l0,530.645Zm635.915,136.098c-377.191,0 -662.153,-94.18 -667.464,-95.994c-9.669,-3.278 -16.156,-12.382 -16.156,-22.566l-0,-572.149c-0,-6.43 2.512,-12.445 6.996,-16.997c4.517,-4.456 11.546,-5.888 16.952,-6.875c480.586,2.229 562.702,49.59 635.183,91.316c59.313,34.184 110.678,63.721 407.438,60.156c1.462,0 61.286,-2.737 103.17,39.849c28.91,29.347 41.696,71.614 38.006,125.66c-0.827,12.604 -4.007,26.958 -11.703,41.504c180.231,-42.014 308.019,-94.531 396.973,-131.166c102.6,-42.204 159.083,-65.471 198.902,-32.369c32.12,26.704 37.687,55.318 36.668,74.638c-3.02,58.691 -67.868,103.824 -75.215,108.725c-344.117,265.068 -741.789,336.268 -1069.75,336.268Z" style="fill-rule:nonzero;"/><path d="M1135.2,1821.61c-80.527,-0 -173.267,-6.907 -277.836,-20.688c-13.041,-1.688 -22.263,-13.686 -20.514,-26.8c1.718,-13.05 13.708,-22.121 26.747,-20.529c271.954,35.934 414.688,17.06 486.532,-5.157c12.532,-3.915 25.92,3.247 29.801,15.787c3.88,12.636 -3.18,26.004 -15.774,29.856c-59.506,18.397 -136.088,27.531 -228.956,27.531Z" style="fill-rule:nonzero;"/><rect x="23.853" y="1392.62" width="254.43" height="572.913" style="fill:#fff;fill-rule:nonzero;"/><path d="M47.706,1941.66l206.724,0l-0,-525.17l-206.724,0l-0,525.17Zm230.576,47.743l-254.429,-0c-13.167,-0 -23.853,-10.695 -23.853,-23.872l0,-572.912c0,-13.209 10.686,-23.872 23.853,-23.872l254.429,0c13.167,0 23.853,10.663 23.853,23.872l0,572.912c0,13.177 -10.686,23.872 -23.853,23.872Z" style="fill-rule:nonzero;"/><path d="M182.871,1838.22c0,17.506 -14.248,31.829 -31.803,31.829c-17.587,-0 -31.804,-14.323 -31.804,-31.829c-0,-17.601 14.217,-31.828 31.804,-31.828c17.555,0 31.803,14.227 31.803,31.828Z" style="fill-rule:nonzero;"/><path d="M1932.08,724.225c0,386.716 -313.234,700.227 -699.681,700.227c-386.416,0 -699.682,-313.511 -699.682,-700.227c0,-386.748 313.266,-700.226 699.682,-700.226c386.447,-0 699.681,313.478 699.681,700.226Z" style="fill:#fff;fill-rule:nonzero;"/><path d="M1232.39,47.87c-372.644,-0 -675.829,303.357 -675.829,676.355c-0,372.903 303.185,676.356 675.829,676.356c372.643,-0 675.829,-303.453 675.829,-676.356c-0,-372.998 -303.186,-676.355 -675.829,-676.355Zm-0,1400.45c-398.946,-0 -723.535,-324.874 -723.535,-724.099c0,-399.288 324.589,-724.098 723.535,-724.098c398.977,0 723.534,324.81 723.534,724.098c0,399.225 -324.557,724.099 -723.534,724.099Z" style="fill-rule:nonzero;"/><path d="M2045.55,597.071c-11.29,-0 -21.308,-8.022 -23.439,-19.511c-27.701,-150.422 -97.797,-289.385 -202.685,-401.771c-9.001,-9.644 -8.46,-24.731 1.145,-33.738c9.636,-8.944 24.68,-8.53 33.712,1.177c111.154,119.038 185.383,266.245 214.737,425.706c2.386,12.923 -6.169,25.367 -19.145,27.786c-1.462,0.256 -2.894,0.351 -4.325,0.351Z" style="fill-rule:nonzero;"/><path d="M1741.19,95.74c-5.121,-0 -10.303,-1.687 -14.661,-5.093c-21.087,-16.487 -43.253,-32.083 -65.898,-46.437c-11.162,-7.034 -14.47,-21.834 -7.41,-32.943c7.029,-11.14 21.755,-14.45 32.885,-7.416c24.012,15.182 47.483,31.702 69.81,49.175c10.367,8.148 12.211,23.14 4.101,33.515c-4.705,6.016 -11.734,9.199 -18.827,9.199Z" style="fill-rule:nonzero;"/><path d="M1741.25,724.225c0,281.205 -227.811,509.256 -508.859,509.256c-281.018,0 -508.86,-228.051 -508.86,-509.256c0,-281.3 227.842,-509.255 508.86,-509.255c281.048,-0 508.859,227.955 508.859,509.255Z" style="fill:#fff;fill-rule:nonzero;"/><path d="M1232.39,238.841c-267.406,-0 -485.007,217.675 -485.007,485.384c0,267.614 217.601,485.385 485.007,485.385c267.437,-0 485.006,-217.771 485.006,-485.385c0,-267.709 -217.569,-485.384 -485.006,-485.384Zm-0,1018.51c-293.74,-0 -532.712,-239.223 -532.712,-533.128c-0,-293.999 238.972,-533.127 532.712,-533.127c293.738,0 532.712,239.128 532.712,533.127c-0,293.905 -238.974,533.128 -532.712,533.128Z" style="fill-rule:nonzero;"/><path d="M1575.59,915.356c-3.531,-0 -7.093,-0.796 -10.432,-2.42c-11.864,-5.761 -16.761,-20.083 -11.004,-31.956c23.917,-49.047 36.034,-101.818 36.034,-156.755c-0,-54.967 -12.086,-107.675 -35.97,-156.723c-5.757,-11.872 -0.86,-26.131 11.003,-31.892c11.864,-5.793 26.112,-0.892 31.867,10.981c27.097,55.603 40.805,115.346 40.805,177.634c0,62.289 -13.739,122.062 -40.869,177.731c-4.132,8.434 -12.594,13.4 -21.434,13.4Z" style="fill-rule:nonzero;"/><path d="M889.168,915.356c-8.841,-0 -17.334,-4.966 -21.467,-13.4c-27.065,-55.605 -40.805,-115.378 -40.805,-177.635c0,-62.352 13.74,-122.127 40.867,-177.73c5.758,-11.936 20.037,-16.837 31.899,-10.981c11.832,5.761 16.762,20.083 10.974,31.892c-23.884,49.048 -36.034,101.819 -36.034,156.819c0,54.968 12.117,107.675 36.002,156.659c5.756,11.873 0.827,26.195 -11.004,31.956c-3.372,1.624 -6.934,2.42 -10.432,2.42Z" style="fill-rule:nonzero;"/><path d="M651.912,724.225c0,13.177 -10.686,23.872 -23.853,23.872c-13.167,-0 -23.853,-10.695 -23.853,-23.872c0,-13.209 10.686,-23.871 23.853,-23.871c13.167,0 23.853,10.662 23.853,23.871Z" style="fill-rule:nonzero;"/><path d="M1860.58,724.225c0,13.177 -10.686,23.872 -23.853,23.872c-13.166,-0 -23.852,-10.695 -23.852,-23.872c-0,-13.209 10.686,-23.871 23.852,-23.871c13.167,0 23.853,10.662 23.853,23.871Z" style="fill-rule:nonzero;"/><path d="M1232.39,1305.16c13.167,0 23.853,10.663 23.853,23.872c-0,13.176 -10.686,23.871 -23.853,23.871c-13.167,0 -23.853,-10.695 -23.853,-23.871c0,-13.209 10.686,-23.872 23.853,-23.872Z" style="fill-rule:nonzero;"/><path d="M1232.39,95.549c13.167,-0 23.853,10.695 23.853,23.871c-0,13.177 -10.686,23.871 -23.853,23.871c-13.167,0 -23.853,-10.694 -23.853,-23.871c0,-13.176 10.686,-23.871 23.853,-23.871Z" style="fill-rule:nonzero;"/><path d="M1642.85,1135c9.317,-9.326 24.425,-9.326 33.743,0c9.319,9.326 9.319,24.412 -0,33.738c-9.318,9.326 -24.426,9.326 -33.743,0c-9.32,-9.326 -9.32,-24.412 -0,-33.738Z" style="fill-rule:nonzero;"/><path d="M788.192,279.677c9.318,-9.326 24.423,-9.326 33.743,-0c9.317,9.325 9.317,24.412 -0,33.738c-9.32,9.325 -24.425,9.325 -33.743,-0c-9.319,-9.326 -9.319,-24.413 0,-33.738Z" style="fill-rule:nonzero;"/><path d="M1642.85,313.415c-9.32,-9.326 -9.32,-24.413 -0,-33.738c9.317,-9.326 24.425,-9.326 33.743,-0c9.319,9.325 9.319,24.412 -0,33.738c-9.318,9.325 -24.426,9.325 -33.743,-0Z" style="fill-rule:nonzero;"/><path d="M788.192,1168.74c-9.319,-9.326 -9.319,-24.412 0,-33.738c9.318,-9.326 24.423,-9.326 33.743,0c9.317,9.326 9.317,24.412 -0,33.738c-9.32,9.326 -24.425,9.326 -33.743,0Z" style="fill-rule:nonzero;"/><path d="M1768.7,946.516c5.026,-12.19 18.988,-17.983 31.136,-12.923c12.181,5.029 17.969,19.001 12.944,31.193c-5.057,12.19 -19.018,17.982 -31.167,12.921c-12.181,-5.093 -17.97,-19.001 -12.913,-31.191Z" style="fill-rule:nonzero;"/><path d="M652.04,483.634c5.024,-12.19 18.986,-17.951 31.167,-12.922c12.15,5.028 17.938,19.001 12.88,31.192c-5.024,12.126 -18.987,17.982 -31.134,12.858c-12.183,-5.029 -17.97,-18.938 -12.913,-31.128Z" style="fill-rule:nonzero;"/><path d="M1454.54,187.469c-12.18,-5.028 -17.936,-19.001 -12.912,-31.191c5.025,-12.19 18.986,-17.951 31.169,-12.858c12.18,5.028 17.936,18.937 12.91,31.128c-5.056,12.19 -19.017,17.951 -31.167,12.921Z" style="fill-rule:nonzero;"/><path d="M992.022,1305.03c-12.181,-5.06 -17.969,-19.033 -12.946,-31.223c5.057,-12.19 19.02,-17.951 31.169,-12.923c12.181,5.03 17.97,19.034 12.944,31.193c-5.057,12.19 -19.019,17.983 -31.167,12.953Z" style="fill-rule:nonzero;"/><path d="M1768.7,501.904c-5.057,-12.191 0.732,-26.164 12.913,-31.192c12.149,-5.029 26.11,0.732 31.167,12.922c5.025,12.19 -0.763,26.099 -12.944,31.128c-12.148,5.124 -26.11,-0.732 -31.136,-12.858Z" style="fill-rule:nonzero;"/><path d="M652.04,964.786c-5.057,-12.192 0.73,-26.164 12.913,-31.193c12.147,-5.06 26.11,0.733 31.134,12.923c5.058,12.19 -0.73,26.098 -12.88,31.191c-12.181,5.061 -26.143,-0.731 -31.167,-12.921Z" style="fill-rule:nonzero;"/><path d="M1010.25,187.469c-12.149,5.03 -26.112,-0.731 -31.169,-12.921c-5.023,-12.191 0.765,-26.1 12.946,-31.128c12.148,-5.093 26.11,0.668 31.167,12.858c5.026,12.19 -0.763,26.163 -12.944,31.191Z" style="fill-rule:nonzero;"/><path d="M1472.8,1305.03c-12.183,5.03 -26.144,-0.763 -31.169,-12.953c-5.024,-12.159 0.732,-26.163 12.912,-31.193c12.15,-5.028 26.111,0.733 31.167,12.923c5.026,12.19 -0.73,26.163 -12.91,31.223Z" style="fill-rule:nonzero;"/><path d="M1232.74,1050.47c-88.827,0 -167.095,-43.541 -199.505,-110.731c-5.691,-11.936 -0.699,-26.163 11.164,-31.892c11.831,-5.73 26.079,-0.732 31.835,11.14c24.076,50.098 86.984,83.741 156.506,83.741c91.88,-0 166.62,-57.133 166.62,-127.314c0,-82.149 -59.408,-127.314 -167.319,-127.314c-134.179,-0 -214.325,-65.472 -214.325,-175.057c-0,-96.567 96.174,-175.057 214.325,-175.057c88.827,0 167.129,43.446 199.503,110.7c5.727,11.872 0.732,26.162 -11.13,31.892c-11.895,5.665 -26.143,0.701 -31.868,-11.204c-24.074,-50.034 -86.982,-83.645 -156.505,-83.645c-91.882,0 -166.62,57.069 -166.62,127.314c0,82.054 59.186,127.314 166.62,127.314c134.656,0 215.025,65.375 215.025,175.057c-0,96.472 -96.143,175.056 -214.326,175.056Z" style="fill-rule:nonzero;"/><path d="M1232.14,1145.95c-13.167,-0 -23.853,-10.694 -23.853,-23.872l-0,-795.712c-0,-13.209 10.686,-23.871 23.853,-23.871c13.166,-0 23.852,10.662 23.852,23.871l0,795.712c0,13.178 -10.686,23.872 -23.852,23.872Z" style="fill-rule:nonzero;"/><path d="M469.136,1137.93c-0,35.17 -28.496,63.657 -63.608,63.657c-35.142,-0 -63.607,-28.487 -63.607,-63.657c-0,-35.138 28.465,-63.657 63.607,-63.657c35.112,-0 63.608,28.519 63.608,63.657Z" style="fill:#fff;fill-rule:nonzero;"/><path d="M405.528,1098.15c-21.944,0 -39.754,17.825 -39.754,39.786c-0,21.93 17.81,39.785 39.754,39.785c21.914,0 39.755,-17.855 39.755,-39.785c0,-21.961 -17.841,-39.786 -39.755,-39.786Zm0,127.314c-48.245,-0 -87.46,-39.244 -87.46,-87.528c0,-48.252 39.215,-87.529 87.46,-87.529c48.215,0 87.461,39.277 87.461,87.529c-0,48.284 -39.246,87.528 -87.461,87.528Z" style="fill-rule:nonzero;"/><path d="M2059.48,1265.31c-0,35.106 -28.496,63.657 -63.608,63.657c-35.142,-0 -63.607,-28.551 -63.607,-63.657c-0,-35.202 28.465,-63.657 63.607,-63.657c35.112,-0 63.608,28.455 63.608,63.657Z" style="fill:#fff;fill-rule:nonzero;"/><path d="M1995.87,1225.52c-21.945,0 -39.755,17.824 -39.755,39.786c0,21.929 17.81,39.785 39.755,39.785c21.914,0 39.755,-17.856 39.755,-39.785c-0,-21.962 -17.841,-39.786 -39.755,-39.786Zm0,127.314c-48.245,0 -87.46,-39.308 -87.46,-87.528c-0,-48.316 39.215,-87.529 87.46,-87.529c48.214,0 87.46,39.213 87.46,87.529c0,48.22 -39.246,87.528 -87.46,87.528Z" style="fill-rule:nonzero;"/><path d="M151.068,883.304c-0,35.107 -28.496,63.657 -63.608,63.657c-35.142,-0 -63.607,-28.55 -63.607,-63.657c-0,-35.202 28.465,-63.657 63.607,-63.657c35.112,-0 63.608,28.455 63.608,63.657Z" style="fill:#fff;fill-rule:nonzero;"/><path d="M87.46,843.518c-21.944,0 -39.754,17.825 -39.754,39.786c-0,21.93 17.81,39.785 39.754,39.785c21.912,0 39.755,-17.855 39.755,-39.785c-0,-21.961 -17.843,-39.786 -39.755,-39.786Zm0,127.314c-48.247,0 -87.46,-39.244 -87.46,-87.528c0,-48.252 39.213,-87.529 87.46,-87.529c48.214,0 87.46,39.277 87.46,87.529c0,48.284 -39.246,87.528 -87.46,87.528Z" style="fill-rule:nonzero;"/><path d="M405.497,533.127c0,35.171 -28.465,63.657 -63.607,63.657c-35.112,0 -63.608,-28.486 -63.608,-63.657c0,-35.139 28.496,-63.657 63.608,-63.657c35.142,0 63.607,28.518 63.607,63.657Z" style="fill:#fff;fill-rule:nonzero;"/><path d="M341.89,493.342c-21.914,-0 -39.755,17.823 -39.755,39.785c0,21.93 17.841,39.786 39.755,39.786c21.945,-0 39.755,-17.856 39.755,-39.786c-0,-21.962 -17.81,-39.785 -39.755,-39.785Zm-0,127.314c-48.214,-0 -87.46,-39.245 -87.46,-87.529c-0,-48.252 39.246,-87.528 87.46,-87.528c48.245,-0 87.46,39.276 87.46,87.528c0,48.284 -39.215,87.529 -87.46,87.529Z" style="fill-rule:nonzero;"/><path d="M246.479,183.014c-0,35.107 -28.465,63.657 -63.608,63.657c-35.142,-0 -63.607,-28.55 -63.607,-63.657c-0,-35.202 28.465,-63.657 63.607,-63.657c35.143,-0 63.608,28.455 63.608,63.657Z" style="fill:#fff;fill-rule:nonzero;"/><path d="M182.871,143.228c-21.944,0 -39.754,17.824 -39.754,39.786c-0,21.929 17.81,39.785 39.754,39.785c21.912,0 39.755,-17.856 39.755,-39.785c-0,-21.962 -17.843,-39.786 -39.755,-39.786Zm0,127.314c-48.247,0 -87.46,-39.309 -87.46,-87.528c0,-48.284 39.213,-87.529 87.46,-87.529c48.214,0 87.461,39.245 87.461,87.529c-0,48.219 -39.247,87.528 -87.461,87.528Z" style="fill-rule:nonzero;"/><path d="M659.958,87.528c0,35.139 -28.463,63.657 -63.607,63.657c-35.112,0 -63.608,-28.518 -63.608,-63.657c0,-35.17 28.496,-63.657 63.608,-63.657c35.144,0 63.607,28.487 63.607,63.657Z" style="fill:#fff;fill-rule:nonzero;"/><path d="M596.351,47.743c-21.912,-0 -39.755,17.856 -39.755,39.785c0,21.962 17.843,39.786 39.755,39.786c21.944,-0 39.754,-17.824 39.754,-39.786c0,-21.929 -17.81,-39.785 -39.754,-39.785Zm-0,127.314c-48.214,-0 -87.461,-39.277 -87.461,-87.529c0,-48.283 39.247,-87.528 87.461,-87.528c48.247,-0 87.46,39.245 87.46,87.528c-0,48.252 -39.213,87.529 -87.46,87.529Z" style="fill-rule:nonzero;"/></g></g></svg>