<?xml version="1.0" encoding="UTF-8" standalone="no"?><!DOCTYPE svg PUBLIC "-//W3C//DTD SVG 1.1//EN" "http://www.w3.org/Graphics/SVG/1.1/DTD/svg11.dtd"><svg width="100%" height="100%" viewBox="0 0 2084 2084" version="1.1" xmlns="http://www.w3.org/2000/svg" xmlns:xlink="http://www.w3.org/1999/xlink" xml:space="preserve" xmlns:serif="http://www.serif.com/" style="fill-rule:evenodd;clip-rule:evenodd;stroke-linejoin:round;stroke-miterlimit:2;"><rect id="画板1" x="0" y="0" width="2083.33" height="2083.33" style="fill:none;"/><clipPath id="_clip1"><rect id="画板11" serif:id="画板1" x="0" y="0" width="2083.33" height="2083.33"/></clipPath><g clip-path="url(#_clip1)"><g><path d="M1932.26,278.299l-1272.23,0c-70.259,0 -127.223,56.964 -127.223,127.223l0,1272.23c0,70.258 56.964,127.222 127.223,127.222l1081.42,0l318.024,254.446l0,-1653.89c0,-70.259 -56.964,-127.223 -127.222,-127.223Z" style="fill:#fff;fill-rule:nonzero;"/><path d="M660.031,302.154c-56.996,-0 -103.369,46.34 -103.369,103.368l0,1272.23c0,56.964 46.373,103.368 103.369,103.368l1081.42,0c5.438,0 10.686,1.781 14.916,5.216l279.254,223.435l-0,-1604.25c-0,-57.028 -46.373,-103.368 -103.368,-103.368l-1272.23,-0Zm1399.45,1781.12c-5.311,-0 -10.591,-1.75 -14.917,-5.216l-311.472,-249.229l-1073.06,-0c-83.299,-0 -151.077,-67.778 -151.077,-151.077l-0,-1272.23c-0,-83.299 67.778,-151.077 151.077,-151.077l1272.23,0c83.299,0 151.076,67.778 151.076,151.077l0,1653.89c0,9.191 -5.247,17.525 -13.517,21.5c-3.276,1.59 -6.838,2.354 -10.337,2.354Z" style="fill-rule:nonzero;"/><path d="M1423.3,23.791l-1272.23,-0c-70.259,-0 -127.223,56.964 -127.223,127.222l0,1653.96l318.025,-254.508l1081.42,-0c70.29,-0 127.222,-56.964 127.222,-127.223l0,-1272.23c0,-70.258 -56.932,-127.222 -127.222,-127.222Z" style="fill:#fff;fill-rule:nonzero;"/><path d="M1550.53,429.058l0,-278.045c0,-70.258 -56.932,-127.222 -127.222,-127.222l-1272.23,-0c-70.259,-0 -127.223,56.964 -127.223,127.222l0,1653.96l318.025,-254.508l87.211,-0c104.545,-568.717 552.687,-1016.86 1121.43,-1121.4Z" style="fill:#fff;fill-rule:nonzero;"/><path d="M151.077,47.708c-56.996,0 -103.369,46.341 -103.369,103.369l0,1604.25l279.254,-223.435c4.262,-3.435 9.51,-5.216 14.917,-5.216l1081.42,-0c56.996,-0 103.368,-46.404 103.368,-103.368l-0,-1272.23c-0,-57.028 -46.372,-103.369 -103.368,-103.369l-1272.23,0Zm-127.223,1781.12c-3.498,-0 -7.061,-0.827 -10.337,-2.354c-8.269,-3.976 -13.517,-12.372 -13.517,-21.501l0,-1653.89c0,-83.299 67.778,-151.077 151.077,-151.077l1272.23,0c83.299,0 151.076,67.778 151.076,151.077l0,1272.23c0,83.299 -67.777,151.076 -151.076,151.076l-1073.06,0l-311.473,249.23c-4.325,3.403 -9.605,5.216 -14.917,5.216Z" style="fill-rule:nonzero;"/><path d="M1964.06,1678.42l-127.222,-0c-13.2,-0 -23.855,-10.687 -23.855,-23.855c0,-13.167 10.655,-23.854 23.855,-23.854l127.222,0c13.168,0 23.854,10.687 23.854,23.854c0,13.168 -10.686,23.855 -23.854,23.855Z" style="fill-rule:nonzero;"/><path d="M1900.45,1742.03c-13.199,-0 -23.854,-10.687 -23.854,-23.854l-0,-127.223c-0,-13.167 10.655,-23.854 23.854,-23.854c13.167,0 23.854,10.687 23.854,23.854l0,127.223c0,13.167 -10.687,23.854 -23.854,23.854Z" style="fill-rule:nonzero;"/><path d="M1924.31,1463.73c0,13.167 -10.687,23.854 -23.854,23.854c-13.199,-0 -23.854,-10.687 -23.854,-23.854c-0,-13.168 10.655,-23.855 23.854,-23.855c13.167,0 23.854,10.687 23.854,23.855Z" style="fill-rule:nonzero;"/><path d="M1924.31,1336.51c0,13.168 -10.687,23.854 -23.854,23.854c-13.199,0 -23.854,-10.686 -23.854,-23.854c-0,-13.167 10.655,-23.854 23.854,-23.854c13.167,-0 23.854,10.687 23.854,23.854Z" style="fill-rule:nonzero;"/><path d="M1924.31,1177.48c0,13.167 -10.687,23.854 -23.854,23.854c-13.199,0 -23.854,-10.687 -23.854,-23.854c-0,-13.168 10.655,-23.854 23.854,-23.854c13.167,-0 23.854,10.686 23.854,23.854Z" style="fill-rule:nonzero;"/><path d="M1924.31,954.774c0,13.167 -10.687,23.854 -23.854,23.854c-13.199,0 -23.854,-10.687 -23.854,-23.854c-0,-13.168 10.655,-23.854 23.854,-23.854c13.167,-0 23.854,10.686 23.854,23.854Z" style="fill-rule:nonzero;"/><path d="M1773.2,636.717l-127.223,0c-13.167,0 -23.854,-10.687 -23.854,-23.854c-0,-13.167 10.687,-23.854 23.854,-23.854l127.223,-0c13.167,-0 23.854,10.687 23.854,23.854c-0,13.167 -10.687,23.854 -23.854,23.854Z" style="fill-rule:nonzero;"/><path d="M1709.59,700.329c-13.167,-0 -23.854,-10.687 -23.854,-23.855l0,-127.222c0,-13.168 10.687,-23.854 23.854,-23.854c13.168,-0 23.855,10.686 23.855,23.854l-0,127.222c-0,13.168 -10.687,23.855 -23.855,23.855Z" style="fill-rule:nonzero;"/><path d="M1685.73,803.697c0,-13.168 10.687,-23.854 23.854,-23.854c13.168,-0 23.855,10.686 23.855,23.854c-0,13.167 -10.687,23.854 -23.855,23.854c-13.167,0 -23.854,-10.687 -23.854,-23.854Z" style="fill-rule:nonzero;"/><path d="M1685.73,899.114c0,-13.168 10.687,-23.854 23.854,-23.854c13.168,-0 23.855,10.686 23.855,23.854c-0,13.167 -10.687,23.854 -23.855,23.854c-13.167,0 -23.854,-10.687 -23.854,-23.854Z" style="fill-rule:nonzero;"/><path d="M1685.73,1058.14c0,-13.167 10.687,-23.854 23.854,-23.854c13.168,-0 23.855,10.687 23.855,23.854c-0,13.168 -10.687,23.854 -23.855,23.854c-13.167,0 -23.854,-10.686 -23.854,-23.854Z" style="fill-rule:nonzero;"/><path d="M1685.73,1249.04c0,-13.232 10.687,-23.855 23.854,-23.855c13.168,0 23.855,10.623 23.855,23.855c-0,13.167 -10.687,23.854 -23.855,23.854c-13.167,-0 -23.854,-10.687 -23.854,-23.854Z" style="fill-rule:nonzero;"/><path d="M1426.36,1701.6l-343.024,0c-13.167,0 -23.854,-10.687 -23.854,-23.854c-0,-13.168 10.687,-23.854 23.854,-23.854l343.024,-0c13.167,-0 23.854,10.686 23.854,23.854c0,13.167 -10.687,23.854 -23.854,23.854Z" style="fill-rule:nonzero;"/><path d="M1624.03,1701.6l-70.449,0c-13.168,0 -23.854,-10.687 -23.854,-23.854c-0,-13.168 10.686,-23.854 23.854,-23.854l70.449,-0c13.168,-0 23.854,10.686 23.854,23.854c0,13.167 -10.686,23.854 -23.854,23.854Z" style="fill-rule:nonzero;"/><path d="M1924.31,111.32l-127.222,-0c-13.2,-0 -23.855,-10.687 -23.855,-23.854c0,-13.168 10.655,-23.855 23.855,-23.855l127.222,0c13.168,0 23.854,10.687 23.854,23.855c0,13.167 -10.686,23.854 -23.854,23.854Z" style="fill-rule:nonzero;"/><path d="M1860.69,174.931c-13.199,0 -23.854,-10.687 -23.854,-23.854l-0,-127.223c-0,-13.167 10.655,-23.854 23.854,-23.854c13.167,0 23.854,10.687 23.854,23.854l0,127.223c0,13.167 -10.687,23.854 -23.854,23.854Z" style="fill-rule:nonzero;"/><path d="M850.897,2019.66l-127.223,0c-13.2,0 -23.854,-10.686 -23.854,-23.854c-0,-13.167 10.654,-23.854 23.854,-23.854l127.223,-0c13.167,-0 23.854,10.687 23.854,23.854c-0,13.168 -10.687,23.854 -23.854,23.854Z" style="fill-rule:nonzero;"/><path d="M787.285,2083.27c-13.199,-0 -23.854,-10.687 -23.854,-23.854l0,-127.223c0,-13.168 10.655,-23.854 23.854,-23.854c13.168,-0 23.855,10.686 23.855,23.854l-0,127.223c-0,13.167 -10.687,23.854 -23.855,23.854Z" style="fill-rule:nonzero;"/><path d="M437.36,1860.63l-127.223,0c-13.168,0 -23.854,-10.686 -23.854,-23.854c-0,-13.167 10.686,-23.854 23.854,-23.854l127.223,-0c13.167,-0 23.854,10.687 23.854,23.854c-0,13.168 -10.687,23.854 -23.854,23.854Z" style="fill-rule:nonzero;"/><path d="M373.748,1924.24c-13.167,-0 -23.854,-10.687 -23.854,-23.855l0,-127.222c0,-13.168 10.687,-23.855 23.854,-23.855c13.168,0 23.855,10.687 23.855,23.855l-0,127.222c-0,13.168 -10.687,23.855 -23.855,23.855Z" style="fill-rule:nonzero;"/><path d="M1296.08,723.515c0,281.098 -227.824,508.89 -508.89,508.89c-281.035,0 -508.891,-227.792 -508.891,-508.89c0,-281.035 227.856,-508.89 508.891,-508.89c281.066,-0 508.89,227.855 508.89,508.89Z" style="fill:#fff;fill-rule:nonzero;"/><path d="M787.19,238.479c-267.454,-0 -485.036,217.614 -485.036,485.036c-0,267.485 217.582,485.036 485.036,485.036c267.453,-0 485.036,-217.551 485.036,-485.036c-0,-267.422 -217.583,-485.036 -485.036,-485.036Zm-0,1017.78c-293.757,0 -532.745,-238.987 -532.745,-532.744c0,-293.757 238.988,-532.745 532.745,-532.745c293.757,0 532.744,238.988 532.744,532.745c0,293.757 -238.987,532.744 -532.744,532.744Z" style="fill-rule:nonzero;"/><path d="M628.257,469.07l0,508.89l381.668,-254.445l-381.668,-254.445Z" style="fill:#fff;fill-rule:nonzero;"/><path d="M652.111,513.661l0,419.739l314.781,-209.885l-314.781,-209.854Zm-23.854,488.153c-3.88,0 -7.761,-0.922 -11.259,-2.799c-7.761,-4.166 -12.595,-12.245 -12.595,-21.055l-0,-508.89c-0,-8.779 4.834,-16.825 12.595,-20.992c7.728,-4.167 17.175,-3.721 24.49,1.177l381.668,254.445c6.615,4.389 10.623,11.863 10.623,19.815c0,8.015 -4.008,15.457 -10.623,19.878l-381.668,254.446c-4.007,2.671 -8.619,3.975 -13.231,3.975Z" style="fill-rule:nonzero;"/><path d="M1391.5,1415.35l-667.919,0c-13.167,0 -23.854,-10.686 -23.854,-23.854c0,-13.168 10.687,-23.854 23.854,-23.854l667.919,-0c13.168,-0 23.854,10.686 23.854,23.854c0,13.168 -10.686,23.854 -23.854,23.854Z" style="fill-rule:nonzero;"/><path d="M596.356,1415.35l-413.474,0c-13.167,0 -23.854,-10.686 -23.854,-23.854c0,-13.168 10.687,-23.854 23.854,-23.854l413.474,-0c13.167,-0 23.854,10.686 23.854,23.854c0,13.168 -10.687,23.854 -23.854,23.854Z" style="fill-rule:nonzero;"/><path d="M596.356,1478.96c-13.168,0 -23.854,-10.686 -23.854,-23.854l-0,-127.222c-0,-13.168 10.686,-23.855 23.854,-23.855c13.167,0 23.854,10.687 23.854,23.855l0,127.222c0,13.168 -10.687,23.854 -23.854,23.854Z" style="fill-rule:nonzero;"/></g></g></svg>