<?xml version="1.0" encoding="UTF-8" standalone="no"?><!DOCTYPE svg PUBLIC "-//W3C//DTD SVG 1.1//EN" "http://www.w3.org/Graphics/SVG/1.1/DTD/svg11.dtd"><svg width="100%" height="100%" viewBox="0 0 2084 2084" version="1.1" xmlns="http://www.w3.org/2000/svg" xmlns:xlink="http://www.w3.org/1999/xlink" xml:space="preserve" xmlns:serif="http://www.serif.com/" style="fill-rule:evenodd;clip-rule:evenodd;stroke-linejoin:round;stroke-miterlimit:2;"><rect id="画板1" x="0" y="0" width="2083.33" height="2083.33" style="fill:none;"/><clipPath id="_clip1"><rect id="画板11" serif:id="画板1" x="0" y="0" width="2083.33" height="2083.33"/></clipPath><g clip-path="url(#_clip1)"><g><path d="M2059.48,1041.67c0,562.15 -455.694,1017.81 -1017.81,1017.81c-562.119,0 -1017.81,-455.661 -1017.81,-1017.81c-0,-562.151 455.693,-1017.81 1017.81,-1017.81c562.117,-0 1017.81,455.661 1017.81,1017.81Z" style="fill:#fff;fill-rule:nonzero;"/><path d="M1041.67,47.71c-548.061,-0 -993.957,445.833 -993.957,993.957c-0,548.028 445.896,993.956 993.957,993.956c548.091,0 993.956,-445.928 993.956,-993.956c0,-548.124 -445.865,-993.957 -993.956,-993.957Zm-0,2035.62c-574.365,0 -1041.67,-467.303 -1041.67,-1041.67c0,-574.396 467.302,-1041.67 1041.67,-1041.67c574.395,0 1041.67,467.271 1041.67,1041.67c0,574.363 -467.271,1041.67 -1041.67,1041.67Z" style="fill-rule:nonzero;"/><path d="M707.855,274.014c-9.287,-0 -18.129,-5.471 -21.946,-14.536c-5.152,-12.182 0.509,-26.145 12.659,-31.234c108.652,-45.992 224.109,-69.211 343.099,-69.211c111.735,0 220.642,20.547 323.664,61.259c12.245,4.771 18.257,18.639 13.422,30.916c-4.835,12.246 -18.639,18.321 -30.948,13.423c-97.424,-38.454 -200.414,-57.888 -306.138,-57.888c-112.596,0 -221.757,21.978 -324.523,65.394c-3.054,1.304 -6.171,1.877 -9.289,1.877Z" style="fill-rule:nonzero;"/><path d="M533.078,373.473c-7.315,-0 -14.567,-3.34 -19.211,-9.701c-7.825,-10.623 -5.566,-25.509 5.026,-33.333c24.172,-17.78 49.427,-34.479 75.127,-49.651c11.418,-6.711 25.986,-2.862 32.665,8.461c6.68,11.355 2.894,26.018 -8.428,32.665c-24.333,14.282 -48.219,30.058 -71.057,46.915c-4.262,3.149 -9.224,4.644 -14.122,4.644Z" style="fill-rule:nonzero;"/><path d="M2059.48,1041.67c0,351.304 -455.694,636.132 -1017.81,636.132c-562.119,-0 -1017.81,-284.828 -1017.81,-636.132c-0,-351.305 455.693,-636.133 1017.81,-636.133c562.117,0 1017.81,284.828 1017.81,636.133Z" style="fill:#fff;fill-rule:nonzero;"/><path d="M1041.95,1550.25c-281.043,0 -508.906,-227.64 -508.906,-508.587c0,-280.916 227.863,-508.588 508.906,-508.588c281.075,-0 508.906,227.672 508.906,508.588c-0,280.947 -227.831,508.587 -508.906,508.587Z" style="fill:#fff;fill-rule:nonzero;"/><path d="M1041.67,429.389c-548.061,0 -993.957,274.65 -993.957,612.278c-0,337.563 445.896,612.277 993.957,612.277c548.091,0 993.956,-274.714 993.956,-612.277c0,-337.628 -445.865,-612.278 -993.956,-612.278Zm-0,1272.27c-574.365,-0 -1041.67,-296.088 -1041.67,-659.987c0,-363.932 467.302,-659.988 1041.67,-659.988c574.395,0 1041.67,296.056 1041.67,659.988c0,363.899 -467.271,659.987 -1041.67,659.987Z" style="fill-rule:nonzero;"/><path d="M1041.95,1065.52c-3.244,-0 -6.52,-0.7 -9.637,-2.068c-8.619,-3.785 -14.218,-12.341 -14.218,-21.787l0,-508.652c0,-13.168 10.687,-23.855 23.855,-23.855c13.168,0 23.855,10.687 23.855,23.855l0,454.548l335.656,-306.711c9.7,-8.874 24.809,-8.206 33.682,1.559c8.906,9.701 8.207,24.777 -1.494,33.683l-375.604,343.162c-4.485,4.071 -10.242,6.266 -16.095,6.266Z" style="fill-rule:nonzero;"/><path d="M761.736,1490.05c-4.517,-0 -9.096,-1.273 -13.136,-3.976c-10.973,-7.253 -14.027,-22.043 -6.743,-33.047l280.185,-424.523c6.584,-10.019 19.561,-13.487 30.343,-8.334l457.697,222.646c11.833,5.789 16.763,20.07 11.037,31.934c-5.757,11.8 -20.039,16.699 -31.902,11.006l-438.868,-213.518l-268.67,407.093c-4.612,6.965 -12.182,10.719 -19.943,10.719Z" style="fill-rule:nonzero;"/><path d="M1041.95,556.87c-267.462,0 -485.051,217.494 -485.051,484.797c0,267.302 217.589,484.732 485.051,484.732c267.463,0 485.051,-217.43 485.051,-484.732c-0,-267.303 -217.588,-484.797 -485.051,-484.797Zm0,1017.24c-293.766,0 -532.761,-238.867 -532.761,-532.442c0,-293.671 238.995,-532.507 532.761,-532.507c293.767,0 532.761,238.836 532.761,532.507c-0,293.575 -238.994,532.442 -532.761,532.442Z" style="fill-rule:nonzero;"/><path d="M1201.02,978.053c19.434,0 38.168,2.736 56.17,7.443c-24.904,-95.738 -111.704,-166.476 -215.235,-166.476c-122.964,0 -222.646,99.714 -222.646,222.647c-0,103.498 70.77,190.267 166.476,215.171c-4.676,-17.939 -7.411,-36.705 -7.411,-56.138c-0,-122.933 99.682,-222.647 222.646,-222.647Z" style="fill:#fff;fill-rule:nonzero;"/><path d="M1041.95,842.875c-109.605,0 -198.791,89.154 -198.791,198.792c-0,109.573 89.186,198.791 198.791,198.791c109.606,0 198.791,-89.218 198.791,-198.791c0,-109.638 -89.185,-198.792 -198.791,-198.792Zm0,445.293c-135.909,-0 -246.501,-110.592 -246.501,-246.501c-0,-135.942 110.592,-246.502 246.501,-246.502c135.942,0 246.501,110.56 246.501,246.502c0,135.909 -110.559,246.501 -246.501,246.501Z" style="fill-rule:nonzero;"/><path d="M246.532,182.888c0,35.146 -28.466,63.613 -63.613,63.613c-35.146,0 -63.613,-28.467 -63.613,-63.613c-0,-35.115 28.467,-63.613 63.613,-63.613c35.147,-0 63.613,28.498 63.613,63.613Z" style="fill:#fff;fill-rule:nonzero;"/><path d="M182.919,143.13c-21.915,-0 -39.758,17.811 -39.758,39.758c-0,21.915 17.843,39.758 39.758,39.758c21.947,0 39.758,-17.843 39.758,-39.758c0,-21.947 -17.811,-39.758 -39.758,-39.758Zm0,127.226c-48.218,0 -87.499,-39.281 -87.499,-87.468c-0,-48.283 39.281,-87.468 87.499,-87.468c48.251,-0 87.468,39.185 87.468,87.468c0,48.187 -39.217,87.468 -87.468,87.468Z" style="fill-rule:nonzero;"/><path d="M1868.61,87.468c-0,35.146 -28.436,63.613 -63.614,63.613c-35.114,0 -63.613,-28.467 -63.613,-63.613c0,-35.178 28.499,-63.613 63.613,-63.613c35.178,-0 63.614,28.435 63.614,63.613Z" style="fill:#fff;fill-rule:nonzero;"/><path d="M1805.03,47.71c-21.915,-0 -39.758,17.812 -39.758,39.758c0,21.915 17.843,39.758 39.758,39.758c21.946,0 39.759,-17.843 39.759,-39.758c-0,-21.946 -17.813,-39.758 -39.759,-39.758Zm0,127.226c-48.219,0 -87.468,-39.281 -87.468,-87.468c0,-48.282 39.249,-87.468 87.468,-87.468c48.251,0 87.469,39.186 87.469,87.468c-0,48.187 -39.218,87.468 -87.469,87.468Z" style="fill-rule:nonzero;"/><path d="M2059.48,310.115c0,35.146 -28.467,63.613 -63.613,63.613c-35.114,-0 -63.613,-28.467 -63.613,-63.613c-0,-35.115 28.499,-63.614 63.613,-63.614c35.146,0 63.613,28.499 63.613,63.614Z" style="fill:#fff;fill-rule:nonzero;"/><path d="M1995.87,270.356c-21.915,0 -39.758,17.812 -39.758,39.759c-0,21.914 17.843,39.758 39.758,39.758c21.946,-0 39.758,-17.844 39.758,-39.758c0,-21.947 -17.812,-39.759 -39.758,-39.759Zm0,127.227c-48.219,-0 -87.468,-39.218 -87.468,-87.468c-0,-48.22 39.249,-87.469 87.468,-87.469c48.251,0 87.468,39.249 87.468,87.469c0,48.25 -39.217,87.468 -87.468,87.468Z" style="fill-rule:nonzero;"/><path d="M151.081,1805.03c0,35.083 -28.467,63.614 -63.613,63.614c-35.114,-0 -63.613,-28.531 -63.613,-63.614c-0,-35.178 28.499,-63.613 63.613,-63.613c35.146,0 63.613,28.435 63.613,63.613Z" style="fill:#fff;fill-rule:nonzero;"/><path d="M87.468,1765.2c-21.883,0 -39.758,17.812 -39.758,39.758c-0,21.915 17.875,39.759 39.758,39.759c21.978,-0 39.79,-17.844 39.79,-39.759c-0,-21.946 -17.812,-39.758 -39.79,-39.758Zm0,127.227c-48.187,-0 -87.468,-39.218 -87.468,-87.469c0,-48.218 39.281,-87.468 87.468,-87.468c48.282,0 87.499,39.25 87.499,87.468c0,48.251 -39.217,87.469 -87.499,87.469Z" style="fill-rule:nonzero;"/><path d="M405.565,1995.87c0,35.146 -28.466,63.613 -63.613,63.613c-35.114,0 -63.613,-28.467 -63.613,-63.613c-0,-35.178 28.499,-63.613 63.613,-63.613c35.147,-0 63.613,28.435 63.613,63.613Z" style="fill:#fff;fill-rule:nonzero;"/><path d="M341.952,1956.11c-21.914,-0 -39.758,17.811 -39.758,39.758c-0,21.915 17.844,39.758 39.758,39.758c21.947,0 39.758,-17.843 39.758,-39.758c0,-21.947 -17.811,-39.758 -39.758,-39.758Zm0,127.226c-48.218,0 -87.468,-39.281 -87.468,-87.468c-0,-48.282 39.25,-87.468 87.468,-87.468c48.251,-0 87.468,39.186 87.468,87.468c0,48.187 -39.217,87.468 -87.468,87.468Z" style="fill-rule:nonzero;"/><path d="M2027.67,1836.83c-0,35.083 -28.468,63.613 -63.613,63.613c-35.115,0 -63.614,-28.53 -63.614,-63.613c0,-35.178 28.499,-63.613 63.614,-63.613c35.145,-0 63.613,28.435 63.613,63.613Z" style="fill:#fff;fill-rule:nonzero;"/><path d="M1964.06,1797.07c-21.916,-0 -39.759,17.811 -39.759,39.758c0,21.915 17.843,39.758 39.759,39.758c21.945,0 39.758,-17.843 39.758,-39.758c-0,-21.947 -17.813,-39.758 -39.758,-39.758Zm-0,127.226c-48.22,0 -87.469,-39.281 -87.469,-87.468c0,-48.283 39.249,-87.468 87.469,-87.468c48.25,-0 87.468,39.185 87.468,87.468c-0,48.187 -39.218,87.468 -87.468,87.468Z" style="fill-rule:nonzero;"/></g></g></svg>