<?xml version="1.0" encoding="UTF-8" standalone="no"?><!DOCTYPE svg PUBLIC "-//W3C//DTD SVG 1.1//EN" "http://www.w3.org/Graphics/SVG/1.1/DTD/svg11.dtd"><svg width="100%" height="100%" viewBox="0 0 2084 2084" version="1.1" xmlns="http://www.w3.org/2000/svg" xmlns:xlink="http://www.w3.org/1999/xlink" xml:space="preserve" xmlns:serif="http://www.serif.com/" style="fill-rule:evenodd;clip-rule:evenodd;stroke-linejoin:round;stroke-miterlimit:2;"><rect id="画板1" x="0" y="0" width="2083.33" height="2083.33" style="fill:none;"/><clipPath id="_clip1"><rect id="画板11" serif:id="画板1" x="0" y="0" width="2083.33" height="2083.33"/></clipPath><g clip-path="url(#_clip1)"><g><path d="M2017.12,1070.13l-12.277,123.976c-1.581,15.998 -9.393,30.599 -22.042,40.83c-12.557,10.231 -28.46,14.974 -44.271,13.486l-3.163,-0.279l20.089,-201.451l4.185,-43.155l3.164,0.279c15.997,1.581 30.505,9.301 40.829,21.95c10.231,12.556 15.159,28.366 13.486,44.364Zm-169.643,285.621c-9.765,8.091 -21.857,11.719 -34.506,10.51l-61.756,-6.046c-12.463,-1.302 -23.809,-7.348 -31.807,-17.206c-8.092,-9.766 -11.812,-22.042 -10.51,-34.598l40.551,-408.761c1.209,-12.277 7.254,-23.624 17.113,-31.622c9.765,-7.999 22.135,-11.719 34.504,-10.603l61.756,6.139c25.95,2.604 44.922,25.762 42.318,51.618l-5.022,50.688l-0,0.093l-12.09,121.93l-23.437,236.05c-1.21,12.463 -7.349,23.809 -17.114,31.808Zm-1183.41,58.686l0,-861.328c0,-57.477 46.783,-104.353 104.352,-104.353l546.504,0c57.477,0 104.352,46.876 104.352,104.353l0,861.328c0,57.478 -46.875,104.353 -104.352,104.353l-546.504,0c-57.569,0 -104.352,-46.875 -104.352,-104.353Zm-377.14,-557.291c10.79,0 21.299,3.813 29.855,10.882c9.767,7.998 15.905,19.345 17.114,31.622l40.551,408.761c1.209,12.556 -2.512,24.832 -10.51,34.598c-8.091,9.858 -19.345,15.904 -31.808,17.206l-61.756,6.046c-12.463,1.395 -24.74,-2.419 -34.598,-10.51c-9.766,-7.999 -15.904,-19.345 -17.113,-31.808l-5.023,-50.688l-30.506,-307.292l0,-0.093l-5.022,-50.688c-1.209,-12.37 2.512,-24.647 10.51,-34.506c7.998,-9.765 19.345,-15.903 31.808,-17.112l61.849,-6.139l4.649,-0.279Zm-142.113,391.276c-15.903,1.767 -31.807,-3.255 -44.362,-13.486c-12.557,-10.231 -20.37,-24.832 -21.951,-40.83l-12.369,-123.976c-1.581,-15.998 3.256,-31.808 13.579,-44.364c10.324,-12.649 24.74,-20.369 40.83,-21.95l3.068,-0.279l24.275,244.606l-3.07,0.279Zm1824.22,-307.292l-3.163,-0.279l1.954,-19.345c2.882,-29.297 -5.767,-57.849 -24.46,-80.636c-18.695,-22.787 -45.108,-37.11 -74.313,-39.9l-2.325,-0.279c-13.3,-443.731 -378.161,-800.688 -825.056,-800.688c-446.893,0 -811.849,356.957 -825.148,800.688l-2.326,0.279c-29.203,2.79 -55.525,17.113 -74.218,39.9c-18.694,22.787 -27.344,51.339 -24.554,80.636l1.953,19.345l-3.068,0.279c-67.802,6.79 -117.561,67.337 -110.771,135.231l12.277,123.977c3.255,32.645 19.158,62.314 44.736,83.24c22.414,18.415 49.758,28.088 78.125,28.088l12.277,-0.558l3.162,-0.372l1.952,19.438c2.884,29.111 17.02,55.525 39.9,74.219c19.81,16.369 44.271,25.112 69.568,25.112l10.975,-0.559l61.85,-6.138c29.203,-2.883 55.524,-17.02 74.219,-39.899c18.693,-22.787 27.436,-51.433 24.46,-80.637l-40.551,-408.761c-2.79,-29.111 -17.02,-55.617 -39.807,-74.219c-21.857,-17.856 -49.014,-26.413 -77.102,-24.367c16.369,-406.436 351.842,-731.957 762.091,-731.957c410.157,0 745.722,325.521 761.999,731.957c-28.088,-1.953 -55.153,6.511 -77.009,24.367c-22.88,18.602 -37.018,45.108 -39.9,74.219l-40.551,408.761c-2.884,29.204 5.86,57.85 24.46,80.637c17.206,20.833 40.923,34.133 67.337,38.504l-0,434.338c-0,33.482 -27.343,60.826 -60.825,60.826c-33.576,-0 -60.827,-27.344 -60.827,-60.826l0,-114.119c0,-68.08 -55.525,-123.697 -123.698,-123.697c-68.174,-0 -123.79,55.617 -123.79,123.697l-0,217.913c-0,33.482 -27.251,60.826 -60.641,60.826c-33.574,0 -60.919,-27.344 -60.919,-60.826l0,-377.882l67.616,-0c92.262,-0 167.317,-74.964 167.317,-167.226l0,-861.328c0,-92.168 -75.055,-167.317 -167.317,-167.317l-546.504,-0c-92.26,-0 -167.317,75.149 -167.317,167.317l0,861.328c0,92.262 75.057,167.226 167.317,167.226l415.923,-0l0,377.882c0,68.174 55.618,123.791 123.884,123.791c68.081,0 123.698,-55.617 123.698,-123.791l0,-217.913c0,-33.388 27.251,-60.733 60.733,-60.733c33.482,0 60.826,27.345 60.826,60.733l0,114.119c0,68.266 55.431,123.791 123.699,123.791c68.265,-0 123.696,-55.525 123.696,-123.791l0,-427.455l5.86,0.65l11.068,0.559c25.298,-0 49.665,-8.743 69.569,-25.112c22.786,-18.694 37.015,-45.108 39.899,-74.219l1.953,-19.438l3.07,0.372l12.277,0.558c28.459,-0 55.802,-9.673 78.217,-28.088c25.577,-20.926 41.388,-50.595 44.643,-83.24l12.37,-123.977c6.695,-67.894 -42.969,-128.441 -110.77,-135.231Z" style="fill:#0b0b16;fill-rule:nonzero;"/><path d="M831.667,618.118l413.039,-0l0,295.014l-413.039,0l0,-295.014Zm-31.436,357.98l475.911,-0c17.393,-0 31.529,-14.137 31.529,-31.437l0,-358.073c0,-17.298 -14.136,-31.528 -31.529,-31.528l-475.911,-0c-17.393,-0 -31.529,14.23 -31.529,31.528l-0,358.073c-0,17.3 14.136,31.437 31.529,31.437Z" style="fill:#0b0b16;fill-rule:nonzero;"/><path d="M831.667,1312.13l0,-129.464l90.494,64.732l-90.494,64.732Zm162.947,-90.309l-176.153,-125.837c-9.488,-6.79 -22.137,-7.813 -32.645,-2.511c-10.511,5.487 -17.114,16.276 -17.114,27.995l-0,251.767c-0,11.904 6.603,22.601 17.114,27.995l14.415,3.534l18.23,-5.86l176.153,-125.929c8.277,-5.767 13.113,-15.439 13.113,-25.577c-0,-10.231 -4.836,-19.624 -13.113,-25.577Z" style="fill:#0b0b16;fill-rule:nonzero;"/><path d="M1276.14,1090.03c-17.392,-0 -31.436,14.137 -31.436,31.436l0,251.767c0,17.485 14.044,31.529 31.436,31.529c17.393,0 31.529,-14.044 31.529,-31.529l0,-251.767c0,-17.299 -14.136,-31.436 -31.529,-31.436Z" style="fill:#0b0b16;fill-rule:nonzero;"/><path d="M1150.31,1090.03c-17.392,-0 -31.529,14.137 -31.529,31.436l-0,251.767c-0,17.485 14.137,31.529 31.529,31.529c17.392,0 31.436,-14.044 31.436,-31.529l-0,-251.767c-0,-17.299 -14.044,-31.436 -31.436,-31.436Z" style="fill:#0b0b16;fill-rule:nonzero;"/></g></g></svg>