<?xml version="1.0" encoding="UTF-8" standalone="no"?><!DOCTYPE svg PUBLIC "-//W3C//DTD SVG 1.1//EN" "http://www.w3.org/Graphics/SVG/1.1/DTD/svg11.dtd"><svg width="100%" height="100%" viewBox="0 0 2084 2084" version="1.1" xmlns="http://www.w3.org/2000/svg" xmlns:xlink="http://www.w3.org/1999/xlink" xml:space="preserve" xmlns:serif="http://www.serif.com/" style="fill-rule:evenodd;clip-rule:evenodd;stroke-linejoin:round;stroke-miterlimit:2;"><rect id="画板1" x="0" y="0" width="2083.33" height="2083.33" style="fill:none;"/><g id="画板11" serif:id="画板1"><g><path d="M864.808,1893.97c-0,69.568 -56.548,126.302 -126.21,126.302l-441.964,0c-69.568,0 -126.209,-56.734 -126.209,-126.302l0,-204.985c83.799,-234.561 100.354,-455.544 52.269,-694.662c40.086,17.392 84.543,26.321 129,26.321c66.592,0 132.998,-19.346 184.895,-58.222c77.846,-58.407 202.196,-60.082 283.669,-6.232l-7.627,38.133c-48.177,239.118 -31.529,460.101 52.177,694.662l-0,204.985Zm-652.344,-1194.01l181.268,-213.17c29.018,-34.133 44.922,-77.66 44.922,-122.582l0,-68.267l157.831,0l0,68.267c0,44.922 16.09,88.449 45.201,122.582l181.083,213.17c25.205,29.761 35.249,68.637 27.622,106.77l-16.834,83.333c-102.585,-54.779 -242.187,-47.712 -334.914,21.764c-80.543,60.454 -211.309,60.64 -292.411,0.93l-21.391,-106.027c-7.626,-38.133 2.418,-77.009 27.623,-106.77Zm163.132,-636.812l284.04,0l0,169.642l-284.04,0l0,-169.642Zm498.884,943.638l37.761,-187.593c11.532,-57.291 -3.535,-115.514 -41.388,-160.062l-181.083,-213.171c-19.438,-22.786 -30.134,-51.805 -30.134,-81.752l0,-68.267l31.622,0c17.393,0 31.53,-14.136 31.53,-31.528l-0,-232.794c-0,-17.578 -14.137,-31.622 -31.53,-31.622l-347.284,0c-17.392,0 -31.529,14.044 -31.529,31.622l0,232.794c0,17.392 14.137,31.528 31.529,31.528l31.622,0l0,68.267c0,29.947 -10.696,58.966 -30.041,81.752l-181.175,213.171c-37.854,44.548 -52.921,102.771 -41.388,160.062l37.76,187.593c46.131,229.073 29.669,440.755 -51.618,665.923l-1.86,10.881l0,210.38c0,104.446 84.914,189.36 189.36,189.36l441.964,0c104.446,0 189.36,-84.914 189.36,-189.36l0,-210.38l-1.859,-10.881c-81.288,-225.168 -97.75,-436.85 -51.619,-665.923Z" style="fill:#0b0b16;fill-rule:nonzero;"/><path d="M1790.03,1799.29l-456.567,0l-73.474,-648.252c41.852,19.438 88.82,29.297 135.789,29.297c66.592,-0 133.091,-19.345 184.895,-58.129c78.683,-59.058 205.079,-60.267 286.552,-4.463l-77.195,681.547Zm119.047,-1051.62l-34.04,300.781c-102.307,-53.385 -240.327,-45.666 -332.31,23.251c-80.264,60.082 -210.379,60.547 -291.574,1.303l-36.83,-325.335l694.754,-0Zm58.873,-52.549c-5.952,-6.697 -14.509,-10.602 -23.531,-10.602l-765.438,-0c-9.022,-0 -17.578,3.905 -23.531,10.602c-6.045,6.697 -8.835,15.719 -7.812,24.553l126.209,1114.77c1.86,15.904 15.346,27.902 31.436,27.902l512.835,-0c16.183,-0 29.668,-11.998 31.435,-27.902l126.303,-1114.77c1.022,-8.834 -1.861,-17.856 -7.906,-24.553Z" style="fill:#0b0b16;fill-rule:nonzero;"/></g></g></svg>