<?xml version="1.0" encoding="UTF-8" standalone="no"?><!DOCTYPE svg PUBLIC "-//W3C//DTD SVG 1.1//EN" "http://www.w3.org/Graphics/SVG/1.1/DTD/svg11.dtd"><svg width="100%" height="100%" viewBox="0 0 2084 2084" version="1.1" xmlns="http://www.w3.org/2000/svg" xmlns:xlink="http://www.w3.org/1999/xlink" xml:space="preserve" xmlns:serif="http://www.serif.com/" style="fill-rule:evenodd;clip-rule:evenodd;stroke-linejoin:round;stroke-miterlimit:2;"><rect id="画板1" x="0" y="0" width="2083.33" height="2083.33" style="fill:none;"/><clipPath id="_clip1"><rect id="画板11" serif:id="画板1" x="0" y="0" width="2083.33" height="2083.33"/></clipPath><g clip-path="url(#_clip1)"><g><path d="M2012.42,1091.73c-134.21,425.703 -524.476,711.609 -971.104,711.609c-446.534,0 -836.89,-285.906 -971.102,-711.512l-3.256,-11.167l99.612,-80.82l2.418,8.742c3.442,13.488 7.163,26.602 11.162,39.806l4.464,14.51c5.488,16.837 11.162,33.391 17.579,49.763c135.978,348.407 465.323,573.305 839.123,573.305c373.803,-0 703.145,-224.898 839.218,-573.305c6.324,-16.372 12.092,-32.926 17.578,-49.763l4.465,-14.51c3.999,-13.204 7.721,-26.318 11.161,-39.806l2.418,-8.742l99.52,80.82l-3.256,11.07Zm-971.104,-802.665l640.831,520.568l0,0.097l179.134,145.558l-1.209,5.484c-4.186,20.09 -9.208,39.999 -14.882,59.624l-2.696,8.645c-6.233,20.465 -13.023,40.743 -20.834,60.736c-126.493,323.856 -432.77,533.125 -780.344,533.125c-347.479,0 -653.85,-209.269 -780.342,-533.125c-7.813,-19.993 -14.602,-40.271 -20.74,-60.736l-2.698,-8.645c-5.766,-19.625 -10.695,-39.534 -14.881,-59.624l-1.302,-5.484l819.963,-666.223Zm1030.35,755.792l-155.604,-126.496l-0.093,-0.091l-854.747,-694.403c-11.626,-9.486 -28.182,-9.486 -39.809,0l-854.749,694.403l-0,0.091l-155.604,126.496c-9.766,7.902 -13.207,23.621 -9.766,35.622c2.791,10.139 5.674,20.181 8.743,30.229c142.582,452.111 557.028,755.877 1031.28,755.877c474.345,-0 888.791,-303.766 1031.38,-755.877c3.068,-10.048 5.952,-20.09 9.486,-32.835c3.349,-12.182 -0.744,-25.114 -10.511,-33.016Z" style="fill:#0b0b16;fill-rule:nonzero;"/><path d="M1041.32,511.446c25.021,0 45.389,20.368 45.389,45.392c0,13.579 -20.927,47.435 -45.389,78.964c-24.367,-31.438 -45.479,-65.385 -45.479,-78.964c-0,-25.024 20.462,-45.392 45.479,-45.392Zm0,205.177c9.024,-0 17.488,-3.81 23.533,-10.417c19.997,-22.225 85.008,-98.68 85.008,-149.368c-0,-59.805 -48.642,-108.541 -108.541,-108.541c-59.896,0 -108.54,48.736 -108.54,108.541c-0,50.688 65.107,127.143 85.104,149.368c5.858,6.607 14.416,10.417 23.436,10.417Z" style="fill:#0b0b16;fill-rule:nonzero;"/><path d="M1041.32,921.895c25.021,0 45.389,20.369 45.389,45.483c0,13.579 -20.927,47.339 -45.389,78.964c-24.367,-31.529 -45.479,-65.385 -45.479,-78.964c-0,-25.114 20.462,-45.483 45.479,-45.483Zm0,205.268c9.024,-0 17.488,-3.809 23.533,-10.417c19.997,-22.225 85.008,-98.68 85.008,-149.368c-0,-59.902 -48.642,-108.45 -108.541,-108.45c-59.896,0 -108.54,48.548 -108.54,108.45c-0,50.688 65.107,127.143 85.104,149.368c5.858,6.608 14.416,10.417 23.436,10.417Z" style="fill:#0b0b16;fill-rule:nonzero;"/><path d="M1321.28,732.438c25.018,0 45.389,20.368 45.389,45.483c0,13.578 -21.021,47.338 -45.389,78.964c-24.367,-31.535 -45.389,-65.386 -45.389,-78.964c0,-25.115 20.369,-45.483 45.389,-45.483Zm0,205.267c8.93,0 17.578,-3.809 23.531,-10.417c19.905,-22.23 85.01,-98.776 85.01,-149.367c-0,-59.902 -48.736,-108.45 -108.541,-108.45c-59.805,0 -108.54,48.548 -108.54,108.45c-0,50.591 65.104,127.137 85.101,149.367c5.955,6.608 14.416,10.417 23.439,10.417Z" style="fill:#0b0b16;fill-rule:nonzero;"/><path d="M1321.28,1174.6c25.018,0 45.389,20.368 45.389,45.392c0,13.579 -21.021,47.435 -45.389,78.867c-24.367,-31.432 -45.389,-65.198 -45.389,-78.867c0,-25.024 20.369,-45.392 45.389,-45.392Zm0,205.273c8.93,0 17.578,-3.815 23.531,-10.513c19.905,-22.134 85.01,-98.68 85.01,-149.368c-0,-59.805 -48.736,-108.637 -108.541,-108.637c-59.805,-0 -108.54,48.832 -108.54,108.637c-0,50.688 65.104,127.234 85.101,149.368c5.955,6.698 14.416,10.513 23.439,10.513Z" style="fill:#0b0b16;fill-rule:nonzero;"/><path d="M1605.51,985.141c25.02,-0 45.388,20.368 45.388,45.386c0,13.584 -21.021,47.435 -45.388,78.873c-24.368,-31.438 -45.389,-65.289 -45.389,-78.873c-0,-25.018 20.368,-45.386 45.389,-45.386Zm-0,205.176c9.02,0 17.484,-3.815 23.53,-10.417c19.906,-22.134 85.01,-98.68 85.01,-149.373c-0,-59.896 -48.642,-108.632 -108.54,-108.632c-59.899,0 -108.634,48.736 -108.634,108.632c-0,50.693 65.198,127.239 85.103,149.373c5.952,6.602 14.601,10.417 23.531,10.417Z" style="fill:#0b0b16;fill-rule:nonzero;"/><path d="M1041.32,1332.44c25.021,-0 45.389,20.368 45.389,45.482c0,13.579 -20.927,47.339 -45.389,78.868c-24.367,-31.342 -45.479,-65.289 -45.479,-78.868c-0,-25.114 20.462,-45.482 45.479,-45.482Zm0,205.267c9.024,0 17.488,-3.809 23.533,-10.508c19.997,-22.134 85.008,-98.589 85.008,-149.277c-0,-59.992 -48.642,-108.54 -108.541,-108.54c-59.896,-0 -108.54,48.548 -108.54,108.54c-0,50.688 65.107,127.143 85.104,149.277c5.858,6.699 14.416,10.508 23.436,10.508Z" style="fill:#0b0b16;fill-rule:nonzero;"/><path d="M761.367,732.438c25.112,0 45.48,20.368 45.48,45.483c-0,13.578 -21.018,47.338 -45.48,78.964c-24.461,-31.535 -45.295,-65.386 -45.295,-78.964c0,-25.115 20.368,-45.483 45.295,-45.483Zm0,205.267c9.021,0 17.578,-3.809 23.531,-10.417c19.902,-22.23 85.01,-98.776 85.01,-149.367c-0,-59.902 -48.645,-108.45 -108.541,-108.45c-59.805,0 -108.634,48.548 -108.634,108.45c0,50.591 65.198,127.137 85.195,149.367c5.952,6.608 14.51,10.417 23.439,10.417Z" style="fill:#0b0b16;fill-rule:nonzero;"/><path d="M761.367,1174.6c25.112,0 45.48,20.368 45.48,45.392c-0,13.579 -21.018,47.435 -45.48,78.867c-24.461,-31.432 -45.295,-65.198 -45.295,-78.867c0,-25.024 20.368,-45.392 45.295,-45.392Zm0,205.273c9.021,0 17.578,-3.815 23.531,-10.513c19.902,-22.134 85.01,-98.68 85.01,-149.368c-0,-59.805 -48.645,-108.637 -108.541,-108.637c-59.805,-0 -108.634,48.832 -108.634,108.637c0,50.688 65.198,127.234 85.195,149.368c5.952,6.698 14.51,10.513 23.439,10.513Z" style="fill:#0b0b16;fill-rule:nonzero;"/><path d="M477.131,985.141c25.113,-0 45.481,20.368 45.481,45.386c0,13.584 -21.019,47.435 -45.481,78.873c-24.275,-31.438 -45.295,-65.289 -45.295,-78.873c0,-25.018 20.369,-45.386 45.295,-45.386Zm0,205.176c9.022,0 17.579,-3.815 23.532,-10.417c19.997,-22.134 85.104,-98.68 85.104,-149.373c-0,-59.896 -48.738,-108.632 -108.636,-108.632c-59.805,0 -108.448,48.736 -108.448,108.632c0,50.693 65.106,127.239 85.01,149.373c5.952,6.602 14.51,10.417 23.438,10.417Z" style="fill:#0b0b16;fill-rule:nonzero;"/></g></g></svg>