<?xml version="1.0" encoding="UTF-8" standalone="no"?><!DOCTYPE svg PUBLIC "-//W3C//DTD SVG 1.1//EN" "http://www.w3.org/Graphics/SVG/1.1/DTD/svg11.dtd"><svg width="100%" height="100%" viewBox="0 0 2084 2084" version="1.1" xmlns="http://www.w3.org/2000/svg" xmlns:xlink="http://www.w3.org/1999/xlink" xml:space="preserve" xmlns:serif="http://www.serif.com/" style="fill-rule:evenodd;clip-rule:evenodd;stroke-linejoin:round;stroke-miterlimit:2;"><rect id="画板1" x="0" y="0" width="2083.33" height="2083.33" style="fill:none;"/><clipPath id="_clip1"><rect id="画板11" serif:id="画板1" x="0" y="0" width="2083.33" height="2083.33"/></clipPath><g clip-path="url(#_clip1)"><g><path d="M1690.38,1395.16c-16.648,-4.837 -34.133,4.93 -38.969,21.67c-4.744,16.834 5.022,34.321 21.763,38.97c217.262,61.569 347.005,151.135 347.005,239.676c0,153.181 -393.229,317.245 -978.515,317.245c-585.38,-0 -978.609,-164.064 -978.609,-317.245c-0,-88.541 129.743,-178.107 347.191,-239.769c16.741,-4.556 26.507,-22.136 21.671,-38.97c-4.651,-16.647 -22.229,-26.505 -38.877,-21.671c-253.534,71.801 -393.043,178.388 -393.043,300.41c0,213.169 457.496,380.394 1041.67,380.394c584.077,0 1041.67,-167.225 1041.67,-380.394c0,-121.931 -139.602,-228.609 -392.95,-300.316Z" style="fill:#0b0b16;fill-rule:nonzero;"/><path d="M551.711,1604.79c14.602,-9.579 18.787,-29.11 9.301,-43.804c-9.487,-14.509 -29.111,-18.696 -43.713,-9.207c-67.057,43.713 -81.194,89.007 -81.194,119.51c-0,149.091 311.942,229.725 605.562,229.725c293.527,-0 605.469,-80.634 605.469,-229.725c-0,-30.503 -14.044,-75.891 -81.195,-119.419c-14.602,-9.58 -34.133,-5.393 -43.62,9.116c-9.486,14.694 -5.301,34.225 9.208,43.804c23.996,15.534 52.455,39.62 52.455,66.499c0,69.57 -206.287,166.575 -542.317,166.575c-336.124,0 -542.411,-97.005 -542.411,-166.575c-0,-26.785 28.553,-50.965 52.455,-66.499Z" style="fill:#0b0b16;fill-rule:nonzero;"/><path d="M1041.67,83.496c110.119,111.327 597.47,625.372 597.47,1008.18c-0,292.878 -267.95,531.066 -597.47,531.066c-329.52,0 -597.657,-238.188 -597.657,-531.066c0,-382.812 487.538,-896.857 597.657,-1008.18Zm-0,1602.4c364.304,0 660.714,-266.555 660.714,-594.216c-0,-456.194 -612.816,-1050.32 -638.858,-1075.43c-12.184,-11.72 -31.529,-11.72 -43.713,-0c-26.134,25.11 -638.858,619.232 -638.858,1075.43c0,327.661 296.317,594.216 660.715,594.216Z" style="fill:#0b0b16;fill-rule:nonzero;"/><path d="M633.37,1064.43c9.859,-160.621 139.509,-353.237 237.445,-477.212c-58.78,197.637 -120.629,537.48 31.715,807.941l-3.813,-0.185c-156.994,-9.579 -276.042,-157.924 -265.347,-330.544Zm261.44,393.6l19.066,0.559c15.812,0 31.902,-1.115 48.085,-3.533c10.695,-1.581 19.903,-8.558 24.274,-18.509c4.371,-10.045 3.348,-21.483 -2.697,-30.506c-252.325,-371.187 0.558,-949.868 3.069,-955.636c6.232,-14.044 1.488,-30.412 -11.16,-38.97c-12.649,-8.648 -29.669,-6.789 -40.365,4.187c-14.137,14.6 -347.377,362.257 -364.769,644.902c-12.742,207.404 132.812,385.696 324.497,397.506Z" style="fill:#0b0b16;fill-rule:nonzero;"/></g></g></svg>