<?xml version="1.0" encoding="UTF-8" standalone="no"?><!DOCTYPE svg PUBLIC "-//W3C//DTD SVG 1.1//EN" "http://www.w3.org/Graphics/SVG/1.1/DTD/svg11.dtd"><svg width="100%" height="100%" viewBox="0 0 1000 1000" version="1.1" xmlns="http://www.w3.org/2000/svg" xmlns:xlink="http://www.w3.org/1999/xlink" xml:space="preserve" xmlns:serif="http://www.serif.com/" style="fill-rule:evenodd;clip-rule:evenodd;stroke-linejoin:round;stroke-miterlimit:2;"><rect id="画板1" x="0" y="0" width="1000" height="1000" style="fill:none;"/><clipPath id="_clip1"><rect id="画板11" serif:id="画板1" x="0" y="0" width="1000" height="1000"/></clipPath><g clip-path="url(#_clip1)"><g><path d="M811.969,945.581l-9.777,9.777c-17.991,17.991 -47.276,17.991 -65.222,-0l-6.072,-6.072c14.464,-10 28.304,-21.249 41.027,-33.973c12.723,-12.767 23.973,-26.517 33.972,-41.026l6.072,6.027c17.991,17.991 17.991,47.276 -0,65.267Zm-427.227,-52.053c-100.714,-100.758 -100.714,-264.64 -0,-365.353c6.383,-6.428 13.348,-12.634 21.205,-18.884c6.116,-4.91 7.544,-13.526 3.437,-20.134l-231.069,-371.156l80.848,-80.847l162.899,162.855l-43.124,43.124c-6.027,6.027 -6.027,15.715 -0,21.741l103.704,103.705c6.027,6.026 15.714,6.026 21.786,-0l43.124,-43.08l202.632,202.676c48.794,48.749 75.669,113.659 75.669,182.677c-0,68.972 -26.875,133.882 -75.669,182.676c-48.839,48.794 -113.704,75.713 -182.721,75.713c-69.017,0 -133.883,-26.919 -182.721,-75.713Zm437.762,-46.205c22.277,-41.473 34.107,-88.079 34.107,-136.471c0,-77.232 -30.089,-149.865 -84.686,-204.463l-213.525,-213.569c-6.026,-5.982 -15.759,-5.982 -21.785,0l-43.08,43.17l-82.008,-82.008l43.124,-43.125c6.027,-5.982 6.027,-15.714 0,-21.741l-184.596,-184.596c-6.026,-6.027 -15.759,-6.027 -21.741,-0l-100.4,100.356c-5.089,5.089 -5.982,12.902 -2.188,19.018l230.444,370.13c-4.643,4.106 -8.973,8.169 -13.169,12.365c-112.722,112.722 -112.722,296.158 -0,408.924c54.597,54.598 127.23,84.687 204.462,84.687c48.392,-0 94.999,-11.875 136.471,-34.107l11.25,11.205c15,15 34.687,22.5 54.375,22.5c19.687,0 39.419,-7.5 54.419,-22.5l9.776,-9.732c29.955,-29.999 29.955,-78.838 0,-108.793l-11.25,-11.25Z" style="fill:#0b0b16;fill-rule:nonzero;"/><path d="M664.113,807.502c-25.803,25.848 -60.133,40 -96.65,40c-36.518,-0 -70.848,-14.152 -96.651,-40c-25.848,-25.848 -40.044,-60.133 -40.044,-96.65c-0,-36.563 14.196,-70.848 40.044,-96.696c26.652,-26.651 61.606,-39.955 96.651,-39.955c34.999,0 69.999,13.304 96.65,39.955c25.848,25.848 40.045,60.133 40.045,96.696c-0,36.517 -14.197,70.802 -40.045,96.65Zm-215.087,-215.087c-31.606,31.607 -49.017,73.705 -49.017,118.437c0,44.731 17.411,86.784 49.017,118.436c31.652,31.651 73.705,48.972 118.437,48.972c44.731,0 86.784,-17.321 118.391,-48.972c31.652,-31.652 49.062,-73.705 49.062,-118.436c0,-44.732 -17.41,-86.83 -49.062,-118.437c-65.267,-65.312 -171.516,-65.312 -236.828,0Z" style="fill:#0b0b16;fill-rule:nonzero;"/></g></g></svg>