<?xml version="1.0" encoding="UTF-8" standalone="no"?><!DOCTYPE svg PUBLIC "-//W3C//DTD SVG 1.1//EN" "http://www.w3.org/Graphics/SVG/1.1/DTD/svg11.dtd"><svg width="100%" height="100%" viewBox="0 0 2084 2084" version="1.1" xmlns="http://www.w3.org/2000/svg" xmlns:xlink="http://www.w3.org/1999/xlink" xml:space="preserve" xmlns:serif="http://www.serif.com/" style="fill-rule:evenodd;clip-rule:evenodd;stroke-linejoin:round;stroke-miterlimit:2;"><rect id="画板1" x="0" y="0" width="2083.33" height="2083.33" style="fill:none;"/><clipPath id="_clip1"><rect id="画板11" serif:id="画板1" x="0" y="0" width="2083.33" height="2083.33"/></clipPath><g clip-path="url(#_clip1)"><g><path d="M1641.68,2020.09l-0.93,0.187l-0.837,-0.187l-168.055,-0c82.958,-65.103 131.413,-168.242 136.435,-248.688c10.23,-164.706 21.296,-347.639 -66.59,-581.727c8.092,5.12 16.182,10.326 24.925,14.787c23.437,12.187 49.197,18.324 75.052,18.324c25.762,-0 51.523,-6.137 75.053,-18.324c8.556,-4.371 16.554,-9.576 24.645,-14.69c-89.188,235.853 -78.214,417.764 -68.17,581.63c5.022,80.446 53.476,183.585 136.527,248.688l-168.055,-0Zm-276.959,-1697.19l553.826,-0c16.461,222.922 11.625,524.156 -103.512,705.046l-0.929,1.112l-0.466,0.84c-32.55,50.497 -73.843,91.696 -125.925,118.574c-28.83,14.884 -63.24,14.884 -92.164,0c-51.895,-26.878 -93.188,-67.889 -125.738,-118.392l-0.559,-1.022l-1.023,-1.3c-115.135,-180.798 -119.972,-482.027 -103.51,-704.858Zm522.669,-259.757c6.139,35.897 17.113,107.045 25.763,196.607l-543.038,-0c8.649,-89.562 19.717,-160.71 25.761,-196.607l491.514,-0Zm101.466,1956.94c-152.523,-0 -246.176,-149.363 -252.593,-252.593c-11.812,-190.84 -25.11,-407.161 133.365,-708.395c209.811,-335.083 81.654,-1000.42 75.051,-1033.62c-2.882,-14.884 -15.902,-25.487 -30.876,-25.487l-544.246,-0c-15.066,-0 -28.087,10.603 -30.97,25.487c-6.603,33.201 -134.759,698.813 75.239,1033.9c156.801,298.168 143.967,506.582 131.411,708.117c-6.324,103.23 -99.977,252.593 -252.5,252.593c-17.484,-0 -31.62,14.14 -31.62,31.623c-0,17.392 14.136,31.617 31.62,31.617l347.176,0l0.837,-0.181l0.93,0.181l347.176,0c17.484,0 31.528,-14.225 31.528,-31.617c-0,-17.483 -14.044,-31.623 -31.528,-31.623Z" style="fill:#0b0b16;fill-rule:nonzero;"/><path d="M947.606,917.836c-58.312,113.556 -158.289,191.306 -297.048,230.921c-51.429,14.606 -112.905,14.606 -164.334,0c-138.759,-39.615 -238.736,-117.365 -297.142,-230.921c-49.197,-95.885 -63.612,-206.835 -62.031,-310.719l882.586,0c1.582,103.884 -12.834,214.834 -62.031,310.719Zm-216.787,1102.26l-328.576,-0c80.819,-62.31 127.784,-159.313 132.806,-236.132l-0.092,-440.918c0.278,-3.628 3.068,-64.081 -26.971,-125.647c19.717,3.162 39.898,5.393 60.358,5.393c19.066,-0 37.945,-1.766 56.452,-4.559c-29.574,61.107 -26.784,120.623 -26.598,123.042l-0,444.738c5.022,75.513 51.988,171.96 132.621,234.083Zm-547.782,-1754.67l770.614,0c13.672,43.714 43.525,151.872 53.104,278.45l-876.822,-0c9.673,-126.578 39.62,-234.736 53.104,-278.45Zm793.493,-63.149l-816.37,-0c-13.3,-0 -25.111,8.372 -29.668,20.838c-6.231,17.205 -150.292,425.575 2.325,723.273c57.103,111.416 148.71,192.139 272.03,241.058l2.047,2.419c68.914,53.568 65.101,148.709 65.007,151.406l0.094,440.646c-6.325,97.276 -99.885,238.175 -252.594,238.175c-17.484,-0 -31.528,14.14 -31.528,31.623c0,17.392 14.044,31.617 31.528,31.617l694.444,0c17.393,0 31.528,-14.225 31.528,-31.617c0,-17.483 -14.135,-31.623 -31.528,-31.623c-152.615,-0 -246.268,-140.899 -252.499,-236.132l-0,-444.364c-0.092,-1.022 -3.905,-96.163 65.009,-149.731l-0,-0.091c126.296,-48.55 219.484,-130.205 277.516,-243.386c152.617,-297.698 8.558,-706.068 2.419,-723.273c-4.557,-12.466 -16.462,-20.838 -29.76,-20.838Z" style="fill:#0b0b16;fill-rule:nonzero;"/></g></g></svg>