<?xml version="1.0" encoding="UTF-8" standalone="no"?><!DOCTYPE svg PUBLIC "-//W3C//DTD SVG 1.1//EN" "http://www.w3.org/Graphics/SVG/1.1/DTD/svg11.dtd"><svg width="100%" height="100%" viewBox="0 0 2084 2084" version="1.1" xmlns="http://www.w3.org/2000/svg" xmlns:xlink="http://www.w3.org/1999/xlink" xml:space="preserve" xmlns:serif="http://www.serif.com/" style="fill-rule:evenodd;clip-rule:evenodd;stroke-linejoin:round;stroke-miterlimit:2;"><rect id="画板1" x="0" y="0" width="2083.33" height="2083.33" style="fill:none;"/><clipPath id="_clip1"><rect id="画板11" serif:id="画板1" x="0" y="0" width="2083.33" height="2083.33"/></clipPath><g clip-path="url(#_clip1)"><g><path d="M875.985,1594.05l-390.887,0l-0,-452.362l390.887,0l-0,452.362Zm-631.299,426.041l0,-1046.92c0,-29.852 10.603,-58.779 29.858,-81.655l165.636,-195.676c28.922,-34.223 44.918,-77.659 44.918,-122.388l-0,-70.961l150.384,0l0,70.961c0,44.729 15.996,88.165 44.826,122.291l165.728,195.773c19.254,22.876 29.949,51.803 29.949,81.655l-0,105.28l-422.51,-0c-17.484,-0 -31.618,14.134 -31.618,31.617l0,515.512c0,17.392 14.134,31.617 31.618,31.617l422.51,0l-0,362.897l-631.299,-0Zm240.412,-1956.94l150.384,-0l0,376.094l-150.384,-0l-0,-376.094Zm243.386,591.859c-19.254,-22.785 -29.852,-51.706 -29.852,-81.558l-0,-541.834c-0,-17.386 -14.14,-31.617 -31.533,-31.617l-213.624,-0c-17.484,-0 -31.618,14.231 -31.618,31.617l0,541.834c0,29.852 -10.513,58.773 -29.761,81.558l-165.824,195.863c-28.831,34.132 -44.73,77.562 -44.73,122.298l-0,1078.54c-0,17.393 14.134,31.623 31.527,31.623l694.442,0c17.393,0 31.527,-14.23 31.527,-31.623l-0,-1078.54c-0,-44.736 -15.9,-88.166 -44.827,-122.298l-165.727,-195.863Z" style="fill:#0b0b16;fill-rule:nonzero;"/><path d="M1612.65,2020.09l-189.818,-0c40.08,-30.136 72.822,-69.473 94.863,-114.953c22.042,45.48 54.868,84.817 94.955,114.953Zm-408.376,-1068.6l626.837,0c-31.811,270.083 -162.288,479.427 -313.416,479.427c-151.128,0 -281.611,-209.344 -313.421,-479.427Zm5.211,-292.674l616.506,0c8.372,54.499 12.556,110.298 12.556,166.29c-0,21.298 -0.647,42.312 -1.766,63.144l-638.087,-0c-1.209,-20.832 -1.856,-41.846 -1.856,-63.144c-0,-55.992 4.274,-111.791 12.647,-166.29Zm687.932,263.01l0.465,-1.953l-0.182,-0.931c2.322,-30.692 4.087,-61.753 4.087,-93.836c0,-68.73 -6.045,-137.085 -18.039,-203.305c-2.696,-15.066 -15.809,-25.947 -31.061,-25.947l-669.893,-0c-15.348,-0 -28.364,10.881 -31.066,25.947c-11.904,66.124 -18.04,134.575 -18.04,203.305c0,31.992 1.675,63.144 4.002,93.836l-0.187,0.931l0.465,2.14c24.925,309.601 166.749,544.614 348.104,569.261l0,276.309c0,139.225 -113.181,252.503 -252.502,252.503c-17.296,-0 -31.43,14.134 -31.43,31.617c-0,17.393 14.134,31.623 31.43,31.623l568.245,0c17.387,0 31.617,-14.23 31.617,-31.623c0,-17.483 -14.23,-31.617 -31.617,-31.617c-139.225,-0 -252.502,-113.278 -252.502,-252.503l-0,-276.309c181.445,-24.647 323.275,-259.751 348.104,-569.448Z" style="fill:#0b0b16;fill-rule:nonzero;"/></g></g></svg>