<?xml version="1.0" encoding="UTF-8" standalone="no"?><!DOCTYPE svg PUBLIC "-//W3C//DTD SVG 1.1//EN" "http://www.w3.org/Graphics/SVG/1.1/DTD/svg11.dtd"><svg width="100%" height="100%" viewBox="0 0 2084 2084" version="1.1" xmlns="http://www.w3.org/2000/svg" xmlns:xlink="http://www.w3.org/1999/xlink" xml:space="preserve" xmlns:serif="http://www.serif.com/" style="fill-rule:evenodd;clip-rule:evenodd;stroke-linejoin:round;stroke-miterlimit:2;"><rect id="画板1" x="0" y="0" width="2083.33" height="2083.33" style="fill:none;"/><clipPath id="_clip1"><rect id="画板11" serif:id="画板1" x="0" y="0" width="2083.33" height="2083.33"/></clipPath><g clip-path="url(#_clip1)"><g><path d="M1362.17,1817.4l2.884,0.093c16.087,-0 29.853,-12.37 31.34,-28.646l66.126,-728.507c1.584,-17.392 -11.251,-32.738 -28.644,-34.319c-17.302,-1.488 -32.646,11.254 -34.32,28.553l-66.036,728.6c-1.487,17.299 11.257,32.737 28.65,34.226Z" style="fill:#0b0b16;fill-rule:nonzero;"/><path d="M718.207,1817.49l2.787,-0.093c17.489,-1.489 30.324,-16.927 28.74,-34.226l-67.522,-744.318c-1.579,-17.299 -16.928,-30.226 -34.315,-28.645c-17.302,1.674 -30.137,16.926 -28.553,34.411l67.522,744.225c1.391,16.276 15.248,28.646 31.341,28.646Z" style="fill:#0b0b16;fill-rule:nonzero;"/><path d="M1542.41,1954.3l-1001.57,-0l-171.875,-1096.06l1345.13,-0l-171.688,1096.06Zm-1009.38,-1446.5l1017.2,-0l148.902,287.291l-1315.09,0l148.992,-287.291Zm1546.95,153.178c-7.902,-15.439 -26.782,-21.856 -42.409,-14.044l-272.782,137.555l-167.408,-322.727c-5.301,-10.417 -16.274,-17.02 -28.087,-17.02l-664.056,0l-34.689,-319.099c-2.05,-17.393 -18.046,-30.041 -34.877,-27.995c-17.302,1.768 -29.853,17.392 -27.997,34.877l34.133,312.217l-62.124,0l-67.336,-353.232c-3.349,-17.113 -19.72,-28.18 -37.107,-25.112c-17.024,3.442 -28.275,19.81 -24.926,37.017l65.099,341.327l-201.444,0c-11.813,0 -22.695,6.603 -28.185,17.02l-167.316,322.727l-272.782,-137.555c-15.531,-7.812 -34.411,-1.395 -42.319,14.044c-7.811,15.625 -1.578,34.598 13.953,42.503l286.179,143.972l179.22,1143.31c2.322,15.439 15.622,26.692 31.25,26.692l1055.32,0c15.622,0 28.922,-11.253 31.249,-26.692l179.221,-1143.31l286.172,-143.972c15.537,-7.905 21.861,-26.878 14.044,-42.503Z" style="fill:#0b0b16;fill-rule:nonzero;"/></g></g></svg>