<?xml version="1.0" encoding="UTF-8" standalone="no"?><!DOCTYPE svg PUBLIC "-//W3C//DTD SVG 1.1//EN" "http://www.w3.org/Graphics/SVG/1.1/DTD/svg11.dtd"><svg width="100%" height="100%" viewBox="0 0 2084 2084" version="1.1" xmlns="http://www.w3.org/2000/svg" xmlns:xlink="http://www.w3.org/1999/xlink" xml:space="preserve" xmlns:serif="http://www.serif.com/" style="fill-rule:evenodd;clip-rule:evenodd;stroke-linejoin:round;stroke-miterlimit:2;"><rect id="画板1" x="0" y="0" width="2083.33" height="2083.33" style="fill:none;"/><clipPath id="_clip1"><rect id="画板11" serif:id="画板1" x="0" y="0" width="2083.33" height="2083.33"/></clipPath><g clip-path="url(#_clip1)"><g><path d="M2020.37,1897.88c0,67.43 -55.06,122.496 -122.677,122.496l-1711.95,-0c-67.526,-0 -122.587,-55.066 -122.587,-122.496l0,-1712.13c0,-67.521 55.061,-122.587 122.587,-122.587l1711.95,0c67.617,0 122.677,55.066 122.677,122.587l0,1712.13Zm-122.677,-1897.88l-1711.95,0c-102.405,0 -185.742,83.342 -185.742,185.742l0,1712.13c0,102.309 83.337,185.646 185.742,185.646l1711.95,-0c102.496,-0 185.645,-83.337 185.645,-185.646l0,-1712.13c0,-102.4 -83.149,-185.742 -185.645,-185.742Z" style="fill:#0b0b16;fill-rule:nonzero;"/><path d="M1663.39,733.483c-13.114,35.156 -224.43,98.777 -590.056,102.218l0,-204.533c365.626,3.537 576.942,67.061 590.056,102.315Zm-72.454,268.426c-0,29.764 -176.347,98.312 -517.602,102.218l0,-204.527c341.255,4.087 517.602,72.545 517.602,102.309Zm-72.545,268.522c-0,29.577 -151.704,97.472 -445.057,102.218l0,-204.532c293.353,4.745 445.057,72.641 445.057,102.314Zm-72.641,268.426c-0,33.482 -131.33,97.007 -372.416,102.122l0,-204.249c241.086,5.115 372.416,68.736 372.416,102.127Zm-808.072,0c0,-33.391 131.42,-97.012 372.41,-102.127l-0,204.249c-240.99,-5.115 -372.41,-68.64 -372.41,-102.122Zm-72.641,-268.426c-0,-29.673 151.607,-97.569 445.051,-102.314l-0,204.532c-293.444,-4.746 -445.051,-72.641 -445.051,-102.218Zm-72.642,-268.522c0,-29.764 176.438,-98.222 517.693,-102.309l-0,204.527c-341.255,-3.906 -517.693,-72.454 -517.693,-102.218Zm-72.641,-267.779c10.604,-35.061 222.296,-99.335 590.334,-102.962l-0,204.533c-368.038,-3.537 -579.73,-67.902 -590.334,-101.571Zm974.932,-418.262c-17.763,-1.771 -32.835,10.973 -34.601,28.271c-1.765,17.394 10.792,32.738 28.18,34.6c256.153,26.046 336.702,70.411 347.21,86.312c-21.765,36.741 -255.221,99.152 -662.141,102.314l0,-220.064c0,-17.485 -14.135,-31.717 -31.62,-31.717c-17.394,-0 -31.626,14.232 -31.626,31.717l-0,220.064c-406.919,-3.162 -640.279,-65.573 -662.232,-102.314c10.695,-15.901 91.245,-60.266 347.954,-86.312c17.297,-1.862 30.042,-17.394 28.18,-34.6c-1.766,-17.394 -16.463,-30.042 -34.692,-28.271c-268.8,27.34 -405.154,77.472 -405.154,149.092c0,74.038 148.258,114.963 313.631,137.653c-136.449,25.115 -241.086,66.414 -241.086,130.87c0,71.71 129.382,114.588 288.244,138.675c-121.286,25.301 -215.693,66.13 -215.693,129.751c-0,71.71 119.612,114.497 262.846,138.584c-111.983,27.067 -190.205,69.757 -190.205,129.938c0,68.083 100.357,113.844 236.432,139.884c-97.104,27.624 -163.79,70.598 -163.79,128.542c-0,108.82 234.944,165.833 467.191,165.833c232.151,0 467.185,-57.013 467.185,-165.833c0,-57.944 -66.686,-100.918 -163.789,-128.542c136.075,-26.04 236.34,-71.801 236.34,-139.884c-0,-60.181 -78.313,-102.871 -190.113,-129.938c143.051,-24.087 262.754,-66.874 262.754,-138.584c0,-63.621 -94.31,-104.45 -215.597,-129.751c158.766,-24.087 288.33,-66.965 288.33,-138.675c-0,-64.456 -104.637,-105.755 -241.177,-130.87c165.373,-22.69 313.631,-63.615 313.631,-137.653c-0,-71.523 -136.07,-121.656 -404.592,-149.092Z" style="fill:#0b0b16;fill-rule:nonzero;"/><path d="M1325.76,1829.88l-188.252,-0c-17.484,-0 -31.62,14.232 -31.62,31.626c0,17.485 14.136,31.529 31.62,31.529l188.252,0c17.394,0 31.535,-14.044 31.535,-31.529c-0,-17.394 -14.141,-31.626 -31.535,-31.626Z" style="fill:#0b0b16;fill-rule:nonzero;"/><path d="M1767.85,1829.88l-283.124,-0c-17.581,-0 -31.535,14.232 -31.535,31.626c0,17.485 13.954,31.529 31.535,31.529l283.124,0c17.388,0 31.433,-14.044 31.433,-31.529c-0,-17.394 -14.045,-31.626 -31.433,-31.626Z" style="fill:#0b0b16;fill-rule:nonzero;"/></g></g></svg>